<svg width="863" height="295" viewBox="0 0 863 295" fill="none" xmlns="http://www.w3.org/2000/svg">
<path d="M136 110C134.895 110 134 110.895 134 112C134 113.105 134.895 114 136 114V110ZM365.414 113.414C366.195 112.633 366.195 111.367 365.414 110.586L352.686 97.8579C351.905 97.0768 350.639 97.0768 349.858 97.8579C349.077 98.6389 349.077 99.9052 349.858 100.686L361.172 112L349.858 123.314C349.077 124.095 349.077 125.361 349.858 126.142C350.639 126.923 351.905 126.923 352.686 126.142L365.414 113.414ZM141.182 114C142.286 114 143.182 113.105 143.182 112C143.182 110.895 142.286 110 141.182 110V114ZM151.545 110C150.441 110 149.545 110.895 149.545 112C149.545 113.105 150.441 114 151.545 114V110ZM161.909 114C163.014 114 163.909 113.105 163.909 112C163.909 110.895 163.014 110 161.909 110V114ZM172.273 110C171.168 110 170.273 110.895 170.273 112C170.273 113.105 171.168 114 172.273 114V110ZM182.636 114C183.741 114 184.636 113.105 184.636 112C184.636 110.895 183.741 110 182.636 110V114ZM193 110C191.895 110 191 110.895 191 112C191 113.105 191.895 114 193 114V110ZM203.364 114C204.468 114 205.364 113.105 205.364 112C205.364 110.895 204.468 110 203.364 110V114ZM213.727 110C212.623 110 211.727 110.895 211.727 112C211.727 113.105 212.623 114 213.727 114V110ZM224.091 114C225.195 114 226.091 113.105 226.091 112C226.091 110.895 225.195 110 224.091 110V114ZM234.455 110C233.35 110 232.455 110.895 232.455 112C232.455 113.105 233.35 114 234.455 114V110ZM244.818 114C245.923 114 246.818 113.105 246.818 112C246.818 110.895 245.923 110 244.818 110V114ZM255.182 110C254.077 110 253.182 110.895 253.182 112C253.182 113.105 254.077 114 255.182 114V110ZM265.545 114C266.65 114 267.545 113.105 267.545 112C267.545 110.895 266.65 110 265.545 110V114ZM275.909 110C274.804 110 273.909 110.895 273.909 112C273.909 113.105 274.804 114 275.909 114V110ZM286.273 114C287.377 114 288.273 113.105 288.273 112C288.273 110.895 287.377 110 286.273 110V114ZM296.636 110C295.532 110 294.636 110.895 294.636 112C294.636 113.105 295.532 114 296.636 114V110ZM307 114C308.105 114 309 113.105 309 112C309 110.895 308.105 110 307 110V114ZM317.364 110C316.259 110 315.364 110.895 315.364 112C315.364 113.105 316.259 114 317.364 114V110ZM327.727 114C328.832 114 329.727 113.105 329.727 112C329.727 110.895 328.832 110 327.727 110V114ZM338.091 110C336.986 110 336.091 110.895 336.091 112C336.091 113.105 336.986 114 338.091 114V110ZM348.454 114C349.559 114 350.454 113.105 350.454 112C350.454 110.895 349.559 110 348.454 110V114ZM358.818 110C357.714 110 356.818 110.895 356.818 112C356.818 113.105 357.714 114 358.818 114V110ZM136 114H141.182V110H136V114ZM151.545 114H161.909V110H151.545V114ZM172.273 114H182.636V110H172.273V114ZM193 114H203.364V110H193V114ZM213.727 114H224.091V110H213.727V114ZM234.455 114H244.818V110H234.455V114ZM255.182 114H265.545V110H255.182V114ZM275.909 114H286.273V110H275.909V114ZM296.636 114H307V110H296.636V114ZM317.364 114H327.727V110H317.364V114ZM338.091 114H348.454V110H338.091V114ZM358.818 114H364V110H358.818V114Z" fill="#88A2FF"/>
<path d="M478 110C476.895 110 476 110.895 476 112C476 113.105 476.895 114 478 114V110ZM707.414 113.414C708.195 112.633 708.195 111.367 707.414 110.586L694.686 97.8579C693.905 97.0768 692.639 97.0768 691.858 97.8579C691.077 98.6389 691.077 99.9052 691.858 100.686L703.172 112L691.858 123.314C691.077 124.095 691.077 125.361 691.858 126.142C692.639 126.923 693.905 126.923 694.686 126.142L707.414 113.414ZM483.182 114C484.286 114 485.182 113.105 485.182 112C485.182 110.895 484.286 110 483.182 110V114ZM493.545 110C492.441 110 491.545 110.895 491.545 112C491.545 113.105 492.441 114 493.545 114V110ZM503.909 114C505.014 114 505.909 113.105 505.909 112C505.909 110.895 505.014 110 503.909 110V114ZM514.273 110C513.168 110 512.273 110.895 512.273 112C512.273 113.105 513.168 114 514.273 114V110ZM524.636 114C525.741 114 526.636 113.105 526.636 112C526.636 110.895 525.741 110 524.636 110V114ZM535 110C533.895 110 533 110.895 533 112C533 113.105 533.895 114 535 114V110ZM545.364 114C546.468 114 547.364 113.105 547.364 112C547.364 110.895 546.468 110 545.364 110V114ZM555.727 110C554.623 110 553.727 110.895 553.727 112C553.727 113.105 554.623 114 555.727 114V110ZM566.091 114C567.195 114 568.091 113.105 568.091 112C568.091 110.895 567.195 110 566.091 110V114ZM576.455 110C575.35 110 574.455 110.895 574.455 112C574.455 113.105 575.35 114 576.455 114V110ZM586.818 114C587.923 114 588.818 113.105 588.818 112C588.818 110.895 587.923 110 586.818 110V114ZM597.182 110C596.077 110 595.182 110.895 595.182 112C595.182 113.105 596.077 114 597.182 114V110ZM607.545 114C608.65 114 609.545 113.105 609.545 112C609.545 110.895 608.65 110 607.545 110V114ZM617.909 110C616.804 110 615.909 110.895 615.909 112C615.909 113.105 616.804 114 617.909 114V110ZM628.273 114C629.377 114 630.273 113.105 630.273 112C630.273 110.895 629.377 110 628.273 110V114ZM638.636 110C637.532 110 636.636 110.895 636.636 112C636.636 113.105 637.532 114 638.636 114V110ZM649 114C650.105 114 651 113.105 651 112C651 110.895 650.105 110 649 110V114ZM659.364 110C658.259 110 657.364 110.895 657.364 112C657.364 113.105 658.259 114 659.364 114V110ZM669.727 114C670.832 114 671.727 113.105 671.727 112C671.727 110.895 670.832 110 669.727 110V114ZM680.091 110C678.986 110 678.091 110.895 678.091 112C678.091 113.105 678.986 114 680.091 114V110ZM690.454 114C691.559 114 692.454 113.105 692.454 112C692.454 110.895 691.559 110 690.454 110V114ZM700.818 110C699.714 110 698.818 110.895 698.818 112C698.818 113.105 699.714 114 700.818 114V110ZM478 114H483.182V110H478V114ZM493.545 114H503.909V110H493.545V114ZM514.273 114H524.636V110H514.273V114ZM535 114H545.364V110H535V114ZM555.727 114H566.091V110H555.727V114ZM576.455 114H586.818V110H576.455V114ZM597.182 114H607.545V110H597.182V114ZM617.909 114H628.273V110H617.909V114ZM638.636 114H649V110H638.636V114ZM659.364 114H669.727V110H659.364V114ZM680.091 114H690.454V110H680.091V114ZM700.818 114H706V110H700.818V114Z" fill="#88A2FF"/>
<path d="M134.586 160.586C133.805 161.367 133.805 162.633 134.586 163.414L147.314 176.142C148.095 176.923 149.361 176.923 150.142 176.142C150.923 175.361 150.923 174.095 150.142 173.314L138.828 162L150.142 150.686C150.923 149.905 150.923 148.639 150.142 147.858C149.361 147.077 148.095 147.077 147.314 147.858L134.586 160.586ZM364 164C365.105 164 366 163.105 366 162C366 160.895 365.105 160 364 160V164ZM141.182 164C142.286 164 143.182 163.105 143.182 162C143.182 160.895 142.286 160 141.182 160V164ZM151.545 160C150.441 160 149.545 160.895 149.545 162C149.545 163.105 150.441 164 151.545 164V160ZM161.909 164C163.014 164 163.909 163.105 163.909 162C163.909 160.895 163.014 160 161.909 160V164ZM172.273 160C171.168 160 170.273 160.895 170.273 162C170.273 163.105 171.168 164 172.273 164V160ZM182.636 164C183.741 164 184.636 163.105 184.636 162C184.636 160.895 183.741 160 182.636 160V164ZM193 160C191.895 160 191 160.895 191 162C191 163.105 191.895 164 193 164V160ZM203.364 164C204.468 164 205.364 163.105 205.364 162C205.364 160.895 204.468 160 203.364 160V164ZM213.727 160C212.623 160 211.727 160.895 211.727 162C211.727 163.105 212.623 164 213.727 164V160ZM224.091 164C225.195 164 226.091 163.105 226.091 162C226.091 160.895 225.195 160 224.091 160V164ZM234.455 160C233.35 160 232.455 160.895 232.455 162C232.455 163.105 233.35 164 234.455 164V160ZM244.818 164C245.923 164 246.818 163.105 246.818 162C246.818 160.895 245.923 160 244.818 160V164ZM255.182 160C254.077 160 253.182 160.895 253.182 162C253.182 163.105 254.077 164 255.182 164V160ZM265.545 164C266.65 164 267.545 163.105 267.545 162C267.545 160.895 266.65 160 265.545 160V164ZM275.909 160C274.804 160 273.909 160.895 273.909 162C273.909 163.105 274.804 164 275.909 164V160ZM286.273 164C287.377 164 288.273 163.105 288.273 162C288.273 160.895 287.377 160 286.273 160V164ZM296.636 160C295.532 160 294.636 160.895 294.636 162C294.636 163.105 295.532 164 296.636 164V160ZM307 164C308.105 164 309 163.105 309 162C309 160.895 308.105 160 307 160V164ZM317.364 160C316.259 160 315.364 160.895 315.364 162C315.364 163.105 316.259 164 317.364 164V160ZM327.727 164C328.832 164 329.727 163.105 329.727 162C329.727 160.895 328.832 160 327.727 160V164ZM338.091 160C336.986 160 336.091 160.895 336.091 162C336.091 163.105 336.986 164 338.091 164V160ZM348.454 164C349.559 164 350.454 163.105 350.454 162C350.454 160.895 349.559 160 348.454 160V164ZM358.818 160C357.714 160 356.818 160.895 356.818 162C356.818 163.105 357.714 164 358.818 164V160ZM136 164H141.182V160H136V164ZM151.545 164H161.909V160H151.545V164ZM172.273 164H182.636V160H172.273V164ZM193 164H203.364V160H193V164ZM213.727 164H224.091V160H213.727V164ZM234.455 164H244.818V160H234.455V164ZM255.182 164H265.545V160H255.182V164ZM275.909 164H286.273V160H275.909V164ZM296.636 164H307V160H296.636V164ZM317.364 164H327.727V160H317.364V164ZM338.091 164H348.454V160H338.091V164ZM358.818 164H364V160H358.818V164Z" fill="#88A2FF"/>
<path d="M476.586 160.586C475.805 161.367 475.805 162.633 476.586 163.414L489.314 176.142C490.095 176.923 491.361 176.923 492.142 176.142C492.923 175.361 492.923 174.095 492.142 173.314L480.828 162L492.142 150.686C492.923 149.905 492.923 148.639 492.142 147.858C491.361 147.077 490.095 147.077 489.314 147.858L476.586 160.586ZM706 164C707.105 164 708 163.105 708 162C708 160.895 707.105 160 706 160V164ZM483.182 164C484.286 164 485.182 163.105 485.182 162C485.182 160.895 484.286 160 483.182 160V164ZM493.545 160C492.441 160 491.545 160.895 491.545 162C491.545 163.105 492.441 164 493.545 164V160ZM503.909 164C505.014 164 505.909 163.105 505.909 162C505.909 160.895 505.014 160 503.909 160V164ZM514.273 160C513.168 160 512.273 160.895 512.273 162C512.273 163.105 513.168 164 514.273 164V160ZM524.636 164C525.741 164 526.636 163.105 526.636 162C526.636 160.895 525.741 160 524.636 160V164ZM535 160C533.895 160 533 160.895 533 162C533 163.105 533.895 164 535 164V160ZM545.364 164C546.468 164 547.364 163.105 547.364 162C547.364 160.895 546.468 160 545.364 160V164ZM555.727 160C554.623 160 553.727 160.895 553.727 162C553.727 163.105 554.623 164 555.727 164V160ZM566.091 164C567.195 164 568.091 163.105 568.091 162C568.091 160.895 567.195 160 566.091 160V164ZM576.455 160C575.35 160 574.455 160.895 574.455 162C574.455 163.105 575.35 164 576.455 164V160ZM586.818 164C587.923 164 588.818 163.105 588.818 162C588.818 160.895 587.923 160 586.818 160V164ZM597.182 160C596.077 160 595.182 160.895 595.182 162C595.182 163.105 596.077 164 597.182 164V160ZM607.545 164C608.65 164 609.545 163.105 609.545 162C609.545 160.895 608.65 160 607.545 160V164ZM617.909 160C616.804 160 615.909 160.895 615.909 162C615.909 163.105 616.804 164 617.909 164V160ZM628.273 164C629.377 164 630.273 163.105 630.273 162C630.273 160.895 629.377 160 628.273 160V164ZM638.636 160C637.532 160 636.636 160.895 636.636 162C636.636 163.105 637.532 164 638.636 164V160ZM649 164C650.105 164 651 163.105 651 162C651 160.895 650.105 160 649 160V164ZM659.364 160C658.259 160 657.364 160.895 657.364 162C657.364 163.105 658.259 164 659.364 164V160ZM669.727 164C670.832 164 671.727 163.105 671.727 162C671.727 160.895 670.832 160 669.727 160V164ZM680.091 160C678.986 160 678.091 160.895 678.091 162C678.091 163.105 678.986 164 680.091 164V160ZM690.454 164C691.559 164 692.454 163.105 692.454 162C692.454 160.895 691.559 160 690.454 160V164ZM700.818 160C699.714 160 698.818 160.895 698.818 162C698.818 163.105 699.714 164 700.818 164V160ZM478 164H483.182V160H478V164ZM493.545 164H503.909V160H493.545V164ZM514.273 164H524.636V160H514.273V164ZM535 164H545.364V160H535V164ZM555.727 164H566.091V160H555.727V164ZM576.455 164H586.818V160H576.455V164ZM597.182 164H607.545V160H597.182V164ZM617.909 164H628.273V160H617.909V164ZM638.636 164H649V160H638.636V164ZM659.364 164H669.727V160H659.364V164ZM680.091 164H690.454V160H680.091V164ZM700.818 164H706V160H700.818V164Z" fill="#88A2FF"/>
<path d="M71.1989 208.364H73.6591V215.92C73.6591 216.769 73.4564 217.511 73.0511 218.148C72.6496 218.784 72.0871 219.28 71.3636 219.636C70.6402 219.989 69.7973 220.165 68.8352 220.165C67.8693 220.165 67.0246 219.989 66.3011 219.636C65.5777 219.28 65.0152 218.784 64.6136 218.148C64.2121 217.511 64.0114 216.769 64.0114 215.92V208.364H66.4716V215.71C66.4716 216.153 66.5682 216.547 66.7614 216.892C66.9583 217.237 67.2348 217.508 67.5909 217.705C67.947 217.902 68.3617 218 68.8352 218C69.3125 218 69.7273 217.902 70.0795 217.705C70.4356 217.508 70.7102 217.237 70.9034 216.892C71.1004 216.547 71.1989 216.153 71.1989 215.71V208.364ZM84.3957 211.71C84.3503 211.252 84.1552 210.896 83.8105 210.642C83.4658 210.388 82.998 210.261 82.4071 210.261C82.0056 210.261 81.6666 210.318 81.3901 210.432C81.1135 210.542 80.9014 210.695 80.7537 210.892C80.6098 211.089 80.5378 211.312 80.5378 211.562C80.5302 211.771 80.5738 211.953 80.6685 212.108C80.767 212.263 80.9014 212.398 81.0719 212.511C81.2423 212.621 81.4393 212.718 81.6628 212.801C81.8863 212.881 82.1249 212.949 82.3787 213.006L83.4241 213.256C83.9317 213.369 84.3976 213.521 84.8219 213.71C85.2461 213.9 85.6135 214.133 85.9241 214.409C86.2348 214.686 86.4753 215.011 86.6457 215.386C86.82 215.761 86.909 216.191 86.9128 216.676C86.909 217.388 86.7272 218.006 86.3673 218.528C86.0113 219.047 85.4961 219.451 84.8219 219.739C84.1514 220.023 83.3427 220.165 82.3957 220.165C81.4563 220.165 80.6382 220.021 79.9412 219.733C79.248 219.445 78.7063 219.019 78.3162 218.455C77.9298 217.886 77.7272 217.184 77.7082 216.347H80.0889C80.1154 216.737 80.2272 217.062 80.4241 217.324C80.6249 217.581 80.892 217.777 81.2253 217.909C81.5624 218.038 81.9431 218.102 82.3673 218.102C82.784 218.102 83.1457 218.042 83.4526 217.92C83.7632 217.799 84.0037 217.631 84.1741 217.415C84.3446 217.199 84.4298 216.951 84.4298 216.67C84.4298 216.409 84.3522 216.189 84.1969 216.011C84.0454 215.833 83.8219 215.682 83.5264 215.557C83.2348 215.432 82.8768 215.318 82.4526 215.216L81.1855 214.898C80.2045 214.659 79.4298 214.286 78.8616 213.778C78.2935 213.271 78.0113 212.587 78.0151 211.727C78.0113 211.023 78.1988 210.407 78.5776 209.881C78.9601 209.354 79.4848 208.943 80.1514 208.648C80.8181 208.352 81.5757 208.205 82.4241 208.205C83.2878 208.205 84.0416 208.352 84.6855 208.648C85.3332 208.943 85.837 209.354 86.1969 209.881C86.5567 210.407 86.7423 211.017 86.7537 211.71H84.3957ZM90.9676 220V208.364H98.8085V210.392H93.4278V213.165H98.4051V215.193H93.4278V217.972H98.8312V220H90.9676ZM103.164 220V208.364H107.755C108.634 208.364 109.384 208.521 110.005 208.835C110.63 209.146 111.106 209.587 111.432 210.159C111.761 210.727 111.926 211.396 111.926 212.165C111.926 212.937 111.759 213.602 111.426 214.159C111.093 214.712 110.61 215.136 109.977 215.432C109.348 215.727 108.587 215.875 107.693 215.875H104.619V213.898H107.295C107.765 213.898 108.155 213.833 108.466 213.705C108.776 213.576 109.007 213.383 109.159 213.125C109.314 212.867 109.392 212.547 109.392 212.165C109.392 211.778 109.314 211.453 109.159 211.188C109.007 210.922 108.774 210.722 108.46 210.585C108.149 210.445 107.757 210.375 107.284 210.375H105.625V220H103.164ZM109.449 214.705L112.341 220H109.625L106.795 214.705H109.449Z" fill="#3D3D3E"/>
<path d="M401.278 212.438H398.79C398.744 212.116 398.652 211.83 398.511 211.58C398.371 211.326 398.191 211.11 397.972 210.932C397.752 210.754 397.498 210.617 397.21 210.523C396.926 210.428 396.617 210.381 396.284 210.381C395.682 210.381 395.157 210.53 394.71 210.83C394.263 211.125 393.917 211.557 393.67 212.125C393.424 212.689 393.301 213.375 393.301 214.182C393.301 215.011 393.424 215.708 393.67 216.273C393.92 216.837 394.269 217.263 394.716 217.551C395.163 217.839 395.68 217.983 396.267 217.983C396.597 217.983 396.902 217.939 397.182 217.852C397.466 217.765 397.718 217.638 397.938 217.472C398.157 217.301 398.339 217.095 398.483 216.852C398.631 216.61 398.733 216.333 398.79 216.023L401.278 216.034C401.214 216.568 401.053 217.083 400.795 217.58C400.542 218.072 400.199 218.513 399.767 218.903C399.339 219.29 398.828 219.597 398.233 219.824C397.642 220.047 396.973 220.159 396.227 220.159C395.189 220.159 394.261 219.924 393.443 219.455C392.629 218.985 391.985 218.305 391.511 217.415C391.042 216.525 390.807 215.447 390.807 214.182C390.807 212.913 391.045 211.833 391.523 210.943C392 210.053 392.648 209.375 393.466 208.909C394.284 208.439 395.205 208.205 396.227 208.205C396.902 208.205 397.527 208.299 398.102 208.489C398.682 208.678 399.195 208.955 399.642 209.318C400.089 209.678 400.453 210.119 400.733 210.642C401.017 211.165 401.199 211.763 401.278 212.438ZM407.23 220H404.593L408.61 208.364H411.781L415.792 220H413.156L410.241 211.023H410.15L407.23 220ZM407.065 215.426H413.292V217.347H407.065V215.426ZM429.313 212.438H426.824C426.779 212.116 426.686 211.83 426.546 211.58C426.406 211.326 426.226 211.11 426.006 210.932C425.786 210.754 425.532 210.617 425.245 210.523C424.961 210.428 424.652 210.381 424.318 210.381C423.716 210.381 423.192 210.53 422.745 210.83C422.298 211.125 421.951 211.557 421.705 212.125C421.459 212.689 421.336 213.375 421.336 214.182C421.336 215.011 421.459 215.708 421.705 216.273C421.955 216.837 422.303 217.263 422.75 217.551C423.197 217.839 423.714 217.983 424.301 217.983C424.631 217.983 424.936 217.939 425.216 217.852C425.5 217.765 425.752 217.638 425.972 217.472C426.192 217.301 426.373 217.095 426.517 216.852C426.665 216.61 426.767 216.333 426.824 216.023L429.313 216.034C429.248 216.568 429.087 217.083 428.83 217.58C428.576 218.072 428.233 218.513 427.801 218.903C427.373 219.29 426.862 219.597 426.267 219.824C425.676 220.047 425.008 220.159 424.262 220.159C423.224 220.159 422.296 219.924 421.478 219.455C420.663 218.985 420.019 218.305 419.546 217.415C419.076 216.525 418.841 215.447 418.841 214.182C418.841 212.913 419.08 211.833 419.557 210.943C420.034 210.053 420.682 209.375 421.5 208.909C422.318 208.439 423.239 208.205 424.262 208.205C424.936 208.205 425.561 208.299 426.137 208.489C426.716 208.678 427.229 208.955 427.676 209.318C428.123 209.678 428.487 210.119 428.767 210.642C429.051 211.165 429.233 211.763 429.313 212.438ZM433.477 220V208.364H435.937V213.165H440.932V208.364H443.386V220H440.932V215.193H435.937V220H433.477ZM447.814 220V208.364H455.655V210.392H450.275V213.165H455.252V215.193H450.275V217.972H455.678V220H447.814Z" fill="#3D3D3E"/>
<path d="M733.324 211.71C733.278 211.252 733.083 210.896 732.739 210.642C732.394 210.388 731.926 210.261 731.335 210.261C730.934 210.261 730.595 210.318 730.318 210.432C730.042 210.542 729.83 210.695 729.682 210.892C729.538 211.089 729.466 211.312 729.466 211.562C729.458 211.771 729.502 211.953 729.597 212.108C729.695 212.263 729.83 212.398 730 212.511C730.17 212.621 730.367 212.718 730.591 212.801C730.814 212.881 731.053 212.949 731.307 213.006L732.352 213.256C732.86 213.369 733.326 213.521 733.75 213.71C734.174 213.9 734.542 214.133 734.852 214.409C735.163 214.686 735.403 215.011 735.574 215.386C735.748 215.761 735.837 216.191 735.841 216.676C735.837 217.388 735.655 218.006 735.295 218.528C734.939 219.047 734.424 219.451 733.75 219.739C733.08 220.023 732.271 220.165 731.324 220.165C730.384 220.165 729.566 220.021 728.869 219.733C728.176 219.445 727.634 219.019 727.244 218.455C726.858 217.886 726.655 217.184 726.636 216.347H729.017C729.044 216.737 729.155 217.062 729.352 217.324C729.553 217.581 729.82 217.777 730.153 217.909C730.491 218.038 730.871 218.102 731.295 218.102C731.712 218.102 732.074 218.042 732.381 217.92C732.691 217.799 732.932 217.631 733.102 217.415C733.273 217.199 733.358 216.951 733.358 216.67C733.358 216.409 733.28 216.189 733.125 216.011C732.973 215.833 732.75 215.682 732.455 215.557C732.163 215.432 731.805 215.318 731.381 215.216L730.114 214.898C729.133 214.659 728.358 214.286 727.79 213.778C727.222 213.271 726.939 212.587 726.943 211.727C726.939 211.023 727.127 210.407 727.506 209.881C727.888 209.354 728.413 208.943 729.08 208.648C729.746 208.352 730.504 208.205 731.352 208.205C732.216 208.205 732.97 208.352 733.614 208.648C734.261 208.943 734.765 209.354 735.125 209.881C735.485 210.407 735.67 211.017 735.682 211.71H733.324ZM739.896 220V208.364H747.737V210.392H742.356V213.165H747.333V215.193H742.356V217.972H747.759V220H739.896ZM752.093 220V208.364H756.684C757.562 208.364 758.312 208.521 758.934 208.835C759.559 209.146 760.034 209.587 760.36 210.159C760.689 210.727 760.854 211.396 760.854 212.165C760.854 212.937 760.687 213.602 760.354 214.159C760.021 214.712 759.538 215.136 758.905 215.432C758.276 215.727 757.515 215.875 756.621 215.875H753.547V213.898H756.223C756.693 213.898 757.083 213.833 757.394 213.705C757.704 213.576 757.935 213.383 758.087 213.125C758.242 212.867 758.32 212.547 758.32 212.165C758.32 211.778 758.242 211.453 758.087 211.188C757.935 210.922 757.702 210.722 757.388 210.585C757.077 210.445 756.685 210.375 756.212 210.375H754.553V220H752.093ZM758.377 214.705L761.269 220H758.553L755.723 214.705H758.377ZM766.782 208.364L769.595 217.205H769.703L772.521 208.364H775.248L771.237 220H768.066L764.049 208.364H766.782ZM779.049 220V208.364H786.89V210.392H781.509V213.165H786.486V215.193H781.509V217.972H786.912V220H779.049ZM791.246 220V208.364H795.837C796.715 208.364 797.465 208.521 798.087 208.835C798.712 209.146 799.187 209.587 799.513 210.159C799.842 210.727 800.007 211.396 800.007 212.165C800.007 212.937 799.84 213.602 799.507 214.159C799.174 214.712 798.691 215.136 798.058 215.432C797.429 215.727 796.668 215.875 795.774 215.875H792.7V213.898H795.376C795.846 213.898 796.236 213.833 796.547 213.705C796.857 213.576 797.089 213.383 797.24 213.125C797.395 212.867 797.473 212.547 797.473 212.165C797.473 211.778 797.395 211.453 797.24 211.188C797.089 210.922 796.856 210.722 796.541 210.585C796.231 210.445 795.839 210.375 795.365 210.375H793.706V220H791.246ZM797.53 214.705L800.422 220H797.706L794.876 214.705H797.53Z" fill="#3D3D3E"/>
<path d="M424 123C443.882 123 460 117.627 460 111C460 104.373 443.882 99 424 99C404.118 99 388 104.373 388 111C388 117.627 404.118 123 424 123Z" stroke="#09227B" stroke-width="4" stroke-linecap="round" stroke-linejoin="round"/>
<path d="M460 139C460 145.64 444 151 424 151C404 151 388 145.64 388 139" stroke="#09227B" stroke-width="4" stroke-linecap="round" stroke-linejoin="round"/>
<path d="M388 111V167C388 173.64 404 179 424 179C444 179 460 173.64 460 167V111" stroke="#09227B" stroke-width="4" stroke-linecap="round" stroke-linejoin="round"/>
<path d="M120 175V167C120 162.757 118.314 158.687 115.314 155.686C112.313 152.686 108.243 151 104 151H72C67.7565 151 63.6869 152.686 60.6863 155.686C57.6857 158.687 56 162.757 56 167V175" stroke="#09227B" stroke-width="6" stroke-linecap="round" stroke-linejoin="round"/>
<path d="M88 135C96.8366 135 104 127.837 104 119C104 110.163 96.8366 103 88 103C79.1634 103 72 110.163 72 119C72 127.837 79.1634 135 88 135Z" stroke="#09227B" stroke-width="6" stroke-linecap="round" stroke-linejoin="round"/>
<path d="M792 99H728C723.582 99 720 102.582 720 107V123C720 127.418 723.582 131 728 131H792C796.418 131 800 127.418 800 123V107C800 102.582 796.418 99 792 99Z" stroke="#1038C7" stroke-width="4" stroke-linecap="round" stroke-linejoin="round"/>
<path d="M792 147H728C723.582 147 720 150.582 720 155V171C720 175.418 723.582 179 728 179H792C796.418 179 800 175.418 800 171V155C800 150.582 796.418 147 792 147Z" stroke="#1038C7" stroke-width="4" stroke-linecap="round" stroke-linejoin="round"/>
<path d="M736 115H736.04" stroke="#1038C7" stroke-width="4" stroke-linecap="round" stroke-linejoin="round"/>
<path d="M736 163H736.04" stroke="#1038C7" stroke-width="4" stroke-linecap="round" stroke-linejoin="round"/>
<circle cx="321" cy="112" r="11" fill="#09227B"/>
<circle cx="182" cy="164" r="11" fill="#09227B"/>
<circle cx="520" cy="164" r="11" fill="#09227B"/>
<circle cx="603" cy="164" r="11" fill="#09227B"/>
<circle cx="686" cy="164" r="11" fill="#09227B"/>
</svg>
