<svg width="264" height="373" viewBox="0 0 264 373" fill="none" xmlns="http://www.w3.org/2000/svg">
<g clip-path="url(#clip0_5846_3860)">
<path d="M17.985 343.67L0.191667 315.157L0.0958334 314.907L0 314.658L8.60071 307.68L17.2014 300.702L21.6486 296.992L26.0958 293.282L29.5206 290.285L32.9454 287.288L36.2094 284.262L39.4734 281.236L43.5054 277.129L47.5374 273.021L49.7241 270.528L51.9108 268.036L53.4909 266.116L55.0709 264.196L57.1614 261.412L59.2518 258.628L60.9937 256.036L62.7357 253.444L64.0574 251.332L65.3792 249.22L68.0368 244.516L70.6943 239.812L73.4531 234.244L76.212 228.676L77.695 225.316L79.1781 221.956L80.8872 217.835L82.5963 213.714L84.6809 208.139L86.7656 202.564L88.2134 198.34L89.6612 194.116L91.0899 189.7L92.5186 185.284L93.1989 183.109L93.8792 180.933L91.7323 181.049L89.5854 181.166L88.1656 181.276L86.7458 181.386L86.8612 181.085L86.9766 180.784L89.673 172.555L92.3694 164.326V164.114V163.903L93.4734 163.688L94.5774 163.473L97.3329 162.798L100.088 162.123L102.897 161.153L105.706 160.183L107.707 159.328L109.707 158.474L112.151 157.249L114.594 156.025L116.298 155.022L118.001 154.019L120.301 152.468L122.6 150.916L122.804 150.785L123.009 150.654L124.537 151.631L126.065 152.607L128.002 153.634L129.939 154.66H130.426H130.914L131.144 154.384L131.373 154.107L131.311 153.575L131.249 153.042L128.849 151.718L126.449 150.394L124.743 149.254L123.036 148.113L121.671 146.996L120.305 145.88L118.361 143.859L116.416 141.839L114.95 139.903L113.483 137.966L111.854 135.465L110.224 132.964H109.758H109.293L108.991 133.266L108.689 133.567V133.969V134.372L109.588 135.828L110.487 137.284L111.82 139.177L113.152 141.07L114.547 142.729L115.941 144.388L117.115 145.534L118.289 146.68V146.826V146.972L116.033 148.484L113.777 149.995L111.881 151.089L109.986 152.184L108.512 152.925L107.038 153.666L104.936 154.564L102.833 155.462L100.433 156.281L98.0333 157.1L96.351 157.542L94.6687 157.983L94.5675 157.882L94.4663 157.781L95.7084 153.964L96.9504 150.148L99.1596 143.236L101.369 136.324L103.029 131.044L104.689 125.764L104.474 124.416L104.26 123.068V120.612V118.156L104.575 116.296L104.891 114.436L105.523 112.503L106.155 110.569L107.042 108.802L107.93 107.034L108.762 105.743L109.594 104.452L110.945 102.724L112.295 100.996L113.918 99.2054L115.54 97.4149L117.251 95.8662L118.961 94.3175L120.66 93.0007L122.359 91.6839H122.59H122.821L124.059 92.6678L125.297 93.6516L126.137 94.4438L126.976 95.2359L128.427 96.9639L129.879 98.6919L131.101 100.556L132.323 102.42L133.549 104.972L134.774 107.524L135.581 109.961L136.389 112.398L137.683 113.258L138.976 114.118L140.297 114.78L141.617 115.442L142.049 115.576L142.481 115.71V115.193V114.676L142.009 112.344L141.537 110.012L140.751 107.712L139.964 105.412L138.736 102.916L137.507 100.42L136.325 98.5959L135.144 96.7719L134.07 95.4279L132.996 94.0839L131.786 92.7269L130.576 91.37L129.04 90.0392L127.505 88.7084V88.5961V88.4837L129.953 87.3114L132.401 86.1391L133.841 85.575L135.281 85.0108L137.681 84.2336L140.081 83.4564L142.001 82.9742L143.921 82.492L145.649 82.155L147.377 81.8181L150.737 81.8075L154.097 81.7969L155.249 82.0487L156.401 82.3004L157.649 82.6991L158.897 83.0978L160.215 83.7562L161.533 84.4146L162.621 85.1575L163.71 85.9006L165.728 87.9762L167.746 90.0518L169.198 91.8758L170.649 93.6998L171.794 95.4278L172.939 97.1558L174.353 99.4598L175.767 101.764L176.572 102.82L177.376 103.876L178.336 104.773L179.297 105.67L180.468 106.261L181.638 106.852H181.894H182.15L182.74 106.228L183.331 105.604L184.747 103.684L186.164 101.764L187.49 99.5558L188.815 97.3478L190.421 94.0838L192.027 90.8198L193.347 87.4598L194.667 84.0998L196.103 79.6761L197.539 75.2523L198.165 74.0121L198.79 72.7718L199.517 71.6999L200.244 70.6281L201.452 69.4311L202.66 68.2341L203.952 67.3756L205.243 66.5171L206.688 65.8496L208.132 65.1821L209.915 64.7083L211.697 64.2344L214.192 63.9431L216.687 63.6518H216.702H216.717L217.118 62.8358L217.518 62.0198L218.328 60.0998L219.138 58.1798L220.134 56.0678L221.131 53.9558L222.246 51.9398L223.362 49.9238L224.619 48.0146L225.876 46.1055L227.305 44.6098L228.734 43.114L229.771 42.6068L230.808 42.0996L231.76 42.1911L232.712 42.2825L233.481 42.7914L234.25 43.3002L234.638 44.0604L235.025 44.8205V45.889V46.9574L234.649 48.0275L234.273 49.0976L233.689 50.0075L233.105 50.9174V51.3099V51.7023L235.386 50.9719L237.667 50.2416L239.864 49.7488L242.061 49.2561L243.938 49.0614L245.816 48.8666L247.011 49.0576L248.207 49.2485L248.864 49.4748L249.521 49.7012L250.253 50.1814L250.984 50.6617L251.488 51.5211L251.991 52.3806L252.006 53.6786L252.021 54.9766L252.653 55.7627L253.284 56.5488L253.795 57.5339L254.306 58.519L254.382 59.7003L254.457 60.8816L254.184 61.5467L253.911 62.2118L254.049 62.6918L254.187 63.1718L254.204 64.7078L254.222 66.2438L253.752 67.2524L253.282 68.261L252.328 69.2156L251.373 70.1703L249.775 71.206L248.177 72.2418L244.913 74.0581L241.649 75.8745L240.113 76.8251L238.577 77.7757L238.053 78.7297L237.529 79.6838L236.963 81.1531L236.396 82.6224L235.438 85.7611L234.48 88.8998L232.629 95.2228L230.777 101.546L229.521 105.399L228.264 109.252L227.011 112.612L225.757 115.972L224.514 118.852L223.272 121.732L221.86 124.516L220.449 127.3L219.178 129.412L217.906 131.524L216.385 133.636L214.864 135.748L213.377 137.428L211.889 139.107L210.353 140.464L208.817 141.82L207.11 142.97L205.403 144.119L203.647 144.962L201.891 145.805L199.018 146.761L196.145 147.717L193.745 148.243L191.345 148.77L190.289 149.57L189.233 150.37L188.081 151.143L186.929 151.916L185.489 152.73L184.049 153.545L182.129 154.365L180.209 155.185L177.425 156.095L174.641 157.004L171.88 157.649L169.119 158.294L169.039 158.375L168.958 158.455L167.912 163.037L166.865 167.62L165.826 171.642L164.786 175.664L165.679 176.442L166.572 177.22L168.495 178.924L170.417 180.629L174.475 184.446L178.533 188.263L181.876 191.765L185.219 195.268L187.322 197.577L189.425 199.886L191.813 202.659L194.2 205.431L197.224 209.228L200.248 213.025L202.608 216.242L204.967 219.46L207.664 223.492L210.362 227.524L212.221 230.622L214.081 233.721L215.518 236.314L216.954 238.906L218.437 241.855L219.92 244.804L221.324 247.876L222.727 250.948L222.012 251.589L221.297 252.23L219.779 253.167L218.26 254.104L218.084 254.163L217.907 254.222L218.709 256.041L219.511 257.86L220.667 260.74L221.823 263.62L223.236 267.518L224.65 271.416L225.81 275.173L226.97 278.929L227.822 282.218L228.674 285.508L229.34 288.772L230.006 292.036L230.605 296.068L231.204 300.1L232.074 305.284L232.944 310.468L233.8 314.692L234.657 318.916L235.419 322.066L236.181 325.216L236.971 327.922L237.76 330.628L238.72 333.22L239.68 335.812L240.737 337.924L241.793 340.036L242.614 341.307L243.434 342.579L244.748 343.971L246.061 345.364L247.119 346.081L248.177 346.799L249.174 347.303L250.171 347.807L251.67 348.399L253.169 348.992L254.609 349.883L256.049 350.775L257.61 352.318L259.171 353.86L260.29 355.583L261.41 357.307L262.145 359.012L262.88 360.717L263.197 362.036L263.514 363.356L263.402 363.467L263.29 363.579L232.502 364.231L201.713 364.883L198.737 364.911L195.761 364.939L195.634 364.103L195.506 363.268L194.433 355.972L193.36 348.676L192.584 343.492L191.808 338.308L190.942 333.124L190.076 327.94L188.93 322.197L187.785 316.454L186.833 312.542L185.882 308.631L184.811 304.845L183.74 301.06L182.581 297.604L181.421 294.148L180.213 291.076L179.005 288.004L178 285.7L176.996 283.396L174.728 278.884L172.461 274.372L170.311 270.628L168.161 266.884L166.423 264.1L164.685 261.316L162.191 257.572L159.697 253.828L157.774 251.14L155.85 248.452L153.255 244.996L150.66 241.54L147.501 237.604L144.341 233.668L141.277 230.052L138.213 226.436L138.071 226.596L137.929 226.756L136.961 229.636L135.993 232.516L134.697 235.972L133.402 239.428L132.01 242.788L130.618 246.148L129.158 249.366L127.697 252.584L126.157 255.661L124.616 258.738L122.966 261.755L121.315 264.772L119.474 267.844L117.634 270.916L115.509 274.084L113.384 277.252L112.552 278.376L111.72 279.5L111.117 279.384L110.513 279.269L108.46 278.229L106.406 277.188L104.925 279.236L103.443 281.284L101.221 284.145L98.9978 287.007L96.9028 289.521L94.8078 292.036L92.5806 294.517L90.3534 296.999L87.3774 299.999L84.4014 302.998L82.3265 304.858L80.2516 306.718L75.9905 310.222L71.7294 313.726L68.4654 316.527L65.2014 319.328L62.8974 321.395L60.5934 323.462L56.8678 327.141L53.1422 330.82L51.2 333.028L49.2578 335.236L48.0846 336.778L46.9115 338.321L46.0488 339.658L45.1861 340.996L44.4862 342.39L43.7864 343.784L43.4126 344.79L43.0388 345.796L42.7469 347.044L42.4551 348.292L42.4523 350.262L42.4495 352.232L42.7573 354.102L43.0652 355.972L42.9526 357.988L42.84 360.004L42.3719 361.732L41.9037 363.46L41.2997 364.804L40.6957 366.148L39.4738 367.972L38.2518 369.796L37.3578 370.806L36.4637 371.816L36.1211 372L35.7785 372.183L17.985 343.67ZM238.494 349.658L240.497 347.856L241.758 346.442L243.018 345.028L243.471 344.408L243.924 343.788L243.573 343.4L243.222 343.012H243.088H242.955L241.173 345.003L239.392 346.995L237.401 348.776L235.409 350.557V350.707V350.856L235.711 351.158L236.013 351.46H236.251H236.49L238.494 349.658ZM234.117 344.909L235.697 343.541L237.713 342.229L239.729 340.917L240.093 340.659L240.456 340.4L240.23 339.978L240.004 339.556H239.663H239.321L237.989 340.355L236.657 341.153L235.313 342.164L233.969 343.175L232.865 344.165L231.761 345.155V345.485V345.815L231.992 346.046L232.222 346.276H232.38H232.537L234.117 344.909ZM42.8924 344.911L43.0865 344.601L42.9722 344.303L42.8579 344.005L41.7416 343.787L40.6254 343.57L38.8014 343.169L36.9774 342.769L34.8938 342.11L32.8102 341.451L32.5418 341.553L32.2734 341.656V342.136V342.615L32.6255 342.803L32.9776 342.992L35.2461 343.679L37.5146 344.367L39.742 344.833L41.9694 345.298L42.3338 345.259L42.6982 345.221L42.8924 344.911ZM204.305 340.41L209.393 339.545L222.737 337.635L236.081 335.725L236.69 335.619L237.298 335.512L236.713 333.934L236.127 332.356L235.281 329.582L234.435 326.808L233.768 324.159L233.101 321.511L232.423 318.39L231.745 315.268L230.904 310.66L230.063 306.052L229.186 300.292L228.309 294.532L228.003 292.708L227.697 290.884L226.927 287.343L226.158 283.803L225.112 280.047L224.067 276.292L222.65 272.068L221.233 267.844L219.899 264.388L218.565 260.932L217.372 258.106L216.18 255.281L212.786 256.979L209.393 258.677L206.033 260.211L202.673 261.745L199.431 263.131L196.188 264.518L192.135 266.117L188.081 267.716L184.469 268.983L180.858 270.25L178.018 271.097L175.179 271.944L174.478 272.075L173.777 272.207V272.3V272.394L176.71 278.279L179.642 284.164L180.869 287.14L182.095 290.116L183.228 293.188L184.361 296.26L185.612 300.292L186.863 304.324L187.993 308.74L189.123 313.156L189.901 316.67L190.679 320.185L191.622 325.214L192.565 330.244L193.451 335.812L194.337 341.38L194.421 341.781L194.505 342.183L196.861 341.729L199.217 341.275L204.305 340.41ZM217.073 272.477L216.113 272.026L215.074 271.24L214.036 270.454L213.197 269.437L212.358 268.42L212.412 267.94L212.465 267.46L212.947 267.404L213.429 267.347L213.747 267.884L214.065 268.42L215.089 269.439L216.113 270.457L217.4 271.071L218.686 271.684L218.807 272.029L218.929 272.374L218.698 272.653L218.466 272.932L218.25 272.93L218.033 272.928L217.073 272.477ZM43.998 340.317L44.3694 340.118V339.738V339.358L43.7454 338.968L43.1214 338.577L41.3479 337.715L39.5745 336.854L37.4697 336.157L35.3649 335.461L35.0579 335.716L34.7509 335.97L34.8081 336.358L34.8654 336.746L37.1694 337.537L39.4734 338.328L41.4894 339.396L43.5054 340.464L43.566 340.49L43.6267 340.516L43.998 340.317ZM53.0928 327.889L55.9273 324.972L59.0284 322.11L62.1294 319.247L65.2014 316.585L68.2734 313.923L71.5238 311.235L74.7743 308.548L77.6678 306.15L80.5614 303.752L84.5673 299.814L88.5732 295.876L90.7859 293.429L92.9986 290.982L95.6808 287.765L98.363 284.548L101.532 280.344L104.701 276.139L103.575 275.453L102.449 274.768L98.9934 272.479L95.5374 270.19L92.9454 268.358L90.3534 266.525L87.0268 264.048L83.7002 261.571L80.3318 258.881L76.9634 256.19L74.8264 254.352L72.6894 252.514L70.4575 250.436L68.2257 248.358L66.8344 250.685L65.4432 253.011L63.1959 256.396L60.9486 259.78L58.6343 262.852L56.3199 265.924L54.1554 268.516L51.9909 271.108L49.5414 273.796L47.0919 276.484L42.5147 281.006L37.9374 285.528L35.8254 287.441L33.7134 289.354L30.7374 291.959L27.7614 294.563L23.4414 298.174L19.1214 301.785L19.0664 301.924L19.0114 302.062L21.8539 305.305L24.6964 308.548L27.5813 312.004L30.4662 315.46L33.3476 319.012L36.229 322.564L41.3641 328.943L46.4992 335.322L48.3787 333.065L50.2583 330.807L53.0928 327.889ZM90.2729 285.335L90.0493 285.065L89.9424 283.463L89.8355 281.86L90.142 280.42L90.4485 278.98L90.9769 277.924L91.5054 276.868H91.8685H92.2316L92.4314 277.185L92.6311 277.501L92.1222 278.635L91.6133 279.769L91.3899 280.811L91.1664 281.854L91.2754 283.537L91.3845 285.22L91.0256 285.412L90.6666 285.604H90.5815H90.4964L90.2729 285.335ZM112.964 274.18L114.789 271.492L116.185 269.284L117.582 267.076L119.659 263.453L121.737 259.831L123.932 255.485L126.127 251.14L127.799 247.396L129.472 243.652L130.983 239.877L132.493 236.102L133.621 232.965L134.748 229.828L135.953 226.18L137.157 222.532L137.237 222.39L137.317 222.248L139.286 224.502L141.255 226.756L144.246 230.326L147.236 233.897L149.812 237.143L152.389 240.388L154.51 243.172L156.63 245.956L159.345 249.757L162.06 253.558L164.433 257.149L166.805 260.74L168.632 263.716L170.459 266.692L171.47 268.471L172.48 270.25L172.619 270.336L172.757 270.421L174.851 269.867L176.945 269.314L179.153 268.621L181.361 267.928L184.145 266.947L186.929 265.965L190.289 264.667L193.649 263.368L196.705 262.092L199.761 260.815L203.617 259.08L207.473 257.344L212.177 254.963L216.881 252.582L218.548 251.517L220.215 250.452L219.919 249.74L219.623 249.028L218.27 246.148L216.917 243.268L215.29 240.196L213.663 237.124L212.505 235.108L211.346 233.092L210.003 230.884L208.66 228.676L206.233 225.028L203.805 221.38L201.72 218.5L199.636 215.62L197.411 212.755L195.185 209.89L192.289 206.419L189.392 202.948L186.663 199.919L183.933 196.891L180.75 193.583L177.567 190.276L173.896 186.749L170.225 183.223L167.28 180.605L164.334 177.988L163.824 177.685L163.313 177.382L130.865 179.062L98.4174 180.743L97.2654 180.805L96.1134 180.868L95.3848 183.172L94.6562 185.476L92.1639 193.06L89.6715 200.644L87.8634 205.591L86.0553 210.539L84.0342 215.591L82.0132 220.644L80.077 225.044L78.1408 229.444L75.2824 235.204L72.424 240.964L70.8652 243.748L69.3064 246.532L71.0939 248.225L72.8814 249.917L75.5694 252.273L78.2574 254.628L81.2334 257.021L84.2094 259.413L87.9534 262.207L91.6974 265L94.6101 267.043L97.5228 269.087L100.562 271.075L103.601 273.064L105.617 274.279L107.633 275.494L109.244 276.336L110.855 277.179L110.997 277.023L111.139 276.868L112.964 274.18ZM138.169 220.65L137.879 220.208L138.455 218.202L139.032 216.196L139.883 212.932L140.733 209.668L141.406 206.5L142.078 203.332L142.336 201.524L142.593 199.716L142.873 199.568L143.153 199.42L145.646 198.721L148.139 198.023L150.293 197.162L152.446 196.3L152.827 196.504L153.207 196.708L153.332 197.101L153.457 197.495L153.179 197.917L152.901 198.34L150.802 199.164L148.703 199.988L146.618 200.611L144.532 201.234L143.713 205.355L142.894 209.476L141.929 213.22L140.964 216.964L140.398 218.861L139.831 220.758L139.572 220.922L139.313 221.086L138.886 221.089L138.458 221.092L138.169 220.65ZM164.561 156.876L166.961 156.569L169.769 155.996L172.577 155.424L174.857 154.755L177.137 154.087L179.057 153.384L180.977 152.681L182.2 152.132L183.423 151.584L185.225 150.523L187.026 149.463L188.898 148.046L190.769 146.63L192.513 144.996L194.256 143.361L195.889 141.475L197.522 139.588L198.678 138.052L199.835 136.516L201.034 134.727L202.233 132.938L203.573 130.695L204.913 128.452L206.968 124.324L209.023 120.196L210.245 117.316L211.468 114.436L212.852 110.788L214.235 107.14L216.398 100.9L218.562 94.66L219.13 93.22L219.697 91.78L220.369 90.5001L221.04 89.2202L222.609 87.4997L224.177 85.7793L225.905 84.1708L227.633 82.5624L230.321 80.2412L233.009 77.9201L234.577 76.2625L236.145 74.6049L236.665 73.5417L237.185 72.4784L237.28 71.6337L237.376 70.789L237.117 69.7645L236.859 68.74L236.921 67.4551L236.984 66.1703L236.508 65.1306L236.032 64.0909L235.367 63.584L234.703 63.0771L233.952 62.8169L233.201 62.5568V61.8007V61.0445L232.88 60.5529L232.558 60.0614L231.891 59.7447L231.223 59.428H230.331H229.438L228.84 59.7374L228.242 60.0469L226.594 61.3853L224.945 62.7237L223.601 63.4766L222.257 64.2295L220.489 64.8017L218.72 65.3739L216.361 65.6733L214.001 65.9728L212.081 66.3231L210.161 66.6735L208.625 67.2711L207.089 67.8687L205.844 68.5923L204.598 69.316L202.945 70.948L201.292 72.58L200.503 73.924L199.715 75.268L198.002 80.452L196.29 85.636L195.197 88.42L194.105 91.204L192.111 95.236L190.117 99.268L188.811 101.335L187.505 103.402L186.129 105.271L184.752 107.14L183.317 108.743L181.881 110.345L180.181 111.872L178.481 113.4L176.485 114.746L174.489 116.092L172.982 116.85L171.476 117.607L170.044 118.176L168.612 118.744L166.731 119.218L164.849 119.691L163.217 119.93L161.585 120.169L157.265 120.17L152.945 120.171L151.025 119.927L149.105 119.684L147.781 119.408L146.456 119.132L146.378 119.211L146.3 119.289L144.858 122.622L143.416 125.955L140.76 132.867L138.105 139.779L135.571 146.189L133.038 152.598L133.296 152.76L133.553 152.922L135.761 153.708L137.969 154.495L140.849 155.242L143.729 155.989L145.841 156.362L147.953 156.735L150.065 156.947L152.177 157.159L152.849 157.236L153.521 157.312L157.841 157.248L162.161 157.183L164.561 156.876ZM220.358 79.6683L220.241 79.3646V79.1954V79.0263L221.441 78.2151L222.641 77.4039L223.734 76.2648L224.826 75.1257L225.493 73.8528L226.16 72.58L226.567 71.3686L226.973 70.1572L226.783 69.4695L226.593 68.7817L226.168 68.3289L225.742 67.876H225.34H224.939L224.211 68.3704L223.483 68.8648L222.637 70.0148L221.79 71.1649L221.668 71.8176L221.545 72.4703L221.292 72.6803L221.039 72.8903L219.872 72.6787L218.705 72.4671L217.505 72.6847L216.305 72.9022L215.249 73.4013L214.193 73.9004L213.206 74.8867L212.219 75.8729L211.811 76.6745L211.402 77.476H211.045H210.688L210.44 77.1768L210.192 76.8776L210.608 76.0214L211.024 75.1653L211.841 74.2745L212.657 73.3837L213.639 72.7527L214.621 72.1217L215.793 71.7269L216.965 71.332H218.577H220.189L220.52 70.4647L220.852 69.5974L221.82 68.5378L222.789 67.4782L223.579 67.015L224.369 66.5518L225.137 66.4315L225.905 66.3113L226.385 66.4928L226.865 66.6743L228.057 65.562L229.248 64.4497L230.649 63.7644L232.049 63.079L232.721 63.0295L233.393 62.98V63.5373V64.0946L232.109 64.6147L230.826 65.1348L229.922 65.7854L229.018 66.436L228.481 67.108L227.945 67.78L228.224 68.836L228.504 69.892L228.378 70.7397L228.252 71.5873L229.671 70.3916L231.089 69.1959L232.454 68.5202L233.819 67.8445L234.994 67.738L236.169 67.6314L236.3 67.9718L236.431 68.3122L236.244 68.6077L236.058 68.9032L234.899 69.1396L233.74 69.376L232.799 69.8577L231.857 70.3393L230.897 71.1804L229.937 72.0215L226.769 75.1599L223.601 78.2983L222.476 79.1352L221.351 79.972H220.913H220.474L220.358 79.6683ZM199.121 144.573L201.137 143.872L202.571 143.211L204.005 142.55L204.971 141.944L205.937 141.338L207.473 140.15L209.009 138.963L210.934 136.971L212.859 134.98L214.252 133.118L215.646 131.256L216.995 129.086L218.344 126.916L220.039 123.556L221.733 120.196L222.795 117.7L223.856 115.204L224.661 113.092L225.465 110.98L226.796 107.044L228.126 103.108L229.069 100.036L230.012 96.964L231.836 90.724L233.66 84.484L234.54 81.9223L235.42 79.3607L235.821 78.5745L236.222 77.7883L235.288 78.6186L234.353 79.4489L230.801 82.564L227.249 85.6791L225.098 87.903L222.948 90.1268L222.49 90.8574L222.032 91.588L221.25 93.508L220.468 95.428L218.639 100.715L216.811 106.002L215.764 108.875L214.717 111.748L213.563 114.628L212.408 117.508L211.223 120.196L210.037 122.884L208.161 126.532L206.284 130.18L205.076 132.196L203.867 134.212L202.429 136.324L200.991 138.436L199.488 140.361L197.985 142.286L196.243 144.142L194.5 145.999L195.803 145.637L197.105 145.275L199.121 144.573ZM173.326 114.225L173.546 113.936L173.468 113.226L173.39 112.516L172.994 108.883L172.599 105.251L172.221 102.931L171.844 100.612L171.484 100.251L171.124 99.8896L170.632 100.013L170.14 100.137L169.937 100.517L169.733 100.898L170.022 102.483L170.311 104.068L170.6 106.372L170.889 108.676L171.174 111.437L171.46 114.199L171.774 114.545L172.087 114.892L172.596 114.703L173.105 114.515L173.326 114.225ZM239.537 74.7832L240.881 73.9649L244.145 72.1446L247.409 70.3243L248.729 69.4728L250.048 68.6213L250.947 67.6992L251.845 66.7771L252.075 66.0083L252.305 65.2394L252.294 64.5897L252.282 63.94L251.946 62.884L251.61 61.828L252.002 61.2898L252.393 60.7516L252.391 60.0418L252.389 59.332L251.949 58.4273L251.509 57.5226L250.503 56.5006L249.497 55.4785L249.74 54.9092L249.983 54.34L249.992 53.7064L250.001 53.0729L249.718 52.5261L249.436 51.9793L248.518 51.5276L247.601 51.076L245.297 51.095L242.993 51.1141L240.689 51.6335L238.385 52.1529L235.078 53.2661L231.772 54.3794L231.49 53.3997L231.209 52.42L230.993 51.5512L230.777 50.6824L231.648 49.3841L232.518 48.0859L232.812 47.0981L233.105 46.1103V45.8662V45.6221L232.876 45.1186L232.646 44.6152L232.096 44.3304L231.545 44.0455L230.704 44.4526L229.863 44.8596L228.67 46.1347L227.477 47.4097L226.022 49.6238L224.566 51.8379L222.727 55.4889L220.888 59.14L220.095 61.1175L219.302 63.0951L219.724 62.9726L220.145 62.8501L221.873 62.0134L223.601 61.1767L225.425 59.6955L227.249 58.2142L228.113 57.8171L228.977 57.4199L230.417 57.416L231.857 57.4121L232.898 57.9881L233.939 58.5641L234.496 59.3321L235.053 60.1001L235.153 60.5801L235.253 61.0601L236.243 61.735L237.233 62.41L237.854 63.3368L238.476 64.2637L238.699 65.0619L238.921 65.8601L238.962 67.3001L239.003 68.7401L239.231 69.9436L239.459 71.1471L239.26 72.2272L239.06 73.3074L238.54 74.3838L238.02 75.4601L237.937 75.6308L237.855 75.8015L238.024 75.7016L238.193 75.6017L239.537 74.7832ZM240.065 64.8688L239.825 64.772V64.3092V63.8464L240.641 63.2508L241.457 62.6551L243.174 61.7892L244.891 60.9233L246.667 60.4726L248.444 60.022L249.891 59.8909L251.337 59.7598L251.468 60.1L251.599 60.4402L251.404 60.7491L251.209 61.058L249.501 61.2985L247.793 61.5391L246.459 61.9408L245.124 62.3425L243.675 63.0824L242.225 63.8224L241.361 64.4084L240.497 64.9944L240.401 64.9801L240.305 64.9658L240.065 64.8688ZM237.665 57.7794L237.521 57.636V57.2719V56.9079L238.755 56.3487L239.988 55.7895L241.971 55.2116L243.953 54.6337L245.659 54.3428L247.364 54.052H248.191H249.019L249.138 54.2457L249.258 54.4394L249.137 54.8213L249.016 55.2031L248.597 55.2839L248.177 55.3647L246.065 55.6835L243.953 56.0024L241.457 56.8662L238.961 57.7301L238.385 57.8265L237.808 57.9229L237.665 57.7794ZM128.177 81.8761L127.025 81.7034L125.838 81.1198L124.65 80.5362L123.784 79.5727L122.918 78.6093L122.506 77.5146L122.095 76.4199L122.099 74.8839L122.103 73.3479L122.496 72.2245L122.889 71.1011L123.27 70.4854L123.65 69.8698L122.502 69.6327L121.354 69.3955L120.542 69.0412L119.729 68.6869L118.903 68.0814L118.078 67.476L117.333 66.3227L116.587 65.1695L116.286 63.8448L115.985 62.5201L115.988 61.502L115.991 60.4839L116.272 59.1399L116.554 57.7959L117.11 56.7085L117.667 55.621L117.298 54.1165L116.928 52.6119L116.813 50.486L116.698 48.3601L117.023 46.9005L117.348 45.4409L118.071 44.3224L118.794 43.2039L119.576 42.6876L120.357 42.1712L121.068 41.8742L121.778 41.5772L122.969 41.3699L124.159 41.1626L124.506 40.1673L124.852 39.1719L125.875 37.0599L126.898 34.9479L127.909 33.4119L128.92 31.8759L130.276 30.5286L131.632 29.1813L132.675 28.6255L133.718 28.0697L135.075 27.9902L136.432 27.9107L137.569 28.3101L138.705 28.7096L139.622 29.2983L140.54 29.8869L141.244 30.6659L141.947 31.4449L142.316 32.2794L142.686 33.1138L142.794 34.3189L142.903 35.5239L142.609 36.7719L142.314 38.0199L142.192 38.3383L142.069 38.6567L143.186 38.9742L144.304 39.2918L145.357 39.6778L146.409 40.0639L148.137 40.9563L149.865 41.8487L151.338 42.9584L152.81 44.0681L154.181 45.5352L155.551 47.0024L156.896 49.0136L158.24 51.0247L158.71 51.9509L159.179 52.8771L159.735 54.2805L160.291 55.6839L160.643 57.2199L160.994 58.7559L160.986 60.7719L160.978 62.7879L160.55 64.3172L160.122 65.8464L159.554 66.9092L158.986 67.9719L158.012 69.2705L157.037 70.5691L155.794 71.6238L154.551 72.6786L153.459 73.4192L152.368 74.1598L151.024 74.8309L149.68 75.5019L148.432 75.9079L147.184 76.3139L145.456 76.6174L143.728 76.9209L141.746 76.8642L139.765 76.8075L139.11 77.7108L138.454 78.614L137.454 79.4043L136.454 80.1947L135.579 80.6375L134.704 81.0803L133.456 81.462L132.208 81.8436L130.768 81.9463L129.328 82.0489L128.176 81.8762L128.177 81.8761ZM132.263 79.6819L133.469 79.3975L134.279 78.9911L135.089 78.5847L136.082 77.8436L137.075 77.1026L137.906 75.8379L138.737 74.5732L139.697 74.7095L140.657 74.8457L142.385 74.835L144.113 74.8243L145.3 74.6081L146.487 74.3919L147.7 73.9955L148.913 73.5991L150.257 72.9294L151.601 72.2597L152.984 71.2221L154.367 70.1844L155.485 69.0356L156.602 67.8868L157.246 66.8238L157.89 65.7607L158.388 64.4664L158.886 63.172L158.884 60.58L158.882 57.988L158.272 56.2194L157.662 54.4508L156.999 53.1357L156.337 51.8206L155.182 50.0928L154.026 48.365L152.769 47.0071L151.511 45.6491L150.116 44.585L148.721 43.5209L147.281 42.7485L145.841 41.976L143.801 41.294L141.761 40.612L141.497 40.6137L141.233 40.6154L140.42 41.9341L139.607 43.2528L137.531 45.6285L135.456 48.0041L134.291 49.4708L133.127 50.9376L132.207 52.414L131.287 53.8905L130.837 55.1294L130.387 56.3683L130.27 57.3702L130.152 58.3721L130.36 59.143L130.568 59.914L131.12 60.7844L131.672 61.6548L133.153 62.7696L134.634 63.8843L134.829 64.3922L135.023 64.9001L134.813 65.6059L134.603 66.3118L134.004 66.8152L133.406 67.3187L132.232 67.298L131.057 67.2773L129.361 67.9353L127.664 68.5933L126.519 69.7227L125.374 70.8521L124.792 72.0318L124.209 73.2115L124.104 74.3638L124 75.5161L124.31 76.4265L124.62 77.3368L125.109 77.9782L125.598 78.6195L126.436 79.1104L127.274 79.6013L128.11 79.7657L128.945 79.93L130.001 79.9482L131.057 79.9664L132.263 79.6819ZM126.807 75.0755L126.696 74.787L126.811 74.3306L126.925 73.8742L127.799 72.9021L128.673 71.93L129.817 71.3582L130.962 70.7864L132.162 70.6735L133.361 70.5606L134.033 70.7134L134.705 70.8661L134.77 71.3173L134.835 71.7685L134.578 71.9378L134.321 72.1071L133.42 71.9909L132.518 71.8747L131.487 72.1743L130.457 72.4738L129.638 73.0668L128.82 73.6598L128.307 74.5058L127.793 75.3518L127.355 75.3578L126.917 75.3638L126.807 75.0755ZM142.603 56.534L142.097 56.136V55.5077V54.8794L142.449 54.5617L142.8 54.2439H143.401H144.002L144.394 54.6641L144.785 55.0843V55.5368V55.9894L144.314 56.4606L143.843 56.9319H143.476H143.109L142.603 56.534ZM152.944 54.6178L152.177 53.8251L150.331 52.4279L148.484 51.0308L147.493 50.4773L146.501 49.9239L146.555 49.4439L146.609 48.9639L147.095 48.9073L147.58 48.8506L149.625 50.2016L151.671 51.5525L153.268 53.0754L154.865 54.5983L154.654 54.9491L154.442 55.2999L154.076 55.3552L153.71 55.4105L152.944 54.6178ZM224.917 30.2298L223.599 29.9678L222.613 29.6453L221.628 29.3228L220.761 28.889L219.894 28.4552L218.706 27.5623L217.518 26.6693L216.616 25.4786L215.713 24.2879L215.093 22.9439L214.473 21.5999L214.114 20.2559L213.756 18.9119L213.76 15.4559L213.764 11.9999L214.299 10.4639L214.834 8.92791L215.6 7.63074L216.366 6.33357L217.302 5.20941L218.237 4.08525L219.548 3.10123L220.86 2.1172L222.24 1.44241L223.62 0.767609L225.216 0.385105L226.812 0.00260162L228.941 0.00130081L231.07 0L232.589 0.382881L234.108 0.765755L235.689 1.54272L237.27 2.31968L238.473 3.27756L239.676 4.23544L240.54 5.2726L241.404 6.30976L242.048 7.37336L242.692 8.43695L243.149 9.56868L243.606 10.7004L243.897 12.0828L244.188 13.4651V15.1886V16.9122L243.883 18.3921L243.579 19.872L243.006 21.2527L242.433 22.6334L241.506 23.9407L240.578 25.248L239.551 26.2377L238.524 27.2274L237.404 28.0022L236.285 28.777L234.874 29.3642L233.464 29.9513L232.093 30.2397L230.722 30.528L228.479 30.51L226.236 30.4919L224.917 30.2298ZM232.572 28.0241L233.916 27.61L235.26 26.9144L236.604 26.2188L238.251 24.5814L239.898 22.9439L240.698 21.3119L241.498 19.6799L241.824 18.4319L242.15 17.1839L242.155 15.1679L242.16 13.1519L241.716 11.7119L241.272 10.2719L240.57 8.92791L239.868 7.58391L238.552 6.1964L237.235 4.80889L236.056 4.07292L234.876 3.33695L233.916 2.93188L232.956 2.52681L231.331 2.19761L229.705 1.86842L228.047 1.97585L226.389 2.08328L224.872 2.58869L223.356 3.09409L222.055 3.86238L220.754 4.63067L219.463 5.93723L218.172 7.24379L217.447 8.46985L216.722 9.69591L216.209 11.2319L215.696 12.7679L215.69 15.5519L215.684 18.3359L216.114 19.8334L216.544 21.3308L217.106 22.4455L217.669 23.5603L218.688 24.6778L219.708 25.7954L220.801 26.5035L221.894 27.2116L223.489 27.7243L225.084 28.2369L226.236 28.4121L227.388 28.5874L229.308 28.5128L231.228 28.4382L232.572 28.0241ZM222.828 21.4885L222.492 21.2928V20.7716V20.2504L224.988 17.7598L227.484 15.2693L224.988 12.768L222.492 10.2668V9.77974V9.29271L222.722 9.06231L222.952 8.83191H223.439H223.926L226.428 11.328L228.929 13.8241L231.419 11.328L233.91 8.83191H234.331H234.752L235.054 9.13363L235.356 9.43534V9.8377V10.2401L232.862 12.7578L230.369 15.2755L232.773 17.6697L235.176 20.0639L235.289 20.5036L235.401 20.9434L235.061 21.3196L234.72 21.6959H234.315H233.91L231.423 19.2029L228.935 16.7099L226.417 19.2029L223.9 21.6959L223.532 21.6901L223.164 21.6843L222.828 21.4885Z" fill="url(#paint0_linear_5846_3860)"/>
</g>
<defs>
<linearGradient id="paint0_linear_5846_3860" x1="3.27222e-07" y1="188.389" x2="263.514" y2="188.389" gradientUnits="userSpaceOnUse">
<stop stop-color="white"/>
<stop offset="1" stop-color="#C2C7CD"/>
</linearGradient>
<clipPath id="clip0_5846_3860">
<rect width="263.514" height="372.183" fill="white"/>
</clipPath>
</defs>
</svg>
