<svg width="325" height="86" viewBox="0 0 325 86" fill="none" xmlns="http://www.w3.org/2000/svg">
    <path d="M1.38498 0.971527C0.964983 1.44153 0.85498 2.25153 0.85498 5.07153C0.85498 9.56153 0.984984 9.76153 3.99498 9.93153C5.94498 10.0415 6.35498 10.1715 7.08498 10.9315C7.14498 10.9915 7.42498 11.2815 7.92498 11.8115C7.91498 32.2815 7.91498 43.6515 7.91498 45.9315C7.90498 72.7515 7.98498 80.1115 8.29498 80.3815C9.86498 81.7015 10.325 81.9615 11.465 82.1515C12.175 82.2715 13.135 82.5715 13.605 82.8115C14.075 83.0615 14.785 83.2615 15.185 83.2615C15.585 83.2615 16.455 83.5015 17.105 83.7815C17.785 84.0715 20.365 84.4915 23.095 84.7415C25.735 84.9815 28.315 85.3315 28.825 85.5015C30.105 85.9415 31.785 85.9015 34.355 85.3715C35.555 85.1315 37.615 84.8315 38.935 84.7115C40.255 84.6015 41.915 84.2415 42.615 83.9115C46.145 82.2915 46.875 81.9815 47.135 81.9815C47.295 81.9815 47.605 81.7015 47.825 81.3415C48.045 80.9915 48.445 80.7015 48.725 80.7015C49.395 80.7015 53.795 76.1715 54.295 74.9515C54.515 74.4215 54.815 73.9815 54.955 73.9815C55.095 73.9815 55.295 73.5615 55.415 73.0515C55.525 72.5315 55.825 71.9415 56.065 71.7315C56.315 71.5315 56.615 70.8315 56.725 70.1915C56.835 69.5515 57.165 68.6615 57.455 68.2215C57.745 67.7815 58.145 66.4215 58.345 65.1815C58.555 63.9515 58.895 62.3015 59.105 61.5015C59.815 58.7815 59.605 44.4915 58.805 41.8215C58.435 40.5915 58.135 39.2115 58.135 38.7515C58.135 38.3015 57.845 37.5915 57.495 37.1815C57.145 36.7815 56.855 36.2015 56.855 35.9015C56.855 35.6015 56.595 35.0115 56.285 34.5915C55.965 34.1715 55.535 33.4615 55.315 33.0215C55.095 32.5815 54.735 31.9415 54.525 31.5815C53.995 30.7115 51.145 27.9015 50.795 27.9015C50.635 27.9015 50.415 27.6515 50.315 27.3315C50.225 27.0215 49.745 26.5915 49.255 26.3915C48.775 26.1815 48.165 25.8715 47.895 25.7015C46.725 24.9515 44.765 24.1515 43.675 23.9815C43.025 23.8715 41.955 23.5415 41.315 23.2315C39.545 22.3915 32.555 22.3815 30.815 23.2215C30.125 23.5515 28.975 23.8915 28.255 23.9815C27.525 24.0715 26.725 24.3315 26.455 24.5615C26.195 24.7915 25.585 25.0715 25.095 25.1915C24.615 25.3115 24.215 25.5315 24.215 25.6615C24.215 25.8015 23.635 26.2015 22.935 26.5515C22.845 26.6015 22.415 26.8115 21.645 27.1915C21.355 26.7915 21.205 26.5615 21.175 26.5215C20.775 25.9515 20.695 23.8415 20.695 13.3115C20.695 2.17152 20.645 0.751527 20.195 0.581527C18.755 0.0315271 1.92498 0.381527 1.38498 0.971527ZM120.205 1.04153C119.825 1.75153 119.875 9.11152 120.265 9.50152C120.375 9.61152 121.315 9.77153 122.345 9.86153C124.965 10.0915 125.545 10.2315 126.115 10.8115C126.565 11.2615 126.615 14.8915 126.615 45.8315C126.615 48.1315 126.615 59.6415 126.615 80.3515C127.145 80.6415 127.435 80.8015 127.495 80.8315C129.145 81.7315 129.655 81.9315 132.055 82.6215C133.375 82.9915 135.105 83.5215 135.895 83.8015C136.685 84.0715 139.355 84.4915 141.815 84.7215C144.285 84.9615 146.805 85.3115 147.415 85.4915C148.795 85.9015 152.065 85.9315 152.805 85.5315C153.105 85.3715 154.865 85.0815 156.705 84.8815C158.575 84.6815 160.625 84.2615 161.335 83.9315C162.045 83.6015 163.405 83.0015 164.375 82.5915C165.345 82.1915 166.435 81.6015 166.795 81.2815C167.165 80.9615 167.585 80.7015 167.745 80.7015C167.905 80.7015 168.325 80.4215 168.685 80.0615C169.045 79.7115 169.845 78.9315 170.455 78.3315C171.705 77.1115 171.945 76.8215 172.835 75.4215C173.175 74.9015 173.645 74.2715 173.875 74.0415C174.105 73.8115 174.295 73.4015 174.295 73.1315C174.295 72.8615 174.585 72.2815 174.935 71.8315C175.285 71.3815 175.575 70.7815 175.575 70.5015C175.585 70.2215 175.785 69.5815 176.045 69.1015C176.295 68.6115 176.655 67.4215 176.835 66.4615C177.005 65.5015 177.415 64.3315 177.725 63.8515C178.685 62.3815 178.585 42.3015 177.615 40.7015C177.235 40.0915 176.825 38.9815 176.705 38.2415C176.585 37.5015 176.285 36.7315 176.035 36.5215C175.785 36.3215 175.575 35.8915 175.575 35.5915C175.575 35.2815 175.305 34.6915 174.985 34.2715C174.655 33.8515 174.275 33.1615 174.145 32.7315C173.835 31.7615 168.465 26.3015 167.805 26.3015C167.545 26.3015 167.245 26.0915 167.145 25.8215C167.045 25.5615 166.775 25.3415 166.545 25.3415C166.315 25.3415 165.625 25.0815 165.015 24.7515C164.395 24.4315 163.245 24.0615 162.455 23.9415C161.665 23.8115 160.665 23.4815 160.225 23.1915C159.055 22.4315 151.215 22.4315 149.775 23.1915C149.215 23.4915 148.135 23.8215 147.375 23.9415C146.605 24.0515 145.765 24.3315 145.495 24.5515C145.235 24.7715 144.655 25.0515 144.215 25.1815C143.775 25.3115 143.185 25.6215 142.905 25.8715C142.105 26.5715 140.505 26.9415 140.085 26.5315C139.845 26.2815 139.735 22.4115 139.735 13.9015C139.735 6.27153 139.615 1.39152 139.415 1.02152C138.885 0.0215219 120.735 0.0515262 120.205 1.04153ZM182.805 0.911529C182.515 1.67153 182.595 8.81153 182.895 9.29153C183.065 9.56153 184.175 9.81152 185.815 9.95152C189.345 10.2515 189.335 10.2215 189.355 15.8815C189.475 45.0215 189.285 73.5015 188.975 73.8815C188.445 74.5215 185.865 75.5815 184.865 75.5815C184.385 75.5815 183.575 75.7315 183.065 75.9115C183.005 75.9315 182.695 76.0415 182.135 76.2315C182.175 78.2115 182.195 79.3115 182.205 79.5315C182.245 81.3415 182.365 83.0715 182.475 83.3615C182.725 84.0115 208.015 84.2115 209.195 83.5715C209.755 83.2715 209.815 82.8715 209.815 79.5815C209.815 75.3015 209.805 75.2915 206.325 75.0215C202.725 74.7515 203.095 79.0915 203.095 37.5115C203.095 35.0815 203.095 22.9515 203.095 1.13152C202.605 0.901523 202.335 0.781525 202.285 0.751525C200.925 0.141525 183.045 0.281529 182.805 0.911529ZM302.295 22.6715C301.505 22.7515 300.405 23.0215 299.845 23.2815C299.285 23.5415 298.135 23.8415 297.285 23.9615C296.435 24.0715 295.235 24.4315 294.625 24.7515C294.005 25.0815 293.255 25.3415 292.945 25.3415C292.635 25.3415 292.375 25.4915 292.375 25.6615C292.375 25.8315 291.865 26.1915 291.225 26.4515C289.115 27.3415 282.775 33.0915 282.775 34.1215C282.775 34.3615 282.555 34.7315 282.275 34.9615C282.005 35.1915 281.575 35.8215 281.325 36.3615C281.075 36.9015 280.735 37.5615 280.565 37.8215C280.395 38.0915 280.175 38.6915 280.075 39.1615C279.975 39.6315 279.685 40.2315 279.425 40.4915C279.165 40.7515 278.855 41.5915 278.745 42.3515C278.625 43.1215 278.335 44.1315 278.095 44.5915C277.865 45.0615 277.525 46.6515 277.355 48.1115C277.185 49.5815 276.895 51.2915 276.705 51.9015C276.295 53.2915 276.275 58.1115 276.675 59.5115C276.845 60.0815 277.145 61.9615 277.345 63.6715C277.545 65.3815 277.845 66.9415 277.995 67.1315C278.155 67.3115 278.445 68.2415 278.645 69.1915C278.855 70.1315 279.215 71.1115 279.455 71.3515C279.695 71.5915 279.995 72.1615 280.105 72.6215C280.225 73.0815 280.765 74.0915 281.305 74.8715C281.855 75.6415 282.445 76.5315 282.625 76.8415C283.035 77.5615 285.975 80.3815 286.315 80.3815C286.455 80.3815 286.985 80.7315 287.495 81.1615C288.005 81.5915 288.805 82.0415 289.265 82.1515C289.735 82.2715 290.275 82.5715 290.485 82.8115C290.685 83.0615 291.175 83.2615 291.575 83.2615C291.965 83.2615 292.635 83.5315 293.055 83.8515C293.605 84.2715 294.875 84.5415 297.565 84.8115C299.625 85.0215 301.685 85.3315 302.145 85.5115C303.305 85.9515 305.165 85.9015 307.165 85.3815C308.095 85.1415 310.075 84.8315 311.575 84.7015C313.205 84.5615 314.735 84.2215 315.405 83.8615C316.025 83.5315 316.735 83.2615 316.995 83.2615C317.455 83.2615 319.935 82.2215 320.855 81.6315C321.125 81.4715 321.845 81.1015 322.455 80.8315C324.915 79.7215 325.275 78.8815 324.005 77.2215C323.685 76.8015 323.415 76.1815 323.415 75.8315C323.415 75.4915 323.125 74.8415 322.775 74.3915C322.425 73.9415 322.135 73.3715 322.135 73.1215C322.135 71.2815 319.905 70.1815 318.745 71.4615C318.445 71.7915 318.025 72.0615 317.805 72.0615C317.595 72.0615 317.255 72.2615 317.055 72.5015C316.855 72.7415 316.165 73.0315 315.535 73.1315C314.895 73.2315 314.115 73.5615 313.785 73.8515C311.925 75.5315 299.845 75.5515 298.615 73.8815C298.425 73.6115 297.865 73.2915 297.395 73.1715C295.405 72.6715 291.415 67.0315 291.415 64.7115C291.415 64.1715 291.215 63.2315 290.965 62.6415C290.325 61.1015 291.015 60.5615 294.035 60.2115C295.325 60.0615 297.385 59.7915 298.615 59.6115C299.845 59.4315 301.755 59.2715 302.845 59.2715C304.065 59.2715 305.465 59.0215 306.455 58.6215C307.355 58.2715 308.365 57.9815 308.715 57.9815C309.055 57.9815 309.875 57.7015 310.535 57.3415C311.195 56.9915 312.025 56.7015 312.395 56.7015C312.755 56.7015 313.545 56.3415 314.135 55.9015C314.735 55.4615 315.445 55.1015 315.725 55.1015C316.005 55.1015 316.475 54.8515 316.765 54.5415C317.055 54.2415 317.675 53.7015 318.145 53.3415C320.385 51.6515 323.415 47.6715 323.415 46.4315C323.415 46.0815 323.715 45.1515 324.065 44.3615C325.025 42.2715 325.025 35.8715 324.075 34.0115C323.715 33.3115 323.415 32.3915 323.415 31.9715C323.415 31.5515 323.125 30.9415 322.775 30.6215C322.425 30.3015 322.135 29.9115 322.135 29.7515C322.135 29.5015 319.695 27.0715 318.275 25.9115C317.345 25.1615 314.955 24.1215 313.725 23.9515C313.065 23.8615 312.095 23.5715 311.575 23.3115C310.585 22.8215 304.925 22.4315 302.295 22.6715ZM62.775 25.1015C62.675 25.5015 62.635 27.4115 62.685 29.3415C62.695 29.5815 62.725 30.7515 62.775 32.8615C63.545 33.0015 63.975 33.0715 64.055 33.0815C68.085 33.7715 70.935 35.4915 70.935 37.2315C70.935 37.3815 71.185 37.7715 71.495 38.1115C71.805 38.4415 72.315 39.0515 72.625 39.4715C72.925 39.8815 73.545 40.6815 73.985 41.2315C74.415 41.7815 74.775 42.3915 74.775 42.5815C74.775 42.7715 75.065 43.0815 75.415 43.2615C75.765 43.4515 76.055 43.7515 76.055 43.9315C76.055 44.1115 76.635 45.0315 77.335 45.9815C78.045 46.9415 78.615 47.8615 78.615 48.0315C78.615 48.2115 78.875 48.5415 79.185 48.7715C79.495 49.0015 80.295 50.0115 80.955 51.0115C81.615 52.0115 82.295 52.9215 82.465 53.0315C83.005 53.3615 82.815 55.3615 82.185 55.9715C81.865 56.2915 81.155 57.1915 80.615 57.9815C80.065 58.7815 79.145 59.9715 78.555 60.6315C77.415 61.9315 76.915 62.5615 75.425 64.5415C74.905 65.2515 74.285 66.0415 74.045 66.3015C73.815 66.5715 72.365 68.3415 70.815 70.2315C67.465 74.3515 67.305 74.4615 64.135 74.9615C61.175 75.4315 61.275 75.2415 61.405 80.2215C61.415 80.4615 61.445 81.6315 61.495 83.7415L73.095 83.8315L84.685 83.9115C84.805 83.4415 84.865 83.1815 84.885 83.1315C85.145 82.0915 84.925 75.7015 84.615 75.4015C84.485 75.2615 83.595 75.0915 82.635 75.0115C79.505 74.7515 79.525 72.9715 82.675 70.2715C82.895 70.0815 83.805 69.0015 84.685 67.8715C90.165 60.8515 89.545 61.0515 92.695 65.1815C93.225 65.8915 93.915 66.7915 94.225 67.1915C94.525 67.5915 94.975 68.1415 95.225 68.4115C96.175 69.4815 98.455 73.3015 98.455 73.8515C98.455 74.1615 95.735 75.2515 94.925 75.2615C93.115 75.2715 92.855 75.8315 92.895 79.5415C92.945 84.3615 91.535 83.9015 106.445 83.9015C121.565 83.9015 120.215 84.3315 120.215 79.5015C120.215 75.6015 119.885 75.1715 116.655 74.8315C114.615 74.6215 112.855 73.5315 112.855 72.4715C112.855 72.2415 112.665 71.9715 112.415 71.8815C112.175 71.7815 111.505 70.9715 110.915 70.0615C110.325 69.1515 109.585 68.1215 109.275 67.7615C108.955 67.4015 108.445 66.8215 108.135 66.4715C107.825 66.1215 107.435 65.6015 107.255 65.3115C106.455 63.9915 105.635 62.9215 105.265 62.6915C105.045 62.5515 104.855 62.2315 104.855 61.9915C104.855 61.7415 104.605 61.3515 104.295 61.1215C103.985 60.8915 103.315 60.0615 102.785 59.2615C102.265 58.4715 101.655 57.6115 101.425 57.3415C101.195 57.0815 100.465 56.1615 99.795 55.3015C99.715 55.2015 99.305 54.6815 98.575 53.7415C98.955 52.9815 99.165 52.5615 99.205 52.4715C99.555 51.7815 100.025 51.1315 100.265 51.0415C100.505 50.9515 100.695 50.7415 100.695 50.5815C100.695 50.2015 103.825 46.4015 104.425 46.0515C104.665 45.9115 104.855 45.6615 104.855 45.5015C104.855 45.3415 105.545 44.3015 106.375 43.1915C108.055 40.9515 108.235 40.7315 109.675 39.1015C110.225 38.4915 111.005 37.4815 111.405 36.8615C112.855 34.6615 114.875 33.4715 117.815 33.1115C118.525 33.0315 119.235 32.8215 119.415 32.6615C119.725 32.3615 119.695 26.0515 119.375 24.9415C119.225 24.4215 118.435 24.3815 108.565 24.3815C95.765 24.3815 96.855 23.9515 96.865 29.0515C96.875 33.0315 97.065 33.4615 98.915 33.7615C101.425 34.1615 101.195 35.5915 98.155 38.4615C97.875 38.7315 97.125 39.7415 96.485 40.7015C95.845 41.6715 94.915 42.9015 94.415 43.4215C93.915 43.9515 93.345 44.6715 93.165 45.0215C92.605 46.0715 90.135 45.5215 90.135 44.3415C90.135 44.1015 89.995 43.9015 89.825 43.9015C89.545 43.9015 89.145 43.3815 87.415 40.7615C87.245 40.5015 86.835 39.9815 86.525 39.6115C86.205 39.2415 85.765 38.7315 85.545 38.4615C83.445 35.9515 83.865 34.4015 86.875 33.5415C89.715 32.7315 89.625 32.8915 89.575 29.0115C89.505 23.9215 90.895 24.3815 75.695 24.3815C74.845 24.3815 70.595 24.3815 62.945 24.3815L62.775 25.1015ZM210.915 24.8015C210.825 25.0315 210.795 27.1515 210.845 29.5215C210.855 29.8115 210.885 31.2415 210.935 33.8215C212.405 33.9215 213.215 33.9715 213.385 33.9815C217.445 34.2515 217.115 32.5215 217.235 53.8215C217.335 71.8915 217.335 71.9015 218.055 73.1815C218.455 73.8815 218.775 74.7915 218.775 75.2015C218.775 76.0215 220.265 78.7915 220.925 79.2015C221.155 79.3415 221.335 79.6115 221.335 79.8015C221.335 80.4115 224.745 83.2615 225.465 83.2615C225.615 83.2615 226.075 83.5315 226.495 83.8615C226.925 84.2015 228.095 84.5515 229.175 84.6815C230.235 84.8015 231.915 85.1315 232.915 85.4015C233.925 85.6715 235.215 85.8215 235.795 85.7315C241.695 84.7715 243.485 84.3715 244.865 83.7115C245.745 83.2915 246.645 82.9415 246.865 82.9415C247.075 82.9415 247.255 82.8015 247.255 82.6215C247.255 82.4515 247.455 82.3015 247.685 82.3015C248.255 82.3015 250.205 80.8615 251.925 79.1615C254.155 76.9615 254.755 77.2715 254.875 80.6915C254.995 84.1415 254.285 83.8915 264.155 83.9015C274.585 83.9015 273.815 84.2515 273.815 79.6215C273.815 75.4215 273.905 75.5415 270.055 74.9415C268.325 74.6715 267.755 74.4315 267.175 73.7415C267.135 73.6815 266.895 73.3915 266.465 72.8615C266.455 58.6915 266.455 50.8215 266.455 49.2415C266.455 33.5715 266.345 25.4115 266.125 25.0015C265.815 24.4115 265.365 24.3815 256.375 24.3815C255.745 24.3815 252.605 24.3815 246.945 24.3815C246.845 24.8215 246.785 25.0615 246.775 25.1015C246.675 25.5015 246.635 27.6215 246.685 29.8215C246.695 30.0915 246.725 31.4215 246.775 33.8215C247.925 33.8715 248.565 33.9015 248.695 33.9115C253.635 34.1215 253.385 33.1615 253.275 51.3315C253.185 64.7315 253.125 66.2315 252.615 67.1015C252.315 67.6315 252.065 68.1815 252.055 68.3215C252.055 69.0815 248.665 73.0215 248.015 73.0215C247.805 73.0215 247.215 73.3515 246.725 73.7615C244.905 75.2415 239.655 75.8315 236.475 74.9215C234.795 74.4415 233.755 73.5715 232.245 71.4215C231.495 70.3515 231.315 69.6715 230.685 65.6615C230.535 64.7015 230.455 55.4115 230.495 45.0215C230.555 32.2715 230.465 25.8615 230.235 25.2615C230.215 25.2115 230.105 24.9115 229.895 24.3815C224.255 24.3815 221.115 24.3815 220.485 24.3815C213.065 24.3815 211.045 24.4715 210.915 24.8015ZM307.375 32.4015C312.825 33.6615 314.175 41.5515 309.655 45.7215C307.975 47.2715 307.275 47.7715 306.475 47.9615C306.025 48.0715 305.315 48.4315 304.895 48.7515C304.475 49.0815 303.715 49.3415 303.195 49.3415C302.685 49.3415 301.835 49.5715 301.315 49.8415C299.955 50.5415 291.285 51.1815 290.625 50.6315C289.935 50.0615 290.015 47.5615 290.785 45.8715C291.135 45.1015 291.415 44.1115 291.415 43.6615C291.415 42.9115 292.585 40.2615 293.915 38.0115C294.645 36.7715 297.545 33.9915 298.115 33.9915C298.365 33.9815 298.825 33.7515 299.145 33.4615C300.395 32.3315 304.685 31.7815 307.375 32.4015ZM36.905 33.3815C37.235 33.6615 37.865 33.9815 38.305 34.0915C39.365 34.3415 42.305 37.1115 42.615 38.1415C42.745 38.5815 43.105 39.2315 43.415 39.5815C43.735 39.9415 44.095 40.7315 44.215 41.3415C44.345 41.9615 44.595 42.6415 44.765 42.8515C46.175 44.6015 46.105 60.1615 44.665 65.0015C44.335 66.1315 44.055 67.2215 44.055 67.4315C44.055 67.6315 43.765 68.0615 43.415 68.3815C43.065 68.7015 42.775 69.2215 42.775 69.5415C42.775 69.8615 42.515 70.3815 42.185 70.6915C41.865 71.0115 41.515 71.5115 41.405 71.8015C41.295 72.1015 40.805 72.6015 40.315 72.9015C39.825 73.2115 39.265 73.6315 39.085 73.8515C37.435 75.7915 30.525 76.5615 26.455 75.2615C25.355 74.9115 24.125 74.6215 23.715 74.6215C23.305 74.6215 22.455 74.1515 21.825 73.5715C21.745 73.5015 21.365 73.1515 20.665 72.5115L20.765 56.0415L20.855 39.5715C21.285 39.0215 21.525 38.7115 21.575 38.6515C21.975 38.1515 22.295 37.5815 22.295 37.3815C22.295 36.8415 25.585 33.9915 26.205 33.9815C26.515 33.9815 27.235 33.6915 27.805 33.3315C29.185 32.4715 35.905 32.5115 36.905 33.3815ZM155.665 33.3415C156.245 33.7015 156.915 33.9815 157.165 33.9815C158.415 33.9815 162.305 38.5815 162.685 40.5015C162.795 41.0515 163.135 41.8615 163.445 42.3015C165.275 44.9115 165.235 62.4315 163.395 65.6015C163.055 66.1815 162.775 66.9015 162.775 67.2015C162.775 67.5015 162.565 68.1015 162.315 68.5415C162.065 68.9815 161.625 69.8015 161.335 70.3515C160.605 71.7715 157.575 74.6215 156.815 74.6215C156.615 74.6215 155.815 74.9115 155.055 75.2615C153.095 76.1415 148.265 76.1515 145.445 75.2715C144.335 74.9215 143.095 74.6315 142.705 74.6315C142.315 74.6315 141.495 74.1815 140.865 73.6315C140.795 73.5615 140.415 73.2315 139.735 72.6415C139.735 63.0115 139.735 57.6615 139.735 56.5915C139.745 42.9815 139.815 40.4015 140.215 39.6315C140.485 39.1215 140.695 38.5015 140.695 38.2415C140.695 37.4715 144.345 33.9815 145.155 33.9815C145.555 33.9815 146.245 33.7015 146.695 33.3415C147.895 32.4015 154.115 32.4015 155.665 33.3415Z" fill="#000000"/>
</svg>
