<?xml version="1.0" encoding="UTF-8" standalone="no"?>
<svg
        xmlns:dc="http://purl.org/dc/elements/1.1/"
        xmlns:cc="http://creativecommons.org/ns#"
        xmlns:rdf="http://www.w3.org/1999/02/22-rdf-syntax-ns#"
        xmlns:svg="http://www.w3.org/2000/svg"
        xmlns="http://www.w3.org/2000/svg"
        xmlns:sodipodi="http://sodipodi.sourceforge.net/DTD/sodipodi-0.dtd"
        xmlns:inkscape="http://www.inkscape.org/namespaces/inkscape"
        id="svg2985"
        version="1.1"
        inkscape:version="1.0.1 (3bc2e813f5, 2020-09-07)"
        width="1388.4497"
        height="360.94351"
        sodipodi:docname="forbes.svg">
    <metadata
            id="metadata2991">
        <rdf:RDF>
            <cc:Work
                    rdf:about="">
                <dc:format>image/svg+xml</dc:format>
                <dc:type
                        rdf:resource="http://purl.org/dc/dcmitype/StillImage" />
                <dc:title />
            </cc:Work>
        </rdf:RDF>
    </metadata>
    <defs
            id="defs2989" />
    <sodipodi:namedview
            pagecolor="#ffffff"
            bordercolor="#666666"
            borderopacity="1"
            objecttolerance="10"
            gridtolerance="10"
            guidetolerance="10"
            inkscape:pageopacity="0"
            inkscape:pageshadow="2"
            inkscape:window-width="1916"
            inkscape:window-height="1041"
            id="namedview2987"
            showgrid="false"
            inkscape:zoom="0.71855565"
            inkscape:cx="672.45207"
            inkscape:cy="123.23571"
            inkscape:window-x="0"
            inkscape:window-y="18"
            inkscape:window-maximized="0"
            inkscape:current-layer="svg2985"
            fit-margin-top="0"
            fit-margin-left="0"
            fit-margin-right="0"
            fit-margin-bottom="0"
            inkscape:document-rotation="0" />
    <path
            style="fill:#000000;fill-opacity:1"
            d="m 345.49999,359.54131 c -55.81404,-8.79921 -89.79918,-47.39872 -96.62597,-109.74547 -1.60154,-14.6264 -0.60759,-38.7873 2.1296,-51.76585 10.913,-51.74472 43.80056,-85.92418 92.99637,-96.64947 12.13195,-2.644907 44.90393,-2.670957 56.84353,-0.0452 50.3992,11.08388 81.24779,46.43234 89.34346,102.37598 1.89913,13.12357 1.57785,41.63129 -0.6062,53.7891 -10.08157,56.12048 -47.549,94.02832 -100.74262,101.92682 -12.43119,1.84585 -32.02624,1.89743 -43.33817,0.11408 z m 39.18554,-18.03094 c 21.35807,-9.63913 32.27057,-46.5573 32.30414,-109.2884 0.0254,-47.4286 -8.03938,-83.25104 -23.17586,-102.94357 -7.39193,-9.61689 -19.02245,-15.11648 -29.39111,-13.89785 -21.08718,2.47838 -33.24096,22.36544 -39.16809,64.09021 -2.53678,17.85791 -2.49909,76.31075 0.0597,92.52965 4.90647,31.10026 12.23143,50.49134 23.53866,62.31297 9.98166,10.43576 22.90491,13.0314 35.8326,7.19699 z m 394.81446,18.43227 c -19.99742,-1.99886 -60.01185,-8.97002 -61.64115,-10.73887 -0.35632,-0.38685 -0.20972,-21.85336 0.32576,-47.70336 1.15709,-55.857 0.39601,-227.666287 -1.05651,-238.499997 -3.03913,-22.66754 -10.11525,-31.01615 -28.3781,-33.48137 l -4.75,-0.64118 v -4.87134 c 0,-5.47903 -0.35023,-5.23272 10,-7.03283 3.57501,-0.62177 25.59131,-4.695113 48.92511,-9.051883 23.3338,-4.35677 43.3588,-7.92149 44.5,-7.9216 L 789.49999,0 l -0.3449,58.000213 c -0.25365,42.654537 -0.0459,58.000197 0.78518,58.000197 0.62155,0 2.12676,-0.62779 3.34491,-1.3951 4.47645,-2.81968 20.45308,-8.5223 28.71482,-10.24933 12.68721,-2.65213 34.88854,-2.46864 45.66512,0.37742 30.3971,8.02776 55.26957,33.2198 66.84574,67.70463 5.36782,15.99046 6.76117,25.52244 6.87938,47.06238 0.11265,20.52703 -0.82873,29.85907 -4.51404,44.74803 -9.32632,37.67921 -31.49104,66.51564 -63.1268,82.12835 -11.32948,5.59126 -24.17135,9.83009 -36.74941,12.1302 -11.09254,2.02846 -43.47942,2.83709 -57.5,1.43565 z m 43.78122,-20.18339 c 26.04302,-12.05824 43.71878,-58.1295 43.71878,-113.9515 0,-39.2381 -9.35469,-69.50357 -26.49246,-85.71177 -12.06587,-11.41139 -25.83141,-14.03637 -45.16293,-8.61223 l -6.13187,1.72052 -0.75276,20.64807 c -0.77938,21.37845 0.31874,158.63149 1.41726,177.14178 l 0.62276,10.4937 3,0.68967 c 1.65,0.37932 7.725,0.59266 13.5,0.4741 9.00315,-0.18484 11.32415,-0.59716 16.28122,-2.89234 z M 1065,359.46272 c -18.1842,-2.87521 -33.1997,-8.57343 -47.6249,-18.07318 -27.36443,-18.02084 -45.3309,-46.31413 -52.00031,-81.88913 -2.8094,-14.98539 -2.6023,-43.08587 0.4292,-58.22776 3.8596,-19.27823 10.5457,-36.27806 19.78258,-50.29883 16.95673,-25.73865 41.15453,-42.49582 70.91343,-49.10812 11.7423,-2.609077 35.6836,-3.590887 46.2568,-1.896927 27.1351,4.347377 47.0419,16.917697 61.6936,38.957087 11.4605,17.23902 17.9193,39.90072 20.0431,70.32455 l 0.6108,8.75 h -74.7065 -74.7064 l 0.6329,12.48788 c 2.1479,42.38085 18.6623,72.53508 47.1757,86.14027 12.4104,5.92162 20.9961,7.64365 38,7.62168 20.9996,-0.0271 31.9117,-3.19915 48.1926,-14.00905 l 5.3833,-3.57433 2.9214,3.41678 c 1.6068,1.87922 2.9397,3.86867 2.9621,4.42099 0.077,1.90831 -9.8146,13.02904 -16.1261,18.12951 -18.2559,14.75299 -35.2793,22.54705 -57.6827,26.40955 -13.1569,2.26836 -29.4313,2.43015 -42.1506,0.41903 z m 45.5,-161.5095 c 1.343,-1.05083 0.099,-26.59547 -1.8989,-38.99462 -3.9492,-24.5077 -12.111,-39.39754 -23.4595,-42.79763 -5.143,-1.54088 -8.0312,-1.4636 -13.179,0.35263 -16.6638,5.87934 -29.9599,32.44123 -34.4684,68.85822 -0.8218,6.63788 -1.4942,12.66894 -1.4942,13.40237 0,1.09958 6.4465,1.21315 36.75,0.64747 20.2125,-0.37731 37.2,-1.03811 37.75,-1.46844 z m 148,161.40123 c -16.1774,-1.92745 -35.0703,-5.81549 -46,-9.46651 -4.95,-1.65353 -9.2856,-3.31717 -9.6346,-3.69697 -0.3491,-0.37981 -0.95,-16.94767 -1.3354,-36.81748 l -0.7007,-36.12692 4.7635,-1.62308 c 2.6199,-0.89269 5.0763,-1.62308 5.4587,-1.62308 0.3824,0 2.1588,3.7125 3.9475,8.25 10.7669,27.31217 24.7439,45.63431 40.9456,53.67461 8.7517,4.34318 14.5885,5.58027 26.0554,5.52235 8.4704,-0.0428 11.6108,-0.49134 16.2467,-2.3206 8.0039,-3.15825 15.894,-10.63544 19.9792,-18.93364 3.0465,-6.18844 3.2724,-7.34714 3.2501,-16.67169 -0.021,-8.84121 -0.3321,-10.60994 -2.6412,-15.02307 -6.4353,-12.29921 -20.3726,-21.05641 -52.8348,-33.19755 -42.6491,-15.95115 -60.0374,-36.73916 -59.9826,-71.71037 0.022,-13.89537 1.8389,-22.59384 6.8859,-32.96169 12.2077,-25.0781 37.4253,-41.83454 70.1963,-46.643647 12.2325,-1.7951 40.9919,-0.79005 56.3202,1.968197 10.8414,1.95086 33.1745,8.32015 34.7103,9.89922 0.3466,0.35633 0.9396,15.08003 1.3177,32.71931 l 0.6876,32.07144 -4.1718,1.24989 c -2.2945,0.68744 -4.7317,1.46474 -5.416,1.72733 -0.8046,0.30879 -2.2359,-2.27735 -4.0519,-7.32133 -3.5339,-9.81579 -10.6183,-24.11085 -15.5485,-31.37402 -10.9472,-16.12757 -27.2806,-24.65104 -45.4531,-23.71935 -17.3662,0.89035 -28.8692,11.98855 -31.7298,30.61325 -1.3815,8.99507 0.226,16.49701 5.058,23.60381 7.0784,10.41097 20.2941,18.77549 48.4461,30.66286 27.4343,11.58427 37.3731,17.42926 48.2316,28.36495 12.7725,12.86331 16.871,23.99995 16.947,46.04974 0.04,11.62476 -0.3446,15.44211 -2.2672,22.5 -4.4157,16.20991 -15.2623,32.08793 -28.7027,42.0169 -22.6238,16.71321 -57.8427,23.23809 -98.9771,18.33714 z M 0,348.05943 c 0,-3.26754 0.36532,-6.16677 0.811822,-6.44272 0.446502,-0.27595 5.509002,-1.43323 11.25,-2.57172 5.740998,-1.13849 11.362938,-2.27582 12.493201,-2.5274 3.516862,-0.78279 10.265247,-5.87878 13.362801,-10.0908 4.129174,-5.6148 7.964626,-17.74436 9.579746,-30.29577 2.5778,-20.03251 3.76101,-71.78455 3.1924,-139.63061 C 50.13811,90.653253 49.34368,72.342213 46.37313,57.000413 41.53395,32.007813 32.624061,23.602713 8.5,21.272993 l -8,-0.77258 v -7 V 6.50041 L 140.62719,6.24695 280.7544,5.99348 l 0.60518,26.253473 c 0.33285,14.4394 0.7256,36.37571 0.87279,48.74734 l 0.26763,22.493877 -7,2.2542 c -3.85001,1.23981 -7.37173,2.13115 -7.82607,1.98076 -0.45434,-0.15039 -2.5229,-4.76202 -4.5968,-10.248077 -8.83861,-23.38059 -16.23101,-35.93864 -27.95265,-47.48531 -8.73696,-8.60654 -17.59604,-13.72077 -29.66955,-17.12784 -7.51256,-2.12001 -9.84566,-2.24808 -41.95493,-2.30316 l -34,-0.0583 -0.61371,12.5 c -1.02668,20.91153 -3.26373,127.955897 -2.68613,128.533487 1.09471,1.09472 44.31779,-1.58499 49.29984,-3.05645 13.18068,-3.89293 23.65075,-18.5978 27.75219,-38.97704 l 1.40879,-7 7.16951,-0.29381 L 219,121.91282 v 59.04381 59.04381 h -6.98095 c -6.79777,0 -6.99731,-0.0722 -7.60441,-2.75 -3.59461,-15.85532 -8.69006,-27.93288 -14.67426,-34.78185 -7.89761,-9.03889 -14.58527,-10.75998 -46.643,-12.0037 l -17.40262,-0.67516 0.67722,26.85536 c 1.92881,76.48698 4.21291,95.40903 13.16307,109.04615 5.09896,7.76915 10.0443,10.20731 26.89602,13.26033 l 14.06892,2.54884 0.31236,6.25 0.31235,6.25 H 90.56235 0 Z m 493.99999,-0.46518 v -6.40616 l 5.25,-0.66078 c 10.82654,-1.36266 15.31845,-3.22973 19.67347,-8.17729 8.49367,-9.64933 9.40576,-19.15377 9.48602,-98.84961 0.0627,-62.25068 -0.46001,-73.59002 -3.93044,-85.26409 -2.89985,-9.7547 -10.04746,-15.31519 -21.47905,-16.70967 -9.05283,-1.1043 -9,-1.0656 -9,-6.59363 0,-2.71293 0.3375,-4.9333 0.75,-4.93415 0.4125,-8.4e-4 24.08213,-4.72584 52.59917,-10.5 28.51704,-5.77415 52.09296,-10.498457 52.3909,-10.498457 0.29795,0 0.24002,12.712497 -0.12872,28.249997 l -0.67045,28.25 4.75535,-8.8318 c 2.61545,-4.85748 7.7017,-12.71296 11.3028,-17.45661 18.17868,-23.94641 45.27473,-35.479137 69.78243,-29.701067 6.44934,1.520527 14.21852,4.949577 14.21852,6.275567 0,0.40999 -5.4059,15.13835 -12.01314,32.72968 -6.60723,17.59133 -12.23409,32.5884 -12.50415,33.32682 -0.37415,1.02308 -1.56395,0.7138 -4.99954,-1.29959 -16.25916,-9.5285 -37.5625,-12.32842 -54.08615,-7.10861 -4.35254,1.37498 -9.77954,3.87208 -12.05997,5.54913 -3.77518,2.7763 -4.18691,3.51753 -4.60086,8.28282 -0.92765,10.67902 -0.73086,93.83859 0.26204,110.73366 1.86836,31.79158 3.78233,39.8587 11.00483,46.3838 4.29193,3.8775 8.78742,5.09599 22.74694,6.16549 l 9.25,0.70868 v 6.37101 6.37102 h -74 -74 z"
            id="path889" />
</svg>
