<svg width="1091" height="430" viewBox="0 0 1091 430" fill="none" xmlns="http://www.w3.org/2000/svg">
<rect width="1091" height="430" rx="25" fill="#202020"/>
<rect width="1091" height="430" rx="25" fill="url(#paint0_radial_402_66)" fill-opacity="0.2"/>
<path d="M270.946 193.676H300.27" stroke="#0070F0" stroke-width="15.2432" stroke-linecap="round"/>
<path d="M321.216 193.676H333.784" stroke="white" stroke-width="15.2432" stroke-linecap="round"/>
<path d="M321.216 193.676H333.784" stroke="white" stroke-opacity="0.2" stroke-width="15.2432" stroke-linecap="round"/>
<path d="M270.946 164.647H279.324" stroke="#0070F0" stroke-width="15.2432" stroke-linecap="round"/>
<path d="M300.27 164.647H333.784" stroke="white" stroke-width="15.2432" stroke-linecap="round"/>
<path d="M300.27 164.647H333.784" stroke="white" stroke-opacity="0.2" stroke-width="15.2432" stroke-linecap="round"/>
<path d="M270.946 135.618H279.324" stroke="#0070F0" stroke-width="15.2432" stroke-linecap="round"/>
<path d="M300.27 135.618H333.784" stroke="white" stroke-width="15.2432" stroke-linecap="round"/>
<path d="M300.27 135.618H333.784" stroke="white" stroke-opacity="0.2" stroke-width="15.2432" stroke-linecap="round"/>
<path d="M389.29 201.971V127.945H405.105V189.011H435.476V201.971H389.29ZM470.71 144.223C478.391 144.223 484.256 145.882 488.305 149.199C492.425 152.448 494.484 157.459 494.484 164.232V201.971H483.592L480.555 194.298H480.136C478.53 196.303 476.854 197.962 475.109 199.275C473.433 200.588 471.479 201.521 469.244 202.074C467.08 202.696 464.392 203.007 461.18 203.007C457.829 203.007 454.791 202.385 452.069 201.141C449.415 199.828 447.321 197.858 445.785 195.232C444.249 192.536 443.481 189.149 443.481 185.071C443.481 179.058 445.61 174.634 449.869 171.8C454.128 168.898 460.517 167.308 469.035 167.032L478.984 166.721V164.232C478.984 161.26 478.181 159.083 476.575 157.7C475.039 156.318 472.875 155.627 470.082 155.627C467.289 155.627 464.566 156.042 461.913 156.871C459.26 157.631 456.607 158.599 453.953 159.774L448.822 149.303C451.894 147.713 455.28 146.469 458.981 145.571C462.751 144.672 466.661 144.223 470.71 144.223ZM472.91 175.948C467.883 176.086 464.392 176.984 462.437 178.643C460.482 180.302 459.504 182.479 459.504 185.175C459.504 187.525 460.203 189.218 461.599 190.255C462.996 191.223 464.811 191.707 467.045 191.707C470.396 191.707 473.224 190.739 475.528 188.804C477.832 186.799 478.984 184 478.984 180.406V175.74L472.91 175.948ZM502.288 145.363H519.359L530.146 177.192C530.495 178.229 530.774 179.265 530.984 180.302C531.263 181.339 531.473 182.41 531.612 183.516C531.822 184.622 531.962 185.797 532.031 187.041H532.346C532.555 185.244 532.835 183.55 533.183 181.961C533.602 180.302 534.056 178.713 534.545 177.192L545.122 145.363H561.879L537.687 209.228C536.22 213.098 534.301 216.347 531.926 218.973C529.622 221.6 526.935 223.57 523.862 224.883C520.79 226.196 517.439 226.853 513.808 226.853C512.063 226.853 510.527 226.749 509.2 226.542C507.943 226.404 506.826 226.231 505.849 226.023V213.789C506.617 213.928 507.525 214.066 508.572 214.204C509.689 214.342 510.841 214.412 512.028 214.412C514.192 214.412 516.043 213.963 517.579 213.064C519.185 212.165 520.511 210.921 521.558 209.332C522.606 207.811 523.444 206.152 524.072 204.355L525.014 201.556L502.288 145.363ZM593.647 144.326C598.954 144.326 603.492 145.329 607.262 147.333C611.102 149.337 614.07 152.24 616.164 156.042C618.259 159.843 619.306 164.509 619.306 170.038V177.503H582.441C582.581 181.857 583.873 185.279 586.317 187.767C588.83 190.255 592.286 191.499 596.685 191.499C600.385 191.499 603.737 191.154 606.739 190.462C609.741 189.702 612.848 188.562 616.06 187.041V198.964C613.267 200.346 610.3 201.348 607.158 201.971C604.086 202.662 600.35 203.007 595.951 203.007C590.226 203.007 585.165 201.971 580.766 199.897C576.367 197.754 572.911 194.54 570.398 190.255C567.884 185.97 566.627 180.579 566.627 174.082C566.627 167.446 567.745 161.951 569.978 157.597C572.283 153.173 575.46 149.856 579.509 147.644C583.559 145.432 588.272 144.326 593.647 144.326ZM593.752 155.316C590.75 155.316 588.237 156.284 586.212 158.219C584.257 160.155 583.105 163.161 582.756 167.239H604.644C604.644 164.958 604.225 162.919 603.387 161.122C602.62 159.325 601.433 157.908 599.827 156.871C598.221 155.834 596.196 155.316 593.752 155.316ZM663.904 144.326C664.67 144.326 665.576 144.361 666.624 144.43C667.672 144.499 668.511 144.603 669.14 144.741L667.985 159.256C667.497 159.118 666.765 159.014 665.786 158.945C664.879 158.807 664.079 158.737 663.378 158.737C661.354 158.737 659.399 159.014 657.513 159.567C655.63 160.051 653.919 160.846 652.383 161.951C650.916 163.057 649.727 164.543 648.82 166.409C647.982 168.206 647.563 170.453 647.563 173.148V201.971H631.961V145.363H643.794L646.099 154.901H646.831C647.948 152.966 649.346 151.203 651.019 149.614C652.696 148.024 654.617 146.746 656.781 145.778C659.014 144.81 661.388 144.326 663.904 144.326ZM711.146 156.975H697.637V201.971H682.032V156.975H673.442V149.51L682.032 145.363V141.216C682.032 136.378 682.836 132.646 684.44 130.019C686.117 127.323 688.453 125.423 691.456 124.317C694.527 123.211 698.125 122.658 702.244 122.658C705.316 122.658 708.075 122.9 710.517 123.384C713.033 123.868 715.056 124.42 716.592 125.043L712.613 136.343C711.428 135.998 710.132 135.687 708.738 135.41C707.343 135.065 705.735 134.892 703.921 134.892C701.752 134.892 700.148 135.548 699.1 136.862C698.125 138.175 697.637 139.834 697.637 141.838V145.363H711.146V156.975ZM735.653 145.363V201.971H720.048V145.363H735.653ZM727.902 123.176C730.208 123.176 732.197 123.729 733.874 124.835C735.547 125.872 736.385 127.842 736.385 130.745C736.385 133.578 735.547 135.548 733.874 136.654C732.197 137.76 730.208 138.313 727.902 138.313C725.528 138.313 723.505 137.76 721.828 136.654C720.224 135.548 719.419 133.578 719.419 130.745C719.419 127.842 720.224 125.872 721.828 124.835C723.505 123.729 725.528 123.176 727.902 123.176ZM767.638 201.971H752.032V123.176H767.638V201.971ZM807.506 144.326C812.815 144.326 817.35 145.329 821.122 147.333C824.964 149.337 827.928 152.24 830.024 156.042C832.117 159.843 833.165 164.509 833.165 170.038V177.503H796.299C796.436 181.857 797.732 185.279 800.174 187.767C802.689 190.255 806.146 191.499 810.544 191.499C814.24 191.499 817.594 191.154 820.596 190.462C823.599 189.702 826.705 188.562 829.918 187.041V198.964C827.124 200.346 824.16 201.348 821.016 201.971C817.944 202.662 814.21 203.007 809.808 203.007C804.084 203.007 799.023 201.971 794.622 199.897C790.224 197.754 786.768 194.54 784.257 190.255C781.741 185.97 780.484 180.579 780.484 174.082C780.484 167.446 781.604 161.951 783.837 157.597C786.139 153.173 789.317 149.856 793.368 147.644C797.419 145.432 802.129 144.326 807.506 144.326ZM807.609 155.316C804.606 155.316 802.095 156.284 800.071 158.219C798.113 160.155 796.962 163.161 796.615 167.239H818.501C818.501 164.958 818.085 162.919 817.247 161.122C816.477 159.325 815.288 157.908 813.684 156.871C812.079 155.834 810.052 155.316 807.609 155.316Z" fill="white"/>
<path d="M192.558 333H178.702V290.198H192.997C197.191 290.198 200.793 291.055 203.802 292.769C206.812 294.469 209.118 296.914 210.72 300.105C212.336 303.281 213.144 307.092 213.144 311.537C213.144 315.995 212.329 319.827 210.699 323.031C209.083 326.236 206.742 328.702 203.677 330.429C200.612 332.143 196.906 333 192.558 333ZM185.16 327.357H192.203C195.463 327.357 198.173 326.744 200.333 325.518C202.493 324.278 204.109 322.488 205.182 320.147C206.254 317.792 206.791 314.922 206.791 311.537C206.791 308.179 206.254 305.329 205.182 302.989C204.123 300.648 202.541 298.872 200.437 297.659C198.334 296.447 195.721 295.841 192.6 295.841H185.16V327.357ZM234.195 333.648C231.185 333.648 228.559 332.958 226.316 331.579C224.073 330.2 222.331 328.27 221.091 325.79C219.851 323.31 219.231 320.412 219.231 317.096C219.231 313.766 219.851 310.854 221.091 308.36C222.331 305.866 224.073 303.929 226.316 302.55C228.559 301.171 231.185 300.481 234.195 300.481C237.204 300.481 239.831 301.171 242.074 302.55C244.317 303.929 246.059 305.866 247.299 308.36C248.539 310.854 249.159 313.766 249.159 317.096C249.159 320.412 248.539 323.31 247.299 325.79C246.059 328.27 244.317 330.2 242.074 331.579C239.831 332.958 237.204 333.648 234.195 333.648ZM234.216 328.402C236.166 328.402 237.783 327.887 239.064 326.856C240.346 325.825 241.294 324.452 241.907 322.738C242.534 321.025 242.847 319.137 242.847 317.075C242.847 315.027 242.534 313.146 241.907 311.432C241.294 309.704 240.346 308.318 239.064 307.273C237.783 306.228 236.166 305.706 234.216 305.706C232.251 305.706 230.621 306.228 229.325 307.273C228.044 308.318 227.089 309.704 226.462 311.432C225.849 313.146 225.543 315.027 225.543 317.075C225.543 319.137 225.849 321.025 226.462 322.738C227.089 324.452 228.044 325.825 229.325 326.856C230.621 327.887 232.251 328.402 234.216 328.402ZM269.656 333.648C266.549 333.648 263.874 332.944 261.63 331.537C259.401 330.116 257.687 328.158 256.489 325.664C255.291 323.17 254.692 320.314 254.692 317.096C254.692 313.835 255.305 310.958 256.531 308.464C257.757 305.956 259.485 303.999 261.714 302.592C263.943 301.184 266.57 300.481 269.593 300.481C272.031 300.481 274.205 300.934 276.114 301.839C278.022 302.731 279.562 303.985 280.732 305.601C281.917 307.217 282.62 309.105 282.843 311.265H276.761C276.427 309.76 275.661 308.464 274.462 307.378C273.278 306.291 271.69 305.747 269.697 305.747C267.956 305.747 266.43 306.207 265.121 307.127C263.825 308.032 262.815 309.328 262.09 311.014C261.366 312.686 261.003 314.664 261.003 316.949C261.003 319.29 261.359 321.31 262.069 323.01C262.78 324.71 263.783 326.027 265.079 326.96C266.388 327.894 267.928 328.36 269.697 328.36C270.882 328.36 271.955 328.144 272.916 327.713C273.891 327.267 274.706 326.633 275.361 325.811C276.03 324.989 276.497 323.999 276.761 322.843H282.843C282.62 324.919 281.944 326.772 280.816 328.402C279.687 330.032 278.176 331.314 276.281 332.248C274.4 333.181 272.191 333.648 269.656 333.648ZM295.273 322.112L295.231 314.483H296.318L309.108 300.899H316.59L302.002 316.364H301.02L295.273 322.112ZM289.526 333V290.198H295.774V333H289.526ZM309.798 333L298.303 317.744L302.609 313.376L317.468 333H309.798ZM334.798 333.648C331.636 333.648 328.912 332.972 326.627 331.621C324.356 330.255 322.6 328.339 321.36 325.873C320.134 323.393 319.521 320.488 319.521 317.158C319.521 313.87 320.134 310.972 321.36 308.464C322.6 305.956 324.328 303.999 326.543 302.592C328.773 301.184 331.378 300.481 334.36 300.481C336.171 300.481 337.926 300.78 339.626 301.379C341.326 301.979 342.852 302.919 344.203 304.201C345.555 305.483 346.62 307.148 347.401 309.196C348.181 311.23 348.571 313.703 348.571 316.615V318.83H323.053V314.149H342.448C342.448 312.505 342.113 311.049 341.444 309.781C340.776 308.499 339.835 307.489 338.623 306.751C337.425 306.012 336.018 305.643 334.401 305.643C332.646 305.643 331.113 306.075 329.804 306.939C328.508 307.789 327.505 308.903 326.794 310.283C326.097 311.648 325.749 313.132 325.749 314.734V318.391C325.749 320.537 326.125 322.362 326.878 323.867C327.644 325.372 328.71 326.521 330.075 327.315C331.441 328.096 333.036 328.486 334.861 328.486C336.045 328.486 337.125 328.319 338.101 327.984C339.076 327.636 339.919 327.12 340.629 326.438C341.34 325.755 341.883 324.912 342.26 323.909L348.174 324.975C347.7 326.716 346.85 328.242 345.624 329.552C344.412 330.847 342.886 331.858 341.047 332.582C339.222 333.293 337.139 333.648 334.798 333.648ZM355.504 333V300.899H361.544V305.998H361.879C362.464 304.271 363.495 302.912 364.972 301.923C366.463 300.92 368.148 300.418 370.029 300.418C370.419 300.418 370.879 300.432 371.409 300.46C371.952 300.488 372.377 300.523 372.684 300.564V306.542C372.433 306.472 371.987 306.395 371.346 306.312C370.705 306.214 370.064 306.165 369.423 306.165C367.946 306.165 366.63 306.479 365.473 307.106C364.331 307.719 363.425 308.576 362.756 309.676C362.088 310.763 361.753 312.003 361.753 313.397V333H355.504ZM395.265 300.899V305.915H377.125V300.899H395.265ZM382.099 333V297.179C382.099 295.172 382.538 293.507 383.415 292.184C384.293 290.846 385.456 289.85 386.905 289.195C388.354 288.526 389.929 288.192 391.629 288.192C392.883 288.192 393.955 288.297 394.847 288.506C395.739 288.701 396.401 288.882 396.833 289.049L395.37 294.107C395.077 294.023 394.701 293.925 394.241 293.814C393.781 293.689 393.224 293.626 392.569 293.626C391.05 293.626 389.964 294.002 389.309 294.754C388.668 295.507 388.348 296.594 388.348 298.015V333H382.099ZM401.713 333V300.899H407.961V333H401.713ZM404.868 295.946C403.782 295.946 402.848 295.583 402.068 294.859C401.302 294.121 400.918 293.243 400.918 292.226C400.918 291.195 401.302 290.317 402.068 289.592C402.848 288.854 403.782 288.485 404.868 288.485C405.955 288.485 406.882 288.854 407.648 289.592C408.428 290.317 408.818 291.195 408.818 292.226C408.818 293.243 408.428 294.121 407.648 294.859C406.882 295.583 405.955 295.946 404.868 295.946ZM422.617 290.198V333H416.368V290.198H422.617ZM444.859 333.648C441.696 333.648 438.972 332.972 436.687 331.621C434.416 330.255 432.661 328.339 431.421 325.873C430.195 323.393 429.582 320.488 429.582 317.158C429.582 313.87 430.195 310.972 431.421 308.464C432.661 305.956 434.388 303.999 436.604 302.592C438.833 301.184 441.438 300.481 444.42 300.481C446.231 300.481 447.987 300.78 449.687 301.379C451.386 301.979 452.912 302.919 454.264 304.201C455.615 305.483 456.681 307.148 457.461 309.196C458.241 311.23 458.632 313.703 458.632 316.615V318.83H433.114V314.149H452.508C452.508 312.505 452.174 311.049 451.505 309.781C450.836 308.499 449.896 307.489 448.684 306.751C447.485 306.012 446.078 305.643 444.462 305.643C442.706 305.643 441.174 306.075 439.864 306.939C438.568 307.789 437.565 308.903 436.855 310.283C436.158 311.648 435.81 313.132 435.81 314.734V318.391C435.81 320.537 436.186 322.362 436.938 323.867C437.704 325.372 438.77 326.521 440.136 327.315C441.501 328.096 443.096 328.486 444.922 328.486C446.106 328.486 447.186 328.319 448.161 327.984C449.136 327.636 449.979 327.12 450.69 326.438C451.4 325.755 451.944 324.912 452.32 323.909L458.234 324.975C457.761 326.716 456.911 328.242 455.685 329.552C454.473 330.847 452.947 331.858 451.108 332.582C449.283 333.293 447.2 333.648 444.859 333.648ZM489.62 308.736L483.956 309.739C483.719 309.015 483.343 308.325 482.828 307.67C482.326 307.015 481.643 306.479 480.779 306.061C479.916 305.643 478.836 305.434 477.54 305.434C475.771 305.434 474.294 305.831 473.109 306.625C471.925 307.405 471.333 308.416 471.333 309.656C471.333 310.728 471.73 311.592 472.524 312.247C473.318 312.902 474.6 313.438 476.37 313.856L481.469 315.027C484.423 315.709 486.624 316.761 488.073 318.182C489.522 319.604 490.247 321.45 490.247 323.721C490.247 325.643 489.689 327.357 488.575 328.862C487.474 330.353 485.935 331.523 483.956 332.373C481.992 333.223 479.714 333.648 477.122 333.648C473.527 333.648 470.595 332.882 468.324 331.349C466.052 329.802 464.659 327.608 464.144 324.766L470.184 323.846C470.56 325.421 471.333 326.612 472.503 327.42C473.674 328.214 475.199 328.611 477.08 328.611C479.128 328.611 480.766 328.186 481.992 327.336C483.218 326.472 483.831 325.421 483.831 324.181C483.831 323.177 483.455 322.334 482.702 321.652C481.964 320.969 480.828 320.454 479.296 320.105L473.862 318.914C470.866 318.231 468.651 317.144 467.216 315.654C465.795 314.163 465.084 312.275 465.084 309.99C465.084 308.095 465.614 306.437 466.673 305.016C467.731 303.595 469.194 302.487 471.061 301.693C472.928 300.885 475.067 300.481 477.477 300.481C480.947 300.481 483.677 301.233 485.67 302.738C487.662 304.229 488.979 306.228 489.62 308.736ZM527.677 300.899V305.915H510.143V300.899H527.677ZM514.845 293.208H521.094V323.574C521.094 324.787 521.275 325.699 521.637 326.312C522 326.911 522.466 327.322 523.038 327.545C523.623 327.754 524.257 327.859 524.939 327.859C525.441 327.859 525.88 327.824 526.256 327.754C526.632 327.685 526.925 327.629 527.134 327.587L528.262 332.749C527.9 332.889 527.385 333.028 526.716 333.167C526.047 333.32 525.211 333.404 524.208 333.418C522.564 333.446 521.031 333.153 519.61 332.54C518.189 331.927 517.04 330.98 516.162 329.698C515.284 328.416 514.845 326.807 514.845 324.87V293.208ZM541.528 313.94V333H535.279V290.198H541.445V306.124H541.842C542.594 304.396 543.744 303.024 545.29 302.006C546.837 300.989 548.857 300.481 551.351 300.481C553.552 300.481 555.475 300.934 557.119 301.839C558.777 302.745 560.059 304.096 560.965 305.894C561.884 307.677 562.344 309.906 562.344 312.581V333H556.095V313.334C556.095 310.979 555.489 309.154 554.277 307.858C553.065 306.549 551.379 305.894 549.219 305.894C547.742 305.894 546.419 306.207 545.248 306.834C544.092 307.461 543.179 308.381 542.511 309.593C541.856 310.791 541.528 312.24 541.528 313.94ZM580.025 333.711C577.99 333.711 576.151 333.334 574.507 332.582C572.863 331.816 571.56 330.708 570.599 329.259C569.652 327.81 569.178 326.034 569.178 323.93C569.178 322.118 569.526 320.628 570.223 319.457C570.92 318.287 571.86 317.36 573.044 316.678C574.229 315.995 575.552 315.479 577.015 315.131C578.478 314.783 579.969 314.518 581.488 314.337C583.41 314.114 584.971 313.933 586.169 313.794C587.367 313.64 588.238 313.397 588.781 313.062C589.325 312.728 589.596 312.184 589.596 311.432V311.286C589.596 309.461 589.081 308.046 588.05 307.043C587.033 306.04 585.514 305.538 583.494 305.538C581.39 305.538 579.732 306.005 578.52 306.939C577.322 307.858 576.493 308.882 576.033 310.011L570.16 308.673C570.857 306.723 571.874 305.148 573.211 303.95C574.563 302.738 576.116 301.86 577.872 301.317C579.628 300.759 581.474 300.481 583.41 300.481C584.692 300.481 586.051 300.634 587.486 300.941C588.935 301.233 590.286 301.777 591.54 302.571C592.808 303.365 593.846 304.5 594.654 305.977C595.462 307.44 595.866 309.342 595.866 311.683V333H589.764V328.611H589.513C589.109 329.419 588.503 330.213 587.695 330.994C586.886 331.774 585.849 332.422 584.581 332.937C583.313 333.453 581.794 333.711 580.025 333.711ZM581.383 328.695C583.111 328.695 584.588 328.353 585.814 327.671C587.054 326.988 587.994 326.096 588.635 324.996C589.29 323.881 589.617 322.69 589.617 321.422V317.284C589.394 317.507 588.962 317.716 588.322 317.911C587.695 318.092 586.977 318.252 586.169 318.391C585.361 318.517 584.574 318.635 583.807 318.747C583.041 318.844 582.4 318.928 581.885 318.998C580.672 319.151 579.565 319.409 578.562 319.771C577.572 320.133 576.778 320.656 576.179 321.338C575.594 322.007 575.301 322.899 575.301 324.013C575.301 325.56 575.873 326.73 577.015 327.524C578.158 328.305 579.614 328.695 581.383 328.695ZM619.174 300.899V305.915H601.64V300.899H619.174ZM606.342 293.208H612.591V323.574C612.591 324.787 612.772 325.699 613.134 326.312C613.496 326.911 613.963 327.322 614.534 327.545C615.12 327.754 615.754 327.859 616.436 327.859C616.938 327.859 617.377 327.824 617.753 327.754C618.129 327.685 618.422 327.629 618.631 327.587L619.759 332.749C619.397 332.889 618.881 333.028 618.213 333.167C617.544 333.32 616.708 333.404 615.705 333.418C614.061 333.446 612.528 333.153 611.107 332.54C609.686 331.927 608.536 330.98 607.659 329.698C606.781 328.416 606.342 326.807 606.342 324.87V293.208ZM642.163 333V290.198H648.412V306.103H648.788C649.15 305.434 649.673 304.661 650.356 303.783C651.038 302.905 651.986 302.139 653.198 301.484C654.41 300.815 656.012 300.481 658.005 300.481C660.596 300.481 662.909 301.136 664.943 302.445C666.977 303.755 668.573 305.643 669.729 308.109C670.9 310.575 671.485 313.543 671.485 317.012C671.485 320.481 670.907 323.456 669.75 325.936C668.594 328.402 667.005 330.304 664.985 331.642C662.965 332.965 660.659 333.627 658.067 333.627C656.117 333.627 654.522 333.3 653.282 332.645C652.055 331.99 651.094 331.224 650.397 330.346C649.701 329.468 649.164 328.688 648.788 328.005H648.266V333H642.163ZM648.287 316.949C648.287 319.207 648.614 321.185 649.269 322.885C649.924 324.585 650.871 325.915 652.111 326.877C653.351 327.824 654.87 328.298 656.667 328.298C658.534 328.298 660.095 327.803 661.349 326.814C662.603 325.811 663.55 324.452 664.191 322.738C664.846 321.025 665.173 319.095 665.173 316.949C665.173 314.832 664.853 312.93 664.212 311.244C663.585 309.558 662.637 308.227 661.37 307.252C660.116 306.277 658.548 305.789 656.667 305.789C654.856 305.789 653.323 306.256 652.069 307.189C650.829 308.123 649.889 309.426 649.248 311.098C648.607 312.77 648.287 314.72 648.287 316.949ZM698.837 319.687V300.899H705.106V333H698.962V327.441H698.628C697.889 329.155 696.705 330.583 695.075 331.725C693.459 332.854 691.445 333.418 689.035 333.418C686.973 333.418 685.148 332.965 683.559 332.06C681.985 331.14 680.745 329.782 679.839 327.984C678.947 326.187 678.502 323.965 678.502 321.317V300.899H684.751V320.565C684.751 322.752 685.357 324.494 686.569 325.79C687.781 327.086 689.355 327.733 691.292 327.733C692.462 327.733 693.626 327.441 694.782 326.856C695.952 326.27 696.921 325.386 697.687 324.201C698.467 323.017 698.851 321.512 698.837 319.687ZM713.503 333V300.899H719.751V333H713.503ZM716.658 295.946C715.572 295.946 714.638 295.583 713.858 294.859C713.092 294.121 712.708 293.243 712.708 292.226C712.708 291.195 713.092 290.317 713.858 289.592C714.638 288.854 715.572 288.485 716.658 288.485C717.745 288.485 718.672 288.854 719.438 289.592C720.218 290.317 720.608 291.195 720.608 292.226C720.608 293.243 720.218 294.121 719.438 294.859C718.672 295.583 717.745 295.946 716.658 295.946ZM734.407 290.198V333H728.158V290.198H734.407ZM754.831 333.627C752.239 333.627 749.926 332.965 747.892 331.642C745.872 330.304 744.284 328.402 743.127 325.936C741.985 323.456 741.413 320.481 741.413 317.012C741.413 313.543 741.992 310.575 743.148 308.109C744.318 305.643 745.921 303.755 747.955 302.445C749.989 301.136 752.295 300.481 754.873 300.481C756.865 300.481 758.467 300.815 759.679 301.484C760.905 302.139 761.853 302.905 762.522 303.783C763.204 304.661 763.734 305.434 764.11 306.103H764.486V290.198H770.735V333H764.632V328.005H764.11C763.734 328.688 763.19 329.468 762.48 330.346C761.783 331.224 760.822 331.99 759.596 332.645C758.37 333.3 756.781 333.627 754.831 333.627ZM756.21 328.298C758.007 328.298 759.526 327.824 760.766 326.877C762.02 325.915 762.968 324.585 763.608 322.885C764.263 321.185 764.591 319.207 764.591 316.949C764.591 314.72 764.27 312.77 763.629 311.098C762.988 309.426 762.048 308.123 760.808 307.189C759.568 306.256 758.035 305.789 756.21 305.789C754.329 305.789 752.762 306.277 751.508 307.252C750.254 308.227 749.306 309.558 748.665 311.244C748.039 312.93 747.725 314.832 747.725 316.949C747.725 319.095 748.045 321.025 748.686 322.738C749.327 324.452 750.275 325.811 751.529 326.814C752.797 327.803 754.357 328.298 756.21 328.298ZM799.471 290.198L811.384 325.058H811.865L823.777 290.198H830.758L815.355 333H807.894L792.491 290.198H799.471ZM836.939 290.198H844.776L858.402 323.47H858.904L872.53 290.198H880.367V333H874.223V302.027H873.826L861.203 332.937H856.103L843.48 302.006H843.083V333H836.939V290.198ZM913.31 308.736L907.646 309.739C907.409 309.015 907.033 308.325 906.517 307.67C906.016 307.015 905.333 306.479 904.469 306.061C903.605 305.643 902.526 305.434 901.23 305.434C899.46 305.434 897.983 305.831 896.799 306.625C895.615 307.405 895.023 308.416 895.023 309.656C895.023 310.728 895.42 311.592 896.214 312.247C897.008 312.902 898.29 313.438 900.059 313.856L905.159 315.027C908.113 315.709 910.314 316.761 911.763 318.182C913.212 319.604 913.936 321.45 913.936 323.721C913.936 325.643 913.379 327.357 912.265 328.862C911.164 330.353 909.624 331.523 907.646 332.373C905.681 333.223 903.403 333.648 900.812 333.648C897.217 333.648 894.284 332.882 892.013 331.349C889.742 329.802 888.349 327.608 887.833 324.766L893.873 323.846C894.249 325.421 895.023 326.612 896.193 327.42C897.363 328.214 898.889 328.611 900.77 328.611C902.818 328.611 904.455 328.186 905.681 327.336C906.907 326.472 907.52 325.421 907.52 324.181C907.52 323.177 907.144 322.334 906.392 321.652C905.653 320.969 904.518 320.454 902.985 320.105L897.551 318.914C894.556 318.231 892.341 317.144 890.906 315.654C889.484 314.163 888.774 312.275 888.774 309.99C888.774 308.095 889.303 306.437 890.362 305.016C891.421 303.595 892.884 302.487 894.751 301.693C896.618 300.885 898.757 300.481 901.167 300.481C904.636 300.481 907.367 301.233 909.36 302.738C911.352 304.229 912.669 306.228 913.31 308.736Z" fill="white"/>
<defs>
<radialGradient id="paint0_radial_402_66" cx="0" cy="0" r="1" gradientUnits="userSpaceOnUse" gradientTransform="translate(1020.5 84) rotate(164.829) scale(1224.68 3107.27)">
<stop stop-color="#0381EF"/>
<stop offset="1" stop-color="#0381EF" stop-opacity="0"/>
</radialGradient>
</defs>
</svg>
