<?xml version="1.0" encoding="utf-8"?>
<!-- Generator: Adobe Illustrator 23.0.0, SVG Export Plug-In . SVG Version: 6.00 Build 0)  -->
<svg version="1.1" id="Layer_1" xmlns="http://www.w3.org/2000/svg" xmlns:xlink="http://www.w3.org/1999/xlink" x="0px" y="0px"
	 width="208.7px" height="151px" viewBox="0 0 208.7 151" style="enable-background:new 0 0 208.7 151;" xml:space="preserve">
<style type="text/css">
	.st0{fill:#76CDD7;}
	.st1{fill:#49C2C3;}
	.st2{fill:#DBF0F4;}
	.st3{fill:#FEFFFF;}
	.st4{fill:#F7982B;}
	.st5{fill:#CA782F;}
	.st6{fill:#FCFCFB;}
	.st7{fill:#F6F5F5;}
	.st8{fill:#EDD8B8;}
	.st9{fill:#C7AF8C;}
	.st10{fill:#C9B18F;}
	.st11{fill:#B3D6D5;}
	.st12{fill:#01514F;}
	.st13{fill:#663B16;}
	.st14{fill:#ECEBEA;}
</style>
<g>
	<g>
		<path class="st0" d="M87.2,82.3c-4.1-1.9-8.6-2-12.1-4.6c-0.7-0.5-1.4-0.3-2.2-0.3c-3.3-0.2-6.6-2.7-7.6-5.9
			c-0.1-0.3-0.1-0.8-0.3-0.9c-3.3-3.4-4.7-8-7.3-11.8c-1.6-2.4-1.8-4.5-1-7c1.4-4.6,3.8-8.7,6.2-12.8c1.5-2.6,1.2-6-0.8-8.3
			c-1.2-1.3-2-2.9-3.3-4.1c-0.8-0.9-0.8-3.3-3-2.1c-0.3,0.1-0.3-0.5-0.5-0.8c-0.6-2-0.7-3.9,0-5.9C58,9.8,66.8,2.6,76,2.4
			c5.4-0.1,10.2,3.1,12.3,8.1c1.6,3.8,2.5,4.3,6.4,3c5.6-1.9,11.2-3.8,16.9-5.2c1.4-0.3,2.6-1.4,4.1-1.8c5.6-1.7,10.8-0.3,16.1,1.2
			c0.3,0.1,0.5,0.2,0.6,0.3c5.3,5.1,12.8,5.6,18.9,8.9c1.2,0.6,1.4-0.4,1.9-1c2.7-3.6,5.4-7.1,9.6-9.2c1.1-0.6,2.3-0.9,3.6-0.9
			c2.9,0.1,5.8-0.3,8.6-0.8c1.4-0.2,2.7,0.1,3.1,1.5c0.6,2,2.1,3.1,3.6,4.3c4.4,3.4,6.1,10.7,4.7,15.2c-0.9,3-3.3,5.6-4.9,8.3
			c-0.6,1-1.6,1.8-2,2.8c-0.9,2.2-1.8,4.3-0.3,6.8c1.2,2,2.2,4.1,2.1,6.5c-0.1,1,0.8,1.6,1.3,2.4c1.7,2.8,1.6,4.1-0.6,6.5
			c-2.1,2.2-3.4,4.9-4.9,7.5c-1.1,1.9-2.9,3.7-3.6,5.6c-1.5,4.3-5.6,5.2-8.3,7.8c-3.4,3.3-7.6,2.2-11.1,3.7
			c-3.4,1.3-3.4,1.2-2.8,4.8c1.3,6.8,3.9,13.2,6.9,19.4c0.9,1.9,2.9,2.4,4.3,3.7c3.3,2.9,7.6,3.9,11.4,5.9c0.7,0.4,1.8,0.1,2.7,0.1
			c2.2,0.1,4.4-0.1,6.5,1.3c2.2,1.3,5.1-0.2,6.6-2.9c0.7-1.3,1.4-2.6,2.8-3.4c0.6-0.3,1.1-1.1,1.4-1.8c0.9-3.5,3.8-6.2,4.4-9.8
			c0.3-1.3,1.1-1.9,1.8-2.9c0.9-1.5,0.9-3.2,0.9-4.8c0-0.9-0.4-2.3,0.9-2.4c1.3-0.2,2.9,0.2,3.2,1.4c1.6,5.3,3.8,10.6,2,16.3
			c-0.7,2.2-1.8,4.3-4.3,5.3c-0.9,0.3-1.5,1.1-1.9,1.9c-3.4,7-8.8,11.7-15.9,14.5c-3.4,1.3-6.6,3.3-10.4,2.9
			c-2.1-0.1-4.1-0.6-6.2-0.1c-0.9,0.2-1.6-0.2-2.4-1.1c-2.3-2.9-7.4-2.6-9.3,0.5c-0.8,1.3-1.5,2.6-2.1,3.9c-0.9,2.3-2.6,3.9-5.4,3.6
			c-1.3-0.1-2,0.4-2.6,1.4c-2.8,4.4-7.3,6.1-11.8,7.9c-1.4,0.6-3.1,1.2-4.6-0.4c-0.6-0.6-1.8-0.4-2.7-0.2c-3.8,0.9-6.6-0.3-8.7-3.6
			c-0.6-0.9-1.1-1.4-2.2-1.6c-3.2-0.5-4.8-3.1-6.3-5.6c-3.2-5.3-4.7-11.2-5.1-17.3c-0.6-8.6-0.5-17.2-0.3-25.7
			c0.1-1.8,0.3-3.7,0.6-5.4c0.5-2.6,1.4-3.1,3.8-2.1c0.8,0.3,1.7,1.2,2.7,0.2c-4.6-5.2-10.9-2.8-16.5-4.3c2.4,2.3,2.3,4.8,1.1,7.2
			c-1.6,3-1.6,6.4-3.6,9.2c-4.1,5.8-8.1,12.2-13.9,16c-5.1,3.3-11,6.5-17.5,6.3c-3.8-0.2-8.1,0.2-10.8-3.7c-0.7-0.9-2-0.8-2.9-1.3
			c-1.2-0.6-2-1.3-2.2-2.8c0-1.3,0.8-1.8,1.7-2.4c1.6-1.1,3-2.4,4.5-3.8c1.5-1.3,3.2-1.8,4.3-0.2c1.3,2,3.3,1.8,5,1.6
			c3-0.3,5.5-1.7,8.3-3.4c5.1-3.2,7.8-8.2,11.4-12.5c1.4-1.7,1.7-3.9,2.3-6.1C83.9,85.5,84.6,83.4,87.2,82.3z M129,88.5
			c-1.5,0.1-3.6,0.3-5.8,0.4c-0.5,0.1-1.1,0-1.1,0.7c-0.2,4.8-1.9,9.4-1.3,14.3c0.3,2.1,0.1,4.2-1.6,5.8c-0.8,0.8-0.4,1.9-0.1,2.8
			c1.7,4.3,2.8,8.8,5.4,12.8c1.1,1.6,1.3,3.9,3.6,4.6c1.4,0.4,2.8,0.9,3.8,1.9c2.7,2.5,5.5,3.6,8.8,1.1c0.3-0.2,0.6-0.4,0.9-0.3
			c2.6,0.4,4.1-1.2,5.6-2.9c0.9-1.1,1.8-2.2,2.5-3.3c0.9-1.4-0.3-4.9-1.4-4.6c-2.2,0.7-2.6-0.9-3.3-2.1c-1.4-2.2-3.3-4.3-4.1-6.8
			c-0.9-2.7-3.6-3.8-4.6-6.4c-2.1-5.2-2.6-10.7-2.9-16.1c-0.1-1.6-0.6-2.1-2.1-1.8C130.9,88.5,130.3,88.5,129,88.5z"/>
		<path class="st0" d="M55.1,98.7c-2.7-0.3-7.3,2.7-8.1,5.2c-0.3,0.8-0.5,1.8-1,2.6c-0.5,0.9-1.3,1.6-2.5,1.2
			c-1.2-0.3-1.8-1.4-1.5-2.6c0.5-2.3,1.5-4.5,0.7-7.2c-0.5-1.9,2.3-4.3,4.8-4.4c1.8-0.1,3.5-0.3,5.3-1.2c2.1-1,5.2,0.6,6,2.7
			C59.6,97.3,57.9,98.9,55.1,98.7z"/>
		<path class="st1" d="M91.3,84.1c-5.1-2-10.3-3.7-15.3-6C68.9,74.9,63.3,70,59.7,63c-0.6-1.2-1.5-2.3-2.1-3.4
			c-0.5-0.8-0.6-1.6,0.2-2.3c0.7-0.6,1.5-0.5,2,0c1.2,1,2.4,2,3.5,3.2c5.4,5.4,10.9,10.6,18.2,13.3c5.3,2,10.8,2.6,16.3,3.8
			c12.2,2.6,24.6,4.2,37,2.9c11.4-1.2,22.8-2.8,32.9-8.9c4.6-2.8,8.3-6.6,11.6-10.8c0.6-0.8,1.2-1.7,2-2.2s1.4-1.9,2.4-1.3
			c1.2,0.7,0.6,2.2,0.4,3.2c-0.8,3.5-2.9,6.4-5.4,8.9c-5.8,6.3-12.7,11-20.7,13.9c-3.2,1.2-6.6,1.8-10.2,2.7
			c1.4,0.3,2.6,0.4,3.7,0.7c2.1,0.6,3.9,1.3,3.6,4.1c-0.1,1.1,0.6,2.3,0.9,3.3c0.4,1.3,1.3,2.6-0.3,3.8c-0.8,0.6-0.1,1.4,0.2,2.1
			c2.6,6.7,7.1,11.5,13.4,14.8c4.1,2.2,8.1,4.7,13.1,4.2c0.6-0.1,1.6,0.1,1.7,0.8c0.3,0.9-0.8,1.2-1.4,1.4
			c-4.8,1.7-9.7,1.8-14.4-0.3c-8.1-3.7-14.5-9.1-17.1-18c-0.6-2.1-1.8-3.9-2.6-5.9c-0.4-0.9-0.9-1.1-1.7-1.1c-2.6-0.1-4.8,0.9-6.3,3
			c-1.1,1.5-2.2,2.3-3.9,0.7c-0.4-0.3-0.9-0.4-1.4-0.6c-1.8-0.4-2.2-1.7-1.6-3.3c0.8-1.8,1.4-3.7,2.4-5.4c1.1-2.2,3.4-2.2,5.4-2.7
			c0.3-0.1,0.6-0.2,0.9-0.5c-7.1,0.7-14.1-0.3-21.8-0.2c4.3,2.7,2.7,6.2,2.1,9.1c-2.2,10.3-1.9,20.2,3.2,29.7c0.8,1.5,1,3.3,2.6,4.4
			c1.1,0.8,2,1.6,3.5,1.5c1.1-0.1,2.1,0.1,1.9,1.6c-0.2,1.3-0.8,2.2-2.4,1.8c-5.2-1.4-10-3.3-12.6-8.5c-3.1-6.2-3.8-12.9-4.3-19.6
			c-0.3-3-0.1-6,0-9c0.1-1.4-0.5-1.8-1.8-1.9c-3.3-0.2-5.8,1.1-7.6,3.9c-1.7-3.3-0.1-8.4,3.7-11.8c-3.6-0.8-7.2-0.9-10.8-2.1
			c0.7,3.3,0.7,6.7-0.8,9.3c-2.4,4.3-4.1,9-7.4,12.9c-6,7.1-13.1,12.2-22.3,14c-6.6,1.3-12.3-0.3-17.5-4.4c-0.6-0.4-1-1.1-1.5-1.7
			c-0.7-1.1-1.3-2.2-0.4-3.4c0.9-1.2,2.1-0.9,3.2-0.4c1.5,0.6,3,1.2,4.3,1.9c2.5,1.4,5.1,2.1,7.9,1.8c9.3-0.8,17.3-3.9,22-12.8
			c1.7-3.2,3.8-6.1,4.7-9.6c0.6-2.3-0.6-3.8-3-3.8c-0.6,0.1-1.2,0.1-1.8,0.3c-1.3,0.4-2.1-0.2-2.6-1.3c-0.6-1.1,0.1-1.9,0.8-2.7
			c2.1-2.1,4.8-1.7,7.3-1.6c0.6,0.4,1.1,0.5,1.9,0.1C92.3,84.3,91.8,84.2,91.3,84.1z M113.8,87.4c1.8,0.7,3.1,1.4,4.7,0.1
			C117,87.1,115.7,87.3,113.8,87.4z"/>
		<path class="st1" d="M207.3,101.6c-0.1,8.1-2.8,13.8-7.1,20.5c-1.6,2.6-4.3,4.4-6.9,6.1c-1.8,1.1-2.9,3.8-5.1,3.3
			c-1.1-0.3-2.3,0.1-3.4,0.7c-1.9,1-4,1.1-6.1,0.9c-0.7-0.1-1.4-0.4-1.4-1.1c-0.1-0.6,0.5-1,1-1.3c1.6-0.8,3.3-1.6,4.9-2.4
			c9.3-4.5,14.4-12.1,16.6-22.1c0.9-4.3,1.2-9.4,2.3-13.7c0.3-0.9,1.1-2.8,2.3-2.8s2.1,2.7,2.4,3.8
			C207.4,96.2,207.1,98.9,207.3,101.6z"/>
		<path class="st1" d="M158.1,124.4c0.3,6.2-2.1,11.2-6.3,15.3c-3.6,3.6-7.1,7.4-11.9,9.4c-2.2,0.9-4.4,1.9-6.9,0.8
			c-1.3-0.6-2.8-0.2-4.1,0.3c-1.3,0.4-2.5,0.3-3.7-0.3c-1-0.4-1.9-1-1.8-2.1c0.2-1.2,1.3-1.4,2.3-1.4c2.5-0.1,5-0.4,7.4-0.9
			c1.8-0.3,3.6-0.7,4.9-1.7c6.7-4.7,13.4-9.4,16.6-17.4c0.6-1.4,0.9-2.8,1-4.3c0.1-0.8,0.2-1.7,1.1-1.7s1.1,0.8,1.1,1.7
			C158.1,122.8,158.1,123.6,158.1,124.4z"/>
		<path class="st1" d="M101.1,55.7c3.5,0,6.9,3,7.1,6c0.1,3.6-4.6,7.5-8.9,7.5c-2.8-0.1-5.6-3.4-5.6-6.8
			C93.6,59.2,97.4,55.7,101.1,55.7z"/>
		<path class="st2" d="M79.3,29.2c-3.7,7.5-8.3,13.7-10.9,21.1c-0.6,1.7-1.8,3-4,2c-1.5-0.7-2-1.5-1.2-3.1c3.3-6.7,7.4-12.8,12.8-18
			C76.8,30.4,77.7,29.8,79.3,29.2z"/>
		<path class="st1" d="M45.8,103.5c0.7-3.2,2.1-5.9,5-7.6c2.6-1.6,5.3-1.2,7.7,0.5c0.9,0.6,0.8,0.9,0.4,2.1c-0.5,1.3-2.1,1.1-3,0.6
			c-3.8-1.9-4.3-0.7-6.2,5.1c-0.3,1.1-0.8,2.2-2,2.1C46.2,106,45.9,104.7,45.8,103.5z"/>
		<path class="st2" d="M113.8,87.4c1.8-0.1,3.1-0.3,4.7,0.1C116.9,88.8,115.6,88,113.8,87.4z"/>
		<path class="st3" d="M91.3,84.1c0.5,0.1,1.1,0.2,1.7,0.3c-0.8,0.4-1.3,0.3-1.9-0.1C91.2,84.3,91.3,84.2,91.3,84.1z"/>
		<path class="st4" d="M15.5,37.4c0.3,0.8,0.9,1,1.8,0.9c2-0.3,3,0.9,3.8,2.5c0.6,1.6,1.4,3.2,2,4.8c0.3,0.7,0.5,1,1.2,1
			c1.1,0,2,0.7,3,1.2c1.4,0.8,2.7,1.1,4.2,0.2c1.4-0.8,2.9-0.8,4.1,0.5c1.2,1.3,0.7,2.8-0.2,4.2c-0.5,0.7-0.8,1.5-1.5,2
			c-3.2,2.4-2.9,5.3-1.5,8.5c0.7,1.7,1.3,3.4,1.9,5.1c0.5,1.6,0.6,3.2-1,4.3c-1.5,1-2.7,0.3-4-0.7c-1.7-1.2-3.6-2.1-5.5-2.7
			c-1.5-0.5-2.7,0.8-3.5,1.7c-1.8,1.8-3.7,3.6-4.8,6.1c-0.7,1.7-2.3,2.2-4,1.7c-1.8-0.4-2.1-1.9-1.9-3.6C10,72.2,11,69,10,66.4
			c-0.9-2.4-4-4.3-6.1-6c-3-2.3-3.6-2.5-1.2-5.5c1.8-2.2,3.7-3.7,6.8-3.5c1.3,0.1,1.9-0.5,1.7-2c-0.4-3.1,0.4-6.1,0.7-9.2
			c0.1-1.3,1.1-2,1.4-3C13.9,37.4,14.7,37.4,15.5,37.4z"/>
		<path class="st5" d="M15.3,35.2c2.4,3,4.7,6,6.1,9.5c0.4,1,0.9,1.2,1.9,1c0.9-0.1,2,0.2,2,1.3c0,1.2-1,1.3-2,1.5
			c-2,0.5-3.4,0-4.1-2.1c-1-3-2.8-5.7-4.3-8.4c-0.6-1-0.9-1.9-0.1-3C15,35.2,15.2,35.2,15.3,35.2z"/>
		<path class="st5" d="M27.1,58.8c0-1,0.1-1.6,0.6-2c2.8-2.4,4.5-5.8,7.2-8.3c0.5-0.5,1-1.2,1.7-0.8c0.9,0.5,0.5,1.4,0.1,2
			c-1.3,2.4-2.5,5-4.5,6.9c-0.9,0.9-1,1.6-0.5,2.8c1.8,3.8,1.5,8.1,3.1,12c0.3,0.6,0.3,1.3-0.5,1.8c-0.6,0.3-1.2,0.2-1.5-0.3
			C30.3,68.2,29,63.2,27.1,58.8z"/>
		<path class="st5" d="M20.2,64.5c1.6-0.1,2.4,1,3.4,1.8c1.3,1.1,2.5,2.1,3.8,3.3c0.5,0.4,0.9,1.1,0.4,1.8c-0.5,0.7-1.1,0.5-1.8,0.1
			c-1.3-0.8-2.6-1.5-3.8-2.3c-1.1-0.8-1.7-0.8-2.4,0.7c-1.5,3.2-3.5,6.3-5.9,8.9c-0.7,0.8-1.6,2.2-2.8,1.3c-1.3-0.9-0.2-2.1,0.4-3
			c2.4-3.3,4.6-6.8,6.3-10.4C18.3,65.4,18.9,64.2,20.2,64.5z"/>
		<path class="st5" d="M1.9,58c0-0.6,0.2-1.7,1.1-1c2.8,2,6.3,1.7,9.3,2.8c0.9,0.3,2.6,0.4,1.6,2c-0.9,1.4-2.3,4.1-3.9,2.9
			c-2.1-1.5-4.6-2.2-6.5-3.7C2.5,60.2,2,59.3,1.9,58z"/>
		<path class="st6" d="M79.2,58.4c0.7-4,2.4-8,5.7-11c4.8-4.6,10.6-7.7,17.5-8.5c2.1-0.3,4-0.1,5.9,0.3c3.1,0.7,6.2,1.6,8.9,2.8
			c4.1,1.8,7.9,4.7,9.9,9c2.6,5.5,3.3,10.8,0.3,16.6c-1.4,2.8-2.8,5.2-5.3,6.8c-1.4,0.9-3.1,1.5-4.7,0.4c-0.8-0.5-1.3-0.4-2,0.1
			c-1.1,0.8-2.4,1.2-3.8,1.3c-9.6,0.7-18.7-0.8-27.1-5.9C80.3,68,79.5,63.6,79.2,58.4z M99.5,55.8c-2.9-0.1-5.1,2.8-5.6,6.5
			c-0.4,3.7,4.3,6.6,7.4,6.8c2.6,0.2,6.3-3.6,6.3-6.3C107.7,59.4,103.7,56,99.5,55.8z"/>
		<path class="st7" d="M178.9,24.9c0.3,4.3-1.9,7.1-5.6,8.9c-1.9,0.9-3.7,0-3.4-2c0.3-2.6-1.4-3.5-3.1-4.4c-2.4-1.2-4.6-2.7-4.8-5.6
			c-0.1-3,1.9-4.9,4.6-6.1c4.9-2.2,7.8-1.9,10.3,1.4C178.7,19.4,178.7,22.2,178.9,24.9z"/>
		<path class="st7" d="M64.3,21.1c0-2.8,0.8-3,1.6-5.1c2.1-5.5,6.1-8.8,10.8-5.2c1.6,1.2,2.9,2.7,4.2,4.3c1.6,2,0.9,4.1-1.6,4.8
			c-1,0.3-1.8,0.9-2.4,1.6c-1.5,1.9-2.9,3.8-4.5,5.6c-1.8,2.1-3.4,2.1-5.4,0.3S64.1,23.4,64.3,21.1z"/>
		<path class="st8" d="M54.8,101.2c0,1,0,2,0,3c-1.5,2.5-2.6,5.2-4.8,7.2s-5.7,2.7-6.7,6.1c-0.1,0.3-0.8,0.7-1.3,0.7
			c-1.4-0.1-2,0.9-2.8,1.8c-1.8,2.3-4.1,3.4-7.2,3.3c-2.7-0.1-4.7-2.1-7.2-2.5c-3.1-0.6-5.1-2.7-5.9-5.6c-1.5-5.6-0.4-11.3,0.4-16.8
			c0.2-1.7,0.4-3.1-0.5-4.5c-1.5-2.8-1.5-5.1,1.3-6.8c3.1-2,6.5-4.2,10.5-4.1c2.4,0.1,4.9,1.1,7.3-0.3c0.3-0.2,1.1,0.2,1.7,0.4
			c2.3,1.1,3.7,3.1,4.3,5.5c0.2,0.8,0.2,7.1,0,8c-0.7,2.8-0.3,5.7-0.4,8.4c0,0.8-0.4,2,0.8,2.3c1,0.3,2.1-0.1,2.7-0.8
			c1-1.4,2.4-2.8,3-4.6c0.4-1.2,0.7-2.5,2-2.8C53.5,98.9,54,100.3,54.8,101.2z"/>
		<g>
			<path class="st9" d="M23.7,122.7c-1.1-1.8-2.8-3.1-4.3-4.5c-0.8-0.7-1.5-1.2-1.4-2.3c0.1-0.8-0.9-1.8,0-2.3
				c1-0.5,1.8,0.5,2.5,1.3c2.7,3.2,6.1,4.4,10.2,3.9c3-0.3,4.1-1.2,3.8-4.3c-0.4-4.9-0.2-9.8-0.4-14.7c0-1.5,0.3-2.3,1.9-2.9
				c4.3-1.5,6.9-4.8,7.8-9.3c0.8,0.4,0.8,1.2,0.8,1.9c0,0.4,0,1.1,0.8,0.9c1.1-0.3,2,0.2,2,1.2c0.1,1.2-0.8,2.2-1.9,2.3
				c-2.8,0.4-2.5,1.7-2.1,4.1c0.6,4,0.1,8.1,0,12.2c0,1.3-0.5,2.7-0.2,3.9c0.7,3.9-2.9,7.1-6.4,7.8c-0.3,0.1-0.8,0.2-1,0
				c-2.5-1.7-4.5,0.2-6.7,0.7C27.4,122.7,25.5,122.7,23.7,122.7z"/>
			<path class="st9" d="M32.7,86.8c1.9,0,3-0.1,4.2,0.4c1.5,0.6,2.3,1.7,2.2,3.3c-0.1,1.6-1.2,2.7-2.8,2.8c-2.5,0.2-4.9,0.5-7.3,0.8
				c-0.5,0.1-1.1-0.1-1.7-0.3c-1.7-0.7-3.7-1.2-3.5-3.5c0.1-2.2,2-2.7,3.8-2.9C29.5,87,31.5,86.9,32.7,86.8z"/>
			<path class="st10" d="M46.8,113.2c-1.2,0.1-2-0.2-2.3-1.1c-0.3-1.1,0.8-1.1,1.3-1.4c1.9-1.2,4-2.2,5-4.3c0.5-1.2,0.8-2.1-0.5-3
				c-0.8-0.6-1.4-1.6-0.7-2.6c0.9-1.3,2.4-1.7,3.8-2.2c0.5-0.2,1.9,3.3,1.5,4.1c-1.3,2.5-1.8,5.3-3.7,7.6
				C49.9,111.7,48.5,112.8,46.8,113.2z"/>
		</g>
		<path class="st11" d="M80.3,60.9c4.4,8.8,12.2,11.2,20.7,12c3.2,0.3,6.5,0.4,9.7-0.2c7.7-1.3,15.6-10.2,13.2-18.7
			c-0.8-2.9-1.4-5.8-3.1-8.3c-0.4-0.7-0.8-1.4-0.1-2c0.7-0.5,1.4-0.2,2,0.3c0.5,0.5,0.9,1.2,1.4,1.8c0.6,0.7,0.3,3,2.1,1.9
			c0.2-0.1,1.2,1.8,1.5,2c0.5,0.5,1.2,1,1.3,1.6c0.4,4.3,2.1,6.5,0.6,11c-1.9,5.4-5.1,9.6-10.6,11.7c-3.9,1.6-7.9,2.3-12.1,2.9
			c-0.8,0.1-2-1.4-1.9,0.1c0.1,0.8-1.1,1.1-2.1,0.8c-1.9-0.4-4,0-5.9-0.6c-2.5-0.8-5-1.8-7.4-2.7c-4.3-1.7-7.3-5-8.6-9.6
			C80.6,63.9,79.6,62.7,80.3,60.9z"/>
		<path class="st12" d="M102.5,78.9c-5.6,0.3-10.7-1.3-15.6-3.9c-7.2-3.8-10.3-10.9-8.3-18.7c1.3-5.5,4.3-9.9,9-13
			c4.3-2.8,8.8-5,13.9-6c5.7-1.2,10.7,0.7,15.6,3c5.6,2.7,10.1,6.3,13.1,11.8c4.8,8.8,1,18.2-7.6,22.8
			C116.3,78.5,109.3,78.3,102.5,78.9z M103.1,76.3c4.8-0.6,10.8-0.7,16.5-2.6c7.8-2.5,12.3-12.4,8.3-20.4c-4.5-9-18.9-16-29.2-13.4
			c-9.6,2.4-17.1,9.7-18.4,18.5c-0.8,5.8,1.7,11,6.7,13.9C91.8,74.9,96.7,76.4,103.1,76.3z"/>
		<path class="st12" d="M180.9,23.6c0.4,3.6-1.8,6.6-4.6,9.4c-4.1,4-4.1,4.1-7.6-0.3c-2.5-3.1-5.1-6.1-8.1-8.8
			c-1.1-0.9-1.3-1.9-0.7-3.1c1.9-4.3,4.9-7.4,9.4-8.6c4.2-1.2,8.4,0.9,10.4,4.8C180.5,18.8,180.9,20.9,180.9,23.6z M177.7,24.8
			c-0.1-4.6-0.6-7.8-4-9.3s-6.1,0.4-8.4,2.7c-0.6,0.6-1.3,1.4-1.8,2c-0.8,0.9-0.7,1.7,0.2,2.6c2.8,2.8,5.4,5.6,7.8,8.8
			c0.9,1.2,1.6,1.1,2.6,0.1C176.3,29.4,177.8,26.8,177.7,24.8z"/>
		<path class="st12" d="M127.7,32.6c-0.1,3.7-2.3,6.4-5.3,6.2c-2.9-0.2-5.1-3.3-4.7-6.8c0.4-3.4,3.1-6.5,5.6-6.5
			C125.8,25.6,127.7,28.7,127.7,32.6z"/>
		<path class="st12" d="M99.6,29.8c0,1.9-0.3,3.1-0.8,4.2c-0.9,2.1-2.3,3.5-4.8,3.3c-2.3-0.3-3.6-2.1-3.9-4.3
			c-0.4-2.3,0.3-4.5,1.3-6.5c0.8-1.6,2.3-2.7,4.2-2.5c1.9,0.2,2.8,1.6,3.3,3.3C99.4,28.2,99.5,29.3,99.6,29.8z"/>
		<path class="st12" d="M30.1,95.9c-2.4,0.2-4.6-0.2-6.7-1.6c-2.5-1.7-2.7-4.3-0.4-6.2c3.7-3.2,11.4-3.8,15.5-1.3
			c1.3,0.8,2.7,1.8,2.7,3.7c0,1.9-1.4,2.9-3,3.7C35.7,95.4,33,96.1,30.1,95.9z M30,93.4c2.5,0.1,4.9-0.5,7.2-1.4
			c0.7-0.3,1.5-0.6,1.5-1.5c0-0.8-0.5-1.2-1.2-1.5c-3.1-2.1-9.7-1.7-12.5,0.8c-1.4,1.2-1.4,2.2,0.3,3C26.8,93.3,28.4,93.4,30,93.4z"
			/>
		<path class="st12" d="M103.3,42.4c1.4,0,2.8-0.2,4.3,0s2.7,1.2,2.9,2.7c0.3,1.5-0.8,2.3-2,2.8c-1.6,0.8-3.2,1.5-4.8,2.2
			c-1,0.5-1.8,1-1.9,2.3c-0.1,1.5,1.1,1.7,2.1,2.1c3.6,1.7,5.5,4.5,5.8,8.4c0.3,3.4-1.7,5.7-4.6,7.2c-3.4,1.8-8.4,0.9-11.2-1.8
			c-2.5-2.4-2.9-5.8-1.3-9.5c0.9-2.2,2.8-3.3,4.8-4.2c3.2-1.5,3.3-3.2,0.5-5.3c-1.5-1.2-3-2.3-2.3-4.5c0.7-2.1,2.6-2.4,4.4-2.5
			C101.1,42.4,102.2,42.4,103.3,42.4L103.3,42.4z M101,67.7c3.3,0,6-2.1,6.1-4.7c0.1-3.7-3.5-6.8-7.8-6.7c-2.6,0-4.9,3-4.9,6.2
			C94.3,65.7,97,67.7,101,67.7z"/>
		<path class="st13" d="M2.3,60.9c-3.2-2.8-3.2-4.8,0.3-7c1.6-1.1,3.4-2.1,5.2-3c1.9-0.9,2.9-2.3,2.9-4.3c0.1-2.5,0.1-5,0.1-7.5
			c0.1-1.9,0.6-3.7,2.6-4.5c1.9-0.7,3.2,0.5,4.5,1.6c2.2,2,4.2,4.1,5.5,6.8c1.1,2.3,2.8,3,5.3,2.7c2.3-0.3,4.6-0.3,6.9,0.2
			c2.8,0.7,3.7,2.3,2.5,4.8c-1.1,2.2-2.5,4.3-4,6.3c-1.2,1.5-1.4,2.8-0.8,4.6c0.7,2.2,1.3,4.5,1.8,6.8c0.3,0.9,0.3,1.9,0.4,2.9
			c0,1.6,0,3.3-1.7,4.2c-1.6,0.9-2.8-0.3-4.1-1.1c-1.7-1.1-3.5-1.9-5.2-3c-1.5-0.9-2.5-0.5-3.3,0.9c-1.6,2.8-4,5.1-6.4,7.2
			c-1.1,1-2.4,1.8-4.1,1.1c-1.6-0.8-1.9-2.3-1.9-3.8c-0.1-1,1.7-6.6,0.3-10.6C8.3,63.9,2.8,61.3,2.3,60.9z M11.7,75
			c0,0.7-0.2,1.7,0.6,2c0.9,0.4,1.4-0.4,1.9-0.9c2.3-2.1,4.1-4.3,5.7-6.9c1.3-2.2,3-2.5,5-1.3c1.6,0.9,3.2,1.8,4.8,2.7
			c0.8,0.4,1.5,1.4,2.4,0.7c0.9-0.7,0.5-1.8,0.3-2.8c-0.7-2.8-1.4-5.5-2.2-8.2c-0.6-1.8-0.4-3.3,1-4.7c1.3-1.3,2.3-3,3.3-4.7
			c1-1.5,0.6-2.4-1.3-2.3c-2,0-4,0.1-6,0.2c-2.7,0.2-4.8-0.5-6-3.3c-1.1-2.7-3-5-5.2-7c-1.6-1.3-2.4-1-2.6,1
			c-0.1,1.8-0.1,3.5-0.1,5.3c-0.1,4-1.3,7.3-5.4,9C7,54.4,6,55.1,5,55.8c-2,1.3-2,2.2-0.1,3.7c0.4,0.3,0.9,0.8,1.5,0.9
			c4.6,1.5,6.4,4.4,5.5,9C11.8,70.1,11.7,73.4,11.7,75z"/>
		<path class="st13" d="M24.7,54.3c0,1.1-0.4,2.2-1.6,2c-1.4-0.2-1.6-1.3-1.6-2.5c0-1,0.4-2.2,1.7-2C24.5,52,24.6,53.2,24.7,54.3z"
			/>
		<path class="st13" d="M18,56c-0.1,1.1-0.5,2.1-1.8,2c-1.4-0.2-1.6-1.3-1.6-2.4c0-1,0.3-2.2,1.5-2.1C17.7,53.5,17.8,54.9,18,56z"/>
		<path class="st12" d="M207.6,93.4c-0.6-2.2-0.9-4.9-4.1-4.9c-1.9,0-3.2,2.2-3.6,5.7c-0.8,7.5-4.4,13.5-9.5,18.8
			c-1.4,1.4-3.1,2.2-5.1,2.6c-8.6,1.8-19.9-3.1-24.1-10.7c-2.6-4.7-4.4-9.8-5.6-14.9c-0.9-4.1-0.8-4.1,3.3-5.2
			c1.9-0.5,3.6-1.1,5.4-1.8c3.5-1.4,7-2.8,9.6-5.6c4.8-4.9,7.9-10.8,11-16.9c0.8-1.5,1-3.2,0.9-4.8c-0.3-4.8-2.4-9-4.6-13.1
			c-0.9-1.7-0.8-2.8,0.6-4.2c3.1-2.7,5.4-5.8,7-9.7c2.6-6.3,1.8-12.1-2.4-17.5c-4.3-5.6-9.6-9.6-17.3-8.5C163,3.6,158.3,7,154.8,12
			c-1.2,1.8-2.4,2.2-4.1,0.9c-0.6-0.4-1.1-0.6-1.8-0.9C138,6.2,126.5,3,114,4.7c-7.4,0.9-14.6,2.6-21.4,5.7
			c-1.7,0.8-2.4,0.4-3.2-1.3C87,2,81.4-1,73.7,0.3c-8.9,1.5-16.3,8.3-18.3,17c-1.5,6.4,1.5,10.9,6.4,14.4c2,1.4,2,2.5,0.7,4.2
			c-1.8,2.3-3.2,4.9-4.5,7.5c-3.1,6.2-3.3,12-0.4,18.7c4.3,9.9,10.7,17.2,21.3,20.2c2.8,0.8,3.4,2.3,3.2,4.9
			c-0.7,10.1-11.1,19.8-21.4,20c-5.3,0.1-5.3,0.1-5-5c0.1-1.5,0.5-2.3,2-2.6c1.8-0.3,3.3-1,3.5-2.9s-0.7-3.3-2.2-4.4
			c-2.3-1.7-4.9-2.1-7.6-1.6c-0.6,0.1-1.2,0.3-1.8,0.6c-0.8-1.8-2.5-2.9-4.5-2.9c0-0.8-0.1-1.4-0.2-1.8c-0.3-1.2-1.2-1.8-2-2.4
			C36.4,79.9,27,80.3,20.8,85c-2.1,1.6-3.4,3.6-3.4,6.3c0,4,0,8,0,12c-0.4,4.2-0.1,8.3,0.1,12.5c0.1,1.9,0.9,3.5,2.4,4.8
			c7,5.8,18.8,4.7,24.3-2.4c1.5-2,2-1.2,3.3-0.2c6.5,5,13.6,7.8,21.9,5.6c16-4.3,25.3-15.3,29.6-30.8c0.3-1.2,0.6-2.4,0.9-3.7
			c0.4-2,1.8-1.8,3.3-1.6c1.6,0.3,1.8,1.3,1.4,2.6c-0.2,0.8-0.3,1.7-0.4,2.4c-2.4,14.2-2.2,28.2,2.9,41.8
			c5.8,15.4,25.3,21.8,38.8,12.4c5.1-3.5,10.7-9.5,12.9-15.5c0,0,0,0,1.1,0.5c5.4,2.6,11.2,2.2,16.9,2.3c10.4,0.1,18.9-3.9,25-12.7
			C207.7,112.8,210.3,103.6,207.6,93.4z M42.7,114.4c0,1.3-0.3,2.4-1.5,3.2c-6.2,3.8-12.5,5.1-18.7,0.9c-1.4-0.9-2.3-2.1-2.4-3.8
			c-0.5-8.1-0.5-16.2-0.4-24.2c0-1.7,1.1-2.8,2.4-3.6C28,83.1,34,82,40.5,85.4c2,1,2.8,2.4,2.7,4.6C43,94,42.6,110.3,42.7,114.4z
			 M59.8,15.3C63.3,8.2,68.7,4.1,76,3.9c5.7,0,9.7,3.4,10.4,8.1c0.4,2.3-1.6,2.4-2.8,3.3c-1.2,0.8-1.8-0.1-2.3-1.1
			c-0.7-1.1-1.4-2.1-2.3-2.9c-3.8-3.8-8.8-3.7-12.2,0.4c-4,4.8-6.1,11-0.9,16.4c0.7,0.6,0.9,1.4,0.2,2.1s-1.5,0.4-2.2,0
			C58.2,26.6,56.9,21.5,59.8,15.3z M77.7,19.4c-2.3,2.1-4.8,4.2-7.1,6.4c-2.3,2.1-3.2,2-4.6-0.9c-0.5-1-0.9-2-0.8-3.1
			c0.5-3.6,1.8-6.9,4.7-9.3c1.5-1.3,3.3-1.6,5.1-0.6c2.1,1.2,3.7,2.9,4.1,5.4C79.3,18.2,78.4,18.7,77.7,19.4z M54.1,92.9
			c1,0.1,2,0.3,2.8,0.9c1,0.7,2.2,1.3,1.8,2.7c-0.3,1.3-1.7,1.1-2.8,1.1c-5-0.1-6.7,1.1-8.3,5.7c-0.2,0.4-0.3,0.9-0.7,1.3
			c-0.4,0.5-0.8,1.3-1.5,0.9c-0.7-0.3-0.5-0.9-0.5-1.6c0-0.9,0.1-1.8,0.2-2.8C45.3,95.5,48.6,92.5,54.1,92.9z M47.3,92.2
			c-0.8,0.4-1.6,1-2.3,1.6c0-1.1,0-2.2,0-3.1C46.1,90.8,47,91.3,47.3,92.2z M47.2,111.2c-1.4,0.8-2.4,0.6-2.4-1.3
			c0-1,0.3-1.7,1.3-2.2c2.2-1.1,3.8-2.6,4.3-5.2c0.1-0.4,0.5-0.9,0.8-1.3c0.5-0.6,1-1.3,1.8-0.9s0.7,1.3,0.5,2
			C52.8,106.3,50.6,109.2,47.2,111.2z M96.9,88.1c-3.8,13.1-10.3,24.2-23.5,30c-3.2,1.3-6.5,2.1-10.5,2.3c-4.3-0.6-9-1.6-13-4.6
			c-1.5-1.1-1.5-1.7,0-3.2c2.4-2.3,4.7-2.7,7.8-1.9c9.1,2.3,22.8-6.8,25.5-15.4c0.8-2.7,1.8-5.3,2.2-8.2c0.3-2.1,1.2-2.9,3.3-2.4
			c2.2,0.6,4.4,0.9,6.6,1.3C96.6,86.1,97.3,86.7,96.9,88.1z M87.4,80.5c-6.7-1.3-13.1-3.3-18.7-7.3c-1.2-0.8-2.2-1.8-2.9-3
			c-2.2-3.7-4.2-7.3-6-11.2c-1.7-3.5-2-7.2-0.3-10.8c7-14.9,17.5-26.4,33-32.9c9.3-3.9,18.9-6.4,29.1-6.4c10-0.1,19,3.3,27.5,8.1
			c4.9,2.8,4.9,2.9,8-1.9c3-4.6,7.3-7.2,12.6-8.3c0.8-0.2,1.6-0.2,2.5-0.2c9.6,0.8,16.7,12.6,13.1,21.5c-1.6,4-4.3,7.4-7.5,10.2
			c-1.8,1.6-2.1,2.8-0.7,4.8c2.4,3.5,4.1,7.3,5.5,11.2c0.6,1.6,0.6,3-0.1,4.6c-3,6.9-6.9,13.1-12.8,17.9c-1.4,1.2-2.9,2.3-4.8,2.7
			c-10.9,2.8-21.8,5.8-33.1,6.4c-1.9,0.1-3.9,0-5.8,0C112.8,86.1,100.2,82.8,87.4,80.5z M132.2,92.2c0.4,6,2.8,11.4,4.9,16.9
			c2.3,5.8,6.1,10.2,10.5,14.4c2.1,2.1,2.1,2.2-0.4,4.1c-3.4,2.7-7.1,4.6-11.7,4c-4.3-0.6-7.1-3.3-8.8-6.9
			c-2.5-5.6-3.6-11.4-3.1-17.1c0.1-5.3,0.5-10.2,0.9-15.1c0.2-1.8,0.9-2.8,2.8-2.6c0.8,0.1,1.5,0.1,2.3,0
			C131.3,89.8,132.1,90.5,132.2,92.2z M152.7,136.5c-2.4,3.1-5.4,5.6-8.8,7.8c-6.4,4.1-13.1,4.6-20,1.4c-6.8-3.1-11.8-7.7-14.2-15.1
			c-4.2-13.3-4.6-26.7-2.1-40.2c0.3-1.4,1.1-1.9,2.5-1.8c2.8,0.3,5.6,0.7,8.4,0.9c2.2,0.2,2.6,1.1,2.3,3.1c-1.2,7.8-2,15.5-0.9,23.3
			c0.8,5.2,2.8,9.9,5.6,14.3c2.8,4.3,7.3,4.5,12.1,4.9c6.9-0.2,11.8-4.1,15.3-10c0.7-1.2,1.3-2.6,1.9-3.8c0.2-0.4,0.5-0.9,1.1-0.8
			c0.6,0.2,0.6,0.8,0.6,1.3C156.7,127,156.2,132.2,152.7,136.5z M204.9,108.8c-2.9,11.2-14.8,22.5-28.4,21.6c-0.9-0.1-1.6,0-2.5,0
			c-4,0.1-8-0.2-11.9-1.3c-1.9-0.5-2.2-0.9-2.2-0.9c0.4-2.1,0-7.2-0.7-9.3c-0.8-2.5-2.6-3-4.4-1.1c-0.6,0.7-1.2,1.6-1.6,2.6
			c-0.9,2-1.8,2-3.3,0.6c-7.1-6.6-11.5-14.6-13.1-24.1c-0.3-1.3-0.4-2.7-0.6-3.9c-0.6-3.4-0.4-3.4,2.9-3.9c3.1-0.5,6.3-1.1,9.4-1.7
			c1.7-0.3,2.4,0.2,2.9,1.8c1.5,4.8,3.1,9.7,4.8,14.4c5.2,14.3,19.9,17.5,30,16.2c4.4-0.6,7.5-3.6,9.9-7.1
			c3.9-5.7,6.8-11.7,6.7-18.8c0-0.3,0-0.7,0.1-1c0.1-0.6,0.1-1.3,0.8-1.4c0.9-0.2,1.1,0.7,1.2,1.3
			C206.2,98.1,206.3,103.4,204.9,108.8z"/>
	</g>
	<path class="st14" d="M95.4,29.9c0.1,1.5-0.5,2.5-2.1,2.6c-1.3,0-1.8-0.9-1.7-1.9c0.1-1.4,0.6-2.8,2.2-2.8
		C95.2,27.7,95.5,28.8,95.4,29.9z"/>
	<path class="st14" d="M123,31.5c0,1.3-0.6,2.2-1.9,2.2c-1.2,0-1.9-0.8-1.8-2.2c0.1-1.3,0.7-2.1,1.9-2.1
		C122.7,29.3,123,30.3,123,31.5z"/>
</g>
</svg>
