<svg width="121" height="30" viewBox="0 0 121 30" fill="none" xmlns="http://www.w3.org/2000/svg"><path fill-rule="evenodd" clip-rule="evenodd" d="M48.0323 24.4815V8.78436H53.0465C53.5097 8.78436 53.755 8.62085 53.755 8.18482V6.57695C53.755 6.05916 53.4825 5.9229 53.0465 5.9229H39.8844C39.4484 5.9229 39.2031 6.05916 39.2031 6.57695V8.18482C39.2031 8.62085 39.4484 8.78436 39.8844 8.78436H44.8713V24.4815C44.8713 24.9448 45.1165 25.2173 45.5525 25.2173H47.3511C47.7598 25.2173 48.0323 24.972 48.0323 24.4815ZM55.7675 24.5088V15.2976C55.7675 15.0251 55.822 14.8616 55.8765 14.7525C55.9583 14.6163 56.2035 14.4528 56.367 14.371C56.8303 14.1803 57.7023 13.9622 58.7106 13.9622C59.0376 13.9622 59.6371 14.0167 59.9914 14.0167C60.2911 14.0167 60.5364 13.9077 60.5909 13.608C60.6726 13.2264 60.7271 12.3544 60.7271 11.9728C60.7271 11.6186 60.5636 11.346 60.2911 11.2915C59.9641 11.2098 59.6371 11.1825 59.2283 11.1825C57.7296 11.1825 56.3125 11.7821 55.7675 12.4906L55.713 12.0273C55.6857 11.5913 55.495 11.4551 55.059 11.4551H53.4784C52.9879 11.4551 52.7427 11.7548 52.7427 12.2454V24.5088C52.7427 24.9448 52.9607 25.2173 53.3694 25.2173H55.1407C55.5767 25.2173 55.7675 24.9448 55.7675 24.5088ZM70.8361 24.209L70.8634 24.6178C70.9179 25.0265 71.0541 25.2173 71.5719 25.2173H73.1252C73.6157 25.2173 73.8337 24.9175 73.8337 24.427V12.1909C73.8337 11.7276 73.6157 11.4823 73.2069 11.4823H71.4629C71.0269 11.4823 70.8089 11.7821 70.8089 12.1909V21.184C70.8089 21.6473 70.7816 21.8108 70.6726 21.9471C70.5364 22.1378 70.2639 22.2468 70.1003 22.3013C69.6098 22.5194 68.6833 22.7374 67.3753 22.7374C66.0127 22.7374 65.4405 22.4376 65.2225 21.7836C65.1135 21.4565 65.059 20.8025 65.059 20.2847V12.1909C65.059 11.7548 64.8682 11.4823 64.4322 11.4823H62.6609C62.1704 11.4823 62.0341 11.7821 62.0341 12.1909V21.0478C62.0341 22.0561 62.0614 23.0644 62.3067 23.7457C62.7154 24.8358 63.7509 25.4626 66.3398 25.4626C68.0293 25.4626 69.9368 25.0811 70.8361 24.209ZM79.2828 19.3309H87.4035C87.676 19.3309 87.894 19.2764 88.0303 19.1674C88.221 19.0039 88.3028 18.6768 88.3028 18.2408C88.3028 14.044 87.7033 11.1553 82.6619 11.1553C78.329 11.1553 76.2308 13.1992 76.2308 18.4043C76.2308 23.3097 77.7568 25.5171 82.6074 25.5171C84.188 25.5171 86.3407 25.2173 87.6215 24.6178C87.9485 24.4543 88.0575 24.318 88.0575 23.991C88.0575 23.7185 87.8395 22.9281 87.7033 22.5194C87.6215 22.3013 87.4853 22.1378 87.24 22.1378C87.022 22.1378 86.7223 22.2468 86.5315 22.3013C85.6322 22.5466 84.3787 22.8191 82.8527 22.8191C80.5364 22.8191 79.3373 22.1923 79.2828 19.3309ZM79.3373 16.96C79.3918 14.6708 80.1276 13.5262 82.5802 13.5262C84.951 13.5262 85.387 14.5345 85.387 16.4149C85.387 16.6329 85.387 16.7964 85.3597 16.96H79.3373ZM93.2342 24.4815C93.7519 24.972 95.3597 25.2991 96.5042 25.2991C100.81 25.2991 102.935 24.0727 102.935 18.0228C102.935 13.0084 101.246 11.2098 98.003 11.2098C96.1772 11.2098 94.5422 11.5641 93.5884 12.2999V5.54138C93.5884 5.02359 93.4794 4.77832 92.9617 4.77832H91.2176C90.8089 4.77832 90.5636 5.05084 90.5636 5.54138V24.427C90.5636 25.0811 90.7816 25.2446 91.2994 25.2446H92.4166C92.9344 25.2446 93.1797 25.1901 93.2069 24.8085L93.2342 24.4815ZM93.5884 22.2196V15.4611C93.5884 15.2431 93.6157 15.0251 93.6702 14.9161C93.7247 14.7525 93.8609 14.6435 94.0244 14.5345C94.7057 14.0985 95.9865 13.9622 96.913 13.9622C99.3383 13.9622 99.8833 15.0796 99.8833 18.2136C99.8833 21.6746 99.2293 22.7101 96.1227 22.7101C95.278 22.7101 94.0244 22.4649 93.5884 22.2196ZM108.357 24.5088V12.1636C108.357 11.7548 108.248 11.4823 107.758 11.4823H105.959C105.496 11.4823 105.332 11.7821 105.332 12.1909V24.5088C105.332 24.9993 105.55 25.2173 105.959 25.2173H107.731C108.139 25.2173 108.357 24.9448 108.357 24.5088ZM108.63 7.20375C108.63 5.84115 107.949 5.37786 106.858 5.37786C105.796 5.37786 105.087 5.9229 105.087 7.231C105.087 8.5936 105.796 9.02963 106.858 9.02963C108.058 9.02963 108.63 8.48459 108.63 7.20375ZM114.678 24.5088V5.45962C114.678 5.02359 114.569 4.77832 114.079 4.77832H112.308C111.817 4.77832 111.654 5.05084 111.654 5.48687V24.5088C111.654 24.9993 111.872 25.2173 112.28 25.2173H114.052C114.46 25.2173 114.678 24.9448 114.678 24.5088ZM121 24.5088V5.45962C121 5.02359 120.891 4.77832 120.4 4.77832H118.629C118.138 4.77832 117.975 5.05084 117.975 5.48687V24.5088C117.975 24.9993 118.193 25.2173 118.602 25.2173H120.373C120.782 25.2173 121 24.9448 121 24.5088Z" fill="#173049"></path><path fill-rule="evenodd" clip-rule="evenodd" d="M32.7125 15.0019C32.7125 5.76545 25.2942 8.14427e-10 16.5943 8.14427e-10C15.8166 8.14427e-10 15.0561 0.0293431 14.2708 0.0965483C13.7478 0.141983 13.6829 0.870827 14.1877 1.00997C17.3329 1.87512 19.8808 3.71048 21.6623 6.0513C23.7159 8.74992 24.4125 11.7959 24.444 14.7861C24.4449 14.9063 24.5432 15.0028 24.6654 15.0028L26.2513 15.0019C26.6521 15.0019 26.8754 15.461 26.6244 15.7705L22.7693 20.5307C22.5794 20.7664 22.2168 20.7664 22.0259 20.5307L18.1698 15.7686C17.9198 15.4591 18.1421 15.0009 18.542 15.0009H20.4132C20.5373 15.0009 20.6384 14.9006 20.6375 14.7785C20.6012 11.8007 19.8521 9.61791 18.2633 7.76645C16.3157 5.49568 13.4883 4.13264 10.2868 4.13264C6.66255 4.13264 0 6.54162 0 15.0009C0 24.2383 7.4374 30 16.1411 30C16.9073 30 17.6574 29.9725 18.4303 29.9072C18.9599 29.8627 19.0258 29.1263 18.5143 28.9844C15.3844 28.1154 12.848 26.2838 11.0731 23.9515C9.01858 21.2529 8.32294 18.2079 8.29145 15.2177C8.28954 15.0965 8.19125 15 8.07006 15L6.4841 15.0009C6.08332 15.0009 5.86003 14.5419 6.11099 14.2323L9.96519 9.47214C10.156 9.2374 10.5177 9.2374 10.7086 9.47214L14.5647 14.2342C14.8147 14.5438 14.5923 15.0019 14.1925 15.0019H12.3222C12.1981 15.0019 12.097 15.1022 12.0979 15.2243C12.1332 18.2022 12.8833 20.3849 14.4721 22.2364C16.4197 24.5072 19.2462 25.8711 22.4486 25.8711C26.3057 25.8711 32.7125 23.3088 32.7125 15.0019Z" fill="#007EF2"></path></svg>
