<svg width="739" height="419" viewBox="0 0 739 419" fill="none" xmlns="http://www.w3.org/2000/svg">
<rect x="0.5" y="0.5" width="738" height="418" rx="9.5" fill="#292B34" stroke="#CFCFCF"/>
<path d="M0.5 10C0.5 4.7533 4.75329 0.5 10 0.5H729C734.247 0.5 738.5 4.7533 738.5 10V51.5H0.5V10Z" fill="white" stroke="#CFCFCF"/>
<circle cx="24.5" cy="25.5" r="5.5" fill="#3BE300"/>
<circle cx="70.5" cy="25.5" r="5.5" fill="#FF0000"/>
<circle cx="47.5" cy="25.5" r="5.5" fill="#FFD600"/>
<rect x="89.5" y="9.5" width="628" height="30" rx="15" fill="white" stroke="#D3D3D3"/>
<path d="M134.087 23.7344V28H132.997V18.5455H134.087V22.017H134.179C134.345 21.6508 134.594 21.36 134.927 21.1445C135.262 20.926 135.709 20.8168 136.266 20.8168C136.749 20.8168 137.172 20.9137 137.535 21.1076C137.898 21.2984 138.18 21.5923 138.38 21.9893C138.583 22.3833 138.685 22.8849 138.685 23.4943V28H137.595V23.5682C137.595 23.005 137.449 22.5695 137.157 22.2617C136.867 21.9509 136.466 21.7955 135.952 21.7955C135.595 21.7955 135.275 21.8709 134.991 22.0217C134.711 22.1725 134.49 22.3925 134.327 22.6818C134.167 22.9711 134.087 23.322 134.087 23.7344ZM143.762 20.9091V21.8324H140.087V20.9091H143.762ZM141.158 19.2102H142.247V25.9688C142.247 26.2765 142.292 26.5073 142.381 26.6612C142.474 26.812 142.591 26.9136 142.732 26.9659C142.877 27.0152 143.029 27.0398 143.189 27.0398C143.309 27.0398 143.408 27.0336 143.485 27.0213C143.562 27.0059 143.623 26.9936 143.669 26.9844L143.891 27.9631C143.817 27.9908 143.714 28.0185 143.582 28.0462C143.449 28.0769 143.282 28.0923 143.078 28.0923C142.771 28.0923 142.469 28.0262 142.174 27.8938C141.881 27.7615 141.638 27.5599 141.444 27.2891C141.253 27.0182 141.158 26.6766 141.158 26.2642V19.2102ZM148.484 20.9091V21.8324H144.81V20.9091H148.484ZM145.881 19.2102H146.97V25.9688C146.97 26.2765 147.015 26.5073 147.104 26.6612C147.196 26.812 147.313 26.9136 147.455 26.9659C147.599 27.0152 147.752 27.0398 147.912 27.0398C148.032 27.0398 148.13 27.0336 148.207 27.0213C148.284 27.0059 148.346 26.9936 148.392 26.9844L148.614 27.9631C148.54 27.9908 148.437 28.0185 148.304 28.0462C148.172 28.0769 148.004 28.0923 147.801 28.0923C147.493 28.0923 147.192 28.0262 146.896 27.8938C146.604 27.7615 146.361 27.5599 146.167 27.2891C145.976 27.0182 145.881 26.6766 145.881 26.2642V19.2102ZM150.123 30.6591V20.9091H151.176V22.0355H151.305C151.385 21.9124 151.496 21.7554 151.637 21.5646C151.782 21.3707 151.988 21.1984 152.256 21.0476C152.527 20.8937 152.893 20.8168 153.355 20.8168C153.952 20.8168 154.478 20.966 154.934 21.2646C155.389 21.5631 155.744 21.9863 156 22.5341C156.255 23.0819 156.383 23.7282 156.383 24.473C156.383 25.224 156.255 25.8749 156 26.4258C155.744 26.9736 155.391 27.3983 154.938 27.6999C154.486 27.9985 153.964 28.1477 153.373 28.1477C152.918 28.1477 152.553 28.0723 152.279 27.9215C152.005 27.7676 151.794 27.5937 151.647 27.3999C151.499 27.2029 151.385 27.0398 151.305 26.9105H151.213V30.6591H150.123ZM151.194 24.4545C151.194 24.9901 151.273 25.4625 151.43 25.8718C151.587 26.2781 151.816 26.5966 152.117 26.8274C152.419 27.0552 152.788 27.169 153.225 27.169C153.681 27.169 154.061 27.049 154.366 26.8089C154.673 26.5658 154.904 26.2396 155.058 25.8303C155.215 25.4179 155.294 24.9593 155.294 24.4545C155.294 23.956 155.217 23.5066 155.063 23.1065C154.912 22.7034 154.683 22.3848 154.375 22.1509C154.07 21.9139 153.687 21.7955 153.225 21.7955C152.782 21.7955 152.41 21.9078 152.108 22.1325C151.807 22.354 151.579 22.6649 151.425 23.065C151.271 23.462 151.194 23.9252 151.194 24.4545ZM163.068 22.4972L162.089 22.7741C162.027 22.611 161.937 22.4525 161.817 22.2987C161.7 22.1417 161.54 22.0124 161.337 21.9109C161.133 21.8093 160.873 21.7585 160.556 21.7585C160.122 21.7585 159.761 21.8585 159.472 22.0586C159.185 22.2556 159.042 22.5064 159.042 22.8111C159.042 23.0819 159.141 23.2958 159.338 23.4528C159.535 23.6097 159.842 23.7405 160.261 23.8452L161.313 24.1037C161.947 24.2576 162.42 24.493 162.731 24.81C163.042 25.1239 163.197 25.5286 163.197 26.0241C163.197 26.4304 163.08 26.7936 162.846 27.1136C162.615 27.4337 162.292 27.6861 161.877 27.8707C161.461 28.0554 160.978 28.1477 160.427 28.1477C159.704 28.1477 159.105 27.9908 158.631 27.6768C158.157 27.3629 157.857 26.9044 157.731 26.3011L158.765 26.0426C158.864 26.4242 159.05 26.7105 159.324 26.9013C159.601 27.0921 159.962 27.1875 160.409 27.1875C160.916 27.1875 161.32 27.0798 161.618 26.8643C161.92 26.6458 162.071 26.3842 162.071 26.0795C162.071 25.8333 161.984 25.6271 161.812 25.4609C161.64 25.2917 161.375 25.1655 161.018 25.0824L159.836 24.8054C159.187 24.6515 158.71 24.413 158.405 24.0898C158.103 23.7636 157.953 23.3558 157.953 22.8665C157.953 22.4664 158.065 22.1125 158.29 21.8047C158.517 21.4969 158.827 21.2553 159.218 21.0799C159.612 20.9045 160.058 20.8168 160.556 20.8168C161.258 20.8168 161.809 20.9706 162.209 21.2784C162.612 21.5862 162.898 21.9924 163.068 22.4972ZM165.631 28.0739C165.403 28.0739 165.208 27.9923 165.045 27.8292C164.882 27.6661 164.8 27.4706 164.8 27.2429C164.8 27.0152 164.882 26.8197 165.045 26.6566C165.208 26.4935 165.403 26.4119 165.631 26.4119C165.859 26.4119 166.054 26.4935 166.217 26.6566C166.38 26.8197 166.462 27.0152 166.462 27.2429C166.462 27.3937 166.424 27.5322 166.347 27.6584C166.273 27.7846 166.173 27.8861 166.047 27.9631C165.923 28.0369 165.785 28.0739 165.631 28.0739ZM165.631 22.8111C165.403 22.8111 165.208 22.7295 165.045 22.5664C164.882 22.4033 164.8 22.2079 164.8 21.9801C164.8 21.7524 164.882 21.5569 165.045 21.3938C165.208 21.2307 165.403 21.1491 165.631 21.1491C165.859 21.1491 166.054 21.2307 166.217 21.3938C166.38 21.5569 166.462 21.7524 166.462 21.9801C166.462 22.1309 166.424 22.2694 166.347 22.3956C166.273 22.5218 166.173 22.6233 166.047 22.7003C165.923 22.7741 165.785 22.8111 165.631 22.8111ZM171.759 18.1023L168.713 29.4219H167.715L170.762 18.1023H171.759ZM176.393 18.1023L173.346 29.4219H172.349L175.396 18.1023H176.393ZM177.685 28V20.9091H178.737V22.017H178.83C178.977 21.6385 179.216 21.3446 179.545 21.1353C179.874 20.9229 180.27 20.8168 180.732 20.8168C181.199 20.8168 181.589 20.9229 181.9 21.1353C182.213 21.3446 182.458 21.6385 182.634 22.017H182.707C182.889 21.6508 183.161 21.36 183.525 21.1445C183.888 20.926 184.323 20.8168 184.831 20.8168C185.465 20.8168 185.984 21.0153 186.387 21.4123C186.79 21.8062 186.991 22.4202 186.991 23.2543V28H185.902V23.2543C185.902 22.7311 185.759 22.3571 185.473 22.1325C185.186 21.9078 184.849 21.7955 184.462 21.7955C183.963 21.7955 183.577 21.9463 183.303 22.2479C183.029 22.5464 182.892 22.925 182.892 23.3835V28H181.784V23.1435C181.784 22.7403 181.653 22.4156 181.392 22.1694C181.13 21.9201 180.793 21.7955 180.381 21.7955C180.098 21.7955 179.833 21.8709 179.587 22.0217C179.344 22.1725 179.147 22.3817 178.996 22.6495C178.848 22.9142 178.774 23.2204 178.774 23.5682V28H177.685ZM189.431 30.6591C189.247 30.6591 189.082 30.6437 188.937 30.6129C188.793 30.5852 188.693 30.5575 188.637 30.5298L188.914 29.5696C189.179 29.6373 189.413 29.6619 189.616 29.6435C189.819 29.625 189.999 29.5342 190.156 29.3711C190.316 29.2111 190.462 28.951 190.595 28.5909L190.798 28.0369L188.176 20.9091H189.357L191.315 26.5597H191.389L193.346 20.9091H194.528L191.518 29.0341C191.383 29.4003 191.215 29.7035 191.015 29.9435C190.815 30.1867 190.582 30.3667 190.318 30.4837C190.056 30.6006 189.761 30.6591 189.431 30.6591ZM200.028 23.4389V24.4545H195.892V23.4389H200.028ZM205.103 20.9091V21.8324H201.281V20.9091H205.103ZM202.426 28V19.9304C202.426 19.5241 202.521 19.1856 202.712 18.9148C202.903 18.6439 203.15 18.4408 203.455 18.3054C203.76 18.17 204.081 18.1023 204.42 18.1023C204.688 18.1023 204.906 18.1238 205.075 18.1669C205.245 18.21 205.371 18.25 205.454 18.2869L205.14 19.2287C205.085 19.2102 205.008 19.1871 204.909 19.1594C204.814 19.1317 204.688 19.1179 204.531 19.1179C204.171 19.1179 203.91 19.2087 203.75 19.3903C203.593 19.5719 203.515 19.8381 203.515 20.1889V28H202.426ZM211.099 25.1009V20.9091H212.188V28H211.099V26.7997H211.025C210.859 27.1598 210.6 27.466 210.249 27.7184C209.898 27.9677 209.455 28.0923 208.92 28.0923C208.477 28.0923 208.083 27.9954 207.738 27.8015C207.393 27.6045 207.122 27.3091 206.925 26.9151C206.728 26.5181 206.63 26.018 206.63 25.4148V20.9091H207.719V25.3409C207.719 25.858 207.864 26.2704 208.153 26.5781C208.446 26.8859 208.818 27.0398 209.271 27.0398C209.541 27.0398 209.817 26.9705 210.097 26.832C210.38 26.6935 210.617 26.4812 210.808 26.195C211.002 25.9087 211.099 25.544 211.099 25.1009ZM215.273 18.5455V28H214.184V18.5455H215.273ZM218.358 18.5455V28H217.269V18.5455H218.358ZM225.376 22.4972L224.398 22.7741C224.336 22.611 224.245 22.4525 224.125 22.2987C224.008 22.1417 223.848 22.0124 223.645 21.9109C223.442 21.8093 223.182 21.7585 222.865 21.7585C222.431 21.7585 222.069 21.8585 221.78 22.0586C221.494 22.2556 221.351 22.5064 221.351 22.8111C221.351 23.0819 221.449 23.2958 221.646 23.4528C221.843 23.6097 222.151 23.7405 222.57 23.8452L223.622 24.1037C224.256 24.2576 224.728 24.493 225.039 24.81C225.35 25.1239 225.506 25.5286 225.506 26.0241C225.506 26.4304 225.389 26.7936 225.155 27.1136C224.924 27.4337 224.601 27.6861 224.185 27.8707C223.77 28.0554 223.287 28.1477 222.736 28.1477C222.012 28.1477 221.414 27.9908 220.94 27.6768C220.466 27.3629 220.166 26.9044 220.04 26.3011L221.074 26.0426C221.172 26.4242 221.358 26.7105 221.632 26.9013C221.909 27.0921 222.271 27.1875 222.717 27.1875C223.225 27.1875 223.628 27.0798 223.927 26.8643C224.228 26.6458 224.379 26.3842 224.379 26.0795C224.379 25.8333 224.293 25.6271 224.121 25.4609C223.948 25.2917 223.684 25.1655 223.327 25.0824L222.145 24.8054C221.495 24.6515 221.018 24.413 220.714 24.0898C220.412 23.7636 220.261 23.3558 220.261 22.8665C220.261 22.4664 220.374 22.1125 220.598 21.8047C220.826 21.4969 221.135 21.2553 221.526 21.0799C221.92 20.9045 222.366 20.8168 222.865 20.8168C223.567 20.8168 224.118 20.9706 224.518 21.2784C224.921 21.5862 225.207 21.9924 225.376 22.4972ZM230.229 20.9091V21.8324H226.555V20.9091H230.229ZM227.626 19.2102H228.715V25.9688C228.715 26.2765 228.76 26.5073 228.849 26.6612C228.941 26.812 229.058 26.9136 229.2 26.9659C229.345 27.0152 229.497 27.0398 229.657 27.0398C229.777 27.0398 229.875 27.0336 229.952 27.0213C230.029 27.0059 230.091 26.9936 230.137 26.9844L230.359 27.9631C230.285 27.9908 230.182 28.0185 230.049 28.0462C229.917 28.0769 229.749 28.0923 229.546 28.0923C229.238 28.0923 228.937 28.0262 228.641 27.8938C228.349 27.7615 228.106 27.5599 227.912 27.2891C227.721 27.0182 227.626 26.6766 227.626 26.2642V19.2102ZM233.955 28.1662C233.506 28.1662 233.098 28.0816 232.732 27.9123C232.365 27.7399 232.074 27.4922 231.859 27.169C231.644 26.8428 231.536 26.4489 231.536 25.9872C231.536 25.581 231.616 25.2517 231.776 24.9993C231.936 24.7438 232.15 24.5438 232.418 24.3991C232.685 24.2545 232.981 24.1468 233.304 24.076C233.63 24.0021 233.958 23.9437 234.287 23.9006C234.718 23.8452 235.067 23.8036 235.335 23.7759C235.606 23.7451 235.803 23.6944 235.926 23.6236C236.052 23.5528 236.115 23.4297 236.115 23.2543V23.2173C236.115 22.7618 235.991 22.4079 235.741 22.1555C235.495 21.9032 235.121 21.777 234.62 21.777C234.1 21.777 233.692 21.8909 233.396 22.1186C233.101 22.3464 232.893 22.5895 232.773 22.848L231.739 22.4787C231.924 22.0478 232.17 21.7124 232.478 21.4723C232.788 21.2292 233.127 21.0599 233.493 20.9645C233.863 20.866 234.226 20.8168 234.583 20.8168C234.81 20.8168 235.072 20.8445 235.368 20.8999C235.666 20.9522 235.954 21.0614 236.231 21.2276C236.511 21.3938 236.743 21.6446 236.928 21.9801C237.113 22.3156 237.205 22.7649 237.205 23.3281V28H236.115V27.0398H236.06C235.986 27.1937 235.863 27.3583 235.691 27.5337C235.518 27.7092 235.289 27.8584 235.003 27.9815C234.717 28.1046 234.367 28.1662 233.955 28.1662ZM234.121 27.1875C234.552 27.1875 234.915 27.1029 235.211 26.9336C235.509 26.7643 235.734 26.5458 235.885 26.2781C236.038 26.0103 236.115 25.7287 236.115 25.4332V24.4361C236.069 24.4915 235.968 24.5423 235.811 24.5884C235.657 24.6315 235.478 24.67 235.275 24.7038C235.075 24.7346 234.88 24.7623 234.689 24.7869C234.501 24.8085 234.349 24.8269 234.232 24.8423C233.949 24.8793 233.684 24.9393 233.438 25.0224C233.195 25.1024 232.998 25.224 232.847 25.3871C232.699 25.5471 232.625 25.7656 232.625 26.0426C232.625 26.4212 232.765 26.7074 233.045 26.9013C233.329 27.0921 233.687 27.1875 234.121 27.1875ZM242.074 28.1477C241.409 28.1477 240.837 27.9908 240.357 27.6768C239.877 27.3629 239.507 26.9305 239.249 26.3796C238.99 25.8287 238.861 25.1993 238.861 24.4915C238.861 23.7713 238.993 23.1358 239.258 22.5849C239.526 22.0309 239.898 21.5985 240.375 21.2876C240.855 20.9737 241.416 20.8168 242.056 20.8168C242.554 20.8168 243.004 20.9091 243.404 21.0938C243.804 21.2784 244.132 21.5369 244.387 21.8693C244.642 22.2017 244.801 22.5895 244.862 23.0327H243.773C243.69 22.7095 243.505 22.4233 243.219 22.174C242.936 21.9216 242.554 21.7955 242.074 21.7955C241.649 21.7955 241.277 21.9062 240.957 22.1278C240.64 22.3464 240.392 22.6557 240.214 23.0558C240.038 23.4528 239.951 23.919 239.951 24.4545C239.951 25.0024 240.037 25.4794 240.209 25.8857C240.384 26.2919 240.631 26.6074 240.948 26.832C241.268 27.0567 241.643 27.169 242.074 27.169C242.357 27.169 242.614 27.1198 242.845 27.0213C243.076 26.9228 243.271 26.7812 243.431 26.5966C243.591 26.4119 243.705 26.1903 243.773 25.9318H244.862C244.801 26.3504 244.649 26.7274 244.405 27.0629C244.165 27.3952 243.847 27.6599 243.45 27.8569C243.056 28.0508 242.597 28.1477 242.074 28.1477ZM247.471 25.4148L247.452 24.0668H247.674L250.776 20.9091H252.124L248.819 24.2514H248.726L247.471 25.4148ZM246.455 28V18.5455H247.545V28H246.455ZM250.961 28L248.191 24.4915L248.967 23.7344L252.346 28H250.961ZM256.992 23.4389V24.4545H252.856V23.4389H256.992ZM260.996 28.1662C260.547 28.1662 260.139 28.0816 259.773 27.9123C259.406 27.7399 259.115 27.4922 258.9 27.169C258.685 26.8428 258.577 26.4489 258.577 25.9872C258.577 25.581 258.657 25.2517 258.817 24.9993C258.977 24.7438 259.191 24.5438 259.459 24.3991C259.726 24.2545 260.022 24.1468 260.345 24.076C260.671 24.0021 260.999 23.9437 261.328 23.9006C261.759 23.8452 262.108 23.8036 262.376 23.7759C262.647 23.7451 262.844 23.6944 262.967 23.6236C263.093 23.5528 263.156 23.4297 263.156 23.2543V23.2173C263.156 22.7618 263.032 22.4079 262.782 22.1555C262.536 21.9032 262.162 21.777 261.661 21.777C261.141 21.777 260.733 21.8909 260.437 22.1186C260.142 22.3464 259.934 22.5895 259.814 22.848L258.78 22.4787C258.965 22.0478 259.211 21.7124 259.519 21.4723C259.829 21.2292 260.168 21.0599 260.534 20.9645C260.904 20.866 261.267 20.8168 261.624 20.8168C261.852 20.8168 262.113 20.8445 262.409 20.8999C262.707 20.9522 262.995 21.0614 263.272 21.2276C263.552 21.3938 263.784 21.6446 263.969 21.9801C264.154 22.3156 264.246 22.7649 264.246 23.3281V28H263.156V27.0398H263.101C263.027 27.1937 262.904 27.3583 262.732 27.5337C262.559 27.7092 262.33 27.8584 262.044 27.9815C261.758 28.1046 261.408 28.1662 260.996 28.1662ZM261.162 27.1875C261.593 27.1875 261.956 27.1029 262.252 26.9336C262.55 26.7643 262.775 26.5458 262.926 26.2781C263.079 26.0103 263.156 25.7287 263.156 25.4332V24.4361C263.11 24.4915 263.009 24.5423 262.852 24.5884C262.698 24.6315 262.519 24.67 262.316 24.7038C262.116 24.7346 261.921 24.7623 261.73 24.7869C261.542 24.8085 261.39 24.8269 261.273 24.8423C260.99 24.8793 260.725 24.9393 260.479 25.0224C260.236 25.1024 260.039 25.224 259.888 25.3871C259.74 25.5471 259.666 25.7656 259.666 26.0426C259.666 26.4212 259.806 26.7074 260.086 26.9013C260.37 27.0921 260.728 27.1875 261.162 27.1875ZM266.234 30.6591V20.9091H267.287V22.0355H267.416C267.496 21.9124 267.607 21.7554 267.749 21.5646C267.893 21.3707 268.1 21.1984 268.367 21.0476C268.638 20.8937 269.004 20.8168 269.466 20.8168C270.063 20.8168 270.589 20.966 271.045 21.2646C271.5 21.5631 271.856 21.9863 272.111 22.5341C272.367 23.0819 272.494 23.7282 272.494 24.473C272.494 25.224 272.367 25.8749 272.111 26.4258C271.856 26.9736 271.502 27.3983 271.049 27.6999C270.597 27.9985 270.075 28.1477 269.484 28.1477C269.029 28.1477 268.664 28.0723 268.39 27.9215C268.116 27.7676 267.906 27.5937 267.758 27.3999C267.61 27.2029 267.496 27.0398 267.416 26.9105H267.324V30.6591H266.234ZM267.305 24.4545C267.305 24.9901 267.384 25.4625 267.541 25.8718C267.698 26.2781 267.927 26.5966 268.229 26.8274C268.53 27.0552 268.9 27.169 269.337 27.169C269.792 27.169 270.172 27.049 270.477 26.8089C270.785 26.5658 271.016 26.2396 271.169 25.8303C271.326 25.4179 271.405 24.9593 271.405 24.4545C271.405 23.956 271.328 23.5066 271.174 23.1065C271.023 22.7034 270.794 22.3848 270.486 22.1509C270.182 21.9139 269.798 21.7955 269.337 21.7955C268.894 21.7955 268.521 21.9078 268.22 22.1325C267.918 22.354 267.69 22.6649 267.536 23.065C267.382 23.462 267.305 23.9252 267.305 24.4545ZM274.156 30.6591V20.9091H275.209V22.0355H275.338C275.418 21.9124 275.529 21.7554 275.671 21.5646C275.815 21.3707 276.021 21.1984 276.289 21.0476C276.56 20.8937 276.926 20.8168 277.388 20.8168C277.985 20.8168 278.511 20.966 278.967 21.2646C279.422 21.5631 279.778 21.9863 280.033 22.5341C280.289 23.0819 280.416 23.7282 280.416 24.473C280.416 25.224 280.289 25.8749 280.033 26.4258C279.778 26.9736 279.424 27.3983 278.971 27.6999C278.519 27.9985 277.997 28.1477 277.406 28.1477C276.951 28.1477 276.586 28.0723 276.312 27.9215C276.038 27.7676 275.828 27.5937 275.68 27.3999C275.532 27.2029 275.418 27.0398 275.338 26.9105H275.246V30.6591H274.156ZM275.227 24.4545C275.227 24.9901 275.306 25.4625 275.463 25.8718C275.62 26.2781 275.849 26.5966 276.151 26.8274C276.452 27.0552 276.822 27.169 277.259 27.169C277.714 27.169 278.094 27.049 278.399 26.8089C278.707 26.5658 278.937 26.2396 279.091 25.8303C279.248 25.4179 279.327 24.9593 279.327 24.4545C279.327 23.956 279.25 23.5066 279.096 23.1065C278.945 22.7034 278.716 22.3848 278.408 22.1509C278.103 21.9139 277.72 21.7955 277.259 21.7955C276.815 21.7955 276.443 21.9078 276.141 22.1325C275.84 22.354 275.612 22.6649 275.458 23.065C275.304 23.462 275.227 23.9252 275.227 24.4545ZM282.872 28.0739C282.645 28.0739 282.449 27.9923 282.286 27.8292C282.123 27.6661 282.041 27.4706 282.041 27.2429C282.041 27.0152 282.123 26.8197 282.286 26.6566C282.449 26.4935 282.645 26.4119 282.872 26.4119C283.1 26.4119 283.295 26.4935 283.459 26.6566C283.622 26.8197 283.703 27.0152 283.703 27.2429C283.703 27.3937 283.665 27.5322 283.588 27.6584C283.514 27.7846 283.414 27.8861 283.288 27.9631C283.165 28.0369 283.026 28.0739 282.872 28.0739ZM288.539 28.1477C287.899 28.1477 287.337 27.9954 286.854 27.6907C286.374 27.386 285.998 26.9598 285.728 26.4119C285.46 25.8641 285.326 25.224 285.326 24.4915C285.326 23.7528 285.46 23.1081 285.728 22.5572C285.998 22.0063 286.374 21.5785 286.854 21.2738C287.337 20.9691 287.899 20.8168 288.539 20.8168C289.179 20.8168 289.739 20.9691 290.219 21.2738C290.703 21.5785 291.078 22.0063 291.346 22.5572C291.617 23.1081 291.752 23.7528 291.752 24.4915C291.752 25.224 291.617 25.8641 291.346 26.4119C291.078 26.9598 290.703 27.386 290.219 27.6907C289.739 27.9954 289.179 28.1477 288.539 28.1477ZM288.539 27.169C289.025 27.169 289.425 27.0444 289.739 26.7951C290.053 26.5458 290.286 26.218 290.436 25.8118C290.587 25.4055 290.663 24.9654 290.663 24.4915C290.663 24.0175 290.587 23.5759 290.436 23.1665C290.286 22.7572 290.053 22.4264 289.739 22.174C289.425 21.9216 289.025 21.7955 288.539 21.7955C288.053 21.7955 287.653 21.9216 287.339 22.174C287.025 22.4264 286.792 22.7572 286.642 23.1665C286.491 23.5759 286.415 24.0175 286.415 24.4915C286.415 24.9654 286.491 25.4055 286.642 25.8118C286.792 26.218 287.025 26.5458 287.339 26.7951C287.653 27.0444 288.053 27.169 288.539 27.169ZM294.505 23.7344V28H293.415V20.9091H294.468V22.017H294.56C294.726 21.657 294.979 21.3677 295.317 21.1491C295.656 20.9276 296.093 20.8168 296.628 20.8168C297.108 20.8168 297.528 20.9152 297.888 21.1122C298.249 21.3061 298.529 21.6016 298.729 21.9986C298.929 22.3925 299.029 22.8911 299.029 23.4943V28H297.939V23.5682C297.939 23.0111 297.795 22.5772 297.505 22.2663C297.216 21.9524 296.819 21.7955 296.314 21.7955C295.967 21.7955 295.656 21.8709 295.382 22.0217C295.111 22.1725 294.897 22.3925 294.74 22.6818C294.583 22.9711 294.505 23.322 294.505 23.7344ZM302.626 28L300.466 20.9091H301.611L303.143 26.3381H303.217L304.731 20.9091H305.895L307.39 26.3196H307.464L308.997 20.9091H310.142L307.981 28H306.91L305.359 22.5526H305.248L303.697 28H302.626ZM314.314 28.1477C313.631 28.1477 313.041 27.9969 312.546 27.6953C312.053 27.3906 311.673 26.9659 311.406 26.4212C311.141 25.8733 311.009 25.2363 311.009 24.5099C311.009 23.7836 311.141 23.1435 311.406 22.5895C311.673 22.0324 312.046 21.5985 312.523 21.2876C313.003 20.9737 313.563 20.8168 314.203 20.8168C314.572 20.8168 314.937 20.8783 315.297 21.0014C315.657 21.1245 315.985 21.3246 316.281 21.6016C316.576 21.8755 316.811 22.2386 316.987 22.6911C317.162 23.1435 317.25 23.7005 317.25 24.3622V24.8239H311.784V23.8821H316.142C316.142 23.482 316.062 23.125 315.902 22.8111C315.745 22.4972 315.52 22.2494 315.228 22.0678C314.939 21.8862 314.597 21.7955 314.203 21.7955C313.769 21.7955 313.394 21.9032 313.077 22.1186C312.763 22.331 312.521 22.608 312.352 22.9496C312.183 23.2912 312.098 23.6574 312.098 24.0483V24.6761C312.098 25.2116 312.19 25.6656 312.375 26.038C312.563 26.4073 312.823 26.6889 313.155 26.8828C313.488 27.0736 313.874 27.169 314.314 27.169C314.6 27.169 314.859 27.129 315.089 27.049C315.323 26.9659 315.525 26.8428 315.694 26.6797C315.864 26.5135 315.994 26.3073 316.087 26.0611L317.139 26.3565C317.028 26.7135 316.842 27.0275 316.581 27.2983C316.319 27.5661 315.996 27.7753 315.611 27.9261C315.226 28.0739 314.794 28.1477 314.314 28.1477ZM319.055 28V18.5455H320.145V22.0355H320.237C320.317 21.9124 320.428 21.7554 320.569 21.5646C320.714 21.3707 320.92 21.1984 321.188 21.0476C321.459 20.8937 321.825 20.8168 322.287 20.8168C322.884 20.8168 323.41 20.966 323.865 21.2646C324.321 21.5631 324.676 21.9863 324.932 22.5341C325.187 23.0819 325.315 23.7282 325.315 24.473C325.315 25.224 325.187 25.8749 324.932 26.4258C324.676 26.9736 324.322 27.3983 323.87 27.6999C323.418 27.9985 322.896 28.1477 322.305 28.1477C321.85 28.1477 321.485 28.0723 321.211 27.9215C320.937 27.7676 320.726 27.5937 320.578 27.3999C320.431 27.2029 320.317 27.0398 320.237 26.9105H320.108V28H319.055ZM320.126 24.4545C320.126 24.9901 320.205 25.4625 320.362 25.8718C320.518 26.2781 320.748 26.5966 321.049 26.8274C321.351 27.0552 321.72 27.169 322.157 27.169C322.613 27.169 322.993 27.049 323.298 26.8089C323.605 26.5658 323.836 26.2396 323.99 25.8303C324.147 25.4179 324.225 24.9593 324.225 24.4545C324.225 23.956 324.149 23.5066 323.995 23.1065C323.844 22.7034 323.615 22.3848 323.307 22.1509C323.002 21.9139 322.619 21.7955 322.157 21.7955C321.714 21.7955 321.342 21.9078 321.04 22.1325C320.739 22.354 320.511 22.6649 320.357 23.065C320.203 23.462 320.126 23.9252 320.126 24.4545ZM329.068 28.1662C328.619 28.1662 328.211 28.0816 327.845 27.9123C327.479 27.7399 327.188 27.4922 326.972 27.169C326.757 26.8428 326.649 26.4489 326.649 25.9872C326.649 25.581 326.729 25.2517 326.889 24.9993C327.049 24.7438 327.263 24.5438 327.531 24.3991C327.799 24.2545 328.094 24.1468 328.417 24.076C328.743 24.0021 329.071 23.9437 329.401 23.9006C329.831 23.8452 330.181 23.8036 330.449 23.7759C330.719 23.7451 330.916 23.6944 331.039 23.6236C331.166 23.5528 331.229 23.4297 331.229 23.2543V23.2173C331.229 22.7618 331.104 22.4079 330.855 22.1555C330.609 21.9032 330.235 21.777 329.733 21.777C329.213 21.777 328.805 21.8909 328.51 22.1186C328.214 22.3464 328.006 22.5895 327.886 22.848L326.852 22.4787C327.037 22.0478 327.283 21.7124 327.591 21.4723C327.902 21.2292 328.24 21.0599 328.607 20.9645C328.976 20.866 329.339 20.8168 329.696 20.8168C329.924 20.8168 330.185 20.8445 330.481 20.8999C330.779 20.9522 331.067 21.0614 331.344 21.2276C331.624 21.3938 331.857 21.6446 332.041 21.9801C332.226 22.3156 332.318 22.7649 332.318 23.3281V28H331.229V27.0398H331.173C331.099 27.1937 330.976 27.3583 330.804 27.5337C330.632 27.7092 330.402 27.8584 330.116 27.9815C329.83 28.1046 329.481 28.1662 329.068 28.1662ZM329.234 27.1875C329.665 27.1875 330.028 27.1029 330.324 26.9336C330.622 26.7643 330.847 26.5458 330.998 26.2781C331.152 26.0103 331.229 25.7287 331.229 25.4332V24.4361C331.183 24.4915 331.081 24.5423 330.924 24.5884C330.77 24.6315 330.592 24.67 330.388 24.7038C330.188 24.7346 329.993 24.7623 329.802 24.7869C329.614 24.8085 329.462 24.8269 329.345 24.8423C329.062 24.8793 328.797 24.9393 328.551 25.0224C328.308 25.1024 328.111 25.224 327.96 25.3871C327.813 25.5471 327.739 25.7656 327.739 26.0426C327.739 26.4212 327.879 26.7074 328.159 26.9013C328.442 27.0921 328.8 27.1875 329.234 27.1875ZM334.307 30.6591V20.9091H335.359V22.0355H335.489C335.569 21.9124 335.679 21.7554 335.821 21.5646C335.966 21.3707 336.172 21.1984 336.44 21.0476C336.71 20.8937 337.077 20.8168 337.538 20.8168C338.135 20.8168 338.662 20.966 339.117 21.2646C339.573 21.5631 339.928 21.9863 340.184 22.5341C340.439 23.0819 340.567 23.7282 340.567 24.473C340.567 25.224 340.439 25.8749 340.184 26.4258C339.928 26.9736 339.574 27.3983 339.122 27.6999C338.669 27.9985 338.148 28.1477 337.557 28.1477C337.101 28.1477 336.737 28.0723 336.463 27.9215C336.189 27.7676 335.978 27.5937 335.83 27.3999C335.682 27.2029 335.569 27.0398 335.489 26.9105H335.396V30.6591H334.307ZM335.378 24.4545C335.378 24.9901 335.456 25.4625 335.613 25.8718C335.77 26.2781 335.999 26.5966 336.301 26.8274C336.603 27.0552 336.972 27.169 337.409 27.169C337.864 27.169 338.245 27.049 338.549 26.8089C338.857 26.5658 339.088 26.2396 339.242 25.8303C339.399 25.4179 339.477 24.9593 339.477 24.4545C339.477 23.956 339.4 23.5066 339.246 23.1065C339.096 22.7034 338.866 22.3848 338.559 22.1509C338.254 21.9139 337.871 21.7955 337.409 21.7955C336.966 21.7955 336.593 21.9078 336.292 22.1325C335.99 22.354 335.762 22.6649 335.609 23.065C335.455 23.462 335.378 23.9252 335.378 24.4545ZM342.229 30.6591V20.9091H343.281V22.0355H343.41C343.49 21.9124 343.601 21.7554 343.743 21.5646C343.887 21.3707 344.094 21.1984 344.361 21.0476C344.632 20.8937 344.998 20.8168 345.46 20.8168C346.057 20.8168 346.583 20.966 347.039 21.2646C347.494 21.5631 347.85 21.9863 348.105 22.5341C348.361 23.0819 348.489 23.7282 348.489 24.473C348.489 25.224 348.361 25.8749 348.105 26.4258C347.85 26.9736 347.496 27.3983 347.044 27.6999C346.591 27.9985 346.07 28.1477 345.479 28.1477C345.023 28.1477 344.658 28.0723 344.384 27.9215C344.111 27.7676 343.9 27.5937 343.752 27.3999C343.604 27.2029 343.49 27.0398 343.41 26.9105H343.318V30.6591H342.229ZM343.3 24.4545C343.3 24.9901 343.378 25.4625 343.535 25.8718C343.692 26.2781 343.921 26.5966 344.223 26.8274C344.525 27.0552 344.894 27.169 345.331 27.169C345.786 27.169 346.166 27.049 346.471 26.8089C346.779 26.5658 347.01 26.2396 347.164 25.8303C347.321 25.4179 347.399 24.9593 347.399 24.4545C347.399 23.956 347.322 23.5066 347.168 23.1065C347.017 22.7034 346.788 22.3848 346.48 22.1509C346.176 21.9139 345.793 21.7955 345.331 21.7955C344.888 21.7955 344.515 21.9078 344.214 22.1325C343.912 22.354 343.684 22.6649 343.53 23.065C343.377 23.462 343.3 23.9252 343.3 24.4545ZM350.945 28.0739C350.717 28.0739 350.521 27.9923 350.358 27.8292C350.195 27.6661 350.114 27.4706 350.114 27.2429C350.114 27.0152 350.195 26.8197 350.358 26.6566C350.521 26.4935 350.717 26.4119 350.945 26.4119C351.172 26.4119 351.368 26.4935 351.531 26.6566C351.694 26.8197 351.775 27.0152 351.775 27.2429C351.775 27.3937 351.737 27.5322 351.66 27.6584C351.586 27.7846 351.486 27.8861 351.36 27.9631C351.237 28.0369 351.098 28.0739 350.945 28.0739ZM353.731 28V20.9091H354.82V28H353.731ZM354.285 19.7273C354.072 19.7273 353.889 19.6549 353.735 19.5103C353.584 19.3656 353.509 19.1918 353.509 18.9886C353.509 18.7855 353.584 18.6116 353.735 18.467C353.889 18.3223 354.072 18.25 354.285 18.25C354.497 18.25 354.678 18.3223 354.829 18.467C354.983 18.6116 355.06 18.7855 355.06 18.9886C355.06 19.1918 354.983 19.3656 354.829 19.5103C354.678 19.6549 354.497 19.7273 354.285 19.7273ZM359.696 28.1477C359.056 28.1477 358.494 27.9954 358.011 27.6907C357.531 27.386 357.156 26.9598 356.885 26.4119C356.617 25.8641 356.483 25.224 356.483 24.4915C356.483 23.7528 356.617 23.1081 356.885 22.5572C357.156 22.0063 357.531 21.5785 358.011 21.2738C358.494 20.9691 359.056 20.8168 359.696 20.8168C360.336 20.8168 360.896 20.9691 361.377 21.2738C361.86 21.5785 362.235 22.0063 362.503 22.5572C362.774 23.1081 362.909 23.7528 362.909 24.4915C362.909 25.224 362.774 25.8641 362.503 26.4119C362.235 26.9598 361.86 27.386 361.377 27.6907C360.896 27.9954 360.336 28.1477 359.696 28.1477ZM359.696 27.169C360.182 27.169 360.583 27.0444 360.896 26.7951C361.21 26.5458 361.443 26.218 361.594 25.8118C361.744 25.4055 361.82 24.9654 361.82 24.4915C361.82 24.0175 361.744 23.5759 361.594 23.1665C361.443 22.7572 361.21 22.4264 360.896 22.174C360.583 21.9216 360.182 21.7955 359.696 21.7955C359.21 21.7955 358.81 21.9216 358.496 22.174C358.182 22.4264 357.95 22.7572 357.799 23.1665C357.648 23.5759 357.573 24.0175 357.573 24.4915C357.573 24.9654 357.648 25.4055 357.799 25.8118C357.95 26.218 358.182 26.5458 358.496 26.7951C358.81 27.0444 359.21 27.169 359.696 27.169Z" fill="black"/>
<path d="M118.667 19.8333H117.833V18.1667C117.833 15.8667 115.967 14 113.667 14C111.367 14 109.5 15.8667 109.5 18.1667V19.8333H108.667C107.75 19.8333 107 20.5833 107 21.5V29.8333C107 30.75 107.75 31.5 108.667 31.5H118.667C119.583 31.5 120.333 30.75 120.333 29.8333V21.5C120.333 20.5833 119.583 19.8333 118.667 19.8333ZM116.25 19.8333H111.083V18.1667C111.083 16.7417 112.242 15.5833 113.667 15.5833C115.092 15.5833 116.25 16.7417 116.25 18.1667V19.8333Z" fill="black"/>
<path d="M436.44 170.675C434.311 169.945 432.165 169.268 430.002 168.646C430.366 167.162 430.7 165.695 430.997 164.255C435.87 140.598 432.684 121.539 421.802 115.264C411.369 109.248 394.305 115.521 377.073 130.519C375.374 131.999 373.714 133.523 372.092 135.087C371.007 134.047 369.902 133.027 368.779 132.027C350.718 115.991 332.615 109.233 321.745 115.526C311.32 121.56 308.234 139.476 312.621 161.897C313.058 164.117 313.55 166.326 314.099 168.522C311.537 169.25 309.064 170.025 306.698 170.85C285.523 178.233 272 189.802 272 201.803C272 214.198 286.517 226.63 308.572 234.168C310.36 234.776 312.163 235.34 313.979 235.859C313.389 238.224 312.865 240.604 312.409 242.998C308.226 265.03 311.492 282.523 321.888 288.519C332.626 294.711 350.648 288.347 368.195 273.007C369.618 271.76 371.01 270.477 372.369 269.161C374.125 270.855 375.927 272.5 377.775 274.094C394.773 288.72 411.561 294.626 421.947 288.614C432.674 282.404 436.161 263.612 431.634 240.748C431.278 238.957 430.878 237.175 430.435 235.403C431.701 235.028 432.943 234.642 434.154 234.24C457.082 226.644 472 214.363 472 201.803C472 189.758 458.041 178.111 436.44 170.675ZM431.467 226.131C430.373 226.493 429.252 226.842 428.108 227.182C425.577 219.169 422.161 210.648 417.98 201.844C421.97 193.251 425.254 184.839 427.714 176.878C429.76 177.47 431.745 178.094 433.659 178.753C452.167 185.125 463.456 194.544 463.456 201.803C463.456 209.534 451.264 219.571 431.467 226.131ZM423.253 242.408C425.255 252.517 425.54 261.658 424.214 268.804C423.023 275.225 420.628 279.505 417.666 281.22C411.363 284.869 397.884 280.126 383.348 267.617C381.629 266.135 379.952 264.606 378.319 263.031C383.955 256.868 389.587 249.703 395.084 241.745C404.752 240.887 413.887 239.484 422.17 237.569C422.569 239.173 422.93 240.787 423.253 242.408ZM340.184 280.59C334.027 282.764 329.122 282.826 326.157 281.117C319.848 277.479 317.226 263.433 320.803 244.592C321.228 242.366 321.715 240.152 322.263 237.952C330.455 239.765 339.523 241.068 349.215 241.854C354.749 249.64 360.544 256.798 366.384 263.065C365.143 264.266 363.872 265.436 362.573 266.574C354.813 273.357 347.037 278.169 340.184 280.59ZM311.336 226.083C301.584 222.75 293.53 218.418 288.009 213.69C283.048 209.443 280.545 205.225 280.545 201.803C280.545 194.52 291.402 185.231 309.51 178.918C311.708 178.152 314.008 177.43 316.395 176.751C318.898 184.892 322.18 193.404 326.142 202.011C322.129 210.745 318.799 219.393 316.272 227.63C314.614 227.155 312.968 226.639 311.336 226.083ZM321.006 160.255C317.248 141.047 319.744 126.557 326.026 122.92C332.716 119.047 347.512 124.569 363.106 138.416C364.123 139.321 365.124 140.245 366.107 141.186C360.296 147.426 354.555 154.53 349.07 162.27C339.663 163.142 330.659 164.542 322.381 166.418C321.871 164.376 321.413 162.321 321.006 160.256V160.255ZM407.277 181.558C405.322 178.181 403.294 174.846 401.195 171.556C407.577 172.363 413.691 173.434 419.432 174.744C417.709 180.269 415.56 186.044 413.031 191.966C411.183 188.459 409.264 184.989 407.277 181.558ZM372.096 147.292C376.037 151.562 379.984 156.328 383.866 161.5C375.991 161.128 368.102 161.126 360.227 161.495C364.113 156.371 368.094 151.611 372.096 147.292ZM336.689 181.617C334.727 185.02 332.844 188.468 331.043 191.959C328.555 186.058 326.427 180.256 324.688 174.653C330.395 173.376 336.48 172.333 342.82 171.54C340.698 174.851 338.654 178.21 336.689 181.616V181.617ZM343.002 232.673C336.452 231.942 330.275 230.952 324.57 229.71C326.336 224.007 328.512 218.081 331.053 212.054C332.862 215.547 334.752 218.998 336.723 222.402C338.749 225.902 340.848 229.33 343.002 232.673ZM372.332 256.915C368.282 252.547 364.243 247.713 360.298 242.515C364.128 242.665 368.032 242.741 372 242.741C376.077 242.741 380.106 242.65 384.073 242.473C380.178 247.765 376.246 252.606 372.332 256.915ZM413.112 211.746C415.785 217.84 418.038 223.734 419.827 229.34C414.029 230.663 407.768 231.729 401.171 232.52C403.285 229.169 405.332 225.776 407.311 222.344C409.323 218.855 411.257 215.321 413.112 211.746ZM399.91 218.075C396.881 223.338 393.681 228.501 390.316 233.555C384.22 233.987 378.111 234.202 372 234.198C365.776 234.198 359.722 234.005 353.892 233.626C350.439 228.583 347.178 223.411 344.116 218.122H344.117C341.07 212.86 338.223 207.485 335.584 202.007C338.216 196.528 341.054 191.15 344.091 185.884L344.091 185.885C347.127 180.618 350.361 175.468 353.788 170.447C359.736 169.997 365.835 169.762 371.999 169.762H372C378.192 169.762 384.299 169.999 390.245 170.452C393.638 175.466 396.852 180.598 399.882 185.839C402.929 191.093 405.805 196.445 408.504 201.886C405.832 207.382 402.966 212.782 399.91 218.075ZM417.535 122.665C424.232 126.528 426.837 142.104 422.629 162.53C422.36 163.833 422.059 165.16 421.73 166.506C413.432 164.59 404.422 163.166 394.988 162.281C389.493 154.455 383.798 147.34 378.082 141.181C379.58 139.737 381.114 138.33 382.682 136.962C397.448 124.113 411.248 119.04 417.535 122.665ZM372 183.944C381.863 183.944 389.859 191.94 389.859 201.803C389.859 211.666 381.863 219.662 372 219.662C362.137 219.662 354.141 211.666 354.141 201.803C354.141 191.94 362.137 183.944 372 183.944Z" fill="#00D8FF"/>
<path d="M170.28 331V317.88H178.4V319.28H171.96V323.4H177.4V324.82H171.96V329.58H178.6V331H170.28ZM185.412 331.24C184.146 331.24 183.126 330.8 182.352 329.92C181.579 329.027 181.192 327.773 181.192 326.16C181.192 325.107 181.399 324.2 181.812 323.44C182.239 322.667 182.786 322.073 183.452 321.66C184.132 321.247 184.852 321.04 185.612 321.04C186.186 321.04 186.706 321.153 187.172 321.38C187.652 321.593 188.099 321.9 188.512 322.3H188.572L188.492 320.5V316.76H190.132V331H188.772L188.632 329.72H188.572C188.186 330.133 187.712 330.493 187.152 330.8C186.606 331.093 186.026 331.24 185.412 331.24ZM185.752 329.86C186.232 329.86 186.699 329.74 187.152 329.5C187.606 329.247 188.052 328.88 188.492 328.4V323.56C188.052 323.147 187.619 322.853 187.192 322.68C186.779 322.507 186.359 322.42 185.932 322.42C185.372 322.42 184.859 322.58 184.392 322.9C183.939 323.207 183.572 323.64 183.292 324.2C183.026 324.747 182.892 325.393 182.892 326.14C182.892 327.3 183.146 328.213 183.652 328.88C184.159 329.533 184.859 329.86 185.752 329.86ZM198.304 331V322.62H193.784V321.28H199.944V331H198.304ZM198.944 319.24C198.571 319.24 198.258 319.127 198.004 318.9C197.751 318.66 197.624 318.347 197.624 317.96C197.624 317.573 197.751 317.267 198.004 317.04C198.258 316.8 198.571 316.68 198.944 316.68C199.318 316.68 199.631 316.8 199.884 317.04C200.138 317.267 200.264 317.573 200.264 317.96C200.264 318.347 200.138 318.66 199.884 318.9C199.631 319.127 199.318 319.24 198.944 319.24ZM211.857 331.24C210.91 331.24 210.163 331.073 209.617 330.74C209.07 330.393 208.677 329.92 208.437 329.32C208.21 328.72 208.097 328.02 208.097 327.22V322.62H205.357V321.38L208.157 321.28L208.377 318.16H209.737V321.28H214.517V322.62H209.737V327.24C209.737 327.813 209.81 328.3 209.957 328.7C210.103 329.1 210.357 329.4 210.717 329.6C211.077 329.8 211.57 329.9 212.197 329.9C212.663 329.9 213.083 329.86 213.457 329.78C213.83 329.7 214.19 329.593 214.537 329.46L214.897 330.66C214.457 330.82 213.99 330.953 213.497 331.06C213.017 331.18 212.47 331.24 211.857 331.24ZM234.161 331.24C233.214 331.24 232.328 331.087 231.501 330.78C230.674 330.473 229.968 330.12 229.381 329.72L230.141 328.64C230.701 329.04 231.321 329.36 232.001 329.6C232.681 329.84 233.468 329.96 234.361 329.96C235.188 329.96 235.801 329.807 236.201 329.5C236.614 329.193 236.821 328.84 236.821 328.44C236.821 328.253 236.781 328.08 236.701 327.92C236.634 327.76 236.494 327.607 236.281 327.46C236.081 327.313 235.781 327.173 235.381 327.04C234.981 326.907 234.448 326.773 233.781 326.64C232.514 326.373 231.561 326.013 230.921 325.56C230.294 325.107 229.981 324.52 229.981 323.8C229.981 323.013 230.321 322.36 231.001 321.84C231.681 321.307 232.688 321.04 234.021 321.04C234.768 321.04 235.488 321.167 236.181 321.42C236.874 321.66 237.461 321.947 237.941 322.28L237.141 323.34C236.701 323.02 236.201 322.773 235.641 322.6C235.081 322.413 234.494 322.32 233.881 322.32C233.321 322.32 232.874 322.387 232.541 322.52C232.221 322.64 231.988 322.807 231.841 323.02C231.708 323.233 231.641 323.467 231.641 323.72C231.641 324.133 231.861 324.46 232.301 324.7C232.754 324.927 233.474 325.14 234.461 325.34C235.541 325.567 236.368 325.82 236.941 326.1C237.528 326.38 237.928 326.7 238.141 327.06C238.368 327.42 238.481 327.847 238.481 328.34C238.481 328.873 238.314 329.36 237.981 329.8C237.648 330.227 237.161 330.573 236.521 330.84C235.881 331.107 235.094 331.24 234.161 331.24ZM242.873 331V321.28H244.233L244.373 323.58H244.433C244.94 322.793 245.566 322.173 246.313 321.72C247.06 321.267 247.88 321.04 248.773 321.04C249.133 321.04 249.466 321.073 249.773 321.14C250.093 321.193 250.4 321.293 250.693 321.44L250.313 322.86C249.98 322.74 249.693 322.653 249.453 322.6C249.213 322.547 248.9 322.52 248.513 322.52C247.78 322.52 247.073 322.733 246.393 323.16C245.726 323.573 245.1 324.287 244.513 325.3V331H242.873ZM258.865 331.24C257.852 331.24 256.939 331.04 256.125 330.64C255.325 330.24 254.692 329.66 254.225 328.9C253.772 328.14 253.545 327.227 253.545 326.16C253.545 325.067 253.792 324.14 254.285 323.38C254.779 322.62 255.432 322.04 256.245 321.64C257.072 321.24 257.979 321.04 258.965 321.04C259.765 321.04 260.452 321.18 261.025 321.46C261.612 321.74 262.105 322.073 262.505 322.46L261.685 323.52C261.285 323.173 260.872 322.9 260.445 322.7C260.019 322.5 259.545 322.4 259.025 322.4C258.279 322.4 257.619 322.56 257.045 322.88C256.472 323.187 256.025 323.627 255.705 324.2C255.399 324.76 255.245 325.413 255.245 326.16C255.245 326.893 255.399 327.54 255.705 328.1C256.012 328.66 256.445 329.1 257.005 329.42C257.579 329.727 258.239 329.88 258.985 329.88C259.585 329.88 260.132 329.76 260.625 329.52C261.132 329.28 261.585 328.993 261.985 328.66L262.725 329.72C262.192 330.2 261.592 330.573 260.925 330.84C260.272 331.107 259.585 331.24 258.865 331.24ZM265.918 334.2L272.478 316.8H273.958L267.398 334.2H265.918ZM276.57 331L280.99 317.88H282.87L287.29 331H285.53L283.25 323.66C283.023 322.927 282.796 322.2 282.57 321.48C282.356 320.747 282.15 320 281.95 319.24H281.87C281.656 320 281.443 320.747 281.23 321.48C281.016 322.2 280.796 322.927 280.57 323.66L278.27 331H276.57ZM278.89 327V325.66H284.91V327H278.89ZM289.782 335.1V321.28H291.142L291.282 322.52H291.342C291.795 322.093 292.315 321.74 292.902 321.46C293.502 321.18 294.102 321.04 294.702 321.04C295.582 321.04 296.315 321.247 296.902 321.66C297.502 322.06 297.955 322.633 298.262 323.38C298.569 324.113 298.722 324.987 298.722 326C298.722 327.093 298.515 328.033 298.102 328.82C297.689 329.607 297.149 330.207 296.482 330.62C295.815 331.033 295.089 331.24 294.302 331.24C293.862 331.24 293.375 331.133 292.842 330.92C292.322 330.693 291.842 330.38 291.402 329.98H291.342L291.422 331.82V335.1H289.782ZM294.022 329.86C294.595 329.86 295.109 329.707 295.562 329.4C296.015 329.093 296.369 328.653 296.622 328.08C296.889 327.493 297.022 326.8 297.022 326C297.022 325.293 296.929 324.673 296.742 324.14C296.555 323.593 296.262 323.173 295.862 322.88C295.462 322.573 294.935 322.42 294.282 322.42C293.842 322.42 293.375 322.54 292.882 322.78C292.402 323.007 291.915 323.373 291.422 323.88V328.72C291.889 329.133 292.355 329.427 292.822 329.6C293.302 329.773 293.702 329.86 294.022 329.86ZM301.774 335.1V321.28H303.134L303.274 322.52H303.334C303.787 322.093 304.307 321.74 304.894 321.46C305.494 321.18 306.094 321.04 306.694 321.04C307.574 321.04 308.307 321.247 308.894 321.66C309.494 322.06 309.947 322.633 310.254 323.38C310.561 324.113 310.714 324.987 310.714 326C310.714 327.093 310.507 328.033 310.094 328.82C309.681 329.607 309.141 330.207 308.474 330.62C307.807 331.033 307.081 331.24 306.294 331.24C305.854 331.24 305.367 331.133 304.834 330.92C304.314 330.693 303.834 330.38 303.394 329.98H303.334L303.414 331.82V335.1H301.774ZM306.014 329.86C306.587 329.86 307.101 329.707 307.554 329.4C308.007 329.093 308.361 328.653 308.614 328.08C308.881 327.493 309.014 326.8 309.014 326C309.014 325.293 308.921 324.673 308.734 324.14C308.547 323.593 308.254 323.173 307.854 322.88C307.454 322.573 306.927 322.42 306.274 322.42C305.834 322.42 305.367 322.54 304.874 322.78C304.394 323.007 303.907 323.373 303.414 323.88V328.72C303.881 329.133 304.347 329.427 304.814 329.6C305.294 329.773 305.694 329.86 306.014 329.86ZM317.906 331.24C317.466 331.24 317.086 331.087 316.766 330.78C316.446 330.46 316.286 330.053 316.286 329.56C316.286 329.053 316.446 328.647 316.766 328.34C317.086 328.02 317.466 327.86 317.906 327.86C318.36 327.86 318.74 328.02 319.046 328.34C319.366 328.647 319.526 329.053 319.526 329.56C319.526 330.053 319.366 330.46 319.046 330.78C318.74 331.087 318.36 331.24 317.906 331.24ZM327.778 335.34C327.272 335.34 326.778 335.273 326.298 335.14C325.818 335.02 325.385 334.867 324.998 334.68L325.538 333.46C325.885 333.633 326.245 333.767 326.618 333.86C327.005 333.953 327.385 334 327.758 334C328.412 334 328.912 333.893 329.258 333.68C329.618 333.48 329.865 333.18 329.998 332.78C330.145 332.38 330.218 331.907 330.218 331.36V322.62H325.698V321.28H331.858V331.24C331.858 331.84 331.792 332.387 331.658 332.88C331.525 333.387 331.305 333.82 330.998 334.18C330.692 334.553 330.272 334.84 329.738 335.04C329.218 335.24 328.565 335.34 327.778 335.34ZM330.858 319.24C330.485 319.24 330.172 319.127 329.918 318.9C329.665 318.66 329.538 318.347 329.538 317.96C329.538 317.573 329.665 317.267 329.918 317.04C330.172 316.8 330.485 316.68 330.858 316.68C331.232 316.68 331.545 316.8 331.798 317.04C332.052 317.267 332.178 317.573 332.178 317.96C332.178 318.347 332.052 318.66 331.798 318.9C331.545 319.127 331.232 319.24 330.858 319.24ZM342.091 331.24C341.144 331.24 340.257 331.087 339.431 330.78C338.604 330.473 337.897 330.12 337.311 329.72L338.071 328.64C338.631 329.04 339.251 329.36 339.931 329.6C340.611 329.84 341.397 329.96 342.291 329.96C343.117 329.96 343.731 329.807 344.131 329.5C344.544 329.193 344.751 328.84 344.751 328.44C344.751 328.253 344.711 328.08 344.631 327.92C344.564 327.76 344.424 327.607 344.211 327.46C344.011 327.313 343.711 327.173 343.311 327.04C342.911 326.907 342.377 326.773 341.711 326.64C340.444 326.373 339.491 326.013 338.851 325.56C338.224 325.107 337.911 324.52 337.911 323.8C337.911 323.013 338.251 322.36 338.931 321.84C339.611 321.307 340.617 321.04 341.951 321.04C342.697 321.04 343.417 321.167 344.111 321.42C344.804 321.66 345.391 321.947 345.871 322.28L345.071 323.34C344.631 323.02 344.131 322.773 343.571 322.6C343.011 322.413 342.424 322.32 341.811 322.32C341.251 322.32 340.804 322.387 340.471 322.52C340.151 322.64 339.917 322.807 339.771 323.02C339.637 323.233 339.571 323.467 339.571 323.72C339.571 324.133 339.791 324.46 340.231 324.7C340.684 324.927 341.404 325.14 342.391 325.34C343.471 325.567 344.297 325.82 344.871 326.1C345.457 326.38 345.857 326.7 346.071 327.06C346.297 327.42 346.411 327.847 346.411 328.34C346.411 328.873 346.244 329.36 345.911 329.8C345.577 330.227 345.091 330.573 344.451 330.84C343.811 331.107 343.024 331.24 342.091 331.24ZM364.795 331.24C364.195 331.24 363.642 331.133 363.135 330.92C362.628 330.693 362.228 330.373 361.935 329.96C361.642 329.547 361.495 329.053 361.495 328.48C361.495 327.387 362.042 326.56 363.135 326C364.228 325.427 366.028 325.04 368.535 324.84C368.522 324.4 368.428 323.993 368.255 323.62C368.095 323.247 367.828 322.953 367.455 322.74C367.082 322.513 366.582 322.4 365.955 322.4C365.542 322.4 365.128 322.46 364.715 322.58C364.315 322.687 363.928 322.833 363.555 323.02C363.195 323.193 362.862 323.373 362.555 323.56L361.915 322.44C362.235 322.227 362.622 322.013 363.075 321.8C363.542 321.573 364.042 321.393 364.575 321.26C365.108 321.113 365.662 321.04 366.235 321.04C367.128 321.04 367.862 321.207 368.435 321.54C369.022 321.873 369.455 322.34 369.735 322.94C370.028 323.527 370.175 324.227 370.175 325.04V331H368.835L368.695 329.68H368.635C368.102 330.107 367.502 330.473 366.835 330.78C366.168 331.087 365.488 331.24 364.795 331.24ZM365.235 329.92C365.795 329.92 366.348 329.793 366.895 329.54C367.442 329.287 367.988 328.933 368.535 328.48V325.92C367.148 326.04 366.055 326.207 365.255 326.42C364.468 326.633 363.908 326.907 363.575 327.24C363.255 327.56 363.095 327.933 363.095 328.36C363.095 328.72 363.195 329.02 363.395 329.26C363.595 329.487 363.855 329.653 364.175 329.76C364.508 329.867 364.862 329.92 365.235 329.92ZM373.727 331V321.28H375.087L375.227 322.94H375.307C375.814 322.393 376.361 321.94 376.947 321.58C377.534 321.22 378.207 321.04 378.967 321.04C380.114 321.04 380.961 321.373 381.507 322.04C382.054 322.707 382.327 323.68 382.327 324.96V331H380.687V325.18C380.687 324.26 380.514 323.58 380.167 323.14C379.821 322.687 379.247 322.46 378.447 322.46C377.874 322.46 377.361 322.607 376.907 322.9C376.454 323.193 375.941 323.633 375.367 324.22V331H373.727ZM389.279 331.24C388.013 331.24 386.993 330.8 386.219 329.92C385.446 329.027 385.059 327.773 385.059 326.16C385.059 325.107 385.266 324.2 385.679 323.44C386.106 322.667 386.653 322.073 387.319 321.66C387.999 321.247 388.719 321.04 389.479 321.04C390.053 321.04 390.573 321.153 391.039 321.38C391.519 321.593 391.966 321.9 392.379 322.3H392.439L392.359 320.5V316.76H393.999V331H392.639L392.499 329.72H392.439C392.053 330.133 391.579 330.493 391.019 330.8C390.473 331.093 389.893 331.24 389.279 331.24ZM389.619 329.86C390.099 329.86 390.566 329.74 391.019 329.5C391.473 329.247 391.919 328.88 392.359 328.4V323.56C391.919 323.147 391.486 322.853 391.059 322.68C390.646 322.507 390.226 322.42 389.799 322.42C389.239 322.42 388.726 322.58 388.259 322.9C387.806 323.207 387.439 323.64 387.159 324.2C386.893 324.747 386.759 325.393 386.759 326.14C386.759 327.3 387.013 328.213 387.519 328.88C388.026 329.533 388.726 329.86 389.619 329.86ZM414.044 331.24C413.097 331.24 412.21 331.087 411.384 330.78C410.557 330.473 409.85 330.12 409.264 329.72L410.024 328.64C410.584 329.04 411.204 329.36 411.884 329.6C412.564 329.84 413.35 329.96 414.244 329.96C415.07 329.96 415.684 329.807 416.084 329.5C416.497 329.193 416.704 328.84 416.704 328.44C416.704 328.253 416.664 328.08 416.584 327.92C416.517 327.76 416.377 327.607 416.164 327.46C415.964 327.313 415.664 327.173 415.264 327.04C414.864 326.907 414.33 326.773 413.664 326.64C412.397 326.373 411.444 326.013 410.804 325.56C410.177 325.107 409.864 324.52 409.864 323.8C409.864 323.013 410.204 322.36 410.884 321.84C411.564 321.307 412.57 321.04 413.904 321.04C414.65 321.04 415.37 321.167 416.064 321.42C416.757 321.66 417.344 321.947 417.824 322.28L417.024 323.34C416.584 323.02 416.084 322.773 415.524 322.6C414.964 322.413 414.377 322.32 413.764 322.32C413.204 322.32 412.757 322.387 412.424 322.52C412.104 322.64 411.87 322.807 411.724 323.02C411.59 323.233 411.524 323.467 411.524 323.72C411.524 324.133 411.744 324.46 412.184 324.7C412.637 324.927 413.357 325.14 414.344 325.34C415.424 325.567 416.25 325.82 416.824 326.1C417.41 326.38 417.81 326.7 418.024 327.06C418.25 327.42 418.364 327.847 418.364 328.34C418.364 328.873 418.197 329.36 417.864 329.8C417.53 330.227 417.044 330.573 416.404 330.84C415.764 331.107 414.977 331.24 414.044 331.24ZM424.756 331.24C424.156 331.24 423.603 331.133 423.096 330.92C422.589 330.693 422.189 330.373 421.896 329.96C421.603 329.547 421.456 329.053 421.456 328.48C421.456 327.387 422.003 326.56 423.096 326C424.189 325.427 425.989 325.04 428.496 324.84C428.483 324.4 428.389 323.993 428.216 323.62C428.056 323.247 427.789 322.953 427.416 322.74C427.043 322.513 426.543 322.4 425.916 322.4C425.503 322.4 425.089 322.46 424.676 322.58C424.276 322.687 423.889 322.833 423.516 323.02C423.156 323.193 422.823 323.373 422.516 323.56L421.876 322.44C422.196 322.227 422.583 322.013 423.036 321.8C423.503 321.573 424.003 321.393 424.536 321.26C425.069 321.113 425.623 321.04 426.196 321.04C427.089 321.04 427.823 321.207 428.396 321.54C428.983 321.873 429.416 322.34 429.696 322.94C429.989 323.527 430.136 324.227 430.136 325.04V331H428.796L428.656 329.68H428.596C428.063 330.107 427.463 330.473 426.796 330.78C426.129 331.087 425.449 331.24 424.756 331.24ZM425.196 329.92C425.756 329.92 426.309 329.793 426.856 329.54C427.403 329.287 427.949 328.933 428.496 328.48V325.92C427.109 326.04 426.016 326.207 425.216 326.42C424.429 326.633 423.869 326.907 423.536 327.24C423.216 327.56 423.056 327.933 423.056 328.36C423.056 328.72 423.156 329.02 423.356 329.26C423.556 329.487 423.816 329.653 424.136 329.76C424.469 329.867 424.823 329.92 425.196 329.92ZM436.948 331L432.848 321.28H434.508L436.748 326.8C436.948 327.28 437.135 327.76 437.308 328.24C437.495 328.72 437.675 329.193 437.848 329.66H437.928C438.101 329.193 438.275 328.72 438.448 328.24C438.621 327.76 438.801 327.28 438.988 326.8L441.228 321.28H442.808L438.788 331H436.948ZM450.42 331.24C449.447 331.24 448.56 331.04 447.76 330.64C446.974 330.24 446.347 329.66 445.88 328.9C445.414 328.127 445.18 327.2 445.18 326.12C445.18 325.067 445.414 324.16 445.88 323.4C446.347 322.64 446.954 322.06 447.7 321.66C448.46 321.247 449.274 321.04 450.14 321.04C451.074 321.04 451.867 321.233 452.52 321.62C453.187 321.993 453.694 322.52 454.04 323.2C454.4 323.88 454.58 324.68 454.58 325.6C454.58 325.787 454.574 325.967 454.56 326.14C454.547 326.313 454.527 326.467 454.5 326.6H446.28V325.32H453.52L453.1 325.78C453.1 324.633 452.834 323.773 452.3 323.2C451.78 322.627 451.074 322.34 450.18 322.34C449.58 322.34 449.02 322.487 448.5 322.78C447.994 323.073 447.587 323.5 447.28 324.06C446.974 324.62 446.82 325.307 446.82 326.12C446.82 326.96 446.987 327.66 447.32 328.22C447.654 328.78 448.107 329.207 448.68 329.5C449.254 329.78 449.9 329.92 450.62 329.92C451.207 329.92 451.734 329.84 452.2 329.68C452.68 329.507 453.14 329.28 453.58 329L454.18 330.08C453.7 330.4 453.147 330.673 452.52 330.9C451.907 331.127 451.207 331.24 450.42 331.24ZM475.685 331.24C474.738 331.24 473.991 331.073 473.445 330.74C472.898 330.393 472.505 329.92 472.265 329.32C472.038 328.72 471.925 328.02 471.925 327.22V322.62H469.185V321.38L471.985 321.28L472.205 318.16H473.565V321.28H478.345V322.62H473.565V327.24C473.565 327.813 473.638 328.3 473.785 328.7C473.931 329.1 474.185 329.4 474.545 329.6C474.905 329.8 475.398 329.9 476.025 329.9C476.491 329.9 476.911 329.86 477.285 329.78C477.658 329.7 478.018 329.593 478.365 329.46L478.725 330.66C478.285 330.82 477.818 330.953 477.325 331.06C476.845 331.18 476.298 331.24 475.685 331.24ZM485.797 331.24C484.944 331.24 484.15 331.04 483.417 330.64C482.697 330.24 482.11 329.66 481.657 328.9C481.217 328.14 480.997 327.227 480.997 326.16C480.997 325.067 481.217 324.14 481.657 323.38C482.11 322.62 482.697 322.04 483.417 321.64C484.15 321.24 484.944 321.04 485.797 321.04C486.65 321.04 487.437 321.24 488.157 321.64C488.89 322.04 489.477 322.62 489.917 323.38C490.37 324.14 490.597 325.067 490.597 326.16C490.597 327.227 490.37 328.14 489.917 328.9C489.477 329.66 488.89 330.24 488.157 330.64C487.437 331.04 486.65 331.24 485.797 331.24ZM485.797 329.88C486.424 329.88 486.97 329.727 487.437 329.42C487.904 329.1 488.264 328.66 488.517 328.1C488.77 327.54 488.897 326.893 488.897 326.16C488.897 325.413 488.77 324.76 488.517 324.2C488.264 323.627 487.904 323.187 487.437 322.88C486.97 322.56 486.424 322.4 485.797 322.4C485.17 322.4 484.624 322.56 484.157 322.88C483.704 323.187 483.344 323.627 483.077 324.2C482.824 324.76 482.697 325.413 482.697 326.16C482.697 326.893 482.824 327.54 483.077 328.1C483.344 328.66 483.704 329.1 484.157 329.42C484.624 329.727 485.17 329.88 485.797 329.88ZM506.701 331V321.28H508.061L508.201 323.58H508.261C508.768 322.793 509.395 322.173 510.141 321.72C510.888 321.267 511.708 321.04 512.601 321.04C512.961 321.04 513.295 321.073 513.601 321.14C513.921 321.193 514.228 321.293 514.521 321.44L514.141 322.86C513.808 322.74 513.521 322.653 513.281 322.6C513.041 322.547 512.728 322.52 512.341 322.52C511.608 322.52 510.901 322.733 510.221 323.16C509.555 323.573 508.928 324.287 508.341 325.3V331H506.701ZM522.373 331.24C521.4 331.24 520.513 331.04 519.713 330.64C518.927 330.24 518.3 329.66 517.833 328.9C517.367 328.127 517.133 327.2 517.133 326.12C517.133 325.067 517.367 324.16 517.833 323.4C518.3 322.64 518.907 322.06 519.653 321.66C520.413 321.247 521.227 321.04 522.093 321.04C523.027 321.04 523.82 321.233 524.473 321.62C525.14 321.993 525.647 322.52 525.993 323.2C526.353 323.88 526.533 324.68 526.533 325.6C526.533 325.787 526.527 325.967 526.513 326.14C526.5 326.313 526.48 326.467 526.453 326.6H518.233V325.32H525.473L525.053 325.78C525.053 324.633 524.787 323.773 524.253 323.2C523.733 322.627 523.027 322.34 522.133 322.34C521.533 322.34 520.973 322.487 520.453 322.78C519.947 323.073 519.54 323.5 519.233 324.06C518.927 324.62 518.773 325.307 518.773 326.12C518.773 326.96 518.94 327.66 519.273 328.22C519.607 328.78 520.06 329.207 520.633 329.5C521.207 329.78 521.853 329.92 522.573 329.92C523.16 329.92 523.687 329.84 524.153 329.68C524.633 329.507 525.093 329.28 525.533 329L526.133 330.08C525.653 330.4 525.1 330.673 524.473 330.9C523.86 331.127 523.16 331.24 522.373 331.24ZM535.886 331.24C534.859 331.24 534.072 330.947 533.526 330.36C532.979 329.76 532.706 328.887 532.706 327.74V318.1H529.386V316.76H534.346V327.86C534.346 328.567 534.519 329.08 534.866 329.4C535.212 329.72 535.672 329.88 536.246 329.88C536.526 329.88 536.812 329.847 537.106 329.78C537.399 329.7 537.726 329.58 538.086 329.42L538.506 330.66C538.066 330.82 537.652 330.953 537.266 331.06C536.879 331.18 536.419 331.24 535.886 331.24ZM545.758 331.24C544.904 331.24 544.111 331.04 543.378 330.64C542.658 330.24 542.071 329.66 541.618 328.9C541.178 328.14 540.958 327.227 540.958 326.16C540.958 325.067 541.178 324.14 541.618 323.38C542.071 322.62 542.658 322.04 543.378 321.64C544.111 321.24 544.904 321.04 545.758 321.04C546.611 321.04 547.398 321.24 548.118 321.64C548.851 322.04 549.438 322.62 549.878 323.38C550.331 324.14 550.558 325.067 550.558 326.16C550.558 327.227 550.331 328.14 549.878 328.9C549.438 329.66 548.851 330.24 548.118 330.64C547.398 331.04 546.611 331.24 545.758 331.24ZM545.758 329.88C546.384 329.88 546.931 329.727 547.398 329.42C547.864 329.1 548.224 328.66 548.478 328.1C548.731 327.54 548.858 326.893 548.858 326.16C548.858 325.413 548.731 324.76 548.478 324.2C548.224 323.627 547.864 323.187 547.398 322.88C546.931 322.56 546.384 322.4 545.758 322.4C545.131 322.4 544.584 322.56 544.118 322.88C543.664 323.187 543.304 323.627 543.038 324.2C542.784 324.76 542.658 325.413 542.658 326.16C542.658 326.893 542.784 327.54 543.038 328.1C543.304 328.66 543.664 329.1 544.118 329.42C544.584 329.727 545.131 329.88 545.758 329.88ZM556.67 331.24C556.07 331.24 555.517 331.133 555.01 330.92C554.503 330.693 554.103 330.373 553.81 329.96C553.517 329.547 553.37 329.053 553.37 328.48C553.37 327.387 553.917 326.56 555.01 326C556.103 325.427 557.903 325.04 560.41 324.84C560.397 324.4 560.303 323.993 560.13 323.62C559.97 323.247 559.703 322.953 559.33 322.74C558.957 322.513 558.457 322.4 557.83 322.4C557.417 322.4 557.003 322.46 556.59 322.58C556.19 322.687 555.803 322.833 555.43 323.02C555.07 323.193 554.737 323.373 554.43 323.56L553.79 322.44C554.11 322.227 554.497 322.013 554.95 321.8C555.417 321.573 555.917 321.393 556.45 321.26C556.983 321.113 557.537 321.04 558.11 321.04C559.003 321.04 559.737 321.207 560.31 321.54C560.897 321.873 561.33 322.34 561.61 322.94C561.903 323.527 562.05 324.227 562.05 325.04V331H560.71L560.57 329.68H560.51C559.977 330.107 559.377 330.473 558.71 330.78C558.043 331.087 557.363 331.24 556.67 331.24ZM557.11 329.92C557.67 329.92 558.223 329.793 558.77 329.54C559.317 329.287 559.863 328.933 560.41 328.48V325.92C559.023 326.04 557.93 326.207 557.13 326.42C556.343 326.633 555.783 326.907 555.45 327.24C555.13 327.56 554.97 327.933 554.97 328.36C554.97 328.72 555.07 329.02 555.27 329.26C555.47 329.487 555.73 329.653 556.05 329.76C556.383 329.867 556.737 329.92 557.11 329.92ZM569.162 331.24C567.896 331.24 566.876 330.8 566.102 329.92C565.329 329.027 564.942 327.773 564.942 326.16C564.942 325.107 565.149 324.2 565.562 323.44C565.989 322.667 566.536 322.073 567.202 321.66C567.882 321.247 568.602 321.04 569.362 321.04C569.936 321.04 570.456 321.153 570.922 321.38C571.402 321.593 571.849 321.9 572.262 322.3H572.322L572.242 320.5V316.76H573.882V331H572.522L572.382 329.72H572.322C571.936 330.133 571.462 330.493 570.902 330.8C570.356 331.093 569.776 331.24 569.162 331.24ZM569.502 329.86C569.982 329.86 570.449 329.74 570.902 329.5C571.356 329.247 571.802 328.88 572.242 328.4V323.56C571.802 323.147 571.369 322.853 570.942 322.68C570.529 322.507 570.109 322.42 569.682 322.42C569.122 322.42 568.609 322.58 568.142 322.9C567.689 323.207 567.322 323.64 567.042 324.2C566.776 324.747 566.642 325.393 566.642 326.14C566.642 327.3 566.896 328.213 567.402 328.88C567.909 329.533 568.609 329.86 569.502 329.86Z" fill="white"/>
</svg>
