<svg width="215" height="276" viewBox="0 0 215 276" fill="none" xmlns="http://www.w3.org/2000/svg">
<path d="M5.2255 2.57954L1.70987 15.6406H0.287642L3.80327 2.57954H5.2255ZM6.57848 14V5.81818H8.10724V7.14986H8.20845C8.37891 6.69886 8.65767 6.3473 9.04474 6.09517C9.43182 5.83949 9.89524 5.71165 10.435 5.71165C10.9819 5.71165 11.44 5.83949 11.8093 6.09517C12.1822 6.35085 12.4574 6.70241 12.6349 7.14986H12.7202C12.9155 6.71307 13.2262 6.36506 13.6523 6.10582C14.0785 5.84304 14.5863 5.71165 15.1758 5.71165C15.918 5.71165 16.5234 5.94425 16.9922 6.40945C17.4645 6.87464 17.7006 7.57599 17.7006 8.51349V14H16.108V8.66264C16.108 8.10866 15.957 7.70739 15.6552 7.45881C15.3533 7.21023 14.9929 7.08594 14.5739 7.08594C14.0554 7.08594 13.6523 7.24574 13.3647 7.56534C13.0771 7.88139 12.9332 8.288 12.9332 8.78516V14H11.3459V8.56143C11.3459 8.11754 11.2074 7.76065 10.9304 7.49077C10.6534 7.22088 10.293 7.08594 9.84908 7.08594C9.54723 7.08594 9.26847 7.16584 9.01278 7.32564C8.76065 7.48189 8.55646 7.70028 8.40021 7.98082C8.24751 8.26136 8.17116 8.58629 8.17116 8.95561V14H6.57848ZM23.2817 14.1651C22.5146 14.1651 21.8453 13.9893 21.2735 13.6378C20.7018 13.2862 20.2579 12.7944 19.9419 12.1623C19.6258 11.5302 19.4678 10.7915 19.4678 9.94638C19.4678 9.09766 19.6258 8.35547 19.9419 7.71982C20.2579 7.08416 20.7018 6.59055 21.2735 6.23899C21.8453 5.88743 22.5146 5.71165 23.2817 5.71165C24.0487 5.71165 24.7181 5.88743 25.2899 6.23899C25.8616 6.59055 26.3055 7.08416 26.6215 7.71982C26.9376 8.35547 27.0956 9.09766 27.0956 9.94638C27.0956 10.7915 26.9376 11.5302 26.6215 12.1623C26.3055 12.7944 25.8616 13.2862 25.2899 13.6378C24.7181 13.9893 24.0487 14.1651 23.2817 14.1651ZM23.287 12.8281C23.7842 12.8281 24.1961 12.6967 24.5228 12.4339C24.8495 12.1712 25.091 11.8214 25.2472 11.3846C25.407 10.9478 25.4869 10.4666 25.4869 9.94105C25.4869 9.41903 25.407 8.93963 25.2472 8.50284C25.091 8.0625 24.8495 7.70916 24.5228 7.44283C24.1961 7.17649 23.7842 7.04332 23.287 7.04332C22.7863 7.04332 22.3708 7.17649 22.0406 7.44283C21.7139 7.70916 21.4706 8.0625 21.3108 8.50284C21.1546 8.93963 21.0764 9.41903 21.0764 9.94105C21.0764 10.4666 21.1546 10.9478 21.3108 11.3846C21.4706 11.8214 21.7139 12.1712 22.0406 12.4339C22.3708 12.6967 22.7863 12.8281 23.287 12.8281ZM30.4661 9.14205V14H28.8734V5.81818H30.4022V7.14986H30.5034C30.6916 6.71662 30.9863 6.36861 31.3876 6.10582C31.7924 5.84304 32.302 5.71165 32.9164 5.71165C33.4739 5.71165 33.9622 5.82884 34.3812 6.06321C34.8002 6.29403 35.1252 6.63849 35.356 7.09659C35.5868 7.55469 35.7022 8.12109 35.7022 8.79581V14H34.1096V8.98757C34.1096 8.39453 33.9551 7.93111 33.6461 7.5973C33.3372 7.25994 32.9128 7.09126 32.373 7.09126C32.0037 7.09126 31.6752 7.17116 31.3876 7.33097C31.1035 7.49077 30.878 7.72514 30.7111 8.03409C30.5478 8.33949 30.4661 8.70881 30.4661 9.14205ZM41.2846 14.1651C40.5176 14.1651 39.8482 13.9893 39.2765 13.6378C38.7047 13.2862 38.2608 12.7944 37.9448 12.1623C37.6287 11.5302 37.4707 10.7915 37.4707 9.94638C37.4707 9.09766 37.6287 8.35547 37.9448 7.71982C38.2608 7.08416 38.7047 6.59055 39.2765 6.23899C39.8482 5.88743 40.5176 5.71165 41.2846 5.71165C42.0517 5.71165 42.7211 5.88743 43.2928 6.23899C43.8645 6.59055 44.3084 7.08416 44.6245 7.71982C44.9405 8.35547 45.0985 9.09766 45.0985 9.94638C45.0985 10.7915 44.9405 11.5302 44.6245 12.1623C44.3084 12.7944 43.8645 13.2862 43.2928 13.6378C42.7211 13.9893 42.0517 14.1651 41.2846 14.1651ZM41.29 12.8281C41.7871 12.8281 42.199 12.6967 42.5257 12.4339C42.8525 12.1712 43.0939 11.8214 43.2502 11.3846C43.41 10.9478 43.4899 10.4666 43.4899 9.94105C43.4899 9.41903 43.41 8.93963 43.2502 8.50284C43.0939 8.0625 42.8525 7.70916 42.5257 7.44283C42.199 7.17649 41.7871 7.04332 41.29 7.04332C40.7892 7.04332 40.3738 7.17649 40.0435 7.44283C39.7168 7.70916 39.4735 8.0625 39.3137 8.50284C39.1575 8.93963 39.0794 9.41903 39.0794 9.94105C39.0794 10.4666 39.1575 10.9478 39.3137 11.3846C39.4735 11.8214 39.7168 12.1712 40.0435 12.4339C40.3738 12.6967 40.7892 12.8281 41.29 12.8281ZM51.697 8.69993V10.0795H46.8604V8.69993H51.697ZM53.8197 14V5.81818H55.3591V7.1179H55.4443C55.5935 6.67756 55.8563 6.33132 56.2327 6.07919C56.6127 5.82351 57.0423 5.69567 57.5218 5.69567C57.6212 5.69567 57.7384 5.69922 57.8733 5.70632C58.0118 5.71342 58.1201 5.7223 58.1982 5.73295V7.25639C58.1343 7.23864 58.0207 7.21911 57.8573 7.1978C57.694 7.17294 57.5306 7.16051 57.3673 7.16051C56.9909 7.16051 56.6553 7.24041 56.3605 7.40021C56.0693 7.55646 55.8385 7.77486 55.6681 8.0554C55.4976 8.33239 55.4124 8.64844 55.4124 9.00355V14H53.8197ZM62.8098 14.1651C62.0037 14.1651 61.3095 13.9929 60.7271 13.6484C60.1483 13.3004 59.7008 12.8121 59.3848 12.1836C59.0723 11.5515 58.916 10.8111 58.916 9.96236C58.916 9.12429 59.0723 8.38565 59.3848 7.74645C59.7008 7.10724 60.1412 6.60831 60.7058 6.24964C61.274 5.89098 61.938 5.71165 62.698 5.71165C63.1596 5.71165 63.6071 5.788 64.0403 5.9407C64.4735 6.09339 64.8624 6.3331 65.2069 6.6598C65.5513 6.98651 65.823 7.41087 66.0218 7.93288C66.2207 8.45135 66.3201 9.08168 66.3201 9.82386V10.3885H59.8162V9.19531H64.7594C64.7594 8.77628 64.6742 8.40518 64.5037 8.08203C64.3333 7.75533 64.0936 7.49787 63.7846 7.30966C63.4792 7.12145 63.1206 7.02734 62.7086 7.02734C62.2612 7.02734 61.8706 7.13743 61.5368 7.3576C61.2065 7.57422 60.9508 7.85831 60.7697 8.20987C60.5922 8.55788 60.5034 8.93608 60.5034 9.34446V10.2766C60.5034 10.8235 60.5993 11.2887 60.791 11.6722C60.9863 12.0558 61.258 12.3487 61.606 12.5511C61.954 12.75 62.3606 12.8494 62.8258 12.8494C63.1277 12.8494 63.4029 12.8068 63.6515 12.7216C63.9 12.6328 64.1149 12.5014 64.296 12.3274C64.4771 12.1534 64.6156 11.9386 64.7115 11.6829L66.2189 11.9545C66.0982 12.3984 65.8816 12.7873 65.5691 13.1211C65.2601 13.4513 64.8713 13.7088 64.4025 13.8935C63.9373 14.0746 63.4064 14.1651 62.8098 14.1651ZM68.0873 17.0682V5.81818H69.6427V7.14453H69.7758C69.8682 6.97408 70.0013 6.77699 70.1753 6.55327C70.3493 6.32955 70.5908 6.13423 70.8998 5.96733C71.2087 5.79688 71.6171 5.71165 72.1249 5.71165C72.7854 5.71165 73.3749 5.87855 73.8934 6.21236C74.4118 6.54616 74.8184 7.02734 75.1132 7.65589C75.4115 8.28445 75.5606 9.04084 75.5606 9.92507C75.5606 10.8093 75.4133 11.5675 75.1185 12.1996C74.8238 12.8281 74.4189 13.3129 73.904 13.6538C73.3891 13.9911 72.8014 14.1598 72.1409 14.1598C71.6437 14.1598 71.2371 14.0763 70.9211 13.9094C70.6086 13.7425 70.3635 13.5472 70.186 13.3235C70.0084 13.0998 69.8717 12.9009 69.7758 12.7269H69.68V17.0682H68.0873ZM69.648 9.90909C69.648 10.4844 69.7314 10.9886 69.8983 11.4219C70.0653 11.8551 70.3067 12.1942 70.6228 12.4393C70.9388 12.6808 71.3259 12.8015 71.784 12.8015C72.2599 12.8015 72.6576 12.6754 72.9772 12.4233C73.2968 12.1676 73.5383 11.8214 73.7016 11.3846C73.8685 10.9478 73.952 10.456 73.952 9.90909C73.952 9.36932 73.8703 8.88459 73.7069 8.4549C73.5471 8.02521 73.3057 7.68608 72.9825 7.4375C72.6629 7.18892 72.2634 7.06463 71.784 7.06463C71.3224 7.06463 70.9317 7.18359 70.6121 7.42152C70.2961 7.65945 70.0564 7.99148 69.893 8.41761C69.7297 8.84375 69.648 9.34091 69.648 9.90909ZM80.7915 14.1651C80.0244 14.1651 79.355 13.9893 78.7833 13.6378C78.2116 13.2862 77.7677 12.7944 77.4516 12.1623C77.1356 11.5302 76.9775 10.7915 76.9775 9.94638C76.9775 9.09766 77.1356 8.35547 77.4516 7.71982C77.7677 7.08416 78.2116 6.59055 78.7833 6.23899C79.355 5.88743 80.0244 5.71165 80.7915 5.71165C81.5585 5.71165 82.2279 5.88743 82.7996 6.23899C83.3714 6.59055 83.8153 7.08416 84.1313 7.71982C84.4474 8.35547 84.6054 9.09766 84.6054 9.94638C84.6054 10.7915 84.4474 11.5302 84.1313 12.1623C83.8153 12.7944 83.3714 13.2862 82.7996 13.6378C82.2279 13.9893 81.5585 14.1651 80.7915 14.1651ZM80.7968 12.8281C81.2939 12.8281 81.7059 12.6967 82.0326 12.4339C82.3593 12.1712 82.6008 11.8214 82.757 11.3846C82.9168 10.9478 82.9967 10.4666 82.9967 9.94105C82.9967 9.41903 82.9168 8.93963 82.757 8.50284C82.6008 8.0625 82.3593 7.70916 82.0326 7.44283C81.7059 7.17649 81.2939 7.04332 80.7968 7.04332C80.2961 7.04332 79.8806 7.17649 79.5503 7.44283C79.2236 7.70916 78.9804 8.0625 78.8206 8.50284C78.6643 8.93963 78.5862 9.41903 78.5862 9.94105C78.5862 10.4666 78.6643 10.9478 78.8206 11.3846C78.9804 11.8214 79.2236 12.1712 79.5503 12.4339C79.8806 12.6967 80.2961 12.8281 80.7968 12.8281ZM90.3529 17.0682V5.81818H91.9083V7.14453H92.0415C92.1338 6.97408 92.267 6.77699 92.441 6.55327C92.615 6.32955 92.8564 6.13423 93.1654 5.96733C93.4743 5.79688 93.8827 5.71165 94.3905 5.71165C95.051 5.71165 95.6405 5.87855 96.159 6.21236C96.6775 6.54616 97.0841 7.02734 97.3788 7.65589C97.6771 8.28445 97.8263 9.04084 97.8263 9.92507C97.8263 10.8093 97.6789 11.5675 97.3841 12.1996C97.0894 12.8281 96.6846 13.3129 96.1697 13.6538C95.6547 13.9911 95.067 14.1598 94.4065 14.1598C93.9094 14.1598 93.5028 14.0763 93.1867 13.9094C92.8742 13.7425 92.6292 13.5472 92.4516 13.3235C92.2741 13.0998 92.1373 12.9009 92.0415 12.7269H91.9456V17.0682H90.3529ZM91.9136 9.90909C91.9136 10.4844 91.9971 10.9886 92.164 11.4219C92.3309 11.8551 92.5724 12.1942 92.8884 12.4393C93.2045 12.6808 93.5915 12.8015 94.0496 12.8015C94.5255 12.8015 94.9232 12.6754 95.2428 12.4233C95.5624 12.1676 95.8039 11.8214 95.9672 11.3846C96.1341 10.9478 96.2176 10.456 96.2176 9.90909C96.2176 9.36932 96.1359 8.88459 95.9726 8.4549C95.8128 8.02521 95.5713 7.68608 95.2481 7.4375C94.9285 7.18892 94.529 7.06463 94.0496 7.06463C93.588 7.06463 93.1974 7.18359 92.8778 7.42152C92.5617 7.65945 92.322 7.99148 92.1586 8.41761C91.9953 8.84375 91.9136 9.34091 91.9136 9.90909ZM99.6107 14V5.81818H101.15V7.1179H101.235C101.384 6.67756 101.647 6.33132 102.024 6.07919C102.404 5.82351 102.833 5.69567 103.313 5.69567C103.412 5.69567 103.529 5.69922 103.664 5.70632C103.803 5.71342 103.911 5.7223 103.989 5.73295V7.25639C103.925 7.23864 103.812 7.21911 103.648 7.1978C103.485 7.17294 103.322 7.16051 103.158 7.16051C102.782 7.16051 102.446 7.24041 102.152 7.40021C101.86 7.55646 101.63 7.77486 101.459 8.0554C101.289 8.33239 101.203 8.64844 101.203 9.00355V14H99.6107ZM108.521 14.1651C107.754 14.1651 107.085 13.9893 106.513 13.6378C105.941 13.2862 105.497 12.7944 105.181 12.1623C104.865 11.5302 104.707 10.7915 104.707 9.94638C104.707 9.09766 104.865 8.35547 105.181 7.71982C105.497 7.08416 105.941 6.59055 106.513 6.23899C107.085 5.88743 107.754 5.71165 108.521 5.71165C109.288 5.71165 109.957 5.88743 110.529 6.23899C111.101 6.59055 111.545 7.08416 111.861 7.71982C112.177 8.35547 112.335 9.09766 112.335 9.94638C112.335 10.7915 112.177 11.5302 111.861 12.1623C111.545 12.7944 111.101 13.2862 110.529 13.6378C109.957 13.9893 109.288 14.1651 108.521 14.1651ZM108.526 12.8281C109.023 12.8281 109.435 12.6967 109.762 12.4339C110.089 12.1712 110.33 11.8214 110.487 11.3846C110.646 10.9478 110.726 10.4666 110.726 9.94105C110.726 9.41903 110.646 8.93963 110.487 8.50284C110.33 8.0625 110.089 7.70916 109.762 7.44283C109.435 7.17649 109.023 7.04332 108.526 7.04332C108.026 7.04332 107.61 7.17649 107.28 7.44283C106.953 7.70916 106.71 8.0625 106.55 8.50284C106.394 8.93963 106.316 9.41903 106.316 9.94105C106.316 10.4666 106.394 10.9478 106.55 11.3846C106.71 11.8214 106.953 12.1712 107.28 12.4339C107.61 12.6967 108.026 12.8281 108.526 12.8281ZM114.113 5.81818H115.705V14.5327C115.705 15.0795 115.606 15.5412 115.407 15.9176C115.212 16.294 114.921 16.5799 114.533 16.7752C114.15 16.9705 113.676 17.0682 113.111 17.0682C113.054 17.0682 113.001 17.0682 112.951 17.0682C112.898 17.0682 112.843 17.0664 112.786 17.0629V15.6939C112.836 15.6939 112.88 15.6939 112.919 15.6939C112.955 15.6939 112.996 15.6939 113.042 15.6939C113.418 15.6939 113.69 15.5927 113.857 15.3903C114.027 15.1914 114.113 14.902 114.113 14.522V5.81818ZM114.901 4.55575C114.624 4.55575 114.386 4.46342 114.187 4.27876C113.992 4.09055 113.894 3.86683 113.894 3.6076C113.894 3.34482 113.992 3.12109 114.187 2.93643C114.386 2.74822 114.624 2.65412 114.901 2.65412C115.178 2.65412 115.414 2.74822 115.609 2.93643C115.808 3.12109 115.908 3.34482 115.908 3.6076C115.908 3.86683 115.808 4.09055 115.609 4.27876C115.414 4.46342 115.178 4.55575 114.901 4.55575ZM121.374 14.1651C120.568 14.1651 119.874 13.9929 119.292 13.6484C118.713 13.3004 118.265 12.8121 117.949 12.1836C117.637 11.5515 117.48 10.8111 117.48 9.96236C117.48 9.12429 117.637 8.38565 117.949 7.74645C118.265 7.10724 118.706 6.60831 119.27 6.24964C119.838 5.89098 120.502 5.71165 121.262 5.71165C121.724 5.71165 122.172 5.788 122.605 5.9407C123.038 6.09339 123.427 6.3331 123.771 6.6598C124.116 6.98651 124.387 7.41087 124.586 7.93288C124.785 8.45135 124.885 9.08168 124.885 9.82386V10.3885H118.381V9.19531H123.324C123.324 8.77628 123.239 8.40518 123.068 8.08203C122.898 7.75533 122.658 7.49787 122.349 7.30966C122.044 7.12145 121.685 7.02734 121.273 7.02734C120.826 7.02734 120.435 7.13743 120.101 7.3576C119.771 7.57422 119.515 7.85831 119.334 8.20987C119.157 8.55788 119.068 8.93608 119.068 9.34446V10.2766C119.068 10.8235 119.164 11.2887 119.355 11.6722C119.551 12.0558 119.822 12.3487 120.17 12.5511C120.518 12.75 120.925 12.8494 121.39 12.8494C121.692 12.8494 121.967 12.8068 122.216 12.7216C122.464 12.6328 122.679 12.5014 122.86 12.3274C123.042 12.1534 123.18 11.9386 123.276 11.6829L124.783 11.9545C124.663 12.3984 124.446 12.7873 124.134 13.1211C123.825 13.4513 123.436 13.7088 122.967 13.8935C122.502 14.0746 121.971 14.1651 121.374 14.1651ZM130.098 14.1651C129.306 14.1651 128.624 13.9858 128.053 13.6271C127.484 13.2649 127.048 12.766 126.742 12.1303C126.437 11.4947 126.284 10.7667 126.284 9.94638C126.284 9.11541 126.44 8.3821 126.753 7.74645C127.065 7.10724 127.506 6.60831 128.074 6.24964C128.642 5.89098 129.312 5.71165 130.082 5.71165C130.704 5.71165 131.258 5.82706 131.744 6.05788C132.231 6.28516 132.623 6.60476 132.921 7.01669C133.223 7.42862 133.402 7.9098 133.459 8.46023H131.909C131.824 8.0767 131.629 7.74645 131.323 7.46946C131.021 7.19247 130.617 7.05398 130.109 7.05398C129.665 7.05398 129.276 7.17116 128.942 7.40554C128.612 7.63636 128.354 7.96662 128.17 8.39631C127.985 8.82244 127.893 9.3267 127.893 9.90909C127.893 10.5057 127.983 11.0206 128.165 11.4538C128.346 11.8871 128.601 12.2227 128.932 12.4606C129.265 12.6985 129.658 12.8175 130.109 12.8175C130.411 12.8175 130.684 12.7624 130.929 12.6523C131.178 12.5387 131.385 12.3771 131.552 12.1676C131.723 11.9581 131.842 11.706 131.909 11.4112H133.459C133.402 11.9403 133.23 12.4126 132.943 12.8281C132.655 13.2436 132.27 13.5703 131.787 13.8082C131.307 14.0462 130.744 14.1651 130.098 14.1651ZM138.982 5.81818V7.09659H134.513V5.81818H138.982ZM135.711 3.85795H137.304V11.5977C137.304 11.9066 137.35 12.1392 137.442 12.2955C137.535 12.4482 137.654 12.5529 137.799 12.6097C137.948 12.663 138.11 12.6896 138.284 12.6896C138.412 12.6896 138.524 12.6808 138.619 12.663C138.715 12.6452 138.79 12.631 138.843 12.6204L139.131 13.9361C139.039 13.9716 138.907 14.0071 138.737 14.0426C138.566 14.0817 138.353 14.103 138.097 14.1065C137.678 14.1136 137.288 14.0391 136.926 13.8828C136.563 13.7266 136.27 13.4851 136.047 13.1584C135.823 12.8317 135.711 12.4215 135.711 11.9279V3.85795Z" fill="black"/>
<rect x="0.5" y="32.5" width="214" height="243" rx="9.5" fill="white" stroke="#EAEAEA"/>
<path d="M21.6 70.8C21.16 70.8 20.7835 70.6435 20.4704 70.3304C20.1568 70.0168 20 69.64 20 69.2V59.6C20 59.16 20.1568 58.7835 20.4704 58.4704C20.7835 58.1568 21.16 58 21.6 58H26.4L28 59.6H34.4C34.84 59.6 35.2168 59.7568 35.5304 60.0704C35.8435 60.3835 36 60.76 36 61.2V69.2C36 69.64 35.8435 70.0168 35.5304 70.3304C35.2168 70.6435 34.84 70.8 34.4 70.8H21.6ZM21.6 59.6V69.2H34.4V61.2H27.34L25.74 59.6H21.6ZM21.6 59.6V69.2V59.6Z" fill="#1038C7"/>
<path d="M55.6534 68.0682C55.4432 68.0682 55.2628 67.9929 55.1122 67.8423C54.9616 67.6918 54.8864 67.5114 54.8864 67.3011C54.8864 67.0909 54.9616 66.9105 55.1122 66.7599C55.2628 66.6094 55.4432 66.5341 55.6534 66.5341C55.8636 66.5341 56.044 66.6094 56.1946 66.7599C56.3452 66.9105 56.4205 67.0909 56.4205 67.3011C56.4205 67.4403 56.3849 67.5682 56.3139 67.6847C56.2457 67.8011 56.1534 67.8949 56.0369 67.9659C55.9233 68.0341 55.7955 68.0682 55.6534 68.0682ZM59.2308 59.2727V68H58.2251V59.2727H59.2308ZM62.9989 68.1534C62.5842 68.1534 62.2077 68.0753 61.8697 67.919C61.5316 67.7599 61.2631 67.5312 61.0643 67.233C60.8654 66.9318 60.766 66.5682 60.766 66.142C60.766 65.767 60.8398 65.4631 60.9876 65.2301C61.1353 64.9943 61.3327 64.8097 61.5799 64.6761C61.8271 64.5426 62.0998 64.4432 62.3981 64.3778C62.6992 64.3097 63.0018 64.2557 63.3058 64.2159C63.7035 64.1648 64.0259 64.1264 64.2731 64.1009C64.5231 64.0724 64.7049 64.0256 64.8185 63.9602C64.935 63.8949 64.9933 63.7812 64.9933 63.6193V63.5852C64.9933 63.1648 64.8782 62.8381 64.6481 62.6051C64.4208 62.3722 64.0756 62.2557 63.6126 62.2557C63.1325 62.2557 62.756 62.3608 62.4833 62.571C62.2106 62.7812 62.0188 63.0057 61.908 63.2443L60.9535 62.9034C61.1239 62.5057 61.3512 62.196 61.6353 61.9744C61.9222 61.75 62.2347 61.5937 62.5728 61.5057C62.9137 61.4148 63.2489 61.3693 63.5785 61.3693C63.7887 61.3693 64.0302 61.3949 64.3029 61.446C64.5785 61.4943 64.8441 61.5952 65.0998 61.7486C65.3583 61.902 65.5728 62.1335 65.7433 62.4432C65.9137 62.7528 65.9989 63.1676 65.9989 63.6875V68H64.9933V67.1136H64.9421C64.8739 67.2557 64.7603 67.4077 64.6012 67.5696C64.4421 67.7315 64.2305 67.8693 63.9663 67.983C63.7021 68.0966 63.3796 68.1534 62.9989 68.1534ZM63.1523 67.25C63.5501 67.25 63.8853 67.1719 64.158 67.0156C64.4336 66.8594 64.641 66.6577 64.7802 66.4105C64.9222 66.1634 64.9933 65.9034 64.9933 65.6307V64.7102C64.9506 64.7614 64.8569 64.8082 64.712 64.8509C64.57 64.8906 64.4052 64.9261 64.2177 64.9574C64.033 64.9858 63.8526 65.0114 63.6765 65.0341C63.5032 65.054 63.3626 65.071 63.2546 65.0852C62.9933 65.1193 62.7489 65.1747 62.5217 65.2514C62.2972 65.3253 62.1154 65.4375 61.9762 65.5881C61.8398 65.7358 61.7717 65.9375 61.7717 66.1932C61.7717 66.5426 61.9009 66.8068 62.1594 66.9858C62.4208 67.1619 62.7518 67.25 63.1523 67.25ZM68.2479 70.4545C68.0774 70.4545 67.9254 70.4403 67.7919 70.4119C67.6584 70.3864 67.5661 70.3608 67.5149 70.3352L67.7706 69.4489C68.0149 69.5114 68.2308 69.5341 68.4183 69.517C68.6058 69.5 68.772 69.4162 68.9169 69.2656C69.0646 69.1179 69.1996 68.8778 69.3217 68.5455L69.5092 68.0341L67.0888 61.4545H68.1797L69.9865 66.6705H70.0547L71.8615 61.4545H72.9524L70.174 68.9545C70.049 69.2926 69.8942 69.5724 69.7095 69.794C69.5249 70.0185 69.3104 70.1847 69.0661 70.2926C68.8246 70.4006 68.5518 70.4545 68.2479 70.4545ZM76.7898 68.1364C76.1591 68.1364 75.6151 67.9972 75.1577 67.7188C74.7031 67.4375 74.3523 67.0455 74.1051 66.5426C73.8608 66.0369 73.7386 65.4489 73.7386 64.7784C73.7386 64.108 73.8608 63.517 74.1051 63.0057C74.3523 62.4915 74.696 62.0909 75.1364 61.804C75.5795 61.5142 76.0966 61.3693 76.6875 61.3693C77.0284 61.3693 77.3651 61.4261 77.6974 61.5398C78.0298 61.6534 78.3324 61.8381 78.6051 62.0938C78.8778 62.3466 79.0952 62.6818 79.2571 63.0994C79.419 63.517 79.5 64.0312 79.5 64.642V65.0682H74.4545V64.1989H78.4773C78.4773 63.8295 78.4034 63.5 78.2557 63.2102C78.1108 62.9205 77.9034 62.6918 77.6335 62.5241C77.3665 62.3565 77.0511 62.2727 76.6875 62.2727C76.2869 62.2727 75.9403 62.3722 75.6477 62.571C75.358 62.767 75.1349 63.0227 74.9787 63.3381C74.8224 63.6534 74.7443 63.9915 74.7443 64.3523V64.9318C74.7443 65.4261 74.8295 65.8452 75 66.1889C75.1733 66.5298 75.4134 66.7898 75.7202 66.9688C76.027 67.1449 76.3835 67.233 76.7898 67.233C77.054 67.233 77.2926 67.196 77.5057 67.1222C77.7216 67.0455 77.9077 66.9318 78.0639 66.7812C78.2202 66.6278 78.3409 66.4375 78.4261 66.2102L79.3977 66.483C79.2955 66.8125 79.1236 67.1023 78.8821 67.3523C78.6406 67.5994 78.3423 67.7926 77.9872 67.9318C77.6321 68.0682 77.233 68.1364 76.7898 68.1364ZM81.0298 68V61.4545H82.0014V62.4432H82.0696C82.1889 62.1193 82.4048 61.8565 82.7173 61.6548C83.0298 61.4531 83.3821 61.3523 83.7741 61.3523C83.848 61.3523 83.9403 61.3537 84.0511 61.3565C84.1619 61.3594 84.2457 61.3636 84.3026 61.3693V62.392C84.2685 62.3835 84.1903 62.3707 84.0682 62.3537C83.9489 62.3338 83.8224 62.3239 83.6889 62.3239C83.3707 62.3239 83.0866 62.3906 82.8366 62.5241C82.5895 62.6548 82.3935 62.8366 82.2486 63.0696C82.1065 63.2997 82.0355 63.5625 82.0355 63.858V68H81.0298ZM88.8196 61.4545V62.3068H85.2912V61.4545H88.8196ZM86.348 68V60.5511C86.348 60.1761 86.4361 59.8636 86.6122 59.6136C86.7884 59.3636 87.017 59.1761 87.2983 59.0511C87.5795 58.9261 87.8764 58.8636 88.1889 58.8636C88.4361 58.8636 88.6378 58.8835 88.794 58.9233C88.9503 58.9631 89.0668 59 89.1435 59.0341L88.8537 59.9034C88.8026 59.8864 88.7315 59.8651 88.6406 59.8395C88.5526 59.8139 88.4361 59.8011 88.2912 59.8011C87.9588 59.8011 87.7188 59.8849 87.571 60.0526C87.4261 60.2202 87.3537 60.4659 87.3537 60.7898V68H86.348ZM90.229 68V61.4545H91.2347V68H90.229ZM90.7404 60.3636C90.5444 60.3636 90.3754 60.2969 90.2333 60.1634C90.0941 60.0298 90.0245 59.8693 90.0245 59.6818C90.0245 59.4943 90.0941 59.3338 90.2333 59.2003C90.3754 59.0668 90.5444 59 90.7404 59C90.9364 59 91.104 59.0668 91.2433 59.2003C91.3853 59.3338 91.4563 59.4943 91.4563 59.6818C91.4563 59.8693 91.3853 60.0298 91.2433 60.1634C91.104 60.2969 90.9364 60.3636 90.7404 60.3636ZM94.0824 59.2727V68H93.0767V59.2727H94.0824ZM98.6687 68.1364C98.038 68.1364 97.494 67.9972 97.0366 67.7188C96.582 67.4375 96.2312 67.0455 95.984 66.5426C95.7397 66.0369 95.6175 65.4489 95.6175 64.7784C95.6175 64.108 95.7397 63.517 95.984 63.0057C96.2312 62.4915 96.5749 62.0909 97.0153 61.804C97.4585 61.5142 97.9755 61.3693 98.5664 61.3693C98.9073 61.3693 99.244 61.4261 99.5763 61.5398C99.9087 61.6534 100.211 61.8381 100.484 62.0938C100.757 62.3466 100.974 62.6818 101.136 63.0994C101.298 63.517 101.379 64.0312 101.379 64.642V65.0682H96.3335V64.1989H100.356C100.356 63.8295 100.282 63.5 100.135 63.2102C99.9897 62.9205 99.7823 62.6918 99.5124 62.5241C99.2454 62.3565 98.93 62.2727 98.5664 62.2727C98.1658 62.2727 97.8192 62.3722 97.5266 62.571C97.2369 62.767 97.0138 63.0227 96.8576 63.3381C96.7013 63.6534 96.6232 63.9915 96.6232 64.3523V64.9318C96.6232 65.4261 96.7085 65.8452 96.8789 66.1889C97.0522 66.5298 97.2923 66.7898 97.5991 66.9688C97.9059 67.1449 98.2624 67.233 98.6687 67.233C98.9329 67.233 99.1715 67.196 99.3846 67.1222C99.6005 67.0455 99.7866 66.9318 99.9428 66.7812C100.099 66.6278 100.22 66.4375 100.305 66.2102L101.277 66.483C101.174 66.8125 101.002 67.1023 100.761 67.3523C100.52 67.5994 100.221 67.7926 99.8661 67.9318C99.511 68.0682 99.1119 68.1364 98.6687 68.1364ZM107.545 62.9205L106.642 63.1761C106.585 63.0256 106.501 62.8793 106.39 62.7372C106.282 62.5923 106.135 62.473 105.947 62.3793C105.76 62.2855 105.52 62.2386 105.227 62.2386C104.826 62.2386 104.493 62.331 104.225 62.5156C103.961 62.6974 103.829 62.929 103.829 63.2102C103.829 63.4602 103.92 63.6577 104.102 63.8026C104.284 63.9474 104.568 64.0682 104.954 64.1648L105.926 64.4034C106.511 64.5455 106.947 64.7628 107.234 65.0554C107.521 65.3452 107.664 65.7187 107.664 66.1761C107.664 66.5511 107.556 66.8864 107.341 67.1818C107.127 67.4773 106.829 67.7102 106.446 67.8807C106.062 68.0511 105.616 68.1364 105.108 68.1364C104.44 68.1364 103.887 67.9915 103.45 67.7017C103.012 67.4119 102.735 66.9886 102.619 66.4318L103.574 66.1932C103.664 66.5455 103.836 66.8097 104.089 66.9858C104.345 67.1619 104.679 67.25 105.091 67.25C105.559 67.25 105.931 67.1506 106.207 66.9517C106.485 66.75 106.625 66.5085 106.625 66.2273C106.625 66 106.545 65.8097 106.386 65.6562C106.227 65.5 105.983 65.3835 105.653 65.3068L104.562 65.0511C103.963 64.9091 103.522 64.6889 103.241 64.3906C102.963 64.0895 102.824 63.7131 102.824 63.2614C102.824 62.892 102.927 62.5653 103.135 62.2812C103.345 61.9972 103.63 61.7741 103.991 61.6122C104.355 61.4503 104.767 61.3693 105.227 61.3693C105.875 61.3693 106.383 61.5114 106.752 61.7955C107.125 62.0795 107.389 62.4545 107.545 62.9205Z" fill="black"/>
<path d="M21.6 107.8C21.16 107.8 20.7835 107.643 20.4704 107.33C20.1568 107.017 20 106.64 20 106.2V96.6C20 96.16 20.1568 95.7835 20.4704 95.4704C20.7835 95.1568 21.16 95 21.6 95H26.4L28 96.6H34.4C34.84 96.6 35.2168 96.7568 35.5304 97.0704C35.8435 97.3835 36 97.76 36 98.2V106.2C36 106.64 35.8435 107.017 35.5304 107.33C35.2168 107.643 34.84 107.8 34.4 107.8H21.6ZM21.6 96.6V106.2H34.4V98.2H27.34L25.74 96.6H21.6ZM21.6 96.6V106.2V96.6Z" fill="#1038C7"/>
<path d="M57.8352 100.455V101.307H54.3068V100.455H57.8352ZM55.3636 107V99.5511C55.3636 99.1761 55.4517 98.8636 55.6278 98.6136C55.804 98.3636 56.0327 98.1761 56.3139 98.0511C56.5952 97.9261 56.892 97.8636 57.2045 97.8636C57.4517 97.8636 57.6534 97.8835 57.8097 97.9233C57.9659 97.9631 58.0824 98 58.1591 98.0341L57.8693 98.9034C57.8182 98.8864 57.7472 98.8651 57.6562 98.8395C57.5682 98.8139 57.4517 98.8011 57.3068 98.8011C56.9744 98.8011 56.7344 98.8849 56.5866 99.0526C56.4418 99.2202 56.3693 99.4659 56.3693 99.7898V107H55.3636ZM59.2447 107V100.455H60.2163V101.443H60.2844C60.4038 101.119 60.6197 100.857 60.9322 100.655C61.2447 100.453 61.5969 100.352 61.989 100.352C62.0629 100.352 62.1552 100.354 62.266 100.357C62.3768 100.359 62.4606 100.364 62.5174 100.369V101.392C62.4833 101.384 62.4052 101.371 62.283 101.354C62.1637 101.334 62.0373 101.324 61.9038 101.324C61.5856 101.324 61.3015 101.391 61.0515 101.524C60.8043 101.655 60.6083 101.837 60.4634 102.07C60.3214 102.3 60.2504 102.562 60.2504 102.858V107H59.2447ZM66.1694 107.136C65.5785 107.136 65.06 106.996 64.614 106.714C64.1708 106.433 63.8242 106.04 63.5742 105.534C63.3271 105.028 63.2035 104.437 63.2035 103.761C63.2035 103.08 63.3271 102.484 63.5742 101.976C63.8242 101.467 64.1708 101.072 64.614 100.791C65.06 100.51 65.5785 100.369 66.1694 100.369C66.7603 100.369 67.2773 100.51 67.7205 100.791C68.1665 101.072 68.5131 101.467 68.7603 101.976C69.0103 102.484 69.1353 103.08 69.1353 103.761C69.1353 104.437 69.0103 105.028 68.7603 105.534C68.5131 106.04 68.1665 106.433 67.7205 106.714C67.2773 106.996 66.7603 107.136 66.1694 107.136ZM66.1694 106.233C66.6183 106.233 66.9876 106.118 67.2773 105.888C67.5671 105.658 67.7816 105.355 67.9208 104.98C68.06 104.605 68.1296 104.199 68.1296 103.761C68.1296 103.324 68.06 102.916 67.9208 102.538C67.7816 102.161 67.5671 101.855 67.2773 101.622C66.9876 101.389 66.6183 101.273 66.1694 101.273C65.7205 101.273 65.3512 101.389 65.0614 101.622C64.7717 101.855 64.5572 102.161 64.418 102.538C64.2788 102.916 64.2092 103.324 64.2092 103.761C64.2092 104.199 64.2788 104.605 64.418 104.98C64.5572 105.355 64.7717 105.658 65.0614 105.888C65.3512 106.118 65.7205 106.233 66.1694 106.233ZM71.6761 103.062V107H70.6705V100.455H71.642V101.477H71.7273C71.8807 101.145 72.1136 100.878 72.4261 100.676C72.7386 100.472 73.142 100.369 73.6364 100.369C74.0795 100.369 74.4673 100.46 74.7997 100.642C75.1321 100.821 75.3906 101.094 75.5753 101.46C75.7599 101.824 75.8523 102.284 75.8523 102.841V107H74.8466V102.909C74.8466 102.395 74.7131 101.994 74.446 101.707C74.179 101.418 73.8125 101.273 73.3466 101.273C73.0256 101.273 72.7386 101.342 72.4858 101.482C72.2358 101.621 72.0384 101.824 71.8935 102.091C71.7486 102.358 71.6761 102.682 71.6761 103.062ZM80.5366 100.455V101.307H77.1445V100.455H80.5366ZM78.1332 98.8864H79.1388V105.125C79.1388 105.409 79.18 105.622 79.2624 105.764C79.3477 105.903 79.4556 105.997 79.5863 106.045C79.7198 106.091 79.8604 106.114 80.0082 106.114C80.119 106.114 80.2099 106.108 80.2809 106.097C80.3519 106.082 80.4087 106.071 80.4513 106.062L80.6559 106.966C80.5877 106.991 80.4925 107.017 80.3704 107.043C80.2482 107.071 80.0934 107.085 79.9059 107.085C79.6218 107.085 79.3434 107.024 79.0707 106.902C78.8008 106.78 78.5763 106.594 78.3974 106.344C78.2212 106.094 78.1332 105.778 78.1332 105.398V98.8864ZM84.7234 107.136C84.0927 107.136 83.5487 106.997 83.0913 106.719C82.6367 106.438 82.2859 106.045 82.0387 105.543C81.7944 105.037 81.6722 104.449 81.6722 103.778C81.6722 103.108 81.7944 102.517 82.0387 102.006C82.2859 101.491 82.6296 101.091 83.07 100.804C83.5131 100.514 84.0302 100.369 84.6211 100.369C84.962 100.369 85.2987 100.426 85.631 100.54C85.9634 100.653 86.266 100.838 86.5387 101.094C86.8114 101.347 87.0288 101.682 87.1907 102.099C87.3526 102.517 87.4336 103.031 87.4336 103.642V104.068H82.3881V103.199H86.4109C86.4109 102.83 86.337 102.5 86.1893 102.21C86.0444 101.92 85.837 101.692 85.5671 101.524C85.3001 101.357 84.9847 101.273 84.6211 101.273C84.2205 101.273 83.8739 101.372 83.5813 101.571C83.2915 101.767 83.0685 102.023 82.9123 102.338C82.756 102.653 82.6779 102.991 82.6779 103.352V103.932C82.6779 104.426 82.7631 104.845 82.9336 105.189C83.1069 105.53 83.3469 105.79 83.6538 105.969C83.9606 106.145 84.3171 106.233 84.7234 106.233C84.9876 106.233 85.2262 106.196 85.4393 106.122C85.6552 106.045 85.8413 105.932 85.9975 105.781C86.1538 105.628 86.2745 105.437 86.3597 105.21L87.3313 105.483C87.229 105.812 87.0572 106.102 86.8157 106.352C86.5742 106.599 86.2759 106.793 85.9208 106.932C85.5657 107.068 85.1665 107.136 84.7234 107.136ZM89.9691 103.062V107H88.9634V100.455H89.935V101.477H90.0202C90.1737 101.145 90.4066 100.878 90.7191 100.676C91.0316 100.472 91.435 100.369 91.9293 100.369C92.3725 100.369 92.7603 100.46 93.0927 100.642C93.4251 100.821 93.6836 101.094 93.8683 101.46C94.0529 101.824 94.1452 102.284 94.1452 102.841V107H93.1396V102.909C93.1396 102.395 93.006 101.994 92.739 101.707C92.4719 101.418 92.1055 101.273 91.6396 101.273C91.3185 101.273 91.0316 101.342 90.7788 101.482C90.5288 101.621 90.3313 101.824 90.1864 102.091C90.0415 102.358 89.9691 102.682 89.9691 103.062ZM98.4545 107.136C97.9091 107.136 97.4276 106.999 97.0099 106.723C96.5923 106.445 96.2656 106.053 96.0298 105.547C95.794 105.038 95.6761 104.438 95.6761 103.744C95.6761 103.057 95.794 102.46 96.0298 101.955C96.2656 101.449 96.5938 101.058 97.0142 100.783C97.4347 100.507 97.9205 100.369 98.4716 100.369C98.8977 100.369 99.2344 100.44 99.4815 100.582C99.7315 100.722 99.9219 100.881 100.053 101.06C100.186 101.236 100.29 101.381 100.364 101.494H100.449V98.2727H101.455V107H100.483V105.994H100.364C100.29 106.114 100.185 106.264 100.048 106.446C99.9119 106.625 99.7173 106.786 99.4645 106.928C99.2116 107.067 98.875 107.136 98.4545 107.136ZM98.5909 106.233C98.9943 106.233 99.3352 106.128 99.6136 105.918C99.892 105.705 100.104 105.411 100.249 105.036C100.393 104.658 100.466 104.222 100.466 103.727C100.466 103.239 100.395 102.811 100.253 102.445C100.111 102.075 99.9006 101.788 99.6222 101.584C99.3438 101.376 99 101.273 98.5909 101.273C98.1648 101.273 97.8097 101.382 97.5256 101.601C97.2443 101.817 97.0327 102.111 96.8906 102.483C96.7514 102.852 96.6818 103.267 96.6818 103.727C96.6818 104.193 96.7528 104.616 96.8949 104.997C97.0398 105.375 97.2528 105.676 97.5341 105.901C97.8182 106.122 98.1705 106.233 98.5909 106.233Z" fill="black"/>
<path d="M21.6 144.8C21.16 144.8 20.7835 144.643 20.4704 144.33C20.1568 144.017 20 143.64 20 143.2V133.6C20 133.16 20.1568 132.783 20.4704 132.47C20.7835 132.157 21.16 132 21.6 132H26.4L28 133.6H34.4C34.84 133.6 35.2168 133.757 35.5304 134.07C35.8435 134.383 36 134.76 36 135.2V143.2C36 143.64 35.8435 144.017 35.5304 144.33C35.2168 144.643 34.84 144.8 34.4 144.8H21.6ZM21.6 133.6V143.2H34.4V135.2H27.34L25.74 133.6H21.6ZM21.6 133.6V143.2V133.6Z" fill="#1038C7"/>
<path d="M56.8466 142.153C56.4318 142.153 56.0554 142.075 55.7173 141.919C55.3793 141.76 55.1108 141.531 54.9119 141.233C54.7131 140.932 54.6136 140.568 54.6136 140.142C54.6136 139.767 54.6875 139.463 54.8352 139.23C54.983 138.994 55.1804 138.81 55.4276 138.676C55.6747 138.543 55.9474 138.443 56.2457 138.378C56.5469 138.31 56.8494 138.256 57.1534 138.216C57.5511 138.165 57.8736 138.126 58.1207 138.101C58.3707 138.072 58.5526 138.026 58.6662 137.96C58.7827 137.895 58.8409 137.781 58.8409 137.619V137.585C58.8409 137.165 58.7259 136.838 58.4957 136.605C58.2685 136.372 57.9233 136.256 57.4602 136.256C56.9801 136.256 56.6037 136.361 56.331 136.571C56.0582 136.781 55.8665 137.006 55.7557 137.244L54.8011 136.903C54.9716 136.506 55.1989 136.196 55.483 135.974C55.7699 135.75 56.0824 135.594 56.4205 135.506C56.7614 135.415 57.0966 135.369 57.4261 135.369C57.6364 135.369 57.8778 135.395 58.1506 135.446C58.4261 135.494 58.6918 135.595 58.9474 135.749C59.206 135.902 59.4205 136.134 59.5909 136.443C59.7614 136.753 59.8466 137.168 59.8466 137.688V142H58.8409V141.114H58.7898C58.7216 141.256 58.608 141.408 58.4489 141.57C58.2898 141.732 58.0781 141.869 57.8139 141.983C57.5497 142.097 57.2273 142.153 56.8466 142.153ZM57 141.25C57.3977 141.25 57.733 141.172 58.0057 141.016C58.2813 140.859 58.4886 140.658 58.6278 140.411C58.7699 140.163 58.8409 139.903 58.8409 139.631V138.71C58.7983 138.761 58.7045 138.808 58.5597 138.851C58.4176 138.891 58.2528 138.926 58.0653 138.957C57.8807 138.986 57.7003 139.011 57.5241 139.034C57.3509 139.054 57.2102 139.071 57.1023 139.085C56.8409 139.119 56.5966 139.175 56.3693 139.251C56.1449 139.325 55.9631 139.437 55.8239 139.588C55.6875 139.736 55.6193 139.937 55.6193 140.193C55.6193 140.543 55.7486 140.807 56.0071 140.986C56.2685 141.162 56.5994 141.25 57 141.25ZM61.6822 144.455V135.455H62.6538V136.494H62.7731C62.8469 136.381 62.9492 136.236 63.0799 136.06C63.2134 135.881 63.4038 135.722 63.6509 135.582C63.9009 135.44 64.239 135.369 64.6651 135.369C65.2163 135.369 65.7021 135.507 66.1225 135.783C66.543 136.058 66.8711 136.449 67.1069 136.955C67.3427 137.46 67.4606 138.057 67.4606 138.744C67.4606 139.438 67.3427 140.038 67.1069 140.547C66.8711 141.053 66.5444 141.445 66.1268 141.723C65.7092 141.999 65.2276 142.136 64.6822 142.136C64.2617 142.136 63.9251 142.067 63.6722 141.928C63.4194 141.786 63.2248 141.625 63.0884 141.446C62.9521 141.264 62.8469 141.114 62.7731 140.994H62.6879V144.455H61.6822ZM62.6708 138.727C62.6708 139.222 62.7433 139.658 62.8881 140.036C63.033 140.411 63.2447 140.705 63.5231 140.918C63.8015 141.128 64.1424 141.233 64.5458 141.233C64.9663 141.233 65.3171 141.122 65.5984 140.901C65.8825 140.676 66.0955 140.375 66.2376 139.997C66.3825 139.616 66.4549 139.193 66.4549 138.727C66.4549 138.267 66.3839 137.852 66.2418 137.483C66.1026 137.111 65.891 136.817 65.6069 136.601C65.3256 136.382 64.9719 136.273 64.5458 136.273C64.1367 136.273 63.793 136.376 63.5146 136.584C63.2362 136.788 63.0259 137.075 62.8839 137.445C62.7418 137.811 62.6708 138.239 62.6708 138.727ZM68.9947 142V135.455H70.0004V142H68.9947ZM69.506 134.364C69.31 134.364 69.141 134.297 68.9989 134.163C68.8597 134.03 68.7901 133.869 68.7901 133.682C68.7901 133.494 68.8597 133.334 68.9989 133.2C69.141 133.067 69.31 133 69.506 133C69.7021 133 69.8697 133.067 70.0089 133.2C70.1509 133.334 70.2219 133.494 70.2219 133.682C70.2219 133.869 70.1509 134.03 70.0089 134.163C69.8697 134.297 69.7021 134.364 69.506 134.364Z" fill="black"/>
<path d="M21.6 176.8C21.16 176.8 20.7835 176.643 20.4704 176.33C20.1568 176.017 20 175.64 20 175.2V165.6C20 165.16 20.1568 164.783 20.4704 164.47C20.7835 164.157 21.16 164 21.6 164H26.4L28 165.6H34.4C34.84 165.6 35.2168 165.757 35.5304 166.07C35.8435 166.383 36 166.76 36 167.2V175.2C36 175.64 35.8435 176.017 35.5304 176.33C35.2168 176.643 34.84 176.8 34.4 176.8H21.6ZM21.6 165.6V175.2H34.4V167.2H27.34L25.74 165.6H21.6ZM21.6 165.6V175.2V165.6Z" fill="#1038C7"/>
<path d="M54.9205 174V167.455H55.892V168.477H55.9773C56.1136 168.128 56.3338 167.857 56.6378 167.663C56.9418 167.467 57.3068 167.369 57.733 167.369C58.1648 167.369 58.5241 167.467 58.8111 167.663C59.1009 167.857 59.3267 168.128 59.4886 168.477H59.5568C59.7244 168.139 59.9759 167.871 60.3111 167.672C60.6463 167.47 61.0483 167.369 61.517 167.369C62.1023 167.369 62.581 167.553 62.9531 167.919C63.3253 168.283 63.5114 168.849 63.5114 169.619V174H62.5057V169.619C62.5057 169.136 62.3736 168.791 62.1094 168.584C61.8452 168.376 61.5341 168.273 61.1761 168.273C60.7159 168.273 60.3594 168.412 60.1065 168.69C59.8537 168.966 59.7273 169.315 59.7273 169.739V174H58.7045V169.517C58.7045 169.145 58.5838 168.845 58.3423 168.618C58.1009 168.388 57.7898 168.273 57.4091 168.273C57.1477 168.273 56.9034 168.342 56.6761 168.482C56.4517 168.621 56.2699 168.814 56.1307 169.061C55.9943 169.305 55.9261 169.588 55.9261 169.909V174H54.9205ZM68.0092 174.136C67.4183 174.136 66.8999 173.996 66.4538 173.714C66.0107 173.433 65.6641 173.04 65.4141 172.534C65.1669 172.028 65.0433 171.437 65.0433 170.761C65.0433 170.08 65.1669 169.484 65.4141 168.976C65.6641 168.467 66.0107 168.072 66.4538 167.791C66.8999 167.51 67.4183 167.369 68.0092 167.369C68.6001 167.369 69.1172 167.51 69.5604 167.791C70.0064 168.072 70.353 168.467 70.6001 168.976C70.8501 169.484 70.9751 170.08 70.9751 170.761C70.9751 171.437 70.8501 172.028 70.6001 172.534C70.353 173.04 70.0064 173.433 69.5604 173.714C69.1172 173.996 68.6001 174.136 68.0092 174.136ZM68.0092 173.233C68.4581 173.233 68.8274 173.118 69.1172 172.888C69.407 172.658 69.6214 172.355 69.7607 171.98C69.8999 171.605 69.9695 171.199 69.9695 170.761C69.9695 170.324 69.8999 169.916 69.7607 169.538C69.6214 169.161 69.407 168.855 69.1172 168.622C68.8274 168.389 68.4581 168.273 68.0092 168.273C67.5604 168.273 67.1911 168.389 66.9013 168.622C66.6115 168.855 66.397 169.161 66.2578 169.538C66.1186 169.916 66.049 170.324 66.049 170.761C66.049 171.199 66.1186 171.605 66.2578 171.98C66.397 172.355 66.6115 172.658 66.9013 172.888C67.1911 173.118 67.5604 173.233 68.0092 173.233ZM74.9819 174.136C74.4364 174.136 73.9549 173.999 73.5373 173.723C73.1197 173.445 72.793 173.053 72.5572 172.547C72.3214 172.038 72.2035 171.438 72.2035 170.744C72.2035 170.057 72.3214 169.46 72.5572 168.955C72.793 168.449 73.1211 168.058 73.5415 167.783C73.962 167.507 74.4478 167.369 74.9989 167.369C75.4251 167.369 75.7617 167.44 76.0089 167.582C76.2589 167.722 76.4492 167.881 76.5799 168.06C76.7134 168.236 76.8171 168.381 76.891 168.494H76.9762V165.273H77.9819V174H77.0103V172.994H76.891C76.8171 173.114 76.712 173.264 76.5756 173.446C76.4393 173.625 76.2447 173.786 75.9918 173.928C75.739 174.067 75.4023 174.136 74.9819 174.136ZM75.1183 173.233C75.5217 173.233 75.8626 173.128 76.141 172.918C76.4194 172.705 76.631 172.411 76.7759 172.036C76.9208 171.658 76.9933 171.222 76.9933 170.727C76.9933 170.239 76.9222 169.811 76.7802 169.445C76.6381 169.075 76.4279 168.788 76.1495 168.584C75.8711 168.376 75.5273 168.273 75.1183 168.273C74.6921 168.273 74.337 168.382 74.0529 168.601C73.7717 168.817 73.56 169.111 73.418 169.483C73.2788 169.852 73.2092 170.267 73.2092 170.727C73.2092 171.193 73.2802 171.616 73.4222 171.997C73.5671 172.375 73.7802 172.676 74.0614 172.901C74.3455 173.122 74.6978 173.233 75.1183 173.233ZM82.7077 174.136C82.0771 174.136 81.533 173.997 81.0756 173.719C80.6211 173.438 80.2702 173.045 80.0231 172.543C79.7788 172.037 79.6566 171.449 79.6566 170.778C79.6566 170.108 79.7788 169.517 80.0231 169.006C80.2702 168.491 80.614 168.091 81.0543 167.804C81.4975 167.514 82.0146 167.369 82.6055 167.369C82.9464 167.369 83.283 167.426 83.6154 167.54C83.9478 167.653 84.2504 167.838 84.5231 168.094C84.7958 168.347 85.0131 168.682 85.1751 169.099C85.337 169.517 85.418 170.031 85.418 170.642V171.068H80.3725V170.199H84.3952C84.3952 169.83 84.3214 169.5 84.1737 169.21C84.0288 168.92 83.8214 168.692 83.5515 168.524C83.2844 168.357 82.9691 168.273 82.6055 168.273C82.2049 168.273 81.8583 168.372 81.5657 168.571C81.2759 168.767 81.0529 169.023 80.8967 169.338C80.7404 169.653 80.6623 169.991 80.6623 170.352V170.932C80.6623 171.426 80.7475 171.845 80.918 172.189C81.0913 172.53 81.3313 172.79 81.6381 172.969C81.945 173.145 82.3015 173.233 82.7077 173.233C82.9719 173.233 83.2106 173.196 83.4237 173.122C83.6396 173.045 83.8256 172.932 83.9819 172.781C84.1381 172.628 84.2589 172.437 84.3441 172.21L85.3157 172.483C85.2134 172.812 85.0415 173.102 84.8001 173.352C84.5586 173.599 84.2603 173.793 83.9052 173.932C83.5501 174.068 83.1509 174.136 82.7077 174.136ZM87.9535 165.273V174H86.9478V165.273H87.9535ZM94.4318 168.92L93.5284 169.176C93.4716 169.026 93.3878 168.879 93.277 168.737C93.169 168.592 93.0213 168.473 92.8338 168.379C92.6463 168.286 92.4062 168.239 92.1136 168.239C91.7131 168.239 91.3793 168.331 91.1122 168.516C90.848 168.697 90.7159 168.929 90.7159 169.21C90.7159 169.46 90.8068 169.658 90.9886 169.803C91.1705 169.947 91.4545 170.068 91.8409 170.165L92.8125 170.403C93.3977 170.545 93.8338 170.763 94.1207 171.055C94.4077 171.345 94.5511 171.719 94.5511 172.176C94.5511 172.551 94.4432 172.886 94.2273 173.182C94.0142 173.477 93.7159 173.71 93.3324 173.881C92.9489 174.051 92.5028 174.136 91.9943 174.136C91.3267 174.136 90.7741 173.991 90.3366 173.702C89.8991 173.412 89.6222 172.989 89.5057 172.432L90.4602 172.193C90.5511 172.545 90.723 172.81 90.9759 172.986C91.2315 173.162 91.5653 173.25 91.9773 173.25C92.446 173.25 92.8182 173.151 93.0938 172.952C93.3722 172.75 93.5114 172.509 93.5114 172.227C93.5114 172 93.4318 171.81 93.2727 171.656C93.1136 171.5 92.8693 171.384 92.5398 171.307L91.4489 171.051C90.8494 170.909 90.4091 170.689 90.1278 170.391C89.8494 170.089 89.7102 169.713 89.7102 169.261C89.7102 168.892 89.8139 168.565 90.0213 168.281C90.2315 167.997 90.517 167.774 90.8778 167.612C91.2415 167.45 91.6534 167.369 92.1136 167.369C92.7614 167.369 93.2699 167.511 93.6392 167.795C94.0114 168.08 94.2756 168.455 94.4318 168.92Z" fill="black"/>
<path d="M55.0568 209V200.273H58.0057C58.6875 200.273 59.2472 200.389 59.6847 200.622C60.1222 200.852 60.446 201.169 60.6562 201.572C60.8665 201.976 60.9716 202.435 60.9716 202.949C60.9716 203.463 60.8665 203.919 60.6562 204.317C60.446 204.714 60.1236 205.027 59.6889 205.254C59.2543 205.479 58.6989 205.591 58.0227 205.591H55.6364V204.636H57.9886C58.4545 204.636 58.8295 204.568 59.1136 204.432C59.4006 204.295 59.608 204.102 59.7358 203.852C59.8665 203.599 59.9318 203.298 59.9318 202.949C59.9318 202.599 59.8665 202.294 59.7358 202.033C59.6051 201.771 59.3963 201.57 59.1094 201.428C58.8224 201.283 58.4432 201.21 57.9716 201.21H56.1136V209H55.0568ZM59.1648 205.08L61.3125 209H60.0852L57.9716 205.08H59.1648ZM62.7326 209V200.273H67.9996V201.21H63.7894V204.159H67.7269V205.097H63.7894V208.062H68.0678V209H62.7326ZM70.2624 209H69.1545L72.359 200.273H73.4499L76.6545 209H75.5465L72.9386 201.653H72.8704L70.2624 209ZM70.6715 205.591H75.1374V206.528H70.6715V205.591ZM80.707 209H78.0138V200.273H80.8263C81.6729 200.273 82.3974 200.447 82.9996 200.797C83.6019 201.143 84.0636 201.642 84.3846 202.293C84.7056 202.94 84.8661 203.716 84.8661 204.619C84.8661 205.528 84.7042 206.311 84.3803 206.967C84.0565 207.621 83.5849 208.124 82.9656 208.476C82.3462 208.825 81.5934 209 80.707 209ZM79.0707 208.062H80.6388C81.3604 208.062 81.9585 207.923 82.4329 207.645C82.9073 207.366 83.261 206.97 83.494 206.456C83.7269 205.942 83.8434 205.33 83.8434 204.619C83.8434 203.915 83.7283 203.308 83.4982 202.8C83.2681 202.288 82.9244 201.896 82.467 201.624C82.0096 201.348 81.44 201.21 80.7582 201.21H79.0707V208.062ZM86.6388 200.273H87.9002L90.8661 207.517H90.9684L93.9343 200.273H95.1957V209H94.207V202.369H94.1218L91.3945 209H90.44L87.7127 202.369H87.6275V209H86.6388V200.273ZM97.3146 209V200.273H102.582V201.21H98.3714V204.159H102.309V205.097H98.3714V208.062H102.65V209H97.3146ZM105.083 209.068C104.873 209.068 104.692 208.993 104.542 208.842C104.391 208.692 104.316 208.511 104.316 208.301C104.316 208.091 104.391 207.911 104.542 207.76C104.692 207.609 104.873 207.534 105.083 207.534C105.293 207.534 105.474 207.609 105.624 207.76C105.775 207.911 105.85 208.091 105.85 208.301C105.85 208.44 105.815 208.568 105.744 208.685C105.675 208.801 105.583 208.895 105.467 208.966C105.353 209.034 105.225 209.068 105.083 209.068ZM107.655 209V202.455H108.626V203.477H108.712C108.848 203.128 109.068 202.857 109.372 202.663C109.676 202.467 110.041 202.369 110.467 202.369C110.899 202.369 111.259 202.467 111.545 202.663C111.835 202.857 112.061 203.128 112.223 203.477H112.291C112.459 203.139 112.71 202.871 113.045 202.672C113.381 202.47 113.783 202.369 114.251 202.369C114.837 202.369 115.315 202.553 115.688 202.919C116.06 203.283 116.246 203.849 116.246 204.619V209H115.24V204.619C115.24 204.136 115.108 203.791 114.844 203.584C114.58 203.376 114.268 203.273 113.911 203.273C113.45 203.273 113.094 203.412 112.841 203.69C112.588 203.966 112.462 204.315 112.462 204.739V209H111.439V204.517C111.439 204.145 111.318 203.845 111.077 203.618C110.835 203.388 110.524 203.273 110.143 203.273C109.882 203.273 109.638 203.342 109.411 203.482C109.186 203.621 109.004 203.814 108.865 204.061C108.729 204.305 108.661 204.588 108.661 204.909V209H107.655ZM120.556 209.136C120.011 209.136 119.529 208.999 119.112 208.723C118.694 208.445 118.367 208.053 118.131 207.547C117.896 207.038 117.778 206.438 117.778 205.744C117.778 205.057 117.896 204.46 118.131 203.955C118.367 203.449 118.695 203.058 119.116 202.783C119.536 202.507 120.022 202.369 120.573 202.369C120.999 202.369 121.336 202.44 121.583 202.582C121.833 202.722 122.023 202.881 122.154 203.06C122.288 203.236 122.391 203.381 122.465 203.494H122.55V200.273H123.556V209H122.585V207.994H122.465C122.391 208.114 122.286 208.264 122.15 208.446C122.013 208.625 121.819 208.786 121.566 208.928C121.313 209.067 120.977 209.136 120.556 209.136ZM120.692 208.233C121.096 208.233 121.437 208.128 121.715 207.918C121.994 207.705 122.205 207.411 122.35 207.036C122.495 206.658 122.567 206.222 122.567 205.727C122.567 205.239 122.496 204.811 122.354 204.445C122.212 204.075 122.002 203.788 121.724 203.584C121.445 203.376 121.102 203.273 120.692 203.273C120.266 203.273 119.911 203.382 119.627 203.601C119.346 203.817 119.134 204.111 118.992 204.483C118.853 204.852 118.783 205.267 118.783 205.727C118.783 206.193 118.854 206.616 118.996 206.997C119.141 207.375 119.354 207.676 119.636 207.901C119.92 208.122 120.272 208.233 120.692 208.233Z" fill="black"/>
<path d="M27.5 196H21.5C20.675 196 20.0075 196.675 20.0075 197.5L20 209.5C20 210.325 20.6675 211 21.4925 211H30.5C31.325 211 32 210.325 32 209.5V200.5L27.5 196ZM21.5 209.5V197.5H26.75V201.25H30.5V209.5H21.5Z" fill="#1038C7"/>
<path d="M55.0568 242V233.273H56.1136V241.062H60.1705V242H55.0568ZM62.8636 233.273V242H61.8068V233.273H62.8636ZM72.0053 236H70.9485C70.886 235.696 70.7766 235.429 70.6204 235.199C70.467 234.969 70.2795 234.776 70.0579 234.619C69.8391 234.46 69.5962 234.341 69.3292 234.261C69.0621 234.182 68.7837 234.142 68.494 234.142C67.9656 234.142 67.4869 234.276 67.0579 234.543C66.6317 234.81 66.2923 235.203 66.0394 235.723C65.7894 236.243 65.6644 236.881 65.6644 237.636C65.6644 238.392 65.7894 239.03 66.0394 239.55C66.2923 240.07 66.6317 240.463 67.0579 240.73C67.4869 240.997 67.9656 241.131 68.494 241.131C68.7837 241.131 69.0621 241.091 69.3292 241.011C69.5962 240.932 69.8391 240.814 70.0579 240.658C70.2795 240.499 70.467 240.304 70.6204 240.074C70.7766 239.841 70.886 239.574 70.9485 239.273H72.0053C71.9258 239.719 71.7809 240.118 71.5707 240.47C71.3604 240.822 71.0991 241.122 70.7866 241.369C70.4741 241.614 70.1232 241.8 69.734 241.928C69.3477 242.055 68.9343 242.119 68.494 242.119C67.7496 242.119 67.0877 241.938 66.5082 241.574C65.9286 241.21 65.4727 240.693 65.1403 240.023C64.8079 239.352 64.6417 238.557 64.6417 237.636C64.6417 236.716 64.8079 235.92 65.1403 235.25C65.4727 234.58 65.9286 234.062 66.5082 233.699C67.0877 233.335 67.7496 233.153 68.494 233.153C68.9343 233.153 69.3477 233.217 69.734 233.345C70.1232 233.473 70.4741 233.661 70.7866 233.908C71.0991 234.152 71.3604 234.45 71.5707 234.803C71.7809 235.152 71.9258 235.551 72.0053 236ZM73.7131 242V233.273H78.9801V234.21H74.7699V237.159H78.7074V238.097H74.7699V241.062H79.0483V242H73.7131ZM87.8054 233.273V242H86.7827L82.027 235.148H81.9418V242H80.8849V233.273H81.9077L86.6804 240.142H86.7656V233.273H87.8054ZM94.6928 235.455C94.6417 235.023 94.4343 234.688 94.0707 234.449C93.707 234.21 93.261 234.091 92.7326 234.091C92.3462 234.091 92.0082 234.153 91.7184 234.278C91.4315 234.403 91.207 234.575 91.0451 234.794C90.886 235.013 90.8065 235.261 90.8065 235.54C90.8065 235.773 90.8619 235.973 90.9727 236.141C91.0863 236.305 91.2312 236.443 91.4073 236.554C91.5835 236.662 91.7681 236.751 91.9613 236.822C92.1545 236.891 92.332 236.946 92.494 236.989L93.3803 237.227C93.6076 237.287 93.8604 237.369 94.1388 237.474C94.4201 237.58 94.6886 237.723 94.9442 237.905C95.2028 238.084 95.4158 238.314 95.5835 238.595C95.7511 238.876 95.8349 239.222 95.8349 239.631C95.8349 240.102 95.7113 240.528 95.4641 240.909C95.2198 241.29 94.8619 241.592 94.3903 241.817C93.9215 242.041 93.3519 242.153 92.6815 242.153C92.0565 242.153 91.5153 242.053 91.0579 241.851C90.6033 241.649 90.2454 241.368 89.984 241.007C89.7255 240.646 89.5792 240.227 89.5451 239.75H90.636C90.6644 240.08 90.7752 240.352 90.9684 240.568C91.1644 240.781 91.4116 240.94 91.7099 241.045C92.011 241.148 92.3349 241.199 92.6815 241.199C93.0849 241.199 93.4471 241.134 93.7681 241.003C94.0891 240.869 94.3434 240.685 94.5309 240.449C94.7184 240.21 94.8121 239.932 94.8121 239.614C94.8121 239.324 94.7312 239.088 94.5692 238.906C94.4073 238.724 94.1942 238.577 93.93 238.463C93.6658 238.349 93.3803 238.25 93.0735 238.165L91.9996 237.858C91.3178 237.662 90.7781 237.382 90.3803 237.018C89.9826 236.655 89.7837 236.179 89.7837 235.591C89.7837 235.102 89.9158 234.676 90.18 234.312C90.4471 233.946 90.805 233.662 91.2539 233.46C91.7056 233.256 92.2099 233.153 92.7667 233.153C93.3292 233.153 93.8292 233.254 94.2667 233.456C94.7042 233.655 95.0508 233.928 95.3065 234.274C95.565 234.621 95.7013 235.014 95.7156 235.455H94.6928ZM97.5724 242V233.273H102.839V234.21H98.6293V237.159H102.567V238.097H98.6293V241.062H102.908V242H97.5724Z" fill="black"/>
<path d="M27.5 229H21.5C20.675 229 20.0075 229.675 20.0075 230.5L20 242.5C20 243.325 20.6675 244 21.4925 244H30.5C31.325 244 32 243.325 32 242.5V233.5L27.5 229ZM21.5 242.5V230.5H26.75V234.25H30.5V242.5H21.5Z" fill="#1038C7"/>
</svg>
