<svg width="426" height="421" viewBox="0 0 426 421" fill="none" xmlns="http://www.w3.org/2000/svg">
<path d="M142.788 411.174C142.306 410.206 141.909 409.24 141.597 408.274C155.5 412.832 170.474 416.451 186.53 419.117C171.043 417.843 155.487 415.192 142.788 411.174ZM185.944 15.5929C197.307 10.5093 212.908 5.57328 228.84 2.668C249.063 3.96953 267.88 7.16057 285.21 12.1273L285.052 12.279C283.95 13.3374 282.891 13.967 281.889 14.5625C281.556 14.76 281.23 14.9537 280.911 15.1581C280.298 15.5509 279.681 16.007 279.227 16.63C278.813 17.198 278.568 17.856 278.511 18.6387C269.335 30.3076 260.199 36.1066 248.035 39.0278L247.999 39.0365L247.964 39.0478C246.967 39.367 245.927 39.6883 244.858 40.0187C240.961 41.2227 236.672 42.5478 232.639 44.336C227.485 46.6211 222.612 49.7159 219.34 54.43L219.304 54.4822L219.275 54.5385C217.86 57.2558 215.795 58.5543 213.39 58.8845C210.923 59.2229 208.006 58.5521 204.98 57.0988C202.025 55.6794 199.88 53.5842 198.824 51.2178C197.779 48.8759 197.765 46.1959 199.188 43.4619L199.208 43.424L199.224 43.3846C202.37 35.8291 203.309 29.4561 200.749 24.5385C198.473 20.1652 193.597 17.2529 185.944 15.5929ZM76.3923 166.368C73.1918 160.076 68.6999 156.714 63.4963 155.286C57.7807 153.717 51.3309 154.517 45.041 156.028L44.9375 156.053L44.8415 156.099C41.6599 157.627 39.2178 159.182 37.1646 161.154C35.1104 163.127 33.4892 165.477 31.8955 168.538L31.7826 168.756V169C31.7826 170.424 31.5972 171.86 31.4005 173.371L31.3966 173.402C31.204 174.881 31.0018 176.435 31.0018 178C31.0018 181.226 31.8627 184.503 35.2128 187.721L35.3282 187.832L35.4726 187.902C38.7944 189.497 41.4254 189.55 43.6813 188.684C45.8227 187.861 47.5089 186.241 49.0221 184.787L49.0903 184.721C51.5256 182.382 53.9138 182.054 56.5319 182.008C55.5562 187.969 58.7546 193.191 62.0102 198.056C62.3012 198.491 62.5929 198.923 62.8835 199.354C64.3692 201.554 65.8241 203.709 66.9803 205.931C68.355 208.572 69.2584 211.221 69.2584 214C69.2584 216.415 69.8889 218.219 71.1271 219.409C72.3578 220.591 74.0178 221 75.7236 221C79.0918 221 83.1741 219.406 86.3063 217.902L86.3401 217.885L86.3727 217.867C101.489 209.154 119.764 214.887 138.531 223.902C145.956 227.468 152.371 232.939 159.113 238.689C160.747 240.082 162.399 241.492 164.09 242.895C172.71 250.046 182.223 256.918 194.944 259.973C201.01 261.429 204.491 264.257 205.531 268.252C206.596 272.344 205.218 278.039 200.576 285.47L200.555 285.504L200.537 285.538C198.947 288.593 197.363 292.397 196.175 296.202C194.991 299.993 194.178 303.854 194.178 307C194.178 315.505 188.305 321.215 181.993 327.279L181.933 327.337L181.884 327.404C166.228 348.458 153.709 369.506 141.2 393.538C139.174 397.432 138.402 401.346 138.884 405.255C133.444 403.389 128.175 401.375 123.077 399.215C114.401 379.235 108.734 359.908 108.734 340V339.914L108.72 339.829C108.346 337.674 108.015 335.593 107.696 333.578C106.694 327.269 105.797 321.616 103.994 316.422C101.591 309.497 97.5795 303.346 89.6495 297.241C81.8478 289.744 74.223 281.646 70.8044 272.524C69.1017 267.981 68.4479 263.193 69.3403 258.094C70.2337 252.991 72.6873 247.514 77.2926 241.616L77.349 241.543L77.3914 241.462L77.4492 241.351C78.9669 238.435 80.5917 235.314 81.0068 232.522C81.2219 231.076 81.1285 229.635 80.4737 228.32C79.8155 226.998 78.6488 225.921 76.9373 225.099L76.856 225.06L76.769 225.036C67.1263 222.389 59.9722 216.77 52.6057 210.983C51.8017 210.351 50.9951 209.718 50.1825 209.086C41.9599 202.692 33.1884 196.542 20.4098 195.007L20.3504 195H20.2906C17.4454 195 13.7625 193.613 10.7843 191.11C8.01102 188.779 5.95224 185.57 5.70131 181.781C5.75943 178.888 5.87784 175.936 6.10785 172.886C6.37671 171.711 6.67322 170.478 6.97241 169.234L6.98122 169.197C7.69617 166.225 8.42521 163.193 8.77752 160.902C8.95237 159.765 9.04907 158.724 8.97505 157.938C8.93889 157.553 8.85336 157.117 8.62916 156.749C8.57768 156.665 8.51889 156.584 8.45311 156.51C14.6469 128 29.5685 97.4177 52.6722 71.034C63.3002 58.8972 75.6543 47.6554 89.6783 37.9187C106.949 37.1786 121.452 31.5209 133.151 25.9016C139.163 23.014 145.185 23.0002 151.456 23.0002C157.561 23.0002 163.607 24.4694 168.093 27.3423C172.551 30.197 175.44 34.4068 175.44 40.0002V40.1688L175.495 40.328C176.187 42.3223 176.014 44.1152 175.242 45.7635C174.455 47.442 173.026 49.0127 171.146 50.4573C167.415 53.3248 162.144 55.5186 157.525 57.0067C157.517 57.0072 157.508 57.0078 157.499 57.0084C157.389 57.016 157.236 57.0308 157.056 57.0596C156.7 57.1166 156.21 57.2323 155.708 57.4738C155.202 57.7167 154.66 58.0987 154.246 58.6957C153.825 59.3009 153.579 60.0668 153.579 61.0002V61.7885L154.346 61.9725C160.215 63.382 165.484 68.3663 168.917 74.9619C172.341 81.5415 173.845 89.5572 172.338 96.7964L172.317 96.8972V97.0002C172.317 98.4284 172.129 99.3902 171.824 100.049C171.535 100.673 171.122 101.07 170.542 101.349C169.926 101.645 169.094 101.819 167.967 101.91C166.9 101.995 165.652 102 164.179 102C161.32 100.58 159.141 98.4954 157.224 96.654L157.188 96.6201C156.24 95.7091 155.322 94.8273 154.439 94.1786C153.551 93.5261 152.557 93.0002 151.456 93.0002C151.041 93.0002 150.599 93.1576 150.228 93.3186C149.822 93.4947 149.355 93.7421 148.847 94.0393C147.828 94.635 146.569 95.4745 145.169 96.4652C142.366 98.4495 138.934 101.088 135.611 103.716C132.286 106.346 129.06 108.976 126.666 110.947C125.469 111.933 124.479 112.754 123.789 113.33C123.72 113.387 123.654 113.442 123.591 113.494C123.339 113.704 123.136 113.874 122.989 113.998L122.778 114.174L122.756 114.193C104.506 125.886 86.1097 140.519 76.3923 166.368ZM180.712 1.58482C157.261 4.39034 135.977 10.7979 116.954 19.8175C136.866 10.1054 158.544 3.35364 180.712 1.58482ZM24.2083 307.026C14.0389 286.88 8.88107 265.691 6.70973 242.642C10.1983 267.961 16.7089 290.795 26.3116 311.046C25.5877 309.71 24.8868 308.371 24.2083 307.026ZM83.6877 377.245C78.5434 373.531 73.6595 369.595 69.0344 365.44C73.6118 369.385 78.4903 373.318 83.6877 377.245ZM374.246 349.828C360.318 365.812 342.758 379.78 320.648 391.052C336.546 381.336 351.213 369.481 364.538 355.695L365.235 354.974L364.512 354.279C361.409 351.298 358.383 348.39 355.337 342.538C354.292 340.53 353.214 338.53 352.135 336.528C343.461 320.437 334.749 304.277 342.871 283.413C344.55 280.153 344.528 276.902 343.707 273.748C342.911 270.69 341.345 267.657 339.829 264.744C339.749 263.088 338.92 261.495 338.218 260.148L338.161 260.038C337.348 258.477 336.712 257.207 336.712 256V255.812L336.644 255.637L336.62 255.574C334.298 249.627 332.524 245.084 330.741 241.705C328.944 238.3 327.074 235.951 324.49 234.503C321.92 233.063 318.781 232.593 314.621 232.641C310.474 232.688 305.166 233.255 298.187 234L298.13 234.006L298.117 234.007C285.958 235.467 276.118 231.096 269.298 223.816C262.457 216.515 258.638 206.265 258.638 196C258.638 185.726 261.685 177.652 266.305 169.886C268.621 165.993 271.329 162.182 274.254 158.202C274.972 157.224 275.704 156.235 276.446 155.233C278.698 152.192 281.043 149.025 283.385 145.654C283.937 145.132 284.582 144.612 285.287 144.044C285.514 143.861 285.748 143.673 285.987 143.478C286.969 142.676 288.009 141.781 288.855 140.765C289.706 139.744 290.401 138.553 290.635 137.149C290.871 135.73 290.619 134.199 289.755 132.538L289.736 132.504L289.716 132.47C285.103 125.086 284.553 119.532 286.99 115.519C289.481 111.417 295.332 108.478 304.641 106.988L305.818 106.799L305.427 105.672C304.689 103.545 304.311 101.227 303.922 98.8478L303.908 98.7609C303.521 96.39 303.117 93.944 302.295 91.7712C301.462 89.5709 300.179 87.5895 298 86.1768C296.026 84.8968 293.406 84.1416 289.909 84.0182C290.217 80.4611 292.187 77.9485 294.635 75.5964C295.303 74.9546 295.998 74.3335 296.701 73.7048L296.727 73.6813C297.417 73.0644 298.117 72.4389 298.783 71.7995C299.976 70.6535 301.105 69.4206 301.942 68.0086C303.879 68.0654 305.315 68.4062 306.417 68.8979C307.62 69.4342 308.478 70.1731 309.179 71.0151C309.828 71.794 310.332 72.6441 310.866 73.5467C310.924 73.6437 310.982 73.7414 311.04 73.8396C311.623 74.8191 312.269 75.8666 313.159 76.7214L313.227 76.7868C314.74 78.2406 316.426 79.8608 318.568 80.6837C320.824 81.5505 323.455 81.4971 326.776 79.9016L326.921 79.8323L327.036 79.7214L327.111 79.6499C328.618 78.2018 330.309 76.5782 331.17 74.5096C332.087 72.3086 332.023 69.7462 330.353 66.5385L330.311 66.4571L330.255 66.3848C327.964 63.4508 326.901 61.1681 326.598 59.3368C326.302 57.5506 326.715 56.1129 327.572 54.7955C328.456 53.4375 329.81 52.2089 331.416 50.9003C331.806 50.5823 332.212 50.2588 332.627 49.9285C333.781 49.0092 335 48.0374 336.127 46.9849C337.826 46.857 338.767 45.9527 339.503 45.2458L339.528 45.2214C340.293 44.4868 340.821 44.0002 341.958 44.0002H345.374L342.498 42.1581L342.426 42.1119C325.921 31.5424 309.305 20.9012 292.653 14.399C322.22 23.9865 347.203 38.9605 367.176 58.7112C404.1 95.2242 424.021 148.179 424.03 213.955C419.413 264.786 406.516 312.793 374.246 349.828ZM405.206 139.616L406.468 138H404.418C398.4 138 393.114 135.836 387.622 133.575L387.547 133.544C382.131 131.315 376.509 129 370.065 129C359.542 129 353.324 131.113 346.205 133.532C344.741 134.03 343.239 134.54 341.653 135.048L340.241 135.5L341.19 136.64C344.475 140.585 349.545 143.478 355.351 145.432C361.17 147.391 367.809 148.435 374.33 148.625C380.851 148.815 387.295 148.152 392.726 146.668C398.126 145.193 402.668 142.866 405.206 139.616Z" fill="#F3F3F3" stroke="#626262" stroke-width="2"/>
<path d="M129 60C129 69.1042 116.812 85.3125 111.469 92C110.187 93.5938 107.812 93.5938 106.531 92C101.188 85.3125 89 69.1042 89 60C89 48.9583 97.9583 40 109 40C120.042 40 129 48.9583 129 60Z" fill="#1038C7"/>
<path d="M357 60C357 69.1042 344.812 85.3125 339.469 92C338.187 93.5938 335.812 93.5938 334.531 92C329.188 85.3125 317 69.1042 317 60C317 48.9583 325.958 40 337 40C348.042 40 357 48.9583 357 60Z" fill="#1038C7"/>
<path d="M40 100C40 109.104 27.8125 125.312 22.4687 132C21.1875 133.594 18.8125 133.594 17.5312 132C12.1875 125.312 0 109.104 0 100C0 88.9583 8.95833 80 20 80C31.0417 80 40 88.9583 40 100Z" fill="#1038C7"/>
</svg>
