<?xml version="1.0" encoding="UTF-8" standalone="no"?>
<svg
   xmlns:dc="http://purl.org/dc/elements/1.1/"
   xmlns:cc="http://creativecommons.org/ns#"
   xmlns:rdf="http://www.w3.org/1999/02/22-rdf-syntax-ns#"
   xmlns:svg="http://www.w3.org/2000/svg"
   xmlns="http://www.w3.org/2000/svg"
   viewBox="0 0 263.51367 372.18307"
   height="372.18307"
   width="263.51367"
   id="svg2"
   version="1.1">
  <metadata
     id="metadata8">
    <rdf:RDF>
      <cc:Work
         rdf:about="">
        <dc:format>image/svg+xml</dc:format>
        <dc:type
           rdf:resource="http://purl.org/dc/dcmitype/StillImage" />
        <dc:title></dc:title>
      </cc:Work>
    </rdf:RDF>
  </metadata>
  <defs
     id="defs6" />
  <g
     transform="translate(-109.36183,-36.741665)"
     id="g10">
    <g
       transform="translate(109.18724,-4.4384316)"
       id="g843">
      <path
         id="path845"
         d="m 18.159616,384.85022 -17.79336182,-28.51307 -0.0958334,-0.24973 -0.0958334,-0.24974 8.60070602,-6.97795 8.6007056,-6.97797 4.447183,-3.70998 4.447185,-3.71 3.424815,-2.99681 3.424817,-2.99679 3.264,-3.02588 3.264,-3.02589 4.032,-4.10772 4.031999,-4.10774 2.186679,-2.49247 2.186678,-2.49249 1.580087,-1.92 1.580089,-1.92 2.090444,-2.784 2.090442,-2.784 1.741914,-2.592 1.741915,-2.592 1.321797,-2.112 1.321797,-2.112 2.657518,-4.704 2.65752,-4.704 2.758848,-5.568 2.758848,-5.568 1.483054,-3.36 1.483054,-3.36 1.709084,-4.1207 1.709082,-4.1207 2.084678,-5.5753 2.084679,-5.5753 1.447818,-4.224 1.447818,-4.224 1.42866,-4.416 1.428659,-4.416 0.68034,-2.17534 0.680341,-2.17532 -2.146923,0.11626 -2.146921,0.11625 -1.419828,0.11008 -1.419829,0.11005 0.11544,-0.30082 0.115438,-0.30083 2.696391,-8.2292 2.696388,-8.22917 v -0.21138 -0.21135 l 1.104,-0.21494 1.104,-0.21493 2.755494,-0.67503 2.755489,-0.67504 2.80896,-0.97029 2.80895,-0.97031 2.0003,-0.85436 2.0003,-0.85438 2.44374,-1.22458 2.44375,-1.22455 1.70351,-1.00261 1.70351,-1.00262 2.29921,-1.55178 2.29922,-1.5518 0.2044,-0.13094 0.20439,-0.13094 1.52839,0.97656 1.52839,0.97657 1.93658,1.02637 1.93659,1.02638 h 0.4879 0.48791 l 0.22938,-0.27639 0.22938,-0.2764 -0.0619,-0.53238 -0.0619,-0.53238 -2.4,-1.32405 -2.4,-1.32404 -1.70643,-1.14044 -1.70642,-1.14044 -1.36558,-1.11689 -1.36557,-1.11689 -1.94468,-2.02032 -1.94468,-2.02032 -1.46636,-1.93628 -1.46635,-1.93627 -1.62972,-2.50126 -1.62971,-2.50125 h -0.46554 -0.46553 l -0.30172,0.30171 -0.30171,0.30171 v 0.40218 0.40216 l 0.89882,1.45612 0.89883,1.45612 1.33272,1.893 1.33272,1.89301 1.39427,1.65899 1.39428,1.659 1.17418,1.14599 1.17418,1.14598 v 0.14622 0.14622 l -2.256,1.51127 -2.256,1.51126 -1.89588,1.09439 -1.89587,1.09438 -1.47386,0.74105 -1.47386,0.74104 -2.10227,0.89821 -2.10226,0.89822 -2.4,0.81919 -2.400003,0.81916 -1.68231,0.44139 -1.682308,0.44141 -0.101218,-0.10122 -0.101217,-0.10122 1.242063,-3.81646 1.242062,-3.81648 2.209179,-6.912 2.209182,-6.912 1.66018,-5.28 1.66019,-5.28 -0.21476,-1.34801 -0.21476,-1.348 v -2.45606 -2.45606 l 0.31556,-1.85994 0.31556,-1.85993 0.6319,-1.93322 0.63191,-1.93323 0.88774,-1.76759 0.88774,-1.76759 0.83208,-1.29119 0.83209,-1.29118 1.35049,-1.728 1.35049,-1.728 1.6226,-1.79052 1.62261,-1.79051 1.71047,-1.54867 1.71048,-1.54867 1.69885,-1.31682 1.69885,-1.31681 h 0.23077 0.23076 l 1.23839,0.98385 1.23838,0.98385 0.83919,0.79215 0.8392,0.79215 1.45172,1.728 1.45173,1.728 1.22206,1.86382 1.22207,1.86381 1.22545,2.55219 1.22545,2.55218 0.80725,2.4369 0.80724,2.43691 1.29388,0.86037 1.29387,0.86037 1.32044,0.66155 1.32045,0.66155 0.432,0.13411 0.432,0.13411 v -0.51681 -0.51682 l -0.47223,-2.33222 -0.47222,-2.33223 -0.78624,-2.29989 -0.78623,-2.2999 -1.22873,-2.496 -1.22873,-2.496 -1.18164,-1.824 -1.18164,-1.824 -1.0739,-1.344 -1.07389,-1.344 -1.21017,-1.35696 -1.21017,-1.35695 -1.53511,-1.33082 -1.5351,-1.33081 v -0.1123 -0.11231 l 2.448,-1.17233 2.448,-1.17233 1.44,-0.56414 1.44,-0.56413 2.4,-0.7772 2.4,-0.7772 1.92,-0.48222 1.92,-0.48221 1.728,-0.33696 1.728,-0.33696 3.36,-0.0106 3.35999,-0.0106 1.152,0.25178 1.152,0.25179 1.248,0.39867 1.248,0.39868 1.31777,0.65838 1.31776,0.65839 1.0885,0.74299 1.08848,0.743 2.0181,2.07563 2.0181,2.07563 1.45159,1.824 1.4516,1.824 1.14481,1.728 1.14481,1.728 1.41409,2.304 1.41409,2.304 0.8045,1.056 0.8045,1.056 0.96036,0.89697 0.96037,0.89698 1.17081,0.59102 1.17081,0.59103 h 0.25582 0.25581 l 0.59038,-0.624 0.59039,-0.624 1.41653,-1.92 1.41654,-1.92 1.3257,-2.208 1.32571,-2.208 1.606,-3.264 1.606,-3.264 1.3201,-3.36 1.32011,-3.36 1.43585,-4.42376 1.43586,-4.42375 0.62534,-1.24025 0.62536,-1.24024 0.72707,-1.07188 0.72707,-1.07188 1.20816,-1.19696 1.20814,-1.19696 1.29141,-0.85852 1.29139,-0.85853 1.44468,-0.66748 1.44467,-0.66748 1.78243,-0.47385 1.78243,-0.47385 2.49483,-0.29131 2.49481,-0.2913 h 0.0152 0.0152 l 0.40028,-0.816 0.40028,-0.816 0.80997,-1.92 0.80999,-1.920002 0.99641,-2.112 0.9964,-2.112 1.11546,-2.016 1.11548,-2.016 1.25739,-1.909173 1.25741,-1.909173 1.429,-1.495714 1.429,-1.495715 1.03674,-0.507229 1.03674,-0.50723 0.95203,0.09148 0.95203,0.09148 0.76895,0.508852 0.76892,0.508852 0.38778,0.760137 0.3878,0.760136 v 1.068445 1.068448 l -0.37611,1.070096 -0.37611,1.070097 -0.58389,0.909915 -0.58389,0.909914 v 0.392441 0.392438 l 2.28062,-0.73037 2.28061,-0.73037 2.19698,-0.492739 2.19696,-0.492741 1.87784,-0.194721 1.87781,-0.19472 1.19522,0.190934 1.1952,0.190936 0.65739,0.226326 0.65737,0.226326 0.73121,0.48025 0.7312,0.480251 0.50367,0.85945 0.50367,0.859449 0.0148,1.298028 0.0148,1.298027 0.63174,0.786104 0.63172,0.786104 0.51106,0.985069 0.51109,0.985067 0.0752,1.181315 0.0752,1.18133 -0.27289,0.6651 -0.27291,0.6651 0.13801,0.48 0.13801,0.48 0.0173,1.536 0.0173,1.536 -0.46957,1.00858 -0.46956,1.00857 -0.95466,0.95468 -0.95468,0.95467 -1.5979,1.03573 -1.59788,1.03573 -3.264,1.81633 -3.264,1.81634 -1.536,0.95061 -1.536,0.95061 -0.52397,0.95407 -0.52399,0.95408 -0.56661,1.46931 -0.56663,1.46931 -0.95827,3.13869 -0.95828,3.13869 -1.85107,6.32302 -1.85107,6.32302 -1.25658,3.85298 -1.2566,3.85298 -1.25355,3.36 -1.25355,3.36 -1.24278,2.88 -1.24279,2.88 -1.41124,2.784 -1.41126,2.784 -1.27137,2.112 -1.27134,2.112 -1.52105,2.112 -1.52106,2.112 -1.48746,1.67977 -1.48748,1.67977 -1.536,1.35615 -1.536,1.35614 -1.70725,1.14989 -1.70724,1.1499 -1.75604,0.8428 -1.75601,0.84281 -2.87272,0.95598 -2.87274,0.95599 -2.4,0.52625 -2.4,0.52626 -1.056,0.80011 -1.056,0.80011 -1.152,0.77291 -1.152,0.77292 -1.44,0.81479 -1.44,0.81479 -1.92,0.82005 -1.92,0.82007 -2.784,0.90943 -2.784,0.90943 -2.76117,0.645 -2.76117,0.64501 -0.0805,0.0805 -0.0805,0.0805 -1.04648,4.58231 -1.04648,4.5823 -1.03938,4.02226 -1.03938,4.02227 0.89294,0.77773 0.89294,0.77774 1.92262,1.70442 1.92262,1.70444 4.05758,3.81704 4.05758,3.81703 3.34341,3.50252 3.34341,3.50254 2.10301,2.30921 2.10301,2.30922 2.38739,2.77258 2.3874,2.77257 3.02404,3.79696 3.02401,3.79693 2.35959,3.21727 2.35958,3.21726 2.69703,4.032 2.69704,4.032 1.85963,3.09854 1.85964,3.09853 1.43674,2.59275 1.43675,2.59273 1.48295,2.94874 1.48295,2.94871 1.40335,3.072 1.40335,3.072 -0.71472,0.64111 -0.71472,0.64111 -1.51849,0.93705 -1.51849,0.93706 -0.17662,0.0589 -0.17664,0.0589 0.80192,1.81895 0.80191,1.81897 1.15584,2.88 1.15584,2.88 1.41364,3.8982 1.41362,3.89817 1.15993,3.75639 1.15991,3.7564 0.85198,3.28942 0.852,3.28942 0.6661,3.264 0.66611,3.264 0.59885,4.032 0.59883,4.032 0.86995,5.184 0.86995,5.184 0.85682,4.224 0.85682,4.224 0.76207,3.14995 0.76208,3.14994 0.78924,2.70606 0.78925,2.70605 0.9601,2.592 0.96011,2.592 1.05652,2.112 1.05652,2.112 0.82043,1.27148 0.82042,1.27148 1.31368,1.39256 1.31367,1.39256 1.05805,0.71739 1.05808,0.71737 0.99659,0.50403 0.9966,0.50404 1.4994,0.59242 1.4994,0.59243 1.44,0.8919 1.44,0.89188 1.56064,1.54224 1.56063,1.54222 1.11978,1.72345 1.11979,1.72343 0.73503,1.70492 0.73503,1.70492 0.31669,1.31952 0.31666,1.3195 -0.11191,0.11192 -0.11192,0.11194 -30.78822,0.65186 -30.78819,0.65187 -2.976,0.0277 -2.976,0.0277 -0.12789,-0.83536 -0.1279,-0.83537 -1.07281,-7.296 -1.07282,-7.296 -0.77613,-5.184 -0.77614,-5.184 -0.86599,-5.184 -0.86599,-5.184 -1.14554,-5.74303 -1.14553,-5.74302 -0.95119,-3.91139 -0.95118,-3.91138 -1.07097,-3.78559 -1.07096,-3.78559 -1.15951,-3.456 -1.15951,-3.456 -1.20822,-3.072 -1.20822,-3.072 -1.00459,-2.304 -1.00459,-2.304 -2.2674,-4.512 -2.26739,-4.512 -2.14997,-3.744 -2.14996,-3.744 -1.73779,-2.784 -1.73779,-2.784 -2.49422,-3.744 -2.49422,-3.744 -1.92341,-2.688 -1.92342,-2.688 -2.59516,-3.456 -2.59516,-3.456 -3.15929,-3.936 -3.15929,-3.936 -3.06418,-3.61614 -3.06417,-3.61615 -0.14192,0.16015 -0.14192,0.16014 -0.96813,2.88 -0.96812,2.88 -1.29542,3.456 -1.29542,3.456 -1.3921,3.36 -1.39211,3.36 -1.4602,3.21831 -1.46021,3.2183 -1.54065,3.07678 -1.54066,3.07678 -1.65042,3.01692 -1.65042,3.01691 -1.84083,3.072 -1.84084,3.072 -2.12475,3.168 -2.12475,3.168 -0.83204,1.12386 -0.83204,1.12385 -0.60327,-0.1152 -0.60328,-0.11522 -2.05357,-1.04041 -2.05358,-1.04041 -1.48141,2.04776 -1.4814,2.04777 -2.22284,2.86153 -2.22284,2.86151 -2.095002,2.51449 -2.095002,2.51447 -2.227179,2.48164 -2.227177,2.48166 -2.976,2.99961 -2.976,2.99962 -2.074897,1.85964 -2.074898,1.85961 -4.261102,3.50439 -4.261102,3.50438 -3.264,2.80061 -3.264,2.8006 -2.304,2.06723 -2.304,2.06723 -3.725595,3.67889 -3.725594,3.67889 -1.942242,2.208 -1.942243,2.208 -1.173129,1.54241 -1.17313,1.5424 -0.862717,1.3376 -0.862716,1.33759 -0.699824,1.39417 -0.699823,1.39417 -0.373834,1.00583 -0.373831,1.00583 -0.291823,1.248 -0.291823,1.248 -0.0028,1.97007 -0.0028,1.97006 0.307822,1.86994 0.307822,1.86993 -0.112567,2.016 -0.112566,2.016 -0.468138,1.728 -0.468139,1.728 -0.604009,1.344 -0.604008,1.344 -1.221948,1.824 -1.221949,1.824 -0.894044,1.01029 -0.894045,1.01028 -0.342626,0.18336 -0.342627,0.18336 -17.793361,-28.51306 z m 220.508764,5.988 2.00361,-1.80174 1.26014,-1.41426 1.26011,-1.41423 0.45314,-0.62014 0.45312,-0.62014 -0.35101,-0.38786 -0.35102,-0.38786 h -0.13365 -0.13365 l -1.78128,1.99131 -1.78128,1.99131 -1.99131,1.78128 -1.99131,1.78128 v 0.1497 0.14968 l 0.30171,0.30173 0.30173,0.30171 h 0.23866 0.23867 z m -4.37668,-4.74952 1.58029,-1.36729 2.016,-1.31234 2.016,-1.31232 0.36325,-0.2581 0.36322,-0.25811 -0.22598,-0.42228 -0.226,-0.42227 h -0.34136 -0.34138 l -1.33186,0.79866 -1.33189,0.79868 -1.344,1.0111 -1.344,1.01111 -1.104,0.98958 -1.104,0.98959 v 0.33024 0.33024 l 0.2304,0.2304 0.2304,0.2304 h 0.15731 0.1573 z m -191.224754,0.002 0.194164,-0.30991 -0.114332,-0.29794 -0.114334,-0.29795 -1.116223,-0.21757 -1.116222,-0.2176 -1.824,-0.40055 -1.824,-0.40055 -2.083601,-0.65902 -2.083604,-0.65904 -0.268396,0.10299 -0.268399,0.10299 v 0.47927 0.47927 l 0.352068,0.18843 0.352069,0.18843 2.268503,0.68761 2.268503,0.68761 2.227428,0.46562 2.227429,0.46562 0.364391,-0.0389 0.364391,-0.0389 z m 161.413044,-4.50029 5.088,-0.86509 13.344,-1.91019 13.344,-1.91021 0.60847,-0.10621 0.60849,-0.10622 -0.58583,-1.5782 -0.58583,-1.57822 -0.8458,-2.77417 -0.8458,-2.77419 -0.66689,-2.6482 -0.66692,-2.64819 -0.67801,-3.12164 -0.67801,-3.12161 -0.84132,-4.608 -0.84131,-4.608 -0.87692,-5.76 -0.87692,-5.76 -0.30599,-1.824 -0.30599,-1.824 -0.7694,-3.54059 -0.7694,-3.5406 -1.04554,-3.7554 -1.04555,-3.75541 -1.41689,-4.224 -1.4169,-4.224 -1.33382,-3.456 -1.33383,-3.456 -1.19299,-2.82553 -1.19297,-2.82553 -3.39306,1.69817 -3.39307,1.69816 -3.36,1.53368 -3.36,1.53365 -3.24274,1.38649 -3.24275,1.38649 -4.05325,1.59906 -4.05326,1.59905 -3.6119,1.26699 -3.61191,1.26699 -2.83927,0.84706 -2.83927,0.84705 -0.70082,0.13148 -0.70083,0.13148 v 0.0935 0.0934 l 2.93247,5.88519 2.93248,5.88518 1.22653,2.976 1.22653,2.976 1.13256,3.072 1.13257,3.072 1.25118,4.032 1.25117,4.032 1.13003,4.416 1.13004,4.416 0.77779,3.51445 0.77778,3.51446 0.94303,5.02954 0.94302,5.02955 0.88639,5.568 0.88637,5.568 0.084,0.40149 0.084,0.40149 2.35601,-0.45377 2.35599,-0.45379 z m 12.768,-67.93328 -0.96,-0.4512 -1.03891,-0.78597 -1.03889,-0.78595 -0.83858,-1.01697 -0.83858,-1.01697 0.0535,-0.48 0.0535,-0.48 0.48171,-0.0563 0.48171,-0.0563 0.31814,0.53628 0.31817,0.53629 1.02415,1.01866 1.02412,1.01867 1.28619,0.61333 1.28619,0.61334 0.12167,0.34522 0.12167,0.34521 -0.23136,0.27879 -0.23138,0.27878 -0.21648,-0.002 -0.2165,-0.002 -0.96,-0.4512 z m -173.075369,67.84018 0.371378,-0.19876 v -0.38006 -0.38006 l -0.624,-0.3908 -0.624,-0.39078 -1.773468,-0.86135 -1.773469,-0.86133 -2.104804,-0.69663 -2.104806,-0.69664 -0.306992,0.25479 -0.306991,0.25478 0.05726,0.38767 0.05727,0.38768 2.304,0.79103 2.304,0.79102 2.016,1.06794 2.016,1.06794 0.06062,0.0262 0.06062,0.0262 z m 9.09474,-12.42775 2.834515,-2.91773 3.101061,-2.86215 3.101061,-2.86212 3.072,-2.66246 3.072,-2.66249 3.250425,-2.68727 3.250424,-2.68727 2.893576,-2.39787 2.893574,-2.39789 4.005884,-3.93811 4.005884,-3.93813 2.212704,-2.44715 2.212704,-2.44716 2.682194,-3.21684 2.682194,-3.21685 3.168779,-4.20438 3.16879,-4.20437 -1.12557,-0.68573 -1.12556,-0.68573 -3.456003,-2.28887 -3.456,-2.28887 -2.592,-1.83251 -2.592,-1.8325 -3.326609,-2.47697 -3.326609,-2.47696 -3.368371,-2.69053 -3.36837,-2.69054 -2.137021,-1.83818 -2.137019,-1.83819 -2.231864,-2.07788 -2.231864,-2.07789 -1.391228,2.32668 -1.391228,2.32665 -2.247294,3.38439 -2.247297,3.38438 -2.314372,3.072 -2.314372,3.072 -2.164475,2.592 -2.164474,2.592 -2.449497,2.688 -2.449498,2.688 -4.577268,4.52197 -4.577268,4.52198 -2.112,1.9132 -2.112,1.91323 -2.976,2.60436 -2.976,2.60437 -4.32,3.61119 -4.32,3.61121 -0.05503,0.13834 -0.05503,0.13835 2.842499,3.2429 2.8425,3.2429 2.884948,3.456 2.88495,3.456 2.881392,3.552 2.881392,3.552 5.135072,6.37905 5.135074,6.37906 1.879544,-2.25746 1.879544,-2.25746 z m 37.180115,-42.55484 -0.22354,-0.26934 -0.106938,-1.60266 -0.106938,-1.60265 0.306505,-1.44 0.306503,-1.44 0.528464,-1.056 0.528465,-1.056 h 0.363074 0.363076 l 0.199791,0.31674 0.199791,0.31673 -0.508894,1.13397 -0.508892,1.13397 -0.223492,1.0421 -0.223489,1.0421 0.109044,1.68311 0.109044,1.68313 -0.358903,0.19208 -0.358906,0.19207 h -0.08511 -0.08511 z m 22.691164,-11.15465 1.82476,-2.688 1.39643,-2.208 1.39643,-2.208 2.07762,-3.62269 2.07763,-3.62268 2.19481,-4.34532 2.19481,-4.34531 1.67295,-3.744 1.67296,-3.744 1.51026,-3.77495 1.51027,-3.77497 1.12755,-3.13703 1.12756,-3.13705 1.20454,-3.648 1.20454,-3.648 0.0801,-0.14181 0.0801,-0.14183 1.96902,2.25383 1.96901,2.25381 2.99013,3.57053 2.99013,3.57055 2.57672,3.24545 2.57671,3.24547 2.12053,2.784 2.12052,2.784 2.71489,3.80078 2.7149,3.80077 2.37276,3.59123 2.37277,3.59122 1.82697,2.976 1.82697,2.976 1.01042,1.77915 1.01042,1.77913 0.13853,0.0856 0.13853,0.0856 2.09405,-0.55396 2.09405,-0.55394 2.208,-0.69266 2.208,-0.69268 2.784,-0.98152 2.784,-0.98153 3.36,-1.29857 3.36,-1.29857 3.05589,-1.27647 3.0559,-1.27646 3.8561,-1.73551 3.85611,-1.73552 4.704,-2.38117 4.704,-2.38114 1.66689,-1.06484 1.6669,-1.06483 -0.29612,-0.71209 -0.2961,-0.71207 -1.35304,-2.88 -1.35305,-2.88 -1.62681,-3.072 -1.62682,-3.072 -1.15854,-2.016 -1.15855,-2.016 -1.34289,-2.208 -1.34288,-2.208 -2.42781,-3.648 -2.4278,-3.648 -2.08445,-2.88 -2.08444,-2.88 -2.22524,-2.86506 -2.22525,-2.86506 -2.89651,-3.47094 -2.8965,-3.47094 -2.72982,-3.02864 -2.72981,-3.02867 -3.18307,-3.30733 -3.18307,-3.30736 -3.67061,-3.52667 -3.67061,-3.52666 -2.94564,-2.61734 -2.94565,-2.61733 -0.51035,-0.30312 -0.51036,-0.30312 -32.44799,1.6807 -32.448003,1.68071 -1.152,0.0624 -1.152,0.0624 -0.728606,2.304 -0.728605,2.304 -2.492325,7.584 -2.492325,7.584 -1.808127,4.94756 -1.80813,4.94755 -2.021059,5.05229 -2.021061,5.05228 -1.936178,4.40016 -1.936176,4.40016 -2.858421,5.76 -2.858419,5.76 -1.558777,2.784 -1.558775,2.784 1.787493,1.69264 1.787492,1.69261 2.688,2.35538 2.687999,2.35538 2.976,2.3927 2.976,2.39269 3.744,2.79339 3.744,2.79339 2.912715,2.04332 2.912715,2.0433 3.039283,1.98854 3.03929,1.98855 2.016,1.21499 2.016,1.215 1.61082,0.84263 1.61083,0.84265 0.14212,-0.15558 0.14212,-0.15558 z m 25.20455,-53.53008 -0.28966,-0.44208 0.57651,-2.00592 0.57651,-2.00592 0.8506,-3.264 0.8506,-3.264 0.67263,-3.168 0.67263,-3.168 0.25711,-1.80787 0.25712,-1.80789 0.28038,-0.14828 0.28038,-0.14828 2.49285,-0.69817 2.49285,-0.69815 2.15343,-0.86164 2.15344,-0.86162 0.38071,0.20375 0.38071,0.20375 0.12492,0.3936 0.12493,0.3936 -0.27832,0.42261 -0.27832,0.42259 -2.09858,0.82418 -2.09857,0.82418 -2.0856,0.62302 -2.0856,0.62302 -0.81926,4.1208 -0.81925,4.1208 -0.96467,3.744 -0.96467,3.744 -0.56647,1.89691 -0.56646,1.8969 -0.25904,0.16416 -0.25903,0.16416 -0.42758,0.003 -0.42757,0.003 -0.28966,-0.44208 z m 26.3928,-63.77375 2.4,-0.30749 2.80792,-0.57239 2.80792,-0.57239 2.28008,-0.66864 2.28008,-0.66864 1.92,-0.70288 1.92,-0.70289 1.22267,-0.54856 1.22267,-0.54857 1.80186,-1.06045 1.80187,-1.06046 1.87147,-1.41632 1.87146,-1.41633 1.74325,-1.63451 1.74326,-1.63452 1.6331,-1.88656 1.63311,-1.88656 1.15638,-1.536 1.15638,-1.536 1.19911,-1.78908 1.19912,-1.78907 1.33981,-2.24293 1.33982,-2.24292 2.05522,-4.128 2.05523,-4.128 1.22229,-2.88 1.22229,-2.88 1.38375,-3.648 1.38376,-3.648 2.16319,-6.24 2.16318,-6.24 0.56786,-1.44 0.56784,-1.44 0.67135,-1.2799 0.67135,-1.27989 1.56867,-1.72047 1.56868,-1.72047 1.728,-1.60843 1.728,-1.60843 2.688,-2.32115 2.688,-2.32116 1.5677,-1.65758 1.56768,-1.65758 0.52021,-1.06327 0.52022,-1.06327 0.0952,-0.8447 0.0952,-0.84469 -0.25828,-1.02451 -0.2583,-1.0245 0.0624,-1.28484 0.0624,-1.28483 -0.476,-1.03971 -0.47599,-1.0397 -0.66461,-0.50692 -0.66463,-0.50693 -0.75056,-0.26012 -0.75059,-0.26011 v -0.75617 -0.75616 l -0.32162,-0.49156 -0.32162,-0.49155 -0.66739,-0.3167 -0.66741,-0.3167 h -0.89251 -0.89251 l -0.59839,0.30943 -0.59837,0.30944 -1.64809,1.33843 -1.64809,1.33844 -1.344,0.7529 -1.344,0.75289 -1.76874,0.57217 -1.76872,0.57217 -2.35928,0.29946 -2.35926,0.29946 -1.92,0.35035 -1.92,0.35036 -1.536,0.5976 -1.536,0.5976 -1.24588,0.72365 -1.24591,0.72365 -1.65308,1.632 -1.65308,1.632 -0.78843,1.344 -0.78845,1.344 -1.71228,5.184 -1.71229,5.184 -1.09269,2.784 -1.09269,2.784 -1.99398,4.032 -1.994,4.032 -1.30576,2.06691 -1.30575,2.06692 -1.37648,1.86908 -1.37647,1.86909 -1.43561,1.60268 -1.43561,1.60268 -1.69978,1.52713 -1.69978,1.52714 -1.99645,1.34635 -1.99646,1.34635 -1.50605,0.75722 -1.50605,0.75723 -1.43202,0.56886 -1.43202,0.56886 -1.88147,0.4734 -1.88148,0.4734 -1.632,0.23883 -1.632,0.23883 -4.32,0.001 -4.31999,0.001 -1.92,-0.2436 -1.92,-0.24361 -1.32462,-0.27565 -1.32463,-0.27566 -0.0783,0.0783 -0.0783,0.0783 -1.44162,3.33311 -1.44163,3.3331 -2.65588,6.912 -2.65588,6.912 -2.53347,6.40962 -2.53348,6.40962 0.25788,0.16161 0.25788,0.16163 2.208,0.78664 2.208,0.78664 2.88,0.74707 2.88,0.74708 2.112,0.37284 2.112,0.37285 2.112,0.21206 2.112,0.21206 0.672,0.0766 0.672,0.0767 4.31999,-0.0647 4.32,-0.0647 2.4,-0.30751 z m 55.79655,-77.20787 -0.11655,-0.3037 v -0.16914 -0.16915 l 1.2,-0.81118 1.2,-0.81119 1.09239,-1.13911 1.09236,-1.1391 0.66703,-1.27286 0.66703,-1.27286 0.40648,-1.2114 0.40646,-1.21139 -0.18988,-0.68773 -0.18989,-0.68773 -0.42546,-0.45288 -0.42545,-0.45287 h -0.40197 -0.40195 l -0.72757,0.49439 -0.72756,0.49439 -0.84664,1.15009 -0.84667,1.1501 -0.12244,0.65267 -0.12243,0.65268 -0.25302,0.20999 -0.25304,0.20999 -1.16688,-0.2116 -1.1669,-0.2116 -1.2,0.21757 -1.2,0.21757 -1.056,0.49908 -1.056,0.49909 -0.98699,0.98626 -0.987,0.98627 -0.4089,0.80153 -0.4089,0.80153 h -0.3566 -0.35659 l -0.24833,-0.29921 -0.24831,-0.29921 0.41595,-0.85614 0.41593,-0.85614 0.81688,-0.89077 0.81686,-0.89078 0.98178,-0.631 0.98179,-0.631 1.17216,-0.39488 1.17216,-0.39487 h 1.61197 1.61198 l 0.3312,-0.86727 0.33122,-0.86727 0.96842,-1.05962 0.96843,-1.05961 0.79045,-0.4632 0.79044,-0.4632 0.768,-0.12027 0.768,-0.12027 0.48,0.18153 0.48,0.18152 1.19113,-1.1123 1.19111,-1.11229 1.40089,-0.68536 1.40087,-0.68536 0.672,-0.0495 0.672,-0.0495 v 0.55728 0.55728 l -1.28394,0.52009 -1.28396,0.5201 -0.90392,0.65062 -0.90393,0.65063 -0.53653,0.672 -0.53652,0.672 0.27951,1.056 0.27951,1.056 -0.12564,0.84764 -0.12567,0.84765 1.41854,-1.19569 1.41855,-1.1957 1.36476,-0.67569 1.36477,-0.67569 1.17518,-0.10656 1.17517,-0.10656 0.13062,0.3404 0.13062,0.34039 -0.18638,0.29548 -0.18639,0.29548 -1.15903,0.23642 -1.15903,0.23642 -0.94114,0.48167 -0.94115,0.48167 -0.96,0.84109 -0.96,0.84109 -3.168,3.1384 -3.168,3.13839 -1.12512,0.83685 -1.12512,0.83685 h -0.43833 -0.43834 z m -21.23655,64.90518 2.016,-0.70145 1.43388,-0.66086 1.43385,-0.66087 0.96615,-0.60628 0.96612,-0.60629 1.536,-1.18744 1.536,-1.18744 1.92494,-1.99142 1.92491,-1.99142 1.39321,-1.86224 1.39321,-1.86223 1.34936,-2.16977 1.34937,-2.16976 1.69427,-3.36 1.69428,-3.36 1.06165,-2.496 1.06164,-2.496 0.80447,-2.112 0.80444,-2.112 1.33054,-3.936 1.33052,-3.936 0.94295,-3.072 0.94297,-3.072 1.82419,-6.24 1.82417,-6.24 0.87956,-2.56163 0.87953,-2.56163 0.40111,-0.78622 0.4011,-0.78623 -0.93419,0.83033 -0.9342,0.83032 -3.552,3.1151 -3.552,3.1151 -2.15092,2.22384 -2.15089,2.22385 -0.45787,0.73058 -0.45786,0.73059 -0.78192,1.92 -0.78192,1.92 -1.82863,5.28717 -1.82864,5.28717 -1.04667,2.87283 -1.04667,2.87283 -1.15457,2.88 -1.15458,2.88 -1.18542,2.688 -1.18541,2.688 -1.87682,3.648 -1.8768,3.648 -1.20816,2.016 -1.20816,2.016 -1.43844,2.112 -1.43843,2.112 -1.50263,1.92482 -1.50263,1.92482 -1.74267,1.8568 -1.74267,1.8568 1.3027,-0.36217 1.30268,-0.36216 z m -25.79559,-30.34802 0.2204,-0.28925 -0.0783,-0.7101 -0.0783,-0.7101 -0.39532,-3.63251 -0.39531,-3.6325 -0.37764,-2.3195 -0.37764,-2.31949 -0.35968,-0.3612 -0.35969,-0.3612 -0.49193,0.12346 -0.49192,0.12347 -0.20388,0.38095 -0.20388,0.38095 0.28928,1.58479 0.28928,1.58478 0.28865,2.304 0.28864,2.304 0.28565,2.7614 0.28564,2.7614 0.31371,0.34665 0.3137,0.34664 0.50907,-0.18869 0.50905,-0.1887 z m 66.21159,-39.44218 1.344,-0.81839 3.264,-1.82029 3.264,-1.82029 1.3195,-0.85148 1.3195,-0.85148 0.89814,-0.92209 0.89816,-0.92209 0.23034,-0.76886 0.23036,-0.76885 -0.0117,-0.64973 -0.0117,-0.64972 -0.33581,-1.056 -0.33583,-1.056 0.39118,-0.53819 0.39118,-0.53818 -0.002,-0.70982 -0.002,-0.70981 -0.43975,-0.904676 -0.43976,-0.904673 -1.00587,-1.02207 -1.00587,-1.022069 0.24281,-0.569257 0.24278,-0.569257 0.009,-0.633535 0.009,-0.633535 -0.28276,-0.546802 -0.28276,-0.546803 -0.91724,-0.451663 -0.91724,-0.451662 -2.304,0.01905 -2.304,0.01905 -2.304,0.519421 -2.304,0.519423 -3.3066,1.113212 -3.30661,1.113213 -0.28164,-0.979682 -0.28165,-0.979682 -0.21567,-0.868806 -0.21566,-0.868804 0.87057,-1.298256 0.87059,-1.298254 0.29333,-0.987788 0.29334,-0.987788 v -0.244118 -0.244117 l -0.22938,-0.503433 -0.22938,-0.503434 -0.55079,-0.284832 -0.55081,-0.28483 -0.84087,0.407055 -0.84086,0.407057 -1.19274,1.275047 -1.19277,1.275049 -1.45591,2.214073 -1.45594,2.214073 -1.83899,3.651053 -1.83898,3.65106 -0.79259,1.97754 -0.79262,1.97755 0.42133,-0.12248 0.4213,-0.12248 1.728,-0.8367 1.728,-0.83669 1.824,-1.48128 1.824,-1.481284 0.864,-0.397119 0.864,-0.397121 1.44,-0.0039 1.44,-0.0039 1.0412,0.575969 1.04119,0.575971 0.557,0.768004 0.55701,0.768 0.0997,0.48 0.0997,0.48 0.99006,0.67494 0.99007,0.67495 0.62139,0.92684 0.62139,0.92685 0.22274,0.79821 0.22274,0.79821 0.041,1.44 0.041,1.44 0.228,1.2035 0.228,1.2035 -0.19968,1.08018 -0.19968,1.08018 -0.5202,1.07632 -0.52019,1.07632 -0.0821,0.17072 -0.0821,0.17073 0.16892,-0.0999 0.1689,-0.0999 1.344,-0.81839 z m 0.528,-9.91443 -0.24,-0.0968 v -0.4628 -0.46279 l 0.816,-0.59566 0.816,-0.59565 1.71675,-0.86593 1.71673,-0.86593 1.77646,-0.45064 1.77646,-0.45063 1.4468,-0.13111 1.44681,-0.1311 0.13055,0.34021 0.13056,0.34022 -0.19485,0.30888 -0.19482,0.30887 -1.70772,0.24056 -1.70773,0.24056 -1.33453,0.4017 -1.33452,0.4017 -1.44948,0.73995 -1.44947,0.73995 -0.864,0.58599 -0.864,0.586 -0.096,-0.0143 -0.096,-0.0143 -0.24,-0.0968 z m -2.40054,-7.089377 -0.14346,-0.143465 v -0.364041 -0.364042 l 1.23324,-0.559179 1.23325,-0.559181 1.98275,-0.577937 1.98276,-0.577939 1.70515,-0.29084 1.70516,-0.290841 h 0.82752 0.82752 l 0.11971,0.193718 0.11973,0.193718 -0.12119,0.381835 -0.12119,0.381836 -0.41921,0.0808 -0.4192,0.0808 -2.112,0.318844 -2.112,0.318847 -2.496,0.863856 -2.496,0.863858 -0.57654,0.09641 -0.57653,0.09641 z M 128.352,123.05617 l -1.152,-0.17272 -1.18749,-0.5836 -1.18748,-0.58359 -0.8662,-0.96342 -0.86619,-0.96342 -0.41168,-1.09471 -0.41169,-1.09471 0.004,-1.536 0.004,-1.536 0.39338,-1.12341 0.39339,-1.12341 0.3805,-0.61566 0.38049,-0.61565 -1.148,-0.23712 -1.148,-0.23712 -0.81283,-0.35431 -0.81283,-0.35432 -0.82534,-0.60547 -0.82534,-0.60547 -0.74536,-1.15322 -0.74537,-1.15322 -0.30129,-1.32471 -0.3013,-1.32472 0.003,-1.0181 0.003,-1.01809 0.28138,-1.344 0.28138,-1.344002 0.55683,-1.087429 0.55683,-1.087426 -0.36936,-1.504574 -0.36936,-1.504571 -0.11504,-2.125926 -0.11504,-2.125926 0.32473,-1.459582 0.32472,-1.45958 0.72329,-1.118494 0.72329,-1.118492 0.78111,-0.516344 0.78111,-0.516343 0.71087,-0.297022 0.71087,-0.297021 1.19029,-0.207279 1.19028,-0.207279 0.34656,-0.995355 0.34655,-0.995357 1.02321,-2.112 1.0232,-2.112 1.01059,-1.536 1.01058,-1.536 1.35623,-1.347283 1.35623,-1.347281 1.0431,-0.555808 1.04311,-0.555805 1.35689,-0.07951 1.3569,-0.07951 1.1365,0.399443 1.1365,0.399442 0.91736,0.58867 0.91737,0.588672 0.70377,0.778987 0.70376,0.778986 0.36912,0.834457 0.36912,0.834457 0.10864,1.205045 0.10864,1.205044 -0.29421,1.248 -0.29422,1.248 -0.12295,0.318371 -0.12296,0.31837 1.11778,0.317561 1.11778,0.317558 1.05257,0.386052 1.05258,0.386053 1.72786,0.892406 1.72787,0.892407 1.47267,1.10969 1.47266,1.109691 1.37019,1.46718 1.37018,1.467179 1.34483,2.011152 1.34483,2.01115 0.46933,0.926183 0.46934,0.926183 0.55606,1.403407 0.55607,1.403407 0.35135,1.536 0.35135,1.536 -0.008,2.016006 -0.008,2.016 -0.42785,1.52926 -0.42786,1.52926 -0.56804,1.06274 -0.56804,1.06274 -0.97447,1.2986 -0.97446,1.2986 -1.24326,1.05473 -1.24326,1.05473 -1.0915,0.74061 -1.0915,0.74061 -1.344,0.67107 -1.344,0.67106 -1.248,0.40599 -1.248,0.40599 -1.728,0.30352 -1.728,0.30352 -1.98131,-0.0567 -1.98131,-0.0567 -0.65547,0.90322 -0.65547,0.90322 -0.99985,0.79034 -0.99986,0.79035 -0.87537,0.4428 -0.87536,0.44281 -1.248,0.38168 -1.248,0.38167 -1.44,0.10264 -1.44,0.10263 -1.152,-0.17272 z m 4.08604,-2.19419 1.20604,-0.28435 0.80996,-0.40643 0.80996,-0.40643 0.9927,-0.74106 0.99271,-0.74106 0.83129,-1.26466 0.8313,-1.26466 0.96,0.13623 0.96,0.13623 1.728,-0.0107 1.728,-0.0107 1.18665,-0.21618 1.18665,-0.21619 1.21335,-0.39641 1.21335,-0.39641 1.344,-0.66972 1.344,-0.66972 1.38295,-1.0376 1.38296,-1.03761 1.11719,-1.14881 1.11719,-1.14882 0.64427,-1.06304 0.64427,-1.06305 0.49807,-1.29438 0.49806,-1.29437 -0.002,-2.592 -0.002,-2.592003 -0.61031,-1.768608 -0.61031,-1.768606 -0.66226,-1.315081 -0.66227,-1.315079 -1.1557,-1.727796 -1.15571,-1.727797 -1.25724,-1.357941 -1.25725,-1.357941 -1.39492,-1.064131 -1.39492,-1.064129 -1.44,-0.772416 -1.44,-0.772416 -2.04032,-0.682028 -2.04032,-0.68204 -0.26368,0.0017 -0.26368,0.0017 -0.81349,1.318725 -0.81348,1.318723 -2.07543,2.375634 -2.07542,2.375631 -1.1642,1.466738 -1.1642,1.466738 -0.92024,1.476464 -0.92024,1.476465 -0.44969,1.23888 -0.44969,1.23888 -0.11753,1.001917 -0.11753,1.001918 0.20784,0.770949 0.20784,0.77095 0.55201,0.87043 0.55201,0.87043 1.48111,1.11472 1.48111,1.11472 0.1944,0.5079 0.19439,0.5079 -0.21026,0.70585 -0.21025,0.70585 -0.59833,0.50346 -0.59832,0.50345 -1.17421,-0.0207 -1.1742,-0.0207 -1.69679,0.658 -1.69678,0.65801 -1.14471,1.12938 -1.14471,1.12939 -0.58288,1.1797 -0.58287,1.17971 -0.10449,1.15232 -0.10448,1.15231 0.31019,0.91036 0.31019,0.91037 0.48917,0.64133 0.48917,0.64133 0.83767,0.49091 0.83767,0.49091 0.83583,0.16434 0.83582,0.16433 1.056,0.0182 1.056,0.0182 1.20604,-0.28435 z m -5.45678,-4.60641 -0.11068,-0.28843 0.11455,-0.45641 0.11456,-0.45641 0.87399,-0.97209 0.874,-0.9721 1.14427,-0.5718 1.14426,-0.57179 1.19989,-0.1129 1.1999,-0.1129 0.672,0.15274 0.672,0.15274 0.0648,0.45117 0.0648,0.45118 -0.2568,0.16931 -0.25679,0.16932 -0.90175,-0.11621 -0.90174,-0.1162 -1.03051,0.29957 -1.0305,0.29958 -0.81858,0.59297 -0.81857,0.59297 -0.51318,0.84599 -0.51317,0.84599 -0.43803,0.006 -0.43803,0.006 -0.11068,-0.28843 z M 142.77789,97.714062 142.272,97.316127 V 96.68782 96.059514 l 0.35111,-0.317758 0.35112,-0.317758 h 0.60141 0.6014 l 0.39147,0.420203 0.39149,0.420204 v 0.452525 0.452522 l -0.47128,0.471272 -0.47127,0.471274 h -0.36684 -0.36683 z m 10.34021,-1.916162 -0.7661,-0.79272 -1.84646,-1.397157 -1.84646,-1.397159 -0.99188,-0.553432 -0.99189,-0.553434 0.0543,-0.48 0.0543,-0.48 0.48532,-0.05663 0.48532,-0.05663 2.0455,1.350949 2.04551,1.350948 1.59717,1.522887 1.59717,1.522888 -0.2116,0.350799 -0.21161,0.350798 -0.36629,0.05531 -0.36628,0.05531 z m 71.97352,-24.387978 -1.3185,-0.262001 -0.9855,-0.322506 -0.9855,-0.322508 -0.86682,-0.433794 -0.86683,-0.433793 -1.18788,-0.892948 -1.18789,-0.892947 -0.90233,-1.19071 -0.90233,-1.190709 -0.62036,-1.344 -0.62036,-1.344 -0.3586,-1.344 -0.3586,-1.343999 0.004,-3.456 0.004,-3.456 0.53509,-1.536 0.53509,-1.536 0.76618,-1.297171 0.76617,-1.297172 0.93554,-1.124156 0.93553,-1.124156 1.3112,-0.984027 1.3112,-0.984027 1.38047,-0.674797 1.38046,-0.674795 1.59554,-0.382505 1.59552,-0.382504 2.12929,-0.0013 2.12929,-0.0013 1.51871,0.382879 1.51871,0.382876 1.58106,0.776961 1.58104,0.776961 1.20296,0.95788 1.20294,0.957882 0.864,1.037163 0.864,1.037161 0.64409,1.063592 0.64409,1.063589 0.45713,1.13174 0.45713,1.131741 0.29078,1.38234 0.29078,1.382339 v 1.723541 1.723544 l -0.30415,1.479905 -0.30415,1.479905 -0.57306,1.380709 -0.57307,1.380706 -0.92744,1.307294 -0.92744,1.307291 -1.02734,0.989678 -1.02735,0.989675 -1.11941,0.774824 -1.11941,0.774822 -1.41043,0.587162 -1.41043,0.587163 -1.37071,0.288338 -1.37071,0.288338 -2.24345,-0.01805 -2.24345,-0.01805 -1.31849,-0.262001 z m 7.6545,-2.205721 1.344,-0.414082 1.344,-0.695606 1.344,-0.695607 1.64717,-1.637451 1.64716,-1.637449 0.79986,-1.632 0.79985,-1.632 0.32606,-1.247999 0.32606,-1.248 0.005,-2.016 0.005,-2.016 -0.4436,-1.44 -0.44361,-1.44 -0.70222,-1.344 -0.70222,-1.344 -1.31628,-1.387513 -1.31629,-1.387511 -1.17986,-0.735969 -1.17985,-0.735968 -0.96,-0.40507 -0.96,-0.405071 -1.62525,-0.329197 -1.62525,-0.329195 -1.65826,0.107433 -1.65826,0.107434 -1.51649,0.505405 -1.51649,0.505404 -1.30073,0.76829 -1.30072,0.768289 -1.29128,1.306557 -1.29127,1.306556 -0.72491,1.226064 -0.72492,1.226062 -0.51281,1.536 -0.51282,1.536 -0.006,2.784 -0.006,2.784 0.42962,1.497442 0.42961,1.497443 0.56273,1.11475 0.56272,1.11475 1.01927,1.117539 1.01928,1.11754 1.09329,0.70811 1.0933,0.708111 1.5947,0.512659 1.59471,0.512659 1.152,0.175233 1.152,0.175233 1.92,-0.0746 1.92,-0.0746 1.344,-0.414081 z m -9.744,-6.535574 -0.336,-0.195702 v -0.52123 -0.52123 l 2.4961,-2.490556 2.4961,-2.490557 -2.4961,-2.501247 -2.4961,-2.501246 v -0.487027 -0.487025 l 0.2304,-0.2304 0.2304,-0.2304 h 0.48703 0.48702 l 2.50125,2.496098 2.50125,2.496097 2.49055,-2.496097 2.49056,-2.496098 h 0.42106 0.42105 l 0.30172,0.301714 0.30171,0.301715 v 0.402365 0.402363 l -2.49306,2.517732 -2.49307,2.51773 2.40355,2.39419 2.40355,2.39419 0.11227,0.439736 0.11227,0.439738 -0.34051,0.376262 -0.34052,0.376264 h -0.40501 -0.40501 l -2.48748,-2.493008 -2.48747,-2.493011 -2.51768,2.493011 -2.51767,2.493008 -0.36808,-0.0058 -0.36808,-0.0058 -0.336,-0.195702 z"
         style="fill:#030046;stroke-width:0.192" />
    </g>
  </g>
</svg>
