<svg viewBox="0 0 227 48" fill="none" xmlns="http://www.w3.org/2000/svg"><path d="M66 20.293c0 5.149 4.145 9.242 9.267 9.242 3.733 0 6.385-1.7 6.385-1.7a.635.635 0 00.205-.411c0-2.06-.025-4.17-.025-6.23 0-.257-.206-.489-.464-.489h-4.685a.473.473 0 00-.489.49v1.492c0 .258.206.463.49.463h2.522v2.884c-.258.103-1.725.875-3.861.875-3.656 0-6.462-3.09-6.462-6.667 0-3.604 2.806-6.694 6.462-6.694 1.57 0 3.166.696 4.376 1.751.257.232.463.257.67.026.385-.412.771-.798 1.157-1.21.206-.206.18-.515-.025-.72C79.773 11.9 77.739 11 75.267 11 70.145 11 66 15.145 66 20.293zm18.816 8.495c0 .258.231.49.489.49h1.467c.335 0 .515-.207.515-.49v-6.204c.129-.438 1.21-1.622 2.78-1.622 1.339 0 2.188.927 2.188 2.6v5.226c0 .258.206.49.49.49h1.44c.258 0 .49-.232.49-.49v-5.174c0-2.806-1.39-4.891-4.299-4.891-1.648 0-2.832.927-3.09 1.107v-8.083a.506.506 0 00-.488-.49h-1.493a.506.506 0 00-.49.49v17.041zm12.3-4.685c0 2.96 2.317 5.432 5.2 5.432s5.2-2.472 5.2-5.432c0-2.909-2.317-5.38-5.2-5.38s-5.2 2.471-5.2 5.38zm2.29 0c0-1.725 1.288-3.14 2.91-3.14s2.909 1.415 2.909 3.14c0 1.776-1.287 3.218-2.909 3.218-1.622 0-2.91-1.442-2.91-3.218zm10.211 4.377c.541.437 1.673 1.055 3.398 1.055 2.291 0 3.81-1.416 3.81-3.012 0-1.93-1.544-2.729-3.424-3.553-1.004-.437-1.647-.72-1.647-1.39 0-.386.283-.772 1.158-.772.978 0 2.111.54 2.111.54.206.104.541.026.669-.205l.464-.876c.154-.257.026-.592-.206-.746-.515-.335-1.596-.798-3.038-.798-2.471 0-3.527 1.544-3.527 2.832 0 1.698 1.339 2.677 2.935 3.372 1.416.643 1.982.978 1.982 1.673 0 .566-.489.875-1.261.875-1.261 0-2.394-.67-2.394-.67-.258-.154-.541-.076-.644.13l-.54 1.004c-.103.206 0 .437.154.54zm10.359-2.009c0 1.828.592 3.064 2.626 3.064 1.235 0 2.754-.618 3.012-.773.257-.128.36-.334.231-.617l-.463-1.133c-.103-.232-.258-.386-.592-.232-.309.155-1.03.464-1.57.464-.49 0-.824-.155-.824-1.03v-5.097h2.625a.49.49 0 00.49-.49V19.47a.474.474 0 00-.49-.489h-2.625v-2.883c0-.257-.206-.49-.464-.49l-1.467.027a.506.506 0 00-.489.489v2.857h-1.081a.473.473 0 00-.489.49v1.158c0 .257.206.489.489.489h1.081v5.354zm14.71 2.317c0 .258.232.49.489.49h1.699a.506.506 0 00.489-.49V11.746a.506.506 0 00-.489-.489h-1.699a.507.507 0 00-.489.49v17.041zm6.492 0c0 .258.231.49.489.49h1.339c.437 0 .592-.155.592-.49v-6.281c.128-.36 1.235-1.545 2.857-1.545 1.339 0 2.137.901 2.137 2.549v5.277c0 .258.206.49.489.49h1.467a.507.507 0 00.489-.49v-5.174c0-2.677-1.158-4.891-4.299-4.891-2.059 0-3.424 1.235-3.604 1.441l-.309-.875a.417.417 0 00-.412-.309h-.746a.506.506 0 00-.489.49v9.318zm12.609-.308c.54.437 1.673 1.055 3.398 1.055 2.291 0 3.81-1.416 3.81-3.012 0-1.93-1.545-2.729-3.424-3.553-1.004-.437-1.648-.72-1.648-1.39 0-.386.284-.772 1.159-.772.978 0 2.111.54 2.111.54.206.104.54.026.669-.205l.463-.876c.155-.257.026-.592-.206-.746-.514-.335-1.596-.798-3.037-.798-2.471 0-3.527 1.544-3.527 2.832 0 1.698 1.339 2.677 2.935 3.372 1.416.643 1.982.978 1.982 1.673 0 .566-.489.875-1.261.875-1.262 0-2.395-.67-2.395-.67-.257-.154-.54-.076-.643.13l-.541 1.004c-.103.206 0 .437.155.54zm12.161.36c.18.103 1.184.695 2.522.695 2.806 0 5.02-2.369 5.02-5.38 0-2.96-2.085-5.432-4.917-5.432-1.905 0-2.96 1.081-3.14 1.261l-.258-.67c-.103-.23-.231-.334-.437-.334h-.773a.507.507 0 00-.489.49v17.04c0 .258.232.49.489.49h1.442c.36 0 .541-.206.541-.49v-7.67zm-.052-2.266v-4.119c.103-.308.875-1.493 2.368-1.493 1.751 0 2.832 1.468 2.832 3.192 0 1.75-1.236 3.167-2.935 3.167-1.364 0-2.265-.747-2.265-.747zm9.454-2.445c0 2.96 2.059 5.406 5.174 5.406 1.725 0 3.063-.644 3.81-1.288.309-.257.231-.463.051-.669l-.721-.978c-.205-.257-.386-.155-.695.026-.514.334-1.364.746-2.291.746-1.673 0-2.883-1.364-2.96-2.754h7.002c.232 0 .438-.18.463-.438a6.25 6.25 0 00.052-.695c0-2.754-2.06-4.762-4.737-4.762-3.089 0-5.148 2.497-5.148 5.406zm2.497-1.133c.154-1.287 1.235-2.291 2.625-2.291 1.262 0 2.291 1.055 2.369 2.291h-4.994zm9.091 1.158c0 3.09 2.497 5.38 5.38 5.38 1.777 0 3.167-.849 3.991-2.162.18-.257.077-.515-.181-.72l-.695-.567c-.231-.18-.463-.18-.695.052-.54.514-1.081 1.184-2.394 1.184-1.673 0-2.96-1.416-2.96-3.192 0-1.75 1.313-3.167 2.986-3.167.849 0 1.596.464 2.059.979.206.18.386.386.695.103l.85-.773c.232-.18.283-.489.103-.72-.953-1.185-2.163-1.828-3.733-1.828-2.857 0-5.406 2.394-5.406 5.431zm12.604 2.317c0 1.828.592 3.064 2.625 3.064 1.236 0 2.755-.618 3.012-.773.258-.128.361-.334.232-.617l-.463-1.133c-.103-.232-.258-.386-.593-.232-.308.155-1.029.464-1.57.464-.489 0-.824-.155-.824-1.03v-5.097h2.626a.489.489 0 00.489-.49V19.47a.473.473 0 00-.489-.489h-2.626v-2.883c0-.257-.206-.49-.463-.49l-1.467.027a.506.506 0 00-.489.489v2.857h-1.082a.473.473 0 00-.489.49v1.158c0 .257.206.489.489.489h1.082v5.354zm7.457-2.368c0 2.96 2.317 5.432 5.2 5.432s5.2-2.472 5.2-5.432c0-2.909-2.317-5.38-5.2-5.38s-5.2 2.471-5.2 5.38zm2.291 0c0-1.725 1.288-3.14 2.909-3.14 1.622 0 2.909 1.415 2.909 3.14 0 1.776-1.287 3.218-2.909 3.218-1.621 0-2.909-1.442-2.909-3.218zm10.674 4.685c0 .258.232.49.489.49h1.236c.412 0 .695-.052.695-.49V22.25a2.714 2.714 0 012.317-1.262c.334 0 .721.103.875.18.232.103.489.052.618-.231l.618-1.262c.283-.695-.901-.952-1.88-.952a3.667 3.667 0 00-3.011 1.493l-.284-.875a.488.488 0 00-.437-.36h-.747a.507.507 0 00-.489.488v9.32z" fill="#000"/><g clip-path="url(#clip0)"><path d="M9.192 32.197a.804.804 0 01-.396-.105l-.217-.113c-3.759-1.92-6.045-3.218-6.795-3.851-1.323-1.125-2-2.626-1.722-3.823.125-.533.552-1.48 2.044-1.855 2.533-.637 4.42-.912 4.626-.94a.808.808 0 01.915.714 30.494 30.494 0 002.287 8.848.813.813 0 01-.202.919.83.83 0 01-.54.206z" fill="#fff"/><path d="M31.673 47.803c-4.63 0-10.352-1.218-15.68-5.726C9.647 36.705 5.857 28.07 5.853 18.982v-.008C5.856 8.513 14.364 0 24.829 0c10.263 0 18.647 8.19 18.966 18.377.286.072.617.145.96.222 1.23.27 2.625.58 3.544 1.23 1.081.766 1.654 1.637 1.694 2.593.044 1.008-.508 2.004-1.637 2.964-1.31 1.113-4.07 3.129-7.965 4.315l-.415.5c-1.71 2.04-2.948 3.516-2.948 6.944 0 5.573 4.025 7.464 4.065 7.48a.808.808 0 01-.012 1.476c-.065.037-3.992 1.702-9.408 1.702zm12.134-28.821h.008-.008z" fill="#fff"/><mask id="a" maskUnits="userSpaceOnUse" x="5" y="0" width="45" height="48"><path d="M31.675 47.803c-4.63 0-10.352-1.218-15.68-5.726C9.649 36.705 5.859 28.07 5.855 18.982v-.008C5.858 8.513 14.366 0 24.83 0c10.263 0 18.647 8.19 18.966 18.377.286.072.617.145.96.222 1.23.27 2.625.58 3.544 1.23 1.081.766 1.654 1.637 1.694 2.593.044 1.008-.508 2.004-1.637 2.964-1.31 1.113-4.07 3.129-7.965 4.315l-.415.5c-1.71 2.04-2.948 3.516-2.948 6.944 0 5.573 4.025 7.464 4.065 7.48a.808.808 0 01-.012 1.476c-.065.037-3.992 1.702-9.408 1.702zm12.134-28.821h.008-.008z" fill="#fff"/></mask><g mask="url(#a)"><path opacity=".15" d="M31.675 47.803c-4.63 0-10.352-1.218-15.68-5.726C9.649 36.705 5.859 28.07 5.855 18.982v-.008C5.858 8.513 14.366 0 24.83 0c10.263 0 18.647 8.19 18.966 18.377.286.072.617.145.96.222 1.23.27 2.625.58 3.544 1.23 1.081.766 1.654 1.637 1.694 2.593.044 1.008-.508 2.004-1.637 2.964-1.31 1.113-4.07 3.129-7.965 4.315l-.415.5c-1.71 2.04-2.948 3.516-2.948 6.944 0 5.573 4.025 7.464 4.065 7.48a.808.808 0 01-.012 1.476c-.065.037-3.992 1.702-9.408 1.702zm12.134-28.821h.008-.008z" fill="url(#paint0_radial)"/></g><path d="M14.52 20.975a1.618 1.618 0 01-1.614-1.613v-2.42c0-.887.726-1.612 1.613-1.612s1.613.725 1.613 1.612v2.42c0 .887-.726 1.613-1.613 1.613zm11.296 0a1.618 1.618 0 01-1.613-1.613v-2.42c0-.887.726-1.612 1.613-1.612s1.613.725 1.613 1.612v2.42c0 .887-.726 1.613-1.613 1.613z" fill="#000"/><path fill-rule="evenodd" clip-rule="evenodd" d="M15.999 42.066c5.326 4.508 11.043 5.725 15.676 5.725 5.41 0 9.338-1.665 9.41-1.697a.809.809 0 00.012-1.472c-.165-.077-4.068-1.952-4.068-7.483 0-3.423 1.235-4.9 2.941-6.94l.007-.008c.114-.134.228-.27.344-.41l.071-.085c3.895-1.186 6.653-3.202 7.963-4.315 1.13-.96 1.682-1.955 1.637-2.963-.04-.956-.613-1.827-1.693-2.593-.92-.649-2.315-.96-3.544-1.23l-.122-.027a31.33 31.33 0 01-.838-.194C43.477 8.189 35.095 0 24.833 0 14.37 0 5.863 8.507 5.858 18.974c0 .887.037 1.77.108 2.645-.81.137-2.19.398-3.862.819-1.492.375-1.92 1.323-2.044 1.855-.278 1.197.399 2.697 1.721 3.822.754.636 3.036 1.933 6.79 3.849 1.741 3.945 4.268 7.428 7.428 10.102zM6.138 23.229a32.38 32.38 0 001.534 6.463c-3.46-1.81-4.52-2.524-4.842-2.799-.94-.798-1.31-1.725-1.194-2.23.069-.31.363-.532.867-.657a49.722 49.722 0 013.635-.777zm2.301 3.441c1.443 5.625 4.439 10.642 8.6 14.162 8.588 7.265 18.28 5.383 21.918 4.294-1.48-1.21-3.54-3.67-3.54-7.987 0-4.015 1.539-5.854 3.32-7.982l.002-.002c.153-.18.307-.365.465-.556l.1-.121a.798.798 0 01.395-.262 21.289 21.289 0 007.612-4.068c.504-.428 1.097-1.06 1.072-1.662-.024-.536-.564-1.028-1.016-1.346-.657-.464-1.935-.746-2.96-.972l-.024-.006c-.624-.139-1.215-.27-1.665-.433a.806.806 0 01-.528-.758c0-9.572-7.785-17.358-17.357-17.358S7.47 9.399 7.47 18.97c0 1.067.055 2.127.162 3.175a.833.833 0 01.011.07c.158 1.514.424 3.002.795 4.454z" fill="#000"/></g><defs><radialGradient id="paint0_radial" cx="0" cy="0" r="1" gradientUnits="userSpaceOnUse" gradientTransform="rotate(131.488 18.296 14.308) scale(39.5679 36.5391)"><stop stop-color="#fff" stop-opacity="0"/><stop offset=".823" stop-color="#fff" stop-opacity=".5"/><stop offset="1"/></radialGradient><clipPath id="clip0"><path fill="#fff" d="M0 0h50v48H0z"/></clipPath></defs></svg>