<svg xmlns="http://www.w3.org/2000/svg" xmlns:xlink="http://www.w3.org/1999/xlink" width="500" zoomAndPan="magnify" viewBox="0 0 375 374.999991" height="500" preserveAspectRatio="xMidYMid meet" version="1.0"><defs><g/><clipPath id="id1"><path d="M 165.328125 132.433594 L 209.578125 132.433594 L 209.578125 244.183594 L 165.328125 244.183594 Z M 165.328125 132.433594 " clip-rule="nonzero"/></clipPath></defs><rect x="-37.5" width="450" fill="rgb(9.01947%, 9.408569%, 10.5896%)" y="-37.499999" height="449.999989" fill-opacity="1"/><rect x="-37.5" width="450" fill="rgb(100%, 100%, 100%)" y="-37.499999" height="449.999989" fill-opacity="1"/><rect x="-37.5" width="450" fill="rgb(9.01947%, 9.408569%, 10.5896%)" y="-37.499999" height="449.999989" fill-opacity="1"/><path fill="rgb(100%, 100%, 100%)" d="M 187.539062 152.550781 C 169.105469 152.550781 154.164062 167.492188 154.164062 185.925781 C 154.164062 204.355469 169.105469 219.300781 187.539062 219.300781 C 205.972656 219.300781 220.914062 204.355469 220.914062 185.925781 C 220.914062 167.492188 205.972656 152.550781 187.539062 152.550781 " fill-opacity="1" fill-rule="nonzero"/><path fill="rgb(100%, 100%, 100%)" d="M 202.34375 236.761719 L 202.164062 236.761719 L 202.597656 239.441406 L 201.910156 239.441406 L 201.8125 238.589844 L 201.035156 238.589844 L 201.128906 239.441406 L 198.761719 239.441406 L 198.785156 238.589844 L 196.371094 238.589844 L 196.285156 239.441406 L 195.730469 239.441406 L 195.851562 238.589844 L 195.226562 238.589844 C 195.152344 239.03125 195.085938 239.320312 195.074219 239.371094 C 195.070312 239.386719 195.0625 239.402344 195.054688 239.417969 L 195.054688 239.441406 L 195.046875 239.441406 C 195.019531 239.507812 194.976562 239.570312 194.925781 239.621094 L 202.808594 239.621094 L 202.34375 236.761719 " fill-opacity="1" fill-rule="nonzero"/><path fill="rgb(100%, 100%, 100%)" d="M 200.824219 236.761719 L 200.960938 237.964844 L 200.253906 237.933594 C 199.769531 237.914062 199.285156 237.910156 198.804688 237.90625 L 198.835938 236.761719 L 196.554688 236.761719 L 196.4375 237.941406 L 195.941406 237.960938 L 196.109375 236.761719 L 195.464844 236.761719 C 195.421875 237.246094 195.367188 237.695312 195.3125 238.078125 C 195.445312 238.085938 195.578125 238.09375 195.710938 238.105469 L 196.617188 238.144531 C 197.226562 238.167969 197.832031 238.171875 198.4375 238.175781 C 199.042969 238.171875 199.648438 238.167969 200.253906 238.144531 L 201.160156 238.105469 C 201.464844 238.082031 201.769531 238.070312 202.070312 238.039062 C 201.964844 238.027344 201.855469 238.019531 201.746094 238.011719 L 201.605469 236.761719 L 200.824219 236.761719 " fill-opacity="1" fill-rule="nonzero"/><path fill="rgb(100%, 100%, 100%)" d="M 203.140625 234.6875 L 202.878906 234.6875 C 202.785156 235.289062 202.695312 235.746094 202.644531 235.988281 L 198.472656 235.988281 C 198.683594 235.582031 198.886719 235.144531 199.070312 234.6875 L 195.515625 234.6875 C 195.539062 235.21875 195.527344 235.746094 195.5 236.246094 L 202.851562 236.246094 C 202.851562 236.246094 202.914062 235.96875 203.003906 235.492188 C 203.023438 235.386719 203.042969 235.273438 203.066406 235.148438 C 203.089844 235.003906 203.117188 234.851562 203.140625 234.6875 " fill-opacity="1" fill-rule="nonzero"/><path fill="rgb(100%, 100%, 100%)" d="M 179.816406 239.371094 C 179.804688 239.320312 179.738281 239.03125 179.664062 238.589844 L 178.984375 238.589844 L 179.082031 239.441406 L 176.710938 239.441406 L 176.734375 238.589844 L 174.320312 238.589844 L 174.234375 239.441406 L 173.683594 239.441406 L 173.804688 238.589844 L 173.105469 238.589844 L 173.003906 239.441406 L 172.292969 239.441406 L 172.726562 236.761719 L 172.546875 236.761719 L 172.082031 239.621094 L 179.96875 239.621094 C 179.894531 239.554688 179.839844 239.46875 179.816406 239.371094 " fill-opacity="1" fill-rule="nonzero"/><path fill="rgb(100%, 100%, 100%)" d="M 175.996094 236.246094 L 179.390625 236.246094 C 179.386719 236.164062 179.382812 236.078125 179.378906 235.988281 L 176.425781 235.988281 C 176.636719 235.582031 176.835938 235.144531 177.023438 234.6875 L 171.75 234.6875 C 171.902344 235.644531 172.039062 236.246094 172.039062 236.246094 L 175.996094 236.246094 " fill-opacity="1" fill-rule="nonzero"/><path fill="rgb(100%, 100%, 100%)" d="M 173.660156 238.105469 L 174.570312 238.144531 C 175.175781 238.167969 175.78125 238.171875 176.386719 238.175781 C 176.992188 238.171875 177.597656 238.167969 178.203125 238.144531 L 179.113281 238.105469 C 179.269531 238.09375 179.425781 238.082031 179.578125 238.074219 C 179.523438 237.691406 179.46875 237.246094 179.425781 236.761719 L 178.777344 236.761719 L 178.914062 237.964844 L 178.203125 237.933594 C 177.722656 237.914062 177.238281 237.910156 176.753906 237.90625 L 176.789062 236.761719 L 174.507812 236.761719 L 174.386719 237.941406 L 173.890625 237.960938 L 174.0625 236.761719 L 173.328125 236.761719 L 173.175781 238.003906 C 173.035156 238.011719 172.894531 238.023438 172.753906 238.039062 C 173.054688 238.070312 173.359375 238.082031 173.660156 238.105469 " fill-opacity="1" fill-rule="nonzero"/><path fill="rgb(100%, 100%, 100%)" d="M 200.65625 196.050781 L 200.65625 186.714844 L 196.914062 186.714844 L 196.914062 206.027344 C 197.171875 206.785156 197.597656 207.484375 198.160156 208.0625 L 202.066406 212.066406 L 202.066406 197.234375 L 200.65625 196.050781 " fill-opacity="1" fill-rule="nonzero"/><path fill="rgb(100%, 100%, 100%)" d="M 203.90625 233.933594 C 203.90625 233.933594 203.90625 231.792969 203.90625 228.40625 L 203.535156 228.46875 L 203.535156 233.933594 L 203.90625 233.933594 " fill-opacity="1" fill-rule="nonzero"/><path fill="rgb(100%, 100%, 100%)" d="M 203.535156 198.460938 L 203.535156 213.570312 L 203.90625 213.953125 C 203.90625 208.851562 203.90625 203.480469 203.90625 198.773438 L 203.535156 198.460938 " fill-opacity="1" fill-rule="nonzero"/><path fill="rgb(100%, 100%, 100%)" d="M 196.914062 229.554688 L 196.914062 233.933594 L 202.066406 233.933594 L 202.066406 228.707031 L 196.914062 229.554688 " fill-opacity="1" fill-rule="nonzero"/><path fill="rgb(100%, 100%, 100%)" d="M 196.914062 168.246094 L 196.914062 172.582031 L 197.191406 181.753906 L 199.09375 181.753906 L 199.347656 175.085938 L 199.703125 184.421875 L 200.695312 184.421875 L 200.695312 176.617188 L 201.402344 177.867188 L 201.402344 194.3125 L 202.601562 195.511719 L 202.945312 185.667969 L 203.316406 196.230469 L 204.34375 197.261719 L 204.34375 180.128906 L 196.914062 168.246094 " fill-opacity="1" fill-rule="nonzero"/><path fill="rgb(100%, 100%, 100%)" d="M 196.914062 167.777344 L 204.34375 179.65625 L 204.34375 178.839844 L 196.914062 166.957031 L 196.914062 167.777344 " fill-opacity="1" fill-rule="nonzero"/><path fill="rgb(100%, 100%, 100%)" d="M 197.621094 184.421875 L 198.640625 184.421875 L 198.640625 182.464844 L 197.621094 182.464844 L 197.621094 184.421875 " fill-opacity="1" fill-rule="nonzero"/><path fill="rgb(100%, 100%, 100%)" d="M 176.730469 208.0625 C 176.78125 208.011719 176.824219 207.957031 176.871094 207.90625 L 176.871094 186.714844 L 174.234375 186.714844 L 174.234375 196.050781 L 170.984375 198.773438 C 170.984375 203.480469 170.984375 208.851562 170.984375 213.953125 L 176.730469 208.0625 " fill-opacity="1" fill-rule="nonzero"/><path fill="rgb(100%, 100%, 100%)" d="M 178.777344 202.691406 L 178.777344 185.171875 L 178.339844 185.171875 L 178.339844 204.613281 L 178.777344 202.691406 " fill-opacity="1" fill-rule="nonzero"/><path fill="rgb(100%, 100%, 100%)" d="M 175.253906 233.933594 L 176.871094 233.933594 L 176.871094 229.375 L 170.984375 228.40625 C 170.984375 231.792969 170.984375 233.933594 170.984375 233.933594 L 175.253906 233.933594 " fill-opacity="1" fill-rule="nonzero"/><path fill="rgb(100%, 100%, 100%)" d="M 178.339844 233.933594 L 178.777344 233.933594 L 178.777344 229.6875 L 178.339844 229.617188 L 178.339844 233.933594 " fill-opacity="1" fill-rule="nonzero"/><path fill="rgb(100%, 100%, 100%)" d="M 170.546875 179.65625 L 178.777344 166.5 L 178.777344 165.679688 L 170.546875 178.839844 L 170.546875 179.65625 " fill-opacity="1" fill-rule="nonzero"/><path fill="rgb(100%, 100%, 100%)" d="M 176.253906 184.421875 L 177.269531 184.421875 L 177.269531 182.464844 L 176.253906 182.464844 L 176.253906 184.421875 " fill-opacity="1" fill-rule="nonzero"/><path fill="rgb(100%, 100%, 100%)" d="M 170.546875 197.261719 L 171.574219 196.230469 L 171.945312 185.667969 L 172.289062 195.511719 L 173.488281 194.3125 L 173.488281 177.867188 L 174.195312 176.617188 L 174.195312 184.421875 L 175.191406 184.421875 L 175.542969 175.085938 L 175.800781 181.753906 L 177.699219 181.753906 L 177.980469 172.582031 L 178.339844 184.421875 L 178.777344 184.421875 L 178.777344 166.96875 L 170.546875 180.128906 L 170.546875 197.261719 " fill-opacity="1" fill-rule="nonzero"/><path fill="rgb(100%, 100%, 100%)" d="M 190.761719 174.421875 L 190.761719 169.488281 L 187.914062 169.488281 L 187.914062 171.671875 C 188.949219 171.882812 189.898438 172.800781 190.761719 174.421875 " fill-opacity="1" fill-rule="nonzero"/><path fill="rgb(100%, 100%, 100%)" d="M 187.914062 169.113281 L 190.761719 169.113281 L 190.761719 160.714844 L 187.914062 160.714844 L 187.914062 169.113281 " fill-opacity="1" fill-rule="nonzero"/><path fill="rgb(100%, 100%, 100%)" d="M 195.363281 233.257812 C 195.363281 232.570312 195.363281 231.378906 195.363281 229.808594 L 194.953125 229.878906 L 194.953125 231.835938 C 195.140625 232.277344 195.273438 232.757812 195.363281 233.257812 " fill-opacity="1" fill-rule="nonzero"/><path fill="rgb(100%, 100%, 100%)" d="M 179.9375 231.835938 L 179.9375 229.878906 L 179.527344 229.808594 C 179.527344 231.378906 179.527344 232.570312 179.527344 233.257812 C 179.617188 232.757812 179.75 232.277344 179.9375 231.835938 " fill-opacity="1" fill-rule="nonzero"/><path fill="rgb(100%, 100%, 100%)" d="M 179.527344 184.421875 C 179.527344 184.804688 179.527344 185.1875 179.527344 185.574219 C 179.527344 187.214844 179.527344 192.707031 179.527344 199.429688 L 179.9375 197.640625 L 179.9375 153.753906 L 181.558594 153.753906 L 181.558594 182.707031 C 181.769531 181.613281 182.007812 180.546875 182.265625 179.558594 C 183.542969 174.699219 185.125 172.050781 186.976562 171.671875 L 186.976562 169.488281 L 181.792969 169.488281 L 181.792969 169.113281 L 186.976562 169.113281 L 186.976562 160.714844 L 181.792969 160.714844 L 181.792969 160.339844 L 186.976562 160.339844 L 186.976562 153.753906 L 187.914062 153.753906 L 187.914062 160.339844 L 190.761719 160.339844 L 190.761719 153.753906 L 194.953125 153.753906 L 194.953125 197.640625 L 195.363281 199.429688 C 195.363281 192.707031 195.363281 187.214844 195.363281 185.574219 C 195.363281 185.1875 195.363281 184.804688 195.363281 184.421875 L 195.363281 164.484375 C 195.363281 159.210938 195.363281 155.21875 195.363281 153.371094 C 195.363281 153.371094 195.363281 153.371094 195.359375 153.371094 L 179.53125 153.371094 C 179.53125 153.371094 179.527344 153.371094 179.527344 153.371094 C 179.527344 155.21875 179.527344 159.210938 179.527344 164.484375 L 179.527344 184.421875 " fill-opacity="1" fill-rule="nonzero"/><path fill="rgb(100%, 100%, 100%)" d="M 179.53125 152.617188 L 194.261719 152.617188 C 194.261719 152.617188 186.453125 152.214844 182.429688 151.609375 C 182.386719 151.066406 182.355469 150.511719 182.335938 149.960938 C 182.316406 149.273438 182.3125 148.585938 182.324219 147.898438 C 182.335938 147.210938 182.375 146.519531 182.429688 145.832031 C 182.484375 145.144531 182.574219 144.460938 182.6875 143.773438 C 182.476562 144.433594 182.28125 145.105469 182.125 145.785156 C 181.964844 146.460938 181.820312 147.148438 181.707031 147.835938 C 181.585938 148.527344 181.484375 149.222656 181.402344 149.917969 C 181.34375 150.410156 181.296875 150.902344 181.257812 151.402344 C 180.855469 151.316406 180.539062 151.226562 180.339844 151.136719 C 180.636719 147.761719 181.605469 144.066406 182.800781 140.953125 C 184.382812 136.839844 186.355469 133.746094 187.695312 133.746094 C 190.199219 133.746094 194.917969 144.566406 195.140625 152.617188 L 195.359375 152.617188 C 195.191406 144.046875 190.417969 133.175781 187.445312 133.175781 C 184.476562 133.175781 179.699219 144.046875 179.53125 152.617188 Z M 180.085938 150.636719 C 180.085938 150.644531 180.085938 150.722656 180.085938 150.910156 C 180.085938 150.722656 180.085938 150.644531 180.085938 150.636719 " fill-opacity="1" fill-rule="nonzero"/><path fill="rgb(100%, 100%, 100%)" d="M 172.800781 227.105469 L 172.800781 221.796875 L 166.242188 221.796875 C 166.277344 221.414062 166.351562 221.039062 166.46875 220.675781 C 166.746094 219.824219 167.238281 219.066406 167.890625 218.449219 L 169.800781 216.507812 C 171.058594 215.203125 172.328125 213.90625 173.578125 212.589844 C 174.828125 211.277344 176.078125 209.960938 177.304688 208.625 C 176 209.882812 174.714844 211.164062 173.429688 212.449219 C 172.148438 213.730469 170.882812 215.03125 169.609375 216.320312 L 167.71875 218.277344 C 167.0625 218.914062 166.527344 219.71875 166.273438 220.613281 C 166.140625 221.058594 166.066406 221.519531 166.054688 221.980469 C 166.050781 222.441406 166.066406 222.890625 166.070312 223.34375 C 166.089844 224.253906 166.105469 225.164062 166.132812 226.070312 L 172.800781 227.105469 " fill-opacity="1" fill-rule="nonzero"/><path fill="rgb(100%, 100%, 100%)" d="M 168.765625 218.542969 C 168.214844 219.105469 167.691406 219.726562 167.480469 220.453125 L 180.578125 220.453125 L 180.578125 202.832031 L 179.769531 206.351562 C 179.511719 207.484375 178.949219 208.519531 178.136719 209.351562 Z M 176.304688 213.117188 C 175.703125 213.738281 175.085938 214.347656 174.46875 214.957031 C 173.847656 215.558594 173.226562 216.160156 172.589844 216.75 L 171.636719 217.632812 C 171.3125 217.917969 170.992188 218.210938 170.660156 218.492188 C 170.949219 218.167969 171.25 217.855469 171.542969 217.535156 L 172.445312 216.601562 C 173.046875 215.976562 173.664062 215.371094 174.28125 214.761719 C 174.902344 214.15625 175.523438 213.554688 176.160156 212.96875 C 176.796875 212.378906 177.433594 211.789062 178.089844 211.226562 C 177.511719 211.871094 176.910156 212.496094 176.304688 213.117188 " fill-opacity="1" fill-rule="nonzero"/><path fill="rgb(100%, 100%, 100%)" d="M 173.066406 227.148438 L 180.578125 228.3125 L 180.578125 221.796875 L 173.066406 221.796875 Z M 179.25 222.269531 L 179.25 222.75 L 174.921875 222.75 L 174.921875 222.269531 L 179.25 222.269531 " fill-opacity="1" fill-rule="nonzero"/><path fill="rgb(100%, 100%, 100%)" d="M 208.757812 226.070312 C 208.785156 225.164062 208.800781 224.253906 208.820312 223.34375 C 208.828125 222.890625 208.839844 222.441406 208.835938 221.980469 C 208.824219 221.519531 208.75 221.058594 208.617188 220.613281 C 208.367188 219.71875 207.828125 218.914062 207.171875 218.277344 L 205.28125 216.320312 C 204.007812 215.03125 202.742188 213.730469 201.460938 212.449219 C 200.179688 211.164062 198.894531 209.882812 197.585938 208.625 C 198.8125 209.960938 200.0625 211.277344 201.3125 212.589844 C 202.5625 213.90625 203.832031 215.203125 205.089844 216.507812 L 207 218.449219 C 207.652344 219.066406 208.144531 219.824219 208.421875 220.675781 C 208.539062 221.039062 208.613281 221.414062 208.648438 221.796875 L 202.09375 221.796875 L 202.09375 227.105469 L 208.757812 226.070312 " fill-opacity="1" fill-rule="nonzero"/><path fill="rgb(100%, 100%, 100%)" d="M 207.410156 220.453125 C 207.199219 219.726562 206.675781 219.105469 206.117188 218.53125 L 196.765625 209.359375 C 196.398438 208.988281 196.085938 208.570312 195.828125 208.128906 L 195.828125 220.453125 Z M 202.300781 216.75 C 201.664062 216.160156 201.042969 215.558594 200.421875 214.957031 C 199.804688 214.347656 199.1875 213.738281 198.585938 213.117188 C 197.980469 212.496094 197.378906 211.871094 196.800781 211.226562 C 197.457031 211.789062 198.097656 212.378906 198.730469 212.96875 C 199.367188 213.554688 199.988281 214.15625 200.609375 214.761719 C 201.226562 215.371094 201.84375 215.976562 202.445312 216.601562 L 203.347656 217.535156 C 203.640625 217.855469 203.941406 218.167969 204.230469 218.492188 C 203.898438 218.210938 203.582031 217.917969 203.253906 217.632812 L 202.300781 216.75 " fill-opacity="1" fill-rule="nonzero"/><path fill="rgb(100%, 100%, 100%)" d="M 195.828125 221.796875 L 195.828125 222.269531 L 199.96875 222.269531 L 199.96875 222.75 L 195.828125 222.75 L 195.828125 228.078125 L 201.824219 227.148438 L 201.824219 221.796875 L 195.828125 221.796875 " fill-opacity="1" fill-rule="nonzero"/><g clip-path="url(#id1)"><path fill="rgb(9.01947%, 9.408569%, 10.5896%)" d="M 207.855469 218 L 204.65625 214.71875 L 204.65625 197.941406 C 204.921875 197.820312 205.09375 197.554688 205.09375 197.261719 L 205.09375 178.839844 C 205.09375 178.699219 205.050781 178.558594 204.976562 178.4375 L 196.113281 164.265625 L 196.113281 153.078125 C 196.113281 152.929688 196.109375 152.78125 196.105469 152.632812 C 196.105469 152.621094 196.109375 152.613281 196.109375 152.605469 C 196.105469 152.558594 196.105469 152.507812 196.101562 152.460938 C 196.101562 152.332031 196.09375 152.203125 196.089844 152.070312 C 196.082031 151.9375 196.078125 151.804688 196.070312 151.671875 C 196.0625 151.546875 196.054688 151.417969 196.046875 151.292969 C 196.035156 151.152344 196.027344 151.015625 196.015625 150.875 C 196.003906 150.746094 195.992188 150.613281 195.976562 150.480469 C 195.964844 150.34375 195.953125 150.207031 195.9375 150.070312 C 195.921875 149.929688 195.902344 149.789062 195.886719 149.648438 C 195.871094 149.515625 195.855469 149.386719 195.835938 149.257812 C 195.816406 149.105469 195.792969 148.949219 195.769531 148.796875 C 195.753906 148.675781 195.734375 148.558594 195.714844 148.4375 C 195.6875 148.269531 195.660156 148.101562 195.632812 147.933594 C 195.613281 147.824219 195.59375 147.71875 195.574219 147.609375 C 195.539062 147.429688 195.507812 147.25 195.46875 147.070312 C 195.449219 146.96875 195.429688 146.871094 195.410156 146.773438 C 195.371094 146.585938 195.332031 146.394531 195.289062 146.203125 C 195.269531 146.113281 195.246094 146.019531 195.226562 145.925781 C 195.183594 145.734375 195.136719 145.539062 195.089844 145.34375 C 195.066406 145.253906 195.042969 145.164062 195.023438 145.070312 C 194.972656 144.875 194.921875 144.683594 194.871094 144.488281 C 194.84375 144.394531 194.820312 144.300781 194.792969 144.207031 C 194.742188 144.019531 194.691406 143.828125 194.632812 143.640625 C 194.605469 143.539062 194.574219 143.4375 194.546875 143.335938 C 194.492188 143.15625 194.4375 142.976562 194.382812 142.796875 C 194.347656 142.6875 194.308594 142.574219 194.273438 142.464844 C 194.21875 142.296875 194.164062 142.128906 194.109375 141.960938 C 194.070312 141.839844 194.023438 141.714844 193.984375 141.59375 C 193.929688 141.441406 193.875 141.285156 193.820312 141.132812 C 193.773438 141 193.722656 140.871094 193.675781 140.738281 C 193.621094 140.59375 193.566406 140.453125 193.511719 140.308594 C 193.460938 140.175781 193.40625 140.039062 193.351562 139.90625 C 193.3125 139.804688 193.273438 139.703125 193.230469 139.601562 C 193.128906 139.351562 193.003906 139.0625 192.867188 138.75 C 192.835938 138.683594 192.808594 138.617188 192.777344 138.554688 C 192.714844 138.414062 192.648438 138.273438 192.582031 138.125 C 192.507812 137.972656 192.433594 137.820312 192.363281 137.671875 C 192.339844 137.628906 192.320312 137.589844 192.300781 137.546875 C 192.210938 137.363281 192.117188 137.183594 192.027344 137.011719 C 192.015625 136.992188 192.007812 136.976562 192 136.960938 C 191.902344 136.777344 191.804688 136.597656 191.707031 136.421875 C 191.691406 136.398438 191.675781 136.371094 191.664062 136.34375 C 191.570312 136.179688 191.476562 136.019531 191.382812 135.863281 C 191.355469 135.820312 191.328125 135.777344 191.300781 135.730469 C 191.21875 135.597656 191.132812 135.464844 191.050781 135.335938 C 191.011719 135.277344 190.976562 135.222656 190.9375 135.164062 C 190.882812 135.085938 190.832031 135.007812 190.777344 134.929688 C 190.710938 134.835938 190.640625 134.738281 190.574219 134.644531 C 190.550781 134.617188 190.53125 134.585938 190.507812 134.554688 C 189.949219 133.8125 189.398438 133.265625 188.863281 132.910156 C 188.855469 132.90625 188.851562 132.902344 188.84375 132.898438 C 188.777344 132.851562 188.707031 132.8125 188.640625 132.773438 C 188.632812 132.769531 188.621094 132.761719 188.613281 132.757812 C 188.539062 132.71875 188.46875 132.679688 188.394531 132.648438 C 188.394531 132.648438 188.394531 132.644531 188.390625 132.644531 C 188.316406 132.609375 188.238281 132.582031 188.164062 132.554688 C 188.15625 132.550781 188.144531 132.546875 188.136719 132.546875 C 188.074219 132.523438 188.011719 132.503906 187.949219 132.492188 C 187.929688 132.484375 187.90625 132.480469 187.886719 132.476562 C 187.832031 132.464844 187.777344 132.457031 187.726562 132.445312 C 187.703125 132.445312 187.683594 132.441406 187.664062 132.4375 C 187.589844 132.429688 187.519531 132.425781 187.445312 132.425781 C 187.375 132.425781 187.300781 132.429688 187.230469 132.4375 C 187.207031 132.441406 187.1875 132.445312 187.164062 132.445312 C 187.113281 132.457031 187.058594 132.464844 187.007812 132.476562 C 186.984375 132.480469 186.960938 132.484375 186.941406 132.492188 C 186.878906 132.503906 186.816406 132.523438 186.753906 132.546875 C 186.746094 132.546875 186.734375 132.550781 186.726562 132.554688 C 186.652344 132.582031 186.574219 132.609375 186.5 132.644531 C 186.5 132.644531 186.496094 132.648438 186.496094 132.648438 C 186.421875 132.679688 186.351562 132.71875 186.277344 132.757812 C 186.269531 132.761719 186.257812 132.769531 186.25 132.773438 C 186.183594 132.8125 186.117188 132.851562 186.046875 132.898438 C 186.042969 132.902344 186.035156 132.90625 186.027344 132.910156 C 185.492188 133.265625 184.941406 133.8125 184.382812 134.554688 C 184.363281 134.585938 184.339844 134.617188 184.320312 134.644531 C 184.25 134.738281 184.179688 134.835938 184.113281 134.929688 C 184.058594 135.007812 184.007812 135.085938 183.953125 135.164062 C 183.917969 135.21875 183.878906 135.277344 183.839844 135.335938 C 183.757812 135.464844 183.671875 135.59375 183.589844 135.730469 C 183.5625 135.777344 183.535156 135.820312 183.507812 135.863281 C 183.414062 136.019531 183.320312 136.179688 183.226562 136.34375 C 183.214844 136.371094 183.199219 136.394531 183.183594 136.421875 C 183.085938 136.597656 182.988281 136.777344 182.890625 136.960938 C 182.882812 136.976562 182.875 136.992188 182.863281 137.007812 C 182.773438 137.183594 182.683594 137.363281 182.589844 137.546875 C 182.570312 137.589844 182.550781 137.628906 182.527344 137.671875 C 182.457031 137.820312 182.382812 137.972656 182.3125 138.125 C 182.242188 138.273438 182.175781 138.414062 182.113281 138.554688 C 182.085938 138.617188 182.054688 138.683594 182.023438 138.75 C 181.886719 139.0625 181.761719 139.351562 181.660156 139.601562 C 181.617188 139.703125 181.578125 139.804688 181.539062 139.90625 C 181.484375 140.042969 181.433594 140.175781 181.378906 140.308594 C 181.324219 140.453125 181.269531 140.59375 181.21875 140.738281 C 181.167969 140.871094 181.117188 141 181.070312 141.132812 C 181.015625 141.285156 180.960938 141.441406 180.90625 141.597656 C 180.863281 141.71875 180.824219 141.839844 180.78125 141.960938 C 180.726562 142.128906 180.671875 142.296875 180.617188 142.464844 C 180.582031 142.574219 180.546875 142.6875 180.511719 142.796875 C 180.453125 142.976562 180.398438 143.15625 180.347656 143.335938 C 180.316406 143.4375 180.285156 143.539062 180.257812 143.640625 C 180.203125 143.828125 180.148438 144.019531 180.097656 144.207031 C 180.070312 144.300781 180.046875 144.394531 180.019531 144.488281 C 179.96875 144.683594 179.917969 144.875 179.871094 145.070312 C 179.847656 145.164062 179.824219 145.253906 179.800781 145.34375 C 179.753906 145.539062 179.707031 145.734375 179.664062 145.925781 C 179.644531 146.019531 179.621094 146.113281 179.601562 146.203125 C 179.558594 146.394531 179.519531 146.585938 179.480469 146.773438 C 179.460938 146.871094 179.441406 146.96875 179.421875 147.070312 C 179.386719 147.25 179.351562 147.429688 179.316406 147.609375 C 179.296875 147.71875 179.277344 147.828125 179.261719 147.933594 C 179.230469 148.101562 179.203125 148.269531 179.175781 148.4375 C 179.15625 148.558594 179.140625 148.675781 179.121094 148.796875 C 179.097656 148.949219 179.078125 149.105469 179.054688 149.257812 C 179.039062 149.386719 179.019531 149.515625 179.003906 149.648438 C 178.988281 149.789062 178.972656 149.929688 178.953125 150.070312 C 178.941406 150.207031 178.925781 150.34375 178.914062 150.480469 C 178.898438 150.613281 178.886719 150.742188 178.878906 150.875 C 178.863281 151.015625 178.855469 151.152344 178.84375 151.292969 C 178.835938 151.421875 178.828125 151.546875 178.820312 151.671875 C 178.8125 151.804688 178.808594 151.9375 178.800781 152.074219 C 178.796875 152.203125 178.792969 152.332031 178.789062 152.460938 C 178.785156 152.507812 178.785156 152.558594 178.785156 152.605469 C 178.78125 152.613281 178.785156 152.621094 178.785156 152.632812 C 178.78125 152.78125 178.777344 152.929688 178.777344 153.078125 L 178.777344 164.265625 L 169.914062 178.4375 C 169.839844 178.558594 169.800781 178.699219 169.800781 178.839844 L 169.800781 197.261719 C 169.800781 197.554688 169.96875 197.820312 170.234375 197.941406 L 170.234375 214.71875 L 167.035156 218 C 165.9375 219.125 165.332031 220.613281 165.332031 222.191406 L 165.332031 226.070312 C 165.332031 226.46875 165.621094 226.808594 166.011719 226.867188 L 170.234375 227.523438 L 170.234375 233.933594 C 170.234375 234.351562 170.570312 234.6875 170.984375 234.6875 L 171.226562 234.6875 C 171.378906 235.636719 171.519531 236.269531 171.542969 236.363281 C 171.59375 236.59375 171.792969 236.753906 172.027344 236.757812 L 171.578125 239.535156 C 171.554688 239.683594 171.597656 239.835938 171.695312 239.953125 C 171.789062 240.066406 171.933594 240.132812 172.082031 240.132812 L 179.925781 240.132812 L 179.84375 240.503906 C 179.8125 240.644531 179.847656 240.796875 179.9375 240.910156 C 180.03125 241.023438 180.167969 241.089844 180.3125 241.089844 L 185.953125 241.089844 C 186.101562 241.089844 186.238281 241.023438 186.328125 240.910156 C 186.421875 240.796875 186.457031 240.644531 186.425781 240.503906 L 186.238281 239.664062 C 186.34375 239.597656 186.421875 239.496094 186.453125 239.371094 C 186.460938 239.320312 186.523438 239.054688 186.597656 238.636719 L 186.597656 238.707031 L 186.867188 243.136719 C 186.867188 243.164062 186.875 243.191406 186.886719 243.21875 L 187.195312 244.003906 C 187.238281 244.105469 187.335938 244.171875 187.445312 244.171875 C 187.554688 244.171875 187.652344 244.105469 187.695312 244.003906 L 188.007812 243.21875 C 188.015625 243.191406 188.023438 243.164062 188.023438 243.136719 L 188.292969 238.703125 L 188.296875 238.636719 C 188.367188 239.054688 188.429688 239.320312 188.441406 239.371094 C 188.46875 239.496094 188.546875 239.597656 188.652344 239.664062 L 188.46875 240.503906 C 188.433594 240.644531 188.46875 240.796875 188.5625 240.910156 C 188.652344 241.023438 188.792969 241.089844 188.9375 241.089844 L 194.578125 241.089844 C 194.722656 241.089844 194.863281 241.023438 194.953125 240.910156 C 195.042969 240.796875 195.078125 240.644531 195.046875 240.503906 L 194.96875 240.132812 L 202.808594 240.132812 C 202.957031 240.132812 203.101562 240.066406 203.199219 239.953125 C 203.292969 239.835938 203.335938 239.683594 203.3125 239.535156 L 202.863281 236.757812 C 203.097656 236.753906 203.296875 236.59375 203.347656 236.363281 C 203.371094 236.269531 203.511719 235.636719 203.664062 234.6875 L 203.90625 234.6875 C 204.320312 234.6875 204.65625 234.351562 204.65625 233.933594 L 204.65625 227.523438 L 208.878906 226.867188 C 209.269531 226.808594 209.558594 226.46875 209.558594 226.070312 L 209.558594 222.191406 C 209.558594 220.613281 208.953125 219.125 207.855469 218 Z M 202.851562 236.246094 L 195.5 236.246094 C 195.527344 235.746094 195.539062 235.21875 195.515625 234.6875 L 199.070312 234.6875 C 198.886719 235.144531 198.683594 235.582031 198.472656 235.988281 L 202.644531 235.988281 C 202.695312 235.746094 202.785156 235.289062 202.878906 234.6875 L 203.140625 234.6875 C 203.117188 234.851562 203.089844 235.003906 203.066406 235.148438 C 203.042969 235.273438 203.023438 235.386719 203.003906 235.492188 C 202.914062 235.96875 202.851562 236.246094 202.851562 236.246094 Z M 194.578125 240.605469 L 188.9375 240.605469 L 189.125 239.746094 L 189.300781 239.746094 L 189.148438 240.4375 L 189.546875 240.4375 L 189.664062 239.746094 L 190.125 239.746094 L 189.988281 240.4375 L 190.347656 240.4375 L 190.445312 239.746094 L 191.976562 239.746094 L 191.949219 240.4375 L 193.476562 240.4375 L 193.367188 239.746094 L 193.875 239.746094 L 193.984375 240.4375 L 194.367188 240.4375 L 194.214844 239.746094 L 194.386719 239.746094 Z M 187.445312 243.179688 L 187.398438 243.058594 L 187.132812 238.675781 L 186.605469 227.554688 C 186.546875 226.726562 186.707031 225.910156 187.066406 225.179688 L 187.445312 238.289062 L 187.710938 229.144531 L 187.8125 233.644531 L 188.175781 229.851562 L 187.757812 238.671875 L 187.492188 243.058594 Z M 185.980469 239.261719 L 180.285156 239.261719 C 180.285156 239.261719 178.296875 230.605469 182.777344 230.171875 C 182.890625 230.160156 183.007812 230.148438 183.132812 230.148438 C 188.078125 230.148438 185.980469 239.261719 185.980469 239.261719 Z M 180.503906 239.746094 L 180.675781 239.746094 L 180.523438 240.4375 L 180.921875 240.4375 L 181.039062 239.746094 L 181.5 239.746094 L 181.367188 240.4375 L 181.722656 240.4375 L 181.820312 239.746094 L 183.351562 239.746094 L 183.324219 240.4375 L 184.851562 240.4375 L 184.742188 239.746094 L 185.25 239.746094 L 185.359375 240.4375 L 185.742188 240.4375 L 185.59375 239.746094 L 185.765625 239.746094 L 185.953125 240.605469 L 180.3125 240.605469 Z M 172.039062 236.246094 C 172.039062 236.246094 171.902344 235.644531 171.75 234.6875 L 177.023438 234.6875 C 176.835938 235.144531 176.636719 235.582031 176.425781 235.988281 L 179.378906 235.988281 C 179.382812 236.078125 179.386719 236.164062 179.390625 236.246094 Z M 202.070312 238.039062 C 201.769531 238.070312 201.464844 238.082031 201.160156 238.105469 L 200.253906 238.144531 C 199.648438 238.167969 199.042969 238.171875 198.4375 238.175781 C 197.832031 238.171875 197.226562 238.167969 196.617188 238.144531 L 195.710938 238.105469 C 195.578125 238.09375 195.445312 238.085938 195.3125 238.078125 C 195.367188 237.695312 195.421875 237.246094 195.464844 236.761719 L 196.109375 236.761719 L 195.941406 237.960938 L 196.4375 237.941406 L 196.554688 236.761719 L 198.835938 236.761719 L 198.804688 237.90625 C 199.285156 237.910156 199.769531 237.914062 200.253906 237.933594 L 200.960938 237.964844 L 200.824219 236.761719 L 201.605469 236.761719 L 201.746094 238.011719 C 201.855469 238.019531 201.964844 238.027344 202.070312 238.039062 Z M 173.328125 236.761719 L 174.0625 236.761719 L 173.890625 237.960938 L 174.386719 237.941406 L 174.507812 236.761719 L 176.789062 236.761719 L 176.753906 237.90625 C 177.238281 237.910156 177.722656 237.914062 178.203125 237.933594 L 178.914062 237.964844 L 178.777344 236.761719 L 179.425781 236.761719 C 179.46875 237.246094 179.523438 237.691406 179.578125 238.074219 C 179.425781 238.082031 179.269531 238.09375 179.113281 238.105469 L 178.203125 238.144531 C 177.597656 238.167969 176.992188 238.171875 176.386719 238.175781 C 175.78125 238.171875 175.175781 238.167969 174.570312 238.144531 L 173.660156 238.105469 C 173.359375 238.082031 173.054688 238.070312 172.753906 238.039062 C 172.894531 238.023438 173.035156 238.011719 173.175781 238.003906 Z M 179.527344 153.371094 C 179.527344 153.371094 179.53125 153.371094 179.53125 153.371094 L 195.359375 153.371094 C 195.363281 153.371094 195.363281 153.371094 195.363281 153.371094 C 195.363281 155.21875 195.363281 159.210938 195.363281 164.484375 L 195.363281 184.421875 C 195.363281 184.804688 195.363281 185.1875 195.363281 185.574219 C 195.363281 187.214844 195.363281 192.707031 195.363281 199.429688 L 194.953125 197.640625 L 194.953125 153.753906 L 190.761719 153.753906 L 190.761719 160.339844 L 187.914062 160.339844 L 187.914062 153.753906 L 186.976562 153.753906 L 186.976562 160.339844 L 181.792969 160.339844 L 181.792969 160.714844 L 186.976562 160.714844 L 186.976562 169.113281 L 181.792969 169.113281 L 181.792969 169.488281 L 186.976562 169.488281 L 186.976562 171.671875 C 185.125 172.050781 183.542969 174.699219 182.265625 179.558594 C 182.007812 180.546875 181.769531 181.613281 181.558594 182.707031 L 181.558594 153.753906 L 179.9375 153.753906 L 179.9375 197.640625 L 179.527344 199.429688 C 179.527344 192.707031 179.527344 187.214844 179.527344 185.574219 C 179.527344 185.1875 179.527344 184.804688 179.527344 184.421875 L 179.527344 164.484375 C 179.527344 159.210938 179.527344 155.21875 179.527344 153.371094 Z M 187.445312 133.175781 C 190.417969 133.175781 195.191406 144.046875 195.359375 152.617188 L 195.140625 152.617188 C 194.917969 144.566406 190.199219 133.746094 187.695312 133.746094 C 186.355469 133.746094 184.382812 136.839844 182.800781 140.953125 C 181.605469 144.066406 180.636719 147.761719 180.339844 151.136719 C 180.539062 151.226562 180.855469 151.316406 181.257812 151.402344 C 181.296875 150.902344 181.34375 150.410156 181.402344 149.917969 C 181.484375 149.222656 181.585938 148.527344 181.707031 147.835938 C 181.820312 147.148438 181.964844 146.460938 182.125 145.785156 C 182.28125 145.105469 182.476562 144.433594 182.6875 143.773438 C 182.574219 144.460938 182.484375 145.144531 182.429688 145.832031 C 182.375 146.519531 182.335938 147.210938 182.324219 147.898438 C 182.3125 148.585938 182.316406 149.273438 182.335938 149.960938 C 182.355469 150.511719 182.386719 151.066406 182.429688 151.609375 C 186.453125 152.214844 194.261719 152.617188 194.261719 152.617188 L 179.53125 152.617188 C 179.699219 144.046875 184.476562 133.175781 187.445312 133.175781 Z M 201.824219 221.796875 L 201.824219 227.148438 L 195.828125 228.078125 L 195.828125 222.75 L 199.96875 222.75 L 199.96875 222.269531 L 195.828125 222.269531 L 195.828125 221.796875 Z M 193.386719 230.042969 C 193.390625 229.464844 193.390625 228.875 193.394531 228.296875 L 193.417969 218.726562 L 193.441406 209.152344 L 193.507812 199.582031 L 193.574219 209.152344 L 193.601562 218.726562 L 193.625 228.296875 C 193.621094 228.925781 193.625 229.546875 193.625 230.175781 C 193.546875 230.128906 193.46875 230.085938 193.386719 230.042969 Z M 187.238281 223.933594 C 186.390625 224.960938 185.976562 226.261719 186.070312 227.585938 L 186.265625 231.6875 C 186.128906 231.394531 185.96875 231.125 185.777344 230.882812 C 185.207031 230.164062 184.4375 229.761719 183.488281 229.683594 L 183.132812 226.300781 L 182.777344 229.683594 C 182.207031 229.730469 181.703125 229.894531 181.269531 230.175781 C 181.265625 229.546875 181.269531 228.925781 181.269531 228.296875 L 181.292969 218.726562 L 181.316406 209.152344 L 181.382812 199.582031 L 181.382812 191.527344 C 181.382812 191.277344 181.386719 191.011719 181.394531 190.734375 C 181.460938 187.515625 181.917969 184.308594 182.597656 181.160156 C 182.972656 179.457031 183.441406 177.769531 184.089844 176.140625 C 184.417969 175.332031 184.792969 174.53125 185.289062 173.796875 C 185.542969 173.4375 185.824219 173.085938 186.179688 172.800781 C 186.527344 172.515625 186.964844 172.292969 187.445312 172.292969 C 187.925781 172.292969 188.363281 172.515625 188.710938 172.800781 C 189.066406 173.085938 189.347656 173.4375 189.601562 173.796875 C 190.097656 174.53125 190.472656 175.332031 190.804688 176.140625 C 191.453125 177.769531 191.917969 179.457031 192.292969 181.160156 C 192.972656 184.304688 193.429688 187.507812 193.496094 190.726562 C 193.5 190.8125 193.5 190.898438 193.503906 190.984375 C 193.5 190.921875 193.5 190.859375 193.496094 190.796875 C 193.5 191.039062 193.507812 191.285156 193.507812 191.527344 C 193.476562 189.785156 193.292969 188.054688 193.046875 186.332031 C 192.804688 184.609375 192.492188 182.898438 192.09375 181.207031 C 191.691406 179.515625 191.230469 177.835938 190.578125 176.234375 C 190.25 175.433594 189.875 174.652344 189.390625 173.945312 C 189.148438 173.597656 188.875 173.265625 188.550781 173.003906 C 188.226562 172.746094 187.84375 172.558594 187.445312 172.5625 C 187.046875 172.5625 186.664062 172.746094 186.34375 173.003906 C 186.019531 173.265625 185.746094 173.597656 185.5 173.945312 C 185.015625 174.652344 184.640625 175.433594 184.3125 176.234375 C 183.660156 177.835938 183.203125 179.515625 182.796875 181.207031 C 182.398438 182.898438 182.085938 184.609375 181.84375 186.332031 C 181.832031 186.425781 181.820312 186.519531 181.808594 186.617188 L 182.339844 186.839844 C 182.339844 186.839844 183.050781 179.015625 185.292969 175.703125 C 185.328125 175.648438 185.363281 175.589844 185.398438 175.535156 C 185.679688 175.125 186.007812 174.730469 186.4375 174.445312 C 186.863281 174.15625 187.4375 174.035156 187.941406 174.203125 C 188.445312 174.363281 188.835938 174.726562 189.152344 175.109375 C 189.472656 175.496094 189.726562 175.925781 189.945312 176.367188 C 190.816406 178.144531 191.300781 180.0625 191.6875 181.980469 C 191.441406 181.03125 191.1875 180.085938 190.875 179.160156 C 190.566406 178.234375 190.222656 177.316406 189.765625 176.460938 C 189.554688 176.070312 189.320312 175.691406 189.046875 175.347656 C 189.667969 178.039062 190.179688 181.472656 190.496094 185.121094 C 190.691406 185.210938 190.878906 185.308594 191.0625 185.417969 C 191.398438 185.621094 191.707031 185.847656 191.992188 186.132812 L 192.039062 186.183594 L 192.019531 186.246094 C 191.835938 186.855469 191.632812 187.460938 191.40625 188.058594 C 191.511719 187.453125 191.640625 186.851562 191.78125 186.257812 C 191.523438 186.03125 191.226562 185.824219 190.925781 185.648438 C 190.605469 185.457031 190.269531 185.292969 189.921875 185.15625 C 189.574219 185.023438 189.21875 184.902344 188.851562 184.824219 C 188.667969 184.773438 188.480469 184.75 188.296875 184.710938 C 188.109375 184.679688 187.917969 184.667969 187.730469 184.636719 L 187.730469 186.214844 C 189.9375 186.214844 189.96875 188.496094 189.96875 188.496094 L 190.714844 188.269531 C 190.796875 189.796875 190.839844 191.332031 190.839844 192.84375 C 190.839844 199.765625 190.839844 217.050781 190.839844 228.664062 C 190.066406 227.492188 188.980469 225.871094 188.226562 224.796875 C 188.066406 224.492188 187.875 224.203125 187.652344 223.933594 C 187.601562 223.871094 187.523438 223.835938 187.445312 223.835938 C 187.367188 223.835938 187.289062 223.871094 187.238281 223.933594 Z M 178.777344 185.171875 L 178.777344 202.691406 L 178.339844 204.613281 L 178.339844 185.171875 Z M 199.636719 233.933594 L 196.914062 233.933594 L 196.914062 229.554688 L 202.066406 228.707031 L 202.066406 233.933594 Z M 190.761719 169.113281 L 187.914062 169.113281 L 187.914062 160.714844 L 190.761719 160.714844 Z M 190.761719 169.488281 L 190.761719 174.421875 C 189.898438 172.800781 188.949219 171.882812 187.914062 171.671875 L 187.914062 169.488281 Z M 178.777344 229.6875 L 178.777344 233.933594 L 178.339844 233.933594 L 178.339844 229.617188 Z M 179.527344 229.808594 L 179.9375 229.878906 L 179.9375 231.835938 C 179.75 232.277344 179.617188 232.757812 179.527344 233.257812 C 179.527344 232.570312 179.527344 231.378906 179.527344 229.808594 Z M 193.507812 191.523438 C 193.507812 191.367188 193.507812 191.203125 193.503906 191.039062 C 193.507812 191.203125 193.507812 191.367188 193.507812 191.523438 Z M 194.953125 229.878906 L 195.363281 229.808594 C 195.363281 231.378906 195.363281 232.570312 195.363281 233.257812 C 195.273438 232.757812 195.140625 232.277344 194.953125 231.835938 Z M 198.160156 208.0625 C 197.597656 207.484375 197.171875 206.785156 196.914062 206.027344 L 196.914062 186.714844 L 200.65625 186.714844 L 200.65625 196.050781 L 202.066406 197.234375 L 202.066406 212.066406 Z M 198.640625 184.421875 L 197.621094 184.421875 L 197.621094 182.464844 L 198.640625 182.464844 Z M 177.269531 184.421875 L 176.253906 184.421875 L 176.253906 182.464844 L 177.269531 182.464844 Z M 179.769531 206.351562 L 180.578125 202.832031 L 180.578125 220.453125 L 167.480469 220.453125 C 167.691406 219.726562 168.214844 219.105469 168.765625 218.542969 L 178.136719 209.351562 C 178.949219 208.519531 179.511719 207.484375 179.769531 206.351562 Z M 173.066406 221.796875 L 180.578125 221.796875 L 180.578125 228.3125 L 173.066406 227.148438 Z M 195.828125 220.453125 L 195.828125 208.128906 C 196.085938 208.570312 196.398438 208.988281 196.765625 209.359375 L 206.117188 218.53125 C 206.675781 219.105469 207.199219 219.726562 207.410156 220.453125 Z M 203.535156 213.570312 L 203.535156 198.460938 L 203.90625 198.773438 C 203.90625 203.480469 203.90625 208.851562 203.90625 213.953125 Z M 204.34375 197.261719 L 203.316406 196.230469 L 202.945312 185.667969 L 202.601562 195.511719 L 201.402344 194.3125 L 201.402344 177.867188 L 200.695312 176.617188 L 200.695312 184.421875 L 199.703125 184.421875 L 199.347656 175.085938 L 199.09375 181.753906 L 197.191406 181.753906 L 196.914062 172.582031 L 196.914062 168.246094 L 204.34375 180.128906 Z M 204.34375 179.65625 L 196.914062 167.777344 L 196.914062 166.957031 L 204.34375 178.839844 Z M 178.777344 166.5 L 170.546875 179.65625 L 170.546875 178.839844 L 178.777344 165.679688 Z M 178.777344 166.96875 L 178.777344 184.421875 L 178.339844 184.421875 L 177.980469 172.582031 L 177.699219 181.753906 L 175.800781 181.753906 L 175.542969 175.085938 L 175.191406 184.421875 L 174.195312 184.421875 L 174.195312 176.617188 L 173.488281 177.867188 L 173.488281 194.3125 L 172.289062 195.511719 L 171.945312 185.667969 L 171.574219 196.230469 L 170.546875 197.261719 L 170.546875 180.128906 Z M 174.234375 196.050781 L 174.234375 186.714844 L 176.871094 186.714844 L 176.871094 207.90625 C 176.824219 207.957031 176.78125 208.011719 176.730469 208.0625 L 170.984375 213.953125 C 170.984375 208.851562 170.984375 203.480469 170.984375 198.773438 Z M 166.054688 221.980469 C 166.066406 221.519531 166.140625 221.058594 166.273438 220.613281 C 166.527344 219.71875 167.0625 218.914062 167.71875 218.277344 L 169.609375 216.320312 C 170.882812 215.03125 172.148438 213.730469 173.429688 212.449219 C 174.714844 211.164062 176 209.882812 177.304688 208.625 C 176.078125 209.960938 174.828125 211.277344 173.578125 212.589844 C 172.328125 213.90625 171.058594 215.203125 169.800781 216.507812 L 167.890625 218.449219 C 167.238281 219.066406 166.746094 219.824219 166.46875 220.675781 C 166.351562 221.039062 166.277344 221.414062 166.242188 221.796875 L 172.800781 221.796875 L 172.800781 227.105469 L 166.132812 226.070312 C 166.105469 225.164062 166.089844 224.253906 166.070312 223.34375 C 166.066406 222.890625 166.050781 222.441406 166.054688 221.980469 Z M 170.984375 228.40625 L 176.871094 229.375 L 176.871094 233.933594 L 170.984375 233.933594 C 170.984375 233.933594 170.984375 231.792969 170.984375 228.40625 Z M 172.546875 236.761719 L 172.726562 236.761719 L 172.292969 239.441406 L 173.003906 239.441406 L 173.105469 238.589844 L 173.804688 238.589844 L 173.683594 239.441406 L 174.234375 239.441406 L 174.320312 238.589844 L 176.734375 238.589844 L 176.710938 239.441406 L 179.082031 239.441406 L 178.984375 238.589844 L 179.664062 238.589844 C 179.738281 239.03125 179.804688 239.320312 179.816406 239.371094 C 179.839844 239.46875 179.894531 239.554688 179.96875 239.621094 L 172.082031 239.621094 Z M 188.59375 237.304688 C 188.9375 234.859375 190.34375 231.347656 190.78125 230.296875 C 190.972656 230.234375 191.175781 230.191406 191.402344 230.171875 C 191.515625 230.160156 191.632812 230.148438 191.757812 230.148438 C 191.914062 230.148438 192.058594 230.160156 192.199219 230.175781 C 194.316406 230.433594 194.945312 232.570312 195.035156 234.707031 C 195.042969 234.847656 195.042969 234.988281 195.046875 235.132812 C 195.066406 237.257812 194.605469 239.261719 194.605469 239.261719 L 188.910156 239.261719 C 188.910156 239.261719 188.722656 238.445312 188.59375 237.304688 Z M 195.046875 239.441406 L 195.054688 239.441406 L 195.054688 239.417969 C 195.0625 239.402344 195.070312 239.386719 195.074219 239.371094 C 195.085938 239.320312 195.152344 239.03125 195.226562 238.589844 L 195.851562 238.589844 L 195.730469 239.441406 L 196.285156 239.441406 L 196.371094 238.589844 L 198.785156 238.589844 L 198.761719 239.441406 L 201.128906 239.441406 L 201.035156 238.589844 L 201.8125 238.589844 L 201.910156 239.441406 L 202.597656 239.441406 L 202.164062 236.761719 L 202.34375 236.761719 L 202.808594 239.621094 L 194.925781 239.621094 C 194.976562 239.570312 195.019531 239.507812 195.046875 239.441406 Z M 203.535156 228.46875 L 203.90625 228.40625 C 203.90625 231.792969 203.90625 233.933594 203.90625 233.933594 L 203.535156 233.933594 Z M 202.09375 227.105469 L 202.09375 221.796875 L 208.648438 221.796875 C 208.613281 221.414062 208.539062 221.039062 208.421875 220.675781 C 208.144531 219.824219 207.652344 219.066406 207 218.449219 L 205.089844 216.507812 C 203.832031 215.203125 202.5625 213.90625 201.3125 212.589844 C 200.0625 211.277344 198.8125 209.960938 197.585938 208.625 C 198.894531 209.882812 200.179688 211.164062 201.460938 212.449219 C 202.742188 213.730469 204.007812 215.03125 205.28125 216.320312 L 207.171875 218.277344 C 207.828125 218.914062 208.367188 219.71875 208.617188 220.613281 C 208.75 221.058594 208.824219 221.519531 208.835938 221.980469 C 208.839844 222.441406 208.828125 222.890625 208.820312 223.34375 C 208.800781 224.253906 208.785156 225.164062 208.757812 226.070312 L 202.09375 227.105469 " fill-opacity="1" fill-rule="nonzero"/></g><path fill="rgb(100%, 100%, 100%)" d="M 193.503906 191.039062 C 193.507812 191.203125 193.507812 191.367188 193.507812 191.523438 C 193.507812 191.367188 193.507812 191.203125 193.503906 191.039062 " fill-opacity="1" fill-rule="nonzero"/><path fill="rgb(100%, 100%, 100%)" d="M 188.226562 224.796875 C 188.980469 225.871094 190.066406 227.492188 190.839844 228.664062 C 190.839844 217.050781 190.839844 199.765625 190.839844 192.84375 C 190.839844 191.332031 190.796875 189.796875 190.714844 188.269531 L 189.96875 188.496094 C 189.96875 188.496094 189.9375 186.214844 187.730469 186.214844 L 187.730469 184.636719 C 187.917969 184.667969 188.109375 184.679688 188.296875 184.710938 C 188.480469 184.75 188.667969 184.773438 188.851562 184.824219 C 189.21875 184.902344 189.574219 185.023438 189.921875 185.15625 C 190.269531 185.292969 190.605469 185.457031 190.925781 185.648438 C 191.226562 185.824219 191.523438 186.03125 191.78125 186.257812 C 191.640625 186.851562 191.511719 187.453125 191.40625 188.058594 C 191.632812 187.460938 191.835938 186.855469 192.019531 186.246094 L 192.039062 186.183594 L 191.992188 186.132812 C 191.707031 185.847656 191.398438 185.621094 191.0625 185.417969 C 190.878906 185.308594 190.691406 185.210938 190.496094 185.121094 C 190.179688 181.472656 189.667969 178.039062 189.046875 175.347656 C 189.320312 175.691406 189.554688 176.070312 189.765625 176.460938 C 190.222656 177.316406 190.566406 178.234375 190.875 179.160156 C 191.1875 180.085938 191.441406 181.03125 191.6875 181.980469 C 191.300781 180.0625 190.816406 178.144531 189.945312 176.367188 C 189.726562 175.925781 189.472656 175.496094 189.152344 175.109375 C 188.835938 174.726562 188.445312 174.363281 187.941406 174.203125 C 187.4375 174.035156 186.863281 174.15625 186.4375 174.445312 C 186.007812 174.730469 185.679688 175.125 185.398438 175.535156 C 185.363281 175.589844 185.328125 175.648438 185.292969 175.703125 C 183.050781 179.015625 182.339844 186.839844 182.339844 186.839844 L 181.808594 186.617188 C 181.820312 186.519531 181.832031 186.425781 181.84375 186.332031 C 182.085938 184.609375 182.398438 182.898438 182.796875 181.207031 C 183.203125 179.515625 183.660156 177.835938 184.3125 176.234375 C 184.640625 175.433594 185.015625 174.652344 185.5 173.945312 C 185.746094 173.597656 186.019531 173.265625 186.34375 173.003906 C 186.664062 172.746094 187.046875 172.5625 187.445312 172.5625 C 187.84375 172.558594 188.226562 172.746094 188.550781 173.003906 C 188.875 173.265625 189.148438 173.597656 189.390625 173.945312 C 189.875 174.652344 190.25 175.433594 190.578125 176.234375 C 191.230469 177.835938 191.691406 179.515625 192.09375 181.207031 C 192.492188 182.898438 192.804688 184.609375 193.046875 186.332031 C 193.292969 188.054688 193.476562 189.785156 193.507812 191.527344 C 193.507812 191.285156 193.5 191.039062 193.496094 190.796875 C 193.5 190.859375 193.5 190.921875 193.503906 190.984375 C 193.5 190.898438 193.5 190.8125 193.496094 190.726562 C 193.429688 187.507812 192.972656 184.304688 192.292969 181.160156 C 191.917969 179.457031 191.453125 177.769531 190.804688 176.140625 C 190.472656 175.332031 190.097656 174.53125 189.601562 173.796875 C 189.347656 173.4375 189.066406 173.085938 188.710938 172.800781 C 188.363281 172.515625 187.925781 172.292969 187.445312 172.292969 C 186.964844 172.292969 186.527344 172.515625 186.179688 172.800781 C 185.824219 173.085938 185.542969 173.4375 185.289062 173.796875 C 184.792969 174.53125 184.417969 175.332031 184.089844 176.140625 C 183.441406 177.769531 182.972656 179.457031 182.597656 181.160156 C 181.917969 184.308594 181.460938 187.515625 181.394531 190.734375 C 181.386719 191.011719 181.382812 191.277344 181.382812 191.527344 L 181.382812 199.582031 L 181.316406 209.152344 L 181.292969 218.726562 L 181.269531 228.296875 C 181.269531 228.925781 181.265625 229.546875 181.269531 230.175781 C 181.703125 229.894531 182.207031 229.730469 182.777344 229.683594 L 183.132812 226.300781 L 183.488281 229.683594 C 184.4375 229.761719 185.207031 230.164062 185.777344 230.882812 C 185.96875 231.125 186.128906 231.394531 186.265625 231.6875 L 186.070312 227.585938 C 185.976562 226.261719 186.390625 224.960938 187.238281 223.933594 C 187.289062 223.871094 187.367188 223.835938 187.445312 223.835938 C 187.523438 223.835938 187.601562 223.871094 187.652344 223.933594 C 187.875 224.203125 188.066406 224.492188 188.226562 224.796875 Z M 187.804688 191.078125 L 187.804688 189.65625 L 189.226562 189.65625 L 189.226562 191.078125 Z M 189.429688 213.957031 L 189.375 216.207031 C 189.34375 216.957031 189.328125 217.707031 189.285156 218.457031 C 189.242188 217.707031 189.222656 216.957031 189.191406 216.207031 L 189.140625 213.957031 C 189.105469 212.457031 189.101562 210.957031 189.097656 209.457031 C 189.101562 207.957031 189.105469 206.457031 189.140625 204.957031 L 189.191406 202.707031 C 189.222656 201.957031 189.242188 201.207031 189.285156 200.457031 C 189.328125 201.207031 189.347656 201.957031 189.375 202.707031 L 189.429688 204.957031 C 189.460938 206.457031 189.46875 207.957031 189.472656 209.457031 C 189.46875 210.957031 189.460938 212.457031 189.429688 213.957031 Z M 189.945312 202.691406 C 189.980469 200.433594 190.050781 198.179688 190.152344 195.925781 C 190.257812 198.179688 190.328125 200.433594 190.363281 202.691406 C 190.40625 204.945312 190.417969 207.203125 190.421875 209.457031 C 190.417969 211.710938 190.40625 213.96875 190.363281 216.222656 C 190.328125 218.480469 190.257812 220.734375 190.152344 222.988281 C 190.050781 220.734375 189.980469 218.480469 189.945312 216.222656 C 189.902344 213.96875 189.890625 211.710938 189.886719 209.457031 C 189.890625 207.203125 189.902344 204.945312 189.945312 202.691406 Z M 187.445312 176.292969 C 187.261719 176.292969 187.109375 176.140625 187.109375 175.957031 C 187.109375 175.769531 187.261719 175.621094 187.445312 175.621094 C 187.628906 175.621094 187.78125 175.769531 187.78125 175.957031 C 187.78125 176.140625 187.628906 176.292969 187.445312 176.292969 Z M 182.027344 228.699219 C 181.988281 227.242188 181.96875 225.785156 181.9375 224.332031 L 181.886719 219.960938 C 181.855469 217.050781 181.859375 214.136719 181.84375 211.226562 C 181.855469 208.3125 181.855469 205.398438 181.882812 202.488281 L 181.9375 198.117188 C 181.96875 196.664062 181.988281 195.207031 182.027344 193.75 C 182.070312 195.207031 182.089844 196.664062 182.121094 198.117188 L 182.171875 202.488281 C 182.203125 205.398438 182.203125 208.3125 182.214844 211.226562 C 182.199219 214.136719 182.203125 217.050781 182.171875 219.960938 L 182.121094 224.332031 C 182.089844 225.785156 182.070312 227.242188 182.027344 228.699219 Z M 183.484375 188.058594 L 182.980469 186.214844 C 182.980469 186.214844 184.519531 184.636719 187.160156 184.636719 L 187.160156 186.214844 C 184.953125 186.214844 184.921875 188.496094 184.921875 188.496094 Z M 187.085938 191.078125 L 185.664062 191.078125 L 185.664062 189.65625 L 187.085938 189.65625 Z M 187.445312 186.792969 C 186.9375 186.792969 186.433594 186.96875 186.039062 187.292969 C 185.648438 187.617188 185.367188 188.097656 185.316406 188.640625 C 185.261719 188.097656 185.488281 187.523438 185.902344 187.136719 C 186.308594 186.742188 186.878906 186.527344 187.445312 186.527344 C 188.011719 186.527344 188.582031 186.742188 188.988281 187.136719 C 189.402344 187.523438 189.628906 188.097656 189.574219 188.640625 C 189.523438 188.097656 189.242188 187.617188 188.851562 187.292969 C 188.457031 186.96875 187.953125 186.792969 187.445312 186.792969 " fill-opacity="1" fill-rule="nonzero"/><path fill="rgb(9.01947%, 9.408569%, 10.5896%)" d="M 187.160156 186.214844 L 187.160156 184.636719 C 184.519531 184.636719 182.980469 186.214844 182.980469 186.214844 L 183.484375 188.058594 L 184.921875 188.496094 C 184.921875 188.496094 184.953125 186.214844 187.160156 186.214844 " fill-opacity="1" fill-rule="nonzero"/><path fill="rgb(9.01947%, 9.408569%, 10.5896%)" d="M 185.664062 189.65625 L 185.664062 191.078125 L 187.085938 191.078125 L 187.085938 189.65625 L 185.664062 189.65625 " fill-opacity="1" fill-rule="nonzero"/><path fill="rgb(9.01947%, 9.408569%, 10.5896%)" d="M 189.226562 189.65625 L 187.804688 189.65625 L 187.804688 191.078125 L 189.226562 191.078125 L 189.226562 189.65625 " fill-opacity="1" fill-rule="nonzero"/><path fill="rgb(9.01947%, 9.408569%, 10.5896%)" d="M 187.445312 175.621094 C 187.261719 175.621094 187.109375 175.769531 187.109375 175.957031 C 187.109375 176.140625 187.261719 176.292969 187.445312 176.292969 C 187.628906 176.292969 187.78125 176.140625 187.78125 175.957031 C 187.78125 175.769531 187.628906 175.621094 187.445312 175.621094 " fill-opacity="1" fill-rule="nonzero"/><path fill="rgb(100%, 100%, 100%)" d="M 193.625 230.175781 C 193.625 229.546875 193.621094 228.925781 193.625 228.296875 L 193.601562 218.726562 L 193.574219 209.152344 L 193.507812 199.582031 L 193.441406 209.152344 L 193.417969 218.726562 L 193.394531 228.296875 C 193.390625 228.875 193.390625 229.464844 193.386719 230.042969 C 193.46875 230.085938 193.546875 230.128906 193.625 230.175781 " fill-opacity="1" fill-rule="nonzero"/><path fill="rgb(100%, 100%, 100%)" d="M 188.175781 229.851562 L 187.8125 233.644531 L 187.710938 229.144531 L 187.445312 238.289062 L 187.066406 225.179688 C 186.707031 225.910156 186.546875 226.726562 186.605469 227.554688 L 187.132812 238.675781 L 187.398438 243.058594 L 187.445312 243.179688 L 187.492188 243.058594 L 187.757812 238.671875 L 188.175781 229.851562 " fill-opacity="1" fill-rule="nonzero"/><path fill="rgb(9.01947%, 9.408569%, 10.5896%)" d="M 190.152344 222.988281 C 190.257812 220.734375 190.328125 218.480469 190.363281 216.222656 C 190.40625 213.96875 190.417969 211.710938 190.421875 209.457031 C 190.417969 207.203125 190.40625 204.945312 190.363281 202.691406 C 190.328125 200.433594 190.257812 198.179688 190.152344 195.925781 C 190.050781 198.179688 189.980469 200.433594 189.945312 202.691406 C 189.902344 204.945312 189.890625 207.203125 189.886719 209.457031 C 189.890625 211.710938 189.902344 213.96875 189.945312 216.222656 C 189.980469 218.480469 190.050781 220.734375 190.152344 222.988281 " fill-opacity="1" fill-rule="nonzero"/><path fill="rgb(9.01947%, 9.408569%, 10.5896%)" d="M 189.375 202.707031 C 189.347656 201.957031 189.328125 201.207031 189.285156 200.457031 C 189.242188 201.207031 189.222656 201.957031 189.191406 202.707031 L 189.140625 204.957031 C 189.105469 206.457031 189.101562 207.957031 189.097656 209.457031 C 189.101562 210.957031 189.105469 212.457031 189.140625 213.957031 L 189.191406 216.207031 C 189.222656 216.957031 189.242188 217.707031 189.285156 218.457031 C 189.328125 217.707031 189.34375 216.957031 189.375 216.207031 L 189.429688 213.957031 C 189.460938 212.457031 189.46875 210.957031 189.472656 209.457031 C 189.46875 207.957031 189.460938 206.457031 189.429688 204.957031 L 189.375 202.707031 " fill-opacity="1" fill-rule="nonzero"/><path fill="rgb(9.01947%, 9.408569%, 10.5896%)" d="M 182.171875 219.960938 C 182.203125 217.050781 182.199219 214.136719 182.214844 211.226562 C 182.203125 208.3125 182.203125 205.398438 182.171875 202.488281 L 182.121094 198.117188 C 182.089844 196.664062 182.070312 195.207031 182.027344 193.75 C 181.988281 195.207031 181.96875 196.664062 181.9375 198.117188 L 181.882812 202.488281 C 181.855469 205.398438 181.855469 208.3125 181.84375 211.226562 C 181.859375 214.136719 181.855469 217.050781 181.886719 219.960938 L 181.9375 224.332031 C 181.96875 225.785156 181.988281 227.242188 182.027344 228.699219 C 182.070312 227.242188 182.089844 225.785156 182.121094 224.332031 L 182.171875 219.960938 " fill-opacity="1" fill-rule="nonzero"/><path fill="rgb(100%, 100%, 100%)" d="M 185.765625 239.746094 L 185.59375 239.746094 L 185.742188 240.4375 L 185.359375 240.4375 L 185.25 239.746094 L 184.742188 239.746094 L 184.851562 240.4375 L 183.324219 240.4375 L 183.351562 239.746094 L 181.820312 239.746094 L 181.722656 240.4375 L 181.367188 240.4375 L 181.5 239.746094 L 181.039062 239.746094 L 180.921875 240.4375 L 180.523438 240.4375 L 180.675781 239.746094 L 180.503906 239.746094 L 180.3125 240.605469 L 185.953125 240.605469 L 185.765625 239.746094 " fill-opacity="1" fill-rule="nonzero"/><path fill="rgb(9.01947%, 9.408569%, 10.5896%)" d="M 185.210938 231.332031 C 184.777344 230.785156 184.210938 230.484375 183.488281 230.410156 C 183.738281 230.613281 183.945312 230.886719 184.109375 231.222656 C 185.027344 233.105469 184.410156 236.71875 183.257812 239.019531 L 185.785156 239.019531 C 185.988281 238.027344 186.820312 233.363281 185.210938 231.332031 " fill-opacity="1" fill-rule="nonzero"/><path fill="rgb(100%, 100%, 100%)" d="M 183.132812 230.148438 C 183.007812 230.148438 182.890625 230.160156 182.777344 230.171875 C 178.296875 230.605469 180.285156 239.261719 180.285156 239.261719 L 185.980469 239.261719 C 185.980469 239.261719 188.078125 230.148438 183.132812 230.148438 Z M 185.785156 239.019531 L 183.257812 239.019531 C 184.410156 236.71875 185.027344 233.105469 184.109375 231.222656 C 183.945312 230.886719 183.738281 230.613281 183.488281 230.410156 C 184.210938 230.484375 184.777344 230.785156 185.210938 231.332031 C 186.820312 233.363281 185.988281 238.027344 185.785156 239.019531 Z M 183.132812 230.960938 C 183.183594 231.535156 183.207031 232.113281 183.226562 232.691406 C 183.246094 233.269531 183.25 233.847656 183.253906 234.425781 C 183.25 235.003906 183.246094 235.582031 183.226562 236.160156 C 183.207031 236.738281 183.183594 237.316406 183.132812 237.894531 C 183.082031 237.316406 183.0625 236.738281 183.042969 236.160156 C 183.019531 235.582031 183.015625 235.003906 183.011719 234.425781 C 183.015625 233.847656 183.019531 233.269531 183.042969 232.691406 C 183.058594 232.113281 183.082031 231.535156 183.132812 230.960938 " fill-opacity="1" fill-rule="nonzero"/><path fill="rgb(9.01947%, 9.408569%, 10.5896%)" d="M 183.011719 234.425781 C 183.015625 235.003906 183.019531 235.582031 183.042969 236.160156 C 183.0625 236.738281 183.082031 237.316406 183.132812 237.894531 C 183.183594 237.316406 183.207031 236.738281 183.226562 236.160156 C 183.246094 235.582031 183.25 235.003906 183.253906 234.425781 C 183.25 233.847656 183.246094 233.269531 183.226562 232.691406 C 183.207031 232.113281 183.183594 231.535156 183.132812 230.960938 C 183.082031 231.535156 183.058594 232.113281 183.042969 232.691406 C 183.019531 233.269531 183.015625 233.847656 183.011719 234.425781 " fill-opacity="1" fill-rule="nonzero"/><path fill="rgb(100%, 100%, 100%)" d="M 194.386719 239.746094 L 194.214844 239.746094 L 194.367188 240.4375 L 193.984375 240.4375 L 193.875 239.746094 L 193.367188 239.746094 L 193.476562 240.4375 L 191.949219 240.4375 L 191.976562 239.746094 L 190.445312 239.746094 L 190.347656 240.4375 L 189.988281 240.4375 L 190.125 239.746094 L 189.664062 239.746094 L 189.546875 240.4375 L 189.148438 240.4375 L 189.300781 239.746094 L 189.125 239.746094 L 188.9375 240.605469 L 194.578125 240.605469 L 194.386719 239.746094 " fill-opacity="1" fill-rule="nonzero"/><path fill="rgb(100%, 100%, 100%)" d="M 188.910156 239.261719 L 194.605469 239.261719 C 194.605469 239.261719 195.066406 237.257812 195.046875 235.132812 C 195.042969 234.988281 195.042969 234.847656 195.035156 234.707031 C 194.945312 232.570312 194.316406 230.433594 192.199219 230.175781 C 192.058594 230.160156 191.914062 230.148438 191.757812 230.148438 C 191.632812 230.148438 191.515625 230.160156 191.402344 230.171875 C 191.175781 230.191406 190.972656 230.234375 190.78125 230.296875 C 190.34375 231.347656 188.9375 234.859375 188.59375 237.304688 C 188.722656 238.445312 188.910156 239.261719 188.910156 239.261719 Z M 193.835938 231.332031 C 195.445312 233.363281 194.613281 238.027344 194.410156 239.019531 L 191.882812 239.019531 C 193.03125 236.71875 193.652344 233.105469 192.734375 231.222656 C 192.570312 230.886719 192.363281 230.613281 192.113281 230.410156 C 192.835938 230.484375 193.402344 230.785156 193.835938 231.332031 Z M 191.636719 234.425781 C 191.640625 233.847656 191.644531 233.269531 191.664062 232.691406 C 191.683594 232.113281 191.707031 231.535156 191.757812 230.960938 C 191.808594 231.535156 191.832031 232.113281 191.851562 232.691406 C 191.871094 233.269531 191.875 233.847656 191.878906 234.425781 C 191.875 235.003906 191.871094 235.582031 191.851562 236.160156 C 191.832031 236.738281 191.808594 237.316406 191.757812 237.894531 C 191.707031 237.316406 191.683594 236.738281 191.664062 236.160156 C 191.644531 235.582031 191.640625 235.003906 191.636719 234.425781 " fill-opacity="1" fill-rule="nonzero"/><path fill="rgb(9.01947%, 9.408569%, 10.5896%)" d="M 192.734375 231.222656 C 193.652344 233.105469 193.03125 236.71875 191.882812 239.019531 L 194.410156 239.019531 C 194.613281 238.027344 195.445312 233.363281 193.835938 231.332031 C 193.402344 230.785156 192.835938 230.484375 192.113281 230.410156 C 192.363281 230.613281 192.570312 230.886719 192.734375 231.222656 " fill-opacity="1" fill-rule="nonzero"/><path fill="rgb(9.01947%, 9.408569%, 10.5896%)" d="M 191.757812 237.894531 C 191.808594 237.316406 191.832031 236.738281 191.851562 236.160156 C 191.871094 235.582031 191.875 235.003906 191.878906 234.425781 C 191.875 233.847656 191.871094 233.269531 191.851562 232.691406 C 191.832031 232.113281 191.808594 231.535156 191.757812 230.960938 C 191.707031 231.535156 191.683594 232.113281 191.664062 232.691406 C 191.644531 233.269531 191.640625 233.847656 191.636719 234.425781 C 191.640625 235.003906 191.644531 235.582031 191.664062 236.160156 C 191.683594 236.738281 191.707031 237.316406 191.757812 237.894531 " fill-opacity="1" fill-rule="nonzero"/><path fill="rgb(9.01947%, 9.408569%, 10.5896%)" d="M 204.230469 218.492188 C 203.941406 218.167969 203.640625 217.855469 203.347656 217.535156 L 202.445312 216.601562 C 201.84375 215.976562 201.226562 215.371094 200.609375 214.761719 C 199.988281 214.15625 199.367188 213.554688 198.730469 212.96875 C 198.097656 212.378906 197.457031 211.789062 196.800781 211.226562 C 197.378906 211.871094 197.980469 212.496094 198.585938 213.117188 C 199.1875 213.738281 199.804688 214.347656 200.421875 214.957031 C 201.042969 215.558594 201.664062 216.160156 202.300781 216.75 L 203.253906 217.632812 C 203.582031 217.917969 203.898438 218.210938 204.230469 218.492188 " fill-opacity="1" fill-rule="nonzero"/><path fill="rgb(9.01947%, 9.408569%, 10.5896%)" d="M 176.160156 212.96875 C 175.523438 213.554688 174.902344 214.15625 174.28125 214.761719 C 173.664062 215.371094 173.046875 215.976562 172.445312 216.601562 L 171.542969 217.535156 C 171.25 217.855469 170.949219 218.167969 170.660156 218.492188 C 170.992188 218.210938 171.3125 217.917969 171.636719 217.632812 L 172.589844 216.75 C 173.226562 216.160156 173.847656 215.558594 174.46875 214.957031 C 175.085938 214.347656 175.703125 213.738281 176.304688 213.117188 C 176.910156 212.496094 177.511719 211.871094 178.089844 211.226562 C 177.433594 211.789062 176.796875 212.378906 176.160156 212.96875 " fill-opacity="1" fill-rule="nonzero"/><path fill="rgb(9.01947%, 9.408569%, 10.5896%)" d="M 174.921875 222.269531 L 174.921875 222.75 L 179.25 222.75 L 179.25 222.269531 L 174.921875 222.269531 " fill-opacity="1" fill-rule="nonzero"/><path fill="rgb(9.01947%, 9.408569%, 10.5896%)" d="M 188.851562 187.292969 C 189.242188 187.617188 189.523438 188.097656 189.574219 188.640625 C 189.628906 188.097656 189.402344 187.523438 188.988281 187.136719 C 188.582031 186.742188 188.011719 186.527344 187.445312 186.527344 C 186.878906 186.527344 186.308594 186.742188 185.902344 187.136719 C 185.488281 187.523438 185.261719 188.097656 185.316406 188.640625 C 185.367188 188.097656 185.648438 187.617188 186.039062 187.292969 C 186.433594 186.96875 186.9375 186.792969 187.445312 186.792969 C 187.953125 186.792969 188.457031 186.96875 188.851562 187.292969 " fill-opacity="1" fill-rule="nonzero"/><path fill="rgb(100%, 100%, 100%)" d="M 122.195312 234.109375 C 121.78125 234.109375 121.445312 234.445312 121.445312 234.859375 C 121.445312 235.273438 121.78125 235.609375 122.195312 235.609375 C 122.609375 235.609375 122.945312 235.273438 122.945312 234.859375 C 122.945312 234.445312 122.609375 234.109375 122.195312 234.109375 " fill-opacity="1" fill-rule="nonzero"/><path fill="rgb(100%, 100%, 100%)" d="M 142.675781 235.640625 C 141.640625 235.640625 140.800781 236.480469 140.800781 237.515625 C 140.800781 238.550781 141.640625 239.390625 142.675781 239.390625 C 143.714844 239.390625 144.550781 238.550781 144.550781 237.515625 C 144.550781 236.480469 143.714844 235.640625 142.675781 235.640625 " fill-opacity="1" fill-rule="nonzero"/><path fill="rgb(100%, 100%, 100%)" d="M 132.4375 213.117188 C 131.816406 213.117188 131.3125 213.621094 131.3125 214.242188 C 131.3125 214.863281 131.816406 215.367188 132.4375 215.367188 C 133.058594 215.367188 133.5625 214.863281 133.5625 214.242188 C 133.5625 213.621094 133.058594 213.117188 132.4375 213.117188 " fill-opacity="1" fill-rule="nonzero"/><path fill="rgb(100%, 100%, 100%)" d="M 148.59375 219.628906 C 148.179688 219.628906 147.84375 219.964844 147.84375 220.378906 C 147.84375 220.792969 148.179688 221.128906 148.59375 221.128906 C 149.007812 221.128906 149.34375 220.792969 149.34375 220.378906 C 149.34375 219.964844 149.007812 219.628906 148.59375 219.628906 " fill-opacity="1" fill-rule="nonzero"/><path fill="rgb(100%, 100%, 100%)" d="M 140.867188 191.066406 C 140.453125 191.066406 140.117188 191.402344 140.117188 191.816406 C 140.117188 192.230469 140.453125 192.566406 140.867188 192.566406 C 141.28125 192.566406 141.617188 192.230469 141.617188 191.816406 C 141.617188 191.402344 141.28125 191.066406 140.867188 191.066406 " fill-opacity="1" fill-rule="nonzero"/><path fill="rgb(100%, 100%, 100%)" d="M 174.628906 129.003906 C 174.210938 129.003906 173.878906 129.339844 173.878906 129.753906 C 173.878906 130.167969 174.210938 130.503906 174.628906 130.503906 C 175.042969 130.503906 175.378906 130.167969 175.378906 129.753906 C 175.378906 129.339844 175.042969 129.003906 174.628906 129.003906 " fill-opacity="1" fill-rule="nonzero"/><path fill="rgb(100%, 100%, 100%)" d="M 170.308594 144.816406 C 169.6875 144.816406 169.183594 145.320312 169.183594 145.941406 C 169.183594 146.5625 169.6875 147.066406 170.308594 147.066406 C 170.929688 147.066406 171.433594 146.5625 171.433594 145.941406 C 171.433594 145.320312 170.929688 144.816406 170.308594 144.816406 " fill-opacity="1" fill-rule="nonzero"/><path fill="rgb(100%, 100%, 100%)" d="M 208.480469 148.742188 C 207.859375 148.742188 207.355469 149.246094 207.355469 149.867188 C 207.355469 150.488281 207.859375 150.992188 208.480469 150.992188 C 209.101562 150.992188 209.605469 150.488281 209.605469 149.867188 C 209.605469 149.246094 209.101562 148.742188 208.480469 148.742188 " fill-opacity="1" fill-rule="nonzero"/><path fill="rgb(100%, 100%, 100%)" d="M 162.792969 241.792969 C 162.171875 241.792969 161.667969 242.296875 161.667969 242.917969 C 161.667969 243.539062 162.171875 244.042969 162.792969 244.042969 C 163.414062 244.042969 163.917969 243.539062 163.917969 242.917969 C 163.917969 242.296875 163.414062 241.792969 162.792969 241.792969 " fill-opacity="1" fill-rule="nonzero"/><path fill="rgb(100%, 100%, 100%)" d="M 218.175781 233.015625 C 217.761719 233.015625 217.425781 233.351562 217.425781 233.765625 C 217.425781 234.179688 217.761719 234.515625 218.175781 234.515625 C 218.589844 234.515625 218.925781 234.179688 218.925781 233.765625 C 218.925781 233.351562 218.589844 233.015625 218.175781 233.015625 " fill-opacity="1" fill-rule="nonzero"/><path fill="rgb(100%, 100%, 100%)" d="M 238.65625 234.546875 C 237.621094 234.546875 236.78125 235.386719 236.78125 236.421875 C 236.78125 237.457031 237.621094 238.296875 238.65625 238.296875 C 239.691406 238.296875 240.53125 237.457031 240.53125 236.421875 C 240.53125 235.386719 239.691406 234.546875 238.65625 234.546875 " fill-opacity="1" fill-rule="nonzero"/><path fill="rgb(100%, 100%, 100%)" d="M 228.417969 212.023438 C 227.796875 212.023438 227.292969 212.527344 227.292969 213.148438 C 227.292969 213.769531 227.796875 214.273438 228.417969 214.273438 C 229.039062 214.273438 229.542969 213.769531 229.542969 213.148438 C 229.542969 212.527344 229.039062 212.023438 228.417969 212.023438 " fill-opacity="1" fill-rule="nonzero"/><path fill="rgb(100%, 100%, 100%)" d="M 244.574219 218.535156 C 244.160156 218.535156 243.824219 218.871094 243.824219 219.285156 C 243.824219 219.699219 244.160156 220.035156 244.574219 220.035156 C 244.988281 220.035156 245.324219 219.699219 245.324219 219.285156 C 245.324219 218.871094 244.988281 218.535156 244.574219 218.535156 " fill-opacity="1" fill-rule="nonzero"/><path fill="rgb(100%, 100%, 100%)" d="M 236.847656 189.96875 C 236.433594 189.96875 236.097656 190.304688 236.097656 190.71875 C 236.097656 191.132812 236.433594 191.46875 236.847656 191.46875 C 237.261719 191.46875 237.597656 191.132812 237.597656 190.71875 C 237.597656 190.304688 237.261719 189.96875 236.847656 189.96875 " fill-opacity="1" fill-rule="nonzero"/><path fill="rgb(100%, 100%, 100%)" d="M 258.773438 240.699219 C 258.152344 240.699219 257.648438 241.199219 257.648438 241.824219 C 257.648438 242.445312 258.152344 242.949219 258.773438 242.949219 C 259.394531 242.949219 259.898438 242.445312 259.898438 241.824219 C 259.898438 241.199219 259.394531 240.699219 258.773438 240.699219 " fill-opacity="1" fill-rule="nonzero"/><g fill="rgb(100%, 100%, 100%)" fill-opacity="1"><g transform="translate(140.609285, 267.547718)"><g><path d="M 0.671875 -3.109375 C 0.777344 -1.132812 3.410156 0.246094 7.175781 0.246094 C 10.671875 0.246094 13.144531 -1.167969 13.269531 -3.621094 C 13.5 -7.988281 4.222656 -8.535156 4.0625 -10.882812 C 3.992188 -11.714844 5.035156 -12.332031 6.449219 -12.140625 C 8.640625 -11.839844 8.550781 -9.488281 10.390625 -8.730469 C 10.65625 -8.621094 10.921875 -8.570312 11.167969 -8.570312 C 12.035156 -8.570312 12.757812 -9.171875 12.476562 -10.285156 C 12.140625 -11.589844 9.949219 -13.039062 6.484375 -13.039062 C 3.234375 -13.058594 0.847656 -11.679688 0.847656 -9.222656 C 0.847656 -4.804688 10.125 -4.3125 9.699219 -1.75 C 9.558594 -0.902344 8.640625 -0.476562 7.421875 -0.617188 C 4.117188 -0.972656 4.628906 -4.523438 2.207031 -4.628906 C 1.273438 -4.683594 0.617188 -3.992188 0.671875 -3.109375 Z M 0.671875 -3.109375 "/></g></g></g><g fill="rgb(100%, 100%, 100%)" fill-opacity="1"><g transform="translate(155.762929, 267.547718)"><g><path d="M 0.511719 -11.996094 C 0.601562 -11.945312 0.722656 -11.875 0.867188 -11.804688 C 1.148438 -11.644531 1.34375 -11.34375 1.34375 -11.027344 L 1.34375 -1.660156 C 1.308594 -1.378906 1.132812 -1.09375 0.867188 -0.972656 C 0.742188 -0.902344 0.601562 -0.832031 0.511719 -0.761719 C 0.210938 -0.546875 0.371094 0 0.742188 0 L 6.203125 0 C 6.574219 0 6.730469 -0.546875 6.433594 -0.761719 C 6.324219 -0.832031 6.238281 -0.902344 6.132812 -0.953125 C 5.847656 -1.132812 5.671875 -1.429688 5.671875 -1.730469 L 5.671875 -3.78125 L 6.398438 -3.78125 C 11.308594 -3.78125 14.367188 -5.265625 14.367188 -8.269531 C 14.367188 -11.273438 11.273438 -12.792969 6.398438 -12.777344 L 0.722656 -12.757812 C 0.371094 -12.757812 0.210938 -12.210938 0.511719 -11.996094 Z M 5.671875 -10.847656 L 5.671875 -11.167969 C 5.671875 -11.484375 5.882812 -11.714844 6.203125 -11.714844 C 8.851562 -11.699219 10.035156 -10.601562 10.035156 -8.25 C 10.035156 -5.917969 8.816406 -4.839844 6.203125 -4.839844 C 5.882812 -4.839844 5.671875 -5.054688 5.671875 -5.371094 Z M 5.671875 -10.847656 "/></g></g></g><g fill="rgb(100%, 100%, 100%)" fill-opacity="1"><g transform="translate(171.870222, 267.547718)"><g><path d="M 0.832031 0 L 3.214844 0 C 3.570312 0 3.726562 -0.546875 3.429688 -0.761719 C 3.375 -0.796875 3.320312 -0.832031 3.269531 -0.867188 C 3.023438 -1.042969 2.914062 -1.378906 3.039062 -1.695312 L 3.09375 -1.871094 L 3.710938 -3.464844 L 9.011719 -3.464844 L 9.628906 -1.765625 C 9.71875 -1.484375 9.613281 -1.183594 9.363281 -0.972656 C 9.257812 -0.902344 9.171875 -0.8125 9.082031 -0.761719 C 8.78125 -0.546875 8.941406 0 9.292969 0 L 15.300781 0 C 15.671875 0 15.832031 -0.546875 15.53125 -0.761719 C 15.425781 -0.832031 15.300781 -0.902344 15.195312 -0.972656 C 14.914062 -1.132812 14.648438 -1.414062 14.523438 -1.695312 L 10.160156 -12.738281 C 10.054688 -13.039062 9.753906 -13.253906 9.4375 -13.269531 L 5.796875 -13.480469 C 5.496094 -13.5 5.355469 -13.324219 5.460938 -13.023438 L 5.867188 -11.925781 L 1.730469 -1.695312 C 1.625 -1.429688 1.359375 -1.183594 1.042969 -1.023438 C 0.867188 -0.9375 0.742188 -0.847656 0.601562 -0.761719 C 0.300781 -0.546875 0.460938 0 0.832031 0 Z M 6.449219 -10.355469 L 8.621094 -4.503906 L 4.136719 -4.503906 Z M 6.449219 -10.355469 "/></g></g></g><g fill="rgb(100%, 100%, 100%)" fill-opacity="1"><g transform="translate(189.213724, 267.547718)"><g><path d="M 0.617188 -6.398438 C 0.761719 -2.542969 3.164062 0.230469 7.667969 0.230469 C 11.398438 0.230469 13.675781 -1.394531 14.046875 -4.523438 C 14.117188 -5.105469 14.011719 -5.65625 13.480469 -5.691406 C 12.882812 -5.726562 12.738281 -5.140625 12.667969 -4.648438 C 12.351562 -2.597656 10.957031 -1.359375 9.171875 -1.359375 C 6.398438 -1.359375 5.355469 -3.621094 5.054688 -6.097656 C 4.664062 -9.363281 5.019531 -11.714844 6.890625 -11.945312 C 8.179688 -12.105469 9.382812 -11.625 9.222656 -9.453125 C 9.101562 -7.773438 10.320312 -6.996094 11.839844 -7.121094 C 13.675781 -7.261719 13.960938 -9.03125 13.554688 -10.089844 C 12.882812 -11.910156 10.777344 -13.039062 7.5625 -13.039062 C 3.058594 -13.039062 0.496094 -10.425781 0.617188 -6.398438 Z M 0.617188 -6.398438 "/></g></g></g><g fill="rgb(100%, 100%, 100%)" fill-opacity="1"><g transform="translate(204.897176, 267.547718)"><g><path d="M 0.511719 -12.015625 C 0.601562 -11.945312 0.722656 -11.875 0.867188 -11.804688 C 1.148438 -11.664062 1.34375 -11.363281 1.34375 -11.042969 L 1.34375 -1.730469 C 1.34375 -1.414062 1.148438 -1.113281 0.867188 -0.972656 C 0.722656 -0.902344 0.601562 -0.832031 0.511719 -0.761719 C 0.210938 -0.546875 0.371094 0 0.722656 0 L 11.238281 0 C 11.554688 0 11.820312 -0.210938 11.890625 -0.511719 C 12.015625 -0.988281 12.191406 -1.714844 12.28125 -2.351562 C 12.367188 -2.828125 12.105469 -3.09375 11.769531 -3.09375 C 11.519531 -3.09375 11.253906 -2.949219 11.0625 -2.652344 C 10.585938 -1.925781 10.320312 -1.058594 8.480469 -1.058594 L 6.203125 -1.058594 C 5.882812 -1.058594 5.671875 -1.273438 5.671875 -1.589844 L 5.671875 -6.113281 L 6.945312 -6.113281 C 9.242188 -6.113281 8.464844 -4.699219 9.257812 -4.628906 C 10.179688 -4.542969 10.285156 -8.746094 9.347656 -8.710938 C 8.5 -8.675781 9.242188 -7.15625 6.945312 -7.15625 L 5.671875 -7.15625 L 5.671875 -11.183594 C 5.671875 -11.503906 5.882812 -11.714844 6.203125 -11.714844 L 8.128906 -11.714844 C 9.964844 -11.714844 10.230469 -10.832031 10.707031 -10.105469 C 10.902344 -9.824219 11.167969 -9.683594 11.398438 -9.683594 C 11.734375 -9.683594 11.996094 -9.929688 11.925781 -10.425781 C 11.820312 -11.0625 11.664062 -11.769531 11.539062 -12.246094 C 11.46875 -12.5625 11.183594 -12.777344 10.867188 -12.777344 L 0.722656 -12.777344 C 0.371094 -12.777344 0.210938 -12.226562 0.511719 -12.015625 Z M 0.511719 -12.015625 "/></g></g></g><g fill="rgb(100%, 100%, 100%)" fill-opacity="1"><g transform="translate(219.15015, 267.547718)"><g><path d="M 0.511719 -12.050781 C 0.617188 -11.980469 0.742188 -11.910156 0.847656 -11.839844 C 1.132812 -11.679688 1.429688 -11.433594 1.609375 -11.183594 L 5.867188 -4.542969 L 5.867188 -1.75 C 5.867188 -1.429688 5.671875 -1.132812 5.390625 -0.988281 C 5.246094 -0.917969 5.125 -0.847656 5.035156 -0.777344 C 4.734375 -0.566406 4.894531 -0.0195312 5.246094 -0.0195312 L 10.726562 -0.0195312 C 11.078125 -0.0195312 11.253906 -0.566406 10.957031 -0.777344 C 10.847656 -0.847656 10.742188 -0.917969 10.65625 -0.972656 C 10.371094 -1.148438 10.195312 -1.449219 10.195312 -1.75 L 10.195312 -4.628906 L 14.011719 -11.183594 C 14.136719 -11.378906 14.382812 -11.609375 14.753906 -11.820312 C 14.878906 -11.890625 14.964844 -11.960938 15.089844 -12.050781 C 15.390625 -12.261719 15.230469 -12.8125 14.859375 -12.8125 L 12.441406 -12.8125 C 12.085938 -12.8125 11.925781 -12.261719 12.226562 -12.050781 C 12.296875 -12.015625 12.367188 -11.960938 12.457031 -11.910156 C 12.703125 -11.75 12.792969 -11.414062 12.632812 -11.113281 L 9.789062 -6.167969 L 6.839844 -11.007812 L 6.855469 -11.007812 L 6.804688 -11.097656 C 6.644531 -11.34375 6.660156 -11.679688 6.855469 -11.945312 C 6.890625 -11.980469 6.925781 -12.015625 6.960938 -12.050781 C 7.261719 -12.261719 7.101562 -12.8125 6.75 -12.8125 L 0.742188 -12.8125 C 0.371094 -12.8125 0.210938 -12.261719 0.511719 -12.050781 Z M 0.511719 -12.050781 "/></g></g></g></svg>