<svg xmlns="http://www.w3.org/2000/svg" xmlns:xlink="http://www.w3.org/1999/xlink" width="500" zoomAndPan="magnify" viewBox="0 0 375 374.999991" height="500" preserveAspectRatio="xMidYMid meet" version="1.0"><defs><g/><clipPath id="id1"><path d="M 131 159.066406 L 243 159.066406 L 243 220 L 131 220 Z M 131 159.066406 " clip-rule="nonzero"/></clipPath></defs><rect x="-37.5" width="450" fill="rgb(9.01947%, 9.408569%, 10.5896%)" y="-37.499999" height="449.999989" fill-opacity="1"/><rect x="-37.5" width="450" fill="rgb(100%, 100%, 100%)" y="-37.499999" height="449.999989" fill-opacity="1"/><rect x="-37.5" width="450" fill="rgb(9.01947%, 9.408569%, 10.5896%)" y="-37.499999" height="449.999989" fill-opacity="1"/><g clip-path="url(#id1)"><path fill="rgb(100%, 100%, 100%)" d="M 216.84375 183.347656 C 216.839844 183.34375 197.882812 189.738281 188.394531 192.292969 C 178.8125 194.871094 168.179688 197.164062 159.644531 198.785156 C 143.140625 201.917969 136.351562 201.808594 134.59375 201.117188 C 134.472656 201.074219 134.433594 200.929688 134.511719 200.832031 C 135.652344 199.457031 141.226562 195.730469 158.078125 189.804688 C 158.113281 191.960938 158.375 194.144531 158.898438 196.320312 C 158.9375 196.3125 177.621094 192.382812 187.695312 189.671875 C 197.265625 187.097656 208.058594 184.011719 216.210938 180.78125 C 215.582031 178.671875 214.738281 176.6875 213.71875 174.835938 C 231.261719 171.507812 237.945312 171.9375 239.617188 172.558594 C 239.738281 172.597656 239.773438 172.742188 239.691406 172.847656 C 238.515625 174.324219 232.671875 177.726562 216.84375 183.347656 Z M 242.539062 171.917969 C 242.164062 170.523438 241.171875 166.824219 212.757812 172.257812 C 212.65625 172.273438 212.445312 172.316406 212.175781 172.371094 C 207.675781 165.828125 200.75 161.363281 193.015625 159.964844 C 188.847656 159.214844 184.449219 159.347656 180.082031 160.523438 C 167.617188 163.878906 159.15625 174.703125 158.167969 186.914062 C 157.894531 187 157.695312 187.0625 157.609375 187.09375 C 130.308594 196.648438 131.292969 200.347656 131.667969 201.742188 C 131.890625 202.578125 132.339844 204.265625 138.953125 204.265625 C 143.136719 204.265625 150.082031 203.566406 160.683594 201.582031 C 160.683594 201.582031 160.6875 201.578125 160.691406 201.578125 C 162.027344 204.570312 163.8125 207.265625 165.953125 209.585938 C 173.195312 217.445312 184.433594 221.109375 195.457031 218.144531 C 209.75 214.296875 218.789062 200.636719 217.320312 186.320312 C 217.320312 186.320312 217.324219 186.320312 217.324219 186.320312 C 243.589844 177.011719 242.898438 173.28125 242.539062 171.917969 " fill-opacity="1" fill-rule="nonzero"/></g><path stroke-linecap="butt" transform="matrix(0.0911169, -5.942441, 5.948069, 0.0912032, 212.899606, 180.207643)" fill="none" stroke-linejoin="miter" d="M 0.0000999697 -0.000197935 L 12.38716 -0.000158336 " stroke="rgb(100%, 100%, 100%)" stroke-width="1" stroke-opacity="1" stroke-miterlimit="4"/><path fill="rgb(100%, 100%, 100%)" d="M 244.65625 121.203125 L 244.65625 106.867188 L 215.652344 106.867188 L 215.652344 124.710938 L 244.65625 121.203125 " fill-opacity="1" fill-rule="nonzero"/><g fill="rgb(100%, 100%, 100%)" fill-opacity="1"><g transform="translate(85.042934, 243.764046)"><g><path d="M 1.757812 0 L 7.972656 0 C 10.519531 0 12.605469 -2.085938 12.605469 -4.722656 C 12.605469 -5.949219 12.011719 -7.160156 10.980469 -7.863281 C 11.96875 -8.542969 12.386719 -9.773438 12.429688 -10.957031 C 12.496094 -13.726562 10.761719 -15.722656 7.972656 -15.722656 L 1.757812 -15.722656 Z M 4.917969 -12.582031 L 7.707031 -12.582031 C 8.609375 -12.582031 9.15625 -11.878906 9.15625 -11.003906 C 9.15625 -10.144531 8.609375 -9.421875 7.707031 -9.421875 L 4.917969 -9.421875 Z M 4.917969 -6.28125 L 7.707031 -6.28125 C 8.609375 -6.28125 9.289062 -5.601562 9.289062 -4.722656 C 9.289062 -3.84375 8.609375 -3.140625 7.707031 -3.140625 L 4.917969 -3.140625 Z M 4.917969 -6.28125 "/></g></g></g><g fill="rgb(100%, 100%, 100%)" fill-opacity="1"><g transform="translate(98.761275, 243.764046)"><g><path d="M 4.898438 0 L 4.898438 -15.703125 L 1.757812 -15.703125 L 1.757812 0 Z M 4.898438 0 "/></g></g></g><g fill="rgb(100%, 100%, 100%)" fill-opacity="1"><g transform="translate(105.521711, 243.764046)"><g><path d="M 13.089844 -0.964844 L 13.089844 -7.863281 L 9.902344 -7.863281 L 9.902344 -3.140625 C 9.617188 -3.097656 9.3125 -3.050781 9.027344 -3.050781 C 2.964844 -3.050781 2.679688 -12.429688 9.027344 -12.648438 C 10.695312 -12.691406 11.703125 -12.339844 12.320312 -12.078125 L 12.691406 -15.261719 C 12.40625 -15.351562 10.890625 -15.898438 9.027344 -15.832031 C -1.867188 -15.4375 -1.339844 0.0859375 9.027344 0.0859375 C 10.519531 0.0859375 11.878906 -0.285156 13.089844 -0.964844 Z M 13.089844 -0.964844 "/></g></g></g><g fill="rgb(100%, 100%, 100%)" fill-opacity="1"><g transform="translate(120.381405, 243.764046)"><g/></g></g><g fill="rgb(100%, 100%, 100%)" fill-opacity="1"><g transform="translate(126.702858, 243.764046)"><g><path d="M 1.03125 -1.011719 C 3.164062 0.0859375 5.117188 0.199219 5.996094 0.132812 C 8.9375 -0.0234375 10.738281 -2.019531 10.738281 -4.632812 C 10.738281 -7.136719 8.628906 -8.542969 6.191406 -9.441406 C 5.292969 -9.75 4.523438 -10.144531 4.4375 -11.023438 C 4.371094 -11.902344 4.875 -12.714844 5.996094 -12.78125 C 6.476562 -12.800781 7.464844 -12.824219 9.203125 -12.121094 L 9.597656 -15.152344 C 7.578125 -15.855469 6.5 -15.855469 5.6875 -15.8125 C 3.074219 -15.679688 1.25 -13.660156 1.25 -11.023438 C 1.25 -8.390625 3.449219 -7.136719 5.90625 -6.238281 C 6.785156 -5.929688 7.464844 -5.535156 7.53125 -4.632812 C 7.621094 -3.777344 6.828125 -3.117188 5.90625 -3.050781 C 5.183594 -2.988281 3.226562 -3.03125 1.425781 -4.304688 Z M 1.03125 -1.011719 "/></g></g></g><g fill="rgb(100%, 100%, 100%)" fill-opacity="1"><g transform="translate(138.401866, 243.764046)"><g><path d="M 4.898438 0 L 4.898438 -5.996094 L 7.925781 -5.996094 C 14.011719 -5.996094 14.03125 -15.679688 7.925781 -15.679688 L 1.757812 -15.679688 L 1.757812 0 Z M 4.898438 -9.046875 L 4.898438 -12.5625 L 7.664062 -12.5625 C 9.773438 -12.5625 9.773438 -9.046875 7.664062 -9.046875 Z M 4.898438 -9.046875 "/></g></g></g><g fill="rgb(100%, 100%, 100%)" fill-opacity="1"><g transform="translate(151.725123, 243.764046)"><g><path d="M 0.351562 0 L 3.910156 0 L 4.523438 -1.691406 L 9.726562 -1.691406 L 10.363281 0 L 13.902344 0 L 7.289062 -16.273438 L 6.960938 -16.273438 Z M 5.664062 -4.632812 L 7.136719 -8.71875 L 8.5625 -4.632812 Z M 5.664062 -4.632812 "/></g></g></g><g fill="rgb(100%, 100%, 100%)" fill-opacity="1"><g transform="translate(166.145833, 243.764046)"><g><path d="M 11.75 -12.054688 L 12.121094 -15.285156 C 11.175781 -15.703125 10.125 -15.898438 9.027344 -15.898438 C -1.601562 -15.898438 -1.625 0.0429688 9.027344 0.0429688 C 10.125 0.0429688 11.507812 -0.21875 12.472656 -0.613281 L 12.054688 -3.863281 C 11.464844 -3.558594 10.386719 -3.164062 9.027344 -3.164062 C 2.8125 -3.164062 2.8125 -12.738281 9.027344 -12.738281 C 10.386719 -12.738281 11.15625 -12.363281 11.75 -12.054688 Z M 11.75 -12.054688 "/></g></g></g><g fill="rgb(100%, 100%, 100%)" fill-opacity="1"><g transform="translate(179.44714, 243.764046)"><g><path d="M 9.882812 0 L 9.882812 -3.140625 L 4.898438 -3.140625 L 4.898438 -6.28125 L 9.027344 -6.28125 L 9.027344 -9.421875 L 4.898438 -9.421875 L 4.898438 -12.5625 L 9.617188 -12.5625 L 9.617188 -15.703125 L 1.757812 -15.703125 L 1.757812 0 Z M 9.882812 0 "/></g></g></g><g fill="rgb(100%, 100%, 100%)" fill-opacity="1"><g transform="translate(190.597415, 243.764046)"><g/></g></g><g fill="rgb(100%, 100%, 100%)" fill-opacity="1"><g transform="translate(196.918868, 243.764046)"><g><path d="M 9.574219 0 L 13.132812 0 L 9.488281 -6.476562 C 14.097656 -7.816406 13.550781 -15.703125 7.949219 -15.703125 L 1.757812 -15.703125 L 1.757812 0 L 4.898438 0 L 4.898438 -5.996094 L 6.414062 -5.996094 Z M 4.898438 -9.046875 L 4.898438 -12.5625 L 7.664062 -12.5625 C 9.792969 -12.5625 9.792969 -9.046875 7.664062 -9.046875 Z M 4.898438 -9.046875 "/></g></g></g><g fill="rgb(100%, 100%, 100%)" fill-opacity="1"><g transform="translate(210.461611, 243.764046)"><g><path d="M 9.882812 0 L 9.882812 -3.140625 L 4.898438 -3.140625 L 4.898438 -6.28125 L 9.027344 -6.28125 L 9.027344 -9.421875 L 4.898438 -9.421875 L 4.898438 -12.5625 L 9.617188 -12.5625 L 9.617188 -15.703125 L 1.757812 -15.703125 L 1.757812 0 Z M 9.882812 0 "/></g></g></g><g fill="rgb(100%, 100%, 100%)" fill-opacity="1"><g transform="translate(221.611886, 243.764046)"><g><path d="M 11.75 -12.054688 L 12.121094 -15.285156 C 11.175781 -15.703125 10.125 -15.898438 9.027344 -15.898438 C -1.601562 -15.898438 -1.625 0.0429688 9.027344 0.0429688 C 10.125 0.0429688 11.507812 -0.21875 12.472656 -0.613281 L 12.054688 -3.863281 C 11.464844 -3.558594 10.386719 -3.164062 9.027344 -3.164062 C 2.8125 -3.164062 2.8125 -12.738281 9.027344 -12.738281 C 10.386719 -12.738281 11.15625 -12.363281 11.75 -12.054688 Z M 11.75 -12.054688 "/></g></g></g><g fill="rgb(100%, 100%, 100%)" fill-opacity="1"><g transform="translate(234.913193, 243.764046)"><g><path d="M 9.3125 0.21875 C 20.117188 0.21875 20.117188 -15.964844 9.3125 -15.964844 C -1.492188 -15.964844 -1.492188 0.21875 9.3125 0.21875 Z M 9.3125 -3.03125 C 3.03125 -3.03125 3.03125 -12.738281 9.3125 -12.738281 C 15.589844 -12.738281 15.589844 -3.03125 9.3125 -3.03125 Z M 9.3125 -3.03125 "/></g></g></g><g fill="rgb(100%, 100%, 100%)" fill-opacity="1"><g transform="translate(253.592055, 243.764046)"><g><path d="M 9.574219 0 L 13.132812 0 L 9.488281 -6.476562 C 14.097656 -7.816406 13.550781 -15.703125 7.949219 -15.703125 L 1.757812 -15.703125 L 1.757812 0 L 4.898438 0 L 4.898438 -5.996094 L 6.414062 -5.996094 Z M 4.898438 -9.046875 L 4.898438 -12.5625 L 7.664062 -12.5625 C 9.792969 -12.5625 9.792969 -9.046875 7.664062 -9.046875 Z M 4.898438 -9.046875 "/></g></g></g><g fill="rgb(100%, 100%, 100%)" fill-opacity="1"><g transform="translate(267.134798, 243.764046)"><g><path d="M 6.433594 -15.703125 L 1.757812 -15.703125 L 1.757812 0 L 6.433594 0 C 16.886719 0 16.886719 -15.703125 6.433594 -15.703125 Z M 6.433594 -12.5625 C 12.539062 -12.5625 12.539062 -3.140625 6.433594 -3.140625 L 4.898438 -3.140625 L 4.898438 -12.5625 Z M 6.433594 -12.5625 "/></g></g></g><g fill="rgb(100%, 100%, 100%)" fill-opacity="1"><g transform="translate(282.674924, 243.764046)"><g><path d="M 1.03125 -1.011719 C 3.164062 0.0859375 5.117188 0.199219 5.996094 0.132812 C 8.9375 -0.0234375 10.738281 -2.019531 10.738281 -4.632812 C 10.738281 -7.136719 8.628906 -8.542969 6.191406 -9.441406 C 5.292969 -9.75 4.523438 -10.144531 4.4375 -11.023438 C 4.371094 -11.902344 4.875 -12.714844 5.996094 -12.78125 C 6.476562 -12.800781 7.464844 -12.824219 9.203125 -12.121094 L 9.597656 -15.152344 C 7.578125 -15.855469 6.5 -15.855469 5.6875 -15.8125 C 3.074219 -15.679688 1.25 -13.660156 1.25 -11.023438 C 1.25 -8.390625 3.449219 -7.136719 5.90625 -6.238281 C 6.785156 -5.929688 7.464844 -5.535156 7.53125 -4.632812 C 7.621094 -3.777344 6.828125 -3.117188 5.90625 -3.050781 C 5.183594 -2.988281 3.226562 -3.03125 1.425781 -4.304688 Z M 1.03125 -1.011719 "/></g></g></g></svg>