<svg xmlns="http://www.w3.org/2000/svg" xmlns:xlink="http://www.w3.org/1999/xlink" width="500" zoomAndPan="magnify" viewBox="0 0 375 374.999991" height="500" preserveAspectRatio="xMidYMid meet" version="1.0"><defs><g><g id="id1"/><g id="id2"/></g><clipPath id="id3"><path d="M 131.4375 105.882812 L 243.9375 105.882812 L 243.9375 210.132812 L 131.4375 210.132812 Z M 131.4375 105.882812 " clip-rule="nonzero"/></clipPath></defs><rect x="-37.5" width="450" fill="rgb(9.01947%, 9.408569%, 10.5896%)" y="-37.499999" height="449.999989" fill-opacity="1"/><rect x="-37.5" width="450" fill="rgb(100%, 100%, 100%)" y="-37.499999" height="449.999989" fill-opacity="1"/><rect x="-37.5" width="450" fill="rgb(9.01947%, 9.408569%, 10.5896%)" y="-37.499999" height="449.999989" fill-opacity="1"/><g clip-path="url(#id3)"><path fill="rgb(100%, 100%, 100%)" d="M 237.683594 137.800781 L 213.230469 112.546875 C 207.8125 106.953125 199.804688 104.652344 192.226562 106.515625 L 157.980469 114.933594 C 150.402344 116.796875 144.394531 122.535156 142.226562 129.992188 L 132.4375 163.660156 C 130.273438 171.117188 132.269531 179.152344 137.6875 184.75 L 145.003906 192.304688 C 144.859375 189.851562 145.132812 187.363281 145.832031 184.941406 L 154.960938 153.535156 C 156.816406 147.144531 161.488281 141.941406 167.660156 139.375 L 181.28125 133.714844 C 190.855469 129.730469 201.925781 132.910156 207.894531 141.347656 L 216.378906 153.359375 C 220.222656 158.796875 221.378906 165.671875 219.523438 172.0625 L 210.390625 203.46875 C 209.6875 205.886719 208.582031 208.136719 207.140625 210.136719 L 217.386719 207.617188 C 224.964844 205.753906 230.972656 200.015625 233.140625 192.558594 L 242.929688 158.886719 C 245.101562 151.433594 243.097656 143.394531 237.683594 137.800781 Z M 237.683594 137.800781 " fill-opacity="1" fill-rule="nonzero"/></g><path fill="rgb(100%, 100%, 100%)" d="M 181.945312 207.683594 C 182.289062 207.136719 182.554688 206.546875 182.734375 205.925781 L 193.902344 166.785156 C 194.101562 166.078125 194.195312 165.347656 194.164062 164.613281 C 193.902344 157.855469 185.09375 155.375 181.308594 160.992188 C 180.894531 161.601562 180.582031 162.269531 180.382812 162.976562 L 169.210938 202.117188 C 169.054688 202.667969 168.96875 203.234375 168.953125 203.804688 Z M 181.945312 207.683594 " fill-opacity="1" fill-rule="nonzero"/><g fill="rgb(100%, 100%, 100%)" fill-opacity="1"><g transform="translate(78.459982, 245.859829)"><g><path d="M 11.40625 -13.046875 C 11.457031 -13.335938 11.484375 -13.734375 11.484375 -14.234375 C 11.484375 -14.523438 11.460938 -14.8125 11.421875 -15.09375 C 11.390625 -15.375 11.320312 -15.625 11.21875 -15.84375 C 11.125 -16.0625 10.976562 -16.234375 10.78125 -16.359375 C 10.59375 -16.484375 10.347656 -16.546875 10.046875 -16.546875 C 9.691406 -16.546875 9.367188 -16.46875 9.078125 -16.3125 C 8.796875 -16.164062 8.539062 -15.96875 8.3125 -15.71875 C 8.09375 -15.476562 7.921875 -15.195312 7.796875 -14.875 C 7.671875 -14.5625 7.609375 -14.234375 7.609375 -13.890625 C 7.609375 -13.390625 7.738281 -13.003906 8 -12.734375 C 8.257812 -12.460938 8.601562 -12.238281 9.03125 -12.0625 C 9.457031 -11.894531 9.9375 -11.75 10.46875 -11.625 C 11.007812 -11.507812 11.570312 -11.378906 12.15625 -11.234375 C 12.632812 -11.097656 13.113281 -10.921875 13.59375 -10.703125 C 14.082031 -10.492188 14.515625 -10.207031 14.890625 -9.84375 C 15.265625 -9.488281 15.566406 -9.023438 15.796875 -8.453125 C 16.023438 -7.890625 16.140625 -7.1875 16.140625 -6.34375 C 16.140625 -5.125 15.898438 -4.097656 15.421875 -3.265625 C 14.941406 -2.441406 14.273438 -1.769531 13.421875 -1.25 C 12.578125 -0.726562 11.570312 -0.347656 10.40625 -0.109375 C 9.238281 0.117188 7.96875 0.234375 6.59375 0.234375 C 5.207031 0.234375 4.070312 0.144531 3.1875 -0.03125 C 2.3125 -0.21875 1.625 -0.421875 1.125 -0.640625 C 0.53125 -0.890625 0.0859375 -1.175781 -0.203125 -1.5 L 0.78125 -5.46875 L 5.875 -5.46875 C 5.851562 -5.289062 5.832031 -5.050781 5.8125 -4.75 C 5.789062 -4.457031 5.78125 -4.222656 5.78125 -4.046875 C 5.78125 -3.816406 5.8125 -3.578125 5.875 -3.328125 C 5.9375 -3.078125 6.03125 -2.84375 6.15625 -2.625 C 6.28125 -2.414062 6.457031 -2.242188 6.6875 -2.109375 C 6.914062 -1.972656 7.203125 -1.90625 7.546875 -1.90625 C 7.929688 -1.90625 8.273438 -1.992188 8.578125 -2.171875 C 8.878906 -2.347656 9.128906 -2.566406 9.328125 -2.828125 C 9.535156 -3.085938 9.691406 -3.375 9.796875 -3.6875 C 9.898438 -4.007812 9.953125 -4.320312 9.953125 -4.625 C 9.953125 -5.050781 9.847656 -5.410156 9.640625 -5.703125 C 9.441406 -5.992188 9.171875 -6.238281 8.828125 -6.4375 C 8.484375 -6.644531 8.082031 -6.816406 7.625 -6.953125 C 7.164062 -7.097656 6.695312 -7.25 6.21875 -7.40625 C 5.757812 -7.539062 5.273438 -7.703125 4.765625 -7.890625 C 4.253906 -8.085938 3.785156 -8.359375 3.359375 -8.703125 C 2.929688 -9.054688 2.578125 -9.5 2.296875 -10.03125 C 2.015625 -10.5625 1.875 -11.238281 1.875 -12.0625 C 1.875 -13.300781 2.1875 -14.335938 2.8125 -15.171875 C 3.445312 -16.015625 4.238281 -16.695312 5.1875 -17.21875 C 6.144531 -17.738281 7.191406 -18.109375 8.328125 -18.328125 C 9.472656 -18.554688 10.554688 -18.671875 11.578125 -18.671875 C 12.921875 -18.671875 14.078125 -18.507812 15.046875 -18.1875 C 16.023438 -17.863281 16.769531 -17.492188 17.28125 -17.078125 L 16.203125 -13.046875 Z M 11.40625 -13.046875 "/></g></g></g><g fill="rgb(100%, 100%, 100%)" fill-opacity="1"><g transform="translate(97.209698, 245.859829)"><g><path d="M 9.28125 -7.921875 C 9.863281 -7.921875 10.351562 -8.160156 10.75 -8.640625 C 11.144531 -9.128906 11.472656 -9.71875 11.734375 -10.40625 C 11.992188 -11.101562 12.179688 -11.828125 12.296875 -12.578125 C 12.410156 -13.335938 12.46875 -14 12.46875 -14.5625 C 12.46875 -15.082031 12.378906 -15.519531 12.203125 -15.875 C 12.035156 -16.226562 11.660156 -16.40625 11.078125 -16.40625 L 9.78125 -16.40625 L 7.953125 -7.921875 Z M 7.546875 -6.078125 L 6.25 0 L 0 0 L 3.90625 -18.375 L 10.59375 -18.375 C 11.6875 -18.375 12.6875 -18.316406 13.59375 -18.203125 C 14.5 -18.085938 15.28125 -17.851562 15.9375 -17.5 C 16.59375 -17.15625 17.101562 -16.660156 17.46875 -16.015625 C 17.84375 -15.367188 18.03125 -14.503906 18.03125 -13.421875 C 18.03125 -12.421875 17.867188 -11.472656 17.546875 -10.578125 C 17.234375 -9.679688 16.722656 -8.898438 16.015625 -8.234375 C 15.304688 -7.566406 14.394531 -7.039062 13.28125 -6.65625 C 12.164062 -6.269531 10.804688 -6.078125 9.203125 -6.078125 Z M 7.546875 -6.078125 "/></g></g></g><g fill="rgb(100%, 100%, 100%)" fill-opacity="1"><g transform="translate(116.335546, 245.859829)"><g><path d="M 16.03125 0 L 9.265625 0 L 8.859375 -4.59375 L 3.5 -4.59375 L 1.453125 0 L -1.359375 0 L 7.171875 -18.375 L 14.03125 -18.375 Z M 4.453125 -6.71875 L 8.65625 -6.71875 L 7.984375 -14.578125 Z M 4.453125 -6.71875 "/></g></g></g><g fill="rgb(100%, 100%, 100%)" fill-opacity="1"><g transform="translate(135.51927, 245.859829)"><g><path d="M 16.328125 -1.5625 C 15.835938 -1.332031 15.335938 -1.101562 14.828125 -0.875 C 14.316406 -0.65625 13.769531 -0.460938 13.1875 -0.296875 C 12.613281 -0.140625 11.984375 -0.015625 11.296875 0.078125 C 10.609375 0.179688 9.863281 0.234375 9.0625 0.234375 C 6.476562 0.234375 4.484375 -0.34375 3.078125 -1.5 C 1.679688 -2.65625 0.984375 -4.585938 0.984375 -7.296875 C 0.984375 -8.859375 1.222656 -10.328125 1.703125 -11.703125 C 2.191406 -13.085938 2.90625 -14.296875 3.84375 -15.328125 C 4.789062 -16.359375 5.957031 -17.171875 7.34375 -17.765625 C 8.738281 -18.367188 10.332031 -18.671875 12.125 -18.671875 C 12.96875 -18.671875 13.742188 -18.609375 14.453125 -18.484375 C 15.160156 -18.367188 15.796875 -18.21875 16.359375 -18.03125 C 16.929688 -17.851562 17.441406 -17.65625 17.890625 -17.4375 C 18.347656 -17.226562 18.757812 -17.03125 19.125 -16.84375 L 18.09375 -11.453125 L 12.875 -11.453125 C 12.894531 -11.648438 12.921875 -11.898438 12.953125 -12.203125 C 12.984375 -12.515625 13.003906 -12.828125 13.015625 -13.140625 C 13.035156 -13.460938 13.054688 -13.78125 13.078125 -14.09375 C 13.097656 -14.40625 13.109375 -14.664062 13.109375 -14.875 C 13.109375 -15.03125 13.097656 -15.207031 13.078125 -15.40625 C 13.054688 -15.613281 13.003906 -15.8125 12.921875 -16 C 12.847656 -16.195312 12.726562 -16.359375 12.5625 -16.484375 C 12.40625 -16.609375 12.191406 -16.671875 11.921875 -16.671875 C 11.421875 -16.671875 10.960938 -16.460938 10.546875 -16.046875 C 10.128906 -15.628906 9.753906 -15.078125 9.421875 -14.390625 C 9.097656 -13.710938 8.8125 -12.9375 8.5625 -12.0625 C 8.3125 -11.195312 8.101562 -10.316406 7.9375 -9.421875 C 7.78125 -8.523438 7.65625 -7.640625 7.5625 -6.765625 C 7.476562 -5.898438 7.4375 -5.140625 7.4375 -4.484375 C 7.4375 -4.296875 7.445312 -4.054688 7.46875 -3.765625 C 7.488281 -3.472656 7.546875 -3.191406 7.640625 -2.921875 C 7.734375 -2.648438 7.878906 -2.414062 8.078125 -2.21875 C 8.285156 -2.03125 8.5625 -1.9375 8.90625 -1.9375 C 9.507812 -1.9375 10.085938 -2.304688 10.640625 -3.046875 C 11.203125 -3.796875 11.695312 -5.125 12.125 -7.03125 L 17.484375 -7.03125 Z M 16.328125 -1.5625 "/></g></g></g><g fill="rgb(100%, 100%, 100%)" fill-opacity="1"><g transform="translate(155.773526, 245.859829)"><g><path d="M 3.90625 -18.375 L 16.09375 -18.375 L 15.625 -16.171875 L 9.71875 -16.171875 L 8.5 -10.59375 L 13.453125 -10.59375 L 13 -8.421875 L 8.046875 -8.421875 L 6.71875 -2.234375 L 12.609375 -2.234375 L 12.1875 0 L 0 0 Z M 3.90625 -18.375 "/></g></g></g><g fill="rgb(100%, 100%, 100%)" fill-opacity="1"><g transform="translate(172.092822, 245.859829)"><g/></g></g><g fill="rgb(100%, 100%, 100%)" fill-opacity="1"><g transform="translate(179.38486, 245.859829)"><g><path d="M 11.40625 -13.046875 C 11.457031 -13.335938 11.484375 -13.734375 11.484375 -14.234375 C 11.484375 -14.523438 11.460938 -14.8125 11.421875 -15.09375 C 11.390625 -15.375 11.320312 -15.625 11.21875 -15.84375 C 11.125 -16.0625 10.976562 -16.234375 10.78125 -16.359375 C 10.59375 -16.484375 10.347656 -16.546875 10.046875 -16.546875 C 9.691406 -16.546875 9.367188 -16.46875 9.078125 -16.3125 C 8.796875 -16.164062 8.539062 -15.96875 8.3125 -15.71875 C 8.09375 -15.476562 7.921875 -15.195312 7.796875 -14.875 C 7.671875 -14.5625 7.609375 -14.234375 7.609375 -13.890625 C 7.609375 -13.390625 7.738281 -13.003906 8 -12.734375 C 8.257812 -12.460938 8.601562 -12.238281 9.03125 -12.0625 C 9.457031 -11.894531 9.9375 -11.75 10.46875 -11.625 C 11.007812 -11.507812 11.570312 -11.378906 12.15625 -11.234375 C 12.632812 -11.097656 13.113281 -10.921875 13.59375 -10.703125 C 14.082031 -10.492188 14.515625 -10.207031 14.890625 -9.84375 C 15.265625 -9.488281 15.566406 -9.023438 15.796875 -8.453125 C 16.023438 -7.890625 16.140625 -7.1875 16.140625 -6.34375 C 16.140625 -5.125 15.898438 -4.097656 15.421875 -3.265625 C 14.941406 -2.441406 14.273438 -1.769531 13.421875 -1.25 C 12.578125 -0.726562 11.570312 -0.347656 10.40625 -0.109375 C 9.238281 0.117188 7.96875 0.234375 6.59375 0.234375 C 5.207031 0.234375 4.070312 0.144531 3.1875 -0.03125 C 2.3125 -0.21875 1.625 -0.421875 1.125 -0.640625 C 0.53125 -0.890625 0.0859375 -1.175781 -0.203125 -1.5 L 0.78125 -5.46875 L 5.875 -5.46875 C 5.851562 -5.289062 5.832031 -5.050781 5.8125 -4.75 C 5.789062 -4.457031 5.78125 -4.222656 5.78125 -4.046875 C 5.78125 -3.816406 5.8125 -3.578125 5.875 -3.328125 C 5.9375 -3.078125 6.03125 -2.84375 6.15625 -2.625 C 6.28125 -2.414062 6.457031 -2.242188 6.6875 -2.109375 C 6.914062 -1.972656 7.203125 -1.90625 7.546875 -1.90625 C 7.929688 -1.90625 8.273438 -1.992188 8.578125 -2.171875 C 8.878906 -2.347656 9.128906 -2.566406 9.328125 -2.828125 C 9.535156 -3.085938 9.691406 -3.375 9.796875 -3.6875 C 9.898438 -4.007812 9.953125 -4.320312 9.953125 -4.625 C 9.953125 -5.050781 9.847656 -5.410156 9.640625 -5.703125 C 9.441406 -5.992188 9.171875 -6.238281 8.828125 -6.4375 C 8.484375 -6.644531 8.082031 -6.816406 7.625 -6.953125 C 7.164062 -7.097656 6.695312 -7.25 6.21875 -7.40625 C 5.757812 -7.539062 5.273438 -7.703125 4.765625 -7.890625 C 4.253906 -8.085938 3.785156 -8.359375 3.359375 -8.703125 C 2.929688 -9.054688 2.578125 -9.5 2.296875 -10.03125 C 2.015625 -10.5625 1.875 -11.238281 1.875 -12.0625 C 1.875 -13.300781 2.1875 -14.335938 2.8125 -15.171875 C 3.445312 -16.015625 4.238281 -16.695312 5.1875 -17.21875 C 6.144531 -17.738281 7.191406 -18.109375 8.328125 -18.328125 C 9.472656 -18.554688 10.554688 -18.671875 11.578125 -18.671875 C 12.921875 -18.671875 14.078125 -18.507812 15.046875 -18.1875 C 16.023438 -17.863281 16.769531 -17.492188 17.28125 -17.078125 L 16.203125 -13.046875 Z M 11.40625 -13.046875 "/></g></g></g><g fill="rgb(100%, 100%, 100%)" fill-opacity="1"><g transform="translate(198.134573, 245.859829)"><g><path d="M 16.328125 -1.5625 C 15.835938 -1.332031 15.335938 -1.101562 14.828125 -0.875 C 14.316406 -0.65625 13.769531 -0.460938 13.1875 -0.296875 C 12.613281 -0.140625 11.984375 -0.015625 11.296875 0.078125 C 10.609375 0.179688 9.863281 0.234375 9.0625 0.234375 C 6.476562 0.234375 4.484375 -0.34375 3.078125 -1.5 C 1.679688 -2.65625 0.984375 -4.585938 0.984375 -7.296875 C 0.984375 -8.859375 1.222656 -10.328125 1.703125 -11.703125 C 2.191406 -13.085938 2.90625 -14.296875 3.84375 -15.328125 C 4.789062 -16.359375 5.957031 -17.171875 7.34375 -17.765625 C 8.738281 -18.367188 10.332031 -18.671875 12.125 -18.671875 C 12.96875 -18.671875 13.742188 -18.609375 14.453125 -18.484375 C 15.160156 -18.367188 15.796875 -18.21875 16.359375 -18.03125 C 16.929688 -17.851562 17.441406 -17.65625 17.890625 -17.4375 C 18.347656 -17.226562 18.757812 -17.03125 19.125 -16.84375 L 18.09375 -11.453125 L 12.875 -11.453125 C 12.894531 -11.648438 12.921875 -11.898438 12.953125 -12.203125 C 12.984375 -12.515625 13.003906 -12.828125 13.015625 -13.140625 C 13.035156 -13.460938 13.054688 -13.78125 13.078125 -14.09375 C 13.097656 -14.40625 13.109375 -14.664062 13.109375 -14.875 C 13.109375 -15.03125 13.097656 -15.207031 13.078125 -15.40625 C 13.054688 -15.613281 13.003906 -15.8125 12.921875 -16 C 12.847656 -16.195312 12.726562 -16.359375 12.5625 -16.484375 C 12.40625 -16.609375 12.191406 -16.671875 11.921875 -16.671875 C 11.421875 -16.671875 10.960938 -16.460938 10.546875 -16.046875 C 10.128906 -15.628906 9.753906 -15.078125 9.421875 -14.390625 C 9.097656 -13.710938 8.8125 -12.9375 8.5625 -12.0625 C 8.3125 -11.195312 8.101562 -10.316406 7.9375 -9.421875 C 7.78125 -8.523438 7.65625 -7.640625 7.5625 -6.765625 C 7.476562 -5.898438 7.4375 -5.140625 7.4375 -4.484375 C 7.4375 -4.296875 7.445312 -4.054688 7.46875 -3.765625 C 7.488281 -3.472656 7.546875 -3.191406 7.640625 -2.921875 C 7.734375 -2.648438 7.878906 -2.414062 8.078125 -2.21875 C 8.285156 -2.03125 8.5625 -1.9375 8.90625 -1.9375 C 9.507812 -1.9375 10.085938 -2.304688 10.640625 -3.046875 C 11.203125 -3.796875 11.695312 -5.125 12.125 -7.03125 L 17.484375 -7.03125 Z M 16.328125 -1.5625 "/></g></g></g><g fill="rgb(100%, 100%, 100%)" fill-opacity="1"><g transform="translate(218.388829, 245.859829)"><g><path d="M 16.0625 0 L 9.8125 0 L 11.546875 -8.1875 L 7.984375 -8.1875 L 6.25 0 L 0 0 L 3.90625 -18.375 L 10.1875 -18.375 L 8.484375 -10.390625 L 12.015625 -10.390625 L 13.71875 -18.375 L 20.03125 -18.375 Z M 16.0625 0 "/></g></g></g><g fill="rgb(100%, 100%, 100%)" fill-opacity="1"><g transform="translate(239.424292, 245.859829)"><g><path d="M 11.890625 -18.671875 C 13.546875 -18.671875 14.890625 -18.457031 15.921875 -18.03125 C 16.960938 -17.601562 17.78125 -16.945312 18.375 -16.0625 C 18.757812 -15.457031 19.054688 -14.78125 19.265625 -14.03125 C 19.484375 -13.28125 19.59375 -12.414062 19.59375 -11.4375 C 19.59375 -10.582031 19.515625 -9.726562 19.359375 -8.875 C 19.203125 -8.03125 18.984375 -7.21875 18.703125 -6.4375 C 18.421875 -5.65625 18.082031 -4.921875 17.6875 -4.234375 C 17.300781 -3.554688 16.863281 -2.957031 16.375 -2.4375 C 15.46875 -1.445312 14.421875 -0.753906 13.234375 -0.359375 C 12.046875 0.0351562 10.585938 0.234375 8.859375 0.234375 C 7.179688 0.234375 5.828125 0.0625 4.796875 -0.28125 C 3.773438 -0.632812 2.96875 -1.195312 2.375 -1.96875 C 1.945312 -2.507812 1.613281 -3.191406 1.375 -4.015625 C 1.132812 -4.847656 1.015625 -5.890625 1.015625 -7.140625 C 1.015625 -9.285156 1.394531 -11.203125 2.15625 -12.890625 C 2.914062 -14.578125 4 -15.914062 5.40625 -16.90625 C 6.257812 -17.5 7.207031 -17.941406 8.25 -18.234375 C 9.289062 -18.523438 10.503906 -18.671875 11.890625 -18.671875 Z M 8.625 -1.796875 C 9.0625 -1.796875 9.476562 -1.992188 9.875 -2.390625 C 10.269531 -2.785156 10.632812 -3.316406 10.96875 -3.984375 C 11.3125 -4.648438 11.625 -5.40625 11.90625 -6.25 C 12.1875 -7.101562 12.421875 -7.984375 12.609375 -8.890625 C 12.804688 -9.796875 12.957031 -10.695312 13.0625 -11.59375 C 13.164062 -12.488281 13.21875 -13.300781 13.21875 -14.03125 C 13.21875 -15.039062 13.113281 -15.734375 12.90625 -16.109375 C 12.707031 -16.484375 12.414062 -16.671875 12.03125 -16.671875 C 11.59375 -16.671875 11.171875 -16.476562 10.765625 -16.09375 C 10.359375 -15.707031 9.976562 -15.191406 9.625 -14.546875 C 9.269531 -13.898438 8.953125 -13.15625 8.671875 -12.3125 C 8.390625 -11.46875 8.144531 -10.601562 7.9375 -9.71875 C 7.738281 -8.832031 7.585938 -7.953125 7.484375 -7.078125 C 7.378906 -6.210938 7.328125 -5.414062 7.328125 -4.6875 C 7.328125 -3.582031 7.445312 -2.820312 7.6875 -2.40625 C 7.925781 -2 8.238281 -1.796875 8.625 -1.796875 Z M 8.625 -1.796875 "/></g></g></g><g fill="rgb(100%, 100%, 100%)" fill-opacity="1"><g transform="translate(261.009485, 245.859829)"><g><path d="M 11.890625 -18.671875 C 13.546875 -18.671875 14.890625 -18.457031 15.921875 -18.03125 C 16.960938 -17.601562 17.78125 -16.945312 18.375 -16.0625 C 18.757812 -15.457031 19.054688 -14.78125 19.265625 -14.03125 C 19.484375 -13.28125 19.59375 -12.414062 19.59375 -11.4375 C 19.59375 -10.582031 19.515625 -9.726562 19.359375 -8.875 C 19.203125 -8.03125 18.984375 -7.21875 18.703125 -6.4375 C 18.421875 -5.65625 18.082031 -4.921875 17.6875 -4.234375 C 17.300781 -3.554688 16.863281 -2.957031 16.375 -2.4375 C 15.46875 -1.445312 14.421875 -0.753906 13.234375 -0.359375 C 12.046875 0.0351562 10.585938 0.234375 8.859375 0.234375 C 7.179688 0.234375 5.828125 0.0625 4.796875 -0.28125 C 3.773438 -0.632812 2.96875 -1.195312 2.375 -1.96875 C 1.945312 -2.507812 1.613281 -3.191406 1.375 -4.015625 C 1.132812 -4.847656 1.015625 -5.890625 1.015625 -7.140625 C 1.015625 -9.285156 1.394531 -11.203125 2.15625 -12.890625 C 2.914062 -14.578125 4 -15.914062 5.40625 -16.90625 C 6.257812 -17.5 7.207031 -17.941406 8.25 -18.234375 C 9.289062 -18.523438 10.503906 -18.671875 11.890625 -18.671875 Z M 8.625 -1.796875 C 9.0625 -1.796875 9.476562 -1.992188 9.875 -2.390625 C 10.269531 -2.785156 10.632812 -3.316406 10.96875 -3.984375 C 11.3125 -4.648438 11.625 -5.40625 11.90625 -6.25 C 12.1875 -7.101562 12.421875 -7.984375 12.609375 -8.890625 C 12.804688 -9.796875 12.957031 -10.695312 13.0625 -11.59375 C 13.164062 -12.488281 13.21875 -13.300781 13.21875 -14.03125 C 13.21875 -15.039062 13.113281 -15.734375 12.90625 -16.109375 C 12.707031 -16.484375 12.414062 -16.671875 12.03125 -16.671875 C 11.59375 -16.671875 11.171875 -16.476562 10.765625 -16.09375 C 10.359375 -15.707031 9.976562 -15.191406 9.625 -14.546875 C 9.269531 -13.898438 8.953125 -13.15625 8.671875 -12.3125 C 8.390625 -11.46875 8.144531 -10.601562 7.9375 -9.71875 C 7.738281 -8.832031 7.585938 -7.953125 7.484375 -7.078125 C 7.378906 -6.210938 7.328125 -5.414062 7.328125 -4.6875 C 7.328125 -3.582031 7.445312 -2.820312 7.6875 -2.40625 C 7.925781 -2 8.238281 -1.796875 8.625 -1.796875 Z M 8.625 -1.796875 "/></g></g></g><g fill="rgb(100%, 100%, 100%)" fill-opacity="1"><g transform="translate(282.594688, 245.859829)"><g><path d="M 3.90625 -18.375 L 10.1875 -18.375 L 6.765625 -2.4375 L 12.640625 -2.4375 L 12.15625 0 L 0 0 Z M 3.90625 -18.375 "/></g></g></g><g fill="rgb(32.939148%, 32.939148%, 32.939148%)" fill-opacity="1"><g transform="translate(188.366942, 265.775255)"><g/></g></g></svg>