<svg width="51" height="51" viewBox="0 0 51 51" fill="none" xmlns="http://www.w3.org/2000/svg">
<path d="M34.001 27.4115V36.3365C34.001 43.774 31.026 46.749 23.5885 46.749H14.6635C7.22598 46.749 4.25098 43.774 4.25098 36.3365V27.4115C4.25098 19.974 7.22598 16.999 14.6635 16.999H23.5885C31.026 16.999 34.001 19.974 34.001 27.4115Z" stroke="#1038C7" stroke-width="4.6311" stroke-linecap="round" stroke-linejoin="round"/>
<path d="M46.749 14.6635V23.5885C46.749 31.026 43.774 34.001 36.3365 34.001H33.999V27.4135C33.999 19.976 31.024 17.001 23.5865 17.001H16.999V14.6635C16.999 7.22598 19.974 4.25098 27.4115 4.25098H36.3365C43.774 4.25098 46.749 7.22598 46.749 14.6635Z" stroke="#1038C7" stroke-width="4.6311" stroke-linecap="round" stroke-linejoin="round"/>
</svg>
