<svg width="628" height="85" viewBox="0 0 628 85" fill="none" xmlns="http://www.w3.org/2000/svg">
<path d="M310.75 37.25L317.25 30.75C317.708 30.2917 317.938 29.7083 317.938 29C317.938 28.2917 317.708 27.7083 317.25 27.25L310.688 20.6875C310.229 20.2292 309.657 20.01 308.97 20.03C308.282 20.0517 307.708 20.2917 307.25 20.75C306.792 21.2083 306.562 21.7917 306.562 22.5C306.562 23.2083 306.792 23.7917 307.25 24.25L309.5 26.5H301.438C300.729 26.5 300.146 26.7392 299.687 27.2175C299.229 27.6975 299 28.2917 299 29C299 29.7083 299.24 30.3017 299.72 30.78C300.198 31.26 300.792 31.5 301.5 31.5H309.5L307.188 33.8125C306.729 34.2708 306.51 34.8442 306.53 35.5325C306.552 36.2192 306.792 36.7917 307.25 37.25C307.708 37.7083 308.292 37.9375 309 37.9375C309.708 37.9375 310.292 37.7083 310.75 37.25ZM309 54C305.542 54 302.292 53.3433 299.25 52.03C296.208 50.7183 293.562 48.9375 291.313 46.6875C289.063 44.4375 287.282 41.7917 285.97 38.75C284.657 35.7083 284 32.4583 284 29C284 25.5417 284.657 22.2917 285.97 19.25C287.282 16.2083 289.063 13.5625 291.313 11.3125C293.562 9.0625 296.208 7.28083 299.25 5.9675C302.292 4.65583 305.542 4 309 4C312.458 4 315.708 4.65583 318.75 5.9675C321.792 7.28083 324.438 9.0625 326.688 11.3125C328.938 13.5625 330.718 16.2083 332.03 19.25C333.343 22.2917 334 25.5417 334 29C334 32.4583 333.343 35.7083 332.03 38.75C330.718 41.7917 328.938 44.4375 326.688 46.6875C324.438 48.9375 321.792 50.7183 318.75 52.03C315.708 53.3433 312.458 54 309 54Z" fill="#1038C7"/>
<rect x="415.5" y="0.5" width="212" height="56" rx="7.5" fill="#FFFCED"/>
<path d="M462.297 34L462.344 33.8438C463.552 30.3838 463.552 26.6162 462.344 23.1562L462.297 23C461.157 19.8562 459.077 17.1389 456.341 15.2161C453.605 13.2932 450.344 12.2578 447 12.25C443.655 12.2533 440.392 13.287 437.655 15.2104C434.918 17.1339 432.84 19.8537 431.703 23L431.656 23.1562C430.448 26.6162 430.448 30.3838 431.656 33.8438L431.703 34C432.84 37.1463 434.918 39.8661 437.655 41.7896C440.392 43.713 443.655 44.7467 447 44.75C450.345 44.7467 453.608 43.713 456.345 41.7896C459.082 39.8661 461.16 37.1463 462.297 34ZM443.016 34.75H450.984C450.184 37.2355 448.82 39.5027 447 41.375C445.18 39.5027 443.816 37.2355 443.016 34.75ZM442.359 32.25C441.88 29.7729 441.88 27.2271 442.359 24.75H451.641C451.879 25.9859 451.999 27.2415 452 28.5C452 29.7586 451.879 31.0143 451.641 32.25H442.359ZM433.25 28.5C433.253 27.2325 433.426 25.9712 433.766 24.75H439.813C439.396 27.2326 439.396 29.7674 439.813 32.25H433.766C433.426 31.0288 433.253 29.7675 433.25 28.5ZM450.984 22.25H443.016C443.816 19.7645 445.18 17.4973 447 15.625C448.82 17.4973 450.184 19.7645 450.984 22.25ZM454.188 24.75H460.234C460.922 27.2027 460.922 29.7973 460.234 32.25H454.188C454.604 29.7674 454.604 27.2326 454.188 24.75ZM459.25 22.25H453.625C452.873 19.6177 451.592 17.1666 449.859 15.0469C451.86 15.4788 453.739 16.3488 455.363 17.5944C456.987 18.8399 458.314 20.4299 459.25 22.25ZM444.141 15.0469C442.408 17.1666 441.127 19.6177 440.375 22.25H434.75C435.686 20.4299 437.013 18.8399 438.637 17.5944C440.261 16.3488 442.14 15.4788 444.141 15.0469ZM434.75 34.75H440.375C441.127 37.3823 442.408 39.8334 444.141 41.9531C442.139 41.5243 440.258 40.6555 438.634 39.4096C437.01 38.1637 435.683 36.5721 434.75 34.75ZM449.859 41.9531C451.592 39.8334 452.873 37.3823 453.625 34.75H459.25C458.317 36.5721 456.99 38.1637 455.366 39.4096C453.742 40.6555 451.861 41.5243 449.859 41.9531Z" fill="#F6B50D"/>
<path d="M479.77 39.1818C479.515 39.1818 479.287 39.1605 479.086 39.1179C478.886 39.0795 478.748 39.0412 478.671 39.0028L479.054 37.6733C479.421 37.767 479.745 37.8011 480.026 37.7756C480.307 37.75 480.556 37.6243 480.774 37.3984C480.995 37.1768 481.198 36.8168 481.381 36.3182L481.662 35.5511L478.032 25.6818H479.668L482.378 33.5057H482.48L485.191 25.6818H486.827L482.659 36.9318C482.472 37.4389 482.24 37.8587 481.963 38.1911C481.686 38.5277 481.364 38.777 480.998 38.9389C480.635 39.1009 480.226 39.1818 479.77 39.1818ZM492.455 35.7045C491.569 35.7045 490.791 35.4936 490.122 35.0717C489.457 34.6499 488.938 34.0597 488.562 33.3011C488.192 32.5426 488.006 31.6562 488.006 30.642C488.006 29.6193 488.192 28.7266 488.562 27.9638C488.938 27.201 489.457 26.6087 490.122 26.1868C490.791 25.7649 491.569 25.554 492.455 25.554C493.342 25.554 494.117 25.7649 494.782 26.1868C495.451 26.6087 495.971 27.201 496.342 27.9638C496.717 28.7266 496.904 29.6193 496.904 30.642C496.904 31.6562 496.717 32.5426 496.342 33.3011C495.971 34.0597 495.451 34.6499 494.782 35.0717C494.117 35.4936 493.342 35.7045 492.455 35.7045ZM492.455 34.3494C493.129 34.3494 493.683 34.1768 494.117 33.8317C494.552 33.4865 494.874 33.0327 495.082 32.4702C495.291 31.9077 495.396 31.2983 495.396 30.642C495.396 29.9858 495.291 29.3743 495.082 28.8075C494.874 28.2408 494.552 27.7827 494.117 27.4332C493.683 27.0838 493.129 26.9091 492.455 26.9091C491.782 26.9091 491.228 27.0838 490.793 27.4332C490.359 27.7827 490.037 28.2408 489.828 28.8075C489.619 29.3743 489.515 29.9858 489.515 30.642C489.515 31.2983 489.619 31.9077 489.828 32.4702C490.037 33.0327 490.359 33.4865 490.793 33.8317C491.228 34.1768 491.782 34.3494 492.455 34.3494ZM505.394 31.4858V25.6818H506.903V35.5H505.394V33.8381H505.292C505.062 34.3366 504.704 34.7607 504.218 35.1101C503.732 35.4553 503.119 35.6278 502.377 35.6278C501.764 35.6278 501.218 35.4936 500.741 35.2251C500.264 34.9524 499.889 34.5433 499.616 33.9979C499.343 33.4482 499.207 32.7557 499.207 31.9205V25.6818H500.715V31.8182C500.715 32.5341 500.916 33.1051 501.316 33.5312C501.721 33.9574 502.237 34.1705 502.863 34.1705C503.238 34.1705 503.619 34.0746 504.007 33.8828C504.399 33.6911 504.727 33.397 504.992 33.0007C505.26 32.6044 505.394 32.0994 505.394 31.4858ZM509.666 35.5V25.6818H511.123V27.1648H511.225C511.404 26.679 511.728 26.2848 512.197 25.9822C512.666 25.6797 513.194 25.5284 513.782 25.5284C513.893 25.5284 514.032 25.5305 514.198 25.5348C514.364 25.5391 514.49 25.5455 514.575 25.554V27.0881C514.524 27.0753 514.407 27.0561 514.223 27.0305C514.044 27.0007 513.855 26.9858 513.654 26.9858C513.177 26.9858 512.751 27.0859 512.376 27.2862C512.005 27.4822 511.711 27.755 511.494 28.1044C511.281 28.4496 511.174 28.8437 511.174 29.2869V35.5H509.666ZM521.267 29.1847V30.5909H515.54V29.1847H521.267ZM523.922 39.1818V25.6818H525.379V27.2415H525.558C525.669 27.071 525.822 26.8537 526.018 26.5895C526.219 26.321 526.504 26.0824 526.875 25.8736C527.25 25.6605 527.757 25.554 528.396 25.554C529.223 25.554 529.952 25.7607 530.582 26.174C531.213 26.5874 531.705 27.1733 532.059 27.9318C532.412 28.6903 532.589 29.5852 532.589 30.6165C532.589 31.6562 532.412 32.5575 532.059 33.3203C531.705 34.0788 531.215 34.6669 530.589 35.0845C529.962 35.4979 529.24 35.7045 528.422 35.7045C527.791 35.7045 527.286 35.6001 526.907 35.3913C526.528 35.1783 526.236 34.9375 526.031 34.669C525.827 34.3963 525.669 34.1705 525.558 33.9915H525.43V39.1818H523.922ZM525.405 30.5909C525.405 31.3324 525.513 31.9865 525.731 32.5533C525.948 33.1158 526.265 33.5568 526.683 33.8764C527.101 34.1918 527.612 34.3494 528.217 34.3494C528.848 34.3494 529.374 34.1832 529.796 33.8509C530.222 33.5142 530.542 33.0625 530.755 32.4957C530.972 31.9247 531.081 31.2898 531.081 30.5909C531.081 29.9006 530.974 29.2784 530.761 28.7244C530.552 28.1662 530.235 27.7251 529.809 27.4013C529.387 27.0732 528.856 26.9091 528.217 26.9091C527.604 26.9091 527.088 27.0646 526.67 27.3757C526.253 27.6825 525.937 28.1129 525.724 28.6669C525.511 29.2166 525.405 29.858 525.405 30.5909ZM534.89 35.5V25.6818H536.348V27.1648H536.45C536.629 26.679 536.953 26.2848 537.422 25.9822C537.89 25.6797 538.419 25.5284 539.007 25.5284C539.118 25.5284 539.256 25.5305 539.422 25.5348C539.589 25.5391 539.714 25.5455 539.8 25.554V27.0881C539.748 27.0753 539.631 27.0561 539.448 27.0305C539.269 27.0007 539.079 26.9858 538.879 26.9858C538.402 26.9858 537.976 27.0859 537.601 27.2862C537.23 27.4822 536.936 27.755 536.719 28.1044C536.506 28.4496 536.399 28.8437 536.399 29.2869V35.5H534.89ZM545.278 35.7045C544.391 35.7045 543.613 35.4936 542.944 35.0717C542.28 34.6499 541.76 34.0597 541.385 33.3011C541.014 32.5426 540.829 31.6562 540.829 30.642C540.829 29.6193 541.014 28.7266 541.385 27.9638C541.76 27.201 542.28 26.6087 542.944 26.1868C543.613 25.7649 544.391 25.554 545.278 25.554C546.164 25.554 546.939 25.7649 547.604 26.1868C548.273 26.6087 548.793 27.201 549.164 27.9638C549.539 28.7266 549.726 29.6193 549.726 30.642C549.726 31.6562 549.539 32.5426 549.164 33.3011C548.793 34.0597 548.273 34.6499 547.604 35.0717C546.939 35.4936 546.164 35.7045 545.278 35.7045ZM545.278 34.3494C545.951 34.3494 546.505 34.1768 546.939 33.8317C547.374 33.4865 547.696 33.0327 547.905 32.4702C548.113 31.9077 548.218 31.2983 548.218 30.642C548.218 29.9858 548.113 29.3743 547.905 28.8075C547.696 28.2408 547.374 27.7827 546.939 27.4332C546.505 27.0838 545.951 26.9091 545.278 26.9091C544.604 26.9091 544.05 27.0838 543.616 27.4332C543.181 27.7827 542.859 28.2408 542.65 28.8075C542.442 29.3743 542.337 29.9858 542.337 30.642C542.337 31.2983 542.442 31.9077 542.65 32.4702C542.859 33.0327 543.181 33.4865 543.616 33.8317C544.05 34.1768 544.604 34.3494 545.278 34.3494ZM552.029 25.6818H553.538V36.2159C553.538 36.821 553.433 37.3452 553.224 37.7884C553.02 38.2315 552.709 38.5746 552.291 38.8175C551.878 39.0604 551.356 39.1818 550.725 39.1818C550.674 39.1818 550.623 39.1818 550.572 39.1818C550.521 39.1818 550.469 39.1818 550.418 39.1818V37.7756C550.469 37.7756 550.516 37.7756 550.559 37.7756C550.602 37.7756 550.648 37.7756 550.7 37.7756C551.16 37.7756 551.496 37.6392 551.71 37.3665C551.923 37.098 552.029 36.7145 552.029 36.2159V25.6818ZM552.771 24.0455C552.477 24.0455 552.223 23.9453 552.01 23.745C551.801 23.5447 551.697 23.304 551.697 23.0227C551.697 22.7415 551.801 22.5007 552.01 22.3004C552.223 22.1001 552.477 22 552.771 22C553.065 22 553.316 22.1001 553.525 22.3004C553.738 22.5007 553.844 22.7415 553.844 23.0227C553.844 23.304 553.738 23.5447 553.525 23.745C553.316 23.9453 553.065 24.0455 552.771 24.0455ZM560.417 35.7045C559.471 35.7045 558.655 35.4957 557.969 35.0781C557.287 34.6562 556.761 34.0682 556.39 33.3139C556.024 32.5554 555.84 31.6733 555.84 30.6676C555.84 29.6619 556.024 28.7756 556.39 28.0085C556.761 27.2372 557.276 26.6364 557.937 26.206C558.602 25.7713 559.377 25.554 560.264 25.554C560.775 25.554 561.28 25.6392 561.779 25.8097C562.277 25.9801 562.731 26.2571 563.14 26.6406C563.549 27.0199 563.875 27.5227 564.118 28.1491C564.361 28.7756 564.482 29.5469 564.482 30.4631V31.1023H556.914V29.7983H562.948C562.948 29.2443 562.838 28.75 562.616 28.3153C562.399 27.8807 562.088 27.5376 561.683 27.2862C561.282 27.0348 560.809 26.9091 560.264 26.9091C559.663 26.9091 559.143 27.0582 558.704 27.3565C558.269 27.6506 557.935 28.0341 557.7 28.5071C557.466 28.9801 557.349 29.4872 557.349 30.0284V30.8977C557.349 31.6392 557.477 32.2678 557.732 32.7834C557.992 33.2947 558.352 33.6847 558.813 33.9531C559.273 34.2173 559.808 34.3494 560.417 34.3494C560.813 34.3494 561.171 34.294 561.491 34.1832C561.815 34.0682 562.094 33.8977 562.328 33.6719C562.563 33.4418 562.744 33.1562 562.872 32.8153L564.329 33.2244C564.176 33.7188 563.918 34.1534 563.556 34.5284C563.193 34.8991 562.746 35.1889 562.213 35.3977C561.681 35.6023 561.082 35.7045 560.417 35.7045ZM570.766 35.7045C569.845 35.7045 569.053 35.4872 568.388 35.0526C567.723 34.6179 567.212 34.0192 566.854 33.2564C566.496 32.4936 566.317 31.6222 566.317 30.642C566.317 29.6449 566.5 28.7649 566.867 28.0021C567.237 27.2351 567.753 26.6364 568.414 26.206C569.078 25.7713 569.854 25.554 570.74 25.554C571.431 25.554 572.053 25.6818 572.607 25.9375C573.161 26.1932 573.615 26.5511 573.968 27.0114C574.322 27.4716 574.541 28.0085 574.627 28.6222H573.118C573.003 28.1747 572.747 27.7784 572.351 27.4332C571.959 27.0838 571.431 26.9091 570.766 26.9091C570.178 26.9091 569.662 27.0625 569.219 27.3693C568.78 27.6719 568.437 28.1001 568.19 28.6541C567.947 29.2038 567.825 29.8494 567.825 30.5909C567.825 31.3494 567.945 32.0099 568.183 32.5724C568.426 33.1349 568.767 33.5717 569.206 33.8828C569.649 34.1939 570.169 34.3494 570.766 34.3494C571.158 34.3494 571.514 34.2812 571.833 34.1449C572.153 34.0085 572.423 33.8125 572.645 33.5568C572.867 33.3011 573.024 32.9943 573.118 32.6364H574.627C574.541 33.2159 574.33 33.7379 573.994 34.2024C573.661 34.6626 573.22 35.0291 572.671 35.3018C572.125 35.5703 571.49 35.7045 570.766 35.7045ZM581.102 25.6818V26.9602H576.014V25.6818H581.102ZM577.497 23.3295H579.005V32.6875C579.005 33.1136 579.067 33.4332 579.191 33.6463C579.318 33.8551 579.48 33.9957 579.676 34.0682C579.877 34.1364 580.088 34.1705 580.309 34.1705C580.475 34.1705 580.612 34.1619 580.718 34.1449C580.825 34.1236 580.91 34.1065 580.974 34.0938L581.281 35.4489C581.178 35.4872 581.036 35.5256 580.852 35.5639C580.669 35.6065 580.437 35.6278 580.156 35.6278C579.73 35.6278 579.312 35.5362 578.903 35.353C578.498 35.1697 578.161 34.8906 577.893 34.5156C577.629 34.1406 577.497 33.6676 577.497 33.0966V23.3295ZM588.644 29.1847V30.5909H582.917V29.1847H588.644ZM599.327 25.6818L595.696 35.5H594.162L590.532 25.6818H592.168L594.878 33.5057H594.98L597.691 25.6818H599.327ZM601.318 35.5V25.6818H602.776V27.2159H602.903C603.108 26.6918 603.438 26.2848 603.894 25.995C604.35 25.701 604.898 25.554 605.537 25.554C606.185 25.554 606.724 25.701 607.154 25.995C607.589 26.2848 607.928 26.6918 608.17 27.2159H608.273C608.524 26.7088 608.901 26.3061 609.404 26.0078C609.907 25.7053 610.51 25.554 611.213 25.554C612.091 25.554 612.809 25.8288 613.367 26.3786C613.925 26.924 614.205 27.7741 614.205 28.929V35.5H612.696V28.929C612.696 28.2045 612.498 27.6868 612.102 27.3757C611.705 27.0646 611.239 26.9091 610.702 26.9091C610.011 26.9091 609.477 27.1179 609.097 27.5355C608.718 27.9489 608.528 28.473 608.528 29.108V35.5H606.994V28.7756C606.994 28.2173 606.813 27.7678 606.451 27.4268C606.089 27.0817 605.622 26.9091 605.051 26.9091C604.659 26.9091 604.293 27.0135 603.952 27.2223C603.615 27.4311 603.342 27.7209 603.134 28.0916C602.929 28.4581 602.827 28.8821 602.827 29.3636V35.5H601.318Z" fill="#3D2C00"/>
<rect x="415.5" y="0.5" width="212" height="56" rx="7.5" stroke="#F6B50D"/>
<rect x="0.5" y="0.5" width="212" height="56" rx="7.5" fill="white"/>
<path d="M86.7969 34L86.8437 33.8438C88.0524 30.3838 88.0524 26.6162 86.8437 23.1562L86.7969 23C85.6565 19.8562 83.5775 17.1389 80.8413 15.2161C78.1052 13.2932 74.8442 12.2578 71.5 12.25C68.1547 12.2533 64.8917 13.287 62.1547 15.2104C59.4177 17.1339 57.3396 19.8537 56.2031 23L56.1562 23.1562C54.9475 26.6162 54.9475 30.3838 56.1562 33.8438L56.2031 34C57.3396 37.1463 59.4177 39.8661 62.1547 41.7896C64.8917 43.713 68.1547 44.7467 71.5 44.75C74.8452 44.7467 78.1083 43.713 80.8453 41.7896C83.5823 39.8661 85.6604 37.1463 86.7969 34ZM67.5156 34.75H75.4844C74.6837 37.2355 73.3202 39.5027 71.5 41.375C69.6798 39.5027 68.3163 37.2355 67.5156 34.75ZM66.8594 32.25C66.3803 29.7729 66.3803 27.2271 66.8594 24.75H76.1406C76.3785 25.9859 76.4988 27.2415 76.5 28.5C76.4996 29.7586 76.3792 31.0143 76.1406 32.25H66.8594ZM57.75 28.5C57.7526 27.2325 57.9261 25.9712 58.2656 24.75H64.3125C63.8958 27.2326 63.8958 29.7674 64.3125 32.25H58.2656C57.9261 31.0288 57.7526 29.7675 57.75 28.5ZM75.4844 22.25H67.5156C68.3163 19.7645 69.6798 17.4973 71.5 15.625C73.3202 17.4973 74.6837 19.7645 75.4844 22.25ZM78.6875 24.75H84.7344C85.422 27.2027 85.422 29.7973 84.7344 32.25H78.6875C79.1042 29.7674 79.1042 27.2326 78.6875 24.75ZM83.75 22.25H78.125C77.3732 19.6177 76.0918 17.1666 74.3594 15.0469C76.3597 15.4788 78.2394 16.3488 79.8632 17.5944C81.487 18.8399 82.8144 20.4299 83.75 22.25ZM68.6406 15.0469C66.9082 17.1666 65.6268 19.6177 64.875 22.25H59.25C60.1855 20.4299 61.513 18.8399 63.1368 17.5944C64.7605 16.3488 66.6402 15.4788 68.6406 15.0469ZM59.25 34.75H64.875C65.6268 37.3823 66.9082 39.8334 68.6406 41.9531C66.639 41.5243 64.7579 40.6555 63.1337 39.4096C61.5095 38.1637 60.1829 36.5721 59.25 34.75ZM74.3594 41.9531C76.0918 39.8334 77.3732 37.3823 78.125 34.75H83.75C82.8171 36.5721 81.4905 38.1637 79.8663 39.4096C78.242 40.6555 76.3609 41.5243 74.3594 41.9531Z" fill="#D66161"/>
<path d="M107.594 35.5H103.554V22.4091H107.773C109.043 22.4091 110.129 22.6712 111.033 23.1953C111.936 23.7152 112.629 24.4631 113.11 25.4389C113.592 26.4105 113.832 27.5739 113.832 28.929C113.832 30.2926 113.589 31.4666 113.104 32.451C112.618 33.4311 111.911 34.1854 110.982 34.7138C110.053 35.2379 108.923 35.5 107.594 35.5ZM105.139 34.0938H107.491C108.574 34.0938 109.471 33.8849 110.183 33.4673C110.894 33.0497 111.425 32.4553 111.774 31.6839C112.124 30.9126 112.298 29.9943 112.298 28.929C112.298 27.8722 112.126 26.9624 111.781 26.1996C111.435 25.4325 110.92 24.8445 110.234 24.4354C109.548 24.022 108.693 23.8153 107.67 23.8153H105.139V34.0938ZM120.403 35.7045C119.457 35.7045 118.641 35.4957 117.955 35.0781C117.273 34.6562 116.747 34.0682 116.376 33.3139C116.01 32.5554 115.827 31.6733 115.827 30.6676C115.827 29.6619 116.01 28.7756 116.376 28.0085C116.747 27.2372 117.263 26.6364 117.923 26.206C118.588 25.7713 119.364 25.554 120.25 25.554C120.761 25.554 121.266 25.6392 121.765 25.8097C122.263 25.9801 122.717 26.2571 123.126 26.6406C123.536 27.0199 123.862 27.5227 124.104 28.1491C124.347 28.7756 124.469 29.5469 124.469 30.4631V31.1023H116.901V29.7983H122.935C122.935 29.2443 122.824 28.75 122.602 28.3153C122.385 27.8807 122.074 27.5376 121.669 27.2862C121.268 27.0348 120.795 26.9091 120.25 26.9091C119.649 26.9091 119.129 27.0582 118.69 27.3565C118.256 27.6506 117.921 28.0341 117.687 28.5071C117.452 28.9801 117.335 29.4872 117.335 30.0284V30.8977C117.335 31.6392 117.463 32.2678 117.719 32.7834C117.979 33.2947 118.339 33.6847 118.799 33.9531C119.259 34.2173 119.794 34.3494 120.403 34.3494C120.8 34.3494 121.158 34.294 121.477 34.1832C121.801 34.0682 122.08 33.8977 122.315 33.6719C122.549 33.4418 122.73 33.1562 122.858 32.8153L124.315 33.2244C124.162 33.7188 123.904 34.1534 123.542 34.5284C123.18 34.8991 122.732 35.1889 122.2 35.3977C121.667 35.6023 121.068 35.7045 120.403 35.7045ZM126.763 39.1818V25.6818H128.221V27.2415H128.4C128.511 27.071 128.664 26.8537 128.86 26.5895C129.06 26.321 129.346 26.0824 129.717 25.8736C130.092 25.6605 130.599 25.554 131.238 25.554C132.065 25.554 132.793 25.7607 133.424 26.174C134.055 26.5874 134.547 27.1733 134.901 27.9318C135.254 28.6903 135.431 29.5852 135.431 30.6165C135.431 31.6562 135.254 32.5575 134.901 33.3203C134.547 34.0788 134.057 34.6669 133.43 35.0845C132.804 35.4979 132.082 35.7045 131.263 35.7045C130.633 35.7045 130.128 35.6001 129.749 35.3913C129.369 35.1783 129.077 34.9375 128.873 34.669C128.668 34.3963 128.511 34.1705 128.4 33.9915H128.272V39.1818H126.763ZM128.246 30.5909C128.246 31.3324 128.355 31.9865 128.572 32.5533C128.79 33.1158 129.107 33.5568 129.525 33.8764C129.942 34.1918 130.454 34.3494 131.059 34.3494C131.69 34.3494 132.216 34.1832 132.638 33.8509C133.064 33.5142 133.384 33.0625 133.597 32.4957C133.814 31.9247 133.923 31.2898 133.923 30.5909C133.923 29.9006 133.816 29.2784 133.603 28.7244C133.394 28.1662 133.077 27.7251 132.651 27.4013C132.229 27.0732 131.698 26.9091 131.059 26.9091C130.445 26.9091 129.93 27.0646 129.512 27.3757C129.094 27.6825 128.779 28.1129 128.566 28.6669C128.353 29.2166 128.246 29.858 128.246 30.5909ZM139.241 22.4091V35.5H137.732V22.4091H139.241ZM145.992 35.7045C145.106 35.7045 144.328 35.4936 143.659 35.0717C142.994 34.6499 142.475 34.0597 142.1 33.3011C141.729 32.5426 141.544 31.6562 141.544 30.642C141.544 29.6193 141.729 28.7266 142.1 27.9638C142.475 27.201 142.994 26.6087 143.659 26.1868C144.328 25.7649 145.106 25.554 145.992 25.554C146.879 25.554 147.654 25.7649 148.319 26.1868C148.988 26.6087 149.508 27.201 149.879 27.9638C150.254 28.7266 150.441 29.6193 150.441 30.642C150.441 31.6562 150.254 32.5426 149.879 33.3011C149.508 34.0597 148.988 34.6499 148.319 35.0717C147.654 35.4936 146.879 35.7045 145.992 35.7045ZM145.992 34.3494C146.666 34.3494 147.22 34.1768 147.654 33.8317C148.089 33.4865 148.411 33.0327 148.619 32.4702C148.828 31.9077 148.933 31.2983 148.933 30.642C148.933 29.9858 148.828 29.3743 148.619 28.8075C148.411 28.2408 148.089 27.7827 147.654 27.4332C147.22 27.0838 146.666 26.9091 145.992 26.9091C145.319 26.9091 144.765 27.0838 144.33 27.4332C143.896 27.7827 143.574 28.2408 143.365 28.8075C143.156 29.3743 143.052 29.9858 143.052 30.642C143.052 31.2983 143.156 31.9077 143.365 32.4702C143.574 33.0327 143.896 33.4865 144.33 33.8317C144.765 34.1768 145.319 34.3494 145.992 34.3494ZM153.364 39.1818C153.108 39.1818 152.88 39.1605 152.68 39.1179C152.48 39.0795 152.341 39.0412 152.265 39.0028L152.648 37.6733C153.015 37.767 153.338 37.8011 153.62 37.7756C153.901 37.75 154.15 37.6243 154.368 37.3984C154.589 37.1768 154.792 36.8168 154.975 36.3182L155.256 35.5511L151.625 25.6818H153.262L155.972 33.5057H156.074L158.784 25.6818H160.421L156.253 36.9318C156.066 37.4389 155.833 37.8587 155.556 38.1911C155.279 38.5277 154.958 38.777 154.591 38.9389C154.229 39.1009 153.82 39.1818 153.364 39.1818Z" fill="#D66161"/>
<rect x="0.5" y="0.5" width="212" height="56" rx="7.5" stroke="#D66161"/>
<path d="M177.783 68.7833C177.981 68.6897 178.196 68.6361 178.415 68.6256C178.633 68.6152 178.852 68.6481 179.058 68.7224C179.264 68.7968 179.453 68.9111 179.615 69.0588C179.777 69.2066 179.907 69.3848 180 69.5833L183.833 77.9L186.833 76.4833L182.983 68.1833C182.583 67.35 182.95 66.35 183.783 65.9667L184.25 65.8333L188.083 65.0833L174.333 53.5333V71.5L177.367 69.05L177.783 68.7833ZM183.733 81.6167C183.537 81.7125 183.323 81.7682 183.104 81.7806C182.886 81.793 182.667 81.7619 182.461 81.689C182.255 81.6161 182.065 81.5029 181.903 81.356C181.741 81.2091 181.609 81.0315 181.517 80.8333L177.883 72.9333L173.7 76.3C173.417 76.5333 173.067 76.6667 172.667 76.6667C172.225 76.6667 171.801 76.4911 171.488 76.1785C171.176 75.866 171 75.442 171 75V50C171 49.558 171.176 49.1341 171.488 48.8215C171.801 48.5089 172.225 48.3333 172.667 48.3333C173.067 48.3333 173.45 48.4833 173.733 48.7167L173.75 48.7L192.9 64.7667C193.142 64.9678 193.321 65.233 193.419 65.5318C193.516 65.8306 193.527 66.1508 193.451 66.4556C193.374 66.7604 193.213 67.0374 192.986 67.2546C192.758 67.4718 192.475 67.6204 192.167 67.6833L186.9 68.7167L190.567 76.6C191 77.4333 190.6 78.4167 189.767 78.8L183.733 81.6167Z" fill="black"/>
</svg>
