<svg width="1266" height="414" viewBox="0 0 1266 414" fill="none" xmlns="http://www.w3.org/2000/svg">
<rect width="1124" height="128" rx="10" fill="#272727"/>
<rect width="1124" height="128" rx="10" fill="#272727"/>
<rect width="1266" height="128" rx="10" fill="#272727"/>
<path d="M87.6667 62.4666V63.9999C87.6646 67.594 86.5008 71.0911 84.3489 73.9696C82.1969 76.8482 79.1721 78.9541 75.7256 79.9731C72.279 80.9921 68.5954 80.8698 65.2241 79.6242C61.8528 78.3787 58.9744 76.0768 57.0183 73.0617C55.0621 70.0467 54.133 66.48 54.3695 62.8938C54.6059 59.3075 55.9953 55.8938 58.3305 53.1617C60.6656 50.4296 63.8213 48.5256 67.327 47.7335C70.8327 46.9415 74.5004 47.3038 77.7833 48.7666" stroke="#4EB898" stroke-width="2" stroke-linecap="round" stroke-linejoin="round"/>
<path d="M87.6667 50.6667L71 67.3501L66 62.3501" stroke="#4EB898" stroke-width="2" stroke-linecap="round" stroke-linejoin="round"/>
<path d="M124.36 78V51.84H133.08C134.893 51.84 136.52 52.08 137.96 52.56C139.427 53.04 140.587 53.8533 141.44 55C142.293 56.12 142.72 57.6533 142.72 59.6C142.72 61.4667 142.293 63 141.44 64.2C140.587 65.4 139.427 66.2933 137.96 66.88C136.52 67.4667 134.893 67.76 133.08 67.76H129V78H124.36ZM129 64.08H132.6C134.413 64.08 135.787 63.7067 136.72 62.96C137.68 62.2133 138.16 61.0933 138.16 59.6C138.16 58.1067 137.68 57.0667 136.72 56.48C135.787 55.8667 134.413 55.56 132.6 55.56H129V64.08ZM132.24 66.52L135.6 63.76L143.76 78H138.52L132.24 66.52ZM157.024 78.48C155.584 78.48 154.291 78.2667 153.144 77.84C152.024 77.4133 151.064 76.7733 150.264 75.92C149.491 75.0667 148.891 73.9867 148.464 72.68C148.064 71.3467 147.864 69.7867 147.864 68V51.84H152.504V68.36C152.504 69.7733 152.678 70.9333 153.024 71.84C153.398 72.72 153.931 73.3733 154.624 73.8C155.318 74.2267 156.118 74.44 157.024 74.44C157.984 74.44 158.798 74.2267 159.464 73.8C160.158 73.3733 160.691 72.72 161.064 71.84C161.464 70.9333 161.664 69.7733 161.664 68.36V51.84H166.104V68C166.104 69.7867 165.904 71.3467 165.504 72.68C165.104 73.9867 164.504 75.0667 163.704 75.92C162.931 76.7733 161.984 77.4133 160.864 77.84C159.744 78.2667 158.464 78.48 157.024 78.48ZM171.929 78V51.84H176.809L183.729 66.52L186.089 72.12H186.209C186.129 70.7867 185.995 69.3333 185.809 67.76C185.649 66.1867 185.569 64.6667 185.569 63.2V51.84H190.009V78H185.129L178.209 63.28L175.849 57.72H175.729C175.809 59.1067 175.929 60.5733 176.089 62.12C176.275 63.64 176.369 65.12 176.369 66.56V78H171.929ZM220.218 78V58.36H224.018L224.378 61.32H224.538C225.471 60.36 226.498 59.5467 227.618 58.88C228.764 58.2133 230.098 57.88 231.618 57.88C233.884 57.88 235.551 58.5733 236.618 59.96C237.684 61.3467 238.218 63.3067 238.218 65.84V78H233.578V66.44C233.578 64.8667 233.298 63.7067 232.738 62.96C232.178 62.2133 231.231 61.84 229.898 61.84C228.938 61.84 228.084 62.0667 227.338 62.52C226.591 62.9733 225.764 63.6667 224.858 64.6V78H220.218ZM244.202 85.76V58.36H248.002L248.362 60.6H248.482C249.335 59.8 250.309 59.1467 251.402 58.64C252.522 58.1333 253.642 57.88 254.762 57.88C256.495 57.88 257.949 58.2933 259.122 59.12C260.295 59.9467 261.202 61.1067 261.842 62.6C262.482 64.0933 262.802 65.8533 262.802 67.88C262.802 70.12 262.389 72.0267 261.562 73.6C260.735 75.1733 259.655 76.3867 258.322 77.24C257.015 78.0667 255.602 78.48 254.082 78.48C253.202 78.48 252.282 78.28 251.322 77.88C250.389 77.48 249.522 76.9067 248.722 76.16H248.602L248.842 79.6V85.76H244.202ZM253.122 74.68C254.055 74.68 254.895 74.4267 255.642 73.92C256.389 73.4133 256.975 72.6667 257.402 71.68C257.829 70.6667 258.042 69.4133 258.042 67.92C258.042 66.6133 257.882 65.4933 257.562 64.56C257.242 63.6267 256.749 62.92 256.082 62.44C255.442 61.9333 254.575 61.68 253.482 61.68C252.735 61.68 251.975 61.8667 251.202 62.24C250.429 62.6133 249.642 63.2133 248.842 64.04V72.88C249.562 73.52 250.309 73.9867 251.082 74.28C251.855 74.5467 252.535 74.68 253.122 74.68ZM266.746 78V58.36H270.306L270.666 60.84H270.786C271.213 59.9867 271.76 59.28 272.426 58.72C273.093 58.16 274 57.88 275.146 57.88C276.053 57.88 276.813 58.16 277.426 58.72C278.04 59.2533 278.466 60.0667 278.706 61.16C279.16 60.2 279.733 59.4133 280.426 58.8C281.12 58.1867 282.04 57.88 283.186 57.88C284.573 57.88 285.64 58.4267 286.386 59.52C287.16 60.5867 287.546 62.1067 287.546 64.08V78H283.106V64.4C283.106 62.6667 282.586 61.8 281.546 61.8C281.013 61.8 280.56 62 280.186 62.4C279.84 62.8 279.466 63.4267 279.066 64.28V78H275.226V64.4C275.226 63.5467 275.106 62.9067 274.866 62.48C274.626 62.0267 274.226 61.8 273.666 61.8C273.16 61.8 272.72 62 272.346 62.4C271.973 62.8 271.6 63.4267 271.226 64.28V78H266.746ZM324.755 78V62H316.235V58.36H329.355V78H324.755ZM326.715 54.76C325.782 54.76 324.995 54.48 324.355 53.92C323.742 53.36 323.435 52.6133 323.435 51.68C323.435 50.7467 323.742 50 324.355 49.44C324.995 48.8533 325.782 48.56 326.715 48.56C327.675 48.56 328.462 48.8533 329.075 49.44C329.688 50 329.995 50.7467 329.995 51.68C329.995 52.6133 329.688 53.36 329.075 53.92C328.462 54.48 327.675 54.76 326.715 54.76ZM340.139 78V58.36H343.939L344.299 61.32H344.459C345.393 60.36 346.419 59.5467 347.539 58.88C348.686 58.2133 350.019 57.88 351.539 57.88C353.806 57.88 355.473 58.5733 356.539 59.96C357.606 61.3467 358.139 63.3067 358.139 65.84V78H353.499V66.44C353.499 64.8667 353.219 63.7067 352.659 62.96C352.099 62.2133 351.153 61.84 349.819 61.84C348.859 61.84 348.006 62.0667 347.259 62.52C346.513 62.9733 345.686 63.6667 344.779 64.6V78H340.139ZM372.964 78.48C371.124 78.48 369.364 78.1867 367.684 77.6C366.004 76.9867 364.55 76.2667 363.324 75.44L365.324 72.52C366.497 73.2933 367.764 73.9067 369.124 74.36C370.484 74.7867 371.964 75 373.564 75C374.924 75 375.924 74.7733 376.564 74.32C377.23 73.84 377.564 73.28 377.564 72.64C377.564 72.32 377.484 72.0267 377.324 71.76C377.19 71.4933 376.937 71.2533 376.564 71.04C376.19 70.8 375.644 70.5733 374.924 70.36C374.204 70.1467 373.27 69.92 372.124 69.68C369.51 69.12 367.59 68.36 366.364 67.4C365.137 66.44 364.524 65.2267 364.524 63.76C364.524 62.0267 365.27 60.6133 366.764 59.52C368.284 58.4267 370.417 57.88 373.164 57.88C374.79 57.88 376.31 58.1467 377.724 58.68C379.164 59.2133 380.377 59.8133 381.364 60.48L379.244 63.32C378.31 62.68 377.284 62.2 376.164 61.88C375.044 61.5333 373.91 61.36 372.764 61.36C371.884 61.36 371.177 61.4533 370.644 61.64C370.137 61.8267 369.75 62.0933 369.484 62.44C369.244 62.76 369.124 63.12 369.124 63.52C369.124 64.2133 369.524 64.7333 370.324 65.08C371.124 65.4267 372.43 65.8 374.244 66.2C376.35 66.6533 377.977 67.1733 379.124 67.76C380.27 68.32 381.057 68.9733 381.484 69.72C381.937 70.44 382.164 71.3333 382.164 72.4C382.164 73.52 381.804 74.5467 381.084 75.48C380.39 76.3867 379.364 77.12 378.004 77.68C376.644 78.2133 374.964 78.48 372.964 78.48ZM400.468 78.48C398.468 78.48 396.881 78.1333 395.708 77.44C394.535 76.72 393.695 75.7333 393.188 74.48C392.681 73.2267 392.428 71.7733 392.428 70.12V62H387.188V58.56L392.628 58.36L393.228 52.2H397.028V58.36H405.988V62H397.028V70.08C397.028 71.1467 397.175 72.04 397.468 72.76C397.761 73.4533 398.241 73.9733 398.908 74.32C399.575 74.64 400.455 74.8 401.548 74.8C402.401 74.8 403.175 74.7333 403.868 74.6C404.561 74.4667 405.228 74.28 405.868 74.04L406.748 77.36C405.868 77.6533 404.921 77.9067 403.908 78.12C402.895 78.36 401.748 78.48 400.468 78.48ZM418.213 78.48C416.933 78.48 415.799 78.24 414.813 77.76C413.826 77.2533 413.053 76.5733 412.493 75.72C411.933 74.8667 411.653 73.8667 411.653 72.72C411.653 70.5333 412.693 68.8667 414.773 67.72C416.879 66.5467 420.359 65.7867 425.213 65.44C425.159 64.72 424.959 64.0667 424.613 63.48C424.293 62.8933 423.799 62.44 423.133 62.12C422.466 61.7733 421.599 61.6 420.533 61.6C419.786 61.6 419.053 61.6933 418.333 61.88C417.613 62.0667 416.893 62.32 416.173 62.64C415.479 62.96 414.786 63.3067 414.092 63.68L412.413 60.6C413.213 60.12 414.093 59.68 415.053 59.28C416.013 58.8533 417.026 58.52 418.093 58.28C419.159 58.0133 420.253 57.88 421.373 57.88C423.213 57.88 424.746 58.2133 425.973 58.88C427.226 59.52 428.173 60.48 428.812 61.76C429.479 63.0133 429.813 64.5467 429.813 66.36V78H426.053L425.693 75.56H425.573C424.533 76.36 423.373 77.0533 422.093 77.64C420.839 78.2 419.546 78.48 418.213 78.48ZM419.613 74.88C420.599 74.88 421.546 74.6667 422.453 74.24C423.386 73.7867 424.306 73.2 425.213 72.48V68.32C422.866 68.48 421.026 68.7467 419.693 69.12C418.359 69.4667 417.426 69.92 416.893 70.48C416.359 71.04 416.093 71.6667 416.093 72.36C416.093 72.9467 416.253 73.4267 416.573 73.8C416.893 74.1733 417.306 74.4533 417.813 74.64C418.346 74.8 418.946 74.88 419.613 74.88ZM448.797 78.48C446.53 78.48 444.797 77.8133 443.597 76.48C442.424 75.12 441.837 73.24 441.837 70.84V53.4H435.437V49.76H446.437V71.08C446.437 72.4133 446.77 73.36 447.437 73.92C448.13 74.4533 448.97 74.72 449.957 74.72C450.464 74.72 450.984 74.6667 451.517 74.56C452.05 74.4267 452.65 74.2267 453.317 73.96L454.397 77.36C453.464 77.68 452.584 77.9467 451.757 78.16C450.957 78.3733 449.97 78.48 448.797 78.48ZM472.781 78.48C470.515 78.48 468.781 77.8133 467.581 76.48C466.408 75.12 465.821 73.24 465.821 70.84V53.4H459.421V49.76H470.421V71.08C470.421 72.4133 470.755 73.36 471.421 73.92C472.115 74.4533 472.955 74.72 473.941 74.72C474.448 74.72 474.968 74.6667 475.501 74.56C476.035 74.4267 476.635 74.2267 477.301 73.96L478.381 77.36C477.448 77.68 476.568 77.9467 475.741 78.16C474.941 78.3733 473.955 78.48 472.781 78.48Z" fill="white"/>
<path d="M523.99 79.78C521.91 78.14 520.26 76.19 519.04 73.93C517.84 71.65 517.24 69.06 517.24 66.16C517.24 63.26 517.84 60.67 519.04 58.39C520.26 56.11 521.91 54.16 523.99 52.54L525.34 53.8C523.34 55.48 521.86 57.33 520.9 59.35C519.94 61.37 519.46 63.64 519.46 66.16C519.46 68.68 519.94 70.95 520.9 72.97C521.86 74.97 523.34 76.82 525.34 78.52L523.99 79.78ZM538.288 74.86C536.868 74.86 535.538 74.63 534.298 74.17C533.058 73.71 531.998 73.18 531.118 72.58L532.258 70.96C533.098 71.56 534.028 72.04 535.048 72.4C536.068 72.76 537.248 72.94 538.588 72.94C539.828 72.94 540.748 72.71 541.348 72.25C541.968 71.79 542.278 71.26 542.278 70.66C542.278 70.38 542.218 70.12 542.098 69.88C541.998 69.64 541.788 69.41 541.468 69.19C541.168 68.97 540.718 68.76 540.118 68.56C539.518 68.36 538.718 68.16 537.718 67.96C535.818 67.56 534.388 67.02 533.428 66.34C532.488 65.66 532.018 64.78 532.018 63.7C532.018 62.52 532.528 61.54 533.548 60.76C534.568 59.96 536.078 59.56 538.078 59.56C539.198 59.56 540.278 59.75 541.318 60.13C542.358 60.49 543.238 60.92 543.958 61.42L542.758 63.01C542.098 62.53 541.348 62.16 540.508 61.9C539.668 61.62 538.788 61.48 537.868 61.48C537.028 61.48 536.358 61.58 535.858 61.78C535.378 61.96 535.028 62.21 534.808 62.53C534.608 62.85 534.508 63.2 534.508 63.58C534.508 64.2 534.838 64.69 535.498 65.05C536.178 65.39 537.258 65.71 538.738 66.01C540.358 66.35 541.598 66.73 542.458 67.15C543.338 67.57 543.938 68.05 544.258 68.59C544.598 69.13 544.768 69.77 544.768 70.51C544.768 71.31 544.518 72.04 544.018 72.7C543.518 73.34 542.788 73.86 541.828 74.26C540.868 74.66 539.688 74.86 538.288 74.86ZM550.157 74.5V53.14H552.617V67.6H552.737L560.597 59.92H563.417L552.617 70.54V74.5H550.157ZM561.437 74.5L555.737 66.73L557.237 65.14L564.197 74.5H561.437ZM574.445 74.5V61.93H567.665V59.92H576.905V74.5H574.445ZM575.405 56.86C574.845 56.86 574.375 56.69 573.995 56.35C573.615 55.99 573.425 55.52 573.425 54.94C573.425 54.36 573.615 53.9 573.995 53.56C574.375 53.2 574.845 53.02 575.405 53.02C575.965 53.02 576.435 53.2 576.815 53.56C577.195 53.9 577.385 54.36 577.385 54.94C577.385 55.52 577.195 55.99 576.815 56.35C576.435 56.69 575.965 56.86 575.405 56.86ZM585.743 80.65V59.92H587.783L587.993 61.78H588.083C588.763 61.14 589.543 60.61 590.423 60.19C591.323 59.77 592.223 59.56 593.123 59.56C594.443 59.56 595.543 59.87 596.423 60.49C597.323 61.09 598.003 61.95 598.463 63.07C598.923 64.17 599.153 65.48 599.153 67C599.153 68.64 598.843 70.05 598.223 71.23C597.603 72.41 596.793 73.31 595.793 73.93C594.793 74.55 593.703 74.86 592.523 74.86C591.863 74.86 591.133 74.7 590.333 74.38C589.553 74.04 588.833 73.57 588.173 72.97H588.083L588.203 75.73V80.65H585.743ZM592.103 72.79C592.963 72.79 593.733 72.56 594.413 72.1C595.093 71.64 595.623 70.98 596.003 70.12C596.403 69.24 596.603 68.2 596.603 67C596.603 65.94 596.463 65.01 596.183 64.21C595.903 63.39 595.463 62.76 594.863 62.32C594.263 61.86 593.473 61.63 592.493 61.63C591.833 61.63 591.133 61.81 590.393 62.17C589.673 62.51 588.943 63.06 588.203 63.82V71.08C588.903 71.7 589.603 72.14 590.303 72.4C591.023 72.66 591.623 72.79 592.103 72.79ZM603.731 80.65V59.92H605.771L605.981 61.78H606.071C606.751 61.14 607.531 60.61 608.411 60.19C609.311 59.77 610.211 59.56 611.111 59.56C612.431 59.56 613.531 59.87 614.411 60.49C615.311 61.09 615.991 61.95 616.451 63.07C616.911 64.17 617.141 65.48 617.141 67C617.141 68.64 616.831 70.05 616.211 71.23C615.591 72.41 614.781 73.31 613.781 73.93C612.781 74.55 611.691 74.86 610.511 74.86C609.851 74.86 609.121 74.7 608.321 74.38C607.541 74.04 606.821 73.57 606.161 72.97H606.071L606.191 75.73V80.65H603.731ZM610.091 72.79C610.951 72.79 611.721 72.56 612.401 72.1C613.081 71.64 613.611 70.98 613.991 70.12C614.391 69.24 614.591 68.2 614.591 67C614.591 65.94 614.451 65.01 614.171 64.21C613.891 63.39 613.451 62.76 612.851 62.32C612.251 61.86 611.461 61.63 610.481 61.63C609.821 61.63 609.121 61.81 608.381 62.17C607.661 62.51 606.931 63.06 606.191 63.82V71.08C606.891 71.7 607.591 72.14 608.291 72.4C609.011 72.66 609.611 72.79 610.091 72.79ZM628.83 74.86C627.37 74.86 626.04 74.56 624.84 73.96C623.66 73.36 622.72 72.49 622.02 71.35C621.32 70.19 620.97 68.8 620.97 67.18C620.97 65.6 621.32 64.24 622.02 63.1C622.72 61.96 623.63 61.09 624.75 60.49C625.89 59.87 627.11 59.56 628.41 59.56C629.81 59.56 631 59.85 631.98 60.43C632.98 60.99 633.74 61.78 634.26 62.8C634.8 63.82 635.07 65.02 635.07 66.4C635.07 66.68 635.06 66.95 635.04 67.21C635.02 67.47 634.99 67.7 634.95 67.9H622.62V65.98H633.48L632.85 66.67C632.85 64.95 632.45 63.66 631.65 62.8C630.87 61.94 629.81 61.51 628.47 61.51C627.57 61.51 626.73 61.73 625.95 62.17C625.19 62.61 624.58 63.25 624.12 64.09C623.66 64.93 623.43 65.96 623.43 67.18C623.43 68.44 623.68 69.49 624.18 70.33C624.68 71.17 625.36 71.81 626.22 72.25C627.08 72.67 628.05 72.88 629.13 72.88C630.01 72.88 630.8 72.76 631.5 72.52C632.22 72.26 632.91 71.92 633.57 71.5L634.47 73.12C633.75 73.6 632.92 74.01 631.98 74.35C631.06 74.69 630.01 74.86 628.83 74.86ZM645.048 74.86C643.148 74.86 641.618 74.2 640.458 72.88C639.298 71.54 638.718 69.66 638.718 67.24C638.718 65.66 639.028 64.3 639.648 63.16C640.288 62 641.108 61.11 642.108 60.49C643.128 59.87 644.208 59.56 645.348 59.56C646.208 59.56 646.988 59.73 647.688 60.07C648.408 60.39 649.078 60.85 649.698 61.45H649.788L649.668 58.75V53.14H652.128V74.5H650.088L649.878 72.58H649.788C649.208 73.2 648.498 73.74 647.658 74.2C646.838 74.64 645.968 74.86 645.048 74.86ZM645.558 72.79C646.278 72.79 646.978 72.61 647.658 72.25C648.338 71.87 649.008 71.32 649.668 70.6V63.34C649.008 62.72 648.358 62.28 647.718 62.02C647.098 61.76 646.468 61.63 645.828 61.63C644.988 61.63 644.218 61.87 643.518 62.35C642.838 62.81 642.288 63.46 641.868 64.3C641.468 65.12 641.268 66.09 641.268 67.21C641.268 68.95 641.648 70.32 642.408 71.32C643.168 72.3 644.218 72.79 645.558 72.79ZM661.506 80.89L660.816 79.33C662.096 78.77 663.046 78.06 663.666 77.2C664.286 76.36 664.596 75.32 664.596 74.08L664.026 71.32L665.706 73.69C665.466 73.97 665.196 74.16 664.896 74.26C664.616 74.34 664.326 74.38 664.026 74.38C663.606 74.38 663.216 74.3 662.856 74.14C662.496 73.96 662.206 73.71 661.986 73.39C661.786 73.05 661.686 72.63 661.686 72.13C661.686 71.39 661.926 70.83 662.406 70.45C662.886 70.05 663.446 69.85 664.086 69.85C664.966 69.85 665.636 70.2 666.096 70.9C666.556 71.58 666.786 72.51 666.786 73.69C666.786 75.45 666.316 76.93 665.376 78.13C664.436 79.35 663.146 80.27 661.506 80.89ZM699.883 74.86C698.463 74.86 697.243 74.47 696.223 73.69C695.203 72.89 694.413 71.75 693.853 70.27C693.293 68.79 693.013 66.99 693.013 64.87C693.013 61.65 693.623 59.2 694.843 57.52C696.083 55.84 697.763 55 699.883 55C702.023 55 703.703 55.84 704.923 57.52C706.143 59.2 706.753 61.65 706.753 64.87C706.753 66.99 706.473 68.79 705.913 70.27C705.373 71.75 704.583 72.89 703.543 73.69C702.523 74.47 701.303 74.86 699.883 74.86ZM699.883 72.88C700.783 72.88 701.573 72.6 702.253 72.04C702.933 71.46 703.463 70.58 703.843 69.4C704.243 68.2 704.443 66.69 704.443 64.87C704.443 63.03 704.243 61.53 703.843 60.37C703.463 59.21 702.933 58.36 702.253 57.82C701.573 57.26 700.783 56.98 699.883 56.98C699.003 56.98 698.213 57.26 697.513 57.82C696.833 58.36 696.293 59.21 695.893 60.37C695.513 61.53 695.323 63.03 695.323 64.87C695.323 66.69 695.513 68.2 695.893 69.4C696.293 70.58 696.833 71.46 697.513 72.04C698.213 72.6 699.003 72.88 699.883 72.88ZM699.883 66.67C699.383 66.67 698.943 66.49 698.563 66.13C698.203 65.77 698.023 65.28 698.023 64.66C698.023 64.04 698.203 63.56 698.563 63.22C698.943 62.86 699.383 62.68 699.883 62.68C700.403 62.68 700.843 62.86 701.203 63.22C701.563 63.56 701.743 64.04 701.743 64.66C701.743 65.28 701.563 65.77 701.203 66.13C700.843 66.49 700.403 66.67 699.883 66.67ZM736.159 74.86C734.739 74.86 733.409 74.63 732.169 74.17C730.929 73.71 729.869 73.18 728.989 72.58L730.129 70.96C730.969 71.56 731.899 72.04 732.919 72.4C733.939 72.76 735.119 72.94 736.459 72.94C737.699 72.94 738.619 72.71 739.219 72.25C739.839 71.79 740.149 71.26 740.149 70.66C740.149 70.38 740.089 70.12 739.969 69.88C739.869 69.64 739.659 69.41 739.339 69.19C739.039 68.97 738.589 68.76 737.989 68.56C737.389 68.36 736.589 68.16 735.589 67.96C733.689 67.56 732.259 67.02 731.299 66.34C730.359 65.66 729.889 64.78 729.889 63.7C729.889 62.52 730.399 61.54 731.419 60.76C732.439 59.96 733.949 59.56 735.949 59.56C737.069 59.56 738.149 59.75 739.189 60.13C740.229 60.49 741.109 60.92 741.829 61.42L740.629 63.01C739.969 62.53 739.219 62.16 738.379 61.9C737.539 61.62 736.659 61.48 735.739 61.48C734.899 61.48 734.229 61.58 733.729 61.78C733.249 61.96 732.899 62.21 732.679 62.53C732.479 62.85 732.379 63.2 732.379 63.58C732.379 64.2 732.709 64.69 733.369 65.05C734.049 65.39 735.129 65.71 736.609 66.01C738.229 66.35 739.469 66.73 740.329 67.15C741.209 67.57 741.809 68.05 742.129 68.59C742.469 69.13 742.639 69.77 742.639 70.51C742.639 71.31 742.389 72.04 741.889 72.7C741.389 73.34 740.659 73.86 739.699 74.26C738.739 74.66 737.559 74.86 736.159 74.86ZM754.748 74.86C753.288 74.86 751.958 74.56 750.758 73.96C749.578 73.36 748.638 72.49 747.938 71.35C747.238 70.19 746.888 68.8 746.888 67.18C746.888 65.6 747.238 64.24 747.938 63.1C748.638 61.96 749.548 61.09 750.668 60.49C751.808 59.87 753.028 59.56 754.328 59.56C755.728 59.56 756.918 59.85 757.898 60.43C758.898 60.99 759.658 61.78 760.178 62.8C760.718 63.82 760.988 65.02 760.988 66.4C760.988 66.68 760.978 66.95 760.958 67.21C760.938 67.47 760.908 67.7 760.868 67.9H748.538V65.98H759.398L758.768 66.67C758.768 64.95 758.368 63.66 757.568 62.8C756.788 61.94 755.728 61.51 754.388 61.51C753.488 61.51 752.648 61.73 751.868 62.17C751.108 62.61 750.498 63.25 750.038 64.09C749.578 64.93 749.348 65.96 749.348 67.18C749.348 68.44 749.598 69.49 750.098 70.33C750.598 71.17 751.278 71.81 752.138 72.25C752.998 72.67 753.968 72.88 755.048 72.88C755.928 72.88 756.718 72.76 757.418 72.52C758.138 72.26 758.828 71.92 759.488 71.5L760.388 73.12C759.668 73.6 758.838 74.01 757.898 74.35C756.978 74.69 755.928 74.86 754.748 74.86ZM773.216 74.86C771.696 74.86 770.326 74.56 769.106 73.96C767.906 73.36 766.956 72.49 766.256 71.35C765.576 70.21 765.236 68.84 765.236 67.24C765.236 65.6 765.606 64.21 766.346 63.07C767.086 61.93 768.066 61.06 769.286 60.46C770.526 59.86 771.886 59.56 773.366 59.56C774.566 59.56 775.596 59.77 776.456 60.19C777.336 60.61 778.076 61.11 778.676 61.69L777.446 63.28C776.846 62.76 776.226 62.35 775.586 62.05C774.946 61.75 774.236 61.6 773.456 61.6C772.336 61.6 771.346 61.84 770.486 62.32C769.626 62.78 768.956 63.44 768.476 64.3C768.016 65.14 767.786 66.12 767.786 67.24C767.786 68.34 768.016 69.31 768.476 70.15C768.936 70.99 769.586 71.65 770.426 72.13C771.286 72.59 772.276 72.82 773.396 72.82C774.296 72.82 775.116 72.64 775.856 72.28C776.616 71.92 777.296 71.49 777.896 70.99L779.006 72.58C778.206 73.3 777.306 73.86 776.306 74.26C775.326 74.66 774.296 74.86 773.216 74.86ZM789.824 74.86C788.544 74.86 787.354 74.56 786.254 73.96C785.174 73.36 784.294 72.49 783.614 71.35C782.954 70.21 782.624 68.84 782.624 67.24C782.624 65.6 782.954 64.21 783.614 63.07C784.294 61.93 785.174 61.06 786.254 60.46C787.354 59.86 788.544 59.56 789.824 59.56C791.104 59.56 792.284 59.86 793.364 60.46C794.464 61.06 795.344 61.93 796.004 63.07C796.684 64.21 797.024 65.6 797.024 67.24C797.024 68.84 796.684 70.21 796.004 71.35C795.344 72.49 794.464 73.36 793.364 73.96C792.284 74.56 791.104 74.86 789.824 74.86ZM789.824 72.82C790.764 72.82 791.584 72.59 792.284 72.13C792.984 71.65 793.524 70.99 793.904 70.15C794.284 69.31 794.474 68.34 794.474 67.24C794.474 66.12 794.284 65.14 793.904 64.3C793.524 63.44 792.984 62.78 792.284 62.32C791.584 61.84 790.764 61.6 789.824 61.6C788.884 61.6 788.064 61.84 787.364 62.32C786.684 62.78 786.144 63.44 785.744 64.3C785.364 65.14 785.174 66.12 785.174 67.24C785.174 68.34 785.364 69.31 785.744 70.15C786.144 70.99 786.684 71.65 787.364 72.13C788.064 72.59 788.884 72.82 789.824 72.82ZM801.603 74.5V59.92H803.643L803.853 62.41H803.973C804.733 61.59 805.553 60.91 806.433 60.37C807.313 59.83 808.323 59.56 809.463 59.56C811.183 59.56 812.453 60.06 813.273 61.06C814.093 62.06 814.503 63.52 814.503 65.44V74.5H812.043V65.77C812.043 64.39 811.783 63.37 811.263 62.71C810.743 62.03 809.883 61.69 808.683 61.69C807.823 61.69 807.053 61.91 806.373 62.35C805.693 62.79 804.923 63.45 804.063 64.33V74.5H801.603ZM824.931 74.86C823.031 74.86 821.501 74.2 820.341 72.88C819.181 71.54 818.601 69.66 818.601 67.24C818.601 65.66 818.911 64.3 819.531 63.16C820.171 62 820.991 61.11 821.991 60.49C823.011 59.87 824.091 59.56 825.231 59.56C826.091 59.56 826.871 59.73 827.571 60.07C828.291 60.39 828.961 60.85 829.581 61.45H829.671L829.551 58.75V53.14H832.011V74.5H829.971L829.761 72.58H829.671C829.091 73.2 828.381 73.74 827.541 74.2C826.721 74.64 825.851 74.86 824.931 74.86ZM825.441 72.79C826.161 72.79 826.861 72.61 827.541 72.25C828.221 71.87 828.891 71.32 829.551 70.6V63.34C828.891 62.72 828.241 62.28 827.601 62.02C826.981 61.76 826.351 61.63 825.711 61.63C824.871 61.63 824.101 61.87 823.401 62.35C822.721 62.81 822.171 63.46 821.751 64.3C821.351 65.12 821.151 66.09 821.151 67.21C821.151 68.95 821.531 70.32 822.291 71.32C823.051 72.3 824.101 72.79 825.441 72.79ZM844.089 74.86C842.669 74.86 841.339 74.63 840.099 74.17C838.859 73.71 837.799 73.18 836.919 72.58L838.059 70.96C838.899 71.56 839.829 72.04 840.849 72.4C841.869 72.76 843.049 72.94 844.389 72.94C845.629 72.94 846.549 72.71 847.149 72.25C847.769 71.79 848.079 71.26 848.079 70.66C848.079 70.38 848.019 70.12 847.899 69.88C847.799 69.64 847.589 69.41 847.269 69.19C846.969 68.97 846.519 68.76 845.919 68.56C845.319 68.36 844.519 68.16 843.519 67.96C841.619 67.56 840.189 67.02 839.229 66.34C838.289 65.66 837.819 64.78 837.819 63.7C837.819 62.52 838.329 61.54 839.349 60.76C840.369 59.96 841.879 59.56 843.879 59.56C844.999 59.56 846.079 59.75 847.119 60.13C848.159 60.49 849.039 60.92 849.759 61.42L848.559 63.01C847.899 62.53 847.149 62.16 846.309 61.9C845.469 61.62 844.589 61.48 843.669 61.48C842.829 61.48 842.159 61.58 841.659 61.78C841.179 61.96 840.829 62.21 840.609 62.53C840.409 62.85 840.309 63.2 840.309 63.58C840.309 64.2 840.639 64.69 841.299 65.05C841.979 65.39 843.059 65.71 844.539 66.01C846.159 66.35 847.399 66.73 848.259 67.15C849.139 67.57 849.739 68.05 850.059 68.59C850.399 69.13 850.569 69.77 850.569 70.51C850.569 71.31 850.319 72.04 849.819 72.7C849.319 73.34 848.589 73.86 847.629 74.26C846.669 74.66 845.489 74.86 844.089 74.86ZM857.787 79.78L856.437 78.52C858.437 76.82 859.917 74.97 860.877 72.97C861.837 70.95 862.317 68.68 862.317 66.16C862.317 63.64 861.837 61.37 860.877 59.35C859.917 57.33 858.437 55.48 856.437 53.8L857.787 52.54C859.887 54.16 861.537 56.11 862.737 58.39C863.937 60.67 864.537 63.26 864.537 66.16C864.537 69.06 863.937 71.65 862.737 73.93C861.537 76.19 859.887 78.14 857.787 79.78Z" fill="white"/>
<rect x="977.5" y="40.5" width="258" height="47" rx="23.5" fill="#272727"/>
<path d="M1073.75 75.25H1056.25C1055.59 75.25 1054.95 74.9866 1054.48 74.5178C1054.01 74.0489 1053.75 73.413 1053.75 72.75V55.25C1053.75 54.587 1054.01 53.9511 1054.48 53.4822C1054.95 53.0134 1055.59 52.75 1056.25 52.75H1070L1076.25 59V72.75C1076.25 73.413 1075.99 74.0489 1075.52 74.5178C1075.05 74.9866 1074.41 75.25 1073.75 75.25Z" stroke="#88EACB" stroke-width="2" stroke-linecap="round" stroke-linejoin="round"/>
<path d="M1071.25 75.25V65.25H1058.75V75.25" stroke="#88EACB" stroke-width="2" stroke-linecap="round" stroke-linejoin="round"/>
<path d="M1058.75 52.75V59H1068.75" stroke="#88EACB" stroke-width="2" stroke-linecap="round" stroke-linejoin="round"/>
<path d="M1097.88 71.24C1096.85 71.24 1095.93 71.04 1095.1 70.64C1094.29 70.2267 1093.64 69.64 1093.16 68.88C1092.69 68.1067 1092.46 67.18 1092.46 66.1C1092.46 65.0067 1092.71 64.08 1093.22 63.32C1093.74 62.5467 1094.43 61.96 1095.28 61.56C1096.13 61.1467 1097.05 60.94 1098.04 60.94C1098.84 60.94 1099.55 61.0733 1100.16 61.34C1100.77 61.5933 1101.28 61.92 1101.68 62.32L1100.58 63.76C1100.19 63.4533 1099.8 63.22 1099.4 63.06C1099.01 62.9 1098.6 62.82 1098.16 62.82C1097.51 62.82 1096.93 62.96 1096.42 63.24C1095.93 63.5067 1095.54 63.8867 1095.26 64.38C1094.98 64.8733 1094.84 65.4467 1094.84 66.1C1094.84 66.7533 1094.97 67.3267 1095.24 67.82C1095.52 68.3133 1095.9 68.6933 1096.38 68.96C1096.87 69.2267 1097.45 69.36 1098.1 69.36C1098.66 69.36 1099.17 69.2533 1099.64 69.04C1100.11 68.8267 1100.53 68.5733 1100.9 68.28L1101.86 69.76C1101.3 70.24 1100.67 70.6067 1099.98 70.86C1099.29 71.1133 1098.59 71.24 1097.88 71.24ZM1107.69 71.24C1107.05 71.24 1106.49 71.12 1105.99 70.88C1105.5 70.6267 1105.11 70.2867 1104.83 69.86C1104.55 69.4333 1104.41 68.9333 1104.41 68.36C1104.41 67.2667 1104.93 66.4333 1105.97 65.86C1107.03 65.2733 1108.77 64.8933 1111.19 64.72C1111.17 64.36 1111.07 64.0333 1110.89 63.74C1110.73 63.4467 1110.49 63.22 1110.15 63.06C1109.82 62.8867 1109.39 62.8 1108.85 62.8C1108.48 62.8 1108.11 62.8467 1107.75 62.94C1107.39 63.0333 1107.03 63.16 1106.67 63.32C1106.33 63.48 1105.98 63.6533 1105.63 63.84L1104.79 62.3C1105.19 62.06 1105.63 61.84 1106.11 61.64C1106.59 61.4267 1107.1 61.26 1107.63 61.14C1108.17 61.0067 1108.71 60.94 1109.27 60.94C1110.19 60.94 1110.96 61.1067 1111.57 61.44C1112.2 61.76 1112.67 62.24 1112.99 62.88C1113.33 63.5067 1113.49 64.2733 1113.49 65.18V71H1111.61L1111.43 69.78H1111.37C1110.85 70.18 1110.27 70.5267 1109.63 70.82C1109.01 71.1 1108.36 71.24 1107.69 71.24ZM1108.39 69.44C1108.89 69.44 1109.36 69.3333 1109.81 69.12C1110.28 68.8933 1110.74 68.6 1111.19 68.24V66.16C1110.02 66.24 1109.1 66.3733 1108.43 66.56C1107.77 66.7333 1107.3 66.96 1107.03 67.24C1106.77 67.52 1106.63 67.8333 1106.63 68.18C1106.63 68.4733 1106.71 68.7133 1106.87 68.9C1107.03 69.0867 1107.24 69.2267 1107.49 69.32C1107.76 69.4 1108.06 69.44 1108.39 69.44ZM1121.86 71.24C1120.84 71.24 1119.91 71.04 1119.08 70.64C1118.27 70.2267 1117.62 69.64 1117.14 68.88C1116.68 68.1067 1116.44 67.18 1116.44 66.1C1116.44 65.0067 1116.7 64.08 1117.2 63.32C1117.72 62.5467 1118.41 61.96 1119.26 61.56C1120.12 61.1467 1121.04 60.94 1122.02 60.94C1122.82 60.94 1123.53 61.0733 1124.14 61.34C1124.76 61.5933 1125.26 61.92 1125.66 62.32L1124.56 63.76C1124.18 63.4533 1123.78 63.22 1123.38 63.06C1123 62.9 1122.58 62.82 1122.14 62.82C1121.49 62.82 1120.91 62.96 1120.4 63.24C1119.91 63.5067 1119.52 63.8867 1119.24 64.38C1118.96 64.8733 1118.82 65.4467 1118.82 66.1C1118.82 66.7533 1118.96 67.3267 1119.22 67.82C1119.5 68.3133 1119.88 68.6933 1120.36 68.96C1120.86 69.2267 1121.43 69.36 1122.08 69.36C1122.64 69.36 1123.16 69.2533 1123.62 69.04C1124.09 68.8267 1124.51 68.5733 1124.88 68.28L1125.84 69.76C1125.28 70.24 1124.66 70.6067 1123.96 70.86C1123.27 71.1133 1122.57 71.24 1121.86 71.24ZM1128.62 71V56.88H1130.94V60.52L1130.8 62.62H1130.86C1131.28 62.1667 1131.78 61.7733 1132.34 61.44C1132.91 61.1067 1133.57 60.94 1134.32 60.94C1135.45 60.94 1136.28 61.2867 1136.82 61.98C1137.35 62.6733 1137.62 63.6533 1137.62 64.92V71H1135.3V65.22C1135.3 64.4333 1135.16 63.8533 1134.88 63.48C1134.6 63.1067 1134.12 62.92 1133.46 62.92C1132.98 62.92 1132.55 63.0333 1132.18 63.26C1131.8 63.4867 1131.39 63.8333 1130.94 64.3V71H1128.62ZM1145.57 71.24C1144.57 71.24 1143.66 71.04 1142.85 70.64C1142.04 70.2267 1141.39 69.64 1140.91 68.88C1140.43 68.1067 1140.19 67.1733 1140.19 66.08C1140.19 65.0133 1140.43 64.1 1140.91 63.34C1141.39 62.5667 1142.02 61.9733 1142.79 61.56C1143.56 61.1467 1144.39 60.94 1145.27 60.94C1146.24 60.94 1147.06 61.14 1147.73 61.54C1148.41 61.94 1148.92 62.4933 1149.27 63.2C1149.63 63.8933 1149.81 64.6933 1149.81 65.6C1149.81 65.8267 1149.8 66.0467 1149.77 66.26C1149.76 66.46 1149.74 66.6267 1149.71 66.76H1141.85V65.12H1148.23L1147.79 65.64C1147.79 64.6667 1147.57 63.94 1147.13 63.46C1146.7 62.9667 1146.1 62.72 1145.33 62.72C1144.78 62.72 1144.29 62.8467 1143.85 63.1C1143.42 63.3533 1143.08 63.7333 1142.83 64.24C1142.58 64.7333 1142.45 65.3467 1142.45 66.08C1142.45 66.84 1142.59 67.4667 1142.87 67.96C1143.16 68.4533 1143.56 68.8267 1144.07 69.08C1144.59 69.3333 1145.19 69.46 1145.87 69.46C1146.39 69.46 1146.87 69.3867 1147.31 69.24C1147.75 69.0933 1148.19 68.8933 1148.63 68.64L1149.41 70.08C1148.89 70.4133 1148.3 70.6933 1147.65 70.92C1147 71.1333 1146.3 71.24 1145.57 71.24ZM1156.22 71.24C1154.97 71.24 1153.95 70.7867 1153.18 69.88C1152.41 68.9733 1152.02 67.7133 1152.02 66.1C1152.02 65.0333 1152.23 64.1133 1152.64 63.34C1153.05 62.5667 1153.59 61.9733 1154.26 61.56C1154.93 61.1467 1155.63 60.94 1156.36 60.94C1156.92 60.94 1157.41 61.04 1157.84 61.24C1158.28 61.44 1158.69 61.7267 1159.06 62.1H1159.12L1159 60.44V56.88H1161.32V71H1159.42L1159.24 69.86H1159.18C1158.81 70.2333 1158.36 70.56 1157.84 70.84C1157.32 71.1067 1156.78 71.24 1156.22 71.24ZM1156.78 69.34C1157.18 69.34 1157.57 69.2467 1157.94 69.06C1158.31 68.86 1158.67 68.56 1159 68.16V63.74C1158.65 63.4067 1158.31 63.1733 1157.96 63.04C1157.61 62.9067 1157.26 62.84 1156.9 62.84C1156.45 62.84 1156.03 62.9667 1155.64 63.22C1155.27 63.4733 1154.97 63.84 1154.74 64.32C1154.51 64.8 1154.4 65.3867 1154.4 66.08C1154.4 67.1333 1154.61 67.94 1155.02 68.5C1155.45 69.06 1156.03 69.34 1156.78 69.34Z" fill="#88EACB"/>
<rect x="977.5" y="40.5" width="258" height="47" rx="23.5" stroke="#4EB898" stroke-width="3"/>
<rect y="143" width="1266" height="128" rx="10" fill="#272727"/>
<path d="M87.6667 205.467V207C87.6646 210.594 86.5008 214.091 84.3489 216.97C82.1969 219.848 79.1721 221.954 75.7256 222.973C72.279 223.992 68.5954 223.87 65.2241 222.624C61.8528 221.379 58.9744 219.077 57.0183 216.062C55.0621 213.047 54.133 209.48 54.3695 205.894C54.6059 202.308 55.9953 198.894 58.3305 196.162C60.6656 193.43 63.8213 191.526 67.327 190.734C70.8327 189.941 74.5004 190.304 77.7833 191.767" stroke="#4EB898" stroke-width="2" stroke-linecap="round" stroke-linejoin="round"/>
<path d="M87.6667 193.667L71 210.35L66 205.35" stroke="#4EB898" stroke-width="2" stroke-linecap="round" stroke-linejoin="round"/>
<path d="M124.36 221V194.84H133.08C134.893 194.84 136.52 195.08 137.96 195.56C139.427 196.04 140.587 196.853 141.44 198C142.293 199.12 142.72 200.653 142.72 202.6C142.72 204.467 142.293 206 141.44 207.2C140.587 208.4 139.427 209.293 137.96 209.88C136.52 210.467 134.893 210.76 133.08 210.76H129V221H124.36ZM129 207.08H132.6C134.413 207.08 135.787 206.707 136.72 205.96C137.68 205.213 138.16 204.093 138.16 202.6C138.16 201.107 137.68 200.067 136.72 199.48C135.787 198.867 134.413 198.56 132.6 198.56H129V207.08ZM132.24 209.52L135.6 206.76L143.76 221H138.52L132.24 209.52ZM157.024 221.48C155.584 221.48 154.291 221.267 153.144 220.84C152.024 220.413 151.064 219.773 150.264 218.92C149.491 218.067 148.891 216.987 148.464 215.68C148.064 214.347 147.864 212.787 147.864 211V194.84H152.504V211.36C152.504 212.773 152.678 213.933 153.024 214.84C153.398 215.72 153.931 216.373 154.624 216.8C155.318 217.227 156.118 217.44 157.024 217.44C157.984 217.44 158.798 217.227 159.464 216.8C160.158 216.373 160.691 215.72 161.064 214.84C161.464 213.933 161.664 212.773 161.664 211.36V194.84H166.104V211C166.104 212.787 165.904 214.347 165.504 215.68C165.104 216.987 164.504 218.067 163.704 218.92C162.931 219.773 161.984 220.413 160.864 220.84C159.744 221.267 158.464 221.48 157.024 221.48ZM171.929 221V194.84H176.809L183.729 209.52L186.089 215.12H186.209C186.129 213.787 185.995 212.333 185.809 210.76C185.649 209.187 185.569 207.667 185.569 206.2V194.84H190.009V221H185.129L178.209 206.28L175.849 200.72H175.729C175.809 202.107 175.929 203.573 176.089 205.12C176.275 206.64 176.369 208.12 176.369 209.56V221H171.929ZM220.218 221V201.36H224.018L224.378 204.32H224.538C225.471 203.36 226.498 202.547 227.618 201.88C228.764 201.213 230.098 200.88 231.618 200.88C233.884 200.88 235.551 201.573 236.618 202.96C237.684 204.347 238.218 206.307 238.218 208.84V221H233.578V209.44C233.578 207.867 233.298 206.707 232.738 205.96C232.178 205.213 231.231 204.84 229.898 204.84C228.938 204.84 228.084 205.067 227.338 205.52C226.591 205.973 225.764 206.667 224.858 207.6V221H220.218ZM244.202 228.76V201.36H248.002L248.362 203.6H248.482C249.335 202.8 250.309 202.147 251.402 201.64C252.522 201.133 253.642 200.88 254.762 200.88C256.495 200.88 257.949 201.293 259.122 202.12C260.295 202.947 261.202 204.107 261.842 205.6C262.482 207.093 262.802 208.853 262.802 210.88C262.802 213.12 262.389 215.027 261.562 216.6C260.735 218.173 259.655 219.387 258.322 220.24C257.015 221.067 255.602 221.48 254.082 221.48C253.202 221.48 252.282 221.28 251.322 220.88C250.389 220.48 249.522 219.907 248.722 219.16H248.602L248.842 222.6V228.76H244.202ZM253.122 217.68C254.055 217.68 254.895 217.427 255.642 216.92C256.389 216.413 256.975 215.667 257.402 214.68C257.829 213.667 258.042 212.413 258.042 210.92C258.042 209.613 257.882 208.493 257.562 207.56C257.242 206.627 256.749 205.92 256.082 205.44C255.442 204.933 254.575 204.68 253.482 204.68C252.735 204.68 251.975 204.867 251.202 205.24C250.429 205.613 249.642 206.213 248.842 207.04V215.88C249.562 216.52 250.309 216.987 251.082 217.28C251.855 217.547 252.535 217.68 253.122 217.68ZM266.746 221V201.36H270.306L270.666 203.84H270.786C271.213 202.987 271.76 202.28 272.426 201.72C273.093 201.16 274 200.88 275.146 200.88C276.053 200.88 276.813 201.16 277.426 201.72C278.04 202.253 278.466 203.067 278.706 204.16C279.16 203.2 279.733 202.413 280.426 201.8C281.12 201.187 282.04 200.88 283.186 200.88C284.573 200.88 285.64 201.427 286.386 202.52C287.16 203.587 287.546 205.107 287.546 207.08V221H283.106V207.4C283.106 205.667 282.586 204.8 281.546 204.8C281.013 204.8 280.56 205 280.186 205.4C279.84 205.8 279.466 206.427 279.066 207.28V221H275.226V207.4C275.226 206.547 275.106 205.907 274.866 205.48C274.626 205.027 274.226 204.8 273.666 204.8C273.16 204.8 272.72 205 272.346 205.4C271.973 205.8 271.6 206.427 271.226 207.28V221H266.746ZM318.075 221V201.36H321.875L322.275 205.8H322.395C323.382 204.2 324.595 202.987 326.035 202.16C327.502 201.307 329.075 200.88 330.755 200.88C331.555 200.88 332.248 200.947 332.835 201.08C333.422 201.213 333.995 201.413 334.555 201.68L333.595 205.56C332.955 205.347 332.382 205.2 331.875 205.12C331.395 205.013 330.782 204.96 330.035 204.96C328.702 204.96 327.395 205.347 326.115 206.12C324.862 206.893 323.728 208.24 322.715 210.16V221H318.075ZM346.219 221.48C343.926 221.48 342.259 220.787 341.219 219.4C340.179 218.013 339.659 216.053 339.659 213.52V201.36H344.259V212.92C344.259 214.493 344.526 215.653 345.059 216.4C345.619 217.147 346.579 217.52 347.939 217.52C348.846 217.52 349.673 217.307 350.419 216.88C351.193 216.427 352.006 215.667 352.859 214.6V201.36H357.459V221H353.699L353.339 217.88H353.179C352.246 218.947 351.219 219.813 350.099 220.48C348.979 221.147 347.686 221.48 346.219 221.48ZM364.124 221V201.36H367.924L368.284 204.32H368.444C369.377 203.36 370.404 202.547 371.524 201.88C372.67 201.213 374.004 200.88 375.524 200.88C377.79 200.88 379.457 201.573 380.524 202.96C381.59 204.347 382.124 206.307 382.124 208.84V221H377.484V209.44C377.484 207.867 377.204 206.707 376.644 205.96C376.084 205.213 375.137 204.84 373.804 204.84C372.844 204.84 371.99 205.067 371.244 205.52C370.497 205.973 369.67 206.667 368.764 207.6V221H364.124ZM421.973 221.48C421.039 221.48 420.066 221.253 419.053 220.8C418.066 220.347 417.133 219.693 416.253 218.84H416.133L415.733 221H412.093V192.76H416.733V200.04L416.533 203.48H416.653C417.479 202.68 418.413 202.053 419.453 201.6C420.519 201.12 421.586 200.88 422.653 200.88C424.359 200.88 425.799 201.293 426.973 202.12C428.173 202.947 429.093 204.107 429.733 205.6C430.373 207.067 430.693 208.813 430.693 210.84C430.693 213.08 430.279 215 429.453 216.6C428.626 218.173 427.546 219.387 426.213 220.24C424.906 221.067 423.493 221.48 421.973 221.48ZM421.053 217.68C421.959 217.68 422.786 217.427 423.533 216.92C424.279 216.413 424.866 215.667 425.293 214.68C425.719 213.667 425.933 212.413 425.933 210.92C425.933 209.613 425.773 208.493 425.453 207.56C425.133 206.627 424.639 205.92 423.973 205.44C423.333 204.933 422.466 204.68 421.373 204.68C420.626 204.68 419.866 204.867 419.092 205.24C418.319 205.613 417.533 206.213 416.733 207.04V215.88C417.453 216.52 418.199 216.987 418.973 217.28C419.746 217.547 420.439 217.68 421.053 217.68ZM442.157 221.48C439.864 221.48 438.197 220.787 437.157 219.4C436.117 218.013 435.597 216.053 435.597 213.52V201.36H440.197V212.92C440.197 214.493 440.464 215.653 440.997 216.4C441.557 217.147 442.517 217.52 443.877 217.52C444.784 217.52 445.61 217.307 446.357 216.88C447.13 216.427 447.944 215.667 448.797 214.6V201.36H453.397V221H449.637L449.277 217.88H449.117C448.184 218.947 447.157 219.813 446.037 220.48C444.917 221.147 443.624 221.48 442.157 221.48ZM468.661 221V205H460.141V201.36H473.261V221H468.661ZM470.621 197.76C469.688 197.76 468.901 197.48 468.261 196.92C467.648 196.36 467.341 195.613 467.341 194.68C467.341 193.747 467.648 193 468.261 192.44C468.901 191.853 469.688 191.56 470.621 191.56C471.581 191.56 472.368 191.853 472.981 192.44C473.595 193 473.901 193.747 473.901 194.68C473.901 195.613 473.595 196.36 472.981 196.92C472.368 197.48 471.581 197.76 470.621 197.76ZM496.766 221.48C494.499 221.48 492.766 220.813 491.566 219.48C490.392 218.12 489.806 216.24 489.806 213.84V196.4H483.406V192.76H494.406V214.08C494.406 215.413 494.739 216.36 495.406 216.92C496.099 217.453 496.939 217.72 497.926 217.72C498.432 217.72 498.952 217.667 499.486 217.56C500.019 217.427 500.619 217.227 501.286 216.96L502.366 220.36C501.432 220.68 500.552 220.947 499.726 221.16C498.926 221.373 497.939 221.48 496.766 221.48ZM515.27 221.48C512.763 221.48 510.737 220.573 509.19 218.76C507.643 216.947 506.87 214.427 506.87 211.2C506.87 209.067 507.283 207.227 508.11 205.68C508.937 204.133 510.017 202.947 511.35 202.12C512.683 201.293 514.083 200.88 515.55 200.88C516.67 200.88 517.657 201.08 518.51 201.48C519.39 201.88 520.203 202.453 520.95 203.2H521.07L520.83 199.88V192.76H525.47V221H521.67L521.31 218.72H521.19C520.443 219.467 519.55 220.12 518.51 220.68C517.47 221.213 516.39 221.48 515.27 221.48ZM516.39 217.68C517.19 217.68 517.963 217.493 518.71 217.12C519.457 216.72 520.163 216.12 520.83 215.32V206.48C520.137 205.813 519.443 205.347 518.75 205.08C518.057 204.813 517.35 204.68 516.63 204.68C515.723 204.68 514.883 204.933 514.11 205.44C513.363 205.947 512.763 206.68 512.31 207.64C511.857 208.6 511.63 209.773 511.63 211.16C511.63 213.267 512.043 214.88 512.87 216C513.723 217.12 514.897 217.68 516.39 217.68Z" fill="white"/>
<path d="M571.99 222.78C569.91 221.14 568.26 219.19 567.04 216.93C565.84 214.65 565.24 212.06 565.24 209.16C565.24 206.26 565.84 203.67 567.04 201.39C568.26 199.11 569.91 197.16 571.99 195.54L573.34 196.8C571.34 198.48 569.86 200.33 568.9 202.35C567.94 204.37 567.46 206.64 567.46 209.16C567.46 211.68 567.94 213.95 568.9 215.97C569.86 217.97 571.34 219.82 573.34 221.52L571.99 222.78ZM586.288 217.86C584.868 217.86 583.538 217.63 582.298 217.17C581.058 216.71 579.998 216.18 579.118 215.58L580.258 213.96C581.098 214.56 582.028 215.04 583.048 215.4C584.068 215.76 585.248 215.94 586.588 215.94C587.828 215.94 588.748 215.71 589.348 215.25C589.968 214.79 590.278 214.26 590.278 213.66C590.278 213.38 590.218 213.12 590.098 212.88C589.998 212.64 589.788 212.41 589.468 212.19C589.168 211.97 588.718 211.76 588.118 211.56C587.518 211.36 586.718 211.16 585.718 210.96C583.818 210.56 582.388 210.02 581.428 209.34C580.488 208.66 580.018 207.78 580.018 206.7C580.018 205.52 580.528 204.54 581.548 203.76C582.568 202.96 584.078 202.56 586.078 202.56C587.198 202.56 588.278 202.75 589.318 203.13C590.358 203.49 591.238 203.92 591.958 204.42L590.758 206.01C590.098 205.53 589.348 205.16 588.508 204.9C587.668 204.62 586.788 204.48 585.868 204.48C585.028 204.48 584.358 204.58 583.858 204.78C583.378 204.96 583.028 205.21 582.808 205.53C582.608 205.85 582.508 206.2 582.508 206.58C582.508 207.2 582.838 207.69 583.498 208.05C584.178 208.39 585.258 208.71 586.738 209.01C588.358 209.35 589.598 209.73 590.458 210.15C591.338 210.57 591.938 211.05 592.258 211.59C592.598 212.13 592.768 212.77 592.768 213.51C592.768 214.31 592.518 215.04 592.018 215.7C591.518 216.34 590.788 216.86 589.828 217.26C588.868 217.66 587.688 217.86 586.288 217.86ZM598.157 217.5V196.14H600.617V210.6H600.737L608.597 202.92H611.417L600.617 213.54V217.5H598.157ZM609.437 217.5L603.737 209.73L605.237 208.14L612.197 217.5H609.437ZM622.445 217.5V204.93H615.665V202.92H624.905V217.5H622.445ZM623.405 199.86C622.845 199.86 622.375 199.69 621.995 199.35C621.615 198.99 621.425 198.52 621.425 197.94C621.425 197.36 621.615 196.9 621.995 196.56C622.375 196.2 622.845 196.02 623.405 196.02C623.965 196.02 624.435 196.2 624.815 196.56C625.195 196.9 625.385 197.36 625.385 197.94C625.385 198.52 625.195 198.99 624.815 199.35C624.435 199.69 623.965 199.86 623.405 199.86ZM633.743 223.65V202.92H635.783L635.993 204.78H636.083C636.763 204.14 637.543 203.61 638.423 203.19C639.323 202.77 640.223 202.56 641.123 202.56C642.443 202.56 643.543 202.87 644.423 203.49C645.323 204.09 646.003 204.95 646.463 206.07C646.923 207.17 647.153 208.48 647.153 210C647.153 211.64 646.843 213.05 646.223 214.23C645.603 215.41 644.793 216.31 643.793 216.93C642.793 217.55 641.703 217.86 640.523 217.86C639.863 217.86 639.133 217.7 638.333 217.38C637.553 217.04 636.833 216.57 636.173 215.97H636.083L636.203 218.73V223.65H633.743ZM640.103 215.79C640.963 215.79 641.733 215.56 642.413 215.1C643.093 214.64 643.623 213.98 644.003 213.12C644.403 212.24 644.603 211.2 644.603 210C644.603 208.94 644.463 208.01 644.183 207.21C643.903 206.39 643.463 205.76 642.863 205.32C642.263 204.86 641.473 204.63 640.493 204.63C639.833 204.63 639.133 204.81 638.393 205.17C637.673 205.51 636.943 206.06 636.203 206.82V214.08C636.903 214.7 637.603 215.14 638.303 215.4C639.023 215.66 639.623 215.79 640.103 215.79ZM651.731 223.65V202.92H653.771L653.981 204.78H654.071C654.751 204.14 655.531 203.61 656.411 203.19C657.311 202.77 658.211 202.56 659.111 202.56C660.431 202.56 661.531 202.87 662.411 203.49C663.311 204.09 663.991 204.95 664.451 206.07C664.911 207.17 665.141 208.48 665.141 210C665.141 211.64 664.831 213.05 664.211 214.23C663.591 215.41 662.781 216.31 661.781 216.93C660.781 217.55 659.691 217.86 658.511 217.86C657.851 217.86 657.121 217.7 656.321 217.38C655.541 217.04 654.821 216.57 654.161 215.97H654.071L654.191 218.73V223.65H651.731ZM658.091 215.79C658.951 215.79 659.721 215.56 660.401 215.1C661.081 214.64 661.611 213.98 661.991 213.12C662.391 212.24 662.591 211.2 662.591 210C662.591 208.94 662.451 208.01 662.171 207.21C661.891 206.39 661.451 205.76 660.851 205.32C660.251 204.86 659.461 204.63 658.481 204.63C657.821 204.63 657.121 204.81 656.381 205.17C655.661 205.51 654.931 206.06 654.191 206.82V214.08C654.891 214.7 655.591 215.14 656.291 215.4C657.011 215.66 657.611 215.79 658.091 215.79ZM676.83 217.86C675.37 217.86 674.04 217.56 672.84 216.96C671.66 216.36 670.72 215.49 670.02 214.35C669.32 213.19 668.97 211.8 668.97 210.18C668.97 208.6 669.32 207.24 670.02 206.1C670.72 204.96 671.63 204.09 672.75 203.49C673.89 202.87 675.11 202.56 676.41 202.56C677.81 202.56 679 202.85 679.98 203.43C680.98 203.99 681.74 204.78 682.26 205.8C682.8 206.82 683.07 208.02 683.07 209.4C683.07 209.68 683.06 209.95 683.04 210.21C683.02 210.47 682.99 210.7 682.95 210.9H670.62V208.98H681.48L680.85 209.67C680.85 207.95 680.45 206.66 679.65 205.8C678.87 204.94 677.81 204.51 676.47 204.51C675.57 204.51 674.73 204.73 673.95 205.17C673.19 205.61 672.58 206.25 672.12 207.09C671.66 207.93 671.43 208.96 671.43 210.18C671.43 211.44 671.68 212.49 672.18 213.33C672.68 214.17 673.36 214.81 674.22 215.25C675.08 215.67 676.05 215.88 677.13 215.88C678.01 215.88 678.8 215.76 679.5 215.52C680.22 215.26 680.91 214.92 681.57 214.5L682.47 216.12C681.75 216.6 680.92 217.01 679.98 217.35C679.06 217.69 678.01 217.86 676.83 217.86ZM693.048 217.86C691.148 217.86 689.618 217.2 688.458 215.88C687.298 214.54 686.718 212.66 686.718 210.24C686.718 208.66 687.028 207.3 687.648 206.16C688.288 205 689.108 204.11 690.108 203.49C691.128 202.87 692.208 202.56 693.348 202.56C694.208 202.56 694.988 202.73 695.688 203.07C696.408 203.39 697.078 203.85 697.698 204.45H697.788L697.668 201.75V196.14H700.128V217.5H698.088L697.878 215.58H697.788C697.208 216.2 696.498 216.74 695.658 217.2C694.838 217.64 693.968 217.86 693.048 217.86ZM693.558 215.79C694.278 215.79 694.978 215.61 695.658 215.25C696.338 214.87 697.008 214.32 697.668 213.6V206.34C697.008 205.72 696.358 205.28 695.718 205.02C695.098 204.76 694.468 204.63 693.828 204.63C692.988 204.63 692.218 204.87 691.518 205.35C690.838 205.81 690.288 206.46 689.868 207.3C689.468 208.12 689.268 209.09 689.268 210.21C689.268 211.95 689.648 213.32 690.408 214.32C691.168 215.3 692.218 215.79 693.558 215.79ZM709.506 223.89L708.816 222.33C710.096 221.77 711.046 221.06 711.666 220.2C712.286 219.36 712.596 218.32 712.596 217.08L712.026 214.32L713.706 216.69C713.466 216.97 713.196 217.16 712.896 217.26C712.616 217.34 712.326 217.38 712.026 217.38C711.606 217.38 711.216 217.3 710.856 217.14C710.496 216.96 710.206 216.71 709.986 216.39C709.786 216.05 709.686 215.63 709.686 215.13C709.686 214.39 709.926 213.83 710.406 213.45C710.886 213.05 711.446 212.85 712.086 212.85C712.966 212.85 713.636 213.2 714.096 213.9C714.556 214.58 714.786 215.51 714.786 216.69C714.786 218.45 714.316 219.93 713.376 221.13C712.436 222.35 711.146 223.27 709.506 223.89ZM747.883 217.86C746.463 217.86 745.243 217.47 744.223 216.69C743.203 215.89 742.413 214.75 741.853 213.27C741.293 211.79 741.013 209.99 741.013 207.87C741.013 204.65 741.623 202.2 742.843 200.52C744.083 198.84 745.763 198 747.883 198C750.023 198 751.703 198.84 752.923 200.52C754.143 202.2 754.753 204.65 754.753 207.87C754.753 209.99 754.473 211.79 753.913 213.27C753.373 214.75 752.583 215.89 751.543 216.69C750.523 217.47 749.303 217.86 747.883 217.86ZM747.883 215.88C748.783 215.88 749.573 215.6 750.253 215.04C750.933 214.46 751.463 213.58 751.843 212.4C752.243 211.2 752.443 209.69 752.443 207.87C752.443 206.03 752.243 204.53 751.843 203.37C751.463 202.21 750.933 201.36 750.253 200.82C749.573 200.26 748.783 199.98 747.883 199.98C747.003 199.98 746.213 200.26 745.513 200.82C744.833 201.36 744.293 202.21 743.893 203.37C743.513 204.53 743.323 206.03 743.323 207.87C743.323 209.69 743.513 211.2 743.893 212.4C744.293 213.58 744.833 214.46 745.513 215.04C746.213 215.6 747.003 215.88 747.883 215.88ZM747.883 209.67C747.383 209.67 746.943 209.49 746.563 209.13C746.203 208.77 746.023 208.28 746.023 207.66C746.023 207.04 746.203 206.56 746.563 206.22C746.943 205.86 747.383 205.68 747.883 205.68C748.403 205.68 748.843 205.86 749.203 206.22C749.563 206.56 749.743 207.04 749.743 207.66C749.743 208.28 749.563 208.77 749.203 209.13C748.843 209.49 748.403 209.67 747.883 209.67ZM784.159 217.86C782.739 217.86 781.409 217.63 780.169 217.17C778.929 216.71 777.869 216.18 776.989 215.58L778.129 213.96C778.969 214.56 779.899 215.04 780.919 215.4C781.939 215.76 783.119 215.94 784.459 215.94C785.699 215.94 786.619 215.71 787.219 215.25C787.839 214.79 788.149 214.26 788.149 213.66C788.149 213.38 788.089 213.12 787.969 212.88C787.869 212.64 787.659 212.41 787.339 212.19C787.039 211.97 786.589 211.76 785.989 211.56C785.389 211.36 784.589 211.16 783.589 210.96C781.689 210.56 780.259 210.02 779.299 209.34C778.359 208.66 777.889 207.78 777.889 206.7C777.889 205.52 778.399 204.54 779.419 203.76C780.439 202.96 781.949 202.56 783.949 202.56C785.069 202.56 786.149 202.75 787.189 203.13C788.229 203.49 789.109 203.92 789.829 204.42L788.629 206.01C787.969 205.53 787.219 205.16 786.379 204.9C785.539 204.62 784.659 204.48 783.739 204.48C782.899 204.48 782.229 204.58 781.729 204.78C781.249 204.96 780.899 205.21 780.679 205.53C780.479 205.85 780.379 206.2 780.379 206.58C780.379 207.2 780.709 207.69 781.369 208.05C782.049 208.39 783.129 208.71 784.609 209.01C786.229 209.35 787.469 209.73 788.329 210.15C789.209 210.57 789.809 211.05 790.129 211.59C790.469 212.13 790.639 212.77 790.639 213.51C790.639 214.31 790.389 215.04 789.889 215.7C789.389 216.34 788.659 216.86 787.699 217.26C786.739 217.66 785.559 217.86 784.159 217.86ZM802.748 217.86C801.288 217.86 799.958 217.56 798.758 216.96C797.578 216.36 796.638 215.49 795.938 214.35C795.238 213.19 794.888 211.8 794.888 210.18C794.888 208.6 795.238 207.24 795.938 206.1C796.638 204.96 797.548 204.09 798.668 203.49C799.808 202.87 801.028 202.56 802.328 202.56C803.728 202.56 804.918 202.85 805.898 203.43C806.898 203.99 807.658 204.78 808.178 205.8C808.718 206.82 808.988 208.02 808.988 209.4C808.988 209.68 808.978 209.95 808.958 210.21C808.938 210.47 808.908 210.7 808.868 210.9H796.538V208.98H807.398L806.768 209.67C806.768 207.95 806.368 206.66 805.568 205.8C804.788 204.94 803.728 204.51 802.388 204.51C801.488 204.51 800.648 204.73 799.868 205.17C799.108 205.61 798.498 206.25 798.038 207.09C797.578 207.93 797.348 208.96 797.348 210.18C797.348 211.44 797.598 212.49 798.098 213.33C798.598 214.17 799.278 214.81 800.138 215.25C800.998 215.67 801.968 215.88 803.048 215.88C803.928 215.88 804.718 215.76 805.418 215.52C806.138 215.26 806.828 214.92 807.488 214.5L808.388 216.12C807.668 216.6 806.838 217.01 805.898 217.35C804.978 217.69 803.928 217.86 802.748 217.86ZM821.216 217.86C819.696 217.86 818.326 217.56 817.106 216.96C815.906 216.36 814.956 215.49 814.256 214.35C813.576 213.21 813.236 211.84 813.236 210.24C813.236 208.6 813.606 207.21 814.346 206.07C815.086 204.93 816.066 204.06 817.286 203.46C818.526 202.86 819.886 202.56 821.366 202.56C822.566 202.56 823.596 202.77 824.456 203.19C825.336 203.61 826.076 204.11 826.676 204.69L825.446 206.28C824.846 205.76 824.226 205.35 823.586 205.05C822.946 204.75 822.236 204.6 821.456 204.6C820.336 204.6 819.346 204.84 818.486 205.32C817.626 205.78 816.956 206.44 816.476 207.3C816.016 208.14 815.786 209.12 815.786 210.24C815.786 211.34 816.016 212.31 816.476 213.15C816.936 213.99 817.586 214.65 818.426 215.13C819.286 215.59 820.276 215.82 821.396 215.82C822.296 215.82 823.116 215.64 823.856 215.28C824.616 214.92 825.296 214.49 825.896 213.99L827.006 215.58C826.206 216.3 825.306 216.86 824.306 217.26C823.326 217.66 822.296 217.86 821.216 217.86ZM837.824 217.86C836.544 217.86 835.354 217.56 834.254 216.96C833.174 216.36 832.294 215.49 831.614 214.35C830.954 213.21 830.624 211.84 830.624 210.24C830.624 208.6 830.954 207.21 831.614 206.07C832.294 204.93 833.174 204.06 834.254 203.46C835.354 202.86 836.544 202.56 837.824 202.56C839.104 202.56 840.284 202.86 841.364 203.46C842.464 204.06 843.344 204.93 844.004 206.07C844.684 207.21 845.024 208.6 845.024 210.24C845.024 211.84 844.684 213.21 844.004 214.35C843.344 215.49 842.464 216.36 841.364 216.96C840.284 217.56 839.104 217.86 837.824 217.86ZM837.824 215.82C838.764 215.82 839.584 215.59 840.284 215.13C840.984 214.65 841.524 213.99 841.904 213.15C842.284 212.31 842.474 211.34 842.474 210.24C842.474 209.12 842.284 208.14 841.904 207.3C841.524 206.44 840.984 205.78 840.284 205.32C839.584 204.84 838.764 204.6 837.824 204.6C836.884 204.6 836.064 204.84 835.364 205.32C834.684 205.78 834.144 206.44 833.744 207.3C833.364 208.14 833.174 209.12 833.174 210.24C833.174 211.34 833.364 212.31 833.744 213.15C834.144 213.99 834.684 214.65 835.364 215.13C836.064 215.59 836.884 215.82 837.824 215.82ZM849.603 217.5V202.92H851.643L851.853 205.41H851.973C852.733 204.59 853.553 203.91 854.433 203.37C855.313 202.83 856.323 202.56 857.463 202.56C859.183 202.56 860.453 203.06 861.273 204.06C862.093 205.06 862.503 206.52 862.503 208.44V217.5H860.043V208.77C860.043 207.39 859.783 206.37 859.263 205.71C858.743 205.03 857.883 204.69 856.683 204.69C855.823 204.69 855.053 204.91 854.373 205.35C853.693 205.79 852.923 206.45 852.063 207.33V217.5H849.603ZM872.931 217.86C871.031 217.86 869.501 217.2 868.341 215.88C867.181 214.54 866.601 212.66 866.601 210.24C866.601 208.66 866.911 207.3 867.531 206.16C868.171 205 868.991 204.11 869.991 203.49C871.011 202.87 872.091 202.56 873.231 202.56C874.091 202.56 874.871 202.73 875.571 203.07C876.291 203.39 876.961 203.85 877.581 204.45H877.671L877.551 201.75V196.14H880.011V217.5H877.971L877.761 215.58H877.671C877.091 216.2 876.381 216.74 875.541 217.2C874.721 217.64 873.851 217.86 872.931 217.86ZM873.441 215.79C874.161 215.79 874.861 215.61 875.541 215.25C876.221 214.87 876.891 214.32 877.551 213.6V206.34C876.891 205.72 876.241 205.28 875.601 205.02C874.981 204.76 874.351 204.63 873.711 204.63C872.871 204.63 872.101 204.87 871.401 205.35C870.721 205.81 870.171 206.46 869.751 207.3C869.351 208.12 869.151 209.09 869.151 210.21C869.151 211.95 869.531 213.32 870.291 214.32C871.051 215.3 872.101 215.79 873.441 215.79ZM892.089 217.86C890.669 217.86 889.339 217.63 888.099 217.17C886.859 216.71 885.799 216.18 884.919 215.58L886.059 213.96C886.899 214.56 887.829 215.04 888.849 215.4C889.869 215.76 891.049 215.94 892.389 215.94C893.629 215.94 894.549 215.71 895.149 215.25C895.769 214.79 896.079 214.26 896.079 213.66C896.079 213.38 896.019 213.12 895.899 212.88C895.799 212.64 895.589 212.41 895.269 212.19C894.969 211.97 894.519 211.76 893.919 211.56C893.319 211.36 892.519 211.16 891.519 210.96C889.619 210.56 888.189 210.02 887.229 209.34C886.289 208.66 885.819 207.78 885.819 206.7C885.819 205.52 886.329 204.54 887.349 203.76C888.369 202.96 889.879 202.56 891.879 202.56C892.999 202.56 894.079 202.75 895.119 203.13C896.159 203.49 897.039 203.92 897.759 204.42L896.559 206.01C895.899 205.53 895.149 205.16 894.309 204.9C893.469 204.62 892.589 204.48 891.669 204.48C890.829 204.48 890.159 204.58 889.659 204.78C889.179 204.96 888.829 205.21 888.609 205.53C888.409 205.85 888.309 206.2 888.309 206.58C888.309 207.2 888.639 207.69 889.299 208.05C889.979 208.39 891.059 208.71 892.539 209.01C894.159 209.35 895.399 209.73 896.259 210.15C897.139 210.57 897.739 211.05 898.059 211.59C898.399 212.13 898.569 212.77 898.569 213.51C898.569 214.31 898.319 215.04 897.819 215.7C897.319 216.34 896.589 216.86 895.629 217.26C894.669 217.66 893.489 217.86 892.089 217.86ZM905.787 222.78L904.437 221.52C906.437 219.82 907.917 217.97 908.877 215.97C909.837 213.95 910.317 211.68 910.317 209.16C910.317 206.64 909.837 204.37 908.877 202.35C907.917 200.33 906.437 198.48 904.437 196.8L905.787 195.54C907.887 197.16 909.537 199.11 910.737 201.39C911.937 203.67 912.537 206.26 912.537 209.16C912.537 212.06 911.937 214.65 910.737 216.93C909.537 219.19 907.887 221.14 905.787 222.78Z" fill="white"/>
<rect x="977.5" y="183.5" width="258" height="47" rx="23.5" fill="#272727"/>
<path d="M1073.75 218.25H1056.25C1055.59 218.25 1054.95 217.987 1054.48 217.518C1054.01 217.049 1053.75 216.413 1053.75 215.75V198.25C1053.75 197.587 1054.01 196.951 1054.48 196.482C1054.95 196.013 1055.59 195.75 1056.25 195.75H1070L1076.25 202V215.75C1076.25 216.413 1075.99 217.049 1075.52 217.518C1075.05 217.987 1074.41 218.25 1073.75 218.25Z" stroke="#88EACB" stroke-width="2" stroke-linecap="round" stroke-linejoin="round"/>
<path d="M1071.25 218.25V208.25H1058.75V218.25" stroke="#88EACB" stroke-width="2" stroke-linecap="round" stroke-linejoin="round"/>
<path d="M1058.75 195.75V202H1068.75" stroke="#88EACB" stroke-width="2" stroke-linecap="round" stroke-linejoin="round"/>
<path d="M1097.88 214.24C1096.85 214.24 1095.93 214.04 1095.1 213.64C1094.29 213.227 1093.64 212.64 1093.16 211.88C1092.69 211.107 1092.46 210.18 1092.46 209.1C1092.46 208.007 1092.71 207.08 1093.22 206.32C1093.74 205.547 1094.43 204.96 1095.28 204.56C1096.13 204.147 1097.05 203.94 1098.04 203.94C1098.84 203.94 1099.55 204.073 1100.16 204.34C1100.77 204.593 1101.28 204.92 1101.68 205.32L1100.58 206.76C1100.19 206.453 1099.8 206.22 1099.4 206.06C1099.01 205.9 1098.6 205.82 1098.16 205.82C1097.51 205.82 1096.93 205.96 1096.42 206.24C1095.93 206.507 1095.54 206.887 1095.26 207.38C1094.98 207.873 1094.84 208.447 1094.84 209.1C1094.84 209.753 1094.97 210.327 1095.24 210.82C1095.52 211.313 1095.9 211.693 1096.38 211.96C1096.87 212.227 1097.45 212.36 1098.1 212.36C1098.66 212.36 1099.17 212.253 1099.64 212.04C1100.11 211.827 1100.53 211.573 1100.9 211.28L1101.86 212.76C1101.3 213.24 1100.67 213.607 1099.98 213.86C1099.29 214.113 1098.59 214.24 1097.88 214.24ZM1107.69 214.24C1107.05 214.24 1106.49 214.12 1105.99 213.88C1105.5 213.627 1105.11 213.287 1104.83 212.86C1104.55 212.433 1104.41 211.933 1104.41 211.36C1104.41 210.267 1104.93 209.433 1105.97 208.86C1107.03 208.273 1108.77 207.893 1111.19 207.72C1111.17 207.36 1111.07 207.033 1110.89 206.74C1110.73 206.447 1110.49 206.22 1110.15 206.06C1109.82 205.887 1109.39 205.8 1108.85 205.8C1108.48 205.8 1108.11 205.847 1107.75 205.94C1107.39 206.033 1107.03 206.16 1106.67 206.32C1106.33 206.48 1105.98 206.653 1105.63 206.84L1104.79 205.3C1105.19 205.06 1105.63 204.84 1106.11 204.64C1106.59 204.427 1107.1 204.26 1107.63 204.14C1108.17 204.007 1108.71 203.94 1109.27 203.94C1110.19 203.94 1110.96 204.107 1111.57 204.44C1112.2 204.76 1112.67 205.24 1112.99 205.88C1113.33 206.507 1113.49 207.273 1113.49 208.18V214H1111.61L1111.43 212.78H1111.37C1110.85 213.18 1110.27 213.527 1109.63 213.82C1109.01 214.1 1108.36 214.24 1107.69 214.24ZM1108.39 212.44C1108.89 212.44 1109.36 212.333 1109.81 212.12C1110.28 211.893 1110.74 211.6 1111.19 211.24V209.16C1110.02 209.24 1109.1 209.373 1108.43 209.56C1107.77 209.733 1107.3 209.96 1107.03 210.24C1106.77 210.52 1106.63 210.833 1106.63 211.18C1106.63 211.473 1106.71 211.713 1106.87 211.9C1107.03 212.087 1107.24 212.227 1107.49 212.32C1107.76 212.4 1108.06 212.44 1108.39 212.44ZM1121.86 214.24C1120.84 214.24 1119.91 214.04 1119.08 213.64C1118.27 213.227 1117.62 212.64 1117.14 211.88C1116.68 211.107 1116.44 210.18 1116.44 209.1C1116.44 208.007 1116.7 207.08 1117.2 206.32C1117.72 205.547 1118.41 204.96 1119.26 204.56C1120.12 204.147 1121.04 203.94 1122.02 203.94C1122.82 203.94 1123.53 204.073 1124.14 204.34C1124.76 204.593 1125.26 204.92 1125.66 205.32L1124.56 206.76C1124.18 206.453 1123.78 206.22 1123.38 206.06C1123 205.9 1122.58 205.82 1122.14 205.82C1121.49 205.82 1120.91 205.96 1120.4 206.24C1119.91 206.507 1119.52 206.887 1119.24 207.38C1118.96 207.873 1118.82 208.447 1118.82 209.1C1118.82 209.753 1118.96 210.327 1119.22 210.82C1119.5 211.313 1119.88 211.693 1120.36 211.96C1120.86 212.227 1121.43 212.36 1122.08 212.36C1122.64 212.36 1123.16 212.253 1123.62 212.04C1124.09 211.827 1124.51 211.573 1124.88 211.28L1125.84 212.76C1125.28 213.24 1124.66 213.607 1123.96 213.86C1123.27 214.113 1122.57 214.24 1121.86 214.24ZM1128.62 214V199.88H1130.94V203.52L1130.8 205.62H1130.86C1131.28 205.167 1131.78 204.773 1132.34 204.44C1132.91 204.107 1133.57 203.94 1134.32 203.94C1135.45 203.94 1136.28 204.287 1136.82 204.98C1137.35 205.673 1137.62 206.653 1137.62 207.92V214H1135.3V208.22C1135.3 207.433 1135.16 206.853 1134.88 206.48C1134.6 206.107 1134.12 205.92 1133.46 205.92C1132.98 205.92 1132.55 206.033 1132.18 206.26C1131.8 206.487 1131.39 206.833 1130.94 207.3V214H1128.62ZM1145.57 214.24C1144.57 214.24 1143.66 214.04 1142.85 213.64C1142.04 213.227 1141.39 212.64 1140.91 211.88C1140.43 211.107 1140.19 210.173 1140.19 209.08C1140.19 208.013 1140.43 207.1 1140.91 206.34C1141.39 205.567 1142.02 204.973 1142.79 204.56C1143.56 204.147 1144.39 203.94 1145.27 203.94C1146.24 203.94 1147.06 204.14 1147.73 204.54C1148.41 204.94 1148.92 205.493 1149.27 206.2C1149.63 206.893 1149.81 207.693 1149.81 208.6C1149.81 208.827 1149.8 209.047 1149.77 209.26C1149.76 209.46 1149.74 209.627 1149.71 209.76H1141.85V208.12H1148.23L1147.79 208.64C1147.79 207.667 1147.57 206.94 1147.13 206.46C1146.7 205.967 1146.1 205.72 1145.33 205.72C1144.78 205.72 1144.29 205.847 1143.85 206.1C1143.42 206.353 1143.08 206.733 1142.83 207.24C1142.58 207.733 1142.45 208.347 1142.45 209.08C1142.45 209.84 1142.59 210.467 1142.87 210.96C1143.16 211.453 1143.56 211.827 1144.07 212.08C1144.59 212.333 1145.19 212.46 1145.87 212.46C1146.39 212.46 1146.87 212.387 1147.31 212.24C1147.75 212.093 1148.19 211.893 1148.63 211.64L1149.41 213.08C1148.89 213.413 1148.3 213.693 1147.65 213.92C1147 214.133 1146.3 214.24 1145.57 214.24ZM1156.22 214.24C1154.97 214.24 1153.95 213.787 1153.18 212.88C1152.41 211.973 1152.02 210.713 1152.02 209.1C1152.02 208.033 1152.23 207.113 1152.64 206.34C1153.05 205.567 1153.59 204.973 1154.26 204.56C1154.93 204.147 1155.63 203.94 1156.36 203.94C1156.92 203.94 1157.41 204.04 1157.84 204.24C1158.28 204.44 1158.69 204.727 1159.06 205.1H1159.12L1159 203.44V199.88H1161.32V214H1159.42L1159.24 212.86H1159.18C1158.81 213.233 1158.36 213.56 1157.84 213.84C1157.32 214.107 1156.78 214.24 1156.22 214.24ZM1156.78 212.34C1157.18 212.34 1157.57 212.247 1157.94 212.06C1158.31 211.86 1158.67 211.56 1159 211.16V206.74C1158.65 206.407 1158.31 206.173 1157.96 206.04C1157.61 205.907 1157.26 205.84 1156.9 205.84C1156.45 205.84 1156.03 205.967 1155.64 206.22C1155.27 206.473 1154.97 206.84 1154.74 207.32C1154.51 207.8 1154.4 208.387 1154.4 209.08C1154.4 210.133 1154.61 210.94 1155.02 211.5C1155.45 212.06 1156.03 212.34 1156.78 212.34Z" fill="#88EACB"/>
<rect x="977.5" y="183.5" width="258" height="47" rx="23.5" stroke="#4EB898" stroke-width="3"/>
<rect y="286" width="1266" height="128" rx="10" fill="#272727"/>
<path d="M87.6667 348.467V350C87.6646 353.594 86.5008 357.091 84.3489 359.97C82.1969 362.848 79.1721 364.954 75.7256 365.973C72.279 366.992 68.5954 366.87 65.2241 365.624C61.8528 364.379 58.9744 362.077 57.0183 359.062C55.0621 356.047 54.133 352.48 54.3695 348.894C54.6059 345.308 55.9953 341.894 58.3305 339.162C60.6656 336.43 63.8213 334.526 67.327 333.734C70.8327 332.941 74.5004 333.304 77.7833 334.767" stroke="#4EB898" stroke-width="2" stroke-linecap="round" stroke-linejoin="round"/>
<path d="M87.6667 336.667L71 353.35L66 348.35" stroke="#4EB898" stroke-width="2" stroke-linecap="round" stroke-linejoin="round"/>
<path d="M125.12 364V337.84H141.88V341.76H129.76V348.44H140.04V352.36H129.76V360.08H142.28V364H125.12ZM146.424 364L154.104 350.52L146.904 337.84H152.064L155.144 343.64C155.464 344.227 155.784 344.84 156.104 345.48C156.424 346.12 156.784 346.84 157.184 347.64H157.344C157.691 346.84 158.011 346.12 158.304 345.48C158.598 344.84 158.891 344.227 159.184 343.64L162.144 337.84H167.064L159.864 350.72L167.544 364H162.424L159.024 357.84C158.678 357.147 158.318 356.467 157.944 355.8C157.598 355.107 157.224 354.36 156.824 353.56H156.664C156.318 354.36 155.971 355.107 155.624 355.8C155.304 356.467 154.971 357.147 154.624 357.84L151.344 364H146.424ZM172.489 364V337.84H181.089C183.009 337.84 184.715 338.093 186.209 338.6C187.702 339.107 188.875 339.947 189.729 341.12C190.609 342.293 191.049 343.893 191.049 345.92C191.049 347.84 190.609 349.427 189.729 350.68C188.875 351.933 187.689 352.867 186.169 353.48C184.675 354.093 182.982 354.4 181.089 354.4H177.129V364H172.489ZM177.129 350.68H180.729C182.675 350.68 184.115 350.28 185.049 349.48C186.009 348.68 186.489 347.493 186.489 345.92C186.489 344.267 185.995 343.133 185.009 342.52C184.049 341.88 182.622 341.56 180.729 341.56H177.129V350.68ZM204.953 364.48C202.926 364.48 201.14 363.947 199.593 362.88C198.046 361.813 196.833 360.267 195.953 358.24C195.1 356.213 194.673 353.733 194.673 350.8C194.673 347.947 195.1 345.52 195.953 343.52C196.833 341.493 198.046 339.96 199.593 338.92C201.14 337.88 202.926 337.36 204.953 337.36C206.98 337.36 208.766 337.88 210.313 338.92C211.86 339.96 213.06 341.493 213.913 343.52C214.793 345.52 215.233 347.947 215.233 350.8C215.233 353.733 214.793 356.213 213.913 358.24C213.06 360.267 211.86 361.813 210.313 362.88C208.766 363.947 206.98 364.48 204.953 364.48ZM204.953 360.44C206.073 360.44 207.046 360.067 207.873 359.32C208.7 358.573 209.34 357.48 209.793 356.04C210.246 354.6 210.473 352.853 210.473 350.8C210.473 348.8 210.246 347.107 209.793 345.72C209.34 344.307 208.7 343.24 207.873 342.52C207.046 341.773 206.073 341.4 204.953 341.4C203.833 341.4 202.86 341.773 202.033 342.52C201.206 343.24 200.566 344.307 200.113 345.72C199.66 347.107 199.433 348.8 199.433 350.8C199.433 352.853 199.66 354.6 200.113 356.04C200.566 357.48 201.206 358.573 202.033 359.32C202.86 360.067 203.833 360.44 204.953 360.44ZM229.018 364.48C227.178 364.48 225.418 364.147 223.738 363.48C222.058 362.813 220.564 361.867 219.258 360.64L221.978 357.48C222.964 358.36 224.084 359.08 225.338 359.64C226.591 360.173 227.911 360.44 229.298 360.44C230.818 360.44 231.978 360.147 232.778 359.56C233.578 358.947 233.978 358.187 233.978 357.28C233.978 356.507 233.791 355.893 233.418 355.44C233.044 354.96 232.524 354.56 231.858 354.24C231.218 353.92 230.458 353.587 229.578 353.24L226.018 351.68C225.111 351.307 224.218 350.827 223.338 350.24C222.484 349.653 221.778 348.907 221.218 348C220.684 347.093 220.418 346 220.418 344.72C220.418 343.333 220.804 342.093 221.578 341C222.351 339.88 223.418 339 224.778 338.36C226.164 337.693 227.738 337.36 229.498 337.36C231.098 337.36 232.618 337.667 234.058 338.28C235.524 338.867 236.804 339.667 237.898 340.68L235.498 343.64C234.618 342.92 233.684 342.373 232.698 342C231.738 341.6 230.591 341.4 229.258 341.4C228.031 341.4 227.031 341.667 226.258 342.2C225.484 342.733 225.098 343.493 225.098 344.48C225.098 345.147 225.311 345.693 225.738 346.12C226.164 346.547 226.711 346.92 227.378 347.24C228.071 347.56 228.804 347.867 229.578 348.16L233.018 349.64C234.138 350.067 235.124 350.587 235.978 351.2C236.831 351.813 237.498 352.573 237.978 353.48C238.458 354.36 238.698 355.44 238.698 356.72C238.698 358.133 238.311 359.427 237.538 360.6C236.764 361.773 235.658 362.72 234.218 363.44C232.778 364.133 231.044 364.48 229.018 364.48ZM245.042 364V337.84H261.802V341.76H249.682V348.44H259.962V352.36H249.682V360.08H262.202V364H245.042ZM292.891 364L289.171 337.84H294.131L295.451 353C295.504 353.72 295.557 354.413 295.611 355.08C295.664 355.72 295.704 356.373 295.731 357.04C295.757 357.707 295.784 358.453 295.811 359.28H295.931C296.064 358.453 296.197 357.707 296.331 357.04C296.491 356.373 296.637 355.72 296.771 355.08C296.904 354.413 297.051 353.72 297.211 353L299.371 344.52H302.851L304.891 353C305.077 353.72 305.237 354.4 305.371 355.04C305.504 355.68 305.637 356.347 305.771 357.04C305.904 357.707 306.037 358.453 306.171 359.28H306.331C306.384 358.453 306.424 357.707 306.451 357.04C306.477 356.347 306.504 355.68 306.531 355.04C306.557 354.4 306.597 353.72 306.651 353L307.931 337.84H312.611L309.091 364H303.851L301.811 354.72C301.624 353.893 301.464 353.08 301.331 352.28C301.197 351.453 301.077 350.64 300.971 349.84H300.851C300.744 350.64 300.624 351.453 300.491 352.28C300.384 353.08 300.237 353.893 300.051 354.72L298.051 364H292.891ZM316.995 364V337.84H333.755V341.76H321.635V348.44H331.915V352.36H321.635V360.08H334.155V364H316.995ZM340.299 364V337.84H348.419C350.206 337.84 351.793 338.053 353.179 338.48C354.593 338.88 355.699 339.547 356.499 340.48C357.299 341.413 357.699 342.68 357.699 344.28C357.699 345.507 357.326 346.667 356.579 347.76C355.859 348.827 354.726 349.56 353.179 349.96V350.12C355.073 350.44 356.526 351.107 357.539 352.12C358.553 353.133 359.059 354.533 359.059 356.32C359.059 358.053 358.633 359.493 357.779 360.64C356.926 361.787 355.739 362.64 354.219 363.2C352.726 363.733 351.019 364 349.099 364H340.299ZM344.939 348.6H348.019C349.833 348.6 351.139 348.28 351.939 347.64C352.739 347 353.139 346.067 353.139 344.84C353.139 343.64 352.726 342.8 351.899 342.32C351.073 341.813 349.806 341.56 348.099 341.56H344.939V348.6ZM344.939 360.28H348.619C350.539 360.28 351.993 359.947 352.979 359.28C353.993 358.587 354.499 357.493 354.499 356C354.499 354.64 354.006 353.653 353.019 353.04C352.033 352.427 350.566 352.12 348.619 352.12H344.939V360.28ZM372.924 364.48C371.084 364.48 369.324 364.147 367.644 363.48C365.964 362.813 364.47 361.867 363.164 360.64L365.884 357.48C366.87 358.36 367.99 359.08 369.244 359.64C370.497 360.173 371.817 360.44 373.204 360.44C374.724 360.44 375.884 360.147 376.684 359.56C377.484 358.947 377.884 358.187 377.884 357.28C377.884 356.507 377.697 355.893 377.324 355.44C376.95 354.96 376.43 354.56 375.764 354.24C375.124 353.92 374.364 353.587 373.484 353.24L369.924 351.68C369.017 351.307 368.124 350.827 367.244 350.24C366.39 349.653 365.684 348.907 365.124 348C364.59 347.093 364.324 346 364.324 344.72C364.324 343.333 364.71 342.093 365.484 341C366.257 339.88 367.324 339 368.684 338.36C370.07 337.693 371.644 337.36 373.404 337.36C375.004 337.36 376.524 337.667 377.964 338.28C379.43 338.867 380.71 339.667 381.804 340.68L379.404 343.64C378.524 342.92 377.59 342.373 376.604 342C375.644 341.6 374.497 341.4 373.164 341.4C371.937 341.4 370.937 341.667 370.164 342.2C369.39 342.733 369.004 343.493 369.004 344.48C369.004 345.147 369.217 345.693 369.644 346.12C370.07 346.547 370.617 346.92 371.284 347.24C371.977 347.56 372.71 347.867 373.484 348.16L376.924 349.64C378.044 350.067 379.03 350.587 379.884 351.2C380.737 351.813 381.404 352.573 381.884 353.48C382.364 354.36 382.604 355.44 382.604 356.72C382.604 358.133 382.217 359.427 381.444 360.6C380.67 361.773 379.564 362.72 378.124 363.44C376.684 364.133 374.95 364.48 372.924 364.48ZM388.188 364V360.08H394.508V341.76H388.188V337.84H405.468V341.76H399.148V360.08H405.468V364H388.188ZM418.493 364V341.72H410.253V337.84H431.373V341.72H423.133V364H418.493ZM436.917 364V337.84H453.677V341.76H441.557V348.44H451.837V352.36H441.557V360.08H454.077V364H436.917ZM496.766 364.48C494.499 364.48 492.766 363.813 491.566 362.48C490.392 361.12 489.806 359.24 489.806 356.84V339.4H483.406V335.76H494.406V357.08C494.406 358.413 494.739 359.36 495.406 359.92C496.099 360.453 496.939 360.72 497.926 360.72C498.432 360.72 498.952 360.667 499.486 360.56C500.019 360.427 500.619 360.227 501.286 359.96L502.366 363.36C501.432 363.68 500.552 363.947 499.726 364.16C498.926 364.373 497.939 364.48 496.766 364.48ZM516.75 364.48C515.017 364.48 513.403 364.08 511.91 363.28C510.417 362.453 509.203 361.28 508.27 359.76C507.337 358.213 506.87 356.36 506.87 354.2C506.87 352.013 507.337 350.16 508.27 348.64C509.203 347.093 510.417 345.92 511.91 345.12C513.403 344.293 515.017 343.88 516.75 343.88C518.483 343.88 520.097 344.293 521.59 345.12C523.083 345.92 524.297 347.093 525.23 348.64C526.163 350.16 526.63 352.013 526.63 354.2C526.63 356.36 526.163 358.213 525.23 359.76C524.297 361.28 523.083 362.453 521.59 363.28C520.097 364.08 518.483 364.48 516.75 364.48ZM516.75 360.72C517.817 360.72 518.737 360.453 519.51 359.92C520.283 359.387 520.87 358.627 521.27 357.64C521.67 356.653 521.87 355.507 521.87 354.2C521.87 352.893 521.67 351.747 521.27 350.76C520.87 349.773 520.283 349.013 519.51 348.48C518.737 347.92 517.817 347.64 516.75 347.64C515.683 347.64 514.763 347.92 513.99 348.48C513.243 349.013 512.657 349.773 512.23 350.76C511.83 351.747 511.63 352.893 511.63 354.2C511.63 355.507 511.83 356.653 512.23 357.64C512.657 358.627 513.243 359.387 513.99 359.92C514.763 360.453 515.683 360.72 516.75 360.72ZM542.494 364.48C540.441 364.48 538.588 364.08 536.934 363.28C535.308 362.453 534.014 361.28 533.054 359.76C532.121 358.213 531.654 356.36 531.654 354.2C531.654 352.013 532.161 350.16 533.174 348.64C534.214 347.093 535.588 345.92 537.294 345.12C539.001 344.293 540.841 343.88 542.814 343.88C544.414 343.88 545.828 344.147 547.054 344.68C548.281 345.187 549.294 345.84 550.094 346.64L547.894 349.52C547.121 348.907 546.334 348.44 545.534 348.12C544.761 347.8 543.934 347.64 543.054 347.64C541.748 347.64 540.588 347.92 539.574 348.48C538.588 349.013 537.814 349.773 537.254 350.76C536.694 351.747 536.414 352.893 536.414 354.2C536.414 355.507 536.681 356.653 537.214 357.64C537.774 358.627 538.534 359.387 539.494 359.92C540.481 360.453 541.628 360.72 542.934 360.72C544.054 360.72 545.081 360.507 546.014 360.08C546.948 359.653 547.788 359.147 548.534 358.56L550.454 361.52C549.334 362.48 548.081 363.213 546.694 363.72C545.308 364.227 543.908 364.48 542.494 364.48ZM562.119 364.48C560.839 364.48 559.705 364.24 558.719 363.76C557.732 363.253 556.959 362.573 556.399 361.72C555.839 360.867 555.559 359.867 555.559 358.72C555.559 356.533 556.599 354.867 558.679 353.72C560.785 352.547 564.265 351.787 569.119 351.44C569.065 350.72 568.865 350.067 568.519 349.48C568.199 348.893 567.705 348.44 567.039 348.12C566.372 347.773 565.505 347.6 564.439 347.6C563.692 347.6 562.959 347.693 562.239 347.88C561.519 348.067 560.799 348.32 560.079 348.64C559.385 348.96 558.692 349.307 557.999 349.68L556.319 346.6C557.119 346.12 557.999 345.68 558.959 345.28C559.919 344.853 560.932 344.52 561.999 344.28C563.065 344.013 564.159 343.88 565.279 343.88C567.119 343.88 568.652 344.213 569.879 344.88C571.132 345.52 572.079 346.48 572.719 347.76C573.385 349.013 573.719 350.547 573.719 352.36V364H569.959L569.599 361.56H569.479C568.439 362.36 567.279 363.053 565.999 363.64C564.745 364.2 563.452 364.48 562.119 364.48ZM563.519 360.88C564.505 360.88 565.452 360.667 566.359 360.24C567.292 359.787 568.212 359.2 569.119 358.48V354.32C566.772 354.48 564.932 354.747 563.599 355.12C562.265 355.467 561.332 355.92 560.799 356.48C560.265 357.04 559.999 357.667 559.999 358.36C559.999 358.947 560.159 359.427 560.479 359.8C560.799 360.173 561.212 360.453 561.719 360.64C562.252 360.8 562.852 360.88 563.519 360.88ZM592.703 364.48C590.436 364.48 588.703 363.813 587.503 362.48C586.33 361.12 585.743 359.24 585.743 356.84V339.4H579.343V335.76H590.343V357.08C590.343 358.413 590.676 359.36 591.343 359.92C592.036 360.453 592.876 360.72 593.863 360.72C594.37 360.72 594.89 360.667 595.423 360.56C595.956 360.427 596.556 360.227 597.223 359.96L598.303 363.36C597.37 363.68 596.49 363.947 595.663 364.16C594.863 364.373 593.876 364.48 592.703 364.48ZM603.968 364V335.76H608.608V343.04L608.328 347.24H608.448C609.301 346.333 610.288 345.547 611.408 344.88C612.554 344.213 613.874 343.88 615.368 343.88C617.634 343.88 619.301 344.573 620.368 345.96C621.434 347.347 621.968 349.307 621.968 351.84V364H617.328V352.44C617.328 350.867 617.048 349.707 616.488 348.96C615.928 348.213 614.981 347.84 613.648 347.84C612.688 347.84 611.834 348.067 611.088 348.52C610.341 348.973 609.514 349.667 608.608 350.6V364H603.968ZM636.672 364.48C634.939 364.48 633.325 364.08 631.832 363.28C630.339 362.453 629.125 361.28 628.192 359.76C627.259 358.213 626.792 356.36 626.792 354.2C626.792 352.013 627.259 350.16 628.192 348.64C629.125 347.093 630.339 345.92 631.832 345.12C633.325 344.293 634.939 343.88 636.672 343.88C638.405 343.88 640.019 344.293 641.512 345.12C643.005 345.92 644.219 347.093 645.152 348.64C646.085 350.16 646.552 352.013 646.552 354.2C646.552 356.36 646.085 358.213 645.152 359.76C644.219 361.28 643.005 362.453 641.512 363.28C640.019 364.08 638.405 364.48 636.672 364.48ZM636.672 360.72C637.739 360.72 638.659 360.453 639.432 359.92C640.205 359.387 640.792 358.627 641.192 357.64C641.592 356.653 641.792 355.507 641.792 354.2C641.792 352.893 641.592 351.747 641.192 350.76C640.792 349.773 640.205 349.013 639.432 348.48C638.659 347.92 637.739 347.64 636.672 347.64C635.605 347.64 634.685 347.92 633.912 348.48C633.165 349.013 632.579 349.773 632.152 350.76C631.752 351.747 631.552 352.893 631.552 354.2C631.552 355.507 631.752 356.653 632.152 357.64C632.579 358.627 633.165 359.387 633.912 359.92C634.685 360.453 635.605 360.72 636.672 360.72ZM660.776 364.48C658.936 364.48 657.176 364.187 655.496 363.6C653.816 362.987 652.363 362.267 651.136 361.44L653.136 358.52C654.31 359.293 655.576 359.907 656.936 360.36C658.296 360.787 659.776 361 661.376 361C662.736 361 663.736 360.773 664.376 360.32C665.043 359.84 665.376 359.28 665.376 358.64C665.376 358.32 665.296 358.027 665.136 357.76C665.003 357.493 664.75 357.253 664.376 357.04C664.003 356.8 663.456 356.573 662.736 356.36C662.016 356.147 661.083 355.92 659.936 355.68C657.323 355.12 655.403 354.36 654.176 353.4C652.95 352.44 652.336 351.227 652.336 349.76C652.336 348.027 653.083 346.613 654.576 345.52C656.096 344.427 658.23 343.88 660.976 343.88C662.603 343.88 664.123 344.147 665.536 344.68C666.976 345.213 668.19 345.813 669.176 346.48L667.056 349.32C666.123 348.68 665.096 348.2 663.976 347.88C662.856 347.533 661.723 347.36 660.576 347.36C659.696 347.36 658.99 347.453 658.456 347.64C657.95 347.827 657.563 348.093 657.296 348.44C657.056 348.76 656.936 349.12 656.936 349.52C656.936 350.213 657.336 350.733 658.136 351.08C658.936 351.427 660.243 351.8 662.056 352.2C664.163 352.653 665.79 353.173 666.936 353.76C668.083 354.32 668.87 354.973 669.296 355.72C669.75 356.44 669.976 357.333 669.976 358.4C669.976 359.52 669.616 360.547 668.896 361.48C668.203 362.387 667.176 363.12 665.816 363.68C664.456 364.213 662.776 364.48 660.776 364.48ZM688.281 364.48C686.281 364.48 684.694 364.133 683.521 363.44C682.347 362.72 681.507 361.733 681.001 360.48C680.494 359.227 680.241 357.773 680.241 356.12V348H675.001V344.56L680.441 344.36L681.041 338.2H684.841V344.36H693.801V348H684.841V356.08C684.841 357.147 684.987 358.04 685.281 358.76C685.574 359.453 686.054 359.973 686.721 360.32C687.387 360.64 688.267 360.8 689.361 360.8C690.214 360.8 690.987 360.733 691.681 360.6C692.374 360.467 693.041 360.28 693.681 360.04L694.561 363.36C693.681 363.653 692.734 363.907 691.721 364.12C690.707 364.36 689.561 364.48 688.281 364.48ZM708.625 350.88C707.505 350.88 706.558 350.493 705.785 349.72C705.038 348.947 704.665 347.987 704.665 346.84C704.665 345.667 705.038 344.707 705.785 343.96C706.558 343.187 707.505 342.8 708.625 342.8C709.772 342.8 710.718 343.187 711.465 343.96C712.212 344.707 712.585 345.667 712.585 346.84C712.585 347.987 712.212 348.947 711.465 349.72C710.718 350.493 709.772 350.88 708.625 350.88ZM708.625 364.48C707.505 364.48 706.558 364.093 705.785 363.32C705.038 362.547 704.665 361.587 704.665 360.44C704.665 359.267 705.038 358.307 705.785 357.56C706.558 356.787 707.505 356.4 708.625 356.4C709.772 356.4 710.718 356.787 711.465 357.56C712.212 358.307 712.585 359.267 712.585 360.44C712.585 361.587 712.212 362.547 711.465 363.32C710.718 364.093 709.772 364.48 708.625 364.48ZM731.929 364.48C730.463 364.48 729.143 364.32 727.969 364C726.823 363.68 725.796 363.253 724.889 362.72C723.983 362.16 723.223 361.547 722.609 360.88L724.769 357.92C725.623 358.693 726.609 359.36 727.729 359.92C728.876 360.453 730.143 360.72 731.529 360.72C732.569 360.72 733.503 360.573 734.329 360.28C735.156 359.96 735.796 359.52 736.249 358.96C736.729 358.373 736.969 357.68 736.969 356.88C736.969 356 736.703 355.24 736.169 354.6C735.636 353.96 734.756 353.467 733.529 353.12C732.303 352.747 730.636 352.56 728.529 352.56V349.2C730.369 349.2 731.836 349.027 732.929 348.68C734.023 348.307 734.823 347.827 735.329 347.24C735.836 346.627 736.089 345.92 736.089 345.12C736.089 344.053 735.676 343.227 734.849 342.64C734.049 342.027 732.969 341.72 731.609 341.72C730.516 341.72 729.489 341.947 728.529 342.4C727.569 342.827 726.663 343.4 725.809 344.12L723.409 341.28C724.583 340.32 725.863 339.547 727.249 338.96C728.663 338.373 730.183 338.08 731.809 338.08C733.543 338.08 735.076 338.347 736.409 338.88C737.769 339.387 738.823 340.147 739.569 341.16C740.343 342.147 740.729 343.36 740.729 344.8C740.729 346.213 740.263 347.4 739.329 348.36C738.396 349.32 737.143 350.08 735.569 350.64V350.8C736.689 351.067 737.703 351.48 738.609 352.04C739.543 352.6 740.276 353.307 740.809 354.16C741.343 355.013 741.609 356 741.609 357.12C741.609 358.667 741.156 360 740.249 361.12C739.369 362.213 738.196 363.053 736.729 363.64C735.289 364.2 733.689 364.48 731.929 364.48ZM756.594 364.48C754.674 364.48 753.007 363.96 751.594 362.92C750.18 361.88 749.087 360.373 748.314 358.4C747.54 356.427 747.154 354.013 747.154 351.16C747.154 346.867 748.007 343.613 749.714 341.4C751.42 339.187 753.714 338.08 756.594 338.08C759.5 338.08 761.794 339.187 763.474 341.4C765.18 343.613 766.034 346.867 766.034 351.16C766.034 354.013 765.647 356.427 764.874 358.4C764.127 360.373 763.047 361.88 761.634 362.92C760.22 363.96 758.54 364.48 756.594 364.48ZM756.594 360.88C757.607 360.88 758.514 360.56 759.314 359.92C760.114 359.253 760.74 358.213 761.194 356.8C761.647 355.36 761.874 353.48 761.874 351.16C761.874 348.84 761.647 346.987 761.194 345.6C760.74 344.213 760.114 343.213 759.314 342.6C758.514 341.987 757.607 341.68 756.594 341.68C755.58 341.68 754.674 341.987 753.874 342.6C753.074 343.213 752.447 344.213 751.994 345.6C751.54 346.987 751.314 348.84 751.314 351.16C751.314 353.48 751.54 355.36 751.994 356.8C752.447 358.213 753.074 359.253 753.874 359.92C754.674 360.56 755.58 360.88 756.594 360.88ZM756.594 353.84C755.847 353.84 755.194 353.587 754.634 353.08C754.1 352.573 753.834 351.88 753.834 351C753.834 350.12 754.1 349.427 754.634 348.92C755.194 348.413 755.847 348.16 756.594 348.16C757.367 348.16 758.02 348.413 758.554 348.92C759.087 349.427 759.354 350.12 759.354 351C759.354 351.88 759.087 352.573 758.554 353.08C758.02 353.587 757.367 353.84 756.594 353.84ZM780.578 364.48C778.658 364.48 776.991 363.96 775.578 362.92C774.165 361.88 773.071 360.373 772.298 358.4C771.525 356.427 771.138 354.013 771.138 351.16C771.138 346.867 771.991 343.613 773.698 341.4C775.405 339.187 777.698 338.08 780.578 338.08C783.485 338.08 785.778 339.187 787.458 341.4C789.165 343.613 790.018 346.867 790.018 351.16C790.018 354.013 789.631 356.427 788.858 358.4C788.111 360.373 787.031 361.88 785.618 362.92C784.205 363.96 782.525 364.48 780.578 364.48ZM780.578 360.88C781.591 360.88 782.498 360.56 783.298 359.92C784.098 359.253 784.725 358.213 785.178 356.8C785.631 355.36 785.858 353.48 785.858 351.16C785.858 348.84 785.631 346.987 785.178 345.6C784.725 344.213 784.098 343.213 783.298 342.6C782.498 341.987 781.591 341.68 780.578 341.68C779.565 341.68 778.658 341.987 777.858 342.6C777.058 343.213 776.431 344.213 775.978 345.6C775.525 346.987 775.298 348.84 775.298 351.16C775.298 353.48 775.525 355.36 775.978 356.8C776.431 358.213 777.058 359.253 777.858 359.92C778.658 360.56 779.565 360.88 780.578 360.88ZM780.578 353.84C779.831 353.84 779.178 353.587 778.618 353.08C778.085 352.573 777.818 351.88 777.818 351C777.818 350.12 778.085 349.427 778.618 348.92C779.178 348.413 779.831 348.16 780.578 348.16C781.351 348.16 782.005 348.413 782.538 348.92C783.071 349.427 783.338 350.12 783.338 351C783.338 351.88 783.071 352.573 782.538 353.08C782.005 353.587 781.351 353.84 780.578 353.84ZM804.563 364.48C802.643 364.48 800.976 363.96 799.563 362.92C798.149 361.88 797.056 360.373 796.283 358.4C795.509 356.427 795.123 354.013 795.123 351.16C795.123 346.867 795.976 343.613 797.683 341.4C799.389 339.187 801.683 338.08 804.563 338.08C807.469 338.08 809.763 339.187 811.443 341.4C813.149 343.613 814.003 346.867 814.003 351.16C814.003 354.013 813.616 356.427 812.843 358.4C812.096 360.373 811.016 361.88 809.603 362.92C808.189 363.96 806.509 364.48 804.563 364.48ZM804.563 360.88C805.576 360.88 806.483 360.56 807.283 359.92C808.083 359.253 808.709 358.213 809.163 356.8C809.616 355.36 809.843 353.48 809.843 351.16C809.843 348.84 809.616 346.987 809.163 345.6C808.709 344.213 808.083 343.213 807.283 342.6C806.483 341.987 805.576 341.68 804.563 341.68C803.549 341.68 802.643 341.987 801.843 342.6C801.043 343.213 800.416 344.213 799.963 345.6C799.509 346.987 799.283 348.84 799.283 351.16C799.283 353.48 799.509 355.36 799.963 356.8C800.416 358.213 801.043 359.253 801.843 359.92C802.643 360.56 803.549 360.88 804.563 360.88ZM804.563 353.84C803.816 353.84 803.163 353.587 802.603 353.08C802.069 352.573 801.803 351.88 801.803 351C801.803 350.12 802.069 349.427 802.603 348.92C803.163 348.413 803.816 348.16 804.563 348.16C805.336 348.16 805.989 348.413 806.523 348.92C807.056 349.427 807.323 350.12 807.323 351C807.323 351.88 807.056 352.573 806.523 353.08C805.989 353.587 805.336 353.84 804.563 353.84Z" fill="white"/>
<path d="M859.99 365.78C857.91 364.14 856.26 362.19 855.04 359.93C853.84 357.65 853.24 355.06 853.24 352.16C853.24 349.26 853.84 346.67 855.04 344.39C856.26 342.11 857.91 340.16 859.99 338.54L861.34 339.8C859.34 341.48 857.86 343.33 856.9 345.35C855.94 347.37 855.46 349.64 855.46 352.16C855.46 354.68 855.94 356.95 856.9 358.97C857.86 360.97 859.34 362.82 861.34 364.52L859.99 365.78ZM873.988 360.86C872.568 360.86 871.348 360.47 870.328 359.69C869.308 358.89 868.518 357.75 867.958 356.27C867.398 354.79 867.118 352.99 867.118 350.87C867.118 347.65 867.728 345.2 868.948 343.52C870.188 341.84 871.868 341 873.988 341C876.128 341 877.808 341.84 879.028 343.52C880.248 345.2 880.858 347.65 880.858 350.87C880.858 352.99 880.578 354.79 880.018 356.27C879.478 357.75 878.688 358.89 877.648 359.69C876.628 360.47 875.408 360.86 873.988 360.86ZM873.988 358.88C874.888 358.88 875.678 358.6 876.358 358.04C877.038 357.46 877.568 356.58 877.948 355.4C878.348 354.2 878.548 352.69 878.548 350.87C878.548 349.03 878.348 347.53 877.948 346.37C877.568 345.21 877.038 344.36 876.358 343.82C875.678 343.26 874.888 342.98 873.988 342.98C873.108 342.98 872.318 343.26 871.618 343.82C870.938 344.36 870.398 345.21 869.998 346.37C869.618 347.53 869.428 349.03 869.428 350.87C869.428 352.69 869.618 354.2 869.998 355.4C870.398 356.58 870.938 357.46 871.618 358.04C872.318 358.6 873.108 358.88 873.988 358.88ZM873.988 352.67C873.488 352.67 873.048 352.49 872.668 352.13C872.308 351.77 872.128 351.28 872.128 350.66C872.128 350.04 872.308 349.56 872.668 349.22C873.048 348.86 873.488 348.68 873.988 348.68C874.508 348.68 874.948 348.86 875.308 349.22C875.668 349.56 875.848 350.04 875.848 350.66C875.848 351.28 875.668 351.77 875.308 352.13C874.948 352.49 874.508 352.67 873.988 352.67ZM910.265 360.86C908.845 360.86 907.515 360.63 906.275 360.17C905.035 359.71 903.975 359.18 903.095 358.58L904.235 356.96C905.075 357.56 906.005 358.04 907.025 358.4C908.045 358.76 909.225 358.94 910.565 358.94C911.805 358.94 912.725 358.71 913.325 358.25C913.945 357.79 914.255 357.26 914.255 356.66C914.255 356.38 914.195 356.12 914.075 355.88C913.975 355.64 913.765 355.41 913.445 355.19C913.145 354.97 912.695 354.76 912.095 354.56C911.495 354.36 910.695 354.16 909.695 353.96C907.795 353.56 906.365 353.02 905.405 352.34C904.465 351.66 903.995 350.78 903.995 349.7C903.995 348.52 904.505 347.54 905.525 346.76C906.545 345.96 908.055 345.56 910.055 345.56C911.175 345.56 912.255 345.75 913.295 346.13C914.335 346.49 915.215 346.92 915.935 347.42L914.735 349.01C914.075 348.53 913.325 348.16 912.485 347.9C911.645 347.62 910.765 347.48 909.845 347.48C909.005 347.48 908.335 347.58 907.835 347.78C907.355 347.96 907.005 348.21 906.785 348.53C906.585 348.85 906.485 349.2 906.485 349.58C906.485 350.2 906.815 350.69 907.475 351.05C908.155 351.39 909.235 351.71 910.715 352.01C912.335 352.35 913.575 352.73 914.435 353.15C915.315 353.57 915.915 354.05 916.235 354.59C916.575 355.13 916.745 355.77 916.745 356.51C916.745 357.31 916.495 358.04 915.995 358.7C915.495 359.34 914.765 359.86 913.805 360.26C912.845 360.66 911.665 360.86 910.265 360.86ZM928.853 360.86C927.393 360.86 926.063 360.56 924.863 359.96C923.683 359.36 922.743 358.49 922.043 357.35C921.343 356.19 920.993 354.8 920.993 353.18C920.993 351.6 921.343 350.24 922.043 349.1C922.743 347.96 923.653 347.09 924.773 346.49C925.913 345.87 927.133 345.56 928.433 345.56C929.833 345.56 931.023 345.85 932.003 346.43C933.003 346.99 933.763 347.78 934.283 348.8C934.823 349.82 935.093 351.02 935.093 352.4C935.093 352.68 935.083 352.95 935.063 353.21C935.043 353.47 935.013 353.7 934.973 353.9H922.643V351.98H933.503L932.873 352.67C932.873 350.95 932.473 349.66 931.673 348.8C930.893 347.94 929.833 347.51 928.493 347.51C927.593 347.51 926.753 347.73 925.973 348.17C925.213 348.61 924.603 349.25 924.143 350.09C923.683 350.93 923.453 351.96 923.453 353.18C923.453 354.44 923.703 355.49 924.203 356.33C924.703 357.17 925.383 357.81 926.243 358.25C927.103 358.67 928.073 358.88 929.153 358.88C930.033 358.88 930.823 358.76 931.523 358.52C932.243 358.26 932.933 357.92 933.593 357.5L934.493 359.12C933.773 359.6 932.943 360.01 932.003 360.35C931.083 360.69 930.033 360.86 928.853 360.86ZM947.321 360.86C945.801 360.86 944.431 360.56 943.211 359.96C942.011 359.36 941.061 358.49 940.361 357.35C939.681 356.21 939.341 354.84 939.341 353.24C939.341 351.6 939.711 350.21 940.451 349.07C941.191 347.93 942.171 347.06 943.391 346.46C944.631 345.86 945.991 345.56 947.471 345.56C948.671 345.56 949.701 345.77 950.561 346.19C951.441 346.61 952.181 347.11 952.781 347.69L951.551 349.28C950.951 348.76 950.331 348.35 949.691 348.05C949.051 347.75 948.341 347.6 947.561 347.6C946.441 347.6 945.451 347.84 944.591 348.32C943.731 348.78 943.061 349.44 942.581 350.3C942.121 351.14 941.891 352.12 941.891 353.24C941.891 354.34 942.121 355.31 942.581 356.15C943.041 356.99 943.691 357.65 944.531 358.13C945.391 358.59 946.381 358.82 947.501 358.82C948.401 358.82 949.221 358.64 949.961 358.28C950.721 357.92 951.401 357.49 952.001 356.99L953.111 358.58C952.311 359.3 951.411 359.86 950.411 360.26C949.431 360.66 948.401 360.86 947.321 360.86ZM963.93 360.86C962.65 360.86 961.46 360.56 960.36 359.96C959.28 359.36 958.4 358.49 957.72 357.35C957.06 356.21 956.73 354.84 956.73 353.24C956.73 351.6 957.06 350.21 957.72 349.07C958.4 347.93 959.28 347.06 960.36 346.46C961.46 345.86 962.65 345.56 963.93 345.56C965.21 345.56 966.39 345.86 967.47 346.46C968.57 347.06 969.45 347.93 970.11 349.07C970.79 350.21 971.13 351.6 971.13 353.24C971.13 354.84 970.79 356.21 970.11 357.35C969.45 358.49 968.57 359.36 967.47 359.96C966.39 360.56 965.21 360.86 963.93 360.86ZM963.93 358.82C964.87 358.82 965.69 358.59 966.39 358.13C967.09 357.65 967.63 356.99 968.01 356.15C968.39 355.31 968.58 354.34 968.58 353.24C968.58 352.12 968.39 351.14 968.01 350.3C967.63 349.44 967.09 348.78 966.39 348.32C965.69 347.84 964.87 347.6 963.93 347.6C962.99 347.6 962.17 347.84 961.47 348.32C960.79 348.78 960.25 349.44 959.85 350.3C959.47 351.14 959.28 352.12 959.28 353.24C959.28 354.34 959.47 355.31 959.85 356.15C960.25 356.99 960.79 357.65 961.47 358.13C962.17 358.59 962.99 358.82 963.93 358.82ZM975.708 360.5V345.92H977.748L977.958 348.41H978.078C978.838 347.59 979.658 346.91 980.538 346.37C981.418 345.83 982.428 345.56 983.568 345.56C985.288 345.56 986.558 346.06 987.378 347.06C988.198 348.06 988.608 349.52 988.608 351.44V360.5H986.148V351.77C986.148 350.39 985.888 349.37 985.368 348.71C984.848 348.03 983.988 347.69 982.788 347.69C981.928 347.69 981.158 347.91 980.478 348.35C979.798 348.79 979.028 349.45 978.168 350.33V360.5H975.708ZM999.036 360.86C997.136 360.86 995.606 360.2 994.446 358.88C993.286 357.54 992.706 355.66 992.706 353.24C992.706 351.66 993.016 350.3 993.636 349.16C994.276 348 995.096 347.11 996.096 346.49C997.116 345.87 998.196 345.56 999.336 345.56C1000.2 345.56 1000.98 345.73 1001.68 346.07C1002.4 346.39 1003.07 346.85 1003.69 347.45H1003.78L1003.66 344.75V339.14H1006.12V360.5H1004.08L1003.87 358.58H1003.78C1003.2 359.2 1002.49 359.74 1001.65 360.2C1000.83 360.64 999.956 360.86 999.036 360.86ZM999.546 358.79C1000.27 358.79 1000.97 358.61 1001.65 358.25C1002.33 357.87 1003 357.32 1003.66 356.6V349.34C1003 348.72 1002.35 348.28 1001.71 348.02C1001.09 347.76 1000.46 347.63 999.816 347.63C998.976 347.63 998.206 347.87 997.506 348.35C996.826 348.81 996.276 349.46 995.856 350.3C995.456 351.12 995.256 352.09 995.256 353.21C995.256 354.95 995.636 356.32 996.396 357.32C997.156 358.3 998.206 358.79 999.546 358.79ZM1018.19 360.86C1016.77 360.86 1015.44 360.63 1014.2 360.17C1012.96 359.71 1011.9 359.18 1011.02 358.58L1012.16 356.96C1013 357.56 1013.93 358.04 1014.95 358.4C1015.97 358.76 1017.15 358.94 1018.49 358.94C1019.73 358.94 1020.65 358.71 1021.25 358.25C1021.87 357.79 1022.18 357.26 1022.18 356.66C1022.18 356.38 1022.12 356.12 1022 355.88C1021.9 355.64 1021.69 355.41 1021.37 355.19C1021.07 354.97 1020.62 354.76 1020.02 354.56C1019.42 354.36 1018.62 354.16 1017.62 353.96C1015.72 353.56 1014.29 353.02 1013.33 352.34C1012.39 351.66 1011.92 350.78 1011.92 349.7C1011.92 348.52 1012.43 347.54 1013.45 346.76C1014.47 345.96 1015.98 345.56 1017.98 345.56C1019.1 345.56 1020.18 345.75 1021.22 346.13C1022.26 346.49 1023.14 346.92 1023.86 347.42L1022.66 349.01C1022 348.53 1021.25 348.16 1020.41 347.9C1019.57 347.62 1018.69 347.48 1017.77 347.48C1016.93 347.48 1016.26 347.58 1015.76 347.78C1015.28 347.96 1014.93 348.21 1014.71 348.53C1014.51 348.85 1014.41 349.2 1014.41 349.58C1014.41 350.2 1014.74 350.69 1015.4 351.05C1016.08 351.39 1017.16 351.71 1018.64 352.01C1020.26 352.35 1021.5 352.73 1022.36 353.15C1023.24 353.57 1023.84 354.05 1024.16 354.59C1024.5 355.13 1024.67 355.77 1024.67 356.51C1024.67 357.31 1024.42 358.04 1023.92 358.7C1023.42 359.34 1022.69 359.86 1021.73 360.26C1020.77 360.66 1019.59 360.86 1018.19 360.86ZM1031.89 365.78L1030.54 364.52C1032.54 362.82 1034.02 360.97 1034.98 358.97C1035.94 356.95 1036.42 354.68 1036.42 352.16C1036.42 349.64 1035.94 347.37 1034.98 345.35C1034.02 343.33 1032.54 341.48 1030.54 339.8L1031.89 338.54C1033.99 340.16 1035.64 342.11 1036.84 344.39C1038.04 346.67 1038.64 349.26 1038.64 352.16C1038.64 355.06 1038.04 357.65 1036.84 359.93C1035.64 362.19 1033.99 364.14 1031.89 365.78Z" fill="white"/>
</svg>
