<svg width="400" height="130" viewBox="0 0 400 130" fill="none" xmlns="http://www.w3.org/2000/svg">
<path d="M260.15 0.214191C258.96 0.364191 258.89 0.464189 258.68 2.52419C258.19 7.31419 253.37 12.9142 248.6 14.2442C244.6 15.3542 243.27 15.4942 235.8 15.5042C227.6 15.5242 221.54 16.0842 220.22 16.9342C219.77 17.2342 218.5 17.6842 217.4 17.9542C216.3 18.2142 215.04 18.7542 214.6 19.1342C214.16 19.5142 213.35 19.9642 212.8 20.1342C212.25 20.2942 211.26 20.8542 210.6 21.3742C209.94 21.8942 208.97 22.6342 208.44 23.0242C207.57 23.6642 203.53 27.7042 201.73 29.7442C201.32 30.2042 200.68 31.1942 200.3 31.9442C199.92 32.7042 199.43 33.5942 199.22 33.9242C195.53 39.6842 193.47 54.6242 195.53 60.6642C195.96 61.9042 196.44 63.7142 196.6 64.6742C196.75 65.6442 197.21 66.9942 197.6 67.6742C197.99 68.3642 198.45 69.3742 198.61 69.9242C198.78 70.4742 199.34 71.4842 199.85 72.1642C200.37 72.8442 200.8 73.5442 200.8 73.7142C200.8 75.4042 211.81 85.1242 213.74 85.1242C213.99 85.1242 214.76 85.4742 215.44 85.8842C216.73 86.6742 221.1 88.0542 224.6 88.7842C227.96 89.4942 238.16 88.9842 240.89 87.9742C242.15 87.5042 243.43 87.1242 243.74 87.1242C244.94 87.1242 250.52 84.2442 253.59 82.0342C257.03 79.5642 262.31 73.2642 263.72 69.9542C263.96 69.3842 264.37 68.6542 264.64 68.3242C264.91 67.9942 265.43 66.5542 265.8 65.1342C266.16 63.7042 266.63 62.2242 266.84 61.8442C268.06 59.5642 267.92 44.0942 266.65 41.6142C266.34 41.0142 265.96 39.8942 265.8 39.1242C265.41 37.2542 263.35 32.9742 261.72 30.6242C259.91 28.0342 260 27.3242 262.47 25.1542C268.86 19.5242 272.96 13.4342 273.8 8.33419C273.97 7.34419 274.35 5.83421 274.65 4.98421C275.72 1.94421 275.42 0.464192 273.7 0.184192C272.12 -0.0758076 262.28 -0.0558088 260.15 0.214191ZM31.6 17.9842C29.73 18.1742 27.75 18.5742 27.2 18.8742C26.65 19.1642 25.3 19.6442 24.2 19.9342C23.1 20.2242 21.77 20.7942 21.24 21.1942C20.72 21.5942 20.07 21.9242 19.81 21.9242C19.55 21.9242 18.63 22.4642 17.77 23.1142C16.9 23.7642 16.04 24.3042 15.84 24.3142C15.44 24.3242 14.97 24.7542 11.2 28.4942C9.77 29.9242 8.19 31.6742 7.69 32.4042C5.56 35.4842 4.87 36.7042 4.39 38.1742C4.12 39.0242 3.67 39.9942 3.39 40.3242C3.11 40.6542 2.66 41.9942 2.39 43.3042C1.79 46.2542 1.23 47.5242 0.529999 47.5242C0.0999988 47.5242 0 48.9742 0 54.7242C0 60.4742 0.0999988 61.9242 0.529999 61.9242C1.18 61.9242 1.86001 63.3442 2.42001 65.8542C2.65001 66.8842 3.28 68.6542 3.82 69.8042C4.36 70.9442 4.8 72.1542 4.8 72.5042C4.8 72.8442 4.96 73.1242 5.15 73.1242C5.35 73.1242 5.85 73.8042 6.26 74.6242C7.56 77.2542 12.63 83.1242 13.6 83.1242C13.79 83.1242 14.19 83.4442 14.47 83.8442C14.76 84.2342 15.63 84.9442 16.4 85.4142C29.68 93.5042 44.35 93.4442 58.4 85.2342C60.43 84.0442 67.6 76.9742 67.6 76.1542C67.6 75.8642 67.87 75.3942 68.2 75.1242C68.53 74.8442 69.33 73.5142 69.97 72.1742C77 57.3842 74.74 39.6542 64.41 28.5842C62.54 26.5842 57.15 22.3242 56.48 22.3242C56.28 22.3242 55.49 21.9042 54.74 21.3942C53.98 20.8842 52.47 20.2342 51.38 19.9642C50.29 19.6942 49.02 19.2342 48.57 18.9342C46.84 17.8142 38 17.3242 31.6 17.9842ZM129.2 18.0042C127.33 18.2142 125.44 18.6042 125 18.8942C124.56 19.1742 123.48 19.6342 122.6 19.9242C121.72 20.2142 120.33 20.8742 119.5 21.3842C118.68 21.9042 117.89 22.3242 117.75 22.3242C117.6 22.3242 116.56 23.1042 115.44 24.0642C111.31 27.5742 109.34 26.6042 107.61 20.2242C107.57 20.0942 107.4 19.4642 107.09 18.3242C103.94 18.3242 102.19 18.3242 101.84 18.3242C98.96 18.3142 96.22 18.2142 95.76 18.0842C93.51 17.4842 93.6 16.0242 93.6 54.1842C93.6 77.5442 93.73 89.4342 94.01 89.9542C94.37 90.6242 110.78 91.2642 111.27 90.6242C111.32 90.5742 111.45 80.9742 111.57 69.3042C111.77 50.7942 111.88 47.9642 112.44 47.1042C112.79 46.5642 113.29 45.4742 113.55 44.6842C115.53 38.6442 126.46 33.5042 135.24 34.4942C138.7 34.8942 138.8 34.6542 138.8 25.7042C138.8 25.2142 138.8 22.8042 138.8 18.4542C138.18 18.1742 137.85 18.0242 137.78 17.9842C136.62 17.4642 134.11 17.4642 129.2 18.0042ZM366.31 17.9542C364.62 18.1342 362.82 18.5442 362.31 18.8642C361.81 19.1742 360.7 19.6542 359.84 19.9242C357.72 20.6042 354.57 22.6542 352.44 24.7442C349 28.1242 346.35 27.5842 345.56 23.3442C345.36 22.2642 344.88 20.6942 344.5 19.8642C344.45 19.7642 344.22 19.2542 343.8 18.3442L337.35 18.3342L330.9 18.3242C330.75 19.0742 330.66 19.4942 330.65 19.5742C330.51 20.2642 330.4 35.9942 330.4 54.5242C330.4 73.0642 330.51 88.7842 330.65 89.4742C330.66 89.5542 330.75 89.9742 330.9 90.7242C335.88 90.7242 338.65 90.7242 339.2 90.7242C346.41 90.7242 347.54 90.6442 347.75 90.0942C347.89 89.7442 348 81.8642 348 72.5942C348.01 56.2142 348.13 54.0442 349.36 48.1242C352.42 33.3542 372.94 27.3642 378.63 39.5742C378.97 40.3242 379.5 41.3842 379.81 41.9542C380.9 43.9442 381.21 50.1342 381.19 69.3842C381.18 83.3842 381.31 88.9342 381.65 89.6842C381.68 89.7542 381.84 90.1042 382.12 90.7242H391.06H400C400 76.3242 400 68.3242 400 66.7242C400 46.5142 399.91 42.7242 399.44 42.7242C399.09 42.7242 398.64 41.7342 398.2 40.0242C397.83 38.5442 397 35.9342 396.36 34.2442C395.72 32.5542 395.2 30.9742 395.2 30.7442C395.2 30.5142 395.02 30.3242 394.82 30.3242C394.61 30.3242 394.16 29.7442 393.82 29.0242C392.93 27.1542 388.69 22.3242 387.94 22.3242C387.78 22.3242 387.15 21.9042 386.53 21.3842C385.91 20.8642 384.68 20.2042 383.8 19.9242C382.92 19.6342 381.84 19.1742 381.4 18.8942C379.71 17.8142 372.11 17.3442 366.31 17.9542ZM158.49 54.4242L158.6 90.5242L166.84 90.6342L175.09 90.7442C175.24 89.8342 175.32 89.3342 175.34 89.2342C175.66 87.2642 175.66 21.7842 175.34 19.8242C175.32 19.7242 175.24 19.2242 175.09 18.3242H166.74H158.39L158.49 54.4242ZM290.64 18.9542C290.32 19.7842 290.33 88.6442 290.65 89.8242C290.97 91.0142 306.9 91.2742 307.35 90.0942C307.49 89.7442 307.6 73.4542 307.6 53.8942C307.6 51.5242 307.6 39.6642 307.6 18.3242C302.58 18.3242 299.8 18.3242 299.24 18.3242C291.99 18.3242 290.85 18.4042 290.64 18.9542ZM236.47 32.0942C237.06 32.3942 238.07 32.7642 238.71 32.9042C240.58 33.3142 245.38 37.3642 246.41 39.4142C246.72 40.0242 247.28 40.9342 247.65 41.4342C248.03 41.9342 248.45 43.0642 248.6 43.9542C248.75 44.8342 249.16 46.1342 249.52 46.8342C250.45 48.6842 250.46 56.7242 249.53 58.9342C249.17 59.8142 248.65 61.3842 248.38 62.4242C248.11 63.4742 247.76 64.3242 247.59 64.3242C247.43 64.3242 247.05 64.9142 246.76 65.6242C244.13 72.0442 229.27 76.9742 224.79 72.9142C224.43 72.5942 223.86 72.3242 223.53 72.3242C222.04 72.3242 215.6 66.6542 215.6 65.3442C215.6 65.1842 215.26 64.5742 214.84 63.9842C212.9 61.2442 211.47 52.6242 212.38 49.1242C212.58 48.3542 212.99 46.7342 213.29 45.5242C214.62 40.2142 219.43 34.8342 224.68 32.7942C228.29 31.3842 234.42 31.0142 236.47 32.0942ZM45.28 34.6742C48.02 35.9442 52.8 40.1342 52.8 41.2642C52.8 41.5742 53.06 42.0442 53.38 42.3042C53.69 42.5742 54.16 43.4542 54.41 44.2542C54.66 45.0642 55.16 46.3542 55.52 47.1242C56.5 49.2142 56.7 58.2942 55.81 60.7242C55.45 61.7142 54.9 63.3542 54.58 64.3742C54.26 65.3942 53.72 66.4542 53.4 66.7242C53.07 66.9942 52.8 67.4542 52.8 67.7342C52.8 68.9442 47.27 73.7542 45.4 74.1642C44.75 74.3142 43.76 74.7242 43.22 75.0742C41.83 75.9842 33.81 76.0042 32.38 75.1042C31.84 74.7642 30.62 74.2542 29.68 73.9842C28.73 73.7042 27.85 73.2242 27.73 72.9042C27.61 72.5842 27.29 72.3242 27.02 72.3242C26.75 72.3242 25.62 71.3342 24.51 70.1342C18.11 63.2142 16.68 52.2642 21.02 43.5242C22.12 41.3042 22.27 41.0942 24.29 38.9242C29.52 33.3142 38.45 31.5042 45.28 34.6742ZM200 107.164C193.8 113.454 193.79 113.584 198.9 117.024C199.72 117.574 200.4 118.164 200.4 118.334C200.4 118.494 200.94 118.854 201.6 119.124C202.26 119.394 202.8 119.734 202.8 119.884C202.8 120.024 203.47 120.494 204.3 120.914C205.12 121.334 206.07 121.894 206.4 122.134C206.73 122.384 207.63 122.834 208.4 123.124C209.17 123.414 210.07 123.854 210.4 124.094C211.06 124.584 217.19 126.564 222.2 127.924C235.66 131.564 255.86 126.264 267.49 116.024C268.05 115.534 268.64 115.124 268.79 115.124C269.1 115.124 270 113.304 270 112.674C270 112.074 260.75 102.694 259.8 102.334C259.22 102.114 258.64 102.324 257.72 103.074C254.44 105.754 250.51 108.324 249.68 108.324C249.38 108.324 248.87 108.594 248.55 108.914C248.23 109.234 247.2 109.704 246.28 109.954C245.35 110.204 244.15 110.634 243.6 110.924C240.11 112.724 224.54 112.754 221.8 110.964C221.35 110.664 220.22 110.294 219.3 110.144C218.38 109.984 217.2 109.524 216.68 109.114C216.16 108.704 215.26 108.254 214.68 108.114C214.1 107.964 213.41 107.584 213.14 107.264C212.88 106.944 212.06 106.424 211.32 106.124C210.59 105.814 209.88 105.284 209.75 104.944C209.62 104.604 209.27 104.324 208.98 104.324C208.69 104.324 208.12 103.904 207.72 103.384C206.1 101.324 205.41 101.664 200 107.164Z" fill="#ffffff"/>
</svg>
