<svg width="59" height="59" viewBox="0 0 59 59" fill="none" xmlns="http://www.w3.org/2000/svg">
<path d="M46.8809 46.88C56.4929 37.2679 56.4929 21.7066 46.8809 12.1191" stroke="#1038C7" stroke-width="6.28241" stroke-linecap="round" stroke-linejoin="round"/>
<path d="M12.1212 12.1191C2.50909 21.7312 2.50909 37.2925 12.1212 46.88" stroke="#1038C7" stroke-width="6.28241" stroke-linecap="round" stroke-linejoin="round"/>
<path d="M21.3867 52.6318C24.0171 53.5414 26.7459 53.984 29.4992 53.984C32.2525 53.9595 34.9812 53.5414 37.6117 52.6318" stroke="#1038C7" stroke-width="6.28241" stroke-linecap="round" stroke-linejoin="round"/>
<path d="M21.3867 6.36685C24.0171 5.45727 26.7459 5.01465 29.4992 5.01465C32.2525 5.01465 34.9812 5.45727 37.6117 6.36685" stroke="#1038C7" stroke-width="6.28241" stroke-linecap="round" stroke-linejoin="round"/>
<path d="M21.4854 29.5005V25.3951C21.4854 20.2818 25.0992 18.1922 29.5242 20.7488L33.0887 22.8139L36.6533 24.8788C41.0783 27.4355 41.0783 31.6147 36.6533 34.1714L33.0887 36.2363L29.5242 38.3014C25.0992 40.858 21.4854 38.7684 21.4854 33.6551V29.5005Z" stroke="#1038C7" stroke-width="6.28241" stroke-miterlimit="10" stroke-linecap="round" stroke-linejoin="round"/>
</svg>
