<?xml version="1.0" encoding="UTF-8" standalone="no"?>
<svg
   xmlns:dc="http://purl.org/dc/elements/1.1/"
   xmlns:cc="http://creativecommons.org/ns#"
   xmlns:rdf="http://www.w3.org/1999/02/22-rdf-syntax-ns#"
   xmlns:svg="http://www.w3.org/2000/svg"
   xmlns="http://www.w3.org/2000/svg"
   xmlns:sodipodi="http://sodipodi.sourceforge.net/DTD/sodipodi-0.dtd"
   xmlns:inkscape="http://www.inkscape.org/namespaces/inkscape"
   width="243"
   height="51"
   viewBox="0 0 243 51"
   fill="none"
   version="1.1"
   id="svg88"
   sodipodi:docname="testimonial-vitau.svg"
   inkscape:version="1.0.1 (3bc2e813f5, 2020-09-07)">
  <style
     id="style96"></style>
  <metadata
     id="metadata94">
    <rdf:RDF>
      <cc:Work
         rdf:about="">
        <dc:format>image/svg+xml</dc:format>
        <dc:type
           rdf:resource="http://purl.org/dc/dcmitype/StillImage" />
      </cc:Work>
    </rdf:RDF>
  </metadata>
  <defs
     id="defs92" />
  <sodipodi:namedview
     pagecolor="#ffffff"
     bordercolor="#666666"
     borderopacity="1"
     objecttolerance="10"
     gridtolerance="10"
     guidetolerance="10"
     inkscape:pageopacity="0"
     inkscape:pageshadow="2"
     inkscape:window-width="956"
     inkscape:window-height="511"
     id="namedview90"
     showgrid="false"
     inkscape:zoom="1.1069959"
     inkscape:cx="121.5"
     inkscape:cy="25.5"
     inkscape:window-x="960"
     inkscape:window-y="548"
     inkscape:window-maximized="0"
     inkscape:current-layer="svg88" />
  <path
     d="M156.555 16.4316H166.335V24.8216H156.555C156.555 31.7216 156.555 35.5516 156.555 36.3216C156.555 39.7616 158.205 41.1416 160.985 41.1416C162.435 41.1416 164.425 40.6216 165.805 39.8216C166.055 40.6616 168.005 47.3216 168.255 48.1516C165.675 49.5416 162.965 50.5916 159.205 50.5916C150.945 50.5916 145.985 46.1016 145.985 37.3816C145.985 36.5416 145.985 32.3616 145.985 24.8216H139.975V16.4316H145.985V5.3316H156.555V16.4316ZM202.415 28.5916C202.415 29.9916 202.415 36.9916 202.415 49.6016H192.235C192.235 48.1416 192.235 47.3216 192.235 47.1616C189.925 49.1416 186.755 50.5916 182.325 50.5916C174.925 50.5916 169.975 46.3016 169.975 39.7616C169.975 33.2816 174.925 29.0516 183.785 29.0516C184.345 29.0516 187.165 29.0516 192.235 29.0516C192.235 28.6616 192.235 28.4416 192.235 28.3916C192.235 25.6216 190.325 23.7716 187.545 23.7716C184.375 23.7716 182.525 25.0216 181.995 27.9316C180.995 27.7216 173.015 26.0916 172.015 25.8816C173.475 19.4716 179.285 15.4416 187.215 15.4416C196.535 15.4416 202.415 20.1316 202.415 28.5916ZM219.065 34.5416C219.065 38.4416 221.375 41.0816 224.745 41.0816C228.915 41.0816 231.625 38.2416 231.625 31.8316C231.625 30.8016 231.625 25.6716 231.625 16.4316H242.195V49.6016H231.625C231.625 47.7016 231.625 46.6416 231.625 46.4316C229.105 49.0716 225.605 50.5916 221.445 50.5916C213.715 50.5916 208.555 45.1116 208.555 36.7816C208.555 35.4316 208.555 28.6416 208.555 16.4316H219.065C219.065 27.2916 219.065 33.3316 219.065 34.5416ZM100.985 36.8516L108.915 16.3716H120.085L106.345 49.6016H95.5752L81.8252 16.3716H92.9952L100.985 36.8516ZM135.485 49.6016H124.905V16.4316H135.485V49.6016ZM184.975 35.7916C182.325 35.7916 180.675 37.1816 180.675 39.2316C180.675 41.3416 182.525 42.6616 185.305 42.6616C188.935 42.6616 192.235 40.2216 192.235 36.5216C192.235 36.4716 192.235 36.2316 192.235 35.7916C187.875 35.7916 185.455 35.7916 184.975 35.7916ZM136.335 6.6516C136.335 10.0216 133.765 12.5316 130.195 12.5316C126.625 12.5316 124.115 10.0216 124.115 6.6516C124.115 3.4116 126.625 0.641602 130.195 0.641602C133.765 0.641602 136.335 3.4116 136.335 6.6516Z"
     fill="#BABABA"
     id="path84"
     style="fill:#ffffff" />
  <path
     d="M52.8253 43.8811C52.8253 47.5511 49.8353 50.5411 46.1653 50.5411C42.4853 50.5411 39.4953 47.5511 39.4953 43.8811C39.4953 40.2111 42.4853 37.2211 46.1653 37.2211C49.8353 37.2211 52.8253 40.2111 52.8253 43.8811ZM27.3653 43.8811C27.3653 47.5511 24.3753 50.5411 20.7053 50.5411C17.0253 50.5411 14.0453 47.5511 14.0453 43.8811C14.0453 40.2111 17.0253 37.2211 20.7053 37.2211C24.3753 37.2211 27.3653 40.2111 27.3653 43.8811ZM42.1753 43.8811C42.1753 46.0811 43.9653 47.8711 46.1653 47.8711C48.3653 47.8711 50.1553 46.0811 50.1553 43.8811C50.1553 41.6811 48.3653 39.9011 46.1653 39.9011C43.9653 39.9011 42.1753 41.6811 42.1753 43.8811ZM16.7153 43.8811C16.7153 46.0811 18.5053 47.8711 20.7053 47.8711C22.9053 47.8711 24.6953 46.0811 24.6953 43.8811C24.6953 41.6811 22.9053 39.9011 20.7053 39.9011C18.5053 39.9011 16.7153 41.6811 16.7153 43.8811ZM52.9653 17.4311C56.1853 17.5311 58.3153 19.9811 58.3153 23.4811C58.3153 32.6911 58.3153 37.8111 58.3153 38.8311C58.3153 39.5711 57.8153 40.1711 57.0753 40.1711C56.3353 40.1711 55.8453 39.5711 55.8453 38.8311C55.8453 29.6211 55.8453 24.5011 55.8453 23.4811C55.8453 22.5011 55.4953 20.2011 52.9853 20.1311C49.7253 20.0311 46.3553 20.0711 43.1253 20.1011C41.4053 20.1211 39.6553 20.1411 37.9353 20.1411C36.2453 20.1411 35.3053 20.1411 35.1153 20.1411C33.0053 20.1411 30.8953 20.1411 28.7853 20.1411C25.2553 20.1411 23.2953 20.1411 22.9053 20.1411C22.6453 20.1411 22.3753 20.1411 22.1053 20.1311C20.2553 20.1011 18.5053 20.0811 17.3753 21.1711C16.5553 21.9611 16.0053 23.0611 15.4153 24.2111C14.8553 25.3111 14.2853 26.4511 13.4253 27.4511C11.9453 29.1511 9.4353 29.9111 7.5853 30.2411C5.1053 30.6911 4.06531 31.4911 3.32531 33.5511C2.85531 34.8611 2.8753 36.3311 2.8853 37.8911C2.8953 38.1611 2.89531 38.4411 2.89531 38.7211C2.89531 39.1011 2.8753 39.5211 2.8653 39.9611C2.8053 41.5811 2.7353 43.6011 3.5153 44.4011C3.6153 44.5111 3.93531 44.8411 4.89531 44.8411C7.70531 44.8411 9.26531 44.8411 9.57531 44.8411C10.3153 44.8411 10.9153 45.5011 10.9153 46.2311C10.9153 46.9711 10.3153 47.6211 9.57531 47.6211C6.76531 47.6211 5.20531 47.6211 4.89531 47.6211C3.50531 47.6211 2.3953 47.1411 1.5853 46.3111C0.0253017 44.6911 0.115302 42.0211 0.195302 39.8911C0.205302 39.4911 0.215307 39.0911 0.215307 38.7311C0.215307 38.4611 0.215307 38.1911 0.215307 37.9211C0.195307 36.2011 0.185305 34.4111 0.815305 32.6511C1.8753 29.6911 3.70531 28.2311 7.10531 27.6111C9.12531 27.2511 10.6453 26.5711 11.3953 25.7011C12.0453 24.9511 12.5253 24.0111 13.0253 23.0111C13.6853 21.7011 14.3753 20.3611 15.5153 19.2511C17.4453 17.4011 20.0453 17.4311 22.1453 17.4611C22.3953 17.4711 22.6553 17.4711 22.9053 17.4711C26.4353 17.4411 28.3953 17.4211 28.7853 17.4211C30.8953 17.4211 32.9953 17.3611 35.1053 17.3611C36.7953 17.3611 37.7353 17.3611 37.9153 17.3611C39.6253 17.3611 41.3453 17.4011 43.0553 17.3811C46.3153 17.3411 49.6553 17.3311 52.9653 17.4311ZM36.3053 44.8411C37.0453 44.8411 37.6453 45.5011 37.6453 46.2311C37.6453 46.9711 37.0453 47.6211 36.3053 47.6211C33.1053 47.6211 31.3153 47.6211 30.9653 47.6211C30.2253 47.6211 29.6253 46.9711 29.6253 46.2311C29.6253 45.5011 30.2253 44.8411 30.9653 44.8411C33.8153 44.8411 35.5953 44.8411 36.3053 44.8411ZM33.8753 24.4011C36.8253 28.1911 38.4653 30.3011 38.7953 30.7211C40.4553 32.9011 40.0053 36.1511 37.8053 37.8211C36.9153 38.5011 35.8553 38.8611 34.7453 38.8611C33.1953 38.8611 31.7653 38.1511 30.8253 36.9111C27.8753 33.0411 26.2353 30.8911 25.9053 30.4511C24.2353 28.2611 24.6653 25.1211 26.8553 23.4511C27.7353 22.7811 28.7853 22.4311 29.8853 22.4311C31.4653 22.4311 32.9153 23.1411 33.8753 24.4011ZM69.0553 34.0411C69.7953 34.0411 70.3953 34.6911 70.3953 35.4311C70.3953 36.1611 69.7953 36.8211 69.0553 36.8211C66.2553 36.8211 64.6953 36.8211 64.3753 36.8211C63.6453 36.8211 63.0453 36.1611 63.0453 35.4311C63.0453 34.6911 63.6453 34.0411 64.3753 34.0411C66.8753 34.0411 68.4353 34.0411 69.0553 34.0411ZM31.3053 33.1411C32.2953 34.4311 32.8453 35.1511 32.9553 35.2911C33.7053 36.2811 35.1853 36.4611 36.1853 35.6911C37.2253 34.9011 37.4553 33.3711 36.6753 32.3511L35.0653 30.2811L31.3053 33.1411ZM70.3953 28.7911C71.1353 28.7911 71.7353 29.4411 71.7353 30.1811C71.7353 30.9111 71.1353 31.5711 70.3953 31.5711C66.7853 31.5711 64.7753 31.5711 64.3753 31.5711C63.6453 31.5711 63.0453 30.9111 63.0453 30.1811C63.0453 29.4411 63.6453 28.7911 64.3753 28.7911C67.5853 28.7911 69.5953 28.7911 70.3953 28.7911ZM28.4753 25.5711C27.4553 26.3511 27.2553 27.8211 28.0353 28.8411L29.6953 31.0111L33.4253 28.1711C32.4253 26.8911 31.8653 26.1711 31.7553 26.0311C31.3053 25.4311 30.6253 25.1011 29.8853 25.1011C29.3753 25.1011 28.8853 25.2611 28.4753 25.5711ZM73.0653 22.9211C73.8053 22.9211 74.4053 23.4211 74.4053 24.1511C74.4053 24.8911 73.8053 25.3911 73.0653 25.3911C67.8553 25.3911 64.9553 25.3911 64.3753 25.3911C63.6453 25.3911 63.0453 24.8911 63.0453 24.1511C63.0453 23.4211 63.6453 22.9211 64.3753 22.9211C69.0153 22.9211 71.9053 22.9211 73.0653 22.9211Z"
     fill="#BABABA"
     id="path86"
     style="fill:#ffffff" />
</svg>
