<?xml version="1.0" encoding="UTF-8" standalone="no"?>
<svg
   xmlns:dc="http://purl.org/dc/elements/1.1/"
   xmlns:cc="http://creativecommons.org/ns#"
   xmlns:rdf="http://www.w3.org/1999/02/22-rdf-syntax-ns#"
   xmlns:svg="http://www.w3.org/2000/svg"
   xmlns="http://www.w3.org/2000/svg"
   xmlns:sodipodi="http://sodipodi.sourceforge.net/DTD/sodipodi-0.dtd"
   xmlns:inkscape="http://www.inkscape.org/namespaces/inkscape"
   version="1.1"
   id="svg1765"
   width="194.8175"
   height="48.567226"
   viewBox="0 0 194.81751 48.567227"
   sodipodi:docname="experience-welcome.svg"
   inkscape:version="1.0.1 (3bc2e813f5, 2020-09-07)">
  <metadata
     id="metadata1771">
    <rdf:RDF>
      <cc:Work
         rdf:about="">
        <dc:format>image/svg+xml</dc:format>
        <dc:type
           rdf:resource="http://purl.org/dc/dcmitype/StillImage" />
        <dc:title></dc:title>
      </cc:Work>
    </rdf:RDF>
  </metadata>
  <defs
     id="defs1769" />
  <sodipodi:namedview
     pagecolor="#ffffff"
     bordercolor="#666666"
     borderopacity="1"
     objecttolerance="10"
     gridtolerance="10"
     guidetolerance="10"
     inkscape:pageopacity="0"
     inkscape:pageshadow="2"
     inkscape:window-width="1916"
     inkscape:window-height="1041"
     id="namedview1767"
     showgrid="false"
     inkscape:zoom="3.674203"
     inkscape:cx="88.593348"
     inkscape:cy="48.443155"
     inkscape:window-x="0"
     inkscape:window-y="18"
     inkscape:window-maximized="0"
     inkscape:current-layer="g1773" />
  <g
     inkscape:groupmode="layer"
     inkscape:label="Image"
     id="g1773"
     transform="translate(-11.45211,-9.2360131)">
    <g
       id="g1793"
       transform="translate(0.69056952,0.57178687)">
      <path
         style="fill:#ffffff;fill-opacity:1;stroke-width:0.607595"
         d="M 11.183569,56.273252 C 10.110647,53.477259 11.271829,23.9322 12.564622,21.133836 21.482097,1.8311763 49.854427,5.8616978 52.891371,26.86258 c 0.61691,4.266023 0.784103,27.789426 0.20818,29.290257 -0.520639,1.356765 -41.396489,1.474192 -41.915982,0.120415 z m 15.7894,-3.765984 c 2.29813,-5.988832 -1.445878,-14.504967 -6.37692,-14.504967 -4.433459,0 -6.01377,2.549903 -6.01377,9.703487 v 5.762566 h 6.010943 c 4.920694,0 6.077836,-0.17432 6.379747,-0.961086 z M 38.265137,43.898733 C 38.242977,28.00645 31.981268,21.312268 21.564409,26.044546 c -6.126664,2.783283 -9.710317,10.926582 -3.90752,8.879236 7.463562,-2.633297 12.722858,2.454211 12.722858,12.307283 0,6.429454 -0.134156,6.237289 4.354431,6.237289 h 3.544303 z m 11.253851,-4.70886 c 0,-15.723564 -0.303899,-17.058047 -4.981395,-21.87431 -8.199086,-8.4423293 -23.056506,-6.231607 -28.097027,4.180719 -1.903817,3.93276 -1.586388,4.223334 2.242978,2.053216 6.303604,-3.572279 13.913051,-2.487372 18.767422,2.67574 3.836691,4.080707 4.145544,5.267395 4.369791,16.789782 l 0.20452,10.508692 3.746855,-0.179578 3.746856,-0.179578 z m 49.183996,3.614303 c -3.993709,-1.971003 -5.305203,-8.25242 -2.435173,-11.66326 4.875649,-5.794375 16.137249,-2.742467 16.137249,4.373214 v 1.549161 h -6.34388 c -6.905471,0 -8.22973,0.59157 -5.7746,2.579615 1.14527,0.927385 2.009,1.091294 4.19794,0.796641 7.24999,-0.975916 8.5109,-0.487324 4.94462,1.915997 -2.46934,1.664086 -7.81069,1.887493 -10.726156,0.448632 z m 9.299666,-9.538354 c -0.69168,-2.097014 -6.05872,-2.708289 -8.205181,-0.934523 -1.558444,1.287846 -0.635793,1.694017 3.848101,1.694017 3.41462,0 4.54274,-0.196645 4.35708,-0.759494 z m 7.59229,10.078614 c -1.22087,-0.49263 -1.07591,-20.611991 0.1519,-21.083146 2.51503,-0.96511 2.73417,-0.119627 2.73417,10.548836 0,9.811506 -0.34666,11.676144 -2.02437,10.888741 -0.0562,-0.02638 -0.44398,-0.185876 -0.8617,-0.354431 z m 9.08238,-0.580325 c -4.2876,-2.185005 -5.22171,-8.619721 -1.75462,-12.086811 3.64802,-3.648013 11.59913,-3.272918 14.182,0.669038 2.00521,3.060345 -0.8423,4.526127 -3.43381,1.767586 -3.16155,-3.365316 -8.74937,-1.400258 -8.74937,3.076875 0,4.018263 5.15978,5.782119 8.29586,2.835918 1.79695,-1.68815 4.70667,-1.845372 4.70667,-0.254317 0,3.845234 -8.50507,6.408114 -13.24673,3.991711 z m 20.18452,0.426421 c -6.64821,-2.859622 -5.8506,-12.641397 1.19155,-14.613077 9.56857,-2.679033 16.88698,7.957682 9.33247,13.563981 -1.85379,1.375727 -8.27622,2.015952 -10.52402,1.049096 z m 8.40398,-4.353289 c 2.69739,-3.300356 0.11453,-7.461995 -4.4244,-7.128852 -3.48126,0.255512 -5.31295,2.500921 -4.46162,5.469344 1.03057,3.593382 6.47453,4.610069 8.88602,1.659508 z m 7.89874,4.507193 c -1.33973,-0.540593 -0.98726,-9.24188 0.47127,-11.634164 1.8986,-3.114072 5.01935,-4.181207 8.57022,-2.930575 2.58326,0.909832 3.00375,0.911545 5.13535,0.02091 2.85412,-1.192532 5.94343,-0.467851 8.18866,1.920873 1.91312,2.03539 2.64632,11.957768 0.93222,12.615532 -2.19684,0.843002 -2.79139,-0.154793 -2.79139,-4.684545 0,-4.921458 -1.00873,-7.057529 -3.33283,-7.057529 -2.56878,0 -3.35072,1.481559 -3.35072,6.34875 0,8.241359 -3.7311,8.213542 -4.25316,-0.03171 -0.35324,-5.57898 -0.69818,-6.31704 -2.95232,-6.31704 -2.60414,0 -3.12363,1.010478 -3.12363,6.075949 0,5.437851 -0.81157,6.755802 -3.49367,5.673551 z m 30.53164,-0.543121 c -9.62447,-4.952904 -1.67781,-17.862212 8.58326,-13.94347 7.7509,2.960092 6.81242,7.804951 -1.58944,8.205446 -5.34099,0.254592 -6.40486,0.469377 -6.5683,1.326093 -0.42709,2.238675 2.46181,2.644457 9.7517,1.369751 1.86118,-0.325444 2.27848,-0.217682 2.27848,0.588384 0,2.856738 -8.44127,4.519684 -12.4557,2.453796 z m 9.41773,-9.309197 c 0,-1.744912 -4.96904,-2.950643 -7.24316,-1.757543 -3.03041,1.58988 -2.22404,2.290741 2.63556,2.290741 2.53418,0 4.6076,-0.239939 4.6076,-0.533198 z M 73.014241,42.111434 c -1.130406,-2.12143 -4.963607,-11.976372 -4.963607,-12.761152 0,-3.051833 3.597144,-0.642033 5.164557,3.459844 1.558347,4.078152 2.469059,5.126096 3.036164,3.493671 3.436332,-9.891625 5.527011,-10.744559 8.13267,-3.317882 1.689053,4.814168 2.364675,4.878865 4.021039,0.385053 1.616859,-4.386646 1.943678,-4.814006 3.68143,-4.814006 1.978214,0 1.90385,0.749175 -0.738331,7.438844 -3.534204,8.948131 -5.909942,9.863751 -8.378054,3.228938 -1.760518,-4.732645 -2.273341,-4.758364 -4.053879,-0.203309 -1.634978,4.182653 -4.516023,5.691034 -5.901989,3.089999 z"
         id="path1797" />
    </g>
  </g>
</svg>
