<svg width="129" height="40" viewBox="0 0 129 40" fill="none" xmlns="http://www.w3.org/2000/svg">
<g clip-path="url(#clip0_5699_1778)">
<path d="M65.0924 9.2558C65.0203 9.27985 64.9091 9.33395 64.84 9.37602C64.7739 9.4181 64.6086 9.46919 64.4703 9.49023C63.8632 9.57138 63.0878 10.3227 62.8293 11.0831C62.658 11.588 62.7392 12.7451 62.9616 13.0006C63.0006 13.0457 63.0607 13.1689 63.0938 13.2711C63.178 13.5326 63.4995 13.8722 63.9353 14.1577C64.3832 14.4522 64.5214 14.4763 65.6094 14.4522C65.6605 14.4492 65.9159 14.4432 66.3758 14.4342C66.6162 14.2839 66.7514 14.1998 66.7785 14.1848C67.0069 14.0405 67.2714 13.8241 67.3976 13.6738C67.9627 13.0036 68.0047 12.8834 68.0107 11.9216V11.2124C67.8815 10.9629 67.8124 10.8277 67.7973 10.7976C67.5088 10.2506 67.3465 10.0643 66.7635 9.6375C66.7064 9.59542 66.514 9.53531 66.3397 9.50526C66.1624 9.47821 65.955 9.40908 65.8799 9.35499C65.7236 9.24378 65.2938 9.18968 65.0924 9.2558ZM47.3692 9.80881C47.1769 9.83285 47.0717 9.87493 46.9695 9.97712L46.8313 10.1154C46.8252 15.8408 46.8192 19.0236 46.8192 19.6607C46.8072 29.7922 46.7982 29.4616 47.0597 29.6389C47.0687 29.6449 47.1258 29.684 47.228 29.7531L51.8774 29.7381L56.5269 29.723C56.6922 29.6419 56.7823 29.5968 56.8004 29.5878C56.9506 29.5126 57.2061 29.4405 57.3624 29.4225C57.5307 29.4044 57.7591 29.3323 57.9124 29.2511C58.0567 29.173 58.243 29.0979 58.3271 29.0798C58.4113 29.0618 58.5796 28.9776 58.6998 28.8965C58.823 28.8153 58.9433 28.7492 58.9673 28.7492C59.3129 28.7462 60.8968 27.1864 61.0982 26.6514C61.1342 26.5552 61.1913 26.4531 61.2214 26.426C61.3236 26.3388 61.3867 26.1856 61.4258 25.9271C61.4468 25.7888 61.531 25.5484 61.6121 25.3891C61.8916 24.8511 61.8676 22.4287 61.576 21.9328C61.5099 21.8186 61.4408 21.6413 61.4228 21.5421C61.4017 21.4399 61.3326 21.3047 61.2695 21.2386C61.2034 21.1725 61.1162 21.0432 61.0771 20.9501C61.0381 20.8569 60.9569 20.7246 60.8968 20.6555C60.8367 20.5864 60.7375 20.4722 60.6774 20.4061C60.6173 20.3369 60.5031 20.2317 60.422 20.1746C60.3408 20.1175 60.1485 19.9853 59.9982 19.8801C59.8479 19.7749 59.7097 19.6697 59.6946 19.6457C59.6766 19.6186 59.5654 19.5705 59.4452 19.5345C59.1506 19.4473 59.1536 19.3692 59.4572 19.1318C60.0252 18.6869 60.6293 17.9867 60.7826 17.593C60.8277 17.4757 60.8968 17.3435 60.9359 17.2984C61.2454 16.9348 61.2545 13.5115 60.9449 13.1569C60.8908 13.0938 60.8247 12.9525 60.7946 12.8383C60.7646 12.7271 60.6894 12.5798 60.6233 12.5107C60.5602 12.4416 60.473 12.3124 60.431 12.2252C60.3138 11.9968 59.5774 11.2364 59.3791 11.1432C59.2889 11.0982 59.1837 11.026 59.1476 10.9839C59.0605 10.8788 58.8291 10.7615 58.7088 10.7615C58.6577 10.7615 58.5586 10.7044 58.4894 10.6383C58.4203 10.5692 58.24 10.482 58.0747 10.44C57.9154 10.3979 57.7501 10.3318 57.705 10.2927C57.5938 10.1935 57.2692 10.1124 56.9867 10.1124C56.8274 10.1124 56.6651 10.0673 56.4998 9.98012C56.2654 9.8569 56.1903 9.84788 55.2375 9.80881C54.0774 9.76072 47.7629 9.76072 47.3692 9.80881ZM85.3973 9.81182C85.0577 9.85089 84.8804 9.94105 84.7452 10.1484C84.6339 10.3167 84.5768 28.8454 84.685 29.2241C84.8413 29.7801 84.6279 29.7591 90.0017 29.7381C90.3053 29.7381 91.823 29.732 94.549 29.723C94.7143 29.6449 94.8074 29.5998 94.8255 29.5908C94.9757 29.5187 95.2522 29.4374 95.4356 29.4074C95.676 29.3713 95.8203 29.3203 95.9285 29.2271C96.0126 29.158 96.1449 29.0978 96.22 29.0978C96.3703 29.0978 97.0826 28.7462 97.2599 28.5839C97.323 28.5298 97.4492 28.4457 97.5454 28.4036C97.7438 28.3134 98.4651 27.6883 98.5883 27.499C98.6334 27.4298 98.7506 27.2735 98.8468 27.1503C98.943 27.0271 99.0752 26.8227 99.1353 26.6995C99.1954 26.5763 99.2946 26.4079 99.3517 26.3268C99.4118 26.2426 99.493 26.0233 99.535 25.8339C99.5801 25.6476 99.6492 25.4522 99.6943 25.4041C99.9798 25.0886 99.9137 21.9028 99.6252 21.9028C99.6042 21.9028 99.5621 21.7826 99.526 21.6353C99.493 21.488 99.4208 21.3227 99.3637 21.2716C99.3066 21.2205 99.2195 21.0973 99.1684 20.9951C99.0512 20.7667 98.3298 20.0003 98.1405 19.9042C98.0623 19.8651 97.888 19.7569 97.7558 19.6697C97.6205 19.5796 97.4733 19.5044 97.4252 19.5044C97.1367 19.5044 97.1908 19.3091 97.5424 19.0807C97.9061 18.8432 98.5733 18.164 98.5733 18.0257C98.5733 17.9957 98.6093 17.9386 98.6514 17.9025C99.0932 17.5359 99.2886 16.6072 99.2645 14.9842C99.2645 14.9031 99.2585 14.4823 99.2465 13.7309C99.1533 13.5386 99.0992 13.4304 99.0902 13.4094C99.0031 13.229 98.9039 12.9856 98.8708 12.8624C98.8137 12.643 98.7476 12.5348 98.444 12.1711C98.3599 12.0689 98.2517 11.9307 98.2066 11.8615C98.0473 11.6301 97.5995 11.1973 97.4462 11.1342C97.3651 11.0982 97.2539 11.023 97.2028 10.9659C97.1547 10.9118 97.0044 10.8307 96.8722 10.7856C96.743 10.7435 96.5957 10.6624 96.5476 10.6083C96.4965 10.5542 96.3673 10.488 96.2531 10.458C96.1419 10.4309 95.9315 10.3498 95.7872 10.2777C95.6129 10.1935 95.4115 10.1424 95.1891 10.1274C94.9788 10.1124 94.7353 10.0553 94.552 9.97712C94.1192 9.78777 86.7558 9.65553 85.3973 9.81182ZM55.4088 13.9323C55.505 13.9984 55.6523 14.0706 55.7364 14.0916C55.9558 14.1547 56.1572 14.3471 56.3435 14.6747C56.3556 14.6957 56.4097 14.7919 56.5088 14.9692C56.4968 15.4771 56.4938 15.7596 56.4908 15.8137C56.4818 16.3637 56.4577 16.6733 56.4217 16.6973C56.3916 16.7154 56.3315 16.7995 56.2864 16.8807C56.1482 17.1481 55.5441 17.605 55.3277 17.608C55.1955 17.608 54.9039 17.7192 54.8017 17.8063C54.6935 17.9025 54.6124 17.9055 53.0706 17.9055H51.4537V15.8588V13.8091H53.3411H55.2285L55.4088 13.9323ZM93.3979 13.9263C93.5091 13.9924 93.6624 14.0585 93.7375 14.0766C93.9178 14.1216 94.1583 14.3591 94.4017 14.7348C94.4167 14.7528 94.4828 14.855 94.6001 15.0323C94.5971 15.4681 94.5971 15.7115 94.5971 15.7596C94.5971 16.4298 94.588 16.499 94.4859 16.6432C94.4257 16.7274 94.3746 16.8206 94.3746 16.8536C94.3746 17.052 93.6293 17.5659 93.2386 17.635C93.1334 17.6531 92.9711 17.7162 92.8749 17.7733C92.7096 17.8785 92.6345 17.8815 91.1137 17.8965C91.0085 17.8965 90.4796 17.9025 89.5298 17.9115V15.8588V13.8091H91.3602H93.1935L93.3979 13.9263ZM74.9383 15.1044C74.2651 15.1345 74.193 15.1465 73.9796 15.2727C73.8504 15.3479 73.682 15.408 73.6069 15.408C73.3845 15.408 73.0749 15.5072 72.9607 15.6154C72.9006 15.6695 72.7684 15.7356 72.6662 15.7626C72.564 15.7927 72.3867 15.8828 72.2755 15.961C72.1673 16.0421 72.0501 16.1083 72.017 16.1083C71.8367 16.1083 70.8749 16.9828 70.4812 17.5058C70.346 17.6861 70.2017 17.8725 70.1596 17.9236C70.1206 17.9716 70.0484 18.0949 70.0034 18.1971C69.9583 18.2992 69.8711 18.4405 69.811 18.5156C69.7539 18.5878 69.6878 18.732 69.6698 18.8342C69.6517 18.9364 69.5676 19.1378 69.4864 19.282C69.3812 19.4684 69.3301 19.6397 69.3091 19.8861C69.2911 20.0875 69.249 20.2468 69.2129 20.2678C68.8793 20.4662 68.8883 24.247 69.2219 24.7249C69.261 24.779 69.2911 24.8962 69.2911 24.9864C69.2911 25.2629 69.3933 25.6386 69.4954 25.7287C69.5465 25.7768 69.6036 25.897 69.6217 25.9962C69.6607 26.2126 69.7178 26.3298 69.8741 26.5162C69.9402 26.5943 69.9913 26.6995 69.9913 26.7476C69.9913 26.7957 70.0575 26.9249 70.1386 27.0301C70.2198 27.1383 70.373 27.3367 70.4782 27.4719C70.9441 28.082 71.984 28.9776 72.3476 29.0858C72.4618 29.1189 72.6031 29.191 72.6602 29.2421C72.7173 29.2962 72.8646 29.3653 72.9908 29.3984C73.114 29.4314 73.2733 29.5006 73.3454 29.5517C73.5017 29.6659 73.8353 29.7441 74.1479 29.7471C74.3012 29.7471 74.4695 29.7952 74.6438 29.8853C74.6618 29.8943 74.752 29.9394 74.9083 30.0236H76.1616H77.4118C77.5621 29.9454 77.6462 29.9003 77.6613 29.8913C77.8506 29.7952 78.0129 29.7561 78.3225 29.735C78.638 29.714 78.7853 29.6779 78.9476 29.5848C79.0648 29.5156 79.2512 29.4345 79.3654 29.4044C79.4766 29.3744 79.6329 29.2932 79.711 29.2271C79.7891 29.161 79.9214 29.0949 80.0055 29.0768C80.0897 29.0618 80.258 28.9686 80.3782 28.8724C80.5014 28.7762 80.6186 28.6981 80.6427 28.6981C80.7298 28.6981 81.8268 27.5651 81.9982 27.2976C82.0943 27.1443 82.2085 26.991 82.2536 26.955C82.2987 26.9189 82.3348 26.8618 82.3348 26.8317C82.3348 26.8017 82.4009 26.6785 82.482 26.5582C82.5632 26.438 82.6443 26.2577 82.6624 26.1585C82.6804 26.0563 82.7495 25.894 82.8156 25.7949C82.8848 25.6897 82.9569 25.4823 82.987 25.2959C83.014 25.1216 83.0951 24.8541 83.1703 24.7009C83.1793 24.6828 83.2274 24.5927 83.3085 24.4274V22.5039V20.5804C83.2274 20.4151 83.1853 20.3219 83.1763 20.3039C83.1042 20.1536 83.017 19.8711 82.9839 19.6817C82.9509 19.4804 82.8758 19.252 82.8096 19.1498C82.7435 19.0506 82.6744 18.8853 82.6564 18.7831C82.6353 18.6809 82.5662 18.5337 82.5001 18.4555C82.437 18.3774 82.3498 18.2391 82.3107 18.149C82.0853 17.617 80.8621 16.3547 80.3331 16.1083C80.2099 16.0512 80.0326 15.949 79.9394 15.8828C79.8462 15.8137 79.726 15.7566 79.6749 15.7566C79.6208 15.7566 79.4826 15.6905 79.3684 15.6093C79.2181 15.5012 79.0799 15.4531 78.8605 15.429C78.6621 15.408 78.4968 15.3539 78.3676 15.2667C78.1001 15.0864 76.8318 15.0263 74.9383 15.1044ZM106.418 15.1044C105.717 15.1345 105.57 15.1675 105.369 15.3328C105.327 15.3659 105.158 15.411 104.993 15.429C104.777 15.4531 104.635 15.5012 104.485 15.6093C104.371 15.6905 104.233 15.7566 104.181 15.7566C104.127 15.7566 104.007 15.8137 103.914 15.8828C103.821 15.949 103.643 16.0512 103.523 16.1083C103.003 16.3487 101.717 17.6711 101.519 18.167C101.483 18.2572 101.401 18.3924 101.341 18.4645C101.281 18.5397 101.218 18.6809 101.197 18.7831C101.179 18.8853 101.11 19.0506 101.047 19.1498C100.981 19.249 100.903 19.4654 100.869 19.6307C100.839 19.796 100.752 20.0544 100.68 20.2047C100.671 20.2227 100.626 20.3159 100.545 20.4782V22.4047C100.545 24.3673 100.563 24.6378 100.707 24.779C100.749 24.8241 100.815 25.0315 100.851 25.2388C100.894 25.4673 100.966 25.6897 101.038 25.7979C101.107 25.894 101.173 26.0563 101.191 26.1555C101.209 26.2517 101.29 26.438 101.371 26.5673C101.453 26.6965 101.522 26.8257 101.522 26.8498C101.522 26.8738 101.573 26.9459 101.633 27.0091C101.696 27.0722 101.807 27.2255 101.879 27.3487C102.045 27.6252 103.033 28.602 103.271 28.7252C103.367 28.7733 103.454 28.8304 103.469 28.8484C103.511 28.9145 103.842 29.0978 103.911 29.0978C103.95 29.0978 104.046 29.155 104.127 29.2211C104.206 29.2902 104.368 29.3683 104.482 29.3984C104.599 29.4254 104.801 29.5066 104.933 29.5788C105.107 29.6719 105.278 29.714 105.558 29.735C105.834 29.7561 106.012 29.7982 106.192 29.8913C106.21 29.9003 106.291 29.9454 106.442 30.0236H107.692C108.936 30.0236 108.942 30.0236 109.192 29.8943C109.369 29.8012 109.552 29.7561 109.826 29.735C110.099 29.714 110.28 29.6689 110.451 29.5788C110.583 29.5096 110.79 29.4285 110.914 29.3954C111.037 29.3653 111.196 29.2872 111.262 29.2271C111.331 29.164 111.455 29.0949 111.539 29.0768C111.785 29.0167 113.162 27.8746 113.162 27.7274C113.162 27.6943 113.228 27.6011 113.309 27.52C113.546 27.2765 113.862 26.8347 113.862 26.7476C113.862 26.6995 113.931 26.5793 114.012 26.4741C114.096 26.3719 114.178 26.1976 114.196 26.0894C114.211 25.9812 114.277 25.8309 114.337 25.7588C114.454 25.6175 114.562 25.2539 114.562 25.0044C114.562 24.9233 114.607 24.767 114.662 24.6588C114.947 24.1148 114.953 20.7397 114.671 20.355C114.616 20.2798 114.565 20.0965 114.544 19.9042C114.523 19.7058 114.457 19.4654 114.367 19.279C114.289 19.1167 114.184 18.8733 114.139 18.744C114.093 18.6148 114.033 18.4946 114.009 18.4796C113.985 18.4645 113.919 18.3473 113.862 18.2181C113.805 18.0889 113.742 17.9716 113.721 17.9566C113.697 17.9446 113.61 17.8244 113.519 17.6981C113.171 17.1812 112.035 16.1083 111.842 16.1083C111.809 16.1083 111.662 16.0301 111.515 15.9339C111.365 15.8378 111.205 15.7566 111.157 15.7566C111.109 15.7566 111.004 15.6995 110.92 15.6304C110.827 15.5522 110.658 15.4831 110.481 15.4501C110.319 15.423 110.078 15.3419 109.943 15.2697C109.591 15.0864 108.32 15.0263 106.418 15.1044ZM63.6017 15.2277C63.3883 15.3058 63.214 15.5042 63.1479 15.7536C63.1118 15.8859 63.0998 18.1039 63.1088 22.6451C63.1088 23.0899 63.1148 25.323 63.1209 29.3413C63.211 29.4345 63.2591 29.4856 63.2681 29.4946C63.4935 29.729 63.6408 29.7471 65.3689 29.7471C67.2594 29.7471 67.3856 29.726 67.599 29.3473C67.6892 29.185 67.7312 16.3096 67.6411 15.8738C67.578 15.5673 67.3976 15.3268 67.1602 15.2277C66.9408 15.1345 63.8572 15.1345 63.6017 15.2277ZM114.662 15.2126C114.289 15.3569 114.151 16.2165 114.46 16.4659C114.517 16.511 114.598 16.6342 114.643 16.7394C114.719 16.9257 114.803 17.049 115.067 17.3706C115.139 17.4607 115.236 17.614 115.278 17.7162C115.32 17.8214 115.401 17.9536 115.458 18.0167C115.686 18.2722 115.852 18.4886 115.93 18.6419C116.038 18.8522 116.302 19.246 116.363 19.282C116.39 19.3001 116.459 19.4052 116.519 19.5225C116.633 19.7449 116.741 19.8981 116.997 20.2017C117.087 20.3069 117.159 20.4151 117.159 20.4451C117.159 20.4722 117.213 20.5593 117.276 20.6375C117.342 20.7156 117.433 20.8479 117.478 20.929C117.526 21.0102 117.661 21.2145 117.784 21.3798C117.904 21.5451 118.037 21.7465 118.076 21.8276C118.115 21.9118 118.193 22.02 118.253 22.0741C118.373 22.1823 118.394 22.4137 118.289 22.5009C118.25 22.5309 118.169 22.6541 118.112 22.7684C118.055 22.8826 117.916 23.0899 117.808 23.2282C117.697 23.3664 117.559 23.5798 117.499 23.7031C117.439 23.8263 117.348 23.9555 117.3 23.9916C117.249 24.0276 117.174 24.1268 117.129 24.214C117.084 24.2981 117.006 24.4123 116.955 24.4694C116.904 24.5235 116.859 24.6077 116.859 24.6528C116.859 24.7009 116.807 24.794 116.741 24.8632C116.591 25.0285 116.336 25.4041 116.209 25.6506C116.158 25.7558 116.095 25.849 116.074 25.858C116.026 25.879 115.662 26.417 115.572 26.6003C115.536 26.6694 115.419 26.8378 115.311 26.976C115.199 27.1112 115.061 27.3276 115.001 27.4509C114.941 27.5741 114.851 27.7033 114.803 27.7394C114.752 27.7755 114.674 27.8746 114.631 27.9618C114.586 28.0459 114.508 28.1602 114.457 28.2173C114.403 28.2714 114.361 28.3495 114.361 28.3886C114.361 28.4276 114.289 28.5599 114.199 28.6831C113.895 29.1099 114.012 29.5758 114.457 29.699C114.719 29.7711 117.883 29.7561 118.118 29.681C118.424 29.5848 118.974 29.0017 119.152 28.5899C119.203 28.4697 119.284 28.3405 119.335 28.2984C119.383 28.2563 119.455 28.1572 119.494 28.076C119.563 27.9197 119.69 27.7303 119.957 27.3697C120.038 27.2585 120.107 27.1413 120.107 27.1143C120.107 27.0842 120.143 27.0331 120.186 26.997C120.231 26.961 120.318 26.8287 120.381 26.7025C120.447 26.5793 120.546 26.438 120.6 26.3899C120.657 26.3449 120.727 26.2216 120.757 26.1164C120.823 25.876 121.213 25.4252 121.319 25.4643C121.361 25.4793 121.493 25.6656 121.613 25.876C121.733 26.0864 121.89 26.3298 121.962 26.417C122.034 26.5041 122.118 26.6574 122.151 26.7596C122.184 26.8588 122.247 26.97 122.286 27.0061C122.328 27.0391 122.419 27.1714 122.485 27.2976C122.704 27.7093 122.797 27.8596 122.899 27.9678C122.957 28.0279 123.035 28.1541 123.074 28.2503C123.116 28.3465 123.206 28.5028 123.278 28.5959C123.347 28.6921 123.404 28.7883 123.404 28.8123C123.404 28.8334 123.462 28.9025 123.531 28.9626C123.6 29.0257 123.699 29.1519 123.75 29.2481C123.801 29.3473 123.945 29.4886 124.081 29.5728C124.099 29.5848 124.177 29.6329 124.321 29.723H126.284H128.246C128.333 29.6389 128.384 29.5908 128.393 29.5818C128.64 29.3443 128.631 28.7462 128.375 28.4337C128.006 27.9798 127.904 27.8356 127.904 27.7724C127.904 27.7364 127.852 27.6432 127.789 27.5651C127.726 27.4869 127.63 27.3397 127.576 27.2345C127.522 27.1293 127.438 27 127.39 26.949C127.342 26.8979 127.302 26.8347 127.302 26.8107C127.302 26.7837 127.236 26.6785 127.152 26.5763C127.071 26.4711 126.9 26.2126 126.774 25.9962C126.647 25.7828 126.5 25.5694 126.449 25.5214C126.395 25.4733 126.353 25.4102 126.353 25.3801C126.353 25.347 126.287 25.2449 126.205 25.1487C126.124 25.0555 126.058 24.9503 126.055 24.9173C126.055 24.8842 126.001 24.797 125.935 24.7189C125.872 24.6408 125.77 24.4845 125.713 24.3673C125.571 24.0908 125.337 23.7481 125.208 23.6309C125.151 23.5798 125.105 23.5107 125.105 23.4776C125.105 23.4055 124.703 22.7924 124.625 22.7413C124.312 22.5429 124.33 22.0501 124.664 21.6654C124.742 21.5752 124.805 21.458 124.805 21.4039C124.805 21.3528 124.847 21.2686 124.898 21.2175C125.084 21.0432 125.43 20.5533 126.136 19.4744C126.278 19.258 126.434 19.0356 126.485 18.9815C126.536 18.9274 126.617 18.8192 126.668 18.741C126.716 18.6629 126.801 18.5517 126.855 18.4916C126.909 18.4345 126.954 18.3593 126.954 18.3263C126.954 18.2662 127.182 17.9566 127.405 17.7132C127.465 17.6471 127.549 17.5118 127.588 17.4126C127.657 17.2503 127.786 17.07 128.045 16.7785C128.628 16.1233 128.61 15.429 128.003 15.2156C127.756 15.1315 124.718 15.1345 124.513 15.2216C124.186 15.3599 123.816 15.6815 123.6 16.0181C123.48 16.2044 123.308 16.4509 123.218 16.5621C123.128 16.6763 123.056 16.7995 123.056 16.8356C123.056 16.8746 123.038 16.9077 123.014 16.9077C122.99 16.9077 122.909 17.0249 122.83 17.1692C122.752 17.3134 122.638 17.4938 122.578 17.5689C122.515 17.644 122.449 17.7733 122.431 17.8544C122.413 17.9386 122.38 18.0077 122.355 18.0077C122.331 18.0077 122.253 18.1039 122.184 18.2241C122.112 18.3443 122.01 18.4826 121.956 18.5307C121.902 18.5818 121.857 18.6539 121.857 18.696C121.857 18.738 121.763 18.8913 121.649 19.0386C121.637 19.0566 121.568 19.1468 121.442 19.3091C121.37 19.2009 121.331 19.1438 121.322 19.1318C121.259 19.0356 121.183 18.9544 121.156 18.9544C121.132 18.9544 121.087 18.8703 121.06 18.7651C121.03 18.6599 120.952 18.4946 120.88 18.4014C120.66 18.1039 120.408 17.7102 120.408 17.6651C120.408 17.641 120.36 17.5779 120.3 17.5268C120.243 17.4757 120.162 17.3525 120.122 17.2563C120.041 17.064 119.717 16.5591 119.621 16.4809C119.587 16.4539 119.524 16.3427 119.479 16.2345C119.347 15.9099 118.977 15.5162 118.752 15.4561C118.644 15.426 118.451 15.3479 118.325 15.2818C118.31 15.2727 118.232 15.2307 118.094 15.1585C117.102 15.1615 116.552 15.1615 116.441 15.1615C115.521 15.1645 114.731 15.1886 114.662 15.2126ZM77.2435 18.8973C77.3096 18.9484 77.4419 19.0326 77.5381 19.0807C77.7214 19.1768 78.085 19.5225 78.085 19.6036C78.085 19.6307 78.1512 19.7268 78.2323 19.817C78.3135 19.9102 78.3946 20.0664 78.4126 20.1686C78.4307 20.2678 78.4908 20.4001 78.5419 20.4632C78.6651 20.6044 78.6771 20.6675 78.7012 21.3047C78.7162 21.7044 78.7463 21.8878 78.8274 22.0711C78.9626 22.3776 78.9656 22.6932 78.8364 22.9156C78.7583 23.0509 78.7282 23.2162 78.7042 23.7061C78.6741 24.2531 78.6531 24.3613 78.5269 24.6077C78.4517 24.761 78.3856 24.9323 78.3856 24.9864C78.3856 25.2178 77.532 26.0323 77.2465 26.0744C77.1173 26.0924 76.934 26.1585 76.8378 26.2156C76.6003 26.3629 75.7348 26.3779 75.5394 26.2367C75.4703 26.1886 75.323 26.1255 75.2148 26.0954C74.6408 25.9421 74.0487 25.347 73.8954 24.77C73.8624 24.6588 73.7963 24.5115 73.7452 24.4454C73.4717 24.0938 73.4927 20.8208 73.7722 20.4872C73.8353 20.4091 73.9045 20.2588 73.9195 20.1536C73.9375 20.0454 74.0036 19.9132 74.0698 19.8501C74.1359 19.7869 74.19 19.7058 74.19 19.6667C74.19 19.5796 74.5025 19.2971 74.9053 19.0175C74.9263 19.0055 75.0285 18.9334 75.2148 18.8072H76.1676C77.0241 18.8072 77.1353 18.8162 77.2435 18.8973ZM108.891 18.9785C109.312 19.258 109.57 19.4954 109.669 19.6908C109.724 19.793 109.799 19.8951 109.841 19.9192C109.88 19.9402 109.916 20.0244 109.916 20.0995C109.916 20.1776 109.982 20.373 110.063 20.5353C110.307 21.0162 110.337 24.1869 110.102 24.4214C110.027 24.4965 109.916 24.794 109.913 24.9263C109.913 24.9804 109.666 25.3681 109.525 25.5304C109.372 25.7107 108.903 26.0143 108.669 26.0834C108.548 26.1225 108.389 26.1916 108.32 26.2397C108.113 26.3779 107.25 26.3629 107.019 26.2156C106.922 26.1525 106.745 26.0894 106.622 26.0714C106.288 26.0203 105.561 25.335 105.462 24.9774C105.432 24.8692 105.357 24.6768 105.293 24.5536C105.212 24.3913 105.17 24.1899 105.146 23.8533C105.11 23.3875 105.068 23.2462 104.936 23.114C104.855 23.0328 104.84 22.0771 104.918 22.029C105.029 21.9599 105.119 21.6173 105.158 21.1063C105.191 20.6946 105.224 20.5353 105.303 20.4241C105.357 20.346 105.42 20.2137 105.438 20.1326C105.513 19.823 105.982 19.252 106.291 19.0927C106.403 19.0386 106.547 18.9514 106.61 18.8973C106.718 18.8162 106.829 18.8072 107.68 18.8072H108.63L108.891 18.9785ZM55.7605 21.7375C55.8236 21.7946 55.9618 21.8667 56.067 21.8968C56.2924 21.9569 56.7883 22.3626 56.8575 22.5429C56.8815 22.6091 56.9536 22.7353 57.0138 22.8195C57.1761 23.0479 57.1791 24.1839 57.0168 24.3613C56.9597 24.4244 56.8845 24.5656 56.8515 24.6768C56.7763 24.9113 56.3075 25.3861 56.1091 25.4342C56.037 25.4492 55.8897 25.5214 55.7815 25.5935C55.7665 25.6025 55.7034 25.6476 55.5862 25.7257L53.5214 25.7408L51.4537 25.7558V23.676V21.5962C52.7129 21.6052 53.4102 21.6113 53.5485 21.6113C55.6132 21.6293 55.6463 21.6293 55.7605 21.7375ZM93.5572 21.6473C93.6984 21.6684 93.8517 21.7225 93.8968 21.7675C93.9419 21.8126 94.0651 21.8727 94.1673 21.9028C94.4137 21.9689 94.8916 22.4257 94.9727 22.6692C95.0058 22.7714 95.0689 22.8916 95.117 22.9367C95.2673 23.0899 95.2643 23.9465 95.111 24.241C95.0419 24.3703 94.9697 24.5566 94.9517 24.6528C94.9036 24.8722 94.3837 25.3801 94.1342 25.4492C94.038 25.4763 93.9058 25.5484 93.8397 25.6115C93.8307 25.6205 93.7916 25.6566 93.7164 25.7257L91.6247 25.7408L89.5298 25.7588V23.682V21.6052C90.6599 21.6052 91.288 21.6083 91.4143 21.6083C92.4512 21.6083 93.4159 21.6263 93.5572 21.6473Z" fill="url(#paint0_linear_5699_1778)"/>
<path d="M15.965 0.109931C15.9169 0.164029 15.8298 0.224136 15.7697 0.242168C15.6434 0.281239 15.1055 0.596813 14.9642 0.717031C14.9101 0.762113 14.7839 0.825228 14.6847 0.858288C14.5855 0.888343 14.4533 0.969493 14.3902 1.03862C14.324 1.10474 14.2339 1.16184 14.1888 1.16184C14.1407 1.16184 13.9874 1.23998 13.8462 1.33616C13.7079 1.43233 13.5757 1.51047 13.5546 1.51047C13.5005 1.51047 12.9415 1.85911 12.7762 1.99435C12.6981 2.05747 12.5959 2.11157 12.5478 2.11157C12.4997 2.11157 12.3735 2.17468 12.2653 2.25583C12.1571 2.33397 12.0098 2.41512 11.9407 2.43616C11.8746 2.45719 11.7423 2.53233 11.6522 2.59845C11.4779 2.7337 11.2855 2.84491 10.9669 3.0042C10.8557 3.0613 10.6994 3.16048 10.6213 3.2266C10.5432 3.29573 10.4199 3.36185 10.3478 3.37688C10.2757 3.3919 10.1494 3.46103 10.0683 3.53016C9.98715 3.60229 9.89699 3.65939 9.86994 3.65939C9.83988 3.65939 9.63852 3.7736 9.41912 3.91185C9.19972 4.0501 8.90518 4.2154 8.76693 4.27851C8.62868 4.34464 8.48742 4.4348 8.45136 4.47688C8.41529 4.51895 8.30409 4.58207 8.20191 4.61513C8.10273 4.64819 7.96447 4.71731 7.89535 4.77141C7.82622 4.82551 7.58278 4.97578 7.35737 5.10802C7.12896 5.23726 6.90355 5.37851 6.85546 5.41758C6.81038 5.45966 6.66611 5.52879 6.53989 5.57687C6.41366 5.62496 6.26939 5.70611 6.2183 5.76021C6.17021 5.81431 6.09508 5.85939 6.04999 5.85939C6.00792 5.85939 5.86065 5.93753 5.7254 6.0337C5.59016 6.12988 5.45191 6.20802 5.42185 6.20802C5.38879 6.20802 5.27459 6.27414 5.16939 6.35529C5.0612 6.43944 4.94398 6.50556 4.91393 6.50556C4.88087 6.50857 4.79071 6.55966 4.71256 6.62578C4.63442 6.6889 4.49016 6.77004 4.38797 6.8031C4.28879 6.83616 4.17459 6.89928 4.13852 6.94135C4.10246 6.98644 3.98224 7.06458 3.87404 7.11567C3.76284 7.16977 3.52541 7.299 3.34808 7.4072C3.17076 7.51239 2.93333 7.65064 2.82213 7.71075C2.71393 7.77086 2.57869 7.85802 2.52459 7.9031C2.46748 7.95119 2.31721 8.02933 2.19098 8.07742C2.06175 8.1225 1.92951 8.19463 1.89645 8.2337C1.86339 8.27578 1.74317 8.35392 1.62896 8.40802C1.51776 8.46212 1.30137 8.58534 1.14809 8.68152C0.997814 8.77468 0.757377 8.91294 0.613115 8.98507C0.468853 9.0572 0.348634 9.13534 0.348634 9.15938C0.348634 9.18042 0.270492 9.2255 0.174317 9.25556C0.162296 9.25856 0.105191 9.2796 0 9.31266V19.976V30.6364C0.12623 30.6996 0.198361 30.7356 0.213388 30.7416C0.571038 30.919 0.952732 31.1353 1.08497 31.2405C1.1571 31.2976 1.25328 31.3397 1.29836 31.3397C1.34645 31.3397 1.44863 31.3908 1.52678 31.4539C1.69809 31.5892 2.05273 31.8026 2.32322 31.9318C2.43442 31.9829 2.55464 32.064 2.59071 32.1061C2.62677 32.1482 2.73798 32.2113 2.84016 32.2444C2.93934 32.2774 3.08661 32.3586 3.16175 32.4217C3.23989 32.4848 3.39016 32.5629 3.49836 32.596C3.60655 32.6291 3.74481 32.7072 3.80491 32.7733C3.86502 32.8364 3.94016 32.8905 3.97022 32.8905C4.00328 32.8905 4.10546 32.9476 4.19863 33.0198C4.29481 33.0889 4.45109 33.1791 4.54726 33.2211C4.64344 33.2602 4.76666 33.3353 4.82076 33.3864C4.87787 33.4345 5.00409 33.5037 5.10327 33.5337C5.20245 33.5668 5.32568 33.6359 5.37377 33.69C5.42185 33.7471 5.54808 33.8132 5.65327 33.8403C5.75846 33.8703 5.88469 33.9334 5.93278 33.9815C6.03797 34.0867 6.61502 34.4384 6.68415 34.4384C6.70819 34.4384 6.81939 34.5015 6.92458 34.5796C7.03278 34.6577 7.19508 34.7479 7.28524 34.778C7.37841 34.811 7.51967 34.8922 7.60382 34.9613C7.68497 35.0304 7.79316 35.0875 7.84425 35.0875C7.89535 35.0875 8.00054 35.1386 8.07868 35.2017C8.22595 35.322 8.68578 35.5985 9.00737 35.7608C9.10955 35.8118 9.19371 35.872 9.19371 35.893C9.19371 35.914 9.27786 35.9561 9.38005 35.9892C9.48524 36.0222 9.61447 36.0914 9.66857 36.1394C9.72267 36.1905 9.87595 36.2777 10.0052 36.3318C10.1374 36.3889 10.2937 36.4791 10.3538 36.5362C10.4139 36.5903 10.4861 36.6383 10.5191 36.6383C10.5492 36.6383 10.6634 36.7045 10.7716 36.7856C10.8798 36.8668 10.994 36.9359 11.024 36.9359C11.0541 36.9359 11.1653 37.002 11.2735 37.0802C11.3817 37.1583 11.553 37.2485 11.6492 37.2815C11.7484 37.3146 11.8686 37.3837 11.9167 37.4378C11.9647 37.4889 12.085 37.558 12.1841 37.5911C12.2863 37.6241 12.4126 37.6873 12.4667 37.7323C12.5929 37.8405 13.2571 38.2373 13.3112 38.2373C13.3352 38.2373 13.4194 38.2914 13.5005 38.3605C13.5817 38.4296 13.7079 38.5017 13.783 38.5168C13.8552 38.5348 14.0055 38.6129 14.1136 38.6941C14.2218 38.7722 14.3361 38.8353 14.3661 38.8353C14.3962 38.8353 14.5104 38.9015 14.6186 38.9856C14.7268 39.0668 14.841 39.1329 14.871 39.1329C14.9011 39.1359 14.9552 39.1689 14.9882 39.208C15.0213 39.2501 15.1896 39.3493 15.3609 39.4304C15.5292 39.5086 15.6975 39.6107 15.7336 39.6528C15.7697 39.6979 15.8748 39.746 15.965 39.764C16.0582 39.7821 16.1724 39.8392 16.2175 39.8903C16.3557 40.0405 18.6248 40.0345 18.7631 39.8842C18.8112 39.8301 18.8893 39.7851 18.9314 39.7851C18.9765 39.7851 19.0877 39.734 19.1809 39.6739C19.3792 39.5416 19.6888 39.3583 19.9953 39.193C20.1125 39.1269 20.2508 39.0307 20.2989 38.9826C20.347 38.9315 20.4732 38.8654 20.5814 38.8383C20.6866 38.8083 20.8038 38.7482 20.8429 38.7031C20.8789 38.658 21.0082 38.5799 21.1284 38.5288C21.2486 38.4777 21.4049 38.3875 21.477 38.3304C21.6904 38.1651 22.1533 37.8856 22.2134 37.8856C22.2464 37.8856 22.3576 37.8195 22.4598 37.7353C22.565 37.6542 22.6852 37.5881 22.7303 37.5881C22.7724 37.5881 22.9197 37.5069 23.0549 37.4108C23.1901 37.3146 23.3284 37.2364 23.3615 37.2364C23.3945 37.2364 23.4516 37.2004 23.4907 37.1553C23.5268 37.1072 23.65 37.0291 23.7612 36.981C23.8724 36.9299 24.0046 36.8457 24.0557 36.7916C24.1038 36.7375 24.206 36.6804 24.2841 36.6624C24.3593 36.6444 24.4975 36.5752 24.5907 36.5061C24.6839 36.437 24.8251 36.3528 24.9093 36.3168C25.0926 36.2386 25.6156 35.905 25.6546 35.8419C25.6696 35.8148 25.7688 35.7668 25.871 35.7337C25.9732 35.7006 26.1265 35.6225 26.2076 35.5624C26.2888 35.4993 26.4571 35.4061 26.5833 35.352C26.7065 35.2979 26.8388 35.2168 26.8748 35.1717C26.9139 35.1266 26.965 35.0875 26.9921 35.0875C27.0552 35.0875 27.6232 34.7479 27.7584 34.6307C27.8125 34.5826 27.9598 34.5075 28.08 34.4654C28.2033 34.4203 28.3475 34.3452 28.4046 34.2941C28.4587 34.243 28.606 34.1528 28.7292 34.0957C28.8554 34.0386 29.1349 33.8793 29.3543 33.7411C29.5737 33.6028 29.7781 33.4916 29.8082 33.4916C29.8382 33.4886 29.9133 33.4345 29.9764 33.3684C30.0396 33.2993 30.1568 33.2302 30.2379 33.2121C30.3161 33.1941 30.4453 33.128 30.5204 33.0649C30.5986 32.9987 30.7549 32.9086 30.8691 32.8635C30.9863 32.8154 31.0794 32.7613 31.0794 32.7433C31.0794 32.7222 31.1666 32.6651 31.2778 32.617C31.386 32.5659 31.5122 32.4848 31.5573 32.4337C31.6024 32.3856 31.7226 32.3165 31.8218 32.2864C31.921 32.2534 32.0472 32.1873 32.1043 32.1362C32.1584 32.0881 32.3057 32.0039 32.4289 31.9498C32.5521 31.8957 32.7084 31.8056 32.7715 31.7455C32.8376 31.6884 32.9188 31.6403 32.9488 31.6403C32.9789 31.6373 33.0901 31.5711 33.1983 31.49C33.3065 31.4088 33.4207 31.3397 33.4538 31.3397C33.4868 31.3397 33.595 31.2736 33.6972 31.1955C33.7994 31.1143 33.9467 31.0332 34.0248 31.0181C34.1029 31.0001 34.2051 30.943 34.2502 30.8919C34.2953 30.8408 34.4065 30.7717 34.4937 30.7386C34.5808 30.7026 34.7191 30.6274 34.8002 30.5673C34.8844 30.5072 35.0226 30.42 35.1068 30.375C35.4524 30.1976 35.4284 31.0572 35.4133 19.8077C35.4133 19.1315 35.4073 15.7504 35.4013 9.6643C35.3382 9.57714 35.3021 9.53206 35.2961 9.52304C35.239 9.4449 35.1008 9.34572 34.9896 9.30665C34.8814 9.26458 34.7521 9.19846 34.701 9.15638C34.5928 9.06321 34.2232 8.84381 33.9527 8.71157C33.8415 8.65747 33.6762 8.55529 33.58 8.48316C33.4868 8.41403 33.3666 8.35693 33.3185 8.35693C33.2674 8.35693 33.1833 8.31184 33.1262 8.25474C33.0721 8.20064 32.9068 8.09846 32.7655 8.03234C32.5281 7.91813 31.933 7.5695 31.407 7.23288C31.2988 7.16376 31.1756 7.10665 31.1335 7.10665C31.0945 7.10665 31.0013 7.05556 30.9322 6.98944C30.8631 6.92633 30.7248 6.84217 30.6286 6.80611C30.5325 6.77004 30.3882 6.6889 30.304 6.63179C30.2229 6.57168 30.1117 6.50857 30.0576 6.48753C30.0065 6.4695 29.8713 6.39737 29.7571 6.32824C29.6459 6.25611 29.4325 6.12387 29.2822 6.02769C29.1319 5.93452 28.9727 5.85939 28.9276 5.85939C28.8855 5.85939 28.7953 5.80228 28.7322 5.73616C28.6691 5.67004 28.5158 5.57988 28.3926 5.5378C28.2664 5.49272 28.1251 5.4236 28.08 5.38152C28.0319 5.33944 27.9177 5.26431 27.8246 5.21321C27.4218 4.99682 27.1483 4.83753 27.0582 4.75638C27.0011 4.7113 26.8748 4.64518 26.7757 4.61212C26.6765 4.58207 26.5563 4.51294 26.5082 4.45884C26.4601 4.40775 26.3128 4.3266 26.1836 4.28453C26.0513 4.24245 25.9041 4.1613 25.856 4.1072C25.8079 4.05311 25.7418 4.01103 25.7087 4.01103C25.6757 4.01103 25.5554 3.9419 25.4412 3.86076C25.327 3.7766 25.2158 3.71048 25.1918 3.71048C25.1677 3.71048 25.0595 3.64436 24.9513 3.56622C24.8431 3.48808 24.6748 3.39791 24.5757 3.36485C24.4765 3.33179 24.3563 3.26267 24.3082 3.21158C24.2601 3.15748 24.1128 3.07934 23.9806 3.03425C23.8483 2.98917 23.7341 2.93507 23.7251 2.91404C23.7041 2.85994 23.2803 2.59545 23.0098 2.46621C22.8986 2.41211 22.7333 2.31293 22.6371 2.2408C22.544 2.16867 22.4298 2.11157 22.3877 2.11157C22.3456 2.11157 22.2464 2.05446 22.1683 1.98834C22.0901 1.91922 21.9429 1.83807 21.8437 1.80801C21.7415 1.77495 21.6183 1.71184 21.5672 1.66676C21.474 1.58561 21.1945 1.4173 20.7617 1.18288C20.6235 1.10774 20.4582 1.00556 20.3921 0.954466C20.3259 0.903373 20.2358 0.861296 20.1877 0.861296C20.1396 0.861296 20.0615 0.816212 20.0134 0.765119C19.9653 0.71102 19.821 0.626868 19.6918 0.581786C19.5656 0.533698 19.4183 0.455559 19.3612 0.410477C19.3071 0.36239 19.1688 0.275226 19.0516 0.218122C18.9374 0.161018 18.8292 0.0918984 18.8112 0.0618408C18.7451 -0.0463558 16.0672 -0.0012709 15.965 0.109931ZM18.147 1.76894C18.6579 2.0755 18.9675 2.25282 20.1606 2.93507C20.4642 3.10939 20.8459 3.33179 21.0112 3.43097C21.1765 3.53316 21.6483 3.80666 22.0601 4.04108C22.4718 4.27851 23.0218 4.59409 23.2833 4.74436C23.8994 5.09901 24.0707 5.19819 24.8822 5.646C25.5043 5.99163 26.2467 6.4154 27.2565 7.01048C27.7344 7.28999 28.597 7.78288 28.9877 7.99627C29.141 8.08343 29.7601 8.43807 30.3611 8.78671C31.368 9.36977 32.1193 9.79654 33.0721 10.3255C33.2734 10.4367 33.4718 10.575 33.5079 10.6351C33.568 10.7222 33.577 12.231 33.577 19.973C33.58 30.2968 33.6131 29.317 33.2314 29.4793C33.1382 29.5184 32.7655 29.7258 32.4079 29.9392C32.0472 30.1526 31.371 30.5433 30.9051 30.8108C30.4363 31.0752 29.8442 31.4149 29.5858 31.5651C29.3273 31.7184 29.1079 31.8416 29.0959 31.8416C29.0839 31.8416 28.9005 31.9498 28.6901 32.0821C28.4798 32.2143 28.071 32.4547 27.7825 32.614C27.1574 32.9567 25.8169 33.7291 25.0836 34.1649C24.7951 34.3362 24.2781 34.6277 23.9325 34.814C23.5899 35.0004 23.1841 35.2348 23.0339 35.337C22.8836 35.4362 22.3877 35.7277 21.9339 35.9862C20.5303 36.7796 19.824 37.1883 18.697 37.8586C17.2934 38.6971 17.6 38.7211 15.7907 37.6362C15.6645 37.564 15.3188 37.3597 15.0153 37.1883C14.7117 37.014 14.285 36.7676 14.0656 36.6383C13.8462 36.5121 13.4194 36.2627 13.1158 36.0883C12.8153 35.914 12.3194 35.6225 12.0158 35.4392C11.7153 35.2558 11.1743 34.9523 10.8167 34.7629C10.462 34.5736 10.0112 34.3181 9.81884 34.1949C9.62649 34.0687 9.32294 33.8853 9.14261 33.7862C8.96529 33.687 8.34617 33.3353 7.76912 33.0047C7.19207 32.6741 6.64207 32.3586 6.5459 32.3045C6.44972 32.2474 6.01092 31.9949 5.57213 31.7425C5.13333 31.487 4.30082 31.0091 3.72377 30.6785C3.14672 30.3509 2.53962 29.9963 2.37432 29.8941C2.20901 29.7889 1.92049 29.6236 1.73716 29.5214C1.55082 29.4192 1.36749 29.287 1.33142 29.2268C1.2112 29.0315 1.25027 10.7433 1.36749 10.611C1.41858 10.5569 1.61694 10.4307 1.81229 10.3285C2.00765 10.2233 2.33524 10.031 2.54563 9.89873C2.753 9.76649 2.94235 9.65529 2.96339 9.65529C2.98442 9.65529 3.21885 9.52605 3.48634 9.36376C3.75382 9.20447 4.21366 8.93999 4.5112 8.77769C4.80573 8.6154 5.36775 8.29381 5.75847 8.06239C6.14918 7.83398 6.66311 7.54245 6.89453 7.41922C7.27622 7.21485 7.89835 6.8542 9.07048 6.15993C9.28988 6.02769 9.906 5.67906 10.444 5.38152C10.979 5.08398 11.4959 4.79245 11.5921 4.73234C11.8325 4.58207 12.3134 4.30857 13.3412 3.73453C13.8221 3.46404 14.327 3.17551 14.4653 3.09436C14.6035 3.01021 15.0183 2.76976 15.391 2.55938C15.7606 2.349 16.2656 2.05146 16.515 1.90118C17.4768 1.30911 17.3866 1.31812 18.147 1.76894ZM17.2393 4.77742C17.1702 4.81349 16.485 5.2042 15.7156 5.646C14.9462 6.0848 13.3473 6.99545 12.1661 7.67168C6.86748 10.6922 4.31584 12.1648 4.22267 12.258C4.12349 12.3572 4.12349 12.4323 4.10847 19.928C4.10847 20.4329 4.10546 22.9575 4.09645 27.5017C4.1806 27.5829 4.22568 27.6279 4.2347 27.637C4.30983 27.7121 4.85683 28.0517 5.4459 28.3913C7.88333 29.7949 9.08852 30.4922 11.3937 31.8236C16.7795 34.9403 17.3385 35.2498 17.4828 35.2228C17.5579 35.2077 17.8074 35.0845 18.0388 34.9493C18.8112 34.5015 20.1005 33.7561 20.8098 33.3534C22.4839 32.3976 27.1002 29.7287 29.4265 28.3733C30.0426 28.0126 30.5896 27.661 30.6407 27.5919C30.7428 27.4506 30.7849 12.7028 30.6827 12.4413C30.6046 12.24 30.3732 12.0777 29.1289 11.3654C28.4557 10.9807 27.0732 10.1873 26.0574 9.60419C25.0415 9.01813 22.8716 7.77687 21.2366 6.84217C19.6016 5.90747 18.1289 5.05994 17.9606 4.95775C17.591 4.73234 17.4076 4.68425 17.2393 4.77742ZM17.8615 5.74217C17.9697 5.81431 19.3642 6.62278 20.9601 7.53343C22.553 8.44709 24.8462 9.76048 26.0513 10.4517C27.2595 11.143 28.3595 11.7681 28.5008 11.8372C29.1169 12.1468 29.0989 12.3692 28.4317 12.7028C28.1672 12.8351 26.4511 13.8239 24.4074 15.02C23.6109 15.4859 22.556 16.102 22.0601 16.3875C21.5642 16.676 21.0382 16.9826 20.885 17.0728C20.7347 17.1599 20.2298 17.4545 19.7609 17.7249C19.2951 17.9954 18.6309 18.3831 18.2882 18.5875C17.4677 19.0744 17.4106 19.0804 16.8787 18.7588C16.521 18.5424 15.415 17.9023 12.5929 16.2763C12.2473 16.078 11.7544 15.7924 11.4929 15.6422C11.2314 15.4919 10.7145 15.1913 10.3418 14.978C8.55655 13.9441 6.78333 12.9162 6.45573 12.7269C6.01693 12.4714 5.89672 12.3692 5.89672 12.252C5.89672 12.1588 6.21229 11.8553 6.30546 11.8553C6.33852 11.8553 6.50081 11.7681 6.66611 11.6599C6.83442 11.5517 8.18387 10.7733 9.66857 9.92878C13.23 7.9031 13.3322 7.84299 14.291 7.30802C15.4481 6.65884 16.5601 6.02168 16.9147 5.8083C17.3956 5.51376 17.5038 5.50775 17.8615 5.74217ZM11.2224 9.85665C10.7415 10.037 9.47021 10.6621 8.06966 11.4075C6.51584 12.237 6.52786 12.2129 7.51967 12.7659C8.06065 13.0635 9.89999 14.1214 13.4915 16.1982C16.6593 18.0315 16.9478 18.1998 17.0891 18.299C17.4257 18.5364 17.4287 18.5364 18.8112 17.6799C21.5431 15.9848 22.2915 15.4017 21.7325 15.4017C21.5161 15.4017 21.1434 15.2545 21.0382 15.1282C21.0022 15.0862 20.9511 15.0531 20.924 15.0531C20.897 15.0531 20.7707 14.9659 20.6415 14.8607C20.5153 14.7556 20.2748 14.5872 20.1126 14.4911C19.9473 14.3919 19.7789 14.2597 19.7369 14.2025C19.6948 14.1424 19.5716 14.0493 19.4634 13.9922C19.3522 13.9351 19.1117 13.7818 18.9314 13.6465C18.7481 13.5143 18.5798 13.4031 18.5557 13.4031C18.2281 13.4031 17.9787 12.9553 17.7473 11.9424C17.4948 10.8424 17.4677 10.8485 17.2183 12.0867C16.9508 13.4181 16.8516 13.5233 16.3076 13.0364C16.1724 12.9162 15.95 12.7419 15.8087 12.6487C15.2918 12.3031 15.1055 12.1769 14.7658 11.9274C14.1858 11.5097 13.0287 10.7252 12.8514 10.6351C12.7582 10.587 12.5779 10.4698 12.4516 10.3706C12.3224 10.2714 12.1451 10.1572 12.0549 10.1151C11.9647 10.07 11.8926 9.99791 11.8926 9.94982C11.8926 9.6643 11.7814 9.64927 11.2224 9.85665ZM5.82158 14.0944C6.15218 14.2807 6.96065 14.7465 7.61885 15.1252C9.01338 15.9277 9.05546 15.9517 11.8175 17.5506C12.9716 18.2208 14.297 18.9872 14.7658 19.2547C16.0612 19.9971 16.5391 20.3096 16.6172 20.4599C16.7284 20.6673 16.7014 33.5788 16.5901 33.711C16.482 33.8433 16.2475 33.7832 15.7757 33.4976C15.5503 33.3624 15.0514 33.0709 14.6667 32.8515C14.2789 32.6321 13.5847 32.2323 13.1158 31.9618C11.6432 31.1113 10.1284 30.2337 9.81884 30.0534C9.65354 29.9572 9.29289 29.7498 9.01939 29.5935C8.74289 29.4342 8.38524 29.2299 8.21994 29.1337C8.05464 29.0375 7.38141 28.6498 6.72021 28.2711C5.16639 27.3785 5.00109 27.2643 4.91393 27.0569C4.80874 26.8075 4.83579 13.9621 4.94098 13.8359C5.05519 13.6976 5.19945 13.7397 5.82158 14.0944ZM29.8923 13.8148C29.9674 13.8719 29.9764 14.44 29.9885 20.4569C29.9915 20.8957 29.9945 23.0897 30.0035 27.0389C29.9013 27.1441 29.8472 27.2012 29.8352 27.2132C29.7421 27.3094 29.5046 27.4717 29.3093 27.5738C29.1139 27.676 28.7983 27.8534 28.606 27.9706C28.4136 28.0848 27.8516 28.4154 27.3557 28.7039C26.8628 28.9924 25.5795 29.7408 24.5095 30.3659C23.4366 30.9911 21.9639 31.8446 21.2366 32.2654C20.5063 32.6832 19.6317 33.1911 19.286 33.3894C18.5467 33.8162 18.3423 33.8673 18.2401 33.6569C18.138 33.4435 18.159 20.5861 18.2642 20.4299C18.3333 20.3247 18.9164 19.943 19.6377 19.5252C19.8421 19.408 20.5634 18.9963 21.2366 18.6146C24.2901 16.8744 29.0688 14.1304 29.189 14.0463C29.5136 13.8179 29.7811 13.7307 29.8923 13.8148ZM5.42486 14.6804C5.28661 14.8187 5.33169 26.6842 5.47295 26.8705C5.57213 27.0058 5.68032 27.0719 7.49562 28.1148C9.75573 29.4162 10.5552 29.8791 11.1923 30.2547C12.0729 30.7717 12.5718 31.0632 13.6658 31.6914C14.1617 31.9739 14.7899 32.3435 15.0664 32.5058C15.9079 33.0108 15.9169 33.0168 16.0732 32.9146C16.0822 32.9086 16.1243 32.8785 16.2055 32.8274C16.1844 31.2045 16.1724 30.3028 16.1694 30.1225C16.1153 25.8998 15.968 24.1687 15.6554 24.1416C15.385 24.1206 15.2437 24.0575 14.8139 23.7719C14.5404 23.5856 14.2158 23.3602 14.0896 23.273C13.9664 23.1829 13.759 23.0626 13.6298 23.0055C13.3473 22.8823 13.3352 22.8132 13.5516 22.5667C13.741 22.3534 14.9492 21.4397 15.403 21.1692C16.2686 20.6523 16.3738 20.7755 13.8612 19.3329C12.7912 18.7198 11.4779 17.9624 10.9429 17.6528C10.4079 17.3403 9.69863 16.9285 9.36802 16.7362C9.04043 16.5468 8.21693 16.0719 7.54371 15.6842C6.87049 15.2995 6.18825 14.8968 6.02595 14.7916C5.70737 14.5872 5.54808 14.5572 5.42486 14.6804ZM23.3675 18.2239C22.5981 18.4913 19.0126 20.3908 18.9284 20.5741C18.8503 20.7454 18.9434 20.8657 19.3251 21.076C19.5085 21.1812 20.8309 21.9386 22.2615 22.7621C23.689 23.5856 25.6907 24.7367 26.7095 25.3197C27.7254 25.9058 28.6931 26.4648 28.8584 26.564C29.5587 26.9878 29.5767 26.8856 29.3754 23.7208C29.2582 21.8755 29.165 21.4728 28.8675 21.5178C28.624 21.5539 28.4347 21.4547 27.9057 21.0039C27.7404 20.8657 27.4609 20.6733 27.2806 20.5771C27.1033 20.484 26.8899 20.3397 26.8057 20.2616C26.6224 20.0872 26.2317 19.8137 26.0724 19.7536C26.0093 19.7296 25.7989 19.5913 25.6065 19.4501C25.4142 19.3058 25.2158 19.1676 25.1647 19.1405C25.1136 19.1105 24.9003 18.9662 24.6929 18.8189C24.4885 18.6717 24.2901 18.5484 24.2571 18.5484C24.1519 18.5484 23.9415 18.3531 23.9235 18.2359C23.9024 18.0826 23.7762 18.0796 23.3675 18.2239ZM19.0186 23.9583C18.8232 24.2648 18.7421 25.6954 18.703 29.5785C18.6639 33.5217 18.5828 33.2302 19.5776 32.6471C19.8992 32.4578 20.6776 32.0069 21.3117 31.6403C24.0948 30.0354 25.4833 29.1427 25.9311 28.6708C26.1325 28.4605 26.1084 28.4214 25.7328 28.3733C25.5825 28.3522 25.4142 28.2831 25.2759 28.181C25.1557 28.0938 24.5757 27.7031 23.9836 27.3094C23.3915 26.9187 22.7183 26.4618 22.4839 26.2965C22.2524 26.1282 21.9489 25.9208 21.8106 25.8367C21.486 25.6323 21.4921 25.6353 20.8549 25.1905C20.5544 24.9801 20.1847 24.7367 20.0284 24.6495C19.8721 24.5624 19.6227 24.361 19.4754 24.2017C19.1328 23.832 19.1057 23.82 19.0186 23.9583Z" fill="url(#paint1_linear_5699_1778)"/>
</g>
<defs>
<linearGradient id="paint0_linear_5699_1778" x1="46.8145" y1="19.7537" x2="128.573" y2="19.7537" gradientUnits="userSpaceOnUse">
<stop stop-color="white"/>
<stop offset="1" stop-color="#C2C7CD"/>
</linearGradient>
<linearGradient id="paint1_linear_5699_1778" x1="4.39839e-08" y1="20.2469" x2="35.4205" y2="20.2469" gradientUnits="userSpaceOnUse">
<stop stop-color="white"/>
<stop offset="1" stop-color="#C2C7CD"/>
</linearGradient>
<clipPath id="clip0_5699_1778">
<rect width="128.573" height="40" fill="white"/>
</clipPath>
</defs>
</svg>
