<svg width="152" height="40" viewBox="0 0 152 40" fill="none" xmlns="http://www.w3.org/2000/svg">
<g clip-path="url(#clip0_5699_1781)">
<path d="M1.27318 0.452055C1.07784 0.670661 1.02667 1.0474 1.02667 2.35903C1.02667 4.4474 1.08714 4.54043 2.48714 4.6195C3.39411 4.67065 3.58481 4.73111 3.92435 5.0846C3.95225 5.11251 4.08249 5.24739 4.31504 5.4939C4.31039 15.0148 4.31039 20.3032 4.31039 21.3637C4.30574 33.8381 4.34295 37.2613 4.48714 37.3869C5.21737 38.0009 5.43133 38.1218 5.96157 38.2102C6.2918 38.266 6.73831 38.4055 6.95691 38.5172C7.17552 38.6334 7.50575 38.7265 7.6918 38.7265C7.87785 38.7265 8.2825 38.8381 8.58482 38.9683C8.9011 39.1032 10.1011 39.2986 11.3709 39.4148C12.5988 39.5265 13.7988 39.6893 14.036 39.7683C14.6313 39.973 15.4127 39.9544 16.6081 39.7079C17.1662 39.5962 18.1244 39.4567 18.7383 39.4009C19.3523 39.3497 20.1244 39.1823 20.4499 39.0288C22.0918 38.2753 22.4313 38.1311 22.5523 38.1311C22.6267 38.1311 22.7709 38.0009 22.8732 37.8334C22.9755 37.6706 23.1616 37.5358 23.2918 37.5358C23.6034 37.5358 25.6499 35.4288 25.8825 34.8613C25.9848 34.6148 26.1244 34.4102 26.1895 34.4102C26.2546 34.4102 26.3476 34.2148 26.4034 33.9776C26.4546 33.7358 26.5941 33.4613 26.7058 33.3637C26.822 33.2706 26.9616 32.9451 27.0127 32.6474C27.0639 32.3497 27.2174 31.9358 27.3523 31.7311C27.4871 31.5265 27.6732 30.8939 27.7662 30.3172C27.8639 29.7451 28.022 28.9776 28.1197 28.6055C28.4499 27.3404 28.3523 20.6939 27.9802 19.452C27.8081 18.8799 27.6685 18.2381 27.6685 18.0241C27.6685 17.8148 27.5337 17.4846 27.3709 17.2939C27.2081 17.1079 27.0732 16.8381 27.0732 16.6986C27.0732 16.559 26.9523 16.2846 26.8081 16.0893C26.6592 15.8939 26.4592 15.5637 26.3569 15.359C26.2546 15.1544 26.0871 14.8567 25.9895 14.6893C25.743 14.2846 24.4174 12.9776 24.2546 12.9776C24.1802 12.9776 24.0778 12.8613 24.0313 12.7125C23.9895 12.5683 23.7662 12.3683 23.5383 12.2753C23.3151 12.1776 23.0313 12.0334 22.9058 11.9544C22.3616 11.6055 21.4499 11.2334 20.943 11.1544C20.6406 11.1032 20.143 10.9497 19.8453 10.8055C19.022 10.4148 15.7709 10.4102 14.9616 10.8009C14.6406 10.9544 14.1058 11.1125 13.7709 11.1544C13.4313 11.1962 13.0592 11.3172 12.9337 11.4241C12.8127 11.5311 12.529 11.6613 12.3011 11.7172C12.0778 11.773 11.8918 11.8753 11.8918 11.9358C11.8918 12.0009 11.622 12.1869 11.2964 12.3497C11.2546 12.373 11.0546 12.4706 10.6964 12.6474C10.5616 12.4613 10.4918 12.3544 10.4778 12.3358C10.2918 12.0706 10.2546 11.0893 10.2546 6.19158C10.2546 1.01019 10.2313 0.349729 10.022 0.270659C9.35226 0.0148454 1.52435 0.177636 1.27318 0.452055ZM56.5383 0.484614C56.3616 0.814847 56.3848 4.2381 56.5662 4.41949C56.6174 4.47066 57.0546 4.54508 57.5337 4.58694C58.7523 4.6939 59.022 4.75902 59.2871 5.02879C59.4964 5.23809 59.5197 6.92646 59.5197 21.3172C59.5197 22.3869 59.5197 27.7404 59.5197 37.373C59.7662 37.5079 59.9011 37.5823 59.929 37.5962C60.6965 38.0148 60.9337 38.1079 62.0499 38.4288C62.6639 38.6009 63.4685 38.8474 63.836 38.9776C64.2034 39.1032 65.4453 39.2986 66.5895 39.4055C67.7383 39.5172 68.9104 39.68 69.1941 39.7637C69.836 39.9544 71.3569 39.9683 71.7011 39.7823C71.8406 39.7079 72.6592 39.573 73.5151 39.4799C74.3848 39.3869 75.3383 39.1916 75.6685 39.0381C75.9988 38.8846 76.6313 38.6055 77.0825 38.4148C77.5337 38.2288 78.0406 37.9544 78.2081 37.8055C78.3802 37.6567 78.5755 37.5358 78.6499 37.5358C78.7244 37.5358 78.9197 37.4055 79.0872 37.2381C79.2546 37.0753 79.6267 36.7125 79.9104 36.4334C80.4918 35.866 80.6034 35.7311 81.0174 35.08C81.1755 34.8381 81.3941 34.5451 81.5011 34.4381C81.6081 34.3311 81.6964 34.1404 81.6964 34.0148C81.6964 33.8893 81.8313 33.6195 81.9941 33.4102C82.1569 33.2009 82.2918 32.9218 82.2918 32.7916C82.2964 32.6613 82.3895 32.3637 82.5104 32.1404C82.6267 31.9125 82.7941 31.359 82.8779 30.9125C82.9569 30.466 83.1476 29.9218 83.2918 29.6986C83.7383 29.0148 83.6918 19.6753 83.2406 18.9311C83.0639 18.6474 82.8732 18.1311 82.8174 17.7869C82.7616 17.4427 82.622 17.0846 82.5058 16.9869C82.3895 16.8939 82.2918 16.6939 82.2918 16.5544C82.2918 16.4102 82.1662 16.1358 82.0174 15.9404C81.8639 15.7451 81.6871 15.4241 81.6267 15.2241C81.4825 14.773 78.9848 12.2334 78.6778 12.2334C78.5569 12.2334 78.4174 12.1358 78.3709 12.0102C78.3244 11.8893 78.1988 11.7869 78.0918 11.7869C77.9848 11.7869 77.6639 11.666 77.3802 11.5125C77.0918 11.3637 76.5569 11.1916 76.1895 11.1358C75.822 11.0753 75.3569 10.9218 75.1523 10.7869C74.6081 10.4334 70.9616 10.4334 70.2918 10.7869C70.0313 10.9265 69.529 11.0799 69.1755 11.1358C68.8174 11.1869 68.4267 11.3172 68.3011 11.4195C68.1802 11.5218 67.9104 11.652 67.7057 11.7125C67.5011 11.773 67.2267 11.9172 67.0965 12.0334C66.7244 12.359 65.9802 12.5311 65.7848 12.3404C65.6732 12.2241 65.622 10.4241 65.622 6.466C65.622 2.91717 65.5662 0.6474 65.4732 0.475307C65.2267 0.0101918 56.7848 0.0241472 56.5383 0.484614ZM85.6546 0.424149C85.5197 0.777637 85.5569 4.09857 85.6965 4.32182C85.7755 4.4474 86.2918 4.56368 87.0546 4.6288C88.6964 4.76832 88.6918 4.75437 88.7011 7.38693C88.7569 20.9404 88.6685 34.1869 88.5244 34.3637C88.2778 34.6613 87.0779 35.1544 86.6127 35.1544C86.3895 35.1544 86.0127 35.2241 85.7755 35.3079C85.7476 35.3172 85.6034 35.3683 85.343 35.4567C85.3616 36.3776 85.3709 36.8893 85.3755 36.9916C85.3941 37.8334 85.4499 38.6381 85.5011 38.773C85.6174 39.0753 97.3802 39.1683 97.929 38.8706C98.1895 38.7311 98.2174 38.5451 98.2174 37.0148C98.2174 35.0241 98.2127 35.0195 96.5941 34.8939C94.9197 34.7683 95.0918 36.7869 95.0918 17.4474C95.0918 16.3172 95.0918 10.6753 95.0918 0.52647C94.8639 0.419495 94.7383 0.363682 94.7151 0.349728C94.0825 0.0660072 85.7662 0.131125 85.6546 0.424149ZM141.231 10.5451C140.864 10.5823 140.352 10.7079 140.092 10.8288C139.831 10.9497 139.296 11.0893 138.901 11.1451C138.506 11.1962 137.948 11.3637 137.664 11.5125C137.376 11.666 137.027 11.7869 136.883 11.7869C136.738 11.7869 136.617 11.8567 136.617 11.9358C136.617 12.0148 136.38 12.1823 136.083 12.3032C135.101 12.7172 132.152 15.3916 132.152 15.8706C132.152 15.9823 132.05 16.1544 131.92 16.2613C131.794 16.3683 131.594 16.6613 131.478 16.9125C131.362 17.1637 131.203 17.4706 131.124 17.5916C131.045 17.7172 130.943 17.9962 130.896 18.2148C130.85 18.4334 130.715 18.7125 130.594 18.8334C130.473 18.9544 130.329 19.3451 130.278 19.6986C130.222 20.0567 130.087 20.5265 129.976 20.7404C129.869 20.959 129.71 21.6986 129.631 22.3776C129.552 23.0613 129.417 23.8567 129.329 24.1404C129.138 24.7869 129.129 27.0288 129.315 27.68C129.394 27.9451 129.534 28.8195 129.627 29.6148C129.72 30.4102 129.859 31.1358 129.929 31.2241C130.003 31.3079 130.138 31.7404 130.231 32.1823C130.329 32.6195 130.496 33.0753 130.608 33.1869C130.72 33.2986 130.859 33.5637 130.91 33.7776C130.966 33.9916 131.217 34.4613 131.469 34.8241C131.724 35.1823 131.999 35.5962 132.083 35.7404C132.273 36.0753 133.641 37.3869 133.799 37.3869C133.864 37.3869 134.11 37.5497 134.348 37.7497C134.585 37.9497 134.957 38.159 135.171 38.2102C135.389 38.266 135.641 38.4055 135.738 38.5172C135.831 38.6334 136.059 38.7265 136.245 38.7265C136.427 38.7265 136.738 38.852 136.934 39.0009C137.189 39.1962 137.78 39.3218 139.031 39.4474C139.989 39.5451 140.948 39.6893 141.162 39.773C141.701 39.9776 142.566 39.9544 143.496 39.7125C143.929 39.6009 144.85 39.4567 145.548 39.3962C146.306 39.3311 147.017 39.173 147.329 39.0055C147.617 38.852 147.948 38.7265 148.069 38.7265C148.283 38.7265 149.436 38.2427 149.864 37.9683C149.989 37.8939 150.324 37.7218 150.608 37.5962C151.752 37.0799 151.92 36.6893 151.329 35.9172C151.18 35.7218 151.055 35.4334 151.055 35.2706C151.055 35.1125 150.92 34.8102 150.757 34.6009C150.594 34.3916 150.459 34.1265 150.459 34.0102C150.459 33.1544 149.422 32.6427 148.882 33.2381C148.743 33.3916 148.548 33.5172 148.445 33.5172C148.348 33.5172 148.189 33.6102 148.096 33.7218C148.003 33.8334 147.682 33.9683 147.389 34.0148C147.092 34.0613 146.729 34.2148 146.576 34.3497C145.71 35.1311 140.092 35.1404 139.52 34.3637C139.431 34.2381 139.171 34.0893 138.952 34.0334C138.027 33.8009 136.171 31.1776 136.171 30.0986C136.171 29.8474 136.078 29.4102 135.962 29.1358C135.664 28.4195 135.985 28.1683 137.389 28.0055C137.989 27.9358 138.948 27.8102 139.52 27.7265C140.092 27.6427 140.98 27.5683 141.487 27.5683C142.055 27.5683 142.706 27.452 143.166 27.266C143.585 27.1032 144.055 26.9683 144.217 26.9683C144.376 26.9683 144.757 26.8381 145.064 26.6706C145.371 26.5079 145.757 26.373 145.929 26.373C146.096 26.373 146.464 26.2055 146.738 26.0009C147.017 25.7962 147.348 25.6288 147.478 25.6288C147.608 25.6288 147.827 25.5125 147.962 25.3683C148.096 25.2288 148.385 24.9776 148.603 24.8102C149.645 24.0241 151.055 22.173 151.055 21.5962C151.055 21.4334 151.194 21.0009 151.357 20.6334C151.803 19.6613 151.803 16.6846 151.362 15.8195C151.194 15.4939 151.055 15.066 151.055 14.8706C151.055 14.6753 150.92 14.3916 150.757 14.2427C150.594 14.0939 150.459 13.9125 150.459 13.8381C150.459 13.7218 149.324 12.5916 148.664 12.052C148.231 11.7032 147.12 11.2195 146.548 11.1404C146.241 11.0986 145.789 10.9637 145.548 10.8427C145.087 10.6148 142.455 10.4334 141.231 10.5451ZM29.8267 11.6753C29.7802 11.8613 29.7616 12.7497 29.7848 13.6474C29.7895 13.759 29.8034 14.3032 29.8267 15.2846C30.1848 15.3497 30.3848 15.3823 30.422 15.3869C32.2964 15.7079 33.622 16.5079 33.622 17.3172C33.622 17.3869 33.7383 17.5683 33.8825 17.7265C34.0267 17.8799 34.2639 18.1637 34.4081 18.359C34.5476 18.5497 34.836 18.9218 35.0406 19.1776C35.2406 19.4334 35.4081 19.7172 35.4081 19.8055C35.4081 19.8939 35.543 20.0381 35.7058 20.1218C35.8685 20.2102 36.0034 20.3497 36.0034 20.4334C36.0034 20.5172 36.2732 20.9451 36.5988 21.3869C36.929 21.8334 37.1941 22.2613 37.1941 22.3404C37.1941 22.4241 37.3151 22.5776 37.4592 22.6846C37.6034 22.7916 37.9755 23.2613 38.2825 23.7265C38.5895 24.1916 38.9058 24.6148 38.9848 24.666C39.236 24.8195 39.1476 25.7497 38.8546 26.0334C38.7057 26.1823 38.3755 26.6009 38.1244 26.9683C37.8685 27.3404 37.4406 27.8939 37.1662 28.2009C36.636 28.8055 36.4034 29.0986 35.7104 30.0195C35.4685 30.3497 35.1802 30.7172 35.0685 30.8381C34.9616 30.9637 34.2871 31.7869 33.5662 32.666C32.0081 34.5823 31.9337 34.6334 30.4592 34.866C29.0825 35.0846 29.129 34.9962 29.1895 37.3125C29.1941 37.4241 29.2081 37.9683 29.2313 38.9497L34.6267 38.9916L40.0174 39.0288C40.0732 38.8102 40.1011 38.6893 40.1104 38.666C40.2313 38.1823 40.129 35.2102 39.9848 35.0706C39.9244 35.0055 39.5104 34.9265 39.0639 34.8893C37.6081 34.7683 37.6174 33.9404 39.0825 32.6846C39.1848 32.5962 39.6081 32.0939 40.0174 31.5683C42.5662 28.3032 42.2778 28.3962 43.743 30.3172C43.9895 30.6474 44.3104 31.066 44.4546 31.252C44.5941 31.4381 44.8034 31.6939 44.9197 31.8195C45.3616 32.3172 46.422 34.0939 46.422 34.3497C46.422 34.4939 45.1569 35.0009 44.7802 35.0055C43.9383 35.0102 43.8174 35.2706 43.836 36.9962C43.8592 39.2381 43.2034 39.0241 50.1383 39.0241C57.1709 39.0241 56.543 39.2241 56.543 36.9776C56.543 35.1637 56.3895 34.9637 54.8871 34.8055C53.9383 34.7079 53.1197 34.2009 53.1197 33.7079C53.1197 33.6009 53.0313 33.4753 52.9151 33.4334C52.8034 33.3869 52.4918 33.0102 52.2174 32.5869C51.943 32.1637 51.5988 31.6846 51.4546 31.5172C51.3058 31.3497 51.0685 31.0799 50.9244 30.9172C50.7802 30.7544 50.5988 30.5125 50.5151 30.3776C50.143 29.7637 49.7616 29.266 49.5895 29.159C49.4871 29.0939 49.3988 28.9451 49.3988 28.8334C49.3988 28.7172 49.2825 28.5358 49.1383 28.4288C48.9941 28.3218 48.6825 27.9358 48.436 27.5637C48.1941 27.1962 47.9104 26.7962 47.8034 26.6706C47.6965 26.5497 47.3569 26.1218 47.0453 25.7218C47.0081 25.6753 46.8174 25.4334 46.4778 24.9962C46.6546 24.6427 46.7523 24.4474 46.7709 24.4055C46.9337 24.0846 47.1523 23.7823 47.2639 23.7404C47.3755 23.6986 47.4639 23.6009 47.4639 23.5265C47.4639 23.3497 48.9197 21.5823 49.1988 21.4195C49.3104 21.3544 49.3988 21.2381 49.3988 21.1637C49.3988 21.0893 49.7197 20.6055 50.1058 20.0893C50.8871 19.0474 50.9709 18.9451 51.6406 18.1869C51.8965 17.9032 52.2592 17.4334 52.4453 17.1451C53.1197 16.1218 54.0592 15.5683 55.4267 15.4009C55.7569 15.3637 56.0871 15.266 56.1709 15.1916C56.3151 15.052 56.3011 12.1172 56.1523 11.6009C56.0825 11.359 55.7151 11.3404 51.1244 11.3404C45.1709 11.3404 45.6778 11.1404 45.6825 13.5125C45.6871 15.3637 45.7755 15.5637 46.636 15.7032C47.8034 15.8893 47.6964 16.5544 46.2825 17.8893C46.1523 18.0148 45.8034 18.4846 45.5058 18.9311C45.2081 19.3823 44.7755 19.9544 44.543 20.1962C44.3104 20.4427 44.0453 20.7776 43.9616 20.9404C43.7011 21.4288 42.5523 21.173 42.5523 20.6241C42.5523 20.5125 42.4871 20.4195 42.4081 20.4195C42.2778 20.4195 42.0918 20.1776 41.2871 18.959C41.2081 18.8381 41.0174 18.5962 40.8732 18.4241C40.7244 18.252 40.5197 18.0148 40.4174 17.8893C39.4406 16.7218 39.636 16.0009 41.036 15.6009C42.3569 15.2241 42.3151 15.2986 42.2918 13.4939C42.2592 11.1265 42.9058 11.3404 35.836 11.3404C35.4406 11.3404 33.4639 11.3404 29.9058 11.3404L29.8267 11.6753ZM98.729 11.5358C98.6871 11.6427 98.6732 12.6288 98.6964 13.7311C98.7011 13.866 98.7151 14.5311 98.7383 15.7311C99.422 15.7776 99.7988 15.8009 99.8778 15.8055C101.766 15.9311 101.613 15.1265 101.669 25.0334C101.715 33.4381 101.715 33.4427 102.05 34.0381C102.236 34.3637 102.385 34.7869 102.385 34.9776C102.385 35.359 103.078 36.6474 103.385 36.8381C103.492 36.9032 103.576 37.0288 103.576 37.1172C103.576 37.4009 105.162 38.7265 105.496 38.7265C105.566 38.7265 105.78 38.852 105.976 39.0055C106.176 39.1637 106.72 39.3265 107.222 39.3869C107.715 39.4427 108.496 39.5962 108.962 39.7218C109.431 39.8474 110.031 39.9172 110.301 39.8753C113.045 39.4288 113.878 39.2427 114.52 38.9358C114.929 38.7404 115.348 38.5776 115.45 38.5776C115.548 38.5776 115.631 38.5125 115.631 38.4288C115.631 38.3497 115.724 38.2799 115.831 38.2799C116.096 38.2799 117.003 37.6102 117.803 36.8195C118.841 35.7962 119.12 35.9404 119.176 37.5311C119.231 39.1358 118.901 39.0195 123.492 39.0241C128.343 39.0241 127.985 39.1869 127.985 37.0334C127.985 35.0799 128.027 35.1358 126.236 34.8567C125.431 34.7311 125.166 34.6195 124.896 34.2986C124.878 34.2706 124.766 34.1358 124.566 33.8893C124.562 27.2986 124.562 23.6381 124.562 22.9032C124.562 15.6148 124.51 11.8195 124.408 11.6288C124.264 11.3544 124.055 11.3404 119.873 11.3404C119.58 11.3404 118.12 11.3404 115.487 11.3404C115.441 11.5451 115.413 11.6567 115.408 11.6753C115.362 11.8613 115.343 12.8474 115.366 13.8706C115.371 13.9962 115.385 14.6148 115.408 15.7311C115.943 15.7544 116.241 15.7683 116.301 15.773C118.599 15.8706 118.482 15.4241 118.431 23.8753C118.389 30.1079 118.362 30.8055 118.124 31.2102C117.985 31.4567 117.869 31.7125 117.864 31.7776C117.864 32.1311 116.287 33.9637 115.985 33.9637C115.887 33.9637 115.613 34.1172 115.385 34.3079C114.538 34.9962 112.096 35.2706 110.617 34.8474C109.836 34.6241 109.352 34.2195 108.65 33.2195C108.301 32.7218 108.217 32.4055 107.924 30.5404C107.855 30.0939 107.817 25.773 107.836 20.9404C107.864 15.0102 107.822 12.0288 107.715 11.7497C107.706 11.7265 107.655 11.5869 107.557 11.3404C104.934 11.3404 103.473 11.3404 103.18 11.3404C99.729 11.3404 98.7895 11.3823 98.729 11.5358ZM143.594 15.0706C146.129 15.6567 146.757 19.3265 144.655 21.266C143.873 21.9869 143.548 22.2195 143.176 22.3079C142.966 22.359 142.636 22.5265 142.441 22.6753C142.245 22.8288 141.892 22.9497 141.65 22.9497C141.413 22.9497 141.017 23.0567 140.776 23.1823C140.143 23.5079 136.11 23.8055 135.803 23.5497C135.482 23.2846 135.52 22.1218 135.878 21.3358C136.041 20.9776 136.171 20.5172 136.171 20.3079C136.171 19.959 136.715 18.7265 137.334 17.68C137.673 17.1032 139.022 15.8102 139.287 15.8102C139.403 15.8055 139.617 15.6986 139.766 15.5637C140.348 15.0381 142.343 14.7823 143.594 15.0706ZM17.7941 15.5265C17.9476 15.6567 18.2406 15.8055 18.4453 15.8567C18.9383 15.973 20.3058 17.2613 20.4499 17.7404C20.5104 17.9451 20.6778 18.2474 20.822 18.4102C20.9709 18.5776 21.1383 18.9451 21.1941 19.2288C21.2546 19.5172 21.3709 19.8334 21.4499 19.9311C22.1058 20.7451 22.0732 27.9823 21.4034 30.2334C21.2499 30.759 21.1197 31.266 21.1197 31.3637C21.1197 31.4567 20.9848 31.6567 20.822 31.8055C20.6592 31.9544 20.5244 32.1962 20.5244 32.3451C20.5244 32.4939 20.4034 32.7358 20.2499 32.8799C20.1011 33.0288 19.9383 33.2613 19.8871 33.3962C19.836 33.5358 19.6081 33.7683 19.3802 33.9079C19.1523 34.052 18.8918 34.2474 18.8081 34.3497C18.0406 35.252 14.8267 35.6102 12.9337 35.0055C12.422 34.8427 11.8499 34.7079 11.6592 34.7079C11.4685 34.7079 11.0732 34.4893 10.7802 34.2195C10.743 34.1869 10.5662 34.0241 10.2406 33.7265L10.2871 26.066L10.329 18.4055C10.529 18.1497 10.6406 18.0055 10.6639 17.9776C10.8499 17.7451 10.9988 17.4799 10.9988 17.3869C10.9988 17.1358 12.529 15.8102 12.8174 15.8055C12.9616 15.8055 13.2964 15.6706 13.5616 15.5032C14.2034 15.1032 17.329 15.1218 17.7941 15.5265ZM73.0313 15.5079C73.3011 15.6753 73.6127 15.8055 73.729 15.8055C74.3104 15.8055 76.1197 17.9451 76.2964 18.8381C76.3476 19.0939 76.5058 19.4706 76.6499 19.6753C77.5011 20.8893 77.4825 29.0381 76.6267 30.5125C76.4685 30.7823 76.3383 31.1172 76.3383 31.2567C76.3383 31.3962 76.2406 31.6753 76.1244 31.8799C76.0081 32.0846 75.8034 32.466 75.6685 32.7218C75.329 33.3823 73.9197 34.7079 73.5662 34.7079C73.4732 34.7079 73.1011 34.8427 72.7476 35.0055C71.836 35.4148 69.5895 35.4195 68.2778 35.0102C67.7616 34.8474 67.1848 34.7125 67.0034 34.7125C66.822 34.7125 66.4406 34.5032 66.1476 34.2474C66.1151 34.2148 65.9383 34.0613 65.622 33.7869C65.622 29.3079 65.622 26.8195 65.622 26.3218C65.6267 19.9916 65.6592 18.7916 65.8453 18.4334C65.9709 18.1962 66.0686 17.9079 66.0686 17.7869C66.0686 17.4288 67.7662 15.8055 68.143 15.8055C68.329 15.8055 68.6499 15.6753 68.8592 15.5079C69.4174 15.0706 72.3104 15.0706 73.0313 15.5079Z" fill="url(#paint0_linear_5699_1781)"/>
</g>
<defs>
<linearGradient id="paint0_linear_5699_1781" x1="1.02667" y1="20.2692" x2="151.692" y2="20.2692" gradientUnits="userSpaceOnUse">
<stop stop-color="white"/>
<stop offset="1" stop-color="#C2C7CD"/>
</linearGradient>
<clipPath id="clip0_5699_1781">
<rect width="151.163" height="40" fill="white" transform="translate(0.628998)"/>
</clipPath>
</defs>
</svg>
