<svg width="121" height="40" viewBox="0 0 121 40" fill="none" xmlns="http://www.w3.org/2000/svg">
<g clip-path="url(#clip0_5699_1810)">
<path d="M55.1317 15.0472C52.9302 15.0472 50.8042 16.7792 49.1712 19.3367V17.9162C49.1712 16.9257 48.7847 15.9757 48.0969 15.2751C47.409 14.5747 46.4762 14.1812 45.5034 14.1812H40.735C40.6657 14.1822 40.5997 14.2107 40.5507 14.2606C40.5019 14.3104 40.4739 14.3777 40.4729 14.4483V34.6812C40.4729 37.0113 39.3394 37.0042 37.7997 37.0042H36.0461C36.0116 37.0035 35.9772 37.01 35.9452 37.0233C35.913 37.0365 35.8839 37.0562 35.8596 37.081C35.8351 37.106 35.8157 37.1357 35.8027 37.1683C35.7897 37.2008 35.7834 37.236 35.7839 37.2712V38.3678C35.7834 38.403 35.7897 38.438 35.8027 38.4707C35.8157 38.5033 35.8351 38.533 35.8596 38.5578C35.8839 38.5827 35.913 38.6025 35.9452 38.6157C35.9772 38.6288 36.0116 38.6353 36.0461 38.6348H53.6097C53.6792 38.6348 53.746 38.6067 53.7952 38.5565C53.8444 38.5065 53.872 38.4387 53.872 38.3678V37.2712C53.8725 37.236 53.866 37.2008 53.8532 37.1683C53.84 37.1357 53.8209 37.106 53.7964 37.081C53.7719 37.0562 53.7429 37.0365 53.7109 37.0233C53.6787 37.01 53.6444 37.0035 53.6097 37.0042H51.8682C50.3284 37.0042 49.195 36.201 49.195 34.6812V20.8338C49.5487 19.9152 50.4665 18.6728 51.0864 18.6728C52.3979 18.6728 52.5527 22.845 55.8549 22.845C57.7067 22.845 58.9822 21.3113 58.9822 19.0655C58.9544 16.6983 57.3687 15.0472 55.1317 15.0472Z" fill="url(#paint0_linear_5699_1810)"/>
<path d="M119.5 34.5233C119.389 34.3518 119.059 33.8192 119.059 33.8192C119.022 33.7587 118.962 33.716 118.893 33.7C118.825 33.684 118.753 33.6963 118.694 33.7342L117.632 34.4342C116.627 35.0737 115.704 35.3897 114.732 35.0737C114.267 34.907 113.854 34.6177 113.534 34.2353C113.216 33.8527 113.003 33.3907 112.916 32.8965C112.884 32.7205 112.868 32.5417 112.869 32.3623V22.9053C112.869 20.955 113.714 20.1457 116.048 20.1415H117.295C117.366 20.1407 117.433 20.1117 117.482 20.0612C117.532 20.0103 117.56 19.9422 117.561 19.8705V18.7778C117.561 18.7428 117.553 18.7082 117.539 18.676C117.526 18.6438 117.506 18.6147 117.481 18.5903C117.456 18.5658 117.427 18.5465 117.396 18.5337C117.364 18.5207 117.329 18.5143 117.295 18.5148H113.381C113.312 18.5148 113.244 18.501 113.18 18.4742C113.117 18.4473 113.059 18.4082 113.01 18.3585C112.962 18.3088 112.923 18.25 112.897 18.1852C112.87 18.1203 112.856 18.0508 112.856 17.9807V12.9184C112.856 12.8472 112.827 12.7793 112.777 12.7294C112.727 12.6793 112.661 12.6514 112.59 12.6514H107.814C107.332 12.6514 106.856 12.748 106.411 12.9358C105.966 13.1235 105.562 13.3987 105.222 13.7456C104.881 14.0924 104.612 14.5042 104.428 14.9573C104.244 15.4105 104.149 15.896 104.15 16.3864V18.001C104.149 18.1423 104.093 18.2775 103.995 18.3775C103.897 18.4775 103.764 18.534 103.625 18.5352H101.241C101.043 18.5352 100.845 18.5222 100.677 18.5068C98.3286 18.2923 97.4702 16.6858 97.4662 14.9377V11.1217C97.4662 4.93447 98.0107 1.55559 100.848 1.50699H101.436C105.41 1.50699 103.097 9.19558 108.374 9.19558C110.198 9.19558 111.477 7.76305 111.477 5.86115C111.477 2.43367 107.436 0.600586 102.119 0.600586C101.889 0.600586 101.134 0.600586 100.927 0.600586C93.6754 0.843368 88.7202 4.97497 88.7202 10.8992V34.681C88.7202 36.1758 87.5869 37.0125 86.0471 37.0125H84.952C83.4122 37.0125 82.2789 36.201 82.2789 34.681V21.4407C82.2789 17.2807 79.0444 14.4197 74.4469 14.4197C71.1726 14.4197 60.237 17.928 60.237 22.954C60.237 24.9045 61.5126 26.2883 63.3881 26.2883C68.1047 26.2883 66.0266 18.8387 68.1962 16.9812C68.7309 16.5242 69.4095 16.2785 70.1075 16.2893C72.15 16.2893 73.6839 18.2842 73.6839 21.6187V24.8073C68.1962 27.5793 60.2805 30.5293 60.2805 34.7337C60.2805 37.4167 62.494 39.4115 65.4702 39.4115C68.1486 39.4115 71.3035 37.724 73.6839 35.1627C73.6834 35.6177 73.7709 36.0683 73.9417 36.4888C74.1124 36.9093 74.363 37.2913 74.679 37.6132C74.9949 37.9348 75.37 38.19 75.783 38.364C76.1959 38.5378 76.6386 38.6272 77.0852 38.6267H101.869C101.939 38.6267 102.006 38.5985 102.056 38.5485C102.106 38.4985 102.134 38.4307 102.135 38.3595V37.275C102.133 37.2045 102.104 37.1377 102.055 37.0885C102.005 37.0393 101.938 37.0118 101.869 37.0118L100.101 37.0123C98.5611 37.0123 97.4274 36.201 97.4274 34.681L97.4346 20.429C97.4346 20.3613 97.4609 20.2965 97.5079 20.2487C97.5547 20.2008 97.6186 20.174 97.6847 20.174H101.21C103.331 20.2388 104.122 21.0642 104.13 22.9298V33.3417C104.155 34.3705 104.455 35.373 104.998 36.2415C105.541 37.1098 106.305 37.8113 107.21 38.2703C108.422 38.868 109.758 39.1622 111.104 39.1283C112.158 39.1177 113.203 38.9262 114.196 38.5618C115.917 37.9338 117.488 36.9333 118.777 35.6118C119.018 35.3645 119.258 35.106 119.48 34.843C119.521 34.7945 119.545 34.7455 119.548 34.6868C119.552 34.6282 119.532 34.5722 119.5 34.5233ZM73.6839 34.1187C73.4309 34.48 73.0997 34.7777 72.7161 34.9882C72.3322 35.1987 71.9061 35.3163 71.4706 35.3327C69.8094 35.3327 68.6611 33.9042 68.6611 31.8647C68.6611 29.1657 70.2029 27.4862 72.9169 26.0213C72.9969 25.979 73.0862 25.9582 73.1762 25.9612C73.2664 25.964 73.3542 25.9907 73.4312 26.0383C73.5082 26.0858 73.5721 26.1528 73.6162 26.2328C73.6606 26.3128 73.6837 26.403 73.6839 26.4948V34.1187Z" fill="url(#paint1_linear_5699_1810)"/>
<path d="M37.2735 22.5942C37.3167 20.6287 37.0526 18.6685 36.4907 16.7873C35.8669 14.8673 34.8574 13.1006 33.5262 11.5996C31.7624 9.67273 29.587 8.18442 27.1685 7.24957C25.504 6.59682 21.8797 5.64307 16.9005 5.64307H1.15281C1.11891 5.64307 1.08533 5.64985 1.05399 5.66308C1.02265 5.67625 0.99421 5.69568 0.97018 5.72012C0.946215 5.74455 0.92719 5.77352 0.914218 5.80545C0.901248 5.83732 0.894531 5.8715 0.894531 5.90607V7.0108C0.894531 7.08167 0.922185 7.14955 0.971363 7.19967C1.02054 7.2497 1.08736 7.27788 1.15683 7.27788C2.55815 7.27788 3.47345 8.04272 3.47345 9.8677L3.47278 27.3288C3.47278 27.523 4.00198 27.5958 4.21655 27.3288C4.83247 26.5437 5.91727 25.9368 7.82865 25.9368C9.61278 25.9368 10.8248 26.5437 11.4446 27.3288C11.6552 27.608 12.1838 27.5352 12.1838 27.3288V9.8677C12.1838 8.04272 13.1016 7.2819 15.3627 7.2819C17.6834 7.2819 19.988 7.38312 22.2292 8.09125C24.7405 8.8844 26.5247 11.4661 27.3632 13.8617C28.3565 16.7308 28.607 20.0043 28.5037 23.0232C28.4164 24.7213 28.1499 26.405 27.7089 28.0452C26.9817 30.3437 26.1512 32.472 24.3989 34.1635C22.7477 35.7242 20.6937 36.7727 18.478 37.1863C17.4645 37.3845 16.4344 37.4807 15.4024 37.4737C12.4023 37.4737 12.1639 34.5965 12.1639 34.111C12.1639 32.0635 10.6261 29.7042 7.5385 29.7932C6.53692 29.8532 5.58833 30.2718 4.8603 30.9748C4.24703 31.5517 3.80888 32.2955 3.59762 33.118C3.3864 33.9405 3.41083 34.8075 3.66818 35.6163C4.26027 37.4858 6.05637 38.6715 8.1028 38.6715H18.3627C21.3665 38.6987 24.3485 38.1497 27.1525 37.0528C28.8785 36.3702 30.4879 35.4142 31.921 34.2202C33.611 32.8142 34.9692 31.0393 35.8957 29.0272C36.822 27.015 37.293 24.8167 37.2735 22.5942Z" fill="url(#paint2_linear_5699_1810)"/>
</g>
<defs>
<linearGradient id="paint0_linear_5699_1810" x1="35.7839" y1="26.559" x2="58.9822" y2="26.559" gradientUnits="userSpaceOnUse">
<stop stop-color="white"/>
<stop offset="1" stop-color="#C2C7CD"/>
</linearGradient>
<linearGradient id="paint1_linear_5699_1810" x1="60.237" y1="20.2456" x2="119.548" y2="20.2456" gradientUnits="userSpaceOnUse">
<stop stop-color="white"/>
<stop offset="1" stop-color="#C2C7CD"/>
</linearGradient>
<linearGradient id="paint2_linear_5699_1810" x1="0.894531" y1="22.3616" x2="37.2781" y2="22.3616" gradientUnits="userSpaceOnUse">
<stop stop-color="white"/>
<stop offset="1" stop-color="#C2C7CD"/>
</linearGradient>
<clipPath id="clip0_5699_1810">
<rect width="120" height="40" fill="white" transform="translate(0.254883)"/>
</clipPath>
</defs>
</svg>
