<svg width="189" height="40" viewBox="0 0 189 40" fill="none" xmlns="http://www.w3.org/2000/svg">
<path d="M12.8144 39.4999C13.2144 38.6999 14.4144 36.6999 15.6144 34.5999C16.7144 32.6999 17.8144 30.8999 18.1144 30.2999C19.4144 28.0999 22.4144 28.1999 24.7144 28.1999C25.0144 28.1999 25.4144 28.1999 25.7144 28.1999H27.8144L22.7144 36.9999C21.8144 38.4999 20.3144 39.3999 18.6144 39.4999H17.0144H12.8144Z" fill="url(#paint0_linear_5700_1780)"/>
<path d="M36.5144 25.7998L39.4144 20.7998H33.9144H29.8144C23.2144 20.7998 21.1144 24.7998 19.7144 27.4998C19.5144 27.8998 19.3144 28.1998 19.2144 28.4998C18.6144 29.4998 18.2144 30.2998 18.2144 30.2998C19.5144 28.0998 22.5144 28.1998 24.8144 28.1998C25.1144 28.1998 25.5144 28.1998 25.8144 28.1998H27.9144H32.3144C34.0144 28.1998 35.6144 27.2998 36.5144 25.7998Z" fill="url(#paint1_linear_5700_1780)"/>
<path d="M10.0144 0.399902C10.4144 1.1999 11.6144 3.1999 12.8144 5.2999C13.9144 7.1999 14.9144 9.0999 15.3144 9.6999C16.6144 11.8999 15.0144 14.4999 13.8144 16.4999C13.6144 16.7999 13.5144 17.0999 13.3144 17.2999L12.3144 19.0999L7.21441 10.2999C6.41441 8.7999 6.31441 6.9999 7.21441 5.4999L7.91441 4.0999L10.0144 0.399902Z" fill="url(#paint2_linear_5700_1780)"/>
<path d="M17.0144 12.4001C16.8144 12.1001 16.6144 11.7001 16.4144 11.4001C15.8144 10.4001 15.3144 9.6001 15.3144 9.6001C16.6144 11.8001 15.0144 14.4001 13.8144 16.4001C13.6144 16.7001 13.5144 17.0001 13.3144 17.2001L12.3144 19.0001L10.1144 23.0001C9.21439 24.5001 9.21439 26.3001 10.1144 27.8001L13.0144 32.8001L15.7144 28.0001L17.8144 24.5001C21.0144 18.8001 18.7144 15.1001 17.0144 12.4001Z" fill="url(#paint3_linear_5700_1780)"/>
<path d="M45.1144 18.1999C44.2144 18.1999 41.8144 18.1999 39.5144 18.1999C37.3144 18.1999 35.2144 18.1999 34.5144 18.1999C32.0144 18.1999 30.5144 15.4999 29.4144 13.4999C29.2144 13.1999 29.1144 12.8999 28.9144 12.6999L27.8144 10.8999H38.0144C39.7144 10.8999 41.3144 11.7999 42.2144 13.2999L43.0144 14.5999L45.1144 18.1999Z" fill="url(#paint4_linear_5700_1780)"/>
<path d="M21.4144 4.6001H15.6144L18.4144 9.4001L20.5144 12.9001C23.8144 18.7001 28.3144 18.2001 31.3144 18.2001C31.7144 18.2001 32.1144 18.2001 32.4144 18.2001C33.6144 18.2001 34.5144 18.2001 34.5144 18.2001C32.0144 18.2001 30.5144 15.5001 29.4144 13.5001C29.2144 13.2001 29.1144 12.9001 28.9144 12.7001L27.8144 10.9001L25.6144 7.0001C24.7144 5.6001 23.1144 4.6001 21.4144 4.6001Z" fill="url(#paint5_linear_5700_1780)"/>
<path d="M58.7144 11H54.2144V33.9H58.7144V26C59.6144 27.1 61.4144 28.1 63.8144 28.1C69.1144 28.1 72.2144 24.2 72.2144 19.3C72.2144 14.4 69.1144 10.5 63.8144 10.5C61.4144 10.5 59.4144 11.6 58.7144 12.5V11ZM58.5144 19.3C58.5144 16.4 60.3144 14.6 63.1144 14.6C65.9144 14.6 67.7144 16.7 67.7144 19.3C67.7144 22.1 66.0144 24.1 63.1144 24.1C60.3144 24.1 58.5144 22.1 58.5144 19.3Z" fill="url(#paint6_linear_5700_1780)"/>
<path d="M74.0144 27.6999H78.6144V4.8999H74.0144V27.6999Z" fill="url(#paint7_linear_5700_1780)"/>
<path d="M93.7144 27.7001H98.2144V11.0001H93.7144V12.7001C92.8144 11.6001 91.0144 10.6001 88.6144 10.6001C83.3144 10.6001 80.2144 14.5001 80.2144 19.4001C80.2144 24.3001 83.3144 28.2001 88.6144 28.2001C91.0144 28.2001 93.0144 27.1001 93.7144 26.2001V27.7001ZM93.9144 19.3001C93.9144 22.2001 92.1144 24.0001 89.3144 24.0001C86.5144 24.0001 84.7144 21.9001 84.7144 19.3001C84.7144 16.5001 86.4144 14.5001 89.3144 14.5001C92.1144 14.6001 93.9144 16.6001 93.9144 19.3001Z" fill="url(#paint8_linear_5700_1780)"/>
<path d="M109.714 10.6001C108.214 10.6001 106.314 11.3001 105.214 12.4001V11.0001H100.714V27.8001H105.214V18.9001C105.114 15.2001 107.214 14.5001 108.414 14.5001C110.214 14.5001 111.614 15.3001 111.614 17.9001V27.8001H116.314V17.9001C116.314 13.5001 114.614 10.6001 109.714 10.6001Z" fill="url(#paint9_linear_5700_1780)"/>
<path d="M131.614 27.7001H136.114V11.0001H131.614V12.7001C130.714 11.6001 128.914 10.6001 126.514 10.6001C121.214 10.6001 118.114 14.5001 118.114 19.4001C118.114 24.3001 121.214 28.2001 126.514 28.2001C128.914 28.2001 130.914 27.1001 131.614 26.2001V27.7001ZM131.714 19.3001C131.714 22.2001 129.914 24.0001 127.114 24.0001C124.314 24.0001 122.514 21.9001 122.514 19.3001C122.514 16.5001 124.214 14.5001 127.114 14.5001C130.014 14.6001 131.714 16.6001 131.714 19.3001Z" fill="url(#paint10_linear_5700_1780)"/>
<path d="M143.114 27.6999V25.9999C143.814 26.8999 145.814 27.9999 148.214 27.9999C153.514 27.9999 156.614 24.0999 156.614 19.1999C156.614 14.2999 153.514 10.3999 148.214 10.3999C145.814 10.3999 144.014 11.3999 143.114 12.4999V4.8999H138.614V27.7999H143.114V27.6999ZM142.914 19.2999C142.914 16.4999 144.714 14.4999 147.514 14.4999C150.414 14.4999 152.114 16.4999 152.114 19.2999C152.114 21.9999 150.314 23.9999 147.514 23.9999C144.714 24.0999 142.914 22.2999 142.914 19.2999Z" fill="url(#paint11_linear_5700_1780)"/>
<path d="M158.414 27.6999H163.014V4.8999H158.414V27.6999Z" fill="url(#paint12_linear_5700_1780)"/>
<path d="M173.714 28.1998C178.614 28.1998 180.914 25.1998 181.514 24.2998L178.014 22.2998C177.514 22.8998 176.214 24.2998 173.714 24.2998C172.814 24.2998 169.714 23.9998 169.114 21.1998H182.314C182.314 21.1998 182.414 20.3998 182.414 19.0998C182.214 13.6998 177.914 10.7998 173.614 10.7998C170.514 10.7998 164.514 12.5998 164.514 19.4998C164.614 26.2998 170.414 28.1998 173.714 28.1998ZM173.714 14.6998C176.014 14.6998 177.514 16.3998 177.714 17.8998H169.314C169.414 16.1998 171.014 14.6998 173.714 14.6998Z" fill="url(#paint13_linear_5700_1780)"/>
<defs>
<linearGradient id="paint0_linear_5700_1780" x1="12.8144" y1="33.9193" x2="27.8144" y2="33.9193" gradientUnits="userSpaceOnUse">
<stop stop-color="white"/>
<stop offset="1" stop-color="#C2C7CD"/>
</linearGradient>
<linearGradient id="paint1_linear_5700_1780" x1="18.2144" y1="25.6084" x2="39.4144" y2="25.6084" gradientUnits="userSpaceOnUse">
<stop stop-color="white"/>
<stop offset="1" stop-color="#C2C7CD"/>
</linearGradient>
<linearGradient id="paint2_linear_5700_1780" x1="6.57635" y1="9.86533" x2="15.7984" y2="9.86533" gradientUnits="userSpaceOnUse">
<stop stop-color="white"/>
<stop offset="1" stop-color="#C2C7CD"/>
</linearGradient>
<linearGradient id="paint3_linear_5700_1780" x1="9.43939" y1="21.3433" x2="19.4168" y2="21.3433" gradientUnits="userSpaceOnUse">
<stop stop-color="white"/>
<stop offset="1" stop-color="#C2C7CD"/>
</linearGradient>
<linearGradient id="paint4_linear_5700_1780" x1="27.8144" y1="14.595" x2="45.1144" y2="14.595" gradientUnits="userSpaceOnUse">
<stop stop-color="white"/>
<stop offset="1" stop-color="#C2C7CD"/>
</linearGradient>
<linearGradient id="paint5_linear_5700_1780" x1="15.6144" y1="11.4895" x2="34.5144" y2="11.4895" gradientUnits="userSpaceOnUse">
<stop stop-color="white"/>
<stop offset="1" stop-color="#C2C7CD"/>
</linearGradient>
<linearGradient id="paint6_linear_5700_1780" x1="54.2144" y1="22.3444" x2="72.2144" y2="22.3444" gradientUnits="userSpaceOnUse">
<stop stop-color="white"/>
<stop offset="1" stop-color="#C2C7CD"/>
</linearGradient>
<linearGradient id="paint7_linear_5700_1780" x1="74.0144" y1="16.4406" x2="78.6144" y2="16.4406" gradientUnits="userSpaceOnUse">
<stop stop-color="white"/>
<stop offset="1" stop-color="#C2C7CD"/>
</linearGradient>
<linearGradient id="paint8_linear_5700_1780" x1="80.2144" y1="19.5087" x2="98.2144" y2="19.5087" gradientUnits="userSpaceOnUse">
<stop stop-color="white"/>
<stop offset="1" stop-color="#C2C7CD"/>
</linearGradient>
<linearGradient id="paint9_linear_5700_1780" x1="100.714" y1="19.3063" x2="116.314" y2="19.3063" gradientUnits="userSpaceOnUse">
<stop stop-color="white"/>
<stop offset="1" stop-color="#C2C7CD"/>
</linearGradient>
<linearGradient id="paint10_linear_5700_1780" x1="118.114" y1="19.5087" x2="136.114" y2="19.5087" gradientUnits="userSpaceOnUse">
<stop stop-color="white"/>
<stop offset="1" stop-color="#C2C7CD"/>
</linearGradient>
<linearGradient id="paint11_linear_5700_1780" x1="138.614" y1="16.5925" x2="156.614" y2="16.5925" gradientUnits="userSpaceOnUse">
<stop stop-color="white"/>
<stop offset="1" stop-color="#C2C7CD"/>
</linearGradient>
<linearGradient id="paint12_linear_5700_1780" x1="158.414" y1="16.4406" x2="163.014" y2="16.4406" gradientUnits="userSpaceOnUse">
<stop stop-color="white"/>
<stop offset="1" stop-color="#C2C7CD"/>
</linearGradient>
<linearGradient id="paint13_linear_5700_1780" x1="164.514" y1="19.6072" x2="182.414" y2="19.6072" gradientUnits="userSpaceOnUse">
<stop stop-color="white"/>
<stop offset="1" stop-color="#C2C7CD"/>
</linearGradient>
</defs>
</svg>
