<svg width="161" height="40" viewBox="0 0 161 40" fill="none" xmlns="http://www.w3.org/2000/svg">
<g clip-path="url(#clip0_5700_1767)">
<path d="M20.9709 0C9.93941 0 0.996338 8.93943 0.996338 19.9665C0.996338 30.9935 9.93941 39.9329 20.9709 39.9329C32.0024 39.9329 40.9456 30.9935 40.9456 19.9665C40.9456 8.93943 32.0024 0 20.9709 0ZM15.1978 31.9003H14.7773C14.3385 31.9003 13.9616 31.5853 13.8856 31.1523L11.0504 15.0813C10.9956 14.7707 10.7917 14.519 10.5188 14.3602C9.8297 13.9581 9.36561 13.2116 9.36561 12.3569C9.36561 10.9834 10.5596 9.88974 11.966 10.0542C12.9842 10.1737 13.8266 10.9834 13.9799 11.9956C14.0868 12.7041 13.873 13.3635 13.4609 13.8513C13.2584 14.0917 13.1909 14.4192 13.2458 14.7299L16.0866 30.8389C16.1837 31.3928 15.7575 31.9003 15.195 31.9003H15.1978ZM34.6688 21.7012C29.177 27.5661 23.6839 19.1934 18.1919 22.7261C17.8825 22.8834 17.583 22.7654 17.5197 22.4083C17.0556 19.7261 16.5901 17.0972 16.126 14.5415C16.0641 14.2027 16.2638 13.6516 16.5732 13.3747C22.065 7.7656 27.5569 16.6305 33.0502 13.826C33.5423 13.6291 33.9122 14.0298 33.6451 14.5907C32.9714 15.981 32.2964 17.2013 31.6227 18.2992C31.4609 18.5593 31.53 18.943 31.7773 19.1525C32.8139 20.0213 33.8489 20.5105 34.8855 20.4472C35.2946 20.3966 35.1597 21.2091 34.6688 21.7012Z" fill="url(#paint0_linear_5700_1767)"/>
<path d="M89.0178 30.1414C89.0178 31.0609 88.8238 31.3294 87.9264 31.6357C86.4048 32.1728 84.3009 32.5172 81.8439 32.5172C75.0596 32.5172 72.3707 28.3012 72.3707 23.703C72.3707 18.1459 76.0356 13.5854 82.0788 13.5854C86.9533 13.5854 89.9938 15.9233 89.9938 22.4757C89.9938 22.9353 89.9938 23.4345 89.9543 23.9321C89.8756 24.8908 89.6815 25.082 88.707 25.082H79.2717C78.6487 25.082 78.3759 25.1974 78.3759 25.4657C78.3759 25.6191 78.4925 25.8481 78.688 26.1561C79.3899 27.1907 80.754 27.7278 83.2108 27.7278C84.7705 27.7278 86.2135 27.5744 87.8898 27.0375C88.2021 26.9222 88.3961 26.8842 88.5522 26.8842C88.9025 26.8842 89.0205 27.1527 89.0205 27.8036V30.1414H89.0178ZM82.0774 18.6449C80.6358 18.6449 79.543 19.1425 78.8413 20.2546C78.6473 20.5609 78.5291 20.7902 78.5291 20.9448C78.5291 21.2133 78.8019 21.3285 79.387 21.3285H83.637C84.2995 21.3285 84.5723 21.2133 84.5723 20.8309C84.5723 20.6777 84.5328 20.4092 84.4162 20.1407C84.0266 19.2212 83.2869 18.6463 82.0774 18.6463V18.6449Z" fill="url(#paint1_linear_5700_1767)"/>
<path d="M101.96 32.5172C99.7779 32.5172 97.7499 32.0955 96.2295 31.4446C95.3718 31.0988 95.1762 30.8317 95.1762 29.9124V27.4986C95.1762 26.8857 95.255 26.6172 95.5673 26.6172C95.7219 26.6172 95.9567 26.6945 96.2295 26.8084C97.7893 27.4593 100.011 28.0342 101.688 28.0342C102.818 28.0342 103.443 27.6898 103.443 27.0755C103.443 26.2713 102.312 25.8496 100.869 25.2747C98.4137 24.3553 95.1777 23.1294 95.1777 19.3352C95.1777 15.8854 97.7513 13.5869 103.364 13.5869C104.886 13.5869 106.25 13.7795 107.302 14.0846C108.198 14.3531 108.395 14.6216 108.395 15.541V18.3384C108.395 19.0288 108.316 19.2579 107.966 19.2579C107.772 19.2579 107.576 19.2198 107.303 19.1425C106.173 18.8362 104.575 18.5676 103.249 18.5676C101.923 18.5676 101.299 18.8362 101.299 19.5264C101.299 20.1773 102.392 20.599 103.757 21.1361C106.213 22.0554 109.566 23.2812 109.566 26.9603C109.566 31.0609 106.097 32.5172 101.963 32.5172H101.96Z" fill="url(#paint2_linear_5700_1767)"/>
<path d="M120.558 31.3434C120.558 32.3175 120.363 32.5131 119.388 32.5131H115.84C114.865 32.5131 114.67 32.319 114.67 31.3434V14.7551C114.67 13.7808 114.864 13.5854 115.84 13.5854H119.388C120.361 13.5854 120.558 13.7794 120.558 14.7551V31.3434Z" fill="url(#paint3_linear_5700_1767)"/>
<path d="M133.362 32.5175C128.762 32.5175 127.358 30.7195 127.358 26.3166V7.1037C127.358 6.12949 127.552 5.93408 128.528 5.93408H132.037C133.012 5.93408 133.207 6.12807 133.207 7.1037V25.7712C133.207 27.0575 133.519 27.5636 134.844 27.5636C135.038 27.5636 135.312 27.5242 135.469 27.5242C135.897 27.5242 136.052 27.7575 136.052 28.2652V31.2313C136.052 32.2054 135.858 32.4388 134.882 32.4783C134.22 32.5175 133.868 32.5175 133.362 32.5175Z" fill="url(#paint4_linear_5700_1767)"/>
<path d="M159.564 13.5742C160.185 13.5742 160.458 13.6515 160.458 14.0016C160.458 14.1576 160.42 14.3896 160.302 14.6623L150.715 38.8404C150.365 39.7726 150.133 39.9287 149.122 39.9287H144.925C144.303 39.9287 143.993 39.8906 143.993 39.5405C143.993 39.4239 144.07 39.1906 144.187 38.9192L146.635 33.0542C146.829 32.627 146.906 32.2768 146.906 31.9662C146.906 31.6162 146.829 31.3055 146.635 30.8401L140.259 14.6637C140.142 14.3924 140.103 14.159 140.103 14.003C140.103 13.6529 140.375 13.5756 140.996 13.5756H144.96C145.97 13.5756 146.205 13.7696 146.553 14.7031L149.975 23.6144C150.131 24.0417 150.209 24.2358 150.403 24.2358C150.557 24.2358 150.636 24.119 150.791 23.6917L154.198 14.6258C154.549 13.6937 154.743 13.577 155.753 13.577H159.561L159.564 13.5742Z" fill="url(#paint5_linear_5700_1767)"/>
<path d="M70.2668 31.5392L64.3404 22.5366C64.1068 22.1471 63.9903 21.8743 63.9903 21.679C63.9903 21.4062 64.1843 21.1728 64.6525 20.8214C64.9212 20.6246 65.1786 20.4166 65.4233 20.1945C67.5047 18.828 68.8801 16.4747 68.8801 13.7995C68.8801 10.2175 66.4148 7.21195 63.0887 6.38111C61.9721 6.07326 60.733 5.93408 59.4265 5.93408H50.2642C49.2909 5.93408 49.0939 6.12949 49.0939 7.1037V31.3437C49.0939 32.3179 49.2894 32.5134 50.2642 32.5134H53.9291C54.9036 32.5134 55.0991 32.3179 55.0991 31.3437V24.2896C55.0991 23.3152 55.2946 23.1199 56.2692 23.1199H56.777C57.791 23.1199 58.0243 23.2759 58.57 24.094L63.4037 31.5378C63.9508 32.3559 64.1843 32.512 65.1969 32.512H69.7198C70.3047 32.512 70.5382 32.4727 70.5382 32.1999C70.5382 32.0045 70.4215 31.7712 70.2654 31.5378L70.2668 31.5392ZM59.6712 17.0961H55.9542C55.4817 17.0961 55.0991 16.7137 55.0991 16.2413V12.031C55.0991 11.5587 55.4817 11.1763 55.9542 11.1763H59.6712C61.2633 11.1763 62.5529 12.5005 62.5529 14.1355C62.5529 15.7704 61.2618 17.0947 59.6712 17.0947V17.0961Z" fill="url(#paint6_linear_5700_1767)"/>
<path d="M117.615 11.7822C119.23 11.7822 120.54 10.473 120.54 8.85812C120.54 7.24321 119.23 5.93408 117.615 5.93408C115.999 5.93408 114.69 7.24321 114.69 8.85812C114.69 10.473 115.999 11.7822 117.615 11.7822Z" fill="url(#paint7_linear_5700_1767)"/>
<path d="M76.1022 4.74535V0.243568C76.1022 0.109187 76.2114 0 76.3458 0H77.5086C77.6432 0 77.7524 0.109187 77.7524 0.243568V4.74535C77.7524 4.87973 77.6432 4.98891 77.5086 4.98891H76.3458C76.2114 4.98891 76.1022 4.87973 76.1022 4.74535ZM77.6347 8.62393V7.36075C77.6347 7.2482 77.712 7.15247 77.8195 7.12558C78.1102 7.04999 78.3691 6.96097 78.591 6.85683C78.8598 6.73252 79.1135 6.54942 79.3522 6.30922C79.5892 6.06901 79.7992 5.74985 79.9806 5.35679C80.1621 4.96371 80.2563 4.47491 80.2629 3.8937V0.243568C80.2629 0.109187 80.3721 0 80.5067 0H81.6695C81.8039 0 81.9131 0.109187 81.9131 0.243568V3.8937C81.9065 4.78063 81.7635 5.53317 81.488 6.15467C81.2107 6.7762 80.846 7.27675 80.3924 7.65975C79.9386 8.04273 79.5067 8.31822 79.1 8.48452C78.6918 8.65082 78.3506 8.76671 78.0733 8.83055C78.0229 8.8423 77.9759 8.85238 77.9339 8.86246C77.7809 8.89774 77.6381 8.78183 77.6381 8.62393H77.6347Z" fill="url(#paint8_linear_5700_1767)"/>
<path d="M85.1361 1.69322V0.510658C85.1361 0.376275 85.2453 0.26709 85.3798 0.26709H88.0114C88.1458 0.26709 88.255 0.376275 88.255 0.510658V1.69322C88.255 1.8276 88.1458 1.93679 88.0114 1.93679H85.3798C85.2453 1.93679 85.1361 1.8276 85.1361 1.69322ZM90.695 2.18202H91.8898C92.0512 2.18202 92.1705 2.33657 92.1235 2.49279C91.7789 3.65015 91.3336 4.60258 90.7858 5.35175C90.1892 6.16644 89.5709 6.79636 88.9289 7.23982C88.2869 7.68328 87.6787 7.9974 87.104 8.18048C86.5293 8.36525 86.0588 8.47277 85.6941 8.50468C85.5764 8.51476 85.4772 8.52315 85.3983 8.52988C85.2571 8.54163 85.1361 8.42909 85.1361 8.28631V7.04663C85.1361 6.91729 85.2369 6.80979 85.3664 6.80306C85.4234 6.79971 85.4925 6.79636 85.573 6.79132C85.857 6.77451 86.22 6.70061 86.6636 6.57295C87.1074 6.44529 87.5728 6.20003 88.0634 5.83889C88.5526 5.47774 89.0046 5.01747 89.4197 4.46147C89.8112 3.93738 90.159 3.23187 90.4649 2.34497C90.4984 2.24586 90.591 2.17867 90.695 2.17867V2.18202ZM85.1361 4.27838V3.09582C85.1361 2.96143 85.2453 2.85225 85.3798 2.85225H88.0114C88.1458 2.85225 88.255 2.96143 88.255 3.09582V4.27838C88.255 4.41275 88.1458 4.52195 88.0114 4.52195H85.3798C85.2453 4.52195 85.1361 4.41275 85.1361 4.27838Z" fill="url(#paint9_linear_5700_1767)"/>
<path d="M94.4476 4.74535V0.243568C94.4476 0.109187 94.5569 0 94.6912 0H95.8541C95.9886 0 96.0978 0.109187 96.0978 0.243568V4.74535C96.0978 4.87973 95.9886 4.98891 95.8541 4.98891H94.6912C94.5569 4.98891 94.4476 4.87973 94.4476 4.74535ZM95.9802 8.62393V7.36075C95.9802 7.2482 96.0575 7.15247 96.1651 7.12558C96.4557 7.04999 96.7145 6.96097 96.9364 6.85683C97.2053 6.73252 97.4589 6.54942 97.6977 6.30922C97.9346 6.06901 98.1447 5.74985 98.326 5.35679C98.5075 4.96371 98.6017 4.47491 98.6083 3.8937V0.243568C98.6083 0.109187 98.7176 0 98.8521 0H100.015C100.149 0 100.259 0.109187 100.259 0.243568V3.8937C100.252 4.78063 100.109 5.53317 99.8335 6.15467C99.5562 6.7762 99.1915 7.27675 98.7379 7.65975C98.284 8.04273 97.8523 8.31822 97.4455 8.48452C97.0372 8.65082 96.6961 8.76671 96.4187 8.83055C96.3683 8.8423 96.3213 8.85238 96.2794 8.86246C96.1264 8.89774 95.9836 8.78183 95.9836 8.62393H95.9802Z" fill="url(#paint10_linear_5700_1767)"/>
<path d="M103.103 4.86313V3.68058C103.103 3.5462 103.213 3.43701 103.347 3.43701H107.53C107.664 3.43701 107.774 3.5462 107.774 3.68058V4.86313C107.774 4.99751 107.664 5.1067 107.53 5.1067H103.347C103.213 5.1067 103.103 4.99751 103.103 4.86313Z" fill="url(#paint11_linear_5700_1767)"/>
</g>
<defs>
<linearGradient id="paint0_linear_5700_1767" x1="0.996338" y1="20.213" x2="40.9456" y2="20.213" gradientUnits="userSpaceOnUse">
<stop stop-color="white"/>
<stop offset="1" stop-color="#C2C7CD"/>
</linearGradient>
<linearGradient id="paint1_linear_5700_1767" x1="72.3707" y1="23.1682" x2="89.9938" y2="23.1682" gradientUnits="userSpaceOnUse">
<stop stop-color="white"/>
<stop offset="1" stop-color="#C2C7CD"/>
</linearGradient>
<linearGradient id="paint2_linear_5700_1767" x1="95.1762" y1="23.1689" x2="109.566" y2="23.1689" gradientUnits="userSpaceOnUse">
<stop stop-color="white"/>
<stop offset="1" stop-color="#C2C7CD"/>
</linearGradient>
<linearGradient id="paint3_linear_5700_1767" x1="114.67" y1="23.1661" x2="120.558" y2="23.1661" gradientUnits="userSpaceOnUse">
<stop stop-color="white"/>
<stop offset="1" stop-color="#C2C7CD"/>
</linearGradient>
<linearGradient id="paint4_linear_5700_1767" x1="127.358" y1="19.3899" x2="136.052" y2="19.3899" gradientUnits="userSpaceOnUse">
<stop stop-color="white"/>
<stop offset="1" stop-color="#C2C7CD"/>
</linearGradient>
<linearGradient id="paint5_linear_5700_1767" x1="140.103" y1="26.9141" x2="160.458" y2="26.9141" gradientUnits="userSpaceOnUse">
<stop stop-color="white"/>
<stop offset="1" stop-color="#C2C7CD"/>
</linearGradient>
<linearGradient id="paint6_linear_5700_1767" x1="49.0939" y1="19.3878" x2="70.5382" y2="19.3878" gradientUnits="userSpaceOnUse">
<stop stop-color="white"/>
<stop offset="1" stop-color="#C2C7CD"/>
</linearGradient>
<linearGradient id="paint7_linear_5700_1767" x1="114.69" y1="8.89423" x2="120.54" y2="8.89423" gradientUnits="userSpaceOnUse">
<stop stop-color="white"/>
<stop offset="1" stop-color="#C2C7CD"/>
</linearGradient>
<linearGradient id="paint8_linear_5700_1767" x1="76.1022" y1="4.48915" x2="81.9131" y2="4.48915" gradientUnits="userSpaceOnUse">
<stop stop-color="white"/>
<stop offset="1" stop-color="#C2C7CD"/>
</linearGradient>
<linearGradient id="paint9_linear_5700_1767" x1="85.1361" y1="4.44992" x2="92.1339" y2="4.44992" gradientUnits="userSpaceOnUse">
<stop stop-color="white"/>
<stop offset="1" stop-color="#C2C7CD"/>
</linearGradient>
<linearGradient id="paint10_linear_5700_1767" x1="94.4476" y1="4.48915" x2="100.259" y2="4.48915" gradientUnits="userSpaceOnUse">
<stop stop-color="white"/>
<stop offset="1" stop-color="#C2C7CD"/>
</linearGradient>
<linearGradient id="paint11_linear_5700_1767" x1="103.103" y1="4.28216" x2="107.774" y2="4.28216" gradientUnits="userSpaceOnUse">
<stop stop-color="white"/>
<stop offset="1" stop-color="#C2C7CD"/>
</linearGradient>
<clipPath id="clip0_5700_1767">
<rect width="159.462" height="40" fill="white" transform="translate(0.996338)"/>
</clipPath>
</defs>
</svg>
