<svg width="184" height="40" viewBox="0 0 184 40" fill="none" xmlns="http://www.w3.org/2000/svg">
<g clip-path="url(#clip0_5700_1805)">
<path d="M20.8123 0C24.9048 1.13824 28.6336 4.0066 30.1796 7.5124C32.5442 13.2036 31.9986 20.3973 29.4066 24.6771C27.2239 28.1828 23.859 30.0496 19.9938 30.004C13.9914 29.9585 9.12584 25.1779 9.08036 19.168C9.08036 13.1581 13.8095 8.19535 19.9938 8.19535C20.9942 8.19535 22.4366 8.33409 24.0736 9.01701C24.0736 9.01701 22.8968 8.31996 19.8742 7.85171C11.189 6.71348 0.940767 13.2947 3.30534 28.456C6.57936 34.2838 12.8546 38.245 19.9938 38.1993C30.4979 38.1539 39.0923 29.5488 39.0469 18.9859C39.0469 8.87827 30.8163 0.273178 20.8123 0Z" fill="url(#paint0_linear_5700_1805)"/>
<path d="M27.9512 8.05835C26.4961 5.00786 23.4949 2.59477 19.8116 1.63865C18.9931 1.41101 18.1291 1.31994 17.1742 1.27441C15.7645 1.27441 14.4004 1.45654 12.9907 1.82077C9.48929 2.86796 7.0338 4.9168 5.57866 6.51031C3.71429 8.65021 2.48653 10.8812 1.75897 13.1121C1.75897 13.1577 1.71349 13.2032 1.71349 13.2942C1.66802 13.4764 1.48613 14.0227 1.48613 14.1593C1.44066 14.2504 1.44066 14.387 1.39519 14.478C1.34971 14.6602 1.30424 14.8422 1.25877 15.0244C1.25877 15.0699 1.25877 15.1154 1.2133 15.1609C0.0310068 21.0343 1.99507 26.305 3.17736 28.2628C3.47308 28.7525 3.71591 29.161 3.95928 29.5359C1.27639 14.9663 8.98911 8.0128 17.7653 7.83067C22.3581 7.73965 26.9508 9.60635 29.179 13.3398C29.0425 11.2909 28.9061 10.1527 27.9512 8.05835Z" fill="url(#paint1_linear_5700_1805)"/>
<path d="M48.6328 29.8584C47.711 29.7129 46.8793 29.498 46.1236 29.2276V26.0251C47.9121 26.6074 49.6033 26.8916 51.2047 26.8916C52.5979 26.8916 53.6307 26.6213 54.3171 26.0806C54.9964 25.5399 55.3359 24.7566 55.3359 23.7169C55.3359 23.1346 55.2321 22.6494 55.0242 22.2473C54.8162 21.8453 54.4696 21.4918 53.9842 21.1799C53.4991 20.8679 52.8404 20.5698 51.995 20.2857L50.6361 19.8281C47.3161 18.6983 45.6523 16.591 45.6523 13.5202C45.6523 12.1477 45.9503 10.9693 46.5535 9.98504C47.1564 9.00072 48.0508 8.24515 49.2429 7.71834C50.4353 7.19845 51.9117 6.93506 53.6584 6.93506C54.4487 6.93506 55.239 6.98356 56.0152 7.08753C56.7917 7.19153 57.4779 7.33016 58.0671 7.51729V10.7059C56.84 10.3178 55.4746 10.1237 53.9773 10.1237C50.9481 10.1237 49.4299 11.1634 49.4299 13.236C49.4299 13.7975 49.5272 14.2619 49.7143 14.6362C49.9013 15.0106 50.2202 15.3502 50.657 15.6414C51.1006 15.9394 51.7107 16.2167 52.4941 16.4801L53.8526 16.9376C55.5788 17.5199 56.8887 18.324 57.7827 19.3568C58.6703 20.3896 59.1208 21.7344 59.1208 23.3911C59.1208 24.7844 58.8159 25.9836 58.1989 26.9817C57.582 27.9799 56.6876 28.7493 55.5092 29.2831C54.3308 29.8168 52.9099 30.0802 51.253 30.0802C50.4281 30.0802 49.555 30.0109 48.6328 29.8584Z" fill="url(#paint2_linear_5700_1805)"/>
<path d="M61.6371 10.928C61.2973 10.6091 61.1312 10.1585 61.1312 9.57628C61.1312 8.99401 61.2973 8.54345 61.6371 8.21765C61.9766 7.8988 62.4757 7.73242 63.1344 7.73242C63.7928 7.73242 64.2988 7.8988 64.6386 8.2246C64.978 8.5504 65.1514 9.00096 65.1514 9.57628C65.1514 10.1585 64.9852 10.6091 64.6454 10.928C64.306 11.2468 63.8069 11.4063 63.1344 11.4063C62.4757 11.4063 61.9766 11.2468 61.6371 10.928Z" fill="url(#paint3_linear_5700_1805)"/>
<path d="M65.1164 13.1523H61.408V29.7886H65.1164V13.1523Z" fill="url(#paint4_linear_5700_1805)"/>
<path d="M68.4022 13.153H71.48L71.7571 14.9345H71.9582C72.4851 14.276 73.1089 13.77 73.8227 13.4165C74.5366 13.0629 75.3269 12.8896 76.1935 12.8896C77.6076 12.8896 78.7305 13.3333 79.5553 14.2205C80.3802 15.1078 80.7961 16.5427 80.7961 18.5113V29.7824H77.1085V18.7955C77.1085 17.8597 76.9215 17.1943 76.5471 16.7992C76.1726 16.4041 75.6389 16.203 74.9456 16.203C74.4188 16.203 73.8851 16.3347 73.3582 16.5912C72.8314 16.8477 72.4087 17.2428 72.0898 17.7765V29.7962H68.4022V13.153Z" fill="url(#paint5_linear_5700_1805)"/>
<path d="M88.3935 33.8368C89.8076 33.8368 90.8472 33.511 91.5197 32.8594C92.1921 32.2078 92.5247 31.1126 92.5247 29.5668V28.1042H92.3445C91.991 28.6865 91.4988 29.144 90.8822 29.4906C90.2653 29.8372 89.5579 30.0105 88.7607 30.0105C87.7626 30.0105 86.8548 29.7332 86.0299 29.1787C85.2047 28.6241 84.5395 27.7299 84.0404 26.503C83.5344 25.2761 83.2847 23.7025 83.2847 21.7894C83.2847 18.8226 83.9503 16.5975 85.2743 15.1279C86.5982 13.6515 88.6083 12.9098 91.3049 12.9028C92.1366 12.9028 92.9961 12.9722 93.8836 13.1177C94.7708 13.2633 95.5471 13.4505 96.2195 13.7V28.9638C96.2195 31.7157 95.5957 33.719 94.3618 34.9597C93.1211 36.2007 91.2357 36.8176 88.7056 36.8176C88.5737 36.8176 88.5251 36.8176 88.3935 36.8104V33.8368ZM91.5337 26.5792C91.9564 26.3713 92.289 26.0801 92.5319 25.7197V15.9598C92.0256 15.8489 91.5128 15.7934 91.0069 15.7934C89.6966 15.7934 88.7125 16.2232 88.0537 17.0896C87.3953 17.9561 87.0696 19.4049 87.0696 21.4497C87.0696 22.8707 87.1943 23.9868 87.4508 24.7839C87.7074 25.5811 88.0609 26.1356 88.5114 26.4406C88.9618 26.7456 89.5373 26.8981 90.2303 26.8981C90.6739 26.8981 91.1107 26.7941 91.5337 26.5792Z" fill="url(#paint6_linear_5700_1805)"/>
<path d="M99.5125 29.7959V5.14648H103.2V29.7889H99.5125V29.7959Z" fill="url(#paint7_linear_5700_1805)"/>
<path d="M118.256 22.6565H109.55C109.591 23.7864 109.758 24.6667 110.056 25.3114C110.354 25.9491 110.804 26.4066 111.414 26.6838C112.025 26.9611 112.835 27.0929 113.854 27.0929C114.901 27.0929 116.114 26.8987 117.487 26.5106V29.512C116.745 29.713 116.052 29.8655 115.407 29.9557C114.763 30.0458 114.097 30.0943 113.418 30.0943C111.65 30.0943 110.208 29.8032 109.092 29.214C107.976 28.6247 107.151 27.7028 106.611 26.4413C106.07 25.1727 105.8 23.5022 105.8 21.4157C105.8 18.5668 106.361 16.4387 107.484 15.0177C108.607 13.5967 110.195 12.8896 112.253 12.8896C116.26 12.8896 118.263 15.7663 118.263 21.5197V22.6565H118.256ZM110.804 15.8564C110.423 16.1406 110.118 16.6397 109.897 17.3537C109.675 18.0677 109.557 19.045 109.543 20.2997H114.776C114.769 19.052 114.658 18.0677 114.458 17.3537C114.257 16.6397 113.972 16.1406 113.605 15.8564C113.238 15.5722 112.78 15.4267 112.232 15.4267C111.664 15.4267 111.186 15.5722 110.804 15.8564Z" fill="url(#paint8_linear_5700_1805)"/>
<path d="M123.176 29.858C122.254 29.7125 121.422 29.4976 120.667 29.2273V26.0248C122.455 26.607 124.146 26.8913 125.748 26.8913C127.141 26.8913 128.174 26.6209 128.86 26.0802C129.539 25.5396 129.879 24.7563 129.879 23.7165C129.879 23.1342 129.775 22.649 129.567 22.247C129.359 21.8449 129.013 21.4914 128.527 21.1795C128.042 20.8676 127.383 20.5695 126.538 20.2853L125.179 19.8278C121.852 18.691 120.195 16.5837 120.195 13.5129C120.195 12.1405 120.493 10.962 121.097 9.97772C121.699 8.99343 122.594 8.23786 123.786 7.71105C124.978 7.19116 126.455 6.92773 128.201 6.92773C128.992 6.92773 129.782 6.97628 130.558 7.08024C131.335 7.18424 132.021 7.32287 132.61 7.51V10.6987C131.383 10.3105 130.018 10.1163 128.52 10.1163C125.491 10.1163 123.973 11.1561 123.973 13.2287C123.973 13.7902 124.07 14.2546 124.257 14.629C124.444 15.0033 124.763 15.3429 125.2 15.6341C125.644 15.9321 126.254 16.2094 127.037 16.4728L128.396 16.9303C130.121 17.5126 131.432 18.3166 132.326 19.3495C133.213 20.3823 133.664 21.7271 133.664 23.3838C133.664 24.7771 133.359 25.9763 132.742 26.9744C132.125 27.9726 131.231 28.742 130.052 29.2758C128.874 29.8095 127.453 30.0729 125.796 30.0729C124.964 30.0799 124.091 30.0105 123.176 29.858Z" fill="url(#paint9_linear_5700_1805)"/>
<path d="M144.519 26.7114V29.7891C143.715 29.9832 142.883 30.0802 142.017 30.0802C140.276 30.0802 138.96 29.6227 138.052 28.7008C137.143 27.7789 136.693 26.3163 136.693 24.3199V16.0988H134.149V13.1529H136.693L137.351 7.21924H140.387V13.1529H144.38V16.0988H140.387V23.8763C140.387 24.6388 140.471 25.2419 140.644 25.6786C140.817 26.1153 141.088 26.4272 141.455 26.6143C141.822 26.8015 142.315 26.8986 142.932 26.8986C143.306 26.8986 143.832 26.8362 144.519 26.7114Z" fill="url(#paint10_linear_5700_1805)"/>
<path d="M147.32 28.0137C146.169 26.6274 145.594 24.4647 145.594 21.5394C145.594 15.7722 147.819 12.8955 152.262 12.8955C154.397 12.8955 156.04 13.6026 157.197 15.0166C158.348 16.4307 158.93 18.5935 158.93 21.5117C158.93 27.2373 156.705 30.1002 152.269 30.1002C150.12 30.1002 148.47 29.4001 147.32 28.0137ZM153.842 26.7868C154.251 26.461 154.57 25.8787 154.799 25.0469C155.028 24.2151 155.132 23.0575 155.132 21.5672C155.132 20.0422 155.021 18.8499 154.799 17.9973C154.577 17.1447 154.258 16.5486 153.835 16.2158C153.413 15.8831 152.893 15.7098 152.262 15.7098C151.624 15.7098 151.09 15.8762 150.675 16.2089C150.259 16.5416 149.94 17.1239 149.718 17.9696C149.496 18.8153 149.385 19.9798 149.385 21.4771C149.385 22.9951 149.496 24.1735 149.718 25.0123C149.94 25.8579 150.259 26.4402 150.675 26.773C151.084 27.1057 151.617 27.272 152.269 27.272C152.907 27.2789 153.426 27.1126 153.842 26.7868Z" fill="url(#paint11_linear_5700_1805)"/>
<path d="M161.501 13.1522H164.551L164.842 15.4397H165.022C165.431 14.5871 165.979 13.9563 166.679 13.5542C167.372 13.1522 168.163 12.9512 169.05 12.9512C169.403 12.9512 169.757 12.9789 170.103 13.0413V16.4864C169.757 16.424 169.334 16.3963 168.821 16.3963C168.079 16.3963 167.379 16.5696 166.714 16.9092C166.055 17.2489 165.542 17.7202 165.189 18.3233V29.7884H161.501V13.1522Z" fill="url(#paint12_linear_5700_1805)"/>
<path d="M183.448 22.6565H174.741C174.783 23.7864 174.949 24.6667 175.247 25.3114C175.545 25.9491 175.996 26.4066 176.606 26.6838C177.216 26.9611 178.027 27.0929 179.046 27.0929C180.093 27.0929 181.306 26.8987 182.678 26.5106V29.512C181.937 29.713 181.243 29.8655 180.599 29.9557C179.954 30.0458 179.289 30.0943 178.609 30.0943C176.841 30.0943 175.4 29.8032 174.284 29.214C173.168 28.6247 172.343 27.7028 171.802 26.4413C171.262 25.1727 170.991 23.5022 170.991 21.4157C170.991 18.5668 171.553 16.4387 172.676 15.0177C173.799 13.5967 175.386 12.8896 177.445 12.8896C181.451 12.8896 183.454 15.7663 183.454 21.5197V22.6565H183.448ZM175.996 15.8564C175.615 16.1406 175.31 16.6397 175.088 17.3537C174.866 18.0677 174.748 19.045 174.734 20.2997H179.968C179.961 19.052 179.85 18.0677 179.649 17.3537C179.448 16.6397 179.164 16.1406 178.796 15.8564C178.429 15.5722 177.972 15.4267 177.424 15.4267C176.856 15.4267 176.377 15.5722 175.996 15.8564Z" fill="url(#paint13_linear_5700_1805)"/>
</g>
<defs>
<linearGradient id="paint0_linear_5700_1805" x1="2.96016" y1="19.3356" x2="39.0471" y2="19.3356" gradientUnits="userSpaceOnUse">
<stop stop-color="white"/>
<stop offset="1" stop-color="#C2C7CD"/>
</linearGradient>
<linearGradient id="paint1_linear_5700_1805" x1="0.847961" y1="15.5796" x2="29.179" y2="15.5796" gradientUnits="userSpaceOnUse">
<stop stop-color="white"/>
<stop offset="1" stop-color="#C2C7CD"/>
</linearGradient>
<linearGradient id="paint2_linear_5700_1805" x1="45.6523" y1="18.6505" x2="59.1208" y2="18.6505" gradientUnits="userSpaceOnUse">
<stop stop-color="white"/>
<stop offset="1" stop-color="#C2C7CD"/>
</linearGradient>
<linearGradient id="paint3_linear_5700_1805" x1="61.1312" y1="9.59202" x2="65.1514" y2="9.59202" gradientUnits="userSpaceOnUse">
<stop stop-color="white"/>
<stop offset="1" stop-color="#C2C7CD"/>
</linearGradient>
<linearGradient id="paint4_linear_5700_1805" x1="61.408" y1="21.5732" x2="65.1164" y2="21.5732" gradientUnits="userSpaceOnUse">
<stop stop-color="white"/>
<stop offset="1" stop-color="#C2C7CD"/>
</linearGradient>
<linearGradient id="paint5_linear_5700_1805" x1="68.4022" y1="21.4473" x2="80.7961" y2="21.4473" gradientUnits="userSpaceOnUse">
<stop stop-color="white"/>
<stop offset="1" stop-color="#C2C7CD"/>
</linearGradient>
<linearGradient id="paint6_linear_5700_1805" x1="83.2847" y1="25.0078" x2="96.2195" y2="25.0078" gradientUnits="userSpaceOnUse">
<stop stop-color="white"/>
<stop offset="1" stop-color="#C2C7CD"/>
</linearGradient>
<linearGradient id="paint7_linear_5700_1805" x1="99.5125" y1="17.6233" x2="103.2" y2="17.6233" gradientUnits="userSpaceOnUse">
<stop stop-color="white"/>
<stop offset="1" stop-color="#C2C7CD"/>
</linearGradient>
<linearGradient id="paint8_linear_5700_1805" x1="105.8" y1="21.5982" x2="118.263" y2="21.5982" gradientUnits="userSpaceOnUse">
<stop stop-color="white"/>
<stop offset="1" stop-color="#C2C7CD"/>
</linearGradient>
<linearGradient id="paint9_linear_5700_1805" x1="120.195" y1="18.6434" x2="133.664" y2="18.6434" gradientUnits="userSpaceOnUse">
<stop stop-color="white"/>
<stop offset="1" stop-color="#C2C7CD"/>
</linearGradient>
<linearGradient id="paint10_linear_5700_1805" x1="134.149" y1="18.7909" x2="144.519" y2="18.7909" gradientUnits="userSpaceOnUse">
<stop stop-color="white"/>
<stop offset="1" stop-color="#C2C7CD"/>
</linearGradient>
<linearGradient id="paint11_linear_5700_1805" x1="145.594" y1="21.6041" x2="158.93" y2="21.6041" gradientUnits="userSpaceOnUse">
<stop stop-color="white"/>
<stop offset="1" stop-color="#C2C7CD"/>
</linearGradient>
<linearGradient id="paint12_linear_5700_1805" x1="161.501" y1="21.4737" x2="170.103" y2="21.4737" gradientUnits="userSpaceOnUse">
<stop stop-color="white"/>
<stop offset="1" stop-color="#C2C7CD"/>
</linearGradient>
<linearGradient id="paint13_linear_5700_1805" x1="170.991" y1="21.5982" x2="183.454" y2="21.5982" gradientUnits="userSpaceOnUse">
<stop stop-color="white"/>
<stop offset="1" stop-color="#C2C7CD"/>
</linearGradient>
<clipPath id="clip0_5700_1805">
<rect width="182.703" height="40" fill="white" transform="translate(0.847961)"/>
</clipPath>
</defs>
</svg>
