<svg width="297" height="40" viewBox="0 0 297 40" fill="none" xmlns="http://www.w3.org/2000/svg">
<g clip-path="url(#clip0_5699_1814)">
<path opacity="0.7" fill-rule="evenodd" clip-rule="evenodd" d="M195.077 8.58701H206.482C207.413 8.58701 208.025 9.04054 208.23 9.87097C208.27 10.0276 208.267 10.1842 208.263 10.3387C208.262 10.4046 208.26 10.4703 208.262 10.5353C208.267 10.9444 208.265 11.3563 208.263 11.7672V11.7694C208.263 11.9735 208.262 12.1782 208.262 12.3814C208.262 13.3971 207.582 14.0742 206.552 14.0742H193.668H184.603C183.78 14.0742 183.157 14.4447 182.81 15.1857C182.462 15.9331 182.59 16.6422 183.143 17.2553C183.555 17.709 184.095 17.8815 184.7 17.8815H199.32C203.647 17.8815 207.362 20.954 208.127 25.1637C209.008 29.9738 205.845 34.5795 200.997 35.5248C200.418 35.6398 199.833 35.6782 199.242 35.6782C197.498 35.6782 195.753 35.6773 194.008 35.6767H194.005C188.767 35.6742 183.527 35.6718 178.29 35.691C177.248 35.6973 176.4 34.9563 176.452 33.864C176.465 33.5603 176.458 33.255 176.452 32.9493C176.44 32.4577 176.43 31.9658 176.508 31.4813C176.632 30.7595 177.28 30.2165 178.013 30.1845C178.155 30.1782 178.29 30.1782 178.432 30.1782H199.062C200.958 30.1782 202.54 28.6132 202.528 26.7607C202.508 24.889 200.965 23.3687 199.068 23.3687C195.7 23.3643 192.328 23.3658 188.958 23.3672C187.273 23.368 185.587 23.3687 183.902 23.3687C180.257 23.3687 177.145 20.7368 176.567 17.166C175.905 13.0969 178.682 9.28967 182.77 8.65727C183.227 8.58701 183.683 8.57422 184.147 8.57422C187.792 8.58701 191.437 8.58701 195.077 8.58701ZM230.887 14.0807H219.963C218.812 14.0807 217.932 14.8984 217.918 15.9715C217.912 17.0383 218.818 17.8943 219.97 17.8943H234.653C238.993 17.8943 242.742 21.0627 243.437 25.317C244.22 30.1272 241.083 34.6178 236.287 35.5442C235.708 35.6527 235.123 35.6975 234.532 35.6975H213.578C212.487 35.6975 211.823 35.1417 211.76 34.0685C211.715 33.2317 211.682 32.3885 211.792 31.558C211.888 30.8298 212.537 30.2485 213.283 30.2102C213.425 30.2038 213.56 30.2038 213.702 30.2038H234.332C236.21 30.2038 237.733 28.7665 237.817 26.9077C237.9 25.0552 236.318 23.407 234.422 23.3943C233 23.3858 231.58 23.3887 230.158 23.3915H230.157C229.447 23.3928 228.737 23.3943 228.025 23.3943H219.217C215.752 23.3943 212.743 21.0627 211.958 17.7155C210.962 13.4611 213.74 9.48139 217.848 8.72762C218.355 8.63181 218.863 8.59986 219.378 8.59986H241.713C242.915 8.59986 243.552 9.23227 243.552 10.4268C243.552 10.6506 243.552 10.8744 243.553 11.098V11.1046V11.1068V11.1089C243.555 11.5517 243.557 11.9935 243.552 12.4326C243.538 13.41 242.857 14.0935 241.867 14.0935C238.208 14.0871 234.545 14.0807 230.887 14.0807ZM22.393 8.58846C21.1258 8.58776 19.8588 8.58704 18.5925 8.58704C14.9475 8.58704 11.3079 8.58704 7.66932 8.59343C7.19998 8.59343 6.72423 8.60621 6.26133 8.68286C2.23023 9.35359 -0.476442 12.9947 0.0700378 17.0063C0.565084 20.6602 3.70895 23.3878 7.43787 23.3878H22.54C24.4945 23.3942 26.0438 24.8953 26.0438 26.7927C26.0438 28.6898 24.4945 30.2038 22.5463 30.2038H1.94735C1.81878 30.2038 1.69015 30.2038 1.56161 30.2102C0.687238 30.2422 0.0121753 30.932 0.00574617 31.7943C0.00146213 32.2838 0.00288737 32.7705 0.00431539 33.2582C0.00503044 33.5023 0.00574617 33.7467 0.00574617 33.9918C0.00574617 35.033 0.66795 35.6973 1.72877 35.6973H22.8422C23.858 35.6973 24.8417 35.5313 25.7995 35.1992C29.67 33.8513 32.2737 29.9738 31.7143 25.6492C31.4765 23.7838 30.7178 22.1487 29.4257 20.7752C27.6127 18.8525 25.3688 17.8942 22.7072 17.9007C19.8572 17.9048 17.01 17.9035 14.1618 17.902C12.7374 17.9013 11.3127 17.9007 9.88738 17.9007C9.6884 17.9007 9.4887 17.902 9.28875 17.9035C8.888 17.9063 8.48605 17.9092 8.08722 17.9007C6.89138 17.875 6.01058 16.853 6.17775 15.716C6.31277 14.7897 7.1357 14.0934 8.13865 14.0934L8.14312 14.0934C15.4515 14.087 22.7537 14.0807 30.0557 14.0998C30.9428 14.0998 31.8365 13.4163 31.7915 12.3815C31.7693 11.8996 31.7748 11.4147 31.7803 10.9288V10.9271C31.7827 10.7115 31.7852 10.4956 31.7852 10.2798C31.7852 10.0563 31.7787 9.83269 31.6823 9.62189C31.3543 8.89366 30.7887 8.58704 29.9978 8.58704C27.4645 8.59131 24.9283 8.58989 22.393 8.58846ZM127.453 8.58716C128.249 8.58716 129.044 8.58924 129.839 8.59132C131.828 8.59654 133.816 8.60176 135.805 8.57437C136.936 8.56161 137.753 9.33454 137.688 10.4524C137.667 10.7739 137.675 11.0953 137.683 11.4164C137.695 11.8799 137.706 12.3428 137.63 12.8032C137.515 13.5122 136.865 14.0424 136.145 14.0808C136.03 14.0872 135.907 14.0872 135.792 14.0872C134.276 14.0872 132.759 14.0861 131.243 14.0851H131.241C127.445 14.0825 123.647 14.0799 119.854 14.0936C117.841 14.0999 116.061 14.7962 114.563 16.1377C112.576 17.9198 111.682 20.162 111.862 22.8003C111.984 24.557 112.666 26.1092 113.836 27.438C115.16 28.9327 116.826 29.8142 118.799 30.1208C119.134 30.172 119.481 30.1975 119.822 30.1975C125.177 30.2038 130.533 30.2038 135.888 30.1975C136.653 30.1975 137.206 30.4977 137.54 31.1812C137.643 31.392 137.682 31.6283 137.682 31.8583C137.682 32.099 137.683 32.3397 137.683 32.5802V32.5833C137.685 33.0635 137.686 33.5437 137.682 34.0238C137.675 34.9885 136.975 35.6912 135.997 35.6912C134.445 35.6912 132.893 35.694 131.34 35.6968H131.337H131.335C127.191 35.7045 123.045 35.712 118.902 35.6655C116.202 35.6337 113.746 34.7202 111.56 33.1423C108.59 30.996 106.725 28.1215 106.095 24.5313C105.401 20.59 106.288 16.9745 108.776 13.8061C110.943 11.0465 113.798 9.37287 117.282 8.77879C118.086 8.63826 118.896 8.58716 119.706 8.58716H127.453ZM89.6293 35.6852C90.4587 35.6817 91.2882 35.6782 92.1177 35.6782C92.1177 35.6847 92.1177 35.6847 92.1112 35.6847H100.623C101.684 35.6847 102.372 35.0012 102.385 33.9535C102.387 33.7127 102.385 33.4718 102.383 33.231C102.379 32.846 102.376 32.4605 102.391 32.0755C102.443 30.8808 101.594 30.1718 100.495 30.1782C96.6843 30.2015 92.8772 30.1977 89.0685 30.1938C87.64 30.1925 86.2112 30.191 84.782 30.191C84.4605 30.191 84.1455 30.1782 83.824 30.1463C81.9595 29.9483 80.333 29.22 79.0087 27.9105C76.9513 25.8855 76.1862 23.4198 76.6877 20.5835C77.2342 17.511 79.8765 14.8728 82.9562 14.2595C83.8517 14.0792 84.7528 14.0799 85.6598 14.0806L85.83 14.0807H100.643C101.684 14.0807 102.379 13.3972 102.391 12.3687C102.394 12.1107 102.393 11.8516 102.391 11.5923C102.389 11.2037 102.386 10.8135 102.398 10.4268C102.437 9.23861 101.568 8.56789 100.553 8.57427C95.154 8.59342 89.7617 8.58706 84.3628 8.58066H84.3577C83.4768 8.58066 82.6025 8.64454 81.741 8.81062C78.3978 9.45581 75.6268 11.0847 73.5245 13.7421C70.9915 16.9488 70.0978 20.6092 70.8178 24.608C71.4222 27.968 73.1388 30.7148 75.8518 32.8228C78.1857 34.637 80.8602 35.6143 83.8305 35.6655C85.761 35.7012 87.6947 35.6932 89.6293 35.6852ZM67.0638 16.8972C67.0638 17.5505 67.068 18.2037 67.0722 18.857C67.0817 20.35 67.0913 21.8432 67.051 23.3362C66.9738 26.1087 65.9967 28.5807 64.2672 30.7462C62.332 33.1672 59.8247 34.7195 56.7772 35.3967C55.9222 35.5883 55.0478 35.6905 54.167 35.6905C53.5843 35.6905 53.0023 35.6925 52.4205 35.6947C50.9672 35.6998 49.5145 35.705 48.0593 35.6777C45.2305 35.6267 42.6845 34.7323 40.4472 33.0203C37.6827 30.9058 36.0175 28.1208 35.4452 24.7032C35.3423 24.0772 35.2973 23.4385 35.2973 22.7997L35.3 21.2488C35.3063 17.6252 35.3127 13.9977 35.2845 10.3751C35.278 9.39141 35.9982 8.53542 37.0847 8.58652C37.5105 8.60647 37.9387 8.60149 38.3678 8.59651C38.6257 8.59351 38.8838 8.59051 39.142 8.59291C40.1772 8.60569 40.8393 9.28281 40.8393 10.3049C40.8393 11.3434 40.8375 12.382 40.8357 13.4207C40.8307 16.2788 40.8257 19.1388 40.8587 22.0012C40.8843 23.943 41.6043 25.6678 42.8645 27.1498C44.2788 28.8107 46.0855 29.7817 48.2393 30.1138C48.625 30.1713 49.0237 30.2032 49.4222 30.1968C50.6117 30.1905 51.801 30.1905 52.9905 30.1905C57.1052 30.1905 60.7055 27.1882 61.4127 23.1765C61.4962 22.691 61.5412 22.212 61.5412 21.7202V10.3751C61.5412 9.26364 62.2163 8.58652 63.335 8.58652C63.5152 8.58652 63.695 8.58612 63.8747 8.58572C64.4127 8.58452 64.9488 8.58332 65.4887 8.59291C66.4082 8.61207 67.0767 9.29557 67.0767 10.2027V16.8908C67.0703 16.8972 67.0638 16.8972 67.0638 16.8972ZM143.036 24.9015H157.077H171.183C172.277 24.9015 172.977 24.218 172.977 23.1385V21.1327C172.977 20.0723 172.282 19.376 171.208 19.376H142.965C141.872 19.376 141.171 20.0595 141.165 21.139C141.161 21.5603 141.162 21.9847 141.164 22.4098C141.164 22.6227 141.165 22.8358 141.165 23.049C141.165 24.2435 141.834 24.9015 143.036 24.9015ZM157.065 8.58704C158.338 8.58704 159.611 8.58846 160.885 8.58989C164.281 8.59369 167.68 8.59749 171.075 8.57426C172.302 8.56787 173.055 9.38552 172.983 10.4843C172.957 10.9187 172.963 11.3561 172.972 11.7944C172.975 11.9941 172.977 12.1944 172.977 12.3942C172.972 13.3844 172.277 14.0743 171.28 14.0743H142.882C141.873 14.0743 141.185 13.3971 141.172 12.4006C141.159 11.7235 141.166 11.04 141.172 10.3629C141.179 9.24499 141.847 8.58066 142.973 8.58066C147.666 8.58704 152.365 8.58704 157.065 8.58704ZM153.223 35.688C154.496 35.6895 155.769 35.6908 157.042 35.6908C158.32 35.6908 159.598 35.6895 160.877 35.688C164.288 35.6842 167.7 35.6805 171.108 35.7037C172.298 35.71 173.05 34.8797 172.987 33.8192C172.96 33.3888 172.967 32.9585 172.973 32.528C172.977 32.3325 172.98 32.1368 172.98 31.9412C172.98 30.8808 172.305 30.1973 171.243 30.1973H142.91C141.863 30.1973 141.181 30.8743 141.168 31.9092C141.166 32.151 141.169 32.3937 141.172 32.6365C141.177 33.0418 141.182 33.4478 141.162 33.8512C141.11 34.9372 141.888 35.71 143.033 35.7037C146.428 35.6805 149.826 35.6842 153.223 35.688Z" fill="url(#paint0_linear_5699_1814)"/>
<path fill-rule="evenodd" clip-rule="evenodd" d="M283.993 39.9992C276.805 39.9925 266.022 39.992 258.335 39.992C257.415 39.992 256.67 39.246 256.67 38.3257C256.667 26.1057 256.665 13.8858 256.67 1.66579C256.67 0.745658 257.417 0 258.337 0H284.788L263.505 27.72C262.663 28.8162 263.445 30.4017 264.827 30.4017H283.987C283.987 32.0012 283.988 33.6008 283.99 35.2003C283.992 36.8 283.993 38.3995 283.993 39.9992ZM283.995 16.2929C283.995 16.8283 283.993 17.3638 283.993 17.8993C283.993 18.464 283.995 19.1295 283.995 19.8322V19.8363V19.8403C283.997 21.3773 283.998 23.0918 283.993 24.3213H273.812C275.305 22.2398 276.89 20.2275 278.475 18.215C280.358 15.8224 282.243 13.4294 283.975 10.9188C284 12.71 283.998 14.5015 283.995 16.2929ZM294.988 0C295.908 0 296.653 0.746015 296.653 1.66649V2.85455C296.653 9.96573 296.653 17.3218 296.668 24.3568C295.567 24.3568 294.465 24.3552 293.363 24.3533C292.262 24.3515 291.16 24.3498 290.06 24.3498C290.06 20.4897 290.057 16.3323 290.055 12.1749V12.1509C290.053 8.00152 290.052 3.8527 290.052 0H294.988ZM296.66 30.3947C294.92 30.409 290.05 30.4022 290.05 30.4022C290.05 30.4022 290.038 38.8473 290.043 39.9997L294.995 39.989C295.912 39.987 296.655 39.2453 296.657 38.3287C296.662 36.4163 296.66 34.5038 296.66 32.5915C296.66 31.8592 296.66 31.127 296.66 30.3947Z" fill="url(#paint1_linear_5699_1814)"/>
<path fill-rule="evenodd" clip-rule="evenodd" d="M283.993 39.9992C276.805 39.9925 266.022 39.992 258.335 39.992C257.415 39.992 256.67 39.246 256.67 38.3257C256.667 26.1057 256.665 13.8858 256.67 1.66579C256.67 0.745658 257.417 0 258.337 0H284.788L263.505 27.72C262.663 28.8162 263.445 30.4017 264.827 30.4017H283.987C283.987 32.0012 283.988 33.6008 283.99 35.2003C283.992 36.8 283.993 38.3995 283.993 39.9992ZM283.995 16.2929C283.995 16.8283 283.993 17.3638 283.993 17.8993C283.993 18.464 283.995 19.1295 283.995 19.8322V19.8363V19.8403C283.997 21.3773 283.998 23.0918 283.993 24.3213H273.812C275.305 22.2398 276.89 20.2275 278.475 18.215C280.358 15.8224 282.243 13.4294 283.975 10.9188C284 12.71 283.998 14.5015 283.995 16.2929ZM294.988 0C295.908 0 296.653 0.746015 296.653 1.66649V2.85455C296.653 9.96573 296.653 17.3218 296.668 24.3568C295.567 24.3568 294.465 24.3552 293.363 24.3533C292.262 24.3515 291.16 24.3498 290.06 24.3498C290.06 20.4897 290.057 16.3323 290.055 12.1749V12.1509C290.053 8.00152 290.052 3.8527 290.052 0H294.988ZM296.66 30.3947C294.92 30.409 290.05 30.4022 290.05 30.4022C290.05 30.4022 290.038 38.8473 290.043 39.9997L294.995 39.989C295.912 39.987 296.655 39.2453 296.657 38.3287C296.662 36.4163 296.66 34.5038 296.66 32.5915C296.66 31.8592 296.66 31.127 296.66 30.3947Z" fill="url(#paint2_linear_5699_1814)"/>
</g>
<defs>
<linearGradient id="paint0_linear_5699_1814" x1="3.02439e-07" y1="22.3064" x2="243.556" y2="22.3065" gradientUnits="userSpaceOnUse">
<stop stop-color="white"/>
<stop offset="1" stop-color="#C2C7CD"/>
</linearGradient>
<linearGradient id="paint1_linear_5699_1814" x1="256.667" y1="20.2467" x2="296.668" y2="20.2467" gradientUnits="userSpaceOnUse">
<stop stop-color="white"/>
<stop offset="1" stop-color="#C2C7CD"/>
</linearGradient>
<linearGradient id="paint2_linear_5699_1814" x1="256.667" y1="20.2467" x2="296.668" y2="20.2467" gradientUnits="userSpaceOnUse">
<stop stop-color="white"/>
<stop offset="1" stop-color="#C2C7CD"/>
</linearGradient>
<clipPath id="clip0_5699_1814">
<rect width="296.667" height="40" fill="white"/>
</clipPath>
</defs>
</svg>
