<svg width="168" height="40" viewBox="0 0 168 40" fill="none" xmlns="http://www.w3.org/2000/svg">
<g clip-path="url(#clip0_5700_1735)">
<path d="M69.0511 4.80156H62.6586V21.4277H57.0763V4.80156H50.6838V0H69.0502L69.0511 4.80156Z" fill="url(#paint0_linear_5700_1735)"/>
<path d="M70.5353 0H75.6373V7.98263H75.6972C76.4788 6.39166 78.5778 5.40165 80.4389 5.40165C85.6303 5.40165 86.0507 9.1828 86.0507 11.4338V21.4277H80.9486V13.8949C80.9486 11.7647 81.1883 9.60313 78.3981 9.60313C76.4771 9.60313 75.6373 11.2245 75.6373 12.9344V21.4277H70.5353V0Z" fill="url(#paint1_linear_5700_1735)"/>
<path d="M95.5175 5.40149C96.6085 5.36898 97.6945 5.56036 98.7087 5.96381C99.7229 6.36726 100.644 6.97423 101.414 7.74728C102.185 8.52033 102.789 9.44306 103.189 10.4585C103.589 11.474 103.777 12.5607 103.741 13.6516C103.763 14.7435 103.567 15.829 103.165 16.8443C102.763 17.8597 102.162 18.7845 101.398 19.5647C100.633 20.3449 99.721 20.9647 98.7142 21.3878C97.7073 21.8109 96.6261 22.0289 95.534 22.0289C94.4418 22.0289 93.3606 21.8109 92.3538 21.3878C91.3469 20.9647 90.4346 20.3449 89.6703 19.5647C88.906 18.7845 88.3051 17.8597 87.9028 16.8443C87.5005 15.829 87.3048 14.7435 87.3273 13.6516C87.2873 12.5625 87.4714 11.4769 87.8681 10.4618C88.2648 9.44678 88.8656 8.52398 89.6334 7.75057C90.4012 6.97716 91.3196 6.36961 92.3317 5.96555C93.3438 5.56148 94.4281 5.3695 95.5175 5.40149ZM95.5175 17.9764C97.8883 17.9764 98.6386 15.6316 98.6386 13.6551C98.6386 11.6785 97.8883 9.30336 95.5175 9.30336C93.1466 9.30336 92.4267 11.6742 92.4267 13.6551C92.4267 15.636 93.1466 17.9764 95.5175 17.9764Z" fill="url(#paint2_linear_5700_1735)"/>
<path d="M120.703 21.4287H115.753V19.2976H115.693C115.175 20.0837 114.471 20.7302 113.644 21.1801C112.818 21.6301 111.893 21.8696 110.951 21.8777C106.479 21.8777 105.188 19.2976 105.188 15.216V5.85254H110.29V14.8842C110.29 16.9546 111.19 17.6754 112.809 17.6754C113.92 17.6754 115.6 16.9546 115.6 14.1938V5.85254H120.702L120.703 21.4287Z" fill="url(#paint3_linear_5700_1735)"/>
<path d="M138.438 19.5371C138.438 22.0877 137.958 26.8901 130.665 26.8901C127.033 26.8901 123.612 26.0799 123.012 21.9088H128.114C128.133 22.1889 128.223 22.4595 128.375 22.6956C128.527 22.9317 128.736 23.1255 128.983 23.2592C129.568 23.5144 130.205 23.6274 130.843 23.5892C133.274 23.5892 133.514 21.8784 133.514 19.9574V18.4863H133.459C133.015 19.1832 132.404 19.7573 131.68 20.1559C130.956 20.5545 130.144 20.7649 129.318 20.7677C124.606 20.7677 122.475 17.4069 122.475 13.0248C122.475 8.8832 124.907 5.40165 129.318 5.40165C130.168 5.36714 131.011 5.57437 131.749 5.99935C132.487 6.42433 133.089 7.04966 133.486 7.80287H133.546V5.8515H138.438V19.5371ZM130.545 9.30352C128.295 9.30352 127.574 11.2844 127.574 13.2045C127.574 15.0352 128.414 16.8658 130.514 16.8658C132.675 16.8658 133.606 15.1854 133.606 13.234C133.607 11.254 132.826 9.30352 130.545 9.30352Z" fill="url(#paint4_linear_5700_1735)"/>
<path d="M140.638 0H145.739V7.98263H145.8C146.581 6.39166 148.68 5.40165 150.541 5.40165C155.733 5.40165 156.153 9.1828 156.153 11.4338V21.4277H151.051V13.8949C151.051 11.7647 151.292 9.60313 148.501 9.60313C146.58 9.60313 145.739 11.2245 145.739 12.9344V21.4277H140.638V0Z" fill="url(#paint5_linear_5700_1735)"/>
<path d="M167.6 9.15316H164.448V16.2352C164.448 17.4658 165.169 17.7359 166.28 17.7359C166.699 17.7359 167.148 17.676 167.6 17.676V21.4276C166.67 21.4571 165.74 21.5778 164.809 21.5778C160.457 21.5778 159.347 20.3169 159.347 16.0859V9.15316H156.766V5.85312H159.347V1.14014H164.448V5.85225H167.6V9.15316Z" fill="url(#paint6_linear_5700_1735)"/>
<path d="M8.45798 16.094H0.254761V0.00195312H32.9504V8.20517H8.46058L8.45798 16.094Z" fill="url(#paint7_linear_5700_1735)"/>
<path d="M8.46579 16.1035H16.669V39.9993H8.46579V16.1035Z" fill="url(#paint8_linear_5700_1735)"/>
<path d="M24.748 16.1035H32.9512V32.1009H24.748V16.1035Z" fill="url(#paint9_linear_5700_1735)"/>
<path d="M32.9495 8.2085H41.1527V16.0947H32.9495V8.2085Z" fill="url(#paint10_linear_5700_1735)"/>
<path d="M58.5483 25.2495V32.0841H57.1241V25.2495H58.5483Z" fill="url(#paint11_linear_5700_1735)"/>
<path d="M61.4879 25.2495L64.1914 29.8348H64.2096V25.2495H65.5435V32.0841H64.1193L61.4271 27.5083H61.4098V32.0841H60.0759V25.2495H61.4879Z" fill="url(#paint12_linear_5700_1735)"/>
<path d="M69.8648 25.2497C70.263 25.2463 70.6583 25.3176 71.0303 25.4598C71.3855 25.5969 71.705 25.8128 71.9647 26.0912C72.2419 26.3953 72.4522 26.7542 72.5822 27.1446C72.7393 27.6233 72.8144 28.125 72.8045 28.6287C72.8089 29.0947 72.7478 29.5589 72.623 30.0078C72.5142 30.4042 72.3277 30.775 72.0741 31.0986C71.8277 31.406 71.5143 31.6531 71.1579 31.8211C70.752 32.004 70.31 32.0931 69.8648 32.0816H67.0702V25.2471L69.8648 25.2497ZM69.765 30.8207C69.9693 30.8212 70.1722 30.7856 70.3642 30.7156C70.5633 30.6435 70.7421 30.5243 70.8852 30.3682C71.049 30.1834 71.1726 29.9667 71.2483 29.7317C71.3457 29.4229 71.3914 29.1001 71.3837 28.7764C71.387 28.4626 71.355 28.1494 71.2882 27.8428C71.234 27.5862 71.1276 27.3435 70.9756 27.1298C70.8275 26.9299 70.6287 26.7731 70.3998 26.6756C70.1189 26.5624 69.8176 26.5086 69.5149 26.5176H68.4988V30.825L69.765 30.8207Z" fill="url(#paint13_linear_5700_1735)"/>
<path d="M78.4693 31.563C77.8813 32.0003 77.1682 32.2369 76.4354 32.2379C75.7026 32.2388 74.9889 32.004 74.3998 31.5682C74.1415 31.2933 73.9438 30.9672 73.8197 30.611C73.6955 30.2547 73.6476 29.8764 73.679 29.5005V25.2495H75.1032V29.4996C75.1032 29.6824 75.1183 29.8648 75.1484 30.045C75.1755 30.2152 75.2408 30.377 75.3394 30.5183C75.4439 30.6623 75.5827 30.7778 75.7433 30.8544C75.9621 30.9494 76.1997 30.9934 76.438 30.9829C76.6291 31.0052 76.8227 30.9845 77.0048 30.9225C77.1869 30.8604 77.3528 30.7586 77.4906 30.6242C77.7117 30.2914 77.8142 29.8936 77.7815 29.4953V25.2495H79.2057V29.4996C79.236 29.8761 79.186 30.2547 79.0591 30.6104C78.9321 30.9661 78.7311 31.2908 78.4693 31.563Z" fill="url(#paint14_linear_5700_1735)"/>
<path d="M81.6139 30.4004C81.6857 30.5529 81.7929 30.6859 81.9265 30.7886C82.0636 30.8909 82.2194 30.9656 82.385 31.0083C82.5622 31.0567 82.745 31.0809 82.9287 31.0804C83.0654 31.0795 83.2018 31.0682 83.3368 31.0466C83.4792 31.0253 83.6172 30.9816 83.7459 30.9172C83.8705 30.856 83.9793 30.7669 84.0637 30.6566C84.1524 30.5326 84.1973 30.3826 84.1914 30.2302C84.1948 30.148 84.1817 30.0659 84.1529 29.9888C84.1241 29.9117 84.0802 29.8411 84.0238 29.7812C83.8977 29.6569 83.748 29.5591 83.5835 29.4938C83.3831 29.4112 83.1767 29.3441 82.966 29.2932C82.7344 29.2353 82.5029 29.1713 82.2713 29.1013C82.0308 29.0377 81.7944 28.9594 81.5635 28.8668C81.3409 28.7789 81.1327 28.658 80.9461 28.5081C80.762 28.3581 80.6121 28.1703 80.5066 27.9575C80.3883 27.7082 80.3309 27.4344 80.339 27.1586C80.331 26.8406 80.4042 26.5259 80.5518 26.2441C80.689 25.9909 80.8795 25.7705 81.1102 25.598C81.3449 25.4233 81.6099 25.2935 81.8918 25.215C82.1741 25.1335 82.4664 25.0917 82.7602 25.0908C83.089 25.0898 83.4167 25.13 83.7354 25.2107C84.0349 25.2847 84.3169 25.4166 84.5657 25.5989C84.8088 25.7787 85.0064 26.0131 85.1423 26.2832C85.2921 26.5983 85.3651 26.9444 85.3551 27.2932H83.976C83.9706 27.1175 83.9289 26.9448 83.8536 26.786C83.7894 26.6589 83.6941 26.5502 83.5765 26.4699C83.4561 26.3916 83.3221 26.3365 83.1814 26.3075C83.0217 26.2747 82.859 26.2587 82.6959 26.2598C82.5791 26.26 82.4626 26.2728 82.3486 26.298C82.2367 26.3225 82.1306 26.3682 82.0359 26.4326C81.9431 26.4955 81.8644 26.5772 81.8049 26.6723C81.7403 26.7823 81.7086 26.9086 81.7137 27.0361C81.7089 27.1489 81.734 27.261 81.7867 27.3609C81.858 27.4632 81.9571 27.5428 82.0724 27.5902C82.2622 27.678 82.4595 27.7483 82.6621 27.8004C82.9128 27.871 83.241 27.9604 83.6469 28.0687C83.7685 28.0939 83.9361 28.1399 84.1506 28.2068C84.3789 28.2809 84.5947 28.3892 84.7906 28.5281C85.0116 28.6851 85.1983 28.8854 85.3394 29.1169C85.5038 29.4029 85.5839 29.7296 85.5705 30.0591C85.5724 30.3574 85.5133 30.653 85.3968 30.9276C85.2824 31.1959 85.1069 31.4338 84.8844 31.6223C84.6363 31.829 84.3493 31.9837 84.0403 32.0774C83.6626 32.1918 83.2694 32.2466 82.8748 32.2398C82.5228 32.241 82.1723 32.1945 81.8327 32.1017C81.5111 32.0164 81.2092 31.8689 80.9443 31.6675C80.6839 31.4667 80.4742 31.2076 80.3321 30.9111C80.1734 30.5701 80.0986 30.1961 80.1141 29.8203H81.494C81.4889 30.0203 81.5299 30.2188 81.6139 30.4004Z" fill="url(#paint15_linear_5700_1735)"/>
<path d="M85.9499 26.5131V25.2495H91.2578V26.5131H89.3203V32.0841H87.8961V26.5131H85.9499Z" fill="url(#paint16_linear_5700_1735)"/>
<path d="M95.7624 25.2497C96.0301 25.246 96.296 25.2962 96.544 25.3973C96.7692 25.4912 96.973 25.6297 97.1432 25.8046C97.309 25.976 97.4384 26.1793 97.5235 26.4021C97.6124 26.6362 97.6569 26.8847 97.6547 27.1351C97.6637 27.4971 97.5813 27.8555 97.415 28.1772C97.2396 28.4841 96.9634 28.721 96.6334 28.8476V28.8667C96.7944 28.91 96.9431 28.9903 97.0676 29.1012C97.1833 29.2075 97.2787 29.3341 97.349 29.4746C97.4237 29.6242 97.4772 29.7835 97.5079 29.9479C97.5414 30.12 97.5643 30.2941 97.5765 30.469C97.5829 30.5772 97.5887 30.7049 97.5939 30.852C97.6 30.9987 97.6104 31.149 97.626 31.3018C97.6402 31.448 97.6642 31.5931 97.6981 31.736C97.7261 31.86 97.7767 31.9778 97.8475 32.0834H96.4232C96.3383 31.8331 96.2894 31.572 96.2782 31.3079C96.2597 31.008 96.2322 30.7208 96.1957 30.4464C96.1761 30.1603 96.0684 29.8873 95.8874 29.6648C95.7827 29.5731 95.6604 29.5037 95.5279 29.4608C95.3955 29.418 95.2557 29.4026 95.1171 29.4156H93.692V32.086H92.2669V25.2514L95.7624 25.2497ZM95.2543 28.3422C95.5198 28.3624 95.7829 28.2797 95.989 28.1112C96.0791 28.0105 96.1475 27.8922 96.1898 27.7639C96.2321 27.6355 96.2474 27.4998 96.2348 27.3652C96.2468 27.2343 96.2311 27.1023 96.1888 26.9778C96.1465 26.8533 96.0784 26.7391 95.989 26.6427C95.7812 26.4779 95.5188 26.3975 95.2543 26.4177H93.6912V28.3422H95.2543Z" fill="url(#paint17_linear_5700_1735)"/>
<path d="M100.513 25.2495V32.0841H99.0876V25.2495H100.513Z" fill="url(#paint18_linear_5700_1735)"/>
<path d="M106.882 25.2495V26.5131H103.461V27.9781H106.6V29.1453H103.461V30.8205H106.955V32.0841H102.037V25.2495H106.882Z" fill="url(#paint19_linear_5700_1735)"/>
<path d="M109.032 30.4004C109.104 30.5526 109.211 30.6856 109.345 30.7886C109.482 30.8909 109.638 30.9655 109.803 31.0083C109.98 31.0567 110.163 31.081 110.347 31.0804C110.484 31.0795 110.621 31.0682 110.756 31.0466C110.898 31.0252 111.035 30.9815 111.163 30.9172C111.288 30.8561 111.396 30.7669 111.48 30.6566C111.569 30.5326 111.614 30.3826 111.608 30.2302C111.611 30.148 111.598 30.0659 111.569 29.9888C111.541 29.9116 111.497 29.8411 111.44 29.7812C111.314 29.6569 111.164 29.5591 111 29.4938C110.8 29.4111 110.593 29.344 110.382 29.2932C110.151 29.2353 109.919 29.1713 109.688 29.1013C109.447 29.0377 109.211 28.9594 108.981 28.8668C108.758 28.7788 108.55 28.6579 108.363 28.5081C108.179 28.3579 108.03 28.1702 107.924 27.9575C107.805 27.7083 107.748 27.4344 107.756 27.1586C107.748 26.8406 107.821 26.5258 107.969 26.2441C108.106 25.9911 108.296 25.7707 108.527 25.598C108.761 25.4233 109.026 25.2935 109.308 25.215C109.59 25.1336 109.883 25.0918 110.177 25.0908C110.505 25.0898 110.833 25.1301 111.152 25.2107C111.451 25.2847 111.733 25.4166 111.982 25.5989C112.225 25.7786 112.422 26.013 112.558 26.2832C112.708 26.5981 112.781 26.9444 112.771 27.2932H111.392C111.386 27.1175 111.345 26.9447 111.269 26.786C111.205 26.6587 111.11 26.5499 110.992 26.4699C110.872 26.3915 110.738 26.3364 110.598 26.3075C110.438 26.2747 110.275 26.2587 110.112 26.2598C109.996 26.26 109.879 26.2728 109.765 26.298C109.653 26.3226 109.547 26.3683 109.452 26.4326C109.36 26.4957 109.281 26.5773 109.221 26.6723C109.158 26.7828 109.128 26.9091 109.134 27.0361C109.129 27.1489 109.154 27.261 109.207 27.3609C109.278 27.4631 109.377 27.5427 109.492 27.5902C109.682 27.6781 109.879 27.7484 110.082 27.8004C110.333 27.871 110.661 27.9604 111.067 28.0687C111.187 28.0939 111.355 28.1399 111.57 28.2068C111.799 28.2808 112.014 28.3892 112.21 28.5281C112.431 28.6851 112.617 28.8854 112.758 29.1169C112.923 29.4029 113.003 29.7296 112.989 30.0591C112.991 30.3574 112.932 30.653 112.816 30.9276C112.701 31.1959 112.526 31.4338 112.303 31.6223C112.055 31.829 111.768 31.9837 111.459 32.0774C111.082 32.1918 110.688 32.2466 110.294 32.2398C109.942 32.241 109.591 32.1946 109.252 32.1017C108.93 32.0163 108.628 31.8688 108.362 31.6675C108.104 31.4659 107.896 31.207 107.755 30.9111C107.596 30.5702 107.521 30.1961 107.537 29.8203H108.916C108.91 30.02 108.949 30.2185 109.032 30.4004Z" fill="url(#paint20_linear_5700_1735)"/>
</g>
<defs>
<linearGradient id="paint0_linear_5700_1735" x1="50.6838" y1="10.8461" x2="69.0511" y2="10.8461" gradientUnits="userSpaceOnUse">
<stop stop-color="white"/>
<stop offset="1" stop-color="#C2C7CD"/>
</linearGradient>
<linearGradient id="paint1_linear_5700_1735" x1="70.5353" y1="10.8461" x2="86.0507" y2="10.8461" gradientUnits="userSpaceOnUse">
<stop stop-color="white"/>
<stop offset="1" stop-color="#C2C7CD"/>
</linearGradient>
<linearGradient id="paint2_linear_5700_1735" x1="87.3219" y1="13.8161" x2="103.745" y2="13.8161" gradientUnits="userSpaceOnUse">
<stop stop-color="white"/>
<stop offset="1" stop-color="#C2C7CD"/>
</linearGradient>
<linearGradient id="paint3_linear_5700_1735" x1="105.188" y1="13.9641" x2="120.703" y2="13.9641" gradientUnits="userSpaceOnUse">
<stop stop-color="white"/>
<stop offset="1" stop-color="#C2C7CD"/>
</linearGradient>
<linearGradient id="paint4_linear_5700_1735" x1="122.475" y1="16.2767" x2="138.438" y2="16.2767" gradientUnits="userSpaceOnUse">
<stop stop-color="white"/>
<stop offset="1" stop-color="#C2C7CD"/>
</linearGradient>
<linearGradient id="paint5_linear_5700_1735" x1="140.638" y1="10.8461" x2="156.153" y2="10.8461" gradientUnits="userSpaceOnUse">
<stop stop-color="white"/>
<stop offset="1" stop-color="#C2C7CD"/>
</linearGradient>
<linearGradient id="paint6_linear_5700_1735" x1="156.766" y1="11.4851" x2="167.6" y2="11.4851" gradientUnits="userSpaceOnUse">
<stop stop-color="white"/>
<stop offset="1" stop-color="#C2C7CD"/>
</linearGradient>
<linearGradient id="paint7_linear_5700_1735" x1="0.254761" y1="8.14731" x2="32.9504" y2="8.14731" gradientUnits="userSpaceOnUse">
<stop stop-color="white"/>
<stop offset="1" stop-color="#C2C7CD"/>
</linearGradient>
<linearGradient id="paint8_linear_5700_1735" x1="8.46579" y1="28.1989" x2="16.669" y2="28.1989" gradientUnits="userSpaceOnUse">
<stop stop-color="white"/>
<stop offset="1" stop-color="#C2C7CD"/>
</linearGradient>
<linearGradient id="paint9_linear_5700_1735" x1="24.748" y1="24.201" x2="32.9512" y2="24.201" gradientUnits="userSpaceOnUse">
<stop stop-color="white"/>
<stop offset="1" stop-color="#C2C7CD"/>
</linearGradient>
<linearGradient id="paint10_linear_5700_1735" x1="32.9495" y1="12.2003" x2="41.1527" y2="12.2003" gradientUnits="userSpaceOnUse">
<stop stop-color="white"/>
<stop offset="1" stop-color="#C2C7CD"/>
</linearGradient>
<linearGradient id="paint11_linear_5700_1735" x1="57.1241" y1="28.709" x2="58.5483" y2="28.709" gradientUnits="userSpaceOnUse">
<stop stop-color="white"/>
<stop offset="1" stop-color="#C2C7CD"/>
</linearGradient>
<linearGradient id="paint12_linear_5700_1735" x1="60.0759" y1="28.709" x2="65.5435" y2="28.709" gradientUnits="userSpaceOnUse">
<stop stop-color="white"/>
<stop offset="1" stop-color="#C2C7CD"/>
</linearGradient>
<linearGradient id="paint13_linear_5700_1735" x1="67.0702" y1="28.707" x2="72.8054" y2="28.707" gradientUnits="userSpaceOnUse">
<stop stop-color="white"/>
<stop offset="1" stop-color="#C2C7CD"/>
</linearGradient>
<linearGradient id="paint14_linear_5700_1735" x1="73.6696" y1="28.7868" x2="79.2143" y2="28.7868" gradientUnits="userSpaceOnUse">
<stop stop-color="white"/>
<stop offset="1" stop-color="#C2C7CD"/>
</linearGradient>
<linearGradient id="paint15_linear_5700_1735" x1="80.1121" y1="28.7097" x2="85.5719" y2="28.7097" gradientUnits="userSpaceOnUse">
<stop stop-color="white"/>
<stop offset="1" stop-color="#C2C7CD"/>
</linearGradient>
<linearGradient id="paint16_linear_5700_1735" x1="85.9499" y1="28.709" x2="91.2578" y2="28.709" gradientUnits="userSpaceOnUse">
<stop stop-color="white"/>
<stop offset="1" stop-color="#C2C7CD"/>
</linearGradient>
<linearGradient id="paint17_linear_5700_1735" x1="92.2669" y1="28.71" x2="97.8475" y2="28.71" gradientUnits="userSpaceOnUse">
<stop stop-color="white"/>
<stop offset="1" stop-color="#C2C7CD"/>
</linearGradient>
<linearGradient id="paint18_linear_5700_1735" x1="99.0876" y1="28.709" x2="100.513" y2="28.709" gradientUnits="userSpaceOnUse">
<stop stop-color="white"/>
<stop offset="1" stop-color="#C2C7CD"/>
</linearGradient>
<linearGradient id="paint19_linear_5700_1735" x1="102.037" y1="28.709" x2="106.955" y2="28.709" gradientUnits="userSpaceOnUse">
<stop stop-color="white"/>
<stop offset="1" stop-color="#C2C7CD"/>
</linearGradient>
<linearGradient id="paint20_linear_5700_1735" x1="107.535" y1="28.7097" x2="112.991" y2="28.7097" gradientUnits="userSpaceOnUse">
<stop stop-color="white"/>
<stop offset="1" stop-color="#C2C7CD"/>
</linearGradient>
<clipPath id="clip0_5700_1735">
<rect width="167.345" height="40" fill="white" transform="translate(0.254761)"/>
</clipPath>
</defs>
</svg>
