<svg width="192" height="40" viewBox="0 0 192 40" fill="none" xmlns="http://www.w3.org/2000/svg">
<g clip-path="url(#clip0_5699_1801)">
<path d="M123.455 12.8877H131.125V19.4681H123.455C123.455 24.8799 123.455 27.8838 123.455 28.4877C123.455 31.1858 124.749 32.2681 126.929 32.2681C128.067 32.2681 129.627 31.8603 130.71 31.2328C130.906 31.8917 132.435 37.1152 132.631 37.7662C130.608 38.8564 128.482 39.6799 125.533 39.6799C119.055 39.6799 115.165 36.1583 115.165 29.3191C115.165 28.6603 115.165 25.3818 115.165 19.4681H110.451V12.8877H115.165V4.18185H123.455V12.8877ZM159.423 22.425C159.423 23.523 159.423 29.0132 159.423 38.9034H151.439C151.439 37.7583 151.439 37.1152 151.439 36.9897C149.627 38.5426 147.141 39.6799 143.667 39.6799C137.863 39.6799 133.98 36.3152 133.98 31.1858C133.98 26.1034 137.863 22.7858 144.812 22.7858C145.251 22.7858 147.463 22.7858 151.439 22.7858C151.439 22.4799 151.439 22.3073 151.439 22.2681C151.439 20.0956 149.941 18.6446 147.761 18.6446C145.274 18.6446 143.823 19.625 143.408 21.9073C142.623 21.7426 136.365 20.4642 135.58 20.2995C136.725 15.272 141.282 12.1113 147.502 12.1113C154.812 12.1113 159.423 15.7897 159.423 22.425ZM172.482 27.0917C172.482 30.1505 174.294 32.2211 176.937 32.2211C180.208 32.2211 182.333 29.9936 182.333 24.9662C182.333 24.1583 182.333 20.1348 182.333 12.8877H190.624V38.9034H182.333C182.333 37.4132 182.333 36.5818 182.333 36.4171C180.357 38.4877 177.612 39.6799 174.349 39.6799C168.286 39.6799 164.239 35.3819 164.239 28.8485C164.239 27.7897 164.239 22.4642 164.239 12.8877H172.482C172.482 21.4054 172.482 26.1426 172.482 27.0917ZM79.8706 28.9034L86.0902 12.8407H94.8509L84.0745 38.9034H75.6276L64.8433 12.8407H73.604L79.8706 28.9034ZM106.929 38.9034H98.6313V12.8877H106.929V38.9034ZM145.745 28.072C143.667 28.072 142.373 29.1622 142.373 30.7701C142.373 32.425 143.823 33.4603 146.004 33.4603C148.851 33.4603 151.439 31.5466 151.439 28.6446C151.439 28.6054 151.439 28.4171 151.439 28.072C148.02 28.072 146.122 28.072 145.745 28.072ZM107.596 5.21714C107.596 7.86028 105.58 9.82891 102.78 9.82891C99.9804 9.82891 98.0117 7.86028 98.0117 5.21714C98.0117 2.67597 99.9804 0.503418 102.78 0.503418C105.58 0.503418 107.596 2.67597 107.596 5.21714Z" fill="url(#paint0_linear_5699_1801)"/>
<path d="M42.0982 34.4166C42.0982 37.295 39.7531 39.6401 36.8747 39.6401C33.9884 39.6401 31.6433 37.295 31.6433 34.4166C31.6433 31.5382 33.9884 29.1931 36.8747 29.1931C39.7531 29.1931 42.0982 31.5382 42.0982 34.4166ZM22.1296 34.4166C22.1296 37.295 19.7845 39.6401 16.9061 39.6401C14.0198 39.6401 11.6825 37.295 11.6825 34.4166C11.6825 31.5382 14.0198 29.1931 16.9061 29.1931C19.7845 29.1931 22.1296 31.5382 22.1296 34.4166ZM33.7453 34.4166C33.7453 36.1421 35.1492 37.546 36.8747 37.546C38.6002 37.546 40.0041 36.1421 40.0041 34.4166C40.0041 32.6911 38.6002 31.295 36.8747 31.295C35.1492 31.295 33.7453 32.6911 33.7453 34.4166ZM13.7767 34.4166C13.7767 36.1421 15.1806 37.546 16.9061 37.546C18.6316 37.546 20.0355 36.1421 20.0355 34.4166C20.0355 32.6911 18.6316 31.295 16.9061 31.295C15.1806 31.295 13.7767 32.6911 13.7767 34.4166ZM42.208 13.6715C44.7335 13.7499 46.4041 15.6715 46.4041 18.4166C46.4041 25.6401 46.4041 29.6558 46.4041 30.4558C46.4041 31.0362 46.0119 31.5068 45.4316 31.5068C44.8512 31.5068 44.4669 31.0362 44.4669 30.4558C44.4669 23.2323 44.4669 19.2166 44.4669 18.4166C44.4669 17.648 44.1923 15.8441 42.2237 15.7892C39.6669 15.7107 37.0237 15.7421 34.4904 15.7656C33.1414 15.7813 31.7688 15.797 30.4198 15.797C29.0943 15.797 28.357 15.797 28.208 15.797C26.5531 15.797 24.8982 15.797 23.2433 15.797C20.4747 15.797 18.9374 15.797 18.6316 15.797C18.4276 15.797 18.2159 15.797 18.0041 15.7892C16.5531 15.7656 15.1806 15.7499 14.2943 16.6048C13.6512 17.2245 13.2198 18.0872 12.757 18.9892C12.3178 19.8519 11.8708 20.746 11.1963 21.5303C10.0355 22.8637 8.06685 23.4597 6.61587 23.7186C4.67077 24.0715 3.85509 24.699 3.2747 26.3147C2.90607 27.3421 2.92175 28.495 2.92959 29.7186C2.93744 29.9303 2.93744 30.1499 2.93744 30.3696C2.93744 30.6676 2.92175 30.997 2.91391 31.3421C2.86685 32.6127 2.81195 34.197 3.42371 34.8245C3.50214 34.9107 3.75313 35.1696 4.50607 35.1696C6.70999 35.1696 7.93352 35.1696 8.17666 35.1696C8.75704 35.1696 9.22763 35.6872 9.22763 36.2597C9.22763 36.8401 8.75704 37.3499 8.17666 37.3499C5.97274 37.3499 4.74921 37.3499 4.50607 37.3499C3.41588 37.3499 2.54528 36.9735 1.90999 36.3225C0.686457 35.0519 0.757046 32.9578 0.819791 31.2872C0.827634 30.9735 0.835481 30.6597 0.835481 30.3774C0.835481 30.1656 0.835481 29.9539 0.835481 29.7421C0.819795 28.3931 0.81195 26.9892 1.30607 25.6088C2.13744 23.2872 3.57274 22.1421 6.23941 21.6558C7.82372 21.3735 9.01587 20.8401 9.6041 20.1578C10.1139 19.5696 10.4904 18.8323 10.8825 18.048C11.4002 17.0205 11.9414 15.9696 12.8355 15.099C14.3492 13.648 16.3884 13.6715 18.0355 13.695C18.2316 13.7029 18.4355 13.7029 18.6316 13.7029C21.4002 13.6794 22.9374 13.6637 23.2433 13.6637C24.8982 13.6637 26.5453 13.6166 28.2002 13.6166C29.5257 13.6166 30.2629 13.6166 30.4041 13.6166C31.7453 13.6166 33.0943 13.648 34.4355 13.6323C36.9923 13.6009 39.6119 13.5931 42.208 13.6715ZM29.1414 35.1696C29.7218 35.1696 30.1923 35.6872 30.1923 36.2597C30.1923 36.8401 29.7218 37.3499 29.1414 37.3499C26.6316 37.3499 25.2276 37.3499 24.9531 37.3499C24.3727 37.3499 23.9021 36.8401 23.9021 36.2597C23.9021 35.6872 24.3727 35.1696 24.9531 35.1696C27.1884 35.1696 28.5845 35.1696 29.1414 35.1696ZM27.2355 19.1382C29.5492 22.1107 30.8355 23.7656 31.0943 24.095C32.3963 25.8048 32.0433 28.3539 30.3178 29.6637C29.6198 30.197 28.7884 30.4794 27.9178 30.4794C26.7021 30.4794 25.5806 29.9225 24.8433 28.9499C22.5296 25.9146 21.2433 24.2284 20.9845 23.8833C19.6747 22.1656 20.0119 19.7029 21.7296 18.3931C22.4198 17.8676 23.2433 17.5931 24.1061 17.5931C25.3453 17.5931 26.4825 18.1499 27.2355 19.1382ZM54.8276 26.699C55.408 26.699 55.8786 27.2088 55.8786 27.7892C55.8786 28.3617 55.408 28.8794 54.8276 28.8794C52.6316 28.8794 51.408 28.8794 51.157 28.8794C50.5845 28.8794 50.1139 28.3617 50.1139 27.7892C50.1139 27.2088 50.5845 26.699 51.157 26.699C53.1178 26.699 54.3414 26.699 54.8276 26.699ZM25.2198 25.9931C25.9963 27.0048 26.4276 27.5696 26.5139 27.6794C27.1021 28.4558 28.2629 28.597 29.0472 27.9931C29.8629 27.3735 30.0433 26.1735 29.4316 25.3735L28.1688 23.7499L25.2198 25.9931ZM55.8786 22.5813C56.459 22.5813 56.9296 23.0911 56.9296 23.6715C56.9296 24.2441 56.459 24.7617 55.8786 24.7617C53.0472 24.7617 51.4708 24.7617 51.157 24.7617C50.5845 24.7617 50.1139 24.2441 50.1139 23.6715C50.1139 23.0911 50.5845 22.5813 51.157 22.5813C53.6747 22.5813 55.2512 22.5813 55.8786 22.5813ZM23.0002 20.0558C22.2002 20.6676 22.0433 21.8205 22.6551 22.6205L23.957 24.3225L26.8825 22.095C26.0982 21.0911 25.659 20.5264 25.5727 20.4166C25.2198 19.946 24.6865 19.6872 24.1061 19.6872C23.7061 19.6872 23.3218 19.8127 23.0002 20.0558ZM57.9727 17.9774C58.5531 17.9774 59.0237 18.3696 59.0237 18.9421C59.0237 19.5225 58.5531 19.9146 57.9727 19.9146C53.8865 19.9146 51.6119 19.9146 51.157 19.9146C50.5845 19.9146 50.1139 19.5225 50.1139 18.9421C50.1139 18.3696 50.5845 17.9774 51.157 17.9774C54.7963 17.9774 57.0629 17.9774 57.9727 17.9774Z" fill="url(#paint1_linear_5699_1801)"/>
</g>
<defs>
<linearGradient id="paint0_linear_5699_1801" x1="64.8433" y1="20.3335" x2="190.624" y2="20.3335" gradientUnits="userSpaceOnUse">
<stop stop-color="white"/>
<stop offset="1" stop-color="#C2C7CD"/>
</linearGradient>
<linearGradient id="paint1_linear_5699_1801" x1="0.791077" y1="26.7857" x2="59.0237" y2="26.7857" gradientUnits="userSpaceOnUse">
<stop stop-color="white"/>
<stop offset="1" stop-color="#C2C7CD"/>
</linearGradient>
<clipPath id="clip0_5699_1801">
<rect width="190.588" height="40" fill="white" transform="translate(0.666626)"/>
</clipPath>
</defs>
</svg>
