<svg width="182" height="40" viewBox="0 0 182 40" fill="none" xmlns="http://www.w3.org/2000/svg">
<g clip-path="url(#clip0_5700_1797)">
<path fill-rule="evenodd" clip-rule="evenodd" d="M178.916 39.2193C177.712 40.4842 175.144 40.0089 174.277 39.2193C173.412 38.4297 175.555 33.5742 175.555 33.5742C173.672 33.2892 172.396 32.2629 172.396 30.4952C172.396 25.2498 181.94 25.4776 181.94 30.6661C181.94 31.3504 180.119 37.9544 178.916 39.2193Z" fill="url(#paint0_linear_5700_1797)"/>
<path fill-rule="evenodd" clip-rule="evenodd" d="M174.484 10.8535L160.905 38.2025C160.361 39.2992 159.195 39.9998 157.913 39.9998H157.845C155.425 39.9998 153.825 37.6185 154.853 35.5449L157.704 29.7945L148.807 10.7947C147.896 8.85233 149.4 6.6665 151.645 6.6665H152.535C153.825 6.6665 154.981 7.42265 155.439 8.56556L161.388 23.4522L168.327 8.42801C168.82 7.35805 169.937 6.6665 171.172 6.6665H171.673C173.948 6.6665 175.451 8.90526 174.484 10.8535Z" fill="url(#paint1_linear_5700_1797)"/>
<path fill-rule="evenodd" clip-rule="evenodd" d="M146.151 2.74223V28.1925C146.151 29.8043 144.559 31.1111 142.595 31.1111H142.548C140.584 31.1111 138.992 29.8043 138.992 28.1925V2.74223C138.992 1.22776 140.733 0 142.579 0C144.424 0 146.151 1.22776 146.151 2.74223Z" fill="url(#paint2_linear_5700_1797)"/>
<path d="M133.566 31.1105C135.253 31.1033 136.615 29.6073 136.608 27.8517L136.571 18.074C136.543 10.8977 132.704 6.63699 125.592 6.66666C122.34 6.68106 119.72 7.66375 117.498 11.0665C115.276 7.66375 112.462 6.68106 109.21 6.66666C102.097 6.63699 98.4971 10.8977 98.4695 18.074L98.4324 27.8517C98.4259 29.6073 99.7872 31.1037 101.474 31.111C103.16 31.1182 104.624 29.6073 104.631 27.8517L104.668 18.074C104.681 14.9229 105.856 11.9485 109.21 11.9629C112.562 11.9786 114.841 14.9234 114.829 18.074L114.792 27.8517C114.785 29.6073 116.147 31.1037 117.834 31.111C119.52 31.1037 120.255 29.604 120.248 27.8484L120.212 18.074C120.199 14.9234 122.24 11.9786 125.592 11.9629C128.946 11.9485 130.359 14.9229 130.372 18.074L130.409 27.8517C130.416 29.6073 131.878 31.1181 133.565 31.1109L133.566 31.1105Z" fill="url(#paint3_linear_5700_1797)"/>
<path fill-rule="evenodd" clip-rule="evenodd" d="M84.8681 9.92464L84.8868 10.0479C86.6133 7.10101 88.9303 6.6665 91.2019 6.6665C92.2829 6.6665 93.3444 6.87678 94.2939 7.2336C95.8281 7.81082 96.5049 9.89381 95.7107 11.5216C95.1035 12.7656 93.8209 13.3306 92.6532 12.8737C92.0412 12.6343 91.3471 12.5118 90.4749 12.5118C87.5671 12.5118 84.8868 14.1544 84.8868 18.5505V27.9432C84.8868 29.6926 83.664 31.1109 82.1559 31.1109H82.0747C80.5665 31.1109 79.3437 29.6926 79.3437 27.9432V10.4622C79.3437 8.71276 80.5665 7.2944 82.0747 7.2944H82.1769C83.5064 7.2944 84.6425 8.40493 84.8681 9.92464Z" fill="url(#paint4_linear_5700_1797)"/>
<path fill-rule="evenodd" clip-rule="evenodd" d="M54.3107 18.7946C54.3107 23.2136 57.4992 25.846 61.4731 25.846C70.8921 25.846 70.8921 11.7909 61.4731 11.7909C57.4992 11.7909 54.3107 14.3761 54.3107 18.7946ZM71.5972 7.23103H71.6224C73.2512 7.23103 74.5712 8.61115 74.5712 10.3134V27.3232C74.5712 29.0253 73.2512 30.4054 71.6224 30.4054C70.0973 30.4054 68.8241 29.1897 68.6859 27.6021L68.6355 27.0212C67.2617 29.7473 63.4844 31.0637 60.786 31.1105C53.6236 31.1578 48.3256 26.927 48.3256 18.7946C48.3256 10.8036 53.8689 6.62005 60.9335 6.66689C64.1711 6.66689 67.2617 8.12427 68.6355 10.4276L68.6544 10.1162C68.7543 8.49364 70.0419 7.23103 71.5972 7.23103Z" fill="url(#paint5_linear_5700_1797)"/>
<path fill-rule="evenodd" clip-rule="evenodd" d="M34.9159 31.1111C33.7344 31.1111 31.9423 30.3839 31.5052 29.2752L25.2695 13.4644C24.9936 12.7651 24.0121 12.7683 23.7409 13.4691L17.6299 29.2576C17.1973 30.3753 15.36 31.1111 14.1716 31.1111C12.9921 31.1111 11.2471 30.3861 10.8085 29.2801L0.780521 3.99813C0.0211769 2.08337 1.87636 0 3.91872 0C5.13921 0 6.57474 0.775387 6.98446 1.93613L14.2236 22.4443L21.6916 1.90972C22.1091 0.762568 23.248 0 24.4584 0C25.6583 0 26.7964 0.750136 27.2207 1.88408L34.918 22.4443L41.9289 1.96255C42.3311 0.788207 43.7768 0 45.0071 0C47.0411 0 48.9027 2.06783 48.1591 3.97988L38.3261 29.2619C37.8923 30.3776 36.1028 31.1111 34.9159 31.1111Z" fill="url(#paint6_linear_5700_1797)"/>
</g>
<defs>
<linearGradient id="paint0_linear_5700_1797" x1="172.396" y1="33.4155" x2="181.94" y2="33.4155" gradientUnits="userSpaceOnUse">
<stop stop-color="white"/>
<stop offset="1" stop-color="#C2C7CD"/>
</linearGradient>
<linearGradient id="paint1_linear_5700_1797" x1="148.537" y1="23.5389" x2="174.782" y2="23.5389" gradientUnits="userSpaceOnUse">
<stop stop-color="white"/>
<stop offset="1" stop-color="#C2C7CD"/>
</linearGradient>
<linearGradient id="paint2_linear_5700_1797" x1="138.992" y1="15.7476" x2="146.151" y2="15.7476" gradientUnits="userSpaceOnUse">
<stop stop-color="white"/>
<stop offset="1" stop-color="#C2C7CD"/>
</linearGradient>
<linearGradient id="paint3_linear_5700_1797" x1="98.4324" y1="19.0397" x2="136.608" y2="19.0397" gradientUnits="userSpaceOnUse">
<stop stop-color="white"/>
<stop offset="1" stop-color="#C2C7CD"/>
</linearGradient>
<linearGradient id="paint4_linear_5700_1797" x1="79.3437" y1="19.0396" x2="96.0455" y2="19.0396" gradientUnits="userSpaceOnUse">
<stop stop-color="white"/>
<stop offset="1" stop-color="#C2C7CD"/>
</linearGradient>
<linearGradient id="paint5_linear_5700_1797" x1="48.3256" y1="19.0396" x2="74.5712" y2="19.0396" gradientUnits="userSpaceOnUse">
<stop stop-color="white"/>
<stop offset="1" stop-color="#C2C7CD"/>
</linearGradient>
<linearGradient id="paint6_linear_5700_1797" x1="0.606812" y1="15.7476" x2="48.3261" y2="15.7476" gradientUnits="userSpaceOnUse">
<stop stop-color="white"/>
<stop offset="1" stop-color="#C2C7CD"/>
</linearGradient>
<clipPath id="clip0_5700_1797">
<rect width="181.333" height="40" fill="white" transform="translate(0.606812)"/>
</clipPath>
</defs>
</svg>
