<svg width="161" height="40" viewBox="0 0 161 40" fill="none" xmlns="http://www.w3.org/2000/svg">
<g clip-path="url(#clip0_5699_1804)">
<path d="M0.410205 39.2108C-0.473454 36.908 0.482896 12.5747 1.54764 10.27C8.89208 -5.6277 32.2595 -2.30817 34.7608 14.9882C35.2689 18.5017 35.4066 37.8756 34.9322 39.1116C34.5034 40.2291 0.838059 40.3258 0.410205 39.2108ZM13.4144 36.1092C15.3071 31.1768 12.2235 24.1629 8.16233 24.1629C4.51093 24.1629 3.20938 26.263 3.20938 32.1547V36.9007H8.16C12.2127 36.9007 13.1657 36.7571 13.4144 36.1092ZM22.7146 29.0192C22.6963 15.9303 17.5392 10.4169 8.95987 14.3144C3.91395 16.6068 0.962448 23.3136 5.74163 21.6274C11.8886 19.4586 16.2202 23.6487 16.2202 31.7637C16.2202 37.059 16.1097 36.9007 19.8065 36.9007H22.7256L22.7146 29.0192ZM31.9833 25.1409C31.9833 12.191 31.733 11.0919 27.8806 7.12525C21.1278 0.172139 8.89125 1.99289 4.73987 10.5685C3.17189 13.8075 3.43332 14.0468 6.58719 12.2595C11.7788 9.31739 18.046 10.2109 22.044 14.4633C25.2039 17.8241 25.4583 18.8015 25.643 28.2913L25.8115 36.9463L28.8974 36.7984L31.9833 36.6505V25.1409ZM72.4912 28.1177C69.202 26.4944 68.1219 21.321 70.4856 18.5118C74.5012 13.7396 83.7763 16.2531 83.7763 22.1136V23.3895H78.5515C72.8641 23.3895 71.7735 23.8767 73.7955 25.5141C74.7387 26.2779 75.4501 26.4129 77.2529 26.1702C83.224 25.3664 84.2625 25.7688 81.3253 27.7482C79.2916 29.1187 74.8924 29.3027 72.4912 28.1177ZM80.1505 20.2619C79.5808 18.5348 75.1605 18.0313 73.3927 19.4922C72.1091 20.5529 72.869 20.8874 76.562 20.8874C79.3742 20.8874 80.3034 20.7255 80.1505 20.2619ZM86.4035 28.5626C85.398 28.1569 85.5173 11.5866 86.5286 11.1986C88.6 10.4037 88.7804 11.1 88.7804 19.8866C88.7804 27.9673 88.4949 29.5031 87.1132 28.8546C87.0669 28.8328 86.7475 28.7015 86.4035 28.5626ZM93.8837 28.0847C90.3525 26.2851 89.5831 20.9855 92.4386 18.13C95.4431 15.1255 101.992 15.4344 104.119 18.681C105.77 21.2015 103.425 22.4087 101.291 20.1368C98.687 17.3651 94.0848 18.9835 94.0848 22.6709C94.0848 25.9803 98.3344 27.4331 100.917 25.0066C102.397 23.6162 104.794 23.4867 104.794 24.7971C104.794 27.964 97.789 30.0748 93.8837 28.0847ZM110.508 28.4359C105.032 26.0807 105.689 18.0244 111.489 16.4005C119.37 14.1941 125.397 22.9545 119.175 27.5719C117.649 28.7049 112.359 29.2322 110.508 28.4359ZM117.429 24.8505C119.651 22.1323 117.524 18.7048 113.785 18.9792C110.918 19.1896 109.41 21.0389 110.111 23.4837C110.959 26.4433 115.443 27.2806 117.429 24.8505ZM123.935 28.5626C122.831 28.1174 123.122 20.951 124.323 18.9807C125.886 16.416 128.457 15.5371 131.381 16.5671C133.509 17.3165 133.855 17.3179 135.611 16.5843C137.961 15.6022 140.506 16.199 142.355 18.1664C143.931 19.8427 144.534 28.0148 143.123 28.5565C141.313 29.2508 140.824 28.429 140.824 24.6983C140.824 20.645 139.993 18.8857 138.079 18.8857C135.963 18.8857 135.319 20.106 135.319 24.1146C135.319 30.9022 132.246 30.8793 131.816 24.0885C131.525 19.4936 131.241 18.8857 129.385 18.8857C127.24 18.8857 126.812 19.718 126.812 23.8899C126.812 28.3685 126.144 29.454 123.935 28.5626ZM149.081 28.1153C141.154 24.0361 147.699 13.404 156.15 16.6315C162.533 19.0694 161.76 23.0596 154.841 23.3895C150.442 23.5992 149.566 23.7761 149.431 24.4817C149.079 26.3254 151.459 26.6596 157.462 25.6098C158.995 25.3418 159.339 25.4305 159.339 26.0944C159.339 28.4472 152.387 29.8168 149.081 28.1153ZM156.837 20.4483C156.837 19.0112 152.744 18.0181 150.872 19.0008C148.376 20.3102 149.04 20.8874 153.042 20.8874C155.129 20.8874 156.837 20.6898 156.837 20.4483ZM51.334 27.5471C50.403 25.7999 47.246 17.6834 47.246 17.037C47.246 14.5236 50.2086 16.5083 51.4995 19.8866C52.7829 23.2453 53.533 24.1084 54.0001 22.764C56.8302 14.6172 58.5521 13.9147 60.6981 20.0314C62.0892 23.9963 62.6457 24.0496 64.0099 20.3485C65.3415 16.7356 65.6107 16.3837 67.0419 16.3837C68.6712 16.3837 68.6099 17.0007 66.4338 22.5103C63.523 29.88 61.5664 30.6341 59.5336 25.1697C58.0837 21.2719 57.6613 21.2507 56.1949 25.0022C54.8483 28.4471 52.4755 29.6894 51.334 27.5471Z" fill="url(#paint0_linear_5699_1804)"/>
</g>
<defs>
<linearGradient id="paint0_linear_5699_1804" x1="0.0626223" y1="20.2469" x2="160.514" y2="20.2469" gradientUnits="userSpaceOnUse">
<stop stop-color="white"/>
<stop offset="1" stop-color="#C2C7CD"/>
</linearGradient>
<clipPath id="clip0_5699_1804">
<rect width="160.452" height="40" fill="white" transform="translate(0.0626221)"/>
</clipPath>
</defs>
</svg>
